<svg id="Layer_1" data-name="Layer 1" xmlns="http://www.w3.org/2000/svg" viewBox="0 0 360 201.9"><defs><style>.cls-1{fill:#005a9c;}.cls-2{fill:#a90533;}</style></defs><title>claiborne-medical-center</title><path class="cls-1" d="M165.7,178.9c-5.3,4.3-12.4,5.8-19.1,5.8-12.4,0-23.9-7-23.9-21.5,0-13.1,11.5-21.5,23.9-21.5,5.8,0,13,1.5,18.2,4.8l-2,6a8.46,8.46,0,0,1-.9,2.2,4,4,0,0,1-.7-1.6c-1.3-5.5-5.3-9.9-14.6-10.1-11.5,0-16.7,10.9-16.7,20.4s5.7,20.4,19.3,20.4c6.2,0,10.9-3.8,13.7-10.2,0.3-.8.4-1.3,0.7-1.3s0.3,0.2.6,1.1Z" transform="translate(0 0)"/><path class="cls-1" d="M212.2,176.9l6.7-13c0.9-2,1.8-4,1.8-5.5,0-1.8-1.2-2.4-2.4-2.8a0.69,0.69,0,0,1-.5-0.3c0-.2.2-0.2,0.5-0.2,1.4,0,1.8.2,4,.2,2,0,2.5-.2,3.9-0.2,0.4,0,.7,0,0.7.2a0.9,0.9,0,0,1-.5.6c-1.7,1.2-3.6,4-5.3,7.2l-10.2,19.5a2.26,2.26,0,0,1-.6.7h-0.1a1.45,1.45,0,0,1-.5-0.8l-9.2-17.9c-2-4-3.7-7.4-5.9-8.9a1.67,1.67,0,0,1-.6-0.5c0-.2.3-0.2,0.7-0.2,0.8,0,2.1.2,4.7,0.2,2.4,0,4.3-.2,4.7-0.2a1,1,0,0,1,.7.2,0.55,0.55,0,0,1-.5.4,1.9,1.9,0,0,0-1.5,2,10.46,10.46,0,0,0,1.3,3.6Z" transform="translate(0 0)"/><path class="cls-1" d="M229,165.2c-0.1,1.2-.2,2.3-0.2,3.4,0,9.7,5,13.4,10.1,13.4,6,0,10.5-4.1,12.3-10.3h1.1c-1.7,7.2-6.9,11.6-14,11.6-8.9,0-15.5-6-15.5-14.4s6.6-14.4,15.5-14.4c5.7,0,12.6,3.5,13.4,10.7H229Zm16-1c0-5.1-2.5-8.7-7.9-8.7-4.8,0-7.3,4.2-7.9,8.7H245Z" transform="translate(0 0)"/><path class="cls-1" d="M259,162.6h0.1c1.2-4.5,3.8-8.1,10.7-8.1,5.8,0,11.2,3,11.2,11.3v10.1c-0.1,5,.6,5.7,2.1,6.2a1,1,0,0,1,.7.4c0,0.2-.3.2-0.8,0.2s-1.8-.2-4.7-0.2-4.7.2-5.4,0.2c-0.3,0-.6,0-0.6-0.2s0.1-.3.5-0.3c1.9-.2,2.8-1.6,2.8-6.3V165.7c0-4.8-2.1-10-7.7-10-6.2,0-8.3,6.4-8.3,13.7v6.4c0,3.3.2,5.8,2.5,6.2a0.75,0.75,0,0,1,.6.3c0,0.2-.2.3-0.5,0.3s-2.5-.2-5.3-0.2-5.2.2-5.6,0.2-0.5-.1-0.5-0.3,0.2-.3.6-0.3c2.6-.4,2.8-2.9,2.8-6.2v-13c0-3.1-.4-4.9-1.8-5.6a2.44,2.44,0,0,1-.9-0.5c0-.2.4-0.2,1-0.3a46.45,46.45,0,0,0,6.6-1.5v7.7H259Z" transform="translate(0 0)"/><path class="cls-1" d="M309.2,177.9c0,1.7.3,3.3,1.9,4a1.41,1.41,0,0,1,.5.3c0,0.2-.3.2-0.7,0.2h-5.7a16.48,16.48,0,0,1-1.3-5.3h-0.1c-2,4.2-5.1,6.1-9.7,6.1-5.4,0-11.1-2.5-11.1-8.7,0-8,12.2-8.7,17.7-8.7h3V164c0-5-2.4-8.6-7.6-8.6-4.8,0-7.6,1.4-9.5,6a2.51,2.51,0,0,1-.4.9,1,1,0,0,1-.3-0.6l-1.4-4.7c4.3-2.3,7.7-2.6,12.4-2.6,6,0,12.3,2.1,12.3,8.7v14.8h0Zm-5.4-11.1h-3.1c-5.7,0-11.5,1.7-11.5,8.6a6.39,6.39,0,0,0,6.5,6.6c6.2,0,8.1-6.5,8.1-11.5v-3.7Z" transform="translate(0 0)"/><path class="cls-1" d="M319.2,162.6h0.1c1.2-4.5,3.8-8.1,10.7-8.1,5.8,0,11.2,3,11.2,11.3v10.1c-0.1,5,.6,5.7,2.1,6.2a1,1,0,0,1,.7.4c0,0.2-.3.2-0.8,0.2s-1.8-.2-4.7-0.2-4.7.2-5.4,0.2c-0.3,0-.6,0-0.6-0.2s0.1-.3.5-0.3c1.9-.2,2.8-1.6,2.8-6.3V165.7c0-4.8-2.1-10-7.7-10-6.2,0-8.3,6.4-8.3,13.7v6.4c0,3.3.2,5.8,2.5,6.2a0.75,0.75,0,0,1,.6.3c0,0.2-.2.3-0.5,0.3s-2.5-.2-5.3-0.2-5.2.2-5.6,0.2-0.5-.1-0.5-0.3,0.2-.3.6-0.3c2.6-.4,2.8-2.9,2.8-6.2v-13c0-3.1-.4-4.9-1.8-5.6a2.44,2.44,0,0,1-.9-0.5c0-.2.4-0.2,1-0.3a46.45,46.45,0,0,0,6.6-1.5v7.7h-0.1Z" transform="translate(0 0)"/><path class="cls-1" d="M342.3,158.2a0.47,0.47,0,0,1-.5-0.5,1.17,1.17,0,0,1,1-.7c3-1,5.5-3.5,7.4-7.4a0.69,0.69,0,0,1,.6-0.5c0.3,0,.3.4,0.3,0.7v6.8h5.8l-0.4,1.7h-5.4v14.9c0,7,1.7,8.2,3.4,8.8,0.4,0.2.6,0.2,0.6,0.4s-0.4.2-.8,0.2H348c-1.5-.7-2.2-1.8-2.2-3.8V158.4h-3.5v-0.2Z" transform="translate(0 0)"/><path class="cls-1" d="M260.4,192.8v-5.1c0-1-.3-1.9-1.1-2.1a0.77,0.77,0,0,1-.3-0.2c0-.1.2-0.1,0.4-0.1,0.4,0,1.6.1,2.4,0.1s2-.1,2.4-0.1c0.2,0,.4,0,0.4.1a1.24,1.24,0,0,1-.3.2c-0.8.2-1.1,1-1.1,2.1V199c0,1.2.2,2,1.4,2.5,0.2,0.1.2,0.1,0.2,0.2s-0.2.1-.4,0.1c-0.9,0-1.2-.1-2.7-0.1s-1.8.1-2.7,0.1c-0.3,0-.4,0-0.4-0.1a0.38,0.38,0,0,1,.2-0.2,2.42,2.42,0,0,0,1.4-2.5v-5.5h-9.7V199c0,1.2.2,2,1.4,2.5,0.2,0.1.2,0.1,0.2,0.2s-0.2.1-.4,0.1c-0.9,0-1.2-.1-2.7-0.1s-1.8.1-2.7,0.1c-0.3,0-.4,0-0.4-0.1a0.38,0.38,0,0,1,.2-0.2,2.42,2.42,0,0,0,1.4-2.5V187.7c0-1-.3-1.9-1.1-2.1a0.77,0.77,0,0,1-.3-0.2c0-.1.2-0.1,0.4-0.1,0.4,0,1.6.1,2.4,0.1s2-.1,2.4-0.1c0.2,0,.4,0,0.4.1a1.24,1.24,0,0,1-.3.2c-0.8.2-1.1,1-1.1,2.1v5.1h10.1Z" transform="translate(0 0)"/><path class="cls-1" d="M271,192.8h4.7c1.9,0,3.5-.9,3.8-1.9,0.1-.2.1-0.2,0.2-0.2s0.1,0.1.1,0.4v4.2c0,0.4,0,.5-0.1.5a0.7,0.7,0,0,1-.2-0.4c-0.7-1.9-2.8-2-4.6-2H271v5.4c0,1.9.6,2.3,2.4,2.3h2.9a10.58,10.58,0,0,0,6.6-2.8,1.79,1.79,0,0,1,.7-0.5c0.1,0,.1,0,0.1.1a0.2,0.2,0,0,1-.1.2l-1.1,3.7H267c-0.6,0-.8,0-0.8-0.1s0.5-.2.7-0.4c0.9-.7,1.1-1.4,1.1-3.8v-8.6c0-1.7-.1-2.7-1.1-3l-0.4-.2c0-.1.1-0.2,0.5-0.2h14.4l0.7,2.4a2.92,2.92,0,0,1,.2.9,0.35,0.35,0,0,1-.1.2,0.53,0.53,0,0,1-.3-0.2c-1.1-1.8-3.8-2.7-6.2-2.7H271v6.7Z" transform="translate(0 0)"/><path class="cls-1" d="M290.1,194.3l-1.4,2.7a6.15,6.15,0,0,0-.9,2.9,1.55,1.55,0,0,0,1.4,1.6c0.2,0.1.3,0.1,0.3,0.2s-0.1.1-.3,0.1-1.1-.1-2.5-0.1c-1,0-1.7.1-2,.1s-0.3-.1-0.3-0.1a0.7,0.7,0,0,1,.5-0.4,14.12,14.12,0,0,0,2.9-4l6.2-12.1a0.38,0.38,0,0,1,.2-0.2h0.1a0.22,0.22,0,0,1,.2.2l7.5,14a5.65,5.65,0,0,0,1.7,2.1,1.89,1.89,0,0,1,.6.4c0,0.1-.1.1-0.4,0.1s-1.4-.1-2.8-0.1c-2.1,0-2.9.1-3.1,0.1s-0.3,0-.3-0.1a0.25,0.25,0,0,1,.3-0.2,1.15,1.15,0,0,0,.7-1.3,9.87,9.87,0,0,0-1.1-2.9l-1.4-3h-6.1Zm3-5.9-2.7,5.3h5.4Z" transform="translate(0 0)"/><path class="cls-1" d="M309.8,198.4c0,2.5,1,2.7,3.1,2.7h1.3a9.94,9.94,0,0,0,6.7-2.9,4.67,4.67,0,0,1,.5-0.6,0.22,0.22,0,0,1,.2.2,2.27,2.27,0,0,0-.1.4l-1,3.7H305.6a1.45,1.45,0,0,1-.6-0.1,0.88,0.88,0,0,1,.6-0.2c1-.4,1.2-1.4,1.2-3.6V188a1.91,1.91,0,0,0-1.1-2c-0.2-.1-0.3-0.1-0.3-0.2s0.2-.1.4-0.1c0.4,0,1.6.1,2.4,0.1s2-.1,2.4-0.1c0.2,0,.3,0,0.3.1a0.38,0.38,0,0,1-.2.2c-0.8.3-1,1-1,2.1v10.3h0.1Z" transform="translate(0 0)"/><path class="cls-1" d="M325.4,187.3c0-1-.4-1.2-1.6-1.2a7.87,7.87,0,0,0-5.4,2.5,1.4,1.4,0,0,1-.5.4c-0.1,0-.1-0.1-0.1-0.2a3.93,3.93,0,0,1,.2-0.6l0.8-2.8h16l0.8,2.8a3.93,3.93,0,0,1,.2.6,0.35,0.35,0,0,1-.1.2c-0.1,0-.3-0.3-0.5-0.4a7.47,7.47,0,0,0-5.4-2.5c-1.1,0-1.6.2-1.6,1.2V199c0,1.2.3,2.2,1.5,2.5a0.39,0.39,0,0,1,.4.2,0.22,0.22,0,0,1-.2.2c-0.2,0-1.7-.1-3.2-0.1s-2.9.1-3.1,0.1-0.2-.1-0.2-0.1a0.77,0.77,0,0,1,.5-0.2c1.2-.5,1.4-1.2,1.4-3.6V187.3h0.1Z" transform="translate(0 0)"/><path class="cls-1" d="M351.2,192.8v-5.1c0-1-.3-1.9-1.1-2.1a0.77,0.77,0,0,1-.3-0.2c0-.1.2-0.1,0.4-0.1,0.4,0,1.6.1,2.4,0.1s2-.1,2.4-0.1c0.2,0,.4,0,0.4.1a1.24,1.24,0,0,1-.3.2c-0.8.2-1.1,1-1.1,2.1V199c0,1.2.2,2,1.4,2.5,0.2,0.1.2,0.1,0.2,0.2s-0.2.1-.4,0.1c-0.9,0-1.2-.1-2.7-0.1s-1.8.1-2.7,0.1c-0.3,0-.4,0-0.4-0.1a0.38,0.38,0,0,1,.2-0.2A2.42,2.42,0,0,0,351,199v-5.5h-9.7V199c0,1.2.2,2,1.4,2.5,0.2,0.1.2,0.1,0.2,0.2s-0.2.1-.4,0.1c-0.9,0-1.2-.1-2.7-0.1s-1.8.1-2.7,0.1c-0.3,0-.4,0-0.4-0.1a0.38,0.38,0,0,1,.2-0.2,2.42,2.42,0,0,0,1.4-2.5V187.7c0-1-.3-1.9-1.1-2.1a0.77,0.77,0,0,1-.3-0.2c0-.1.2-0.1,0.4-0.1,0.4,0,1.6.1,2.4,0.1s2-.1,2.4-0.1c0.2,0,.4,0,0.4.1a1.24,1.24,0,0,1-.3.2c-0.8.2-1.1,1-1.1,2.1v5.1h10.1Z" transform="translate(0 0)"/><path class="cls-2" d="M198.2,166.7c-0.2,4-.9,7-3.1,10.1a13.37,13.37,0,0,1-14.8,5.2c-5.8-1.6-12.2-9.2-8.5-17.8,1-2.2,3.8-5.9,8.3-6.5a12.31,12.31,0,0,0-9.8,4.6,14.3,14.3,0,0,0,4.7,21.6c6.6,3.2,16.6,1.7,21.3-6.6A17.57,17.57,0,0,0,198.2,166.7Z" transform="translate(0 0)"/><path class="cls-1" d="M166.1,171.7c0.2-4,.9-7,3.1-10.1a13.37,13.37,0,0,1,14.8-5.2c5.8,1.6,12.2,9.2,8.5,17.8-1,2.2-3.8,5.9-8.3,6.5a12.31,12.31,0,0,0,9.8-4.6,14.3,14.3,0,0,0-4.7-21.6c-6.6-3.2-16.6-1.7-21.3,6.6A17.44,17.44,0,0,0,166.1,171.7Z" transform="translate(0 0)"/><path class="cls-1" d="M359.3,199a1.46,1.46,0,1,1-1.1-.5A1.61,1.61,0,0,1,359.3,199Zm0.2-.2a1.66,1.66,0,0,0-1.3-.5,2.11,2.11,0,0,0-1.3.5,1.66,1.66,0,0,0-.5,1.3,2.11,2.11,0,0,0,.5,1.3,1.66,1.66,0,0,0,1.3.5,2.11,2.11,0,0,0,1.3-.5,1.66,1.66,0,0,0,.5-1.3A2.11,2.11,0,0,0,359.5,198.8Zm-1.1,1.2h-0.6v-0.7h0.3a0.48,0.48,0,0,1,.4.1c0.1,0,.1.1,0.1,0.3S358.6,200,358.4,200Zm-1,1.1h0.4v-0.8h0.3a0.48,0.48,0,0,1,.4.1,0.59,0.59,0,0,1,.2.5v0.3H359v-0.3a0.37,0.37,0,0,0-.1-0.3,0.53,0.53,0,0,0-.3-0.2c0.1,0,.2-0.1.3-0.1a0.52,0.52,0,0,0,.2-0.4,0.46,0.46,0,0,0-.3-0.5,4.33,4.33,0,0,0-.5-0.1h-0.7v1.8h-0.2Z" transform="translate(0 0)"/><path class="cls-1" d="M51.5,126.3a9.52,9.52,0,0,1-3.8-.7,8.46,8.46,0,0,1-4.9-5.5,13.67,13.67,0,0,1-.7-4.7,12.72,12.72,0,0,1,.7-4.6,9,9,0,0,1,2-3.4,7.11,7.11,0,0,1,3-2.1,9.2,9.2,0,0,1,3.8-.7,12.31,12.31,0,0,1,2,.2,8.47,8.47,0,0,1,1.7.4,7.84,7.84,0,0,1,1.4.5,9.14,9.14,0,0,1,1.4.7v3.4H57.9c-0.2-.2-0.6-0.5-0.9-0.8s-0.9-.6-1.4-0.9a8.65,8.65,0,0,0-1.7-.7,7.32,7.32,0,0,0-2.2-.3,7,7,0,0,0-2.5.5,6.52,6.52,0,0,0-2.1,1.6,6.91,6.91,0,0,0-1.4,2.7,13.61,13.61,0,0,0-.5,3.6,13.24,13.24,0,0,0,.5,3.7,7.22,7.22,0,0,0,1.4,2.6,6.52,6.52,0,0,0,2.1,1.6,5.34,5.34,0,0,0,2.5.5,7.32,7.32,0,0,0,2.2-.3,7.51,7.51,0,0,0,1.8-.7A7.3,7.3,0,0,0,57,122a8.18,8.18,0,0,0,.9-0.8H58v3.3c-0.5.2-.9,0.4-1.3,0.6a11.64,11.64,0,0,1-1.5.6c-0.6.2-1.2,0.3-1.7,0.5C53,126.2,52.3,126.3,51.5,126.3Z" transform="translate(0 0)"/><path class="cls-1" d="M63.1,125.9H60.5V104h2.6v21.9Z" transform="translate(0 0)"/><path class="cls-1" d="M75.8,124.2a9.68,9.68,0,0,1-.9.7c-0.4.3-.7,0.5-1,0.7-0.5.2-.9,0.4-1.4,0.6a7.45,7.45,0,0,1-1.8.2,3.66,3.66,0,0,1-1.8-.4,4,4,0,0,1-1.5-1,4.35,4.35,0,0,1-1-1.6,4.48,4.48,0,0,1-.4-2,5.07,5.07,0,0,1,.7-2.8,4.41,4.41,0,0,1,2.2-1.8A9.39,9.39,0,0,1,72,116a23.76,23.76,0,0,1,3.9-.3v-0.5a3.34,3.34,0,0,0-.3-1.5,2.36,2.36,0,0,0-.8-0.9,2.45,2.45,0,0,0-1.2-.4,7.57,7.57,0,0,0-1.5-.1,10.33,10.33,0,0,0-2.2.3,12.09,12.09,0,0,0-2.5.8H67.2v-2.7c0.5-.1,1.2-0.3,2.1-0.5a12.41,12.41,0,0,1,2.7-.3,10.06,10.06,0,0,1,2.7.3,7.22,7.22,0,0,1,2,.9,3.71,3.71,0,0,1,1.3,1.7,6.25,6.25,0,0,1,.4,2.5v10.8H75.8v-1.9h0Zm0-2.2v-4.4c-0.6.1-1.4,0.1-2.4,0.2a10.75,10.75,0,0,0-2.3.4,3.23,3.23,0,0,0-1.7,1,2.94,2.94,0,0,0-.7,1.9,2.48,2.48,0,0,0,.8,2,2.92,2.92,0,0,0,2.2.7,5.93,5.93,0,0,0,2.3-.5A5.5,5.5,0,0,0,75.8,122Z" transform="translate(0 0)"/><path class="cls-1" d="M85,107.6H82v-2.7h3v2.7Zm-0.2,18.3H82.2V110.2h2.6v15.7Z" transform="translate(0 0)"/><path class="cls-1" d="M101.9,117.8A9.38,9.38,0,0,1,100,124a5.78,5.78,0,0,1-4.7,2.4,6.87,6.87,0,0,1-2.2-.3,7.57,7.57,0,0,1-1.8-.9l-0.2.7H88.6V104h2.6v7.8a10.71,10.71,0,0,1,2.2-1.5,5.83,5.83,0,0,1,2.6-.6,4.87,4.87,0,0,1,4.2,2.1A9.3,9.3,0,0,1,101.9,117.8Zm-2.7.2a8.35,8.35,0,0,0-.9-4.3,3,3,0,0,0-2.8-1.5,5.85,5.85,0,0,0-2.2.5,8.58,8.58,0,0,0-2,1.3v9a10.83,10.83,0,0,0,1.8.7,8.81,8.81,0,0,0,1.7.2,4,4,0,0,0,3.2-1.4Q99.2,121.15,99.2,118Z" transform="translate(0 0)"/><path class="cls-1" d="M117.6,118.1c0,2.6-.6,4.7-1.9,6.1a6.71,6.71,0,0,1-5.1,2.2,6.45,6.45,0,0,1-5.2-2.2,8.92,8.92,0,0,1-1.9-6.1c0-2.6.6-4.7,1.9-6.1a7,7,0,0,1,10.2,0C117,113.4,117.6,115.4,117.6,118.1Zm-2.7,0a7.62,7.62,0,0,0-1.1-4.5,3.68,3.68,0,0,0-3.2-1.5,3.8,3.8,0,0,0-3.2,1.5,9.75,9.75,0,0,0,0,9,3.68,3.68,0,0,0,3.2,1.5,3.8,3.8,0,0,0,3.2-1.5A7.84,7.84,0,0,0,114.9,118.1Z" transform="translate(0 0)"/><path class="cls-1" d="M128.7,113h-0.1a1.27,1.27,0,0,0-.6-0.1h-0.8a5.37,5.37,0,0,0-2.1.5,6.61,6.61,0,0,0-2,1.4V126h-2.6V110.3h2.6v2.3a10,10,0,0,1,2.5-1.8,4.06,4.06,0,0,1,2.1-.5h0.6a1.09,1.09,0,0,1,.5.1V113h-0.1Z" transform="translate(0 0)"/><path class="cls-1" d="M143.1,125.9h-2.6v-9a12.75,12.75,0,0,0-.1-2,5.42,5.42,0,0,0-.4-1.5,2,2,0,0,0-.9-0.9,3.51,3.51,0,0,0-1.6-.3,4.92,4.92,0,0,0-2,.5,9,9,0,0,0-2,1.4v11.7h-2.6V110.1h2.6v1.7a13.81,13.81,0,0,1,2.3-1.6,5.33,5.33,0,0,1,2.4-.6,4.47,4.47,0,0,1,3.6,1.5,6.43,6.43,0,0,1,1.3,4.4v10.4Z" transform="translate(0 0)"/><path class="cls-1" d="M153.6,126.3a7.63,7.63,0,0,1-5.8-2.1,8.12,8.12,0,0,1-2.1-6,9,9,0,0,1,2-6.1,6.74,6.74,0,0,1,5.3-2.3,7.1,7.1,0,0,1,2.6.4,5.41,5.41,0,0,1,3.3,3.5,9.77,9.77,0,0,1,.5,3.2v1.4H148.5a6.07,6.07,0,0,0,1.4,4.2,4.9,4.9,0,0,0,3.8,1.5,8.81,8.81,0,0,0,1.7-.2,5.27,5.27,0,0,0,1.5-.5,6.66,6.66,0,0,0,1.2-.6,5.55,5.55,0,0,0,.8-0.6h0.2V125c-0.3.1-.7,0.3-1.2,0.5s-0.9.3-1.2,0.4c-0.5.1-1,.2-1.4,0.3S154.3,126.3,153.6,126.3Zm3.1-10a4.84,4.84,0,0,0-.3-1.8,8.09,8.09,0,0,0-.6-1.3,2.73,2.73,0,0,0-1.2-.9,5.55,5.55,0,0,0-3.6,0,3.81,3.81,0,0,0-1.3.9,4.19,4.19,0,0,0-.9,1.4,8,8,0,0,0-.4,1.8h8.3v-0.1Z" transform="translate(0 0)"/><path class="cls-1" d="M189.2,125.9h-2.8V107.8l-5.5,12.3h-1.7l-5.4-12.3v18.1h-2.6v-21H175l5.2,11.7,5.1-11.7h3.9v21Z" transform="translate(0 0)"/><path class="cls-1" d="M200.1,126.3a7.63,7.63,0,0,1-5.8-2.1,8.12,8.12,0,0,1-2.1-6,9,9,0,0,1,2-6.1,6.74,6.74,0,0,1,5.3-2.3,7.1,7.1,0,0,1,2.6.4,5.41,5.41,0,0,1,3.3,3.5,9.77,9.77,0,0,1,.5,3.2v1.4H195a6.07,6.07,0,0,0,1.4,4.2,4.9,4.9,0,0,0,3.8,1.5,8.81,8.81,0,0,0,1.7-.2,5.27,5.27,0,0,0,1.5-.5,6.66,6.66,0,0,0,1.2-.6,5.55,5.55,0,0,0,.8-0.6h0.2V125c-0.3.1-.7,0.3-1.2,0.5s-0.9.3-1.2,0.4c-0.5.1-1,.2-1.4,0.3C201.2,126.2,200.7,126.3,200.1,126.3Zm3.1-10a4.84,4.84,0,0,0-.3-1.8,8.09,8.09,0,0,0-.6-1.3,2.73,2.73,0,0,0-1.2-.9,5.55,5.55,0,0,0-3.6,0,3.81,3.81,0,0,0-1.3.9,4.19,4.19,0,0,0-.9,1.4,8,8,0,0,0-.4,1.8h8.3v-0.1Z" transform="translate(0 0)"/><path class="cls-1" d="M220.5,125.9h-2.6v-1.6a10.63,10.63,0,0,0-1.1.9,10.91,10.91,0,0,1-1.1.6,5.64,5.64,0,0,1-1.2.4,6.15,6.15,0,0,1-1.4.1,6.44,6.44,0,0,1-2.4-.5,7,7,0,0,1-1.9-1.6,8.93,8.93,0,0,1-1.2-2.6,14.25,14.25,0,0,1,.1-7.1,7.4,7.4,0,0,1,1.5-2.6,6.52,6.52,0,0,1,2.1-1.6,5.83,5.83,0,0,1,2.6-.6,6.65,6.65,0,0,1,2.1.3,7.1,7.1,0,0,1,1.8.8V104h2.6v21.9h0.1Zm-2.6-3.8V113c-0.7-.3-1.2-0.5-1.8-0.7a8.81,8.81,0,0,0-1.7-.2,3.8,3.8,0,0,0-3.2,1.5A7,7,0,0,0,210,118a8,8,0,0,0,.9,4.2,3,3,0,0,0,2.8,1.5,5.37,5.37,0,0,0,2.1-.5A6.06,6.06,0,0,0,217.9,122.1Z" transform="translate(0 0)"/><path class="cls-1" d="M227.2,107.6h-3v-2.7h3v2.7ZM227,125.9h-2.6V110.2H227v15.7Z" transform="translate(0 0)"/><path class="cls-1" d="M237.2,126.3a9.43,9.43,0,0,1-3-.5,5.13,5.13,0,0,1-2.3-1.5,6.6,6.6,0,0,1-1.5-2.6,9.8,9.8,0,0,1-.5-3.6,9.69,9.69,0,0,1,.6-3.6A8.74,8.74,0,0,1,232,112a6.34,6.34,0,0,1,2.3-1.6,7.31,7.31,0,0,1,3-.6,6.9,6.9,0,0,1,2.5.4,10.23,10.23,0,0,1,2.1.8v3h-0.2a4.23,4.23,0,0,0-.7-0.5,10.91,10.91,0,0,0-1.1-.6,5,5,0,0,0-1.3-.5,7.84,7.84,0,0,0-1.4-.2,3.82,3.82,0,0,0-3.3,1.6,7,7,0,0,0-1.2,4.4,6.68,6.68,0,0,0,1.2,4.3,4.08,4.08,0,0,0,3.3,1.6,7,7,0,0,0,2.5-.5,6,6,0,0,0,2.1-1.4H242v3a10.38,10.38,0,0,1-1,.4,7.6,7.6,0,0,1-1.1.4,10.38,10.38,0,0,0-1.2.3A7.5,7.5,0,0,0,237.2,126.3Z" transform="translate(0 0)"/><path class="cls-1" d="M253,124.2a9.68,9.68,0,0,1-.9.7c-0.4.3-.7,0.5-1,0.7-0.5.2-.9,0.4-1.4,0.6a7.45,7.45,0,0,1-1.8.2,3.66,3.66,0,0,1-1.8-.4,4,4,0,0,1-1.5-1,4.35,4.35,0,0,1-1-1.6,4.48,4.48,0,0,1-.4-2,5.07,5.07,0,0,1,.7-2.8,4.41,4.41,0,0,1,2.2-1.8,9.39,9.39,0,0,1,3.1-.8,23.76,23.76,0,0,1,3.9-.3v-0.5a3.34,3.34,0,0,0-.3-1.5,2.36,2.36,0,0,0-.8-0.9,2.45,2.45,0,0,0-1.2-.4,7.57,7.57,0,0,0-1.5-.1,10.33,10.33,0,0,0-2.2.3,12.09,12.09,0,0,0-2.5.8h-0.2v-2.7c0.5-.1,1.2-0.3,2.1-0.5a12.41,12.41,0,0,1,2.7-.3,10.06,10.06,0,0,1,2.7.3,7.22,7.22,0,0,1,2,.9,3.71,3.71,0,0,1,1.3,1.7,6.25,6.25,0,0,1,.4,2.5v10.8H253v-1.9Zm0-2.2v-4.4c-0.6.1-1.4,0.1-2.4,0.2a10.75,10.75,0,0,0-2.3.4,3.23,3.23,0,0,0-1.7,1,2.35,2.35,0,0,0-.7,1.9,2.48,2.48,0,0,0,.8,2,3.39,3.39,0,0,0,2.2.7,5.93,5.93,0,0,0,2.3-.5A5.5,5.5,0,0,0,253,122Z" transform="translate(0 0)"/><path class="cls-1" d="M262.1,125.9h-2.6V104h2.6v21.9Z" transform="translate(0 0)"/><path class="cls-1" d="M283.4,126.3a9.52,9.52,0,0,1-3.8-.7,8.46,8.46,0,0,1-4.9-5.5,13.67,13.67,0,0,1-.7-4.7,12.72,12.72,0,0,1,.7-4.6,9,9,0,0,1,2-3.4,7.11,7.11,0,0,1,3-2.1,9.2,9.2,0,0,1,3.8-.7,12.31,12.31,0,0,1,2,.2,8.47,8.47,0,0,1,1.7.4,7.84,7.84,0,0,1,1.4.5,9.14,9.14,0,0,1,1.4.7v3.4h-0.2c-0.2-.2-0.6-0.5-0.9-0.8a8.51,8.51,0,0,0-1.4-.9,8.65,8.65,0,0,0-1.7-.7,7.32,7.32,0,0,0-2.2-.3,7,7,0,0,0-2.5.5,6.52,6.52,0,0,0-2.1,1.6,6.91,6.91,0,0,0-1.4,2.7,13.61,13.61,0,0,0-.5,3.6,13.24,13.24,0,0,0,.5,3.7,7.22,7.22,0,0,0,1.4,2.6,6.52,6.52,0,0,0,2.1,1.6,5.34,5.34,0,0,0,2.5.5,7.32,7.32,0,0,0,2.2-.3,7.51,7.51,0,0,0,1.8-.7,7.3,7.3,0,0,0,1.3-.9,8.17,8.17,0,0,0,.9-0.8H290v3.3c-0.5.2-.9,0.4-1.3,0.6a11.64,11.64,0,0,1-1.5.6c-0.6.2-1.2,0.3-1.7,0.5C284.9,126.2,284.2,126.3,283.4,126.3Z" transform="translate(0 0)"/><path class="cls-1" d="M299.1,126.3a7.63,7.63,0,0,1-5.8-2.1,8.12,8.12,0,0,1-2.1-6,9,9,0,0,1,2-6.1,6.74,6.74,0,0,1,5.3-2.3,7.1,7.1,0,0,1,2.6.4,5.41,5.41,0,0,1,3.3,3.5,9.77,9.77,0,0,1,.5,3.2v1.4H294a6.07,6.07,0,0,0,1.4,4.2,4.9,4.9,0,0,0,3.8,1.5,8.81,8.81,0,0,0,1.7-.2,5.27,5.27,0,0,0,1.5-.5,6.66,6.66,0,0,0,1.2-.6,5.54,5.54,0,0,0,.8-0.6h0.2V125c-0.3.1-.7,0.3-1.2,0.5s-0.9.3-1.2,0.4c-0.5.1-1,.2-1.4,0.3S299.8,126.3,299.1,126.3Zm3.1-10a4.84,4.84,0,0,0-.3-1.8,8.1,8.1,0,0,0-.6-1.3,2.73,2.73,0,0,0-1.2-.9,5.55,5.55,0,0,0-3.6,0,3.81,3.81,0,0,0-1.3.9,4.19,4.19,0,0,0-.9,1.4,8,8,0,0,0-.4,1.8h8.3v-0.1Z" transform="translate(0 0)"/><path class="cls-1" d="M319.9,125.9h-2.6v-9a12.75,12.75,0,0,0-.1-2,5.42,5.42,0,0,0-.4-1.5,2,2,0,0,0-.9-0.9,3.51,3.51,0,0,0-1.6-.3,4.92,4.92,0,0,0-2,.5,9,9,0,0,0-2,1.4v11.7h-2.6V110.1h2.6v1.7a13.81,13.81,0,0,1,2.3-1.6,5.33,5.33,0,0,1,2.4-.6,4.47,4.47,0,0,1,3.6,1.5,6.43,6.43,0,0,1,1.3,4.4v10.4h0Z" transform="translate(0 0)"/><path class="cls-1" d="M328.3,126.2a4.7,4.7,0,0,1-3.4-1.2,5.36,5.36,0,0,1-1.2-3.9v-8.7H322v-2.2h1.8v-4.5h2.6v4.5h4.9v2.2h-4.9v9.3a2.66,2.66,0,0,0,.3,1.2,1.39,1.39,0,0,0,.8.7,3.2,3.2,0,0,0,1.5.2,6.88,6.88,0,0,0,1.3-.2,4.65,4.65,0,0,0,.9-0.3h0.2v2.4a8,8,0,0,1-1.5.3A5,5,0,0,1,328.3,126.2Z" transform="translate(0 0)"/><path class="cls-1" d="M340,126.3a7.63,7.63,0,0,1-5.8-2.1,8.12,8.12,0,0,1-2.1-6,9,9,0,0,1,2-6.1,6.74,6.74,0,0,1,5.3-2.3,7.1,7.1,0,0,1,2.6.4,5.41,5.41,0,0,1,3.3,3.5,9.77,9.77,0,0,1,.5,3.2v1.4H334.9a6.07,6.07,0,0,0,1.4,4.2,4.9,4.9,0,0,0,3.8,1.5,8.81,8.81,0,0,0,1.7-.2,5.27,5.27,0,0,0,1.5-.5,6.66,6.66,0,0,0,1.2-.6,5.55,5.55,0,0,0,.8-0.6h0.2V125c-0.3.1-.7,0.3-1.2,0.5s-0.9.3-1.2,0.4c-0.5.1-1,.2-1.4,0.3S340.7,126.3,340,126.3Zm3.1-10a4.84,4.84,0,0,0-.3-1.8,8.1,8.1,0,0,0-.6-1.3,2.73,2.73,0,0,0-1.2-.9,5.55,5.55,0,0,0-3.6,0,3.81,3.81,0,0,0-1.3.9,4.19,4.19,0,0,0-.9,1.4,8,8,0,0,0-.4,1.8h8.3v-0.1Z" transform="translate(0 0)"/><path class="cls-1" d="M356.7,113h-0.1a1.27,1.27,0,0,0-.6-0.1h-0.8a5.37,5.37,0,0,0-2.1.5,6.61,6.61,0,0,0-2,1.4V126h-2.6V110.3h2.6v2.3a10,10,0,0,1,2.5-1.8,4.06,4.06,0,0,1,2.1-.5h0.6a1.09,1.09,0,0,1,.5.1V113h-0.1Z" transform="translate(0 0)"/><path class="cls-1" d="M356.2,132H10.9l0.1,1.3H356.3a0.58,0.58,0,0,0,.6-0.6A0.75,0.75,0,0,0,356.2,132Z" transform="translate(0 0)"/><path class="cls-2" d="M34.7,126.1c-3.8-16-3-34,5.2-52.6C46.4,58.7,65,34.3,95,30.3c-22.3-.7-46.3,8.3-64.4,30.4C15.2,79.5,8.7,103.1,10.4,126.2H34.7v-0.1Z" transform="translate(0 0)"/><path class="cls-1" d="M118.8,22.3c28.4,8,59.5,38,63,76.4h22.7C206,63.5,188,27.6,153.2,10.4,109.9-11,43.9-.8,12.9,54.4,2.4,73.1-2.2,100,1,123.4,2.4,97,6.7,77,21.2,56.5,47.1,19.8,88.7,13.8,118.8,22.3Z" transform="translate(0 0)"/></svg>