<svg id="Layer_1" data-name="Layer 1" xmlns="http://www.w3.org/2000/svg" viewBox="0 0 360.33 230.72"><defs><style>.cls-1{fill:#005a9c;}.cls-2{fill:#a90533;}</style></defs><title>morristown-hamblen-health-system</title><path class="cls-1" d="M78.81,110.8H75.63V90.22l-6.22,14H67.48l-6.17-14V110.8h-3V86.92h4.33l6,13.3,5.76-13.3h4.41V110.8Z" transform="translate(0.14)"/><path class="cls-1" d="M98.15,101.85q0,4.52-2.18,7a7.38,7.38,0,0,1-5.81,2.46,7.27,7.27,0,0,1-5.88-2.54,10.38,10.38,0,0,1-2.14-6.9,10.16,10.16,0,0,1,2.21-7,8,8,0,0,1,11.62,0Q98.15,97.34,98.15,101.85Zm-3.11,0a8.62,8.62,0,0,0-1.27-5.17,4.72,4.72,0,0,0-7.24,0,8.58,8.58,0,0,0-1.27,5.17A8.58,8.58,0,0,0,86.53,107a4.66,4.66,0,0,0,7.23,0A8.56,8.56,0,0,0,95,101.85Z" transform="translate(0.14)"/><path class="cls-1" d="M110.74,96.12h-0.16a3.35,3.35,0,0,0-.71-0.12L109,96a6,6,0,0,0-2.42.53,7.78,7.78,0,0,0-2.28,1.57V110.8h-3V92.88h3v2.66a13.79,13.79,0,0,1,2.88-2.06,5.4,5.4,0,0,1,2.38-.6q0.47,0,.7,0L110.74,93v3.14Z" transform="translate(0.14)"/><path class="cls-1" d="M122.57,96.12h-0.16A3.35,3.35,0,0,0,121.7,96l-0.91,0a6,6,0,0,0-2.42.53,7.78,7.78,0,0,0-2.28,1.57V110.8h-3V92.88h3v2.66A13.79,13.79,0,0,1,119,93.49a5.4,5.4,0,0,1,2.38-.6q0.47,0,.7,0L122.57,93v3.14Z" transform="translate(0.14)"/><path class="cls-1" d="M128.2,89.89h-3.43V86.76h3.43v3.13ZM128,110.8h-3V92.88h3V110.8Z" transform="translate(0.14)"/><path class="cls-1" d="M137.27,111.23a11.37,11.37,0,0,1-3.36-.48,15,15,0,0,1-2.59-1v-3.38h0.16q0.38,0.3.91,0.67a9,9,0,0,0,1.39.77,12.69,12.69,0,0,0,1.69.63,6.72,6.72,0,0,0,1.92.27,7.67,7.67,0,0,0,1.54-.17,3.73,3.73,0,0,0,1.22-.43,2.54,2.54,0,0,0,.81-0.79,2.5,2.5,0,0,0,.25-1.25,2.11,2.11,0,0,0-.59-1.62,4.82,4.82,0,0,0-2.08-.91q-0.58-.14-1.51-0.34t-1.72-.42a5.48,5.48,0,0,1-3-1.84,5.23,5.23,0,0,1,.9-7,7.35,7.35,0,0,1,4.86-1.52,12.58,12.58,0,0,1,3,.37,10.51,10.51,0,0,1,2.53.93V97h-0.16a9.42,9.42,0,0,0-2.57-1.44A8.14,8.14,0,0,0,138,95a4.76,4.76,0,0,0-2.52.63,2.07,2.07,0,0,0-1,1.89,2.15,2.15,0,0,0,.61,1.68,4.7,4.7,0,0,0,2,.91q0.67,0.18,1.5.34t1.74,0.39a5.64,5.64,0,0,1,3,1.65,4.63,4.63,0,0,1,1,3.14,5.35,5.35,0,0,1-.46,2.19,4.83,4.83,0,0,1-1.34,1.77,6.85,6.85,0,0,1-2.17,1.22A9.46,9.46,0,0,1,137.27,111.23Z" transform="translate(0.14)"/><path class="cls-1" d="M152.5,111.15a5.15,5.15,0,0,1-3.85-1.4,6.13,6.13,0,0,1-1.38-4.43V95.39h-2v-2.5h2V87.74h3v5.15h5.55v2.5h-5.55v8.52q0,1.36,0,2.1a3.56,3.56,0,0,0,.37,1.38,1.76,1.76,0,0,0,.88.84,4,4,0,0,0,1.65.28,4.75,4.75,0,0,0,1.43-.22,8.67,8.67,0,0,0,1-.36h0.18v2.71a14.63,14.63,0,0,1-1.72.38A10.55,10.55,0,0,1,152.5,111.15Z" transform="translate(0.14)"/><path class="cls-1" d="M172.81,101.85q0,4.52-2.18,7a7.38,7.38,0,0,1-5.81,2.46,7.27,7.27,0,0,1-5.88-2.54,10.38,10.38,0,0,1-2.14-6.9,10.16,10.16,0,0,1,2.21-7,8,8,0,0,1,11.62,0Q172.81,97.34,172.81,101.85Zm-3.11,0a8.62,8.62,0,0,0-1.27-5.17,4.72,4.72,0,0,0-7.24,0,8.58,8.58,0,0,0-1.27,5.17,8.58,8.58,0,0,0,1.27,5.11,4.66,4.66,0,0,0,7.23,0A8.56,8.56,0,0,0,169.7,101.85Z" transform="translate(0.14)"/><path class="cls-1" d="M197.62,92.88l-4.54,17.92h-2.79L185.91,97l-4.35,13.81h-2.77L174.2,92.88h3.14l3.16,13.87,4.25-13.87h2.49l4.36,13.87,3-13.87h3Z" transform="translate(0.14)"/><path class="cls-1" d="M214.36,110.8h-3V100.6a20.51,20.51,0,0,0-.12-2.3,4.89,4.89,0,0,0-.46-1.71,2.35,2.35,0,0,0-1-1,4.07,4.07,0,0,0-1.8-.33,5.14,5.14,0,0,0-2.32.6,12,12,0,0,0-2.33,1.56V110.8h-3V92.88h3v2A11.86,11.86,0,0,1,206,93a6.25,6.25,0,0,1,2.78-.64,5.16,5.16,0,0,1,4.14,1.74,7.54,7.54,0,0,1,1.49,5V110.8Z" transform="translate(0.14)"/><path class="cls-1" d="M226.91,101.8h-9V98.9h9v2.9Z" transform="translate(0.14)"/><path class="cls-1" d="M248.11,110.8h-3.18V99.11h-11V110.8h-3.17V86.92h3.17v9.37h11V86.92h3.18V110.8Z" transform="translate(0.14)"/><path class="cls-1" d="M262.72,108.89l-1,.76a6.92,6.92,0,0,1-1.19.78,9,9,0,0,1-1.55.64,7.61,7.61,0,0,1-2.09.22,5.42,5.42,0,0,1-3.85-1.59,5.49,5.49,0,0,1-1.15-1.82,6.11,6.11,0,0,1-.43-2.29,6,6,0,0,1,.79-3.17,5.36,5.36,0,0,1,2.49-2.08,12.33,12.33,0,0,1,3.56-1q2.05-.27,4.43-0.39V98.43a3.88,3.88,0,0,0-.32-1.71,2.38,2.38,0,0,0-.9-1,3.52,3.52,0,0,0-1.41-.49,12,12,0,0,0-1.72-.12,11.54,11.54,0,0,0-2.45.31,16.44,16.44,0,0,0-2.82.91h-0.18V93.27q0.83-.24,2.39-0.53a16.85,16.85,0,0,1,3.08-.29,14.26,14.26,0,0,1,3.11.29,6,6,0,0,1,2.28,1,4.47,4.47,0,0,1,1.46,1.91,7.52,7.52,0,0,1,.48,2.85V110.8h-3v-1.91Zm0-2.5v-5l-2.72.26a14.65,14.65,0,0,0-2.65.47,4.85,4.85,0,0,0-2,1.13,2.82,2.82,0,0,0-.79,2.12,3,3,0,0,0,.87,2.33,3.65,3.65,0,0,0,2.53.79,5.39,5.39,0,0,0,2.58-.62A11.21,11.21,0,0,0,262.72,106.39Z" transform="translate(0.14)"/><path class="cls-1" d="M290.29,110.8V100.44q0-1.23-.1-2.29a4.58,4.58,0,0,0-.4-1.64,2.06,2.06,0,0,0-.91-0.95,3.54,3.54,0,0,0-1.6-.3,4.27,4.27,0,0,0-2,.57,10.46,10.46,0,0,0-2.21,1.64l0,0.65q0,0.38,0,.89V110.8h-3V100.44q0-1.23-.1-2.29a4.6,4.6,0,0,0-.4-1.64,2.07,2.07,0,0,0-.91-0.95,3.54,3.54,0,0,0-1.6-.3,4.17,4.17,0,0,0-2.05.61A11,11,0,0,0,273,97.42V110.8h-3V92.88h3v2A10.92,10.92,0,0,1,275.32,93a5.16,5.16,0,0,1,2.56-.65,5.45,5.45,0,0,1,2.81.72,4.52,4.52,0,0,1,1.87,2.37,12.05,12.05,0,0,1,2.66-2.31,5.35,5.35,0,0,1,2.82-.79,5.87,5.87,0,0,1,2.1.36,4.16,4.16,0,0,1,1.65,1.16,5.66,5.66,0,0,1,1.11,2,10.15,10.15,0,0,1,.39,3.06V110.8h-3Z" transform="translate(0.14)"/><path class="cls-1" d="M312.57,101.55a11,11,0,0,1-2.13,7.07,6.56,6.56,0,0,1-5.34,2.68,7.59,7.59,0,0,1-2.49-.36,10.9,10.9,0,0,1-2-1l-0.19.83h-2.82v-25h3v8.92a11.29,11.29,0,0,1,2.47-1.7,6.58,6.58,0,0,1,3-.67,5.57,5.57,0,0,1,4.78,2.43A11.34,11.34,0,0,1,312.57,101.55Zm-3.11.24a9.74,9.74,0,0,0-1-4.87,3.37,3.37,0,0,0-3.14-1.66,6,6,0,0,0-2.49.58,9.68,9.68,0,0,0-2.29,1.46v10.26a11.06,11.06,0,0,0,2,.79,7.61,7.61,0,0,0,1.94.23,4.39,4.39,0,0,0,3.62-1.64Q309.46,105.31,309.46,101.79Z" transform="translate(0.14)"/><path class="cls-1" d="M318.77,110.8h-3v-25h3v25Z" transform="translate(0.14)"/><path class="cls-1" d="M331,111.22a8.89,8.89,0,0,1-6.65-2.41q-2.37-2.41-2.37-6.86a10.13,10.13,0,0,1,2.29-7,7.63,7.63,0,0,1,6-2.59,8.37,8.37,0,0,1,3,.48,5.87,5.87,0,0,1,2.25,1.51,6.92,6.92,0,0,1,1.48,2.51,11.2,11.2,0,0,1,.51,3.63v1.64H325a6.67,6.67,0,0,0,1.57,4.78,5.71,5.71,0,0,0,4.35,1.65,8.48,8.48,0,0,0,1.95-.22,9.17,9.17,0,0,0,1.72-.58,12.43,12.43,0,0,0,1.38-.71,8.28,8.28,0,0,0,.93-0.65h0.18v3.29l-1.32.52a14.42,14.42,0,0,1-1.41.49q-0.88.24-1.6,0.37A10.49,10.49,0,0,1,331,111.22Zm3.53-11.37a8.41,8.41,0,0,0-.29-2.1,4.34,4.34,0,0,0-.74-1.49,3.37,3.37,0,0,0-1.36-1,6,6,0,0,0-4.09,0,4.86,4.86,0,0,0-1.53,1.05,5,5,0,0,0-1,1.56,6.74,6.74,0,0,0-.45,2h9.48Z" transform="translate(0.14)"/><path class="cls-1" d="M354.57,110.8h-3V100.6a20.51,20.51,0,0,0-.12-2.3,4.89,4.89,0,0,0-.46-1.71,2.35,2.35,0,0,0-1-1,4.07,4.07,0,0,0-1.8-.33,5.14,5.14,0,0,0-2.32.6,12,12,0,0,0-2.33,1.56V110.8h-3V92.88h3v2A11.86,11.86,0,0,1,346.17,93a6.25,6.25,0,0,1,2.78-.64,5.16,5.16,0,0,1,4.14,1.74,7.54,7.54,0,0,1,1.49,5V110.8Z" transform="translate(0.14)"/><path class="cls-1" d="M106.46,142.92h-3.18V131.23h-11v11.69H89.12V119h3.17v9.37h11V119h3.18v23.88Z" transform="translate(0.14)"/><path class="cls-1" d="M118.84,143.33a8.89,8.89,0,0,1-6.65-2.41q-2.37-2.41-2.37-6.86a10.13,10.13,0,0,1,2.29-7,7.63,7.63,0,0,1,6-2.59,8.37,8.37,0,0,1,3,.48,5.87,5.87,0,0,1,2.25,1.51,6.92,6.92,0,0,1,1.48,2.51,11.2,11.2,0,0,1,.51,3.63v1.64H112.89a6.67,6.67,0,0,0,1.57,4.78,5.71,5.71,0,0,0,4.35,1.65,8.48,8.48,0,0,0,1.95-.22,9.17,9.17,0,0,0,1.72-.58,12.43,12.43,0,0,0,1.38-.71,8.28,8.28,0,0,0,.93-0.65H125v3.29l-1.32.52a14.42,14.42,0,0,1-1.41.49q-0.88.24-1.6,0.37A10.49,10.49,0,0,1,118.84,143.33ZM122.37,132a8.41,8.41,0,0,0-.29-2.1,4.34,4.34,0,0,0-.74-1.49,3.37,3.37,0,0,0-1.36-1,6,6,0,0,0-4.09,0,4.86,4.86,0,0,0-1.53,1.05,5,5,0,0,0-1,1.56,6.74,6.74,0,0,0-.45,2h9.48Z" transform="translate(0.14)"/><path class="cls-1" d="M138.36,141l-1,.76a6.92,6.92,0,0,1-1.19.78,9,9,0,0,1-1.55.64,7.61,7.61,0,0,1-2.09.22,5.42,5.42,0,0,1-3.85-1.59,5.49,5.49,0,0,1-1.15-1.82,6.11,6.11,0,0,1-.43-2.29,6,6,0,0,1,.79-3.17,5.36,5.36,0,0,1,2.49-2.08,12.33,12.33,0,0,1,3.56-1q2.05-.27,4.43-0.39v-0.58a3.88,3.88,0,0,0-.32-1.71,2.38,2.38,0,0,0-.9-1,3.52,3.52,0,0,0-1.41-.49,12,12,0,0,0-1.72-.12,11.54,11.54,0,0,0-2.45.31,16.44,16.44,0,0,0-2.82.91h-0.18v-3.06q0.83-.24,2.39-0.53a16.85,16.85,0,0,1,3.08-.29,14.26,14.26,0,0,1,3.11.29,6,6,0,0,1,2.28,1,4.47,4.47,0,0,1,1.46,1.91,7.52,7.52,0,0,1,.48,2.85v12.25h-3V141Zm0-2.5v-5l-2.72.26a14.65,14.65,0,0,0-2.65.47,4.85,4.85,0,0,0-2,1.13,2.82,2.82,0,0,0-.79,2.12,3,3,0,0,0,.87,2.33,3.65,3.65,0,0,0,2.53.79,5.39,5.39,0,0,0,2.58-.62A11.21,11.21,0,0,0,138.36,138.51Z" transform="translate(0.14)"/><path class="cls-1" d="M148.67,142.92h-3V118h3v25Z" transform="translate(0.14)"/><path class="cls-1" d="M158.58,143.27a5.15,5.15,0,0,1-3.85-1.4,6.13,6.13,0,0,1-1.38-4.43V127.5h-2V125h2v-5.15h3V125h5.55v2.5h-5.55V136q0,1.36,0,2.1a3.56,3.56,0,0,0,.37,1.38,1.76,1.76,0,0,0,.88.84,4,4,0,0,0,1.65.28,4.75,4.75,0,0,0,1.43-.22,8.67,8.67,0,0,0,1-.36h0.18v2.71a14.63,14.63,0,0,1-1.72.38A10.55,10.55,0,0,1,158.58,143.27Z" transform="translate(0.14)"/><path class="cls-1" d="M178.23,142.92h-3v-10.2a20.51,20.51,0,0,0-.12-2.3,4.89,4.89,0,0,0-.46-1.71,2.35,2.35,0,0,0-1-1,4.07,4.07,0,0,0-1.8-.33,5.14,5.14,0,0,0-2.32.6,12,12,0,0,0-2.33,1.56v13.38h-3V118h3v9a11.86,11.86,0,0,1,2.66-1.84,6.25,6.25,0,0,1,2.78-.64,5.16,5.16,0,0,1,4.14,1.74,7.54,7.54,0,0,1,1.49,5v11.63Z" transform="translate(0.14)"/><path class="cls-1" d="M189.58,143.32a9.7,9.7,0,0,1-3.38-.57,7,7,0,0,1-2.65-1.72,7.86,7.86,0,0,1-1.72-2.91,12.61,12.61,0,0,1-.61-4.13,11.78,11.78,0,0,1,.63-4.07,8.79,8.79,0,0,1,1.69-2.89,7,7,0,0,1,2.64-1.8,9,9,0,0,1,3.39-.63,9.73,9.73,0,0,1,2.85.42,15.16,15.16,0,0,1,2.45,1v3.38H194.7q-0.32-.27-0.83-0.63a10.61,10.61,0,0,0-1.23-.72,8.08,8.08,0,0,0-1.48-.56,6,6,0,0,0-1.64-.24,4.58,4.58,0,0,0-3.76,1.77,9.59,9.59,0,0,0,0,10,4.54,4.54,0,0,0,3.81,1.77,6.67,6.67,0,0,0,2.81-.61,8.75,8.75,0,0,0,2.36-1.57h0.18v3.38l-1.12.51a8.37,8.37,0,0,1-1.22.44q-0.77.22-1.38,0.35A8.41,8.41,0,0,1,189.58,143.32Z" transform="translate(0.14)"/><path class="cls-1" d="M207.63,141l-1,.76a6.92,6.92,0,0,1-1.19.78,9,9,0,0,1-1.55.64,7.61,7.61,0,0,1-2.09.22,5.42,5.42,0,0,1-3.85-1.59A5.49,5.49,0,0,1,196.8,140a6.11,6.11,0,0,1-.43-2.29,6,6,0,0,1,.79-3.17,5.36,5.36,0,0,1,2.49-2.08,12.33,12.33,0,0,1,3.56-1q2.05-.27,4.43-0.39v-0.58a3.88,3.88,0,0,0-.32-1.71,2.38,2.38,0,0,0-.9-1,3.52,3.52,0,0,0-1.41-.49,12,12,0,0,0-1.72-.12,11.54,11.54,0,0,0-2.45.31,16.44,16.44,0,0,0-2.82.91h-0.18v-3.06q0.83-.24,2.39-0.53a16.85,16.85,0,0,1,3.08-.29,14.26,14.26,0,0,1,3.11.29,6,6,0,0,1,2.28,1,4.47,4.47,0,0,1,1.46,1.91,7.52,7.52,0,0,1,.48,2.85v12.25h-3V141Zm0-2.5v-5l-2.72.26a14.65,14.65,0,0,0-2.65.47,4.85,4.85,0,0,0-2,1.13,2.82,2.82,0,0,0-.79,2.12,3,3,0,0,0,.87,2.33,3.65,3.65,0,0,0,2.53.79,5.39,5.39,0,0,0,2.58-.62A11.21,11.21,0,0,0,207.63,138.51Z" transform="translate(0.14)"/><path class="cls-1" d="M224.36,128.24H224.2a3.35,3.35,0,0,0-.71-0.12l-0.91,0a6,6,0,0,0-2.42.53,7.78,7.78,0,0,0-2.28,1.57v12.72h-3V125h3v2.66a13.79,13.79,0,0,1,2.88-2.06,5.4,5.4,0,0,1,2.38-.6q0.47,0,.7,0l0.52,0.07v3.14Z" transform="translate(0.14)"/><path class="cls-1" d="M234.32,143.33a8.89,8.89,0,0,1-6.65-2.41q-2.37-2.41-2.37-6.86a10.13,10.13,0,0,1,2.29-7,7.63,7.63,0,0,1,6-2.59,8.37,8.37,0,0,1,3,.48,5.87,5.87,0,0,1,2.25,1.51,6.92,6.92,0,0,1,1.48,2.51,11.2,11.2,0,0,1,.51,3.63v1.64H228.37a6.67,6.67,0,0,0,1.57,4.78,5.71,5.71,0,0,0,4.35,1.65,8.48,8.48,0,0,0,1.95-.22,9.17,9.17,0,0,0,1.72-.58,12.43,12.43,0,0,0,1.38-.71,8.28,8.28,0,0,0,.93-0.65h0.18v3.29l-1.32.52a14.42,14.42,0,0,1-1.41.49q-0.88.24-1.6,0.37A10.49,10.49,0,0,1,234.32,143.33ZM237.84,132a8.41,8.41,0,0,0-.29-2.1,4.34,4.34,0,0,0-.74-1.49,3.37,3.37,0,0,0-1.36-1,6,6,0,0,0-4.09,0,4.86,4.86,0,0,0-1.53,1.05,5,5,0,0,0-1,1.56,6.74,6.74,0,0,0-.45,2h9.48Z" transform="translate(0.14)"/><path class="cls-1" d="M261,143.35a15.79,15.79,0,0,1-4.42-.54,21.79,21.79,0,0,1-3.42-1.32v-4h0.23a11.48,11.48,0,0,0,3.56,2.29,10.15,10.15,0,0,0,3.83.81,6.18,6.18,0,0,0,4-1.1,3.55,3.55,0,0,0,1.35-2.9,3.65,3.65,0,0,0-.71-2.33,4.2,4.2,0,0,0-2.25-1.33q-1.11-.32-2-0.53t-2.29-.56a11,11,0,0,1-2.21-.82,6.24,6.24,0,0,1-1.73-1.3,5.6,5.6,0,0,1-1.15-1.85,6.84,6.84,0,0,1-.41-2.46,6.2,6.2,0,0,1,2.26-4.87,8.49,8.49,0,0,1,5.77-2,17.31,17.31,0,0,1,3.79.4,15.21,15.21,0,0,1,3.31,1.14v3.8h-0.24a10.53,10.53,0,0,0-2.92-1.82,9.24,9.24,0,0,0-3.74-.78,5.76,5.76,0,0,0-3.58,1,3.25,3.25,0,0,0-1.36,2.72,3.5,3.5,0,0,0,.8,2.42,4.68,4.68,0,0,0,2.33,1.32q1,0.27,2.47.62t2.42,0.63a6.82,6.82,0,0,1,3.61,2.28,6.1,6.1,0,0,1,1.14,3.75,7.1,7.1,0,0,1-.57,2.76,6.51,6.51,0,0,1-1.6,2.31,8.35,8.35,0,0,1-2.61,1.6A10.15,10.15,0,0,1,261,143.35Z" transform="translate(0.14)"/><path class="cls-1" d="M286,125l-9.64,24.52h-3.22l3.21-7.47-6.51-17h3.26L278,138.27,282.86,125H286Z" transform="translate(0.14)"/><path class="cls-1" d="M293.13,143.35a11.37,11.37,0,0,1-3.36-.48,15,15,0,0,1-2.59-1v-3.38h0.16q0.38,0.3.91,0.67a9,9,0,0,0,1.39.77,12.69,12.69,0,0,0,1.69.63,6.72,6.72,0,0,0,1.92.27,7.67,7.67,0,0,0,1.54-.17,3.73,3.73,0,0,0,1.22-.43,2.54,2.54,0,0,0,.81-0.79,2.5,2.5,0,0,0,.25-1.25,2.11,2.11,0,0,0-.59-1.62,4.82,4.82,0,0,0-2.08-.91q-0.58-.14-1.51-0.34t-1.72-.42a5.48,5.48,0,0,1-3-1.84,5.23,5.23,0,0,1,.9-7,7.35,7.35,0,0,1,4.86-1.52,12.58,12.58,0,0,1,3,.37,10.51,10.51,0,0,1,2.53.93v3.22h-0.16a9.42,9.42,0,0,0-2.57-1.44,8.14,8.14,0,0,0-2.86-.53,4.76,4.76,0,0,0-2.52.63,2.07,2.07,0,0,0-1,1.89,2.15,2.15,0,0,0,.61,1.68,4.7,4.7,0,0,0,2,.91q0.67,0.18,1.5.34t1.74,0.39a5.64,5.64,0,0,1,3,1.65,4.63,4.63,0,0,1,1,3.14,5.35,5.35,0,0,1-.46,2.19,4.83,4.83,0,0,1-1.34,1.77,6.85,6.85,0,0,1-2.17,1.22A9.46,9.46,0,0,1,293.13,143.35Z" transform="translate(0.14)"/><path class="cls-1" d="M308.37,143.27a5.15,5.15,0,0,1-3.85-1.4,6.13,6.13,0,0,1-1.38-4.43V127.5h-2V125h2v-5.15h3V125h5.55v2.5h-5.55V136q0,1.36,0,2.1a3.56,3.56,0,0,0,.37,1.38,1.76,1.76,0,0,0,.88.84,4,4,0,0,0,1.65.28,4.75,4.75,0,0,0,1.43-.22,8.67,8.67,0,0,0,1-.36h0.18v2.71a14.63,14.63,0,0,1-1.72.38A10.55,10.55,0,0,1,308.37,143.27Z" transform="translate(0.14)"/><path class="cls-1" d="M321.71,143.33a8.89,8.89,0,0,1-6.65-2.41q-2.37-2.41-2.37-6.86a10.13,10.13,0,0,1,2.29-7,7.63,7.63,0,0,1,6-2.59,8.37,8.37,0,0,1,3,.48,5.87,5.87,0,0,1,2.25,1.51,6.92,6.92,0,0,1,1.48,2.51,11.2,11.2,0,0,1,.51,3.63v1.64H315.76a6.67,6.67,0,0,0,1.57,4.78,5.71,5.71,0,0,0,4.35,1.65,8.48,8.48,0,0,0,1.95-.22,9.17,9.17,0,0,0,1.72-.58,12.43,12.43,0,0,0,1.38-.71,8.28,8.28,0,0,0,.93-0.65h0.18v3.29l-1.32.52a14.42,14.42,0,0,1-1.41.49q-0.88.24-1.6,0.37A10.49,10.49,0,0,1,321.71,143.33ZM325.24,132a8.41,8.41,0,0,0-.29-2.1,4.34,4.34,0,0,0-.74-1.49,3.37,3.37,0,0,0-1.36-1,6,6,0,0,0-4.09,0,4.86,4.86,0,0,0-1.53,1.05,5,5,0,0,0-1,1.56,6.74,6.74,0,0,0-.45,2h9.48Z" transform="translate(0.14)"/><path class="cls-1" d="M351.56,142.92V132.56q0-1.23-.1-2.29a4.58,4.58,0,0,0-.4-1.64,2.06,2.06,0,0,0-.91-0.95,3.54,3.54,0,0,0-1.6-.3,4.27,4.27,0,0,0-2,.57,10.46,10.46,0,0,0-2.21,1.64l0,0.65q0,0.38,0,.89v11.79h-3V132.56q0-1.23-.1-2.29a4.6,4.6,0,0,0-.4-1.64,2.07,2.07,0,0,0-.91-0.95,3.54,3.54,0,0,0-1.6-.3,4.17,4.17,0,0,0-2.05.61,11,11,0,0,0-2.09,1.56v13.38h-3V125h3v2a10.92,10.92,0,0,1,2.35-1.84,5.16,5.16,0,0,1,2.56-.65,5.45,5.45,0,0,1,2.81.72,4.52,4.52,0,0,1,1.87,2.37,12.05,12.05,0,0,1,2.66-2.31,5.35,5.35,0,0,1,2.82-.79,5.87,5.87,0,0,1,2.1.36,4.16,4.16,0,0,1,1.65,1.16,5.66,5.66,0,0,1,1.11,2,10.15,10.15,0,0,1,.39,3.06v11.79h-3Z" transform="translate(0.14)"/><path class="cls-1" d="M355.9,151.12H12.22l0.12,1.46H355.9A0.73,0.73,0,0,0,355.9,151.12Z" transform="translate(0.14)"/><path class="cls-2" d="M39.42,143.62c-4.37-18.28-3.36-38.68,5.91-59.89C52.71,66.85,73.84,39,108.1,34.46c-25.38-.84-52.73,9.43-73.4,34.59-17.58,21.4-25,48.32-23,74.57H39.42Z" transform="translate(0.14)"/><path class="cls-1" d="M229.84,82c-7-29.1-25.85-55.51-55.38-70.12C125-12.55,49.89-1,14.55,61.93c-12,21.32-17.24,52-13.52,78.63,1.55-30.09,6.45-52.82,23-76.21,29.49-41.77,76.86-48.61,111.19-39,24.34,6.85,50.43,28,63.57,56.63h31.09Z" transform="translate(0.14)"/><path class="cls-1" d="M138.85,204.44c-6.06,4.91-14.07,6.57-21.79,6.57-14.14,0-27.28-7.94-27.28-24.53,0-14.86,13.13-24.53,27.28-24.53,6.64,0,14.79,1.73,20.71,5.48l-2.24,6.78c-0.29.87-.79,2.45-1,2.45a4.22,4.22,0,0,1-.79-1.88c-1.52-6.28-6-11.31-16.67-11.53-13.13,0-19.06,12.46-19.06,23.22s6.51,23.21,21.95,23.21c7.07,0,12.41-4.31,15.59-11.6,0.36-.87.43-1.52,0.79-1.52s0.36,0.22.65,1.3Z" transform="translate(0.14)"/><path class="cls-1" d="M191.85,202.23l7.64-14.85c1.07-2.33,2-4.53,2-6.26,0-2-1.31-2.74-2.74-3.22a0.55,0.55,0,0,1-.54-0.36c0-.18.24-0.24,0.6-0.24,1.55,0,2.09.24,4.53,0.24s2.86-.24,4.41-0.24c0.42,0,.78,0,0.78.18a1,1,0,0,1-.54.72c-2,1.37-4.06,4.53-6.08,8.17l-11.63,22.25a1.72,1.72,0,0,1-.72.84h-0.12a1.8,1.8,0,0,1-.6-0.89l-10.44-20.34c-2.27-4.53-4.18-8.41-6.68-10.08a1.23,1.23,0,0,1-.72-0.6c0-.24.36-0.24,0.78-0.24,1,0,2.45.24,5.31,0.24s4.89-.24,5.37-0.24a0.86,0.86,0,0,1,.78.24,0.73,0.73,0,0,1-.54.48,2.14,2.14,0,0,0-1.67,2.27c0,1.19,1,2.92,1.49,4.06Z" transform="translate(0.14)"/><path class="cls-1" d="M211,188.87c-0.12,1.37-.18,2.62-0.18,3.88,0,11.1,5.73,15.21,11.51,15.21,6.86,0,11.93-4.71,14-11.69h1.25c-1.91,8.23-7.87,13.18-16,13.18-10.14,0-17.66-6.86-17.66-16.4s7.52-16.4,17.66-16.4c6.5,0,14.38,3.94,15.21,12.23H211Zm18.25-1.13c0-5.85-2.8-10-9-10-5.43,0-8.35,4.83-9,10h18Z" transform="translate(0.14)"/><path class="cls-1" d="M245.15,185.88h0.12c1.37-5.07,4.3-9.25,12.17-9.25,6.56,0,12.71,3.4,12.71,12.88V201c-0.12,5.67.66,6.5,2.39,7.1a1.22,1.22,0,0,1,.78.42c0,0.18-.3.18-0.89,0.18s-2.09-.18-5.37-0.18-5.37.18-6.14,0.18c-0.36,0-.66,0-0.66-0.18s0.12-.3.54-0.36c2.15-.24,3.22-1.85,3.22-7.16V189.46c0-5.49-2.45-11.33-8.77-11.33-7.1,0-9.42,7.28-9.42,15.63V201c0,3.76.18,6.56,2.86,7,0.42,0.06.66,0.18,0.66,0.36s-0.18.3-.54,0.3-2.86-.18-6.08-0.18-6,.18-6.38.18-0.54-.06-0.54-0.3,0.24-.3.66-0.36c3-.48,3.22-3.28,3.22-7V186.24c0-3.58-.42-5.61-2.09-6.32a2.64,2.64,0,0,1-1.07-.6c0-.18.42-0.18,1.13-0.3a52.15,52.15,0,0,0,7.52-1.73v8.59Z" transform="translate(0.14)"/><path class="cls-1" d="M302.29,203.36c0,2,.3,3.76,2.15,4.59a0.82,0.82,0,0,1,.6.36,0.74,0.74,0,0,1-.78.24h-6.44a17.8,17.8,0,0,1-1.43-6.08h-0.12c-2.33,4.83-5.79,7-11,7-6.2,0-12.59-2.86-12.59-10,0-9.07,13.84-10,20.1-10h3.4v-2c0-5.73-2.68-9.78-8.71-9.78-5.49,0-8.71,1.61-10.86,6.86a3.06,3.06,0,0,1-.48,1,1.07,1.07,0,0,1-.3-0.66l-1.55-5.37c4.89-2.56,8.77-3,14.08-3,6.8,0,14,2.45,14,10v16.76Zm-6.14-12.71h-3.52c-6.44,0-13.06,1.91-13.06,9.78A7.24,7.24,0,0,0,287,208c7,0,9.19-7.4,9.19-13.12v-4.18Z" transform="translate(0.14)"/><path class="cls-1" d="M313.67,185.88h0.12c1.37-5.07,4.29-9.25,12.17-9.25,6.56,0,12.71,3.4,12.71,12.88V201c-0.12,5.67.66,6.5,2.39,7.1a1.22,1.22,0,0,1,.78.42c0,0.18-.3.18-0.89,0.18s-2.09-.18-5.37-0.18-5.37.18-6.14,0.18c-0.36,0-.66,0-0.66-0.18s0.12-.3.54-0.36c2.15-.24,3.22-1.85,3.22-7.16V189.46c0-5.49-2.45-11.33-8.77-11.33-7.1,0-9.42,7.28-9.42,15.63V201c0,3.76.18,6.56,2.86,7,0.42,0.06.66,0.18,0.66,0.36s-0.18.3-.54,0.3-2.86-.18-6.08-0.18-6,.18-6.38.18-0.54-.06-0.54-0.3,0.24-.3.66-0.36c3-.48,3.22-3.28,3.22-7V186.24c0-3.58-.42-5.61-2.09-6.32a2.64,2.64,0,0,1-1.07-.6c0-.18.42-0.18,1.13-0.3a52.14,52.14,0,0,0,7.52-1.73v8.59Z" transform="translate(0.14)"/><path class="cls-1" d="M340.07,180.93a0.55,0.55,0,0,1-.6-0.54c0-.3.48-0.54,1.19-0.83,3.4-1.19,6.26-3.94,8.47-8.47a0.79,0.79,0,0,1,.66-0.6c0.3,0,.3.42,0.3,0.84V179h6.62l-0.42,1.91h-6.2v16.94c0,7.93,1.91,9.37,3.82,10a0.88,0.88,0,0,1,.72.42,1,1,0,0,1-1,.24h-7.22c-1.67-.78-2.51-2.09-2.51-4.35V180.93h-3.88Z" transform="translate(0.14)"/><path class="cls-1" d="M246.71,220.36v-5.85c0-1.19-.32-2.14-1.25-2.37a0.7,0.7,0,0,1-.29-0.17c0-.09.17-0.12,0.43-0.12,0.46,0,1.85.12,2.78,0.12s2.32-.12,2.78-0.12c0.26,0,.43,0,0.43.12a0.7,0.7,0,0,1-.29.17c-0.93.23-1.25,1.19-1.25,2.37v12.86c0,1.42.26,2.26,1.56,2.9a0.35,0.35,0,0,1,.26.23c0,0.09-.17.09-0.46,0.09-1,0-1.39-.09-3-0.09s-2,.09-3,0.09c-0.29,0-.46,0-0.46-0.09a0.35,0.35,0,0,1,.26-0.23c1.3-.64,1.56-1.48,1.56-2.9v-6.28h-11v6.28c0,1.42.26,2.26,1.56,2.9a0.35,0.35,0,0,1,.26.23c0,0.09-.17.09-0.46,0.09-1,0-1.39-.09-3-0.09s-2,.09-3,0.09c-0.29,0-.46,0-0.46-0.09a0.35,0.35,0,0,1,.26-0.23c1.3-.64,1.56-1.48,1.56-2.9V214.51c0-1.19-.32-2.14-1.25-2.37a0.71,0.71,0,0,1-.29-0.17c0-.09.17-0.12,0.43-0.12,0.46,0,1.85.12,2.78,0.12s2.32-.12,2.78-0.12c0.26,0,.43,0,0.43.12a0.71,0.71,0,0,1-.29.17c-0.93.23-1.25,1.19-1.25,2.37v5.85h11Z" transform="translate(0.14)"/><path class="cls-1" d="M258.8,220.36h5.36c2.11,0,4-1,4.37-2.17a0.31,0.31,0,0,1,.23-0.26c0.09,0,.12.14,0.12,0.43v4.78c0,0.49,0,.61-0.12.61a0.57,0.57,0,0,1-.23-0.41c-0.84-2.14-3.21-2.26-5.24-2.26H258.8v6.11c0,2.11.72,2.58,2.69,2.58h3.27a12.31,12.31,0,0,0,7.56-3.16,4,4,0,0,1,.78-0.61,0.08,0.08,0,0,1,.09.09,1.3,1.3,0,0,1-.06.23l-1.27,4.17H254.22a1.08,1.08,0,0,1-.87-0.12c0-.09.61-0.26,0.81-0.43,1.07-.84,1.27-1.65,1.27-4.29v-9.84c0-1.88-.12-3.13-1.27-3.42a1,1,0,0,1-.49-0.26c0-.12.12-0.17,0.55-0.17h16.36l0.78,2.72a4.15,4.15,0,0,1,.26,1.07,0.21,0.21,0,0,1-.14.23,0.49,0.49,0,0,1-.35-0.26c-1.22-2-4.29-3-7-3H258.8v7.67Z" transform="translate(0.14)"/><path class="cls-1" d="M280.61,222l-1.56,3a7.34,7.34,0,0,0-1,3.3,1.84,1.84,0,0,0,1.56,1.85c0.23,0.06.32,0.12,0.32,0.2s-0.14.14-.35,0.14-1.25-.09-2.84-0.09c-1.16,0-1.91.09-2.26,0.09s-0.38-.06-0.38-0.14a1,1,0,0,1,.55-0.46A17.75,17.75,0,0,0,278,225.4l7.09-13.78a0.4,0.4,0,0,1,.2-0.23h0.06a0.36,0.36,0,0,1,.23.23l8.51,15.93a7.34,7.34,0,0,0,1.94,2.4,1.79,1.79,0,0,1,.67.49c0,0.09-.14.14-0.41,0.14s-1.56-.09-3.24-0.09c-2.37,0-3.33.09-3.5,0.09a0.31,0.31,0,0,1-.29-0.09c0-.12.14-0.17,0.38-0.23a1.34,1.34,0,0,0,.81-1.51,11.89,11.89,0,0,0-1.3-3.3L287.5,222h-6.89Zm3.42-6.75-3,6h6.14Z" transform="translate(0.14)"/><path class="cls-1" d="M303,226.64c0,2.9,1.1,3.13,3.56,3.13h1.53a11.14,11.14,0,0,0,7.62-3.36,2.2,2.2,0,0,1,.61-0.69,0.18,0.18,0,0,1,.17.2,2.94,2.94,0,0,1-.12.41l-1.19,4.17h-17c-0.49,0-.64-0.06-0.64-0.14a2.15,2.15,0,0,1,.69-0.26c1.13-.49,1.42-1.56,1.42-4.14V214.51a2.23,2.23,0,0,0-1.25-2.32,0.35,0.35,0,0,1-.29-0.23c0-.09.17-0.12,0.43-0.12,0.46,0,1.85.12,2.78,0.12s2.32-.12,2.78-0.12c0.26,0,.35,0,0.35.14a0.38,0.38,0,0,1-.26.17,2.22,2.22,0,0,0-1.19,2.35v12.13Z" transform="translate(0.14)"/><path class="cls-1" d="M320.79,214c0-1.13-.49-1.33-1.8-1.33a8.73,8.73,0,0,0-6.11,2.87,3.35,3.35,0,0,1-.52.49,0.16,0.16,0,0,1-.14-0.17,4.75,4.75,0,0,1,.2-0.67l0.93-3.24h18.24l0.93,3.24a4.75,4.75,0,0,1,.2.67,0.16,0.16,0,0,1-.14.17,3.35,3.35,0,0,1-.52-0.49,8.73,8.73,0,0,0-6.11-2.87c-1.3,0-1.8.2-1.8,1.33v13.35c0,1.42.38,2.55,1.74,2.81a0.46,0.46,0,0,1,.43.23,0.26,0.26,0,0,1-.23.17c-0.2,0-2-.09-3.62-0.09s-3.36.09-3.56,0.09-0.26-.06-0.26-0.14a1,1,0,0,1,.55-0.23c1.33-.58,1.59-1.42,1.59-4.11V214Z" transform="translate(0.14)"/><path class="cls-1" d="M350.19,220.36v-5.85c0-1.19-.32-2.14-1.25-2.37a0.71,0.71,0,0,1-.29-0.17c0-.09.17-0.12,0.43-0.12,0.46,0,1.85.12,2.78,0.12s2.32-.12,2.78-0.12c0.26,0,.43,0,0.43.12a0.7,0.7,0,0,1-.29.17c-0.93.23-1.25,1.19-1.25,2.37v12.86c0,1.42.26,2.26,1.56,2.9a0.35,0.35,0,0,1,.26.23c0,0.09-.17.09-0.46,0.09-1,0-1.39-.09-3-0.09s-2,.09-3,0.09c-0.29,0-.46,0-0.46-0.09a0.35,0.35,0,0,1,.26-0.23c1.3-.64,1.56-1.48,1.56-2.9v-6.28h-11v6.28c0,1.42.26,2.26,1.56,2.9a0.35,0.35,0,0,1,.26.23c0,0.09-.17.09-0.46,0.09-1,0-1.39-.09-3-0.09s-2,.09-3,0.09c-0.29,0-.46,0-0.46-0.09a0.35,0.35,0,0,1,.26-0.23c1.3-.64,1.56-1.48,1.56-2.9V214.51c0-1.19-.32-2.14-1.25-2.37a0.7,0.7,0,0,1-.29-0.17c0-.09.17-0.12,0.43-0.12,0.46,0,1.85.12,2.78,0.12s2.32-.12,2.78-0.12c0.26,0,.43,0,0.43.12a0.7,0.7,0,0,1-.29.17c-0.93.23-1.24,1.19-1.24,2.37v5.85h11Z" transform="translate(0.14)"/><path class="cls-2" d="M176,190.54c-0.23,4.55-1,8-3.48,11.54a15.32,15.32,0,0,1-16.83,5.9c-6.55-1.84-13.94-10.51-9.66-20.31,1.12-2.56,4.31-6.76,9.5-7.46a13.69,13.69,0,0,0-11.11,5.24A16.25,16.25,0,0,0,149.72,210a18.62,18.62,0,0,0,24.2-7.57A20.06,20.06,0,0,0,176,190.54Z" transform="translate(0.14)"/><path class="cls-1" d="M139.3,196.26c0.23-4.55,1-8,3.48-11.53a15.32,15.32,0,0,1,16.83-5.9c6.55,1.84,13.94,10.51,9.66,20.31-1.12,2.56-4.31,6.76-9.5,7.46a13.69,13.69,0,0,0,11.11-5.24,16.25,16.25,0,0,0-5.32-24.58,18.62,18.62,0,0,0-24.2,7.57A20.07,20.07,0,0,0,139.3,196.26Z" transform="translate(0.14)"/><path class="cls-1" d="M359.37,227.36a1.8,1.8,0,1,1-2.54,2.55,1.76,1.76,0,0,1-.52-1.28A1.79,1.79,0,0,1,359.37,227.36Zm0.21-.2a2.09,2.09,0,1,0,.61,1.47A2,2,0,0,0,359.57,227.16Zm-1.17,1.38a1.09,1.09,0,0,1-.38.05h-0.36v-0.83H358a1,1,0,0,1,.49.09A0.41,0.41,0,0,1,358.41,228.53Zm-1.15,1.24h0.4v-0.9H358a1,1,0,0,1,.45.07,0.56,0.56,0,0,1,.22.53v0.3H359v0a0.37,0.37,0,0,1,0-.12q0-.09,0-0.17v-0.17a0.63,0.63,0,0,0-.13-0.36,0.56,0.56,0,0,0-.4-0.22,0.88,0.88,0,0,0,.33-0.11,0.5,0.5,0,0,0,.22-0.45,0.57,0.57,0,0,0-.36-0.58,1.75,1.75,0,0,0-.63-0.08h-0.8v2.29Z" transform="translate(0.14)"/></svg>