<svg id="Layer_1" data-name="Layer 1" xmlns="http://www.w3.org/2000/svg" viewBox="0 0 360.06 194.78"><defs><style>.cls-1{fill:#a90533;}.cls-2{fill:#005a9c;}.cls-3{fill:#fff;}</style></defs><title>methodist-medical-center</title><rect class="cls-1" x="0.05" y="56.17" width="67.47" height="63.85"/><path class="cls-2" d="M46.57,1.3a21.65,21.65,0,0,0,3,.36,22.66,22.66,0,0,0,3.09-.36c2.23,19.36,3.89,35,6.33,49.37-2-.14-4-0.36-6-0.36s-3.81.22-5.83,0.36c-0.58-11.44-2-22.45-3.09-33.53-5.47,11-10.87,22-16,33.17a7,7,0,0,0-2.73,0C20.81,40.37,15.13,29.22,9.66,17.92,8,30.58,6.85,40.59,6.64,50.66a27,27,0,0,0-3.38-.36,25.87,25.87,0,0,0-3.31.36C2.53,36.2,4.84,19.5,7.28,1.3a20.66,20.66,0,0,0,3,.36,21.65,21.65,0,0,0,3-.36c5.18,11.3,10.87,22.52,16.55,33.82C35,24.9,41.11,13.6,46.57,1.3Z" transform="translate(0.06)"/><path class="cls-2" d="M86.9,1.3a22.6,22.6,0,0,0-.36,3.09,22.62,22.62,0,0,0,.36,3.09,101.5,101.5,0,0,0-16.62-1V21.95h7.48a65.43,65.43,0,0,0,8.85-.65,22.66,22.66,0,0,0-.36,3.09,22.66,22.66,0,0,0,.36,3.09,65.42,65.42,0,0,0-8.85-.65H70.27V45.12a133.43,133.43,0,0,0,16.62-1,22.6,22.6,0,0,0-.36,3.09,22.6,22.6,0,0,0,.36,3.09H59.48V1.3H86.9Z" transform="translate(0.06)"/><path class="cls-2" d="M112.37,50.66c-1.8-.14-3.6-0.36-5.4-0.36s-3.6.22-5.4,0.36V6.4a98.85,98.85,0,0,0-13.38,1,21.42,21.42,0,0,0,.36-3.09,21.64,21.64,0,0,0-.36-3h37.06a21.58,21.58,0,0,0-.36,3,21.37,21.37,0,0,0,.36,3.09,108.48,108.48,0,0,0-12.88-1V50.66Z" transform="translate(0.06)"/><path class="cls-2" d="M126.47,1.3c1.8,0.14,3.6.36,5.4,0.36s3.6-.22,5.4-0.36V20.8c3.67,0.14,7.34.36,11,.36s7.34-.22,11-0.36V1.3c1.8,0.14,3.6.36,5.4,0.36s3.6-.22,5.4-0.36V50.66c-1.8-.14-3.6-0.36-5.4-0.36s-3.6.22-5.4,0.36V26.55c-3.67-.14-7.34-0.36-11-0.36s-7.34.22-11,.36V50.66c-1.8-.14-3.6-0.36-5.4-0.36s-3.6.22-5.4,0.36V1.3Z" transform="translate(0.06)"/><path class="cls-2" d="M198.92,51.6c-15.9,0-26.63-9.35-26.63-25.69C172.3,11.59,182.73,0,200.65,0c20.51,0,26.55,14.46,26.63,25.62C227.35,39.65,216.55,51.6,198.92,51.6ZM184.24,28c0,9.35,4.25,19.29,15,19.29,11.08,0,16-11.08,16-23,0-9.28-4.32-19.93-15.11-19.93C190.22,4.32,184.24,11.87,184.24,28Z" transform="translate(0.06)"/><path class="cls-2" d="M254,1.3c15.4,0.58,21.73,11.3,21.73,23.1,0,16.26-11.44,25.91-26.19,25.91H229.35V1.3H254ZM240.14,46.13h6.12c9.93,0,17.49-5,17.49-21.8,0-13.53-6.4-18.85-16.55-18.85h-7.05V46.13Z" transform="translate(0.06)"/><path class="cls-2" d="M277.78,1.3c1.8,0.14,3.6.36,5.4,0.36s3.6-.22,5.4-0.36V50.66c-1.8-.14-3.6-0.36-5.4-0.36s-3.6.22-5.4,0.36V1.3Z" transform="translate(0.06)"/><path class="cls-2" d="M315.06,10.58c-1.44-3.81-4.17-6.26-8.28-6.26-5.68,0-7.92,3-7.92,7.05,0,9.71,21.88,7.92,21.88,24.39,0,9.21-7.92,15.83-19.07,15.83a21.87,21.87,0,0,1-11.59-3.09,67.21,67.21,0,0,0,2.09-9.14h1.37a9.71,9.71,0,0,0,9.93,7.92c4.46,0,8.42-2.52,8.42-7.48,0-11.51-21.44-7.34-21.44-24.68C290.45,6.84,296.13,0,307.07,0c5.18,0,9.79,1.94,11.37,3.45-0.86,2.3-1.58,4.68-2.3,7.12h-1.08Z" transform="translate(0.06)"/><path class="cls-2" d="M343.08,50.66c-1.8-.14-3.6-0.36-5.4-0.36s-3.6.22-5.4,0.36V6.4a98.85,98.85,0,0,0-13.38,1,21.47,21.47,0,0,0,.36-3.09,21.69,21.69,0,0,0-.36-3H356a21.58,21.58,0,0,0-.36,3A21.37,21.37,0,0,0,356,7.41a108.48,108.48,0,0,0-12.88-1V50.66Z" transform="translate(0.06)"/><path class="cls-2" d="M103.71,56.71c1.07,10.18,2.23,20.32,3.34,28.2-0.74,0-1.32-.12-1.94-0.12s-1.32.08-1.94,0.12c-0.7-8.29-1.53-17.19-2.1-21.27-4.78,8.53-8.33,15.13-10.8,20.82H89.82L87.55,79.8C84.91,74.35,82,69,79.22,63.64c-0.91,8-2,16.2-2,21.27-0.54,0-1-.12-1.44-0.12s-1,.08-1.48.12c1.07-6.64,3.55-23.87,4-28.2h1.07C82.6,63.27,86.56,71,91,78.31c3.92-7,7.71-14.22,11.87-21.6h0.87Z" transform="translate(0.06)"/><path class="cls-2" d="M112.7,69h6.39c1.24,0,2.43-.16,3.67-0.21a8.56,8.56,0,0,0-.12,1.07c0,0.33.08,0.7,0.12,1.15-1.24,0-2.43-.21-3.67-0.21H112.7v12c2.51,0.08,5-.08,7.46-0.16a29.44,29.44,0,0,0,3.79-.37c0,0.45-.12.83-0.12,1.24s0.08,0.83.12,1.24H109.07V56.71h14.64c0,0.45-.12.82-0.12,1.24s0.08,0.82.12,1.24a28.46,28.46,0,0,0-3.71-.45l-4.12-.08H112.7V69Z" transform="translate(0.06)"/><path class="cls-2" d="M126.43,56.71h9.36c4.29,0,8.45-.41,11.91,2.47a13,13,0,0,1,4.41,10.31c0,5.73-2.1,9.44-5.19,12.16-3.5,3.05-8.08,3.13-12.45,3.13h-8V56.71Zm3.63,26.22c3.63,0.21,8.74.7,12.08-1,4.45-2.23,5.94-6.8,5.94-11.83,0-8.74-3.59-11.91-12.82-11.91-1.69,0-3.42.12-5.19,0.16V82.93Z" transform="translate(0.06)"/><path class="cls-2" d="M154.58,56.71c0.58,0,1.2.12,1.81,0.12s1.15-.08,1.81-0.12v28.2c-0.66,0-1.24-.12-1.81-0.12s-1.24.08-1.81,0.12V56.71Z" transform="translate(0.06)"/><path class="cls-2" d="M183.6,83.05a16.64,16.64,0,0,1-9.11,2.35c-9.07,0-14.51-5.73-14.51-14.76,0-9.28,6.84-14.55,15.54-14.55a22.66,22.66,0,0,1,8.86,1.9,17.22,17.22,0,0,0-.87,3.17l-0.29,0a11.06,11.06,0,0,0-7.87-3.55c-7.59,0-11.34,6.14-11.34,13.15,0,7.92,4.53,13,11,13a14.44,14.44,0,0,0,8.74-3.34Z" transform="translate(0.06)"/><path class="cls-2" d="M209,84.91c-0.78,0-1.44-.12-2.14-0.12s-1.48.08-2.18,0.12c-1.2-3.42-2.68-7.38-4.33-11.13H189.91c-1.44,3.63-2.93,7.26-4.08,11.13-0.58,0-1-.12-1.53-0.12s-1,.08-1.44.12l12.86-28.82h0.95ZM195.19,61.49L190.69,72h9.07Z" transform="translate(0.06)"/><path class="cls-2" d="M213.29,82.85c2.51,0.08,5-.08,7.46-0.16,1.32,0,2.6-.21,3.92-0.37,0,0.45-.12.83-0.12,1.24s0.08,0.83.12,1.24h-15V56.71c0.58,0,1.2.12,1.81,0.12s1.15-.08,1.81-0.12V82.85Z" transform="translate(0.06)"/><path class="cls-2" d="M255.09,83.05A16.64,16.64,0,0,1,246,85.4c-9.07,0-14.51-5.73-14.51-14.76,0-9.28,6.84-14.55,15.54-14.55a22.66,22.66,0,0,1,8.86,1.9,17.28,17.28,0,0,0-.87,3.17l-0.29,0a11.06,11.06,0,0,0-7.87-3.55c-7.59,0-11.34,6.14-11.34,13.15,0,7.92,4.54,13,11,13a14.43,14.43,0,0,0,8.74-3.34Z" transform="translate(0.06)"/><path class="cls-2" d="M261,69h6.39c1.24,0,2.43-.16,3.67-0.21a8.55,8.55,0,0,0-.12,1.07c0,0.33.08,0.7,0.12,1.15-1.24,0-2.43-.21-3.67-0.21H261v12c2.51,0.08,5-.08,7.46-0.16a29.43,29.43,0,0,0,3.79-.37c0,0.45-.12.83-0.12,1.24a12.39,12.39,0,0,0,.12,1.24H257.36V56.71H272c0,0.45-.12.82-0.12,1.24a12.43,12.43,0,0,0,.12,1.24,28.45,28.45,0,0,0-3.71-.45l-4.12-.08H261V69Z" transform="translate(0.06)"/><path class="cls-2" d="M298.63,84.91H297.4c-0.45-.58-1.28-1.57-2.14-2.51L277.44,62.69H277V84.91c-0.41,0-.78-0.12-1.15-0.12a10,10,0,0,0-1.15.12V56.71h1.61l19.58,21.23h0.41V56.71a9.89,9.89,0,0,0,1.16.12c0.37,0,.74-0.08,1.15-0.12v28.2Z" transform="translate(0.06)"/><path class="cls-2" d="M312.44,85c-0.66,0-1.24-.12-1.81-0.12s-1.24.08-1.81,0.12V58.69a77,77,0,0,0-9,.49c0-.41.12-0.82,0.12-1.24s-0.08-.78-0.12-1.24h21.27c0,0.45-.12.82-0.12,1.24s0.08,0.82.12,1.24a71.86,71.86,0,0,0-8.62-.49V85Z" transform="translate(0.06)"/><path class="cls-2" d="M325.47,69h6.39c1.24,0,2.43-.16,3.67-0.21a8.57,8.57,0,0,0-.12,1.07c0,0.33.08,0.7,0.12,1.15-1.24,0-2.43-.21-3.67-0.21h-6.39v12c2.51,0.08,5-.08,7.46-0.16a29.42,29.42,0,0,0,3.79-.37c0,0.45-.12.83-0.12,1.24s0.08,0.83.12,1.24H321.84V56.71h14.64c0,0.45-.12.82-0.12,1.24a12.41,12.41,0,0,0,.12,1.24,28.48,28.48,0,0,0-3.71-.45l-4.12-.08h-3.17V69Z" transform="translate(0.06)"/><path class="cls-2" d="M338.79,56.71h8.74c6.35,0,9.15,2.1,9.15,6.27,0,4.78-4.29,7.09-8.45,7.83l8.49,10.76,2,2.31,0.78,1c-0.87,0-1.61-.12-2.39-0.12s-1.61.08-2.35,0.12c-0.91-1.28-1.73-2.43-2.6-3.59L347.28,75,344,71.14h-1.57V84.91c-0.66,0-1.24-.12-1.81-0.12s-1.24.08-1.81,0.12V56.71Zm3.63,12.86a22.88,22.88,0,0,0,5.32-.21c3-.62,5.28-2.68,5.28-5.9,0-2.84-1.44-4.7-4.53-5.19a37,37,0,0,0-6.06,0V69.57Z" transform="translate(0.06)"/><path class="cls-2" d="M74.19,106c0-9,6.72-14.72,15.25-14.72,7.75,0,15.62,4.21,15.62,14.1,0,9.19-6.51,15.21-15.71,15.21S74.19,114.87,74.19,106Zm24.24-9.36a10.91,10.91,0,0,0-8.57-4c-7.26,0-11.63,5.48-11.63,13.85s5.11,12.74,11.25,12.74c8.7,0,11.83-9,11.54-13.52C101,102.33,100.58,99.45,98.43,96.68Z" transform="translate(0.06)"/><path class="cls-2" d="M106.76,91.94h14.64c0,0.45-.12.83-0.12,1.24s0.08,0.83.12,1.24a28.53,28.53,0,0,0-3.71-.45l-4.12-.08h-3.17v10.35h6.39c1.24,0,2.43-.16,3.67-0.21a8.56,8.56,0,0,0-.12,1.07c0,0.33.08,0.7,0.12,1.15-1.24,0-2.43-.21-3.67-0.21h-6.39v14.1c-0.66,0-1.24-.12-1.81-0.12s-1.24.08-1.81,0.12V91.94Z" transform="translate(0.06)"/><path class="cls-2" d="M129.47,106c0-9,6.72-14.72,15.25-14.72,7.75,0,15.62,4.21,15.62,14.1,0,9.19-6.51,15.21-15.71,15.21S129.47,114.87,129.47,106Zm24.24-9.36a10.91,10.91,0,0,0-8.57-4c-7.26,0-11.63,5.48-11.63,13.85s5.11,12.74,11.25,12.74c8.7,0,11.83-9,11.54-13.52C156.31,102.33,155.85,99.45,153.71,96.68Z" transform="translate(0.06)"/><path class="cls-2" d="M185.2,120.14c-0.78,0-1.44-.12-2.14-0.12s-1.48.08-2.19,0.12c-1.2-3.42-2.68-7.38-4.33-11.13H166.07c-1.44,3.63-2.93,7.26-4.08,11.13-0.58,0-1-.12-1.53-0.12s-1,.08-1.44.12l12.86-28.82h0.95ZM171.35,96.73l-4.49,10.55h9.07Z" transform="translate(0.06)"/><path class="cls-2" d="M196.79,100.93l-3.5,3.54c3.3,3.79,6.72,7.5,10,11.34l3.34,4.12v0.21c-0.82,0-1.57-.12-2.27-0.12s-1.57.08-2.31,0.12a42.93,42.93,0,0,0-2.84-3.75l-9-10.51c-0.21-.16-0.7-0.29-0.7-0.12v14.39c-0.66,0-1.24-.12-1.81-0.12s-1.24.08-1.81,0.12V91.94c0.58,0,1.2.12,1.81,0.12s1.15-.08,1.81-0.12v12.74c0,0.25.62,0.08,1-.25a26.4,26.4,0,0,0,2.18-2l10.14-10.47c0.54,0,1.07.12,1.65,0.12s1-.08,1.61-0.12Z" transform="translate(0.06)"/><path class="cls-2" d="M215.83,91.94h8.74c6.35,0,9.15,2.1,9.15,6.27,0,4.78-4.29,7.09-8.45,7.83l8.49,10.76,2,2.31,0.78,1c-0.87,0-1.61-.12-2.39-0.12s-1.61.08-2.35,0.12c-0.91-1.28-1.73-2.43-2.6-3.59l-4.86-6.31-3.3-3.87h-1.57v13.77c-0.66,0-1.24-.12-1.81-0.12s-1.24.08-1.81,0.12V91.94Zm3.63,12.86a22.87,22.87,0,0,0,5.32-.21c3-.62,5.28-2.68,5.28-5.9,0-2.84-1.44-4.7-4.54-5.19a37,37,0,0,0-6.06,0v11.34Z" transform="translate(0.06)"/><path class="cls-2" d="M237.51,91.94c0.58,0,1.2.12,1.81,0.12s1.15-.08,1.81-0.12v28.2c-0.66,0-1.24-.12-1.81-0.12s-1.24.08-1.81,0.12V91.94Z" transform="translate(0.06)"/><path class="cls-2" d="M245.46,91.94h9.36c4.29,0,8.45-.41,11.91,2.47a13,13,0,0,1,4.41,10.31c0,5.73-2.1,9.44-5.19,12.16-3.5,3.05-8.08,3.13-12.45,3.13h-8V91.94Zm3.63,26.22c3.63,0.21,8.74.7,12.08-1,4.45-2.23,5.94-6.8,5.94-11.83,0-8.74-3.59-11.91-12.82-11.91-1.69,0-3.42.12-5.19,0.16v24.57Z" transform="translate(0.06)"/><path class="cls-2" d="M297.53,96.89a12.29,12.29,0,0,0-9.28-4c-7,0-11.87,4.62-11.87,12.94,0,8.16,4.21,13.23,12.33,13.23a14.11,14.11,0,0,0,6.43-1.4V107.07c0.58,0,1.2.12,1.81,0.12s1.15-.08,1.81-0.12v11.67a34.44,34.44,0,0,1-11.21,1.9c-10.43,0-15.21-6.22-15.21-14.59,0-9.65,6.93-14.72,16.08-14.72,6.14,0,9.6,1.81,10.51,2.39-0.37,1-.66,2.1-0.95,3.17h-0.45Z" transform="translate(0.06)"/><path class="cls-2" d="M305.36,104.23h6.39c1.24,0,2.43-.16,3.67-0.21a8.42,8.42,0,0,0-.12,1.07c0,0.33.08,0.7,0.12,1.15-1.24,0-2.43-.21-3.67-0.21h-6.39v12c2.51,0.08,5-.08,7.46-0.16a29.42,29.42,0,0,0,3.79-.37c0,0.45-.12.83-0.12,1.24s0.08,0.83.12,1.24H301.73V91.94h14.63c0,0.45-.12.83-0.12,1.24s0.08,0.83.12,1.24a28.5,28.5,0,0,0-3.71-.45l-4.12-.08h-3.17v10.35Z" transform="translate(0.06)"/><path class="cls-3" d="M22.43,70.13a1.16,1.16,0,0,1,.24.22L20.85,71.7l13.36,5.9L32.13,63.15l-2.52,1.91c-5.85-6.9-26-5.19-26,13.1,0,16.49,18.88,29.49,30.75,36.73,11.87-7.25,30.75-20.24,30.75-36.73,0-18.32-20.17-20-26-13.11l-2.53-1.9L34.53,77.6l13.36-5.9-1.8-1.39c1.49-1.53,10.28-1.88,10.28,8.35,0,9.24-14,20.5-22,25.36-8-4.86-22-16.12-22-25.36,0-9.84,8.13-9.91,10.07-8.54" transform="translate(0.06)"/><path class="cls-2" d="M171.76,172.42c-5.15,4.17-12,5.58-18.53,5.58-12,0-23.2-6.75-23.2-20.87,0-12.64,11.17-20.87,23.2-20.87,5.65,0,12.58,1.47,17.61,4.66l-1.9,5.77a7.22,7.22,0,0,1-.86,2.09,3.58,3.58,0,0,1-.67-1.6c-1.29-5.34-5.09-9.62-14.18-9.8C142.05,137.4,137,148,137,157.14s5.53,19.74,18.67,19.74c6,0,10.56-3.66,13.26-9.86,0.31-.74.37-1.29,0.67-1.29s0.31,0.18.55,1.11Z" transform="translate(0.06)"/><path class="cls-2" d="M216.83,170.54l6.49-12.63c0.91-2,1.73-3.86,1.73-5.33,0-1.72-1.12-2.33-2.33-2.74a0.47,0.47,0,0,1-.46-0.3c0-.15.2-0.2,0.51-0.2,1.32,0,1.78.2,3.86,0.2s2.44-.2,3.75-0.2c0.36,0,.66,0,0.66.15a0.81,0.81,0,0,1-.46.61c-1.67,1.17-3.45,3.86-5.17,7L215.51,176a1.46,1.46,0,0,1-.61.71h-0.1a1.53,1.53,0,0,1-.51-0.76l-8.88-17.3c-1.93-3.86-3.55-7.15-5.68-8.57a1,1,0,0,1-.61-0.51c0-.2.31-0.2,0.66-0.2,0.81,0,2.08.2,4.52,0.2s4.16-.2,4.57-0.2a0.73,0.73,0,0,1,.66.2,0.62,0.62,0,0,1-.46.41,1.82,1.82,0,0,0-1.42,1.93,10.18,10.18,0,0,0,1.27,3.45Z" transform="translate(0.06)"/><path class="cls-2" d="M233.11,159.18c-0.1,1.17-.15,2.23-0.15,3.3,0,9.44,4.87,12.94,9.79,12.94,5.83,0,10.15-4,11.87-9.94h1.07c-1.62,7-6.7,11.21-13.6,11.21-8.62,0-15-5.83-15-14s6.39-14,15-14c5.53,0,12.23,3.35,12.94,10.4H233.11Zm15.52-1c0-5-2.38-8.47-7.66-8.47-4.62,0-7.1,4.11-7.66,8.47h15.32Z" transform="translate(0.06)"/><path class="cls-2" d="M262.16,156.64h0.1c1.17-4.31,3.65-7.86,10.35-7.86,5.58,0,10.81,2.89,10.81,11v9.79c-0.1,4.82.56,5.53,2,6a1,1,0,0,1,.66.35c0,0.15-.25.15-0.76,0.15s-1.78-.15-4.57-0.15-4.57.15-5.23,0.15c-0.3,0-.56,0-0.56-0.15s0.1-.25.46-0.3c1.83-.2,2.74-1.57,2.74-6.09v-9.84c0-4.67-2.08-9.64-7.46-9.64-6,0-8,6.19-8,13.29v6.19c0,3.2.15,5.58,2.44,6,0.36,0.05.56,0.15,0.56,0.3s-0.15.25-.46,0.25-2.43-.15-5.17-0.15-5.07.15-5.43,0.15-0.46-.05-0.46-0.25,0.2-.25.56-0.3c2.54-.41,2.74-2.79,2.74-6V156.95c0-3-.36-4.77-1.78-5.38a2.24,2.24,0,0,1-.91-0.51,1.38,1.38,0,0,1,1-.25,44.24,44.24,0,0,0,6.39-1.47v7.31Z" transform="translate(0.06)"/><path class="cls-2" d="M310.76,171.51c0,1.67.25,3.2,1.83,3.91a0.7,0.7,0,0,1,.51.3,0.63,0.63,0,0,1-.66.2H307a15.12,15.12,0,0,1-1.22-5.17h-0.1c-2,4.11-4.92,5.94-9.39,5.94-5.28,0-10.71-2.43-10.71-8.47,0-7.71,11.77-8.47,17.1-8.47h2.89v-1.67c0-4.87-2.28-8.32-7.41-8.32-4.67,0-7.41,1.37-9.23,5.83a2.61,2.61,0,0,1-.41.86,0.91,0.91,0,0,1-.25-0.56l-1.32-4.57c4.16-2.18,7.46-2.54,12-2.54,5.78,0,11.87,2.08,11.87,8.47v14.26Zm-5.23-10.81h-3c-5.48,0-11.11,1.62-11.11,8.32a6.16,6.16,0,0,0,6.29,6.39c6,0,7.81-6.29,7.81-11.16V160.7Z" transform="translate(0.06)"/><path class="cls-2" d="M320.44,156.64h0.1c1.17-4.31,3.65-7.86,10.35-7.86,5.58,0,10.81,2.89,10.81,11v9.79c-0.1,4.82.56,5.53,2,6a1,1,0,0,1,.66.35c0,0.15-.25.15-0.76,0.15s-1.78-.15-4.57-0.15-4.57.15-5.23,0.15c-0.3,0-.56,0-0.56-0.15s0.1-.25.46-0.3c1.83-.2,2.74-1.57,2.74-6.09v-9.84c0-4.67-2.08-9.64-7.46-9.64-6,0-8,6.19-8,13.29v6.19c0,3.2.15,5.58,2.43,6,0.36,0.05.56,0.15,0.56,0.3s-0.15.25-.46,0.25-2.44-.15-5.18-0.15-5.07.15-5.43,0.15-0.46-.05-0.46-0.25,0.2-.25.56-0.3c2.54-.41,2.74-2.79,2.74-6V156.95c0-3-.36-4.77-1.78-5.38a2.23,2.23,0,0,1-.91-0.51,1.37,1.37,0,0,1,1-.25,44.25,44.25,0,0,0,6.39-1.47v7.31Z" transform="translate(0.06)"/><path class="cls-2" d="M342.89,152.43a0.47,0.47,0,0,1-.51-0.46,1.41,1.41,0,0,1,1-.71c2.89-1,5.33-3.35,7.2-7.2a0.67,0.67,0,0,1,.56-0.51c0.25,0,.25.36,0.25,0.71v6.54H357l-0.36,1.62h-5.28v14.41c0,6.75,1.62,8,3.25,8.52a0.75,0.75,0,0,1,.61.36,0.84,0.84,0,0,1-.81.2h-6.14a3.6,3.6,0,0,1-2.13-3.7V152.43h-3.3Z" transform="translate(0.06)"/><path class="cls-2" d="M263.49,186v-5c0-1-.27-1.82-1.06-2a0.61,0.61,0,0,1-.25-0.15c0-.07.15-0.1,0.37-0.1,0.39,0,1.58.1,2.36,0.1s2-.1,2.36-0.1c0.22,0,.37,0,0.37.1a0.61,0.61,0,0,1-.25.15c-0.79.2-1.06,1-1.06,2v10.93a2.26,2.26,0,0,0,1.33,2.46,0.3,0.3,0,0,1,.22.2c0,0.07-.15.07-0.39,0.07-0.89,0-1.18-.07-2.58-0.07s-1.7.07-2.59,0.07c-0.25,0-.39,0-0.39-0.07a0.3,0.3,0,0,1,.22-0.2,2.26,2.26,0,0,0,1.33-2.46v-5.34h-9.38v5.34a2.26,2.26,0,0,0,1.33,2.46,0.3,0.3,0,0,1,.22.2c0,0.07-.15.07-0.39,0.07-0.89,0-1.18-.07-2.59-0.07s-1.7.07-2.59,0.07c-0.25,0-.39,0-0.39-0.07a0.3,0.3,0,0,1,.22-0.2,2.26,2.26,0,0,0,1.33-2.46V181c0-1-.27-1.82-1.06-2a0.61,0.61,0,0,1-.25-0.15c0-.07.15-0.1,0.37-0.1,0.39,0,1.58.1,2.36,0.1s2-.1,2.36-0.1c0.22,0,.37,0,0.37.1a0.61,0.61,0,0,1-.25.15c-0.79.2-1.06,1-1.06,2v5h9.38Z" transform="translate(0.06)"/><path class="cls-2" d="M273.77,186h4.56c1.8,0,3.37-.84,3.72-1.85a0.26,0.26,0,0,1,.2-0.22c0.07,0,.1.12,0.1,0.37v4.06c0,0.42,0,.52-0.1.52a0.48,0.48,0,0,1-.2-0.34c-0.71-1.82-2.73-1.92-4.46-1.92h-3.82v5.2c0,1.8.62,2.19,2.29,2.19h2.78a10.47,10.47,0,0,0,6.43-2.68,3.39,3.39,0,0,1,.67-0.52,0.06,0.06,0,0,1,.07.07,1.08,1.08,0,0,1,0,.2l-1.08,3.55h-15a0.92,0.92,0,0,1-.74-0.1c0-.07.52-0.22,0.69-0.37,0.91-.71,1.08-1.4,1.08-3.64V182.1c0-1.6-.1-2.66-1.08-2.91a0.89,0.89,0,0,1-.42-0.22c0-.1.1-0.15,0.47-0.15h13.91l0.66,2.31a3.52,3.52,0,0,1,.22.91,0.18,0.18,0,0,1-.12.2,0.42,0.42,0,0,1-.3-0.22c-1-1.7-3.64-2.59-6-2.59h-4.53V186Z" transform="translate(0.06)"/><path class="cls-2" d="M292.32,187.39L291,190a6.24,6.24,0,0,0-.86,2.81,1.56,1.56,0,0,0,1.33,1.58c0.2,0,.27.1,0.27,0.17s-0.12.12-.3,0.12-1.06-.07-2.41-0.07c-1,0-1.63.07-1.92,0.07s-0.32,0-.32-0.12a0.85,0.85,0,0,1,.47-0.39,15.13,15.13,0,0,0,2.86-3.89l6-11.72a0.35,0.35,0,0,1,.17-0.2h0a0.31,0.31,0,0,1,.2.2l7.24,13.54a6.25,6.25,0,0,0,1.65,2,1.52,1.52,0,0,1,.57.42c0,0.07-.12.12-0.35,0.12s-1.33-.07-2.76-0.07c-2,0-2.83.07-3,.07a0.26,0.26,0,0,1-.25-0.07c0-.1.12-0.15,0.32-0.2a1.14,1.14,0,0,0,.69-1.28,10.13,10.13,0,0,0-1.11-2.81l-1.4-2.91h-5.86Zm2.91-5.74-2.58,5.12h5.22Z" transform="translate(0.06)"/><path class="cls-2" d="M311.34,191.31c0,2.46.94,2.66,3,2.66h1.31a9.48,9.48,0,0,0,6.48-2.86,1.87,1.87,0,0,1,.52-0.59,0.15,0.15,0,0,1,.15.17,2.61,2.61,0,0,1-.1.34l-1,3.55H307.23c-0.42,0-.54,0-0.54-0.12a1.8,1.8,0,0,1,.59-0.22c1-.42,1.21-1.33,1.21-3.52V181a1.9,1.9,0,0,0-1.06-2,0.3,0.3,0,0,1-.25-0.2c0-.07.15-0.1,0.37-0.1,0.39,0,1.58.1,2.36,0.1s2-.1,2.36-0.1c0.22,0,.3,0,0.3.12a0.32,0.32,0,0,1-.22.15,1.89,1.89,0,0,0-1,2v10.32Z" transform="translate(0.06)"/><path class="cls-2" d="M326.49,180.57c0-1-.42-1.13-1.53-1.13a7.43,7.43,0,0,0-5.2,2.44,2.87,2.87,0,0,1-.44.42,0.14,0.14,0,0,1-.12-0.15,4.07,4.07,0,0,1,.17-0.57l0.79-2.76h15.51l0.79,2.76a3.9,3.9,0,0,1,.17.57,0.14,0.14,0,0,1-.12.15,2.81,2.81,0,0,1-.44-0.42,7.43,7.43,0,0,0-5.2-2.44c-1.11,0-1.53.17-1.53,1.13v11.35c0,1.21.32,2.17,1.48,2.39a0.39,0.39,0,0,1,.37.2,0.22,0.22,0,0,1-.2.15c-0.17,0-1.67-.07-3.08-0.07s-2.86.07-3,.07-0.22,0-.22-0.12a0.82,0.82,0,0,1,.47-0.2c1.13-.49,1.35-1.21,1.35-3.5V180.57Z" transform="translate(0.06)"/><path class="cls-2" d="M351.5,186v-5c0-1-.27-1.82-1.06-2a0.61,0.61,0,0,1-.25-0.15c0-.07.15-0.1,0.37-0.1,0.39,0,1.58.1,2.36,0.1s2-.1,2.36-0.1c0.22,0,.37,0,0.37.1a0.61,0.61,0,0,1-.25.15c-0.79.2-1.06,1-1.06,2v10.93a2.26,2.26,0,0,0,1.33,2.46,0.3,0.3,0,0,1,.22.2c0,0.07-.15.07-0.39,0.07-0.89,0-1.18-.07-2.59-0.07s-1.7.07-2.59,0.07c-0.25,0-.39,0-0.39-0.07a0.3,0.3,0,0,1,.22-0.2,2.26,2.26,0,0,0,1.33-2.46v-5.34h-9.38v5.34a2.26,2.26,0,0,0,1.33,2.46,0.3,0.3,0,0,1,.22.2c0,0.07-.15.07-0.39,0.07-0.89,0-1.18-.07-2.59-0.07s-1.7.07-2.59,0.07c-0.25,0-.39,0-0.39-0.07a0.3,0.3,0,0,1,.22-0.2,2.26,2.26,0,0,0,1.33-2.46V181c0-1-.27-1.82-1.06-2a0.61,0.61,0,0,1-.25-0.15c0-.07.15-0.1,0.37-0.1,0.39,0,1.58.1,2.36,0.1s2-.1,2.36-0.1c0.22,0,.37,0,0.37.1a0.61,0.61,0,0,1-.25.15c-0.79.2-1.06,1-1.06,2v5h9.38Z" transform="translate(0.06)"/><path class="cls-2" d="M203.32,160.6c-0.2,3.87-.83,6.8-3,9.81a13,13,0,0,1-14.31,5c-5.57-1.57-11.86-8.94-8.21-17.28,1-2.17,3.67-5.75,8.08-6.34a11.64,11.64,0,0,0-9.45,4.45,13.82,13.82,0,0,0,4.52,20.9,15.84,15.84,0,0,0,20.58-6.44A17.07,17.07,0,0,0,203.32,160.6Z" transform="translate(0.06)"/><path class="cls-2" d="M172.14,165.46c0.2-3.87.83-6.8,3-9.81a13,13,0,0,1,14.31-5c5.57,1.57,11.86,8.94,8.21,17.27-1,2.17-3.67,5.75-8.08,6.34A11.64,11.64,0,0,0,199,169.8a13.82,13.82,0,0,0-4.52-20.9,15.84,15.84,0,0,0-20.58,6.44A17.07,17.07,0,0,0,172.14,165.46Z" transform="translate(0.06)"/><path class="cls-2" d="M359.3,191.91a1.53,1.53,0,1,1-2.16,2.17,1.49,1.49,0,0,1-.44-1.09A1.52,1.52,0,0,1,359.3,191.91Zm0.18-.17a1.78,1.78,0,0,0-2.51,2.51,1.77,1.77,0,0,0,2.51,0A1.72,1.72,0,0,0,360,193,1.7,1.7,0,0,0,359.48,191.74Zm-1,1.17a0.94,0.94,0,0,1-.33,0h-0.31v-0.71h0.29a0.89,0.89,0,0,1,.41.07,0.3,0.3,0,0,1,.13.28A0.3,0.3,0,0,1,358.49,192.91Zm-1,1.05h0.34v-0.77h0.27a0.83,0.83,0,0,1,.38.06,0.48,0.48,0,0,1,.18.45V194H359v0a0.33,0.33,0,0,1,0-.1c0-.05,0-0.1,0-0.14v-0.14a0.53,0.53,0,0,0-.11-0.3,0.47,0.47,0,0,0-.34-0.19,0.76,0.76,0,0,0,.28-0.09,0.43,0.43,0,0,0,.19-0.38,0.48,0.48,0,0,0-.3-0.49,1.49,1.49,0,0,0-.53-0.07h-0.68V194Z" transform="translate(0.06)"/><polygon class="cls-2" points="356.44 127.52 0.05 127.52 0.05 126.02 356.44 126.02 356.44 127.52 356.44 127.52"/></svg>