<svg id="Layer_1" data-name="Layer 1" xmlns="http://www.w3.org/2000/svg" viewBox="0 0 359.2 128.98"><defs><style>.cls-1{fill:#005a9c;}.cls-2{fill:#a90533;}</style></defs><title>covenant-health-careers</title><path class="cls-1" d="M92.21,122.41l-0.32,5.28c-1.62,1-4.44,1.3-6.33,1.3-7,0-9.9-3.79-9.9-9.58A10.5,10.5,0,0,1,78,112.29c1.6-1.79,4.17-2.84,8-2.84,1.35,0,4.19.22,5.82,1.19v4.84h-1c-0.62-1.95-1.57-4.79-5-4.79-4.9,0-5.28,6.3-5.28,8.28,0,3.06.68,8.77,5.49,8.77,3.06,0,4.22-2.35,5.25-5.33h1Z" transform="translate(-0.48)"/><path class="cls-1" d="M211.55,122.41l-0.32,5.28c-1.62,1-4.44,1.3-6.33,1.3-7,0-9.9-3.79-9.9-9.58a10.5,10.5,0,0,1,2.33-7.12c1.6-1.79,4.17-2.84,8-2.84,1.35,0,4.19.22,5.82,1.19v4.84h-1c-0.62-1.95-1.57-4.79-5-4.79-4.9,0-5.28,6.3-5.28,8.28,0,3.06.68,8.77,5.49,8.77,3.06,0,4.22-2.35,5.25-5.33h1Z" transform="translate(-0.48)"/><path class="cls-1" d="M107.61,121.95c0,4.33-2.08,7-7,7s-7-2.62-7-7,2.08-7,7-7S107.61,117.62,107.61,121.95Zm-7,5.71c1.89,0,2.68-2.08,2.68-5.71s-0.78-5.71-2.68-5.71-2.71,2.08-2.71,5.71S98.7,127.65,100.63,127.65Z" transform="translate(-0.48)"/><path class="cls-1" d="M113.21,128.57l-2.11-5.82c-0.65-1.76-1.27-3.49-2-5.22a1.63,1.63,0,0,0-1.76-1.19v-1h7.17v1l-1,.14c-0.49.05-.54,0.27-0.38,0.78l2.65,7.74h0.11c0.92-2.73,1.79-5.2,2.43-7.63,0.14-.51.05-0.81-0.43-0.87l-1.16-.16v-1h5.6v1a1.7,1.7,0,0,0-1.87,1.16,49.23,49.23,0,0,0-1.95,4.68l-2.35,6.39h-3Z" transform="translate(-0.48)"/><path class="cls-1" d="M134.56,124.95a5.75,5.75,0,0,1-5.9,4c-5,0-6.63-3.27-6.63-7s1.81-7,6.68-7c5.22,0,6.06,3.41,6.06,5.63,0,0.87-.49,1.14-1.46,1.14h-7c0,2.84.92,5.06,3.63,5.06a3.94,3.94,0,0,0,3.63-2.41Zm-4.87-4.49c0.62,0,.84-0.16.84-0.89,0-1.27-.27-3.33-1.92-3.33s-2.27,2.27-2.27,4.22h3.36Z" transform="translate(-0.48)"/><path class="cls-1" d="M150.28,126.22c0,1.14.22,1.25,1.76,1.33v1h-7.28v-1l0.57-.05c0.57-.05.87-0.19,0.87-1.08v-6.87c-0.05-1.62-.76-2.46-2.14-2.46a2.39,2.39,0,0,0-2.22,1.33,3.93,3.93,0,0,0-.27,1.6v6.41c0,0.89.3,1,.87,1.08l0.57,0.05v1h-7.28v-1c1.54-.08,1.76-0.19,1.76-1.33v-8c0-1.08-.22-1.33-0.65-1.38l-0.95-.14v-1l5.33-.78,0.35,1.87c1.79-1.06,3.06-1.87,4.63-1.87,2.79,0,4.06,1.62,4.09,4.17v7.06Z" transform="translate(-0.48)"/><path class="cls-1" d="M167.33,128.09a12.46,12.46,0,0,1-4,.81,2.09,2.09,0,0,1-2.11-1.57,6.78,6.78,0,0,1-3.87,1.57,3.8,3.8,0,0,1-4.09-3.92c0-1.54.73-2.65,2.87-3.38a27.42,27.42,0,0,0,5-1.92v-1.43c0-1.54-.78-2-1.57-2s-1.62.41-2.38,2.71A1.23,1.23,0,0,1,156,120c-0.7,0-2.43-.49-2.43-1.7,0-1.76,2.43-3.33,6.41-3.33,4.79,0,5.06,2.11,5.06,3.79V125c0,1.6.51,1.92,0.87,2a3.67,3.67,0,0,0,1.3.14ZM161.1,121c-0.65.3-1.6,0.68-2.43,1.14a2.34,2.34,0,0,0-1.24,2.35,2.07,2.07,0,0,0,2,2.27,1.64,1.64,0,0,0,1.68-1.84V121Z" transform="translate(-0.48)"/><path class="cls-1" d="M182,126.22c0,1.14.22,1.25,1.76,1.33v1h-7.28v-1l0.57-.05c0.57-.05.87-0.19,0.87-1.08v-6.87c-0.05-1.62-.76-2.46-2.14-2.46a2.39,2.39,0,0,0-2.22,1.33,3.94,3.94,0,0,0-.27,1.6v6.41c0,0.89.3,1,.87,1.08l0.57,0.05v1h-7.28v-1c1.54-.08,1.76-0.19,1.76-1.33v-8c0-1.08-.22-1.33-0.65-1.38l-0.95-.14v-1l5.33-.78,0.35,1.87c1.79-1.06,3.06-1.87,4.63-1.87,2.79,0,4.06,1.62,4.09,4.17v7.06Z" transform="translate(-0.48)"/><path class="cls-1" d="M190.38,116.67v7.71c0,1.73.7,2.49,1.73,2.49a4.15,4.15,0,0,0,1.54-.27l0.3,0.84a9,9,0,0,1-4.3,1.46,3.29,3.29,0,0,1-3.36-3.49v-8.74h-1.57v-1.35h1.7l2.38-3.41h1.57v3.41h2.81v1.35h-2.81Z" transform="translate(-0.48)"/><path class="cls-1" d="M227,128.09a12.46,12.46,0,0,1-4,.81,2.09,2.09,0,0,1-2.11-1.57A6.78,6.78,0,0,1,217,128.9a3.8,3.8,0,0,1-4.09-3.92c0-1.54.73-2.65,2.87-3.38a27.42,27.42,0,0,0,5-1.92v-1.43c0-1.54-.78-2-1.57-2s-1.62.41-2.38,2.71a1.23,1.23,0,0,1-1.11,1.08c-0.7,0-2.43-.49-2.43-1.7,0-1.76,2.43-3.33,6.41-3.33,4.79,0,5.06,2.11,5.06,3.79V125c0,1.6.51,1.92,0.87,2a3.67,3.67,0,0,0,1.3.14ZM220.75,121c-0.65.3-1.6,0.68-2.43,1.14a2.34,2.34,0,0,0-1.24,2.35,2.07,2.07,0,0,0,2,2.27,1.64,1.64,0,0,0,1.68-1.84V121Z" transform="translate(-0.48)"/><path class="cls-1" d="M232.93,126.22c0,1.14.24,1.22,2.33,1.33v1h-8.17v-1c1.54-.08,1.76-0.19,1.76-1.33v-8c0-1.08-.22-1.33-0.65-1.38l-0.95-.14v-1l5.28-.78,0.32,2.38c1.57-1.65,2.46-2.38,3.6-2.38a1.78,1.78,0,0,1,1.89,1.89,2.59,2.59,0,0,1-.43,1.54,1.78,1.78,0,0,1-1.38.7,2.29,2.29,0,0,1-1.24-.43,3,3,0,0,0-1.43-.57c-0.65,0-.92.62-0.92,2v6.06Z" transform="translate(-0.48)"/><path class="cls-1" d="M251.06,124.95a5.75,5.75,0,0,1-5.9,4c-5,0-6.63-3.27-6.63-7s1.81-7,6.68-7c5.22,0,6.06,3.41,6.06,5.63,0,0.87-.49,1.14-1.46,1.14h-7c0,2.84.92,5.06,3.63,5.06a3.94,3.94,0,0,0,3.63-2.41Zm-4.87-4.49c0.62,0,.84-0.16.84-0.89,0-1.27-.27-3.33-1.92-3.33s-2.27,2.27-2.27,4.22h3.36Z" transform="translate(-0.48)"/><path class="cls-1" d="M265,124.95a5.75,5.75,0,0,1-5.9,4c-5,0-6.63-3.27-6.63-7s1.81-7,6.68-7c5.22,0,6.06,3.41,6.06,5.63,0,0.87-.49,1.14-1.46,1.14h-7c0,2.84.92,5.06,3.63,5.06a3.94,3.94,0,0,0,3.63-2.41Zm-4.87-4.49c0.62,0,.84-0.16.84-0.89,0-1.27-.27-3.33-1.92-3.33s-2.27,2.27-2.27,4.22h3.36Z" transform="translate(-0.48)"/><path class="cls-1" d="M272,126.22c0,1.14.24,1.22,2.33,1.33v1h-8.17v-1c1.54-.08,1.76-0.19,1.76-1.33v-8c0-1.08-.22-1.33-0.65-1.38l-0.95-.14v-1l5.28-.78,0.32,2.38c1.57-1.65,2.46-2.38,3.6-2.38a1.78,1.78,0,0,1,1.89,1.89,2.59,2.59,0,0,1-.43,1.54,1.78,1.78,0,0,1-1.38.7,2.29,2.29,0,0,1-1.25-.43,3,3,0,0,0-1.43-.57c-0.65,0-.92.62-0.92,2v6.06Z" transform="translate(-0.48)"/><path class="cls-1" d="M278.23,123.57h1c0.7,2.22,2.14,4.09,3.92,4.09A1.62,1.62,0,0,0,285,126c0-1.3-1.33-2.08-2.71-2.57-2.38-.89-4-2.19-4-4.17,0-2.73,2.06-4.27,5.36-4.27a8.1,8.1,0,0,1,4.06.95v3.6h-1c-0.51-2.06-1.68-3.3-3.06-3.3a1.56,1.56,0,0,0-1.7,1.57c0,1.08,1.16,1.73,2.73,2.3,2.49,0.95,4,2.06,4,4.38,0,2.92-2.27,4.41-5.57,4.41-1.51,0-3.54-.35-4.57-1.3Z" transform="translate(-0.48)"/><path class="cls-1" d="M290.43,126.38a2.49,2.49,0,1,1,2.49,2.52A2.39,2.39,0,0,1,290.43,126.38Z" transform="translate(-0.48)"/><path class="cls-1" d="M309.67,124.79a5.54,5.54,0,0,1-5.82,4.11c-3.81,0-6.36-2.3-6.36-6.85a7.2,7.2,0,0,1,1.84-5.25,6.77,6.77,0,0,1,5-1.81c2.46,0,5.17,1.06,5.17,3,0,1.19-1.3,1.68-2.25,1.68a1.22,1.22,0,0,1-1.3-.95c-0.46-1.62-.92-2.46-1.87-2.46-1.14,0-2.3,1.54-2.3,5.17,0,4.22,1.7,5.41,3.46,5.41,1.49,0,2.54-.62,3.46-2.46Z" transform="translate(-0.48)"/><path class="cls-1" d="M324.71,121.95c0,4.33-2.08,7-7,7s-7-2.62-7-7,2.08-7,7-7S324.71,117.62,324.71,121.95Zm-7,5.71c1.89,0,2.68-2.08,2.68-5.71s-0.78-5.71-2.68-5.71-2.71,2.08-2.71,5.71S315.81,127.65,317.73,127.65Z" transform="translate(-0.48)"/><path class="cls-1" d="M332,126.41c0,0.89.3,1,.87,1.08l0.57,0.05v1H326.2v-1c1.54-.08,1.76-0.19,1.76-1.33v-8c0-1.08-.22-1.33-0.65-1.38l-0.95-.14v-1l5.33-.78,0.35,1.87c1.49-.95,2.73-1.87,4.49-1.87a4,4,0,0,1,3.68,2c1.16-.73,2.84-2,4.71-2,2.87,0,4.19,1.62,4.22,4.19v7c0,1.14.22,1.25,1.76,1.33v1h-7.28v-1l0.57-.05c0.57-.05.87-0.19,0.87-1.08v-6.74c-0.05-1.7-.84-2.62-2.11-2.6A2.31,2.31,0,0,0,340.7,119a6.29,6.29,0,0,0-.11,1.3v6.11c0,0.89.3,1,.87,1.08l0.57,0.05v1h-7v-1l0.57-.05c0.57-.05.87-0.19,0.87-1.08v-6.74c0-1.54-.62-2.6-1.95-2.6a2.38,2.38,0,0,0-2.41,1.95,6.19,6.19,0,0,0-.11,1.27v6.11Z" transform="translate(-0.48)"/><path class="cls-1" d="M65.66,56.46C57.61,63,47,65.18,36.72,65.18,17.93,65.18.48,54.64,0.48,32.59,0.48,12.84,17.93,0,36.72,0c8.82,0,19.65,2.3,27.51,7.28l-3,9c-0.38,1.15-1.05,3.26-1.34,3.26s-0.77-1.44-1.05-2.49c-2-8.34-8-15-22.14-15.31-17.45,0-25.32,16.56-25.32,30.84S20,63.43,40.55,63.43C49.94,63.43,57,57.7,61.25,48c0.48-1.15.58-2,1.05-2s0.48,0.29.86,1.73Z" transform="translate(-0.48)"/><path class="cls-1" d="M136.06,53.52L146.2,33.79c1.43-3.09,2.69-6,2.69-8.32,0-2.69-1.74-3.65-3.64-4.28a0.74,0.74,0,0,1-.71-0.48c0-.24.32-0.32,0.79-0.32,2.06,0,2.77.32,6,.32,3.09,0,3.8-.32,5.86-0.32,0.55,0,1,0,1,.24a1.27,1.27,0,0,1-.71,1c-2.61,1.82-5.39,6-8.08,10.86L134,62a2.28,2.28,0,0,1-1,1.11h-0.16c-0.24,0-.32-0.4-0.79-1.19l-13.87-27c-3-6-5.55-11.17-8.87-13.39a1.64,1.64,0,0,1-1-.79c0-.32.48-0.32,1-0.32,1.27,0,3.25.32,7.05,0.32,3.65,0,6.5-.32,7.13-0.32a1.15,1.15,0,0,1,1,.32,1,1,0,0,1-.71.63,2.84,2.84,0,0,0-2.22,3c0,1.58,1.27,3.88,2,5.39Z" transform="translate(-0.48)"/><path class="cls-1" d="M161.49,35.77c-0.16,1.82-.24,3.49-0.24,5.15,0,14.74,7.61,20.21,15.29,20.21,9.11,0,15.85-6.26,18.54-15.53h1.66c-2.54,10.93-10.46,17.51-21.24,17.51-13.47,0-23.45-9.11-23.45-21.79s10-21.79,23.45-21.79c8.64,0,19.1,5.23,20.21,16.24H161.49Zm24.25-1.51c0-7.77-3.72-13.23-12-13.23-7.21,0-11.09,6.42-12,13.23h23.93Z" transform="translate(-0.48)"/><path class="cls-1" d="M206.86,31.81H207c1.82-6.74,5.71-12.28,16.16-12.28,8.72,0,16.88,4.52,16.88,17.12V51.94c-0.16,7.53.87,8.64,3.17,9.43a1.63,1.63,0,0,1,1,.55c0,0.24-.4.24-1.19,0.24s-2.77-.24-7.13-0.24-7.13.24-8.16,0.24c-0.47,0-.87,0-0.87-0.24s0.16-.4.71-0.48c2.85-.32,4.28-2.46,4.28-9.51V36.57c0-7.29-3.25-15.06-11.65-15.06-9.43,0-12.52,9.67-12.52,20.76v9.67c0,5,.24,8.72,3.8,9.35,0.55,0.08.87,0.24,0.87,0.48s-0.24.4-.71,0.4-3.8-.24-8.08-0.24-7.92.24-8.48,0.24-0.71-.08-0.71-0.4,0.32-.4.87-0.48c4-.63,4.28-4.36,4.28-9.35V32.29c0-4.75-.55-7.45-2.77-8.4a3.5,3.5,0,0,1-1.43-.79c0-.24.55-0.24,1.51-0.4a69.27,69.27,0,0,0,10-2.3V31.81Z" transform="translate(-0.48)"/><path class="cls-1" d="M282.77,55c0,2.61.4,5,2.85,6.1,0.48,0.24.79,0.24,0.79,0.48a1,1,0,0,1-1,.32h-8.56a23.61,23.61,0,0,1-1.9-8.08h-0.16c-3.09,6.42-7.69,9.27-14.66,9.27-8.24,0-16.72-3.8-16.72-13.23,0-12,18.38-13.23,26.7-13.23h4.52V34c0-7.61-3.57-13-11.57-13-7.29,0-11.57,2.14-14.42,9.11a4,4,0,0,1-.63,1.35,1.42,1.42,0,0,1-.4-0.87l-2.06-7.13c6.5-3.41,11.65-4,18.7-4,9,0,18.54,3.25,18.54,13.23V55Zm-8.16-16.88h-4.67c-8.56,0-17.35,2.54-17.35,13a9.62,9.62,0,0,0,9.83,10c9.35,0,12.2-9.83,12.2-17.43V38.15Z" transform="translate(-0.48)"/><path class="cls-1" d="M297.89,31.81h0.16c1.82-6.74,5.7-12.28,16.17-12.28,8.72,0,16.88,4.52,16.88,17.12V51.94c-0.16,7.53.87,8.64,3.17,9.43a1.63,1.63,0,0,1,1,.55c0,0.24-.4.24-1.19,0.24s-2.77-.24-7.13-0.24-7.13.24-8.16,0.24c-0.48,0-.87,0-0.87-0.24s0.16-.4.71-0.48c2.85-.32,4.28-2.46,4.28-9.51V36.57c0-7.29-3.25-15.06-11.65-15.06-9.43,0-12.52,9.67-12.52,20.76v9.67c0,5,.24,8.72,3.8,9.35,0.55,0.08.87,0.24,0.87,0.48s-0.24.4-.71,0.4-3.8-.24-8.08-0.24-7.92.24-8.48,0.24-0.71-.08-0.71-0.4,0.32-.4.87-0.48c4-.63,4.28-4.36,4.28-9.35V32.29c0-4.75-.55-7.45-2.77-8.4a3.51,3.51,0,0,1-1.43-.79c0-.24.55-0.24,1.51-0.4a69.25,69.25,0,0,0,10-2.3V31.81Z" transform="translate(-0.48)"/><path class="cls-1" d="M333,25.23a0.73,0.73,0,0,1-.79-0.71c0-.4.63-0.71,1.58-1.11,4.52-1.58,8.32-5.23,11.25-11.25a1.05,1.05,0,0,1,.87-0.79c0.4,0,.4.55,0.4,1.11V22.7h8.8l-0.55,2.54h-8.24v22.5c0,10.54,2.54,12.44,5.07,13.31,0.63,0.24,1,.32,1,0.55s-0.55.32-1.27,0.32h-9.59c-2.22-1-3.33-2.77-3.33-5.78V25.23H333Z" transform="translate(-0.48)"/><path class="cls-1" d="M208.95,77.61V69.84c0-1.58-.42-2.85-1.65-3.15a0.94,0.94,0,0,1-.38-0.23c0-.12.23-0.15,0.58-0.15,0.62,0,2.46.15,3.69,0.15s3.08-.15,3.69-0.15c0.35,0,.58,0,0.58.15a0.93,0.93,0,0,1-.38.23c-1.23.31-1.65,1.58-1.65,3.15V86.92c0,1.88.35,3,2.08,3.85a0.46,0.46,0,0,1,.35.31c0,0.12-.23.12-0.62,0.12-1.38,0-1.85-.12-4-0.12s-2.65.12-4,.12c-0.38,0-.62,0-0.62-0.12a0.46,0.46,0,0,1,.35-0.31c1.73-.85,2.08-2,2.08-3.85V78.57H194.29v8.35c0,1.88.35,3,2.08,3.85a0.46,0.46,0,0,1,.35.31c0,0.12-.23.12-0.62,0.12-1.38,0-1.85-.12-4-0.12s-2.65.12-4,.12c-0.38,0-.62,0-0.62-0.12a0.46,0.46,0,0,1,.35-0.31c1.73-.85,2.08-2,2.08-3.85V69.84c0-1.58-.42-2.85-1.65-3.15a0.93,0.93,0,0,1-.38-0.23c0-.12.23-0.15,0.58-0.15,0.62,0,2.46.15,3.69,0.15s3.08-.15,3.69-0.15c0.35,0,.58,0,0.58.15a0.93,0.93,0,0,1-.38.23c-1.23.31-1.65,1.58-1.65,3.15v7.77h14.65Z" transform="translate(-0.48)"/><path class="cls-1" d="M225,77.61h7.12c2.81,0,5.27-1.31,5.81-2.88a0.41,0.41,0,0,1,.31-0.35c0.12,0,.15.19,0.15,0.58V81.3c0,0.65,0,.81-0.15.81a0.75,0.75,0,0,1-.31-0.54c-1.12-2.85-4.27-3-7-3h-6v8.12c0,2.81,1,3.42,3.58,3.42h4.35a16.36,16.36,0,0,0,10-4.19,5.3,5.3,0,0,1,1-.81,0.1,0.1,0,0,1,.12.12,1.75,1.75,0,0,1-.08.31l-1.69,5.54H218.92c-0.88,0-1.15,0-1.15-.15s0.81-.35,1.08-0.58c1.42-1.12,1.69-2.19,1.69-5.69V71.57c0-2.5-.15-4.15-1.69-4.54a1.39,1.39,0,0,1-.65-0.35c0-.15.15-0.23,0.73-0.23h21.73l1,3.62a5.49,5.49,0,0,1,.35,1.42,0.28,0.28,0,0,1-.19.31,0.65,0.65,0,0,1-.46-0.35c-1.62-2.65-5.69-4-9.31-4H225V77.61Z" transform="translate(-0.48)"/><path class="cls-1" d="M254,79.84l-2.08,4a9.75,9.75,0,0,0-1.35,4.38c0,1.65,1,2.08,2.08,2.46,0.31,0.08.42,0.15,0.42,0.27s-0.19.19-.46,0.19-1.65-.12-3.77-0.12c-1.54,0-2.54.12-3,.12s-0.5-.08-0.5-0.19a1.33,1.33,0,0,1,.73-0.62,23.6,23.6,0,0,0,4.46-6.08L259.94,66a0.53,0.53,0,0,1,.27-0.31h0.08a0.48,0.48,0,0,1,.31.31L271.9,87.15a9.74,9.74,0,0,0,2.58,3.19,2.37,2.37,0,0,1,.88.65c0,0.12-.19.19-0.54,0.19s-2.08-.12-4.31-0.12c-3.15,0-4.42.12-4.65,0.12a0.41,0.41,0,0,1-.38-0.12c0-.15.19-0.23,0.5-0.31,0.89-.31,1.08-1,1.08-2a15.81,15.81,0,0,0-1.73-4.38l-2.19-4.54H254Zm4.54-9-4,8h8.15Z" transform="translate(-0.48)"/><path class="cls-1" d="M283.68,86c0,3.85,1.46,4.15,4.73,4.15h2a14.79,14.79,0,0,0,10.12-4.46,2.93,2.93,0,0,1,.81-0.92,0.23,0.23,0,0,1,.23.27,3.94,3.94,0,0,1-.15.54l-1.58,5.54H277.26c-0.65,0-.85-0.08-0.85-0.19a2.83,2.83,0,0,1,.92-0.35c1.5-.65,1.88-2.08,1.88-5.5V69.84c0-1.58-.62-2.73-1.65-3.08a0.47,0.47,0,0,1-.38-0.31c0-.12.23-0.15,0.58-0.15,0.62,0,2.46.15,3.69,0.15s3.08-.15,3.69-0.15c0.35,0,.46,0,0.46.19a0.5,0.5,0,0,1-.35.23c-1.15.5-1.58,1.54-1.58,3.12V86Z" transform="translate(-0.48)"/><path class="cls-1" d="M307.35,69.19c0-1.5-.65-1.77-2.39-1.77-3.81,0-6.38,2.15-8.12,3.81a4.46,4.46,0,0,1-.69.65,0.22,0.22,0,0,1-.19-0.23,6.28,6.28,0,0,1,.27-0.88l1.23-4.31h24.23l1.23,4.31a6.34,6.34,0,0,1,.27.88,0.21,0.21,0,0,1-.19.23,4.46,4.46,0,0,1-.69-0.65c-1.73-1.65-4.31-3.81-8.12-3.81-1.73,0-2.38.27-2.38,1.77V86.92c0,1.88.5,3.38,2.31,3.73a0.61,0.61,0,0,1,.58.31,0.34,0.34,0,0,1-.31.23c-0.27,0-2.62-.12-4.81-0.12s-4.46.12-4.73,0.12-0.35-.08-0.35-0.19a1.29,1.29,0,0,1,.73-0.31c1.77-.77,2.12-1.88,2.12-5.46v-16Z" transform="translate(-0.48)"/><path class="cls-1" d="M346.4,77.61V69.84c0-1.58-.42-2.85-1.65-3.15a0.93,0.93,0,0,1-.38-0.23c0-.12.23-0.15,0.58-0.15,0.62,0,2.46.15,3.69,0.15s3.08-.15,3.69-0.15c0.35,0,.58,0,0.58.15a0.94,0.94,0,0,1-.39.23c-1.23.31-1.65,1.58-1.65,3.15V86.92c0,1.88.35,3,2.08,3.85a0.46,0.46,0,0,1,.35.31c0,0.12-.23.12-0.62,0.12-1.38,0-1.85-.12-4-0.12s-2.65.12-4,.12c-0.38,0-.62,0-0.62-0.12a0.46,0.46,0,0,1,.35-0.31c1.73-.85,2.08-2,2.08-3.85V78.57H331.75v8.35c0,1.88.35,3,2.08,3.85a0.46,0.46,0,0,1,.35.31c0,0.12-.23.12-0.62,0.12-1.38,0-1.85-.12-4-0.12s-2.65.12-4,.12c-0.38,0-.62,0-0.62-0.12a0.46,0.46,0,0,1,.35-0.31c1.73-.85,2.08-2,2.08-3.85V69.84c0-1.58-.42-2.85-1.65-3.15a0.94,0.94,0,0,1-.38-0.23c0-.12.23-0.15,0.58-0.15,0.62,0,2.46.15,3.69,0.15s3.08-.15,3.69-0.15c0.35,0,.58,0,0.58.15a0.94,0.94,0,0,1-.38.23c-1.23.31-1.65,1.58-1.65,3.15v7.77H346.4Z" transform="translate(-0.48)"/><path class="cls-2" d="M115,38c-0.31,6.05-1.3,10.62-4.62,15.32A20.35,20.35,0,0,1,88,61.15c-8.7-2.45-18.52-14-12.83-27,1.49-3.4,5.73-9,12.62-9.91a18.19,18.19,0,0,0-14.76,7c-8.35,10.17-5.29,26.54,7.07,32.65,9.94,4.92,25,2.58,32.15-10.06A26.65,26.65,0,0,0,115,38Z" transform="translate(-0.48)"/><path class="cls-1" d="M66.26,45.59c0.31-6.05,1.3-10.62,4.62-15.32a20.35,20.35,0,0,1,22.35-7.83c8.7,2.45,18.52,14,12.83,27-1.49,3.4-5.73,9-12.62,9.91a18.19,18.19,0,0,0,14.76-7c8.35-10.17,5.29-26.54-7.07-32.65-9.94-4.91-25-2.58-32.15,10.06A26.65,26.65,0,0,0,66.26,45.59Z" transform="translate(-0.48)"/><path class="cls-1" d="M358.59,86.9a2.39,2.39,0,1,1-3.37,3.39,2.42,2.42,0,0,1,0-3.39A2.37,2.37,0,0,1,358.59,86.9Zm0.28-.27a2.77,2.77,0,0,0-3.92,3.92,2.77,2.77,0,0,0,3.92,0,2.69,2.69,0,0,0,.81-2A2.66,2.66,0,0,0,358.87,86.64Zm-1.55,1.83a1.45,1.45,0,0,1-.51.07h-0.48v-1.1h0.46a1.38,1.38,0,0,1,.65.11A0.55,0.55,0,0,1,357.32,88.46Zm-1.53,1.64h0.54V88.9h0.42a1.29,1.29,0,0,1,.6.1,0.75,0.75,0,0,1,.29.7v0.4h0.5l0,0a0.51,0.51,0,0,1,0-.16c0-.08,0-0.16,0-0.23V89.46a0.84,0.84,0,0,0-.17-0.47,0.74,0.74,0,0,0-.53-0.3,1.17,1.17,0,0,0,.44-0.15,0.66,0.66,0,0,0,.3-0.6,0.75,0.75,0,0,0-.47-0.77,2.33,2.33,0,0,0-.83-0.11h-1.07v3Z" transform="translate(-0.48)"/><line class="cls-1" x1="351.47" y1="99.8" x2="4.24" y2="99.8"/><rect class="cls-1" x="4.24" y="99.16" width="347.23" height="1.29"/></svg>