<svg id="Layer_1" data-name="Layer 1" xmlns="http://www.w3.org/2000/svg" viewBox="0 0 360.19 125.38"><defs><style>.cls-1{fill:#68737a;}.cls-2{fill:#a90533;}.cls-3{fill:#005a9c;}</style></defs><title>fort-loudoun-medical-center</title><path class="cls-1" d="M133.71,32.13h5.88c2.32,0,4.35-1.08,4.7-2.38,0.06-.19.1-0.29,0.22-0.29s0.16,0.1.16,0.41v5.4c0,0.22,0,.32-0.13.32a1.26,1.26,0,0,1-.35-0.57c-0.86-1.56-3.34-2.1-5.56-2.1h-4.93V37.5c0,2.92.38,5.08,1.65,5.47a1.28,1.28,0,0,1,.67.29c0,0.06,0,.1-0.19.1s-2.16-.1-4-0.1-3.59.1-3.75,0.1a0.27,0.27,0,0,1-.29-0.1A1,1,0,0,1,128.3,43c1.3-.67,1.72-1.59,1.72-3.94V26.48c0-1.84-.16-2.83-1.08-3.18a0.76,0.76,0,0,1-.51-0.25c0-.06.13-0.13,0.54-0.13h17.6l0.86,3c0.1,0.32.38,1.08,0.38,1.18s0,0.22-.1.22a1.09,1.09,0,0,1-.41-0.38,10.58,10.58,0,0,0-7.82-3.21h-5.78v8.42Z" transform="translate(0.04)"/><path class="cls-1" d="M156.58,26.26C162,26.26,166,29.91,166,35s-4,8.74-9.44,8.74-9.41-3.65-9.41-8.74S151.18,26.26,156.58,26.26Zm0,16.87c4.77,0,5.75-4.39,5.75-8.13s-1-8.13-5.75-8.13-5.72,4.38-5.72,8.13S151.85,43.13,156.58,43.13Z" transform="translate(0.04)"/><path class="cls-1" d="M171.25,30.7h0.06c1.24-2.64,3.46-4.58,6.45-4.45l-1.33,3.27a3.28,3.28,0,0,0-2-.51c-1.81,0-3,2.32-3,4.38v5.85c0,2,.16,3.5,1.81,3.81a0.37,0.37,0,0,1,.32.19c0,0.1-.1.1-0.25,0.1s-1.78-.1-3.53-0.1-3.21.1-3.4,0.1a0.27,0.27,0,0,1-.29-0.1,0.38,0.38,0,0,1,.35-0.16c1.49-.54,1.72-1.18,1.72-3.84V31.66c0-2.19-.13-3.34-1.24-3.59a0.7,0.7,0,0,1-.48-0.25,1.45,1.45,0,0,1,.67-0.16,24.6,24.6,0,0,0,4.13-1v4.1Z" transform="translate(0.04)"/><path class="cls-1" d="M179,28.54a0.29,0.29,0,0,1-.32-0.29,0.88,0.88,0,0,1,.64-0.44,8.21,8.21,0,0,0,4.51-4.51,0.42,0.42,0,0,1,.35-0.32c0.16,0,.16.22,0.16,0.44v4.1h3.53l-0.22,1h-3.3v9c0,4.23,1,5,2,5.34a0.47,0.47,0,0,1,.38.22,0.53,0.53,0,0,1-.51.13h-3.84a2.26,2.26,0,0,1-1.33-2.32V28.54H179Z" transform="translate(0.04)"/><path class="cls-1" d="M203.44,39c0,3.18,1.21,3.43,3.91,3.43H209a12.23,12.23,0,0,0,8.36-3.69,2.42,2.42,0,0,1,.67-0.76,0.19,0.19,0,0,1,.19.22,3.29,3.29,0,0,1-.13.45l-1.3,4.58H198.13c-0.54,0-.7-0.06-0.7-0.16a2.35,2.35,0,0,1,.76-0.29c1.24-.54,1.56-1.72,1.56-4.54V25.72a2.45,2.45,0,0,0-1.37-2.54,0.39,0.39,0,0,1-.32-0.25c0-.1.19-0.13,0.48-0.13,0.51,0,2,.13,3.05.13s2.54-.13,3.05-0.13c0.29,0,.38,0,0.38.16a0.41,0.41,0,0,1-.29.19c-1,.41-1.3,1.27-1.3,2.57V39Z" transform="translate(0.04)"/><path class="cls-1" d="M228.48,26.26c5.43,0,9.44,3.65,9.44,8.74s-4,8.74-9.44,8.74-9.41-3.65-9.41-8.74S223.08,26.26,228.48,26.26Zm0,16.87c4.77,0,5.75-4.39,5.75-8.13s-1-8.13-5.75-8.13-5.72,4.38-5.72,8.13S223.74,43.13,228.48,43.13Z" transform="translate(0.04)"/><path class="cls-1" d="M256.73,39.22c0,2.64.38,3.46,1.75,3.81a0.24,0.24,0,0,1,.19.1,0.39,0.39,0,0,1-.41.13h-3.78a9.39,9.39,0,0,1-.83-3.65h-0.06c-1,2.83-2.92,4.13-6.2,4.13-4.54,0-6.77-1.75-6.77-6.86V30.45c0-1.84-.13-2.22-1-2.54a0.64,0.64,0,0,1-.48-0.25,0.54,0.54,0,0,1,.48-0.13,32.57,32.57,0,0,0,4.29-.92V36.9c0,2.92,1.3,6,4.67,6s4.89-3.15,4.89-6.1V30.45c0-1.94-.35-2.35-0.92-2.64a2.37,2.37,0,0,1-.41-0.22,0.85,0.85,0,0,1,.51-0.19c1.24-.19,2.51-0.41,4.1-0.79V39.22Z" transform="translate(0.04)"/><path class="cls-1" d="M277.38,35c0,1.75,0,3.49.13,5.21,0.1,1.24.54,2.45,1.68,2.76a0.26,0.26,0,0,1,.22.16c0,0.1-.16.13-0.54,0.13h-3.75a12.11,12.11,0,0,1-.92-3.18h-0.06a6.94,6.94,0,0,1-6.45,3.65c-4.45,0-8.2-3.4-8.2-8.74,0-4.51,3.56-8.74,8.2-8.74A7.71,7.71,0,0,1,274,29h0.06V24.06c0-1.14,0-2.19-1.24-2.45a0.54,0.54,0,0,1-.41-0.19,0.75,0.75,0,0,1,.57-0.19c1.49-.29,2.83-0.6,4.35-1V35Zm-8.64,7.94c2.07,0,5.53-2,5.53-7.94,0-6.67-3.46-7.94-5.53-7.94s-5.56,1.27-5.56,7.94S266.64,42.94,268.74,42.94Z" transform="translate(0.04)"/><path class="cls-1" d="M289.55,26.26C295,26.26,299,29.91,299,35s-4,8.74-9.44,8.74-9.41-3.65-9.41-8.74S284.15,26.26,289.55,26.26Zm0,16.87c4.77,0,5.75-4.39,5.75-8.13s-1-8.13-5.75-8.13-5.72,4.38-5.72,8.13S284.82,43.13,289.55,43.13Z" transform="translate(0.04)"/><path class="cls-1" d="M317.8,39.22c0,2.64.38,3.46,1.75,3.81a0.24,0.24,0,0,1,.19.1,0.39,0.39,0,0,1-.41.13h-3.78a9.39,9.39,0,0,1-.83-3.65h-0.06c-1,2.83-2.92,4.13-6.2,4.13-4.54,0-6.77-1.75-6.77-6.86V30.45c0-1.84-.13-2.22-1-2.54a0.64,0.64,0,0,1-.48-0.25,0.54,0.54,0,0,1,.48-0.13,32.59,32.59,0,0,0,4.29-.92V36.9c0,2.92,1.3,6,4.67,6s4.89-3.15,4.89-6.1V30.45c0-1.94-.35-2.35-0.92-2.64a2.34,2.34,0,0,1-.41-0.22,0.85,0.85,0,0,1,.51-0.19c1.24-.19,2.51-0.41,4.1-0.79V39.22Z" transform="translate(0.04)"/><path class="cls-1" d="M324.76,31.18h0.06c0.73-2.7,2.29-4.93,6.48-4.93,3.5,0,6.77,1.81,6.77,6.86v6.13c-0.06,3,.35,3.46,1.27,3.78a0.65,0.65,0,0,1,.41.22c0,0.1-.16.1-0.48,0.1s-1.11-.1-2.86-0.1-2.86.1-3.27,0.1c-0.19,0-.35,0-0.35-0.1s0.06-.16.29-0.19c1.14-.13,1.72-1,1.72-3.81V33.09c0-2.92-1.3-6-4.67-6-3.78,0-5,3.88-5,8.33v3.88c0,2,.1,3.5,1.52,3.75,0.22,0,.35.1,0.35,0.19s-0.1.16-.29,0.16-1.53-.1-3.24-0.1-3.18.1-3.4,0.1-0.29,0-.29-0.16,0.13-.16.35-0.19c1.59-.25,1.72-1.75,1.72-3.75V31.37c0-1.91-.22-3-1.11-3.37a1.4,1.4,0,0,1-.57-0.32,0.86,0.86,0,0,1,.6-0.16,27.81,27.81,0,0,0,4-.92v4.58Z" transform="translate(0.04)"/><path class="cls-1" d="M140.39,67.48l7-15.7h5c0.38,0,.44.1,0.44,0.19a0.55,0.55,0,0,1-.44.25c-1,.22-1.33,1.33-1.33,2.83V67.13c0,1.87.06,4.42,2,4.8a0.89,0.89,0,0,1,.51.25,0.55,0.55,0,0,1-.51.16c-0.16,0-1-.1-3.75-0.1-2.45,0-3.3.1-3.62,0.1a0.36,0.36,0,0,1-.38-0.16A0.9,0.9,0,0,1,145.8,72c1.62-.45,1.72-3,1.72-4.83V53.94h-0.06L139.5,71.23a2.64,2.64,0,0,1-.79,1.27h-0.06c-0.35,0-.67-1-0.83-1.3L130,53.94h-0.06V66c0,2.22.29,5,2.1,5.75a1.74,1.74,0,0,1,.67.48,0.91,0.91,0,0,1-.41,0h-5.5a0.54,0.54,0,0,1-.44-0.1,0.93,0.93,0,0,1,.44-0.29c1.75-1,2.35-3.84,2.35-5.88V55.5c0-1.18-.29-3.05-1.49-3.3a0.29,0.29,0,0,1-.22-0.29,0.2,0.2,0,0,1,.22-0.13h5.24Z" transform="translate(0.04)"/><path class="cls-1" d="M157.93,61.76c-0.06.73-.1,1.4-0.1,2.07,0,5.91,3.05,8.1,6.13,8.1,3.65,0,6.36-2.51,7.44-6.23h0.67c-1,4.38-4.19,7-8.52,7-5.4,0-9.41-3.65-9.41-8.74s4-8.74,9.41-8.74c3.46,0,7.66,2.1,8.1,6.51H157.93Zm9.72-.6c0-3.11-1.49-5.31-4.8-5.31-2.89,0-4.45,2.57-4.8,5.31h9.6Z" transform="translate(0.04)"/><path class="cls-1" d="M191.46,64c0,1.75,0,3.49.13,5.21,0.1,1.24.54,2.45,1.68,2.76a0.26,0.26,0,0,1,.22.16c0,0.1-.16.13-0.54,0.13H189.2a12.11,12.11,0,0,1-.92-3.18h-0.06a6.94,6.94,0,0,1-6.45,3.65c-4.45,0-8.2-3.4-8.2-8.74,0-4.51,3.56-8.74,8.2-8.74a7.72,7.72,0,0,1,6.35,2.7h0.06V53.05c0-1.14,0-2.19-1.24-2.45a0.54,0.54,0,0,1-.41-0.19,0.75,0.75,0,0,1,.57-0.19c1.49-.29,2.83-0.6,4.35-1V64Zm-8.64,7.94c2.07,0,5.53-2,5.53-7.94,0-6.67-3.46-7.94-5.53-7.94s-5.56,1.27-5.56,7.94S180.72,71.93,182.81,71.93Z" transform="translate(0.04)"/><path class="cls-1" d="M195.84,59c0-1.59-.6-1.78-1.11-2.07a1.64,1.64,0,0,1-.54-0.19,1.36,1.36,0,0,1,.57-0.13c1.49-.29,2.83-0.6,4.35-1V68.24c0,2,.19,3.43,1.65,3.72a0.29,0.29,0,0,1,.32.29c0,0.1-.16.1-0.44,0.1s-1.46-.1-3.18-0.1-2.86.1-3.18,0.1-0.44,0-.44-0.1a0.29,0.29,0,0,1,.32-0.29c1.46-.29,1.68-1.72,1.68-3.72V59Zm-0.51-7.34a1.89,1.89,0,1,1,3.78,0A1.89,1.89,0,0,1,195.33,51.65Z" transform="translate(0.04)"/><path class="cls-1" d="M218.05,59.63a1.72,1.72,0,0,1-.38.86,0.52,0.52,0,0,1-.19-0.38,5.81,5.81,0,0,0-5.82-4.26C207.5,55.85,206,60.1,206,64c0,5.75,3.21,7.94,6.13,7.94a7.47,7.47,0,0,0,6.39-4.19L219,68.24c-1.72,2.92-3.88,4.48-7.31,4.48-5.4,0-9.41-3.65-9.41-8.74s4-8.74,9.41-8.74c1.81,0,5.53.76,7.09,1.91Z" transform="translate(0.04)"/><path class="cls-1" d="M236.32,69.48c0,1,.16,2,1.14,2.45a0.44,0.44,0,0,1,.32.19,0.39,0.39,0,0,1-.41.13h-3.43a9.47,9.47,0,0,1-.76-3.24h-0.06a5.93,5.93,0,0,1-5.88,3.72c-3.3,0-6.71-1.53-6.71-5.31,0-4.83,7.37-5.31,10.71-5.31h1.81v-1c0-3.05-1.43-5.21-4.64-5.21-2.92,0-4.64.86-5.78,3.65a1.62,1.62,0,0,1-.25.54,0.57,0.57,0,0,1-.16-0.35l-0.83-2.86a14.42,14.42,0,0,1,7.5-1.59c3.62,0,7.44,1.3,7.44,5.31v8.93Zm-3.27-6.77h-1.87c-3.43,0-7,1-7,5.21a3.86,3.86,0,0,0,3.94,4c3.75,0,4.89-3.94,4.89-7V62.71Z" transform="translate(0.04)"/><path class="cls-1" d="M244.3,68.24c0,2,.1,3.21,1.81,3.81a0.27,0.27,0,0,1,.19.19,0.3,0.3,0,0,1-.29.1c-0.16,0-1-.1-3.37-0.1-1.72,0-3.08.1-3.3,0.1s-0.32,0-.32-0.1a0.27,0.27,0,0,1,.19-0.19c1.75-.73,1.81-1.81,1.81-3.81V53.05c0-1.56-.29-2.19-1.08-2.35a0.58,0.58,0,0,1-.48-0.25c0-.16.25-0.19,0.48-0.22,1.49-.29,2.83-0.6,4.35-1v19Z" transform="translate(0.04)"/><path class="cls-1" d="M278.47,70c-2.67,2.16-6.2,2.89-9.6,2.89-6.23,0-12-3.49-12-10.8,0-6.55,5.78-10.8,12-10.8A18,18,0,0,1,278,53.69l-1,3a3.73,3.73,0,0,1-.45,1.08,1.86,1.86,0,0,1-.35-0.83c-0.67-2.76-2.64-4.77-7.34-4.86-5.78,0-7.75,5.27-7.75,10s2.22,10,9,10c3.11,0,5.47-1.68,6.86-4.89a1,1,0,0,1,.35-0.67c0.13,0,.16.1,0.29,0.57Z" transform="translate(0.04)"/><path class="cls-1" d="M283.84,61.76c-0.06.73-.1,1.4-0.1,2.07,0,5.91,3.05,8.1,6.13,8.1,3.65,0,6.35-2.51,7.44-6.23H298c-1,4.38-4.19,7-8.52,7-5.4,0-9.41-3.65-9.41-8.74s4-8.74,9.41-8.74c3.46,0,7.66,2.1,8.1,6.51H283.84Zm9.72-.6c0-3.11-1.49-5.31-4.8-5.31-2.89,0-4.45,2.57-4.8,5.31h9.6Z" transform="translate(0.04)"/><path class="cls-1" d="M303.66,60.17h0.06c0.73-2.7,2.29-4.93,6.48-4.93,3.5,0,6.77,1.81,6.77,6.86v6.13c-0.06,3,.35,3.46,1.27,3.78a0.65,0.65,0,0,1,.41.22c0,0.1-.16.1-0.48,0.1s-1.11-.1-2.86-0.1-2.86.1-3.27,0.1c-0.19,0-.35,0-0.35-0.1s0.06-.16.29-0.19c1.14-.13,1.72-1,1.72-3.81V62.07c0-2.92-1.3-6-4.67-6-3.78,0-5,3.88-5,8.33v3.88c0,2,.1,3.5,1.52,3.75,0.22,0,.35.1,0.35,0.19s-0.1.16-.29,0.16-1.53-.1-3.24-0.1-3.18.1-3.4,0.1-0.29,0-.29-0.16S298.8,72,299,72c1.59-.25,1.72-1.75,1.72-3.75V60.36c0-1.91-.22-3-1.11-3.37a1.4,1.4,0,0,1-.57-0.32,0.86,0.86,0,0,1,.6-0.16,27.8,27.8,0,0,0,4-.92v4.58Z" transform="translate(0.04)"/><path class="cls-1" d="M319.62,57.53a0.29,0.29,0,0,1-.32-0.29,0.88,0.88,0,0,1,.64-0.44,8.21,8.21,0,0,0,4.51-4.51A0.42,0.42,0,0,1,324.8,52c0.16,0,.16.22,0.16,0.44v4.1h3.53l-0.22,1H325v9c0,4.23,1,5,2,5.34a0.47,0.47,0,0,1,.38.22,0.53,0.53,0,0,1-.51.13H323a2.26,2.26,0,0,1-1.33-2.32V57.53h-2.07Z" transform="translate(0.04)"/><path class="cls-1" d="M333.12,61.76c-0.06.73-.1,1.4-0.1,2.07,0,5.91,3.05,8.1,6.13,8.1,3.65,0,6.35-2.51,7.44-6.23h0.67c-1,4.38-4.19,7-8.52,7-5.4,0-9.41-3.65-9.41-8.74s4-8.74,9.41-8.74c3.46,0,7.66,2.1,8.1,6.51H333.12Zm9.72-.6c0-3.11-1.49-5.31-4.8-5.31-2.89,0-4.45,2.57-4.8,5.31h9.6Z" transform="translate(0.04)"/><path class="cls-1" d="M353.49,59.69h0.06c1.24-2.64,3.46-4.58,6.45-4.45l-1.33,3.27a3.28,3.28,0,0,0-2-.51c-1.81,0-3,2.32-3,4.38v5.85c0,2,.16,3.5,1.81,3.81a0.37,0.37,0,0,1,.32.19c0,0.1-.1.1-0.25,0.1s-1.78-.1-3.53-0.1-3.21.1-3.4,0.1a0.27,0.27,0,0,1-.29-0.1,0.38,0.38,0,0,1,.35-0.16c1.49-.54,1.72-1.18,1.72-3.84V60.65c0-2.19-.13-3.34-1.24-3.59a0.7,0.7,0,0,1-.48-0.25,1.45,1.45,0,0,1,.67-0.16,24.6,24.6,0,0,0,4.13-1v4.1Z" transform="translate(0.04)"/><path class="cls-1" d="M240.71,111.2c-3.27,2.65-7.59,3.54-11.76,3.54-7.63,0-14.72-4.28-14.72-13.24,0-8,7.09-13.24,14.72-13.24a22,22,0,0,1,11.18,3l-1.21,3.66a4.56,4.56,0,0,1-.55,1.32,2.27,2.27,0,0,1-.43-1c-0.82-3.39-3.23-6.1-9-6.22-7.09,0-10.29,6.73-10.29,12.53S222.17,114,230.51,114c3.82,0,6.7-2.33,8.41-6.26a1.21,1.21,0,0,1,.43-0.82c0.16,0,.2.12,0.35,0.7Z" transform="translate(0.04)"/><path class="cls-1" d="M269.31,110l4.12-8a9.31,9.31,0,0,0,1.09-3.38A1.75,1.75,0,0,0,273,96.87a0.3,0.3,0,0,1-.29-0.19c0-.1.13-0.13,0.32-0.13,0.84,0,1.13.13,2.45,0.13s1.54-.13,2.38-0.13c0.22,0,.42,0,0.42.1A0.52,0.52,0,0,1,278,97a14.13,14.13,0,0,0-3.28,4.41l-6.28,12a0.93,0.93,0,0,1-.38.45H268a1,1,0,0,1-.32-0.48l-5.63-11c-1.22-2.45-2.25-4.54-3.61-5.44a0.66,0.66,0,0,1-.39-0.32c0-.13.19-0.13,0.42-0.13,0.51,0,1.32.13,2.86,0.13s2.64-.13,2.9-0.13a0.47,0.47,0,0,1,.42.13,0.4,0.4,0,0,1-.29.26,1.15,1.15,0,0,0-.9,1.22,6.45,6.45,0,0,0,.8,2.19Z" transform="translate(0.04)"/><path class="cls-1" d="M279.64,102.8c-0.06.74-.1,1.42-0.1,2.09,0,6,3.09,8.21,6.21,8.21,3.7,0,6.44-2.54,7.53-6.31H294c-1,4.44-4.25,7.11-8.63,7.11-5.47,0-9.53-3.7-9.53-8.85s4.06-8.85,9.53-8.85c3.51,0,7.76,2.13,8.21,6.6H279.64Zm9.85-.61c0-3.15-1.51-5.38-4.86-5.38-2.93,0-4.51,2.61-4.86,5.38h9.72Z" transform="translate(0.04)"/><path class="cls-1" d="M298.07,101.19h0.06c0.74-2.74,2.32-5,6.57-5,3.54,0,6.86,1.84,6.86,7v6.21c-0.07,3.06.35,3.51,1.29,3.83a0.66,0.66,0,0,1,.42.23c0,0.1-.16.1-0.48,0.1s-1.13-.1-2.9-0.1-2.9.1-3.32,0.1c-0.19,0-.35,0-0.35-0.1s0.07-.16.29-0.19c1.16-.13,1.74-1,1.74-3.86v-6.24c0-3-1.32-6.12-4.73-6.12-3.83,0-5.09,3.93-5.09,8.43v3.93c0,2,.1,3.54,1.54,3.8,0.23,0,.35.1,0.35,0.19s-0.1.16-.29,0.16-1.55-.1-3.28-0.1-3.22.1-3.44,0.1-0.29,0-.29-0.16,0.13-.16.36-0.19c1.61-.26,1.74-1.77,1.74-3.8v-8c0-1.93-.22-3-1.13-3.41a1.39,1.39,0,0,1-.58-0.32,0.85,0.85,0,0,1,.61-0.16,28.21,28.21,0,0,0,4.06-.94v4.64Z" transform="translate(0.04)"/><path class="cls-1" d="M328.91,110.62c0,1.06.16,2,1.16,2.48a0.44,0.44,0,0,1,.32.19,0.4,0.4,0,0,1-.42.13H326.5a9.64,9.64,0,0,1-.77-3.28h-0.06a6,6,0,0,1-6,3.77c-3.35,0-6.79-1.54-6.79-5.38,0-4.89,7.47-5.37,10.85-5.37h1.83v-1.06c0-3.09-1.45-5.28-4.7-5.28-3,0-4.7.87-5.86,3.7a1.65,1.65,0,0,1-.26.55,0.58,0.58,0,0,1-.16-0.36l-0.84-2.9a14.6,14.6,0,0,1,7.6-1.61c3.67,0,7.53,1.32,7.53,5.38v9Zm-3.32-6.86h-1.9c-3.48,0-7.05,1-7.05,5.28a3.91,3.91,0,0,0,4,4.06c3.8,0,5-4,5-7.08v-2.25Z" transform="translate(0.04)"/><path class="cls-1" d="M335.05,101.19h0.06c0.74-2.74,2.32-5,6.57-5,3.54,0,6.86,1.84,6.86,7v6.21c-0.07,3.06.35,3.51,1.29,3.83a0.67,0.67,0,0,1,.42.23c0,0.1-.16.1-0.48,0.1s-1.13-.1-2.9-0.1-2.9.1-3.32,0.1c-0.19,0-.35,0-0.35-0.1s0.06-.16.29-0.19c1.16-.13,1.74-1,1.74-3.86v-6.24c0-3-1.32-6.12-4.73-6.12-3.83,0-5.09,3.93-5.09,8.43v3.93c0,2,.1,3.54,1.55,3.8,0.22,0,.35.1,0.35,0.19s-0.1.16-.29,0.16-1.54-.1-3.28-0.1-3.22.1-3.44,0.1-0.29,0-.29-0.16,0.13-.16.35-0.19c1.61-.26,1.74-1.77,1.74-3.8v-8c0-1.93-.23-3-1.13-3.41a1.39,1.39,0,0,1-.58-0.32,0.86,0.86,0,0,1,.61-0.16,28.14,28.14,0,0,0,4.06-.94v4.64Z" transform="translate(0.04)"/><path class="cls-1" d="M349.3,98.52a0.3,0.3,0,0,1-.32-0.29,0.89,0.89,0,0,1,.64-0.45,8.31,8.31,0,0,0,4.57-4.57,0.43,0.43,0,0,1,.35-0.32c0.16,0,.16.22,0.16,0.45v4.15h3.57l-0.23,1h-3.35v9.14c0,4.28,1,5.06,2.06,5.41,0.26,0.1.39,0.13,0.39,0.23a0.54,0.54,0,0,1-.51.13h-3.9a2.29,2.29,0,0,1-1.35-2.35V98.52H349.3Z" transform="translate(0.04)"/><path class="cls-1" d="M298.92,119.79v-3.16a1.14,1.14,0,0,0-.67-1.28,0.35,0.35,0,0,1-.16-0.09s0.09-.06.23-0.06,1,0.06,1.5.06,1.25-.06,1.5-0.06,0.24,0,.24.06a0.36,0.36,0,0,1-.16.09,1.14,1.14,0,0,0-.67,1.28v6.94a1.44,1.44,0,0,0,.84,1.56,0.19,0.19,0,0,1,.14.13s-0.09,0-.25,0c-0.56,0-.75,0-1.64,0s-1.08,0-1.64,0c-0.16,0-.25,0-0.25,0a0.19,0.19,0,0,1,.14-0.13,1.43,1.43,0,0,0,.84-1.56v-3.39h-6v3.39a1.44,1.44,0,0,0,.84,1.56,0.19,0.19,0,0,1,.14.13s-0.09,0-.25,0c-0.56,0-.75,0-1.64,0s-1.08,0-1.64,0c-0.16,0-.25,0-0.25,0a0.19,0.19,0,0,1,.14-0.13,1.44,1.44,0,0,0,.84-1.56v-6.94a1.14,1.14,0,0,0-.67-1.28,0.36,0.36,0,0,1-.16-0.09s0.09-.06.24-0.06,1,0.06,1.5.06,1.25-.06,1.5-0.06,0.23,0,.23.06a0.36,0.36,0,0,1-.16.09,1.14,1.14,0,0,0-.67,1.28v3.16h6Z" transform="translate(0.04)"/><path class="cls-1" d="M305.44,119.79h2.89a2.49,2.49,0,0,0,2.36-1.17,0.16,0.16,0,0,1,.13-0.14s0.06,0.08.06,0.23v2.58c0,0.27,0,.33-0.06.33a0.31,0.31,0,0,1-.13-0.22c-0.45-1.16-1.73-1.22-2.83-1.22h-2.42v3.3c0,1.14.39,1.39,1.45,1.39h1.77a6.65,6.65,0,0,0,4.08-1.7,2.12,2.12,0,0,1,.42-0.33,0,0,0,0,1,0,0,0.78,0.78,0,0,1,0,.13l-0.69,2.25H303a0.58,0.58,0,0,1-.47-0.06s0.33-.14.44-0.23c0.58-.45.69-0.89,0.69-2.31v-5.31c0-1-.06-1.69-0.69-1.84a0.57,0.57,0,0,1-.27-0.14c0-.06.06-0.09,0.3-0.09h8.83l0.42,1.47a2.21,2.21,0,0,1,.14.58,0.11,0.11,0,0,1-.08.12,0.26,0.26,0,0,1-.19-0.14,4.55,4.55,0,0,0-3.78-1.64h-2.88v4.14Z" transform="translate(0.04)"/><path class="cls-1" d="M317.21,120.7l-0.84,1.64a4,4,0,0,0-.55,1.78,1,1,0,0,0,.84,1c0.12,0,.17.06,0.17,0.11s-0.08.08-.19,0.08-0.67,0-1.53,0c-0.62,0-1,0-1.22,0s-0.2,0-.2-0.08A0.54,0.54,0,0,1,314,125a9.65,9.65,0,0,0,1.81-2.47l3.83-7.44a0.23,0.23,0,0,1,.11-0.12h0a0.19,0.19,0,0,1,.13.12l4.59,8.59a4,4,0,0,0,1,1.3,1,1,0,0,1,.36.27s-0.08.08-.22,0.08-0.84,0-1.75,0c-1.28,0-1.8,0-1.89,0a0.17,0.17,0,0,1-.16,0c0-.06.08-0.09,0.2-0.13a0.72,0.72,0,0,0,.44-0.81,6.41,6.41,0,0,0-.7-1.78l-0.89-1.84h-3.72Zm1.84-3.64-1.64,3.25h3.31Z" transform="translate(0.04)"/><path class="cls-1" d="M329.28,123.18c0,1.56.59,1.69,1.92,1.69H332a6,6,0,0,0,4.11-1.81,1.22,1.22,0,0,1,.33-0.38,0.1,0.1,0,0,1,.09.11,1.76,1.76,0,0,1-.06.22l-0.64,2.25h-9.19c-0.27,0-.34,0-0.34-0.08a1.22,1.22,0,0,1,.38-0.14c0.61-.27.76-0.84,0.76-2.24v-6.17a1.2,1.2,0,0,0-.67-1.25,0.19,0.19,0,0,1-.16-0.13s0.09-.06.23-0.06,1,0.06,1.5.06,1.25-.06,1.5-0.06,0.19,0,.19.08a0.2,0.2,0,0,1-.14.09,1.2,1.2,0,0,0-.64,1.26v6.55Z" transform="translate(0.04)"/><path class="cls-1" d="M338.89,116.37c0-.61-0.27-0.72-1-0.72a4.71,4.71,0,0,0-3.3,1.55,1.79,1.79,0,0,1-.28.26,0.09,0.09,0,0,1-.08-0.09,2.64,2.64,0,0,1,.11-0.36l0.5-1.75h9.84l0.5,1.75a2.49,2.49,0,0,1,.11.36,0.09,0.09,0,0,1-.08.09,1.8,1.8,0,0,1-.28-0.26,4.71,4.71,0,0,0-3.3-1.55c-0.7,0-1,.11-1,0.72v7.2a1.28,1.28,0,0,0,.94,1.51,0.25,0.25,0,0,1,.23.13,0.14,0.14,0,0,1-.12.09c-0.11,0-1.06,0-2,0s-1.81,0-1.92,0-0.14,0-.14-0.08a0.53,0.53,0,0,1,.3-0.13c0.72-.31.86-0.76,0.86-2.22v-6.52Z" transform="translate(0.04)"/><path class="cls-1" d="M354.76,119.79v-3.16a1.14,1.14,0,0,0-.67-1.28,0.36,0.36,0,0,1-.16-0.09s0.09-.06.24-0.06,1,0.06,1.5.06,1.25-.06,1.5-0.06,0.24,0,.24.06a0.36,0.36,0,0,1-.16.09,1.14,1.14,0,0,0-.67,1.28v6.94a1.43,1.43,0,0,0,.84,1.56,0.19,0.19,0,0,1,.14.13s-0.09,0-.25,0c-0.56,0-.75,0-1.64,0s-1.08,0-1.64,0c-0.16,0-.25,0-0.25,0a0.18,0.18,0,0,1,.14-0.13,1.44,1.44,0,0,0,.84-1.56v-3.39h-6v3.39a1.44,1.44,0,0,0,.84,1.56,0.18,0.18,0,0,1,.14.13s-0.09,0-.25,0c-0.56,0-.75,0-1.64,0s-1.08,0-1.64,0c-0.16,0-.25,0-0.25,0a0.18,0.18,0,0,1,.14-0.13,1.44,1.44,0,0,0,.84-1.56v-6.94a1.14,1.14,0,0,0-.67-1.28,0.36,0.36,0,0,1-.16-0.09s0.09-.06.23-0.06,1,0.06,1.5.06,1.25-.06,1.5-0.06,0.23,0,.23.06a0.35,0.35,0,0,1-.16.09,1.14,1.14,0,0,0-.67,1.28v3.16h6Z" transform="translate(0.04)"/><path class="cls-1" d="M260.74,103.7a10.85,10.85,0,0,1-1.88,6.23,8.27,8.27,0,0,1-9.08,3.18c-3.54-1-7.52-5.67-5.21-11a6.91,6.91,0,0,1,5.13-4,7.38,7.38,0,0,0-6,2.83,8.77,8.77,0,0,0,2.87,13.26,10.05,10.05,0,0,0,13.06-4.09A10.82,10.82,0,0,0,260.74,103.7Z" transform="translate(0.04)"/><path class="cls-1" d="M241,106.78a10.83,10.83,0,0,1,1.88-6.22,8.27,8.27,0,0,1,9.08-3.18c3.54,1,7.52,5.67,5.21,11a6.91,6.91,0,0,1-5.13,4,7.38,7.38,0,0,0,6-2.82,8.77,8.77,0,0,0-2.87-13.26,10.05,10.05,0,0,0-13.06,4.09A10.83,10.83,0,0,0,241,106.78Z" transform="translate(0.04)"/><path class="cls-1" d="M359.71,123.57a0.94,0.94,0,0,1,.28.68,1,1,0,0,1-.28.69,1,1,0,0,1-1.37,0,1,1,0,0,1-.28-0.69,0.94,0.94,0,0,1,.28-0.68A1,1,0,0,1,359.71,123.57Zm0.11-.11a1.13,1.13,0,1,0,.33.79A1.08,1.08,0,0,0,359.82,123.46Zm-0.63.74a0.56,0.56,0,0,1-.21,0h-0.2v-0.45H359a0.56,0.56,0,0,1,.26,0,0.18,0.18,0,0,1,.08.18A0.19,0.19,0,0,1,359.19,124.2Zm-0.62.67h0.22v-0.49H359a0.54,0.54,0,0,1,.24,0,0.31,0.31,0,0,1,.12.28v0.14h0.2a0.23,0.23,0,0,1,0-.07s0-.06,0-0.09v-0.09a0.33,0.33,0,0,0-.07-0.19,0.3,0.3,0,0,0-.21-0.12,0.44,0.44,0,0,0,.18-0.06,0.27,0.27,0,0,0,.12-0.24,0.31,0.31,0,0,0-.19-0.31,0.91,0.91,0,0,0-.34,0h-0.43v1.24Z" transform="translate(0.04)"/><rect class="cls-1" y="80.96" width="358.9" height="1.19"/><path class="cls-2" d="M24.34,49.67q-3.15.56-6.26,1.43V23.53L21.21,21l3.13,2.56V49.67Z" transform="translate(0.04)"/><path class="cls-2" d="M32.29,48.76c-2.11.12-4.19,0.33-6.26,0.64V23.53L29.16,21l3.13,2.56V48.76Z" transform="translate(0.04)"/><path class="cls-2" d="M40.24,48.75q-3.16-.16-6.26-0.07V23.53L37.11,21l3.13,2.56V48.75Z" transform="translate(0.04)"/><path class="cls-2" d="M81.66,55.82c2.11,0.12,4.19.15,6.26,0.08V23.53L84.79,21l-3.13,2.56V55.82Z" transform="translate(0.04)"/><path class="cls-2" d="M89.61,55.83q3.13-.19,6.25-0.69V23.53L92.74,21l-3.13,2.56v32.3Z" transform="translate(0.04)"/><path class="cls-2" d="M97.55,54.85c2.08-.39,4.16-0.9,6.26-1.51V23.53L100.68,21l-3.13,2.56V54.85Z" transform="translate(0.04)"/><path class="cls-2" d="M41.92,68.64c2.06,0.16,4.14.41,6.26,0.74V2.56L45.05,0,41.92,2.56V68.64Z" transform="translate(0.04)"/><path class="cls-2" d="M49.87,69.66q3.07,0.53,6.26,1.27V2.56L53,0,49.87,2.56v67.1Z" transform="translate(0.04)"/><path class="cls-2" d="M57.82,71.33q1.56,0.38,3.16.81t3.1,0.79V2.56L60.95,0,57.82,2.56V71.33Z" transform="translate(0.04)"/><path class="cls-2" d="M65.77,73.33Q69,74.07,72,74.6v-72L68.89,0,65.77,2.56V73.33Z" transform="translate(0.04)"/><path class="cls-2" d="M73.71,74.88c2.12,0.33,4.2.58,6.26,0.74V2.56L76.84,0,73.71,2.56V74.88Z" transform="translate(0.04)"/><path class="cls-3" d="M3,63a1.78,1.78,0,0,0,.83-0.21,70.34,70.34,0,0,1,24.38-8,102.51,102.51,0,0,1,12-.54V50.69c-3.33,0-6.8,0-10.35.35H29.67l-1.93.22c-1.63.19-3.27,0.44-4.91,0.79h0a76.45,76.45,0,0,0-20.7,7.59A1.79,1.79,0,0,0,3,63Z" transform="translate(0.04)"/><path class="cls-3" d="M29,62.57l-1.74.26c-1.55.24-3.15,0.54-4.79,0.94h0a86.52,86.52,0,0,0-20.4,7.88,1.79,1.79,0,1,0,1.67,3.17A81.8,81.8,0,0,1,23.3,67.25h0l0.37-.09q2.11-.48,4.22-0.81a80.24,80.24,0,0,1,12.32-.72V62a91.72,91.72,0,0,0-11,.52H29Z" transform="translate(0.04)"/><path class="cls-3" d="M86.66,61.52c1.17,0,2.33,0,3.5-.08h0.21l1.21-.1,0.43,0h0c9.24-.87,18.13-3.68,27.82-8.77a1.79,1.79,0,0,0-1.67-3.17c-9.33,4.9-17.85,7.58-26.68,8.39-2.39.21-4.77,0.19-7.29,0.17l-2.57,0v3.58l2.53,0Z" transform="translate(0.04)"/><path class="cls-3" d="M29.36,56.78L27.65,57c-1.6.2-3.21,0.47-4.83,0.82v0a80.65,80.65,0,0,0-20.74,7.8,1.79,1.79,0,1,0,1.67,3.17,73.43,73.43,0,0,1,24.32-8.26A95.84,95.84,0,0,1,40.22,60V56.37c-3.27,0-6.89,0-10.64.41H29.36Z" transform="translate(0.04)"/><path class="cls-3" d="M118.12,55.37c-10,5.23-19.16,7.86-29,8.27h0l-0.85,0c-1.13,0-2.27,0-3.45,0s-2.15,0-3.23,0v3.58c1.05,0,2.1,0,3.15,0s2.11,0,3.18,0h0.12l0.46,0h1.11v0c10.22-.48,19.8-3.23,30.14-8.66A1.79,1.79,0,0,0,118.12,55.37Z" transform="translate(0.04)"/><path class="cls-3" d="M118.08,61.37c-9.55,5-18.38,7.57-27.76,8-1.64.07-3.29,0-5-.05-1.19,0-2.42-.09-3.67-0.09v3.58c1.18,0,2.38,0,3.53.09S87.53,73,88.74,73L90,73h0.12l0.33,0h0.3c9.82-.52,19.06-3.2,29-8.43A1.79,1.79,0,0,0,118.08,61.37Z" transform="translate(0.04)"/></svg>