<?xml version="1.0" encoding="utf-8"?>
<!-- Generator: Adobe Illustrator 19.2.0, SVG Export Plug-In . SVG Version: 6.00 Build 0)  -->
<!DOCTYPE svg PUBLIC "-//W3C//DTD SVG 1.1//EN" "http://www.w3.org/Graphics/SVG/1.1/DTD/svg11.dtd">
<svg version="1.1" id="Layer_1" xmlns="http://www.w3.org/2000/svg" xmlns:xlink="http://www.w3.org/1999/xlink" x="0px" y="0px"
	 viewBox="0 0 600 234.6" enable-background="new 0 0 600 234.6" xml:space="preserve">
<g>
	<g>
		<g>
			<g>
				<polygon fill="#4A7628" points="46.7,1.3 46.7,0 132,0 132,1.3 46.7,1.3 				"/>
			</g>
		</g>
		<g>
			<g>
				<polygon fill="#4A7628" points="46.7,6.6 46.7,5.3 132,5.3 132,6.6 46.7,6.6 				"/>
			</g>
		</g>
		<g>
			<g>
				<polygon fill="#4A7628" points="46.7,11.8 46.7,10.6 132,10.6 132,11.8 46.7,11.8 				"/>
			</g>
		</g>
		<g>
			<g>
				<polygon fill="#4A7628" points="46.7,17.1 46.7,15.9 132,15.9 132,17.1 46.7,17.1 				"/>
			</g>
		</g>
		<g>
			<g>
				<polygon fill="#4A7628" points="46.7,22.4 46.7,21.1 132,21.1 132,22.4 46.7,22.4 				"/>
			</g>
		</g>
		<g>
			<g>
				<polygon fill="#4A7628" points="46.7,27.7 46.7,26.4 132,26.4 132,27.7 46.7,27.7 				"/>
			</g>
		</g>
		<g>
			<g>
				<polygon fill="#4A7628" points="46.7,33 46.7,31.7 132,31.7 132,33 46.7,33 				"/>
			</g>
		</g>
		<g>
			<g>
				<polygon fill="#4A7628" points="46.7,38.3 46.7,37 132,37 132,38.3 46.7,38.3 				"/>
			</g>
		</g>
		<g>
			<g>
				<polygon fill="#4A7628" points="76.9,43.5 76.9,42.3 132,42.3 132,43.5 76.9,43.5 				"/>
			</g>
		</g>
		<g>
			<g>
				<polygon fill="#4A7628" points="0,48.8 0,47.6 179.1,47.6 179.1,48.8 0,48.8 				"/>
			</g>
		</g>
		<g>
			<g>
				<polygon fill="#4A7628" points="71,54.1 71,52.8 179.1,52.8 179.1,54.1 71,54.1 				"/>
			</g>
		</g>
		<g>
			<g>
				<polygon fill="#4A7628" points="0,54.1 0,52.8 66.1,52.8 66.1,54.1 0,54.1 				"/>
			</g>
		</g>
		<g>
			<g>
				<polygon fill="#4A7628" points="0,59.4 0,58.1 179.1,58.1 179.1,59.4 0,59.4 				"/>
			</g>
		</g>
		<g>
			<g>
				<polygon fill="#4A7628" points="0,64.7 0,63.4 179.1,63.4 179.1,64.7 0,64.7 				"/>
			</g>
		</g>
		<g>
			<g>
				<polygon fill="#4A7628" points="0,70 0,68.7 179.1,68.7 179.1,70 0,70 				"/>
			</g>
		</g>
		<g>
			<g>
				<polygon fill="#4A7628" points="0,75.2 0,74 179.1,74 179.1,75.2 0,75.2 				"/>
			</g>
		</g>
		<g>
			<g>
				<polygon fill="#4A7628" points="1,80.5 1,79.3 179.1,79.3 179.1,80.5 1,80.5 				"/>
			</g>
		</g>
		<g>
			<g>
				<polygon fill="#4A7628" points="1,85.8 1,84.5 178.1,84.5 178.1,85.8 1,85.8 				"/>
			</g>
		</g>
		<g>
			<g>
				<polygon fill="#4A7628" points="1,91.1 1,89.8 178.1,89.8 178.1,91.1 1,91.1 				"/>
			</g>
		</g>
		<g>
			<g>
				<polygon fill="#4A7628" points="1,96.4 1,95.1 178.1,95.1 178.1,96.4 1,96.4 				"/>
			</g>
		</g>
		<g>
			<g>
				<polygon fill="#4A7628" points="0,101.7 0,100.4 178.1,100.4 178.1,101.7 0,101.7 				"/>
			</g>
		</g>
		<g>
			<g>
				<polygon fill="#4A7628" points="0,106.9 0,105.7 179.1,105.7 179.1,106.9 0,106.9 				"/>
			</g>
		</g>
		<g>
			<g>
				<polygon fill="#4A7628" points="0,112.2 0,111 179.1,111 179.1,112.2 0,112.2 				"/>
			</g>
		</g>
		<g>
			<g>
				<polygon fill="#4A7628" points="0,117.5 0,116.2 179.1,116.2 179.1,117.5 0,117.5 				"/>
			</g>
		</g>
		<g>
			<g>
				<polygon fill="#4A7628" points="0,122.8 0,121.5 179.1,121.5 179.1,122.8 0,122.8 				"/>
			</g>
		</g>
		<g>
			<g>
				<polygon fill="#4A7628" points="0,128.1 0,126.8 179.1,126.8 179.1,128.1 0,128.1 				"/>
			</g>
		</g>
		<g>
			<g>
				<polygon fill="#4A7628" points="0,133.4 0,132.1 179.1,132.1 179.1,133.4 0,133.4 				"/>
			</g>
		</g>
		<g>
			<g>
				<polygon fill="#4A7628" points="46.7,138.6 46.7,137.4 108,137.4 108,138.6 46.7,138.6 				"/>
			</g>
		</g>
		<g>
			<g>
				<polygon fill="#4A7628" points="46.7,143.9 46.7,142.7 132,142.7 132,143.9 46.7,143.9 				"/>
			</g>
		</g>
		<g>
			<g>
				<polygon fill="#4A7628" points="46.7,149.2 46.7,147.9 132,147.9 132,149.2 46.7,149.2 				"/>
			</g>
		</g>
		<g>
			<g>
				<polygon fill="#4A7628" points="46.7,154.5 46.7,153.2 132,153.2 132,154.5 46.7,154.5 				"/>
			</g>
		</g>
		<g>
			<g>
				<polygon fill="#4A7628" points="46.7,159.8 46.7,158.5 132,158.5 132,159.8 46.7,159.8 				"/>
			</g>
		</g>
		<g>
			<g>
				<polygon fill="#4A7628" points="46.7,165.1 46.7,163.8 132,163.8 132,165.1 46.7,165.1 				"/>
			</g>
		</g>
		<g>
			<g>
				<polygon fill="#4A7628" points="46.7,170.3 46.7,169.1 132,169.1 132,170.3 46.7,170.3 				"/>
			</g>
		</g>
		<g>
			<g>
				<polygon fill="#4A7628" points="46.7,175.6 46.7,174.4 132,174.4 132,175.6 46.7,175.6 				"/>
			</g>
		</g>
		<g>
			<g>
				<polygon fill="#4A7628" points="46.7,180.9 46.7,179.6 132,179.6 132,180.9 46.7,180.9 				"/>
			</g>
		</g>
	</g>
	<g>
		<g>
			<path fill="#4A7628" d="M0,76c25.4-8.8,46.4,3.2,66.6,26.4c14.6,16.8,40.6,37.9,68.2,35.1C96.6,168.9,68.3,158,41.4,127
				C31.6,115.8,16.9,102.8,0,96.1V76z"/>
		</g>
	</g>
	<g>
		<g>
			<path fill="#99DAEA" d="M179.1,104.6c-25.6,9.2-46.8-2.8-67.1-26.2C97.4,61.6,71.4,40.5,43.8,43.3c38.2-31.5,66.5-20.5,93.4,10.4
				c9.8,11.3,24.7,24.4,41.8,31L179.1,104.6z"/>
		</g>
	</g>
	<g>
		<g>
			<circle fill="#FEE050" cx="93.2" cy="70.6" r="31.1"/>
		</g>
	</g>
	<g>
		<g>
			<path fill="#87A36E" d="M6.6,67.5c16.4-3.1,38.1-0.9,70.1,36.2c19.9,23,63.9,44.4,95.4,9.4c-16.4,3.1-38.1,0.9-70.1-36.2
				C82.1,53.9,38.1,32.6,6.6,67.5z"/>
		</g>
	</g>
	<g>
		<g>
			<path fill="#4A7628" d="M210,87.6c0,9.6,3.6,10.3,11.8,10.3h5.1c8,0,19.3-4.3,25.1-11.1c1.1-1.2,1.5-2.3,2-2.3
				c0.3,0,0.6,0.2,0.6,0.7c0,0.4-0.3,0.9-0.4,1.3l-3.9,13.8H194c-1.6,0-2.1-0.2-2.1-0.5c0-0.2,0.7-0.3,2.3-0.9
				c3.7-1.6,4.7-5.2,4.7-13.7V47.6c0-3.9-1.5-6.8-4.1-7.6c-0.7-0.3-1-0.5-1-0.8c0-0.3,0.6-0.4,1.4-0.4c1.5,0,6.1,0.4,9.2,0.4
				c3.1,0,7.6-0.4,9.2-0.4c0.9,0,1.1,0.1,1.1,0.5c0,0.3-0.5,0.4-0.9,0.6c-2.9,1.2-3.9,3.8-3.9,7.7V87.6z"/>
		</g>
	</g>
	<g>
		<g>
			<path fill="#4A7628" d="M268.1,71.9h15c5.9,0,11.1-2.8,12.3-6.1c0.2-0.5,0.4-0.7,0.6-0.7c0.2,0,0.3,0.4,0.3,1.2v13.4
				c0,1.4-0.1,1.7-0.3,1.7c-0.3,0-0.4-0.6-0.6-1.1c-2.4-6-9-6.3-14.7-6.3h-12.6v17.1c0,5.9,2,7.2,7.5,7.2h9.2
				c6.8,0,15.9-3.8,21.2-8.8c1-0.9,2-1.7,2.2-1.7c0.2,0,0.2,0.1,0.2,0.2c0,0.2-0.1,0.3-0.2,0.6l-3.6,11.7h-49.4
				c-1.9,0-2.4-0.1-2.4-0.3c0-0.2,1.7-0.7,2.3-1.2c3-2.4,3.6-4.6,3.6-12V59.2c0-5.3-0.3-8.8-3.6-9.6c-0.6-0.2-1.4-0.5-1.4-0.7
				c0-0.3,0.3-0.5,1.5-0.5h45.9l2.2,7.6c0.2,0.8,0.7,2,0.7,3c0,0.3-0.2,0.6-0.4,0.6c-0.3,0-0.7-0.3-1-0.7c-3.4-5.6-12-8.5-19.6-8.5
				h-14.9V71.9z"/>
		</g>
	</g>
	<g>
		<g>
			<path fill="#4A7628" d="M371.4,93.6c-8,6.5-18.6,8.7-28.9,8.7c-18.7,0-36.1-10.5-36.1-32.5c0-19.7,17.4-32.5,36.1-32.5
				c8.8,0,19.6,2.3,27.4,7.3l-3,9c-0.4,1.1-1.1,3.2-1.3,3.2c-0.3,0-0.8-1.4-1.1-2.5c-2-8.3-7.9-14.3-22.1-14.6
				c-17.4,0-23.3,15.9-23.3,30.1s6.7,30.1,27.1,30.1c9.4,0,16.4-5.1,20.6-14.7c0.5-1.1,0.6-2,1-2c0.4,0,0.5,0.3,0.9,1.7L371.4,93.6z
				"/>
		</g>
	</g>
	<g>
		<g>
			<path fill="#4A7628" d="M400.9,102c-15.9,0-30.7-10.9-30.7-27.6s14.8-27.6,30.7-27.6c15.9,0,30.7,10.9,30.7,27.6
				S416.8,102,400.9,102z M400.9,48.8c-14.8,0-19.8,13.5-19.8,25.6c0,12.1,5,25.6,19.8,25.6s19.8-13.5,19.8-25.6
				C420.7,62.3,415.7,48.8,400.9,48.8z"/>
		</g>
	</g>
	<g>
		<g>
			<path fill="#4A7628" d="M436.7,85.9c0,5.6,0.9,11.2,6.2,13.6c0.5,0.2,1,0.3,1,0.5c0,0.2-0.4,0.3-1.8,0.3h-13.6
				c-0.5,0-0.7-0.1-0.7-0.2c0-0.2,0.2-0.3,0.6-0.3c5.4-2.6,6.4-8.6,6.4-14V63.2c0-10.5-1.5-12.4-3.9-13.5c-0.9-0.4-1.5-0.6-1.5-0.9
				c0-0.2,0.3-0.4,1.2-0.4H444l35.7,36.4V65.4c0-7.5-0.8-14-6.3-16.3c-0.5-0.2-0.6-0.4-0.6-0.6c0-0.3,0.4-0.4,1.1-0.4h13.3
				c0.4,0,0.8,0.1,0.8,0.3c0,0.2-0.6,0.6-1.4,1.1c-4,1.9-4.8,7.8-4.8,13.4v38.1c0,0.6-0.2,1.2-0.4,1.2h-0.2c-0.5,0-1.1-0.8-1.7-1.5
				L436.7,54V85.9z"/>
		</g>
	</g>
	<g>
		<g>
			<path fill="#4A7628" d="M511.2,54.2c0-3.2-1.4-3.7-5-3.7c-8,0-13.5,4.5-17.1,8c-0.6,0.6-1.3,1.4-1.5,1.4c-0.2,0-0.4-0.2-0.4-0.5
				c0-0.3,0.3-1.1,0.6-1.9l2.6-9.1h51.1l2.6,9.1c0.2,0.8,0.6,1.5,0.6,1.9c0,0.2-0.2,0.5-0.4,0.5c-0.2,0-0.9-0.8-1.5-1.4
				c-3.7-3.5-9.1-8-17.1-8c-3.7,0-5,0.6-5,3.7v37.4c0,4,1.1,7.1,4.9,7.9c0.7,0.1,1.2,0.4,1.2,0.6c0,0.2-0.3,0.5-0.7,0.5
				c-0.6,0-5.5-0.2-10.1-0.2c-4.6,0-9.4,0.2-10,0.2c-0.5,0-0.7-0.2-0.7-0.4c0-0.3,0.7-0.3,1.5-0.7c3.7-1.6,4.5-4,4.5-11.5V54.2z"/>
		</g>
	</g>
	<g>
		<g>
			<path fill="#4A7628" d="M558.8,71.9h15c5.9,0,11.1-2.8,12.3-6.1c0.2-0.5,0.4-0.7,0.6-0.7c0.2,0,0.3,0.4,0.3,1.2v13.4
				c0,1.4-0.1,1.7-0.3,1.7c-0.3,0-0.4-0.6-0.6-1.1c-2.4-6-9-6.3-14.7-6.3h-12.6v17.1c0,5.9,2,7.2,7.5,7.2h9.2
				c6.8,0,15.9-3.8,21.2-8.8c1-0.9,2-1.7,2.2-1.7c0.2,0,0.2,0.1,0.2,0.2c0,0.2-0.1,0.3-0.2,0.6l-3.6,11.7H546
				c-1.9,0-2.4-0.1-2.4-0.3c0-0.2,1.7-0.7,2.3-1.2c3-2.4,3.6-4.6,3.6-12V59.2c0-5.3-0.3-8.8-3.6-9.6c-0.6-0.2-1.4-0.5-1.4-0.7
				c0-0.3,0.3-0.5,1.5-0.5h45.9L594,56c0.2,0.8,0.7,2,0.7,3c0,0.3-0.2,0.6-0.4,0.6c-0.3,0-0.7-0.3-1-0.7c-3.4-5.6-12-8.5-19.6-8.5
				h-14.9V71.9z"/>
		</g>
	</g>
	<g>
		<g>
			<polygon fill="#4A7628" points="195.5,142.3 195.5,141.1 595.5,141.1 595.5,142.3 195.5,142.3 			"/>
		</g>
	</g>
	<g>
		<g>
			<g>
				<path fill="#4A7628" d="M215.5,133.1h-3.1V113l-6.1,13.7h-1.9l-6-13.7v20.1h-2.9v-23.4h4.2l5.8,13l5.6-13h4.3V133.1z"/>
			</g>
		</g>
		<g>
			<g>
				<path fill="#4A7628" d="M231.4,133.1v-23.4h14.6v2.8h-11.5v6.4h10.7v2.8h-10.7v8.7h11.5v2.8H231.4z"/>
			</g>
		</g>
		<g>
			<g>
				<path fill="#4A7628" d="M279.1,121.5c0,2.1-0.4,4.1-1.3,5.8c-0.9,1.7-2,3.1-3.5,4c-1.2,0.7-2.4,1.2-3.6,1.5
					c-1.2,0.3-2.8,0.4-4.7,0.4h-5.4v-23.4h5.3c2.2,0,3.9,0.2,5.2,0.5c1.2,0.3,2.3,0.8,3.2,1.4c1.5,1,2.7,2.3,3.5,4
					C278.7,117.2,279.1,119.2,279.1,121.5z M275.9,121.4c0-1.8-0.3-3.3-0.9-4.6c-0.6-1.3-1.5-2.3-2.7-3c-0.8-0.5-1.7-0.9-2.7-1.1
					c-0.9-0.2-2.1-0.3-3.5-0.3h-2.4v18h2.4c1.4,0,2.6-0.1,3.6-0.3c1-0.2,2-0.6,2.8-1.2c1.1-0.7,1.9-1.7,2.4-2.9
					C275.6,124.8,275.9,123.3,275.9,121.4z"/>
			</g>
		</g>
		<g>
			<g>
				<path fill="#4A7628" d="M301.8,133.1h-9.1v-2.4h3v-18.6h-3v-2.4h9.1v2.4h-3v18.6h3V133.1z"/>
			</g>
		</g>
		<g>
			<g>
				<path fill="#4A7628" d="M325.9,133.6c-1.5,0-2.9-0.3-4.2-0.8c-1.3-0.5-2.4-1.3-3.3-2.3c-0.9-1-1.7-2.3-2.2-3.8
					c-0.5-1.5-0.8-3.3-0.8-5.2c0-2,0.2-3.7,0.7-5.1c0.5-1.5,1.2-2.7,2.2-3.8c0.9-1,2-1.8,3.3-2.4c1.3-0.5,2.7-0.8,4.3-0.8
					c0.8,0,1.5,0.1,2.2,0.2c0.7,0.1,1.3,0.3,1.9,0.4c0.5,0.2,1,0.4,1.5,0.6c0.5,0.2,1,0.5,1.6,0.8v3.8H333c-0.3-0.3-0.6-0.6-1.1-0.9
					c-0.4-0.4-1-0.7-1.6-1.1c-0.6-0.3-1.2-0.6-1.9-0.8c-0.7-0.2-1.5-0.3-2.4-0.3c-1,0-1.9,0.2-2.8,0.6c-0.9,0.4-1.7,1-2.3,1.8
					c-0.7,0.8-1.2,1.8-1.5,3c-0.4,1.2-0.5,2.6-0.5,4.1c0,1.6,0.2,3,0.6,4.1c0.4,1.2,0.9,2.1,1.6,2.9c0.6,0.8,1.4,1.4,2.3,1.7
					c0.9,0.4,1.8,0.6,2.8,0.6c0.9,0,1.7-0.1,2.5-0.3c0.8-0.2,1.4-0.5,2-0.8c0.6-0.3,1.1-0.7,1.5-1c0.4-0.3,0.7-0.6,1-0.9h0.2v3.7
					c-0.5,0.2-1,0.5-1.5,0.7c-0.5,0.2-1,0.4-1.7,0.6c-0.7,0.2-1.3,0.4-1.9,0.5C327.6,133.5,326.9,133.6,325.9,133.6z"/>
			</g>
		</g>
		<g>
			<g>
				<path fill="#4A7628" d="M344.8,133.1l7.9-23.4h3.8l7.9,23.4h-3.3l-2.1-6.5H350l-2.1,6.5H344.8z M358.1,124l-3.6-11l-3.6,11
					H358.1z"/>
			</g>
		</g>
		<g>
			<g>
				<path fill="#4A7628" d="M391.3,133.1h-13.5v-23.4h3.1v20.6h10.4V133.1z"/>
			</g>
		</g>
		<g>
			<g>
				<path fill="#4A7628" d="M435.3,133.6c-1.5,0-2.9-0.3-4.2-0.8c-1.3-0.5-2.4-1.3-3.3-2.3c-0.9-1-1.7-2.3-2.2-3.8
					c-0.5-1.5-0.8-3.3-0.8-5.2c0-2,0.2-3.7,0.7-5.1c0.5-1.5,1.2-2.7,2.2-3.8c0.9-1,2-1.8,3.3-2.4c1.3-0.5,2.7-0.8,4.3-0.8
					c0.8,0,1.5,0.1,2.2,0.2c0.7,0.1,1.3,0.3,1.9,0.4c0.5,0.2,1,0.4,1.5,0.6c0.5,0.2,1,0.5,1.6,0.8v3.8h-0.3c-0.3-0.3-0.6-0.6-1-0.9
					c-0.4-0.4-1-0.7-1.6-1.1c-0.6-0.3-1.2-0.6-1.9-0.8c-0.7-0.2-1.5-0.3-2.4-0.3c-1,0-1.9,0.2-2.8,0.6c-0.9,0.4-1.7,1-2.3,1.8
					c-0.7,0.8-1.2,1.8-1.5,3c-0.4,1.2-0.5,2.6-0.5,4.1c0,1.6,0.2,3,0.6,4.1c0.4,1.2,0.9,2.1,1.6,2.9c0.6,0.8,1.4,1.4,2.3,1.7
					c0.9,0.4,1.8,0.6,2.8,0.6c0.9,0,1.7-0.1,2.5-0.3c0.8-0.2,1.4-0.5,2-0.8c0.6-0.3,1.1-0.7,1.5-1c0.4-0.3,0.7-0.6,1-0.9h0.2v3.7
					c-0.5,0.2-1,0.5-1.5,0.7c-0.5,0.2-1,0.4-1.7,0.6c-0.7,0.2-1.3,0.4-1.9,0.5C437,133.5,436.2,133.6,435.3,133.6z"/>
			</g>
		</g>
		<g>
			<g>
				<path fill="#4A7628" d="M456.7,133.1v-23.4h14.6v2.8h-11.5v6.4h10.7v2.8h-10.7v8.7h11.5v2.8H456.7z"/>
			</g>
		</g>
		<g>
			<g>
				<path fill="#4A7628" d="M502.6,133.1h-3.5L488.8,113v20.1h-2.9v-23.4h4.4l9.4,18.5v-18.5h2.9V133.1z"/>
			</g>
		</g>
		<g>
			<g>
				<path fill="#4A7628" d="M524,133.1v-20.6h-7.8v-2.8h18.8v2.8h-7.8v20.6H524z"/>
			</g>
		</g>
		<g>
			<g>
				<path fill="#4A7628" d="M548.5,133.1v-23.4h14.6v2.8h-11.5v6.4h10.7v2.8h-10.7v8.7h11.5v2.8H548.5z"/>
			</g>
		</g>
		<g>
			<g>
				<path fill="#4A7628" d="M595.8,133.1h-4l-7.4-9.3h-3.6v9.3h-3.1v-23.4h6c1.3,0,2.5,0.1,3.4,0.2c0.9,0.1,1.8,0.5,2.6,1
					c0.8,0.5,1.5,1.2,1.9,2c0.5,0.8,0.7,1.9,0.7,3.1c0,1.7-0.4,3.1-1.3,4.3c-0.9,1.2-2.1,2-3.5,2.6L595.8,133.1z M589.1,116.4
					c0-0.7-0.1-1.3-0.4-1.8c-0.2-0.5-0.6-1-1.1-1.3c-0.4-0.3-1-0.5-1.5-0.6c-0.6-0.1-1.3-0.2-2.2-0.2h-3.1v8.8h2.7
					c0.9,0,1.7-0.1,2.4-0.2c0.7-0.2,1.3-0.5,1.8-1c0.5-0.4,0.8-1,1-1.6C589,117.9,589.1,117.2,589.1,116.4z"/>
			</g>
		</g>
	</g>
	<path fill="#4A7628" d="M327.8,202.3c-7.5,6-17.3,8.1-26.8,8.1c-17.4,0-33.5-9.8-33.5-30.2c0-18.3,16.2-30.2,33.5-30.2
		c8.2,0,18.2,2.1,25.5,6.7l-2.8,8.3c-0.4,1.1-1,3-1.2,3c-0.3,0-0.7-1.3-1-2.3c-1.9-7.7-7.4-13.9-20.5-14.2
		c-16.2,0-23.4,15.3-23.4,28.6c0,13.2,8,28.6,27,28.6c8.7,0,15.3-5.3,19.2-14.3c0.4-1.1,0.5-1.9,1-1.9c0.4,0,0.4,0.3,0.8,1.6
		L327.8,202.3z"/>
	<path fill="#4A7628" d="M392.9,199.6l9.4-18.3c1.3-2.9,2.5-5.6,2.5-7.7c0-2.5-1.6-3.4-3.4-4c-0.4-0.1-0.7-0.2-0.7-0.4
		s0.3-0.3,0.7-0.3c1.9,0,2.6,0.3,5.6,0.3c2.9,0,3.5-0.3,5.4-0.3c0.5,0,1,0,1,0.2c0,0.3-0.2,0.6-0.7,0.9c-2.4,1.7-5,5.6-7.5,10.1
		L391,207.4c-0.2,0.4-0.7,1-0.9,1H390c-0.2,0-0.3-0.4-0.7-1.1l-12.8-25c-2.8-5.6-5.1-10.3-8.2-12.4c-0.6-0.4-0.9-0.5-0.9-0.7
		c0-0.3,0.4-0.3,1-0.3c1.2,0,3,0.3,6.5,0.3c3.4,0,6-0.3,6.6-0.3c0.4,0,1,0.1,1,0.3s-0.3,0.4-0.7,0.6c-1.2,0.3-2.1,1.2-2.1,2.8
		c0,1.5,1.2,3.6,1.8,5L392.9,199.6z"/>
	<path fill="#4A7628" d="M416.5,183.2c-0.1,1.7-0.2,3.2-0.2,4.8c0,13.6,7,18.7,14.2,18.7c8.4,0,14.7-5.8,17.2-14.4h1.5
		c-2.3,10.1-9.7,16.2-19.7,16.2c-12.5,0-21.7-8.4-21.7-20.2c0-11.7,9.2-20.2,21.7-20.2c8,0,17.7,4.8,18.7,15H416.5z M438.9,181.8
		c0-7.2-3.4-12.3-11.1-12.3c-6.7,0-10.3,5.9-11.1,12.3H438.9z"/>
	<path fill="#4A7628" d="M458.5,179.5h0.1c1.7-6.2,5.3-11.4,15-11.4c8.1,0,15.6,4.2,15.6,15.8v14.2c-0.1,7,0.8,8,2.9,8.7
		c0.5,0.1,1,0.4,1,0.5c0,0.2-0.4,0.2-1.1,0.2c-0.7,0-2.6-0.2-6.6-0.2c-4,0-6.6,0.2-7.6,0.2c-0.4,0-0.8,0-0.8-0.2
		c0-0.1,0.1-0.4,0.7-0.4c2.6-0.3,4-2.3,4-8.8v-14.2c0-6.7-3-13.9-10.8-13.9c-8.7,0-11.6,9-11.6,19.2v8.9c0,4.6,0.2,8.1,3.5,8.7
		c0.5,0.1,0.8,0.2,0.8,0.4c0,0.3-0.2,0.4-0.7,0.4c-0.5,0-3.5-0.2-7.5-0.2c-4,0-7.3,0.2-7.8,0.2c-0.4,0-0.7-0.1-0.7-0.4
		c0-0.2,0.3-0.4,0.8-0.4c3.7-0.6,4-4,4-8.7v-18.2c0-4.4-0.5-6.9-2.6-7.8c-0.8-0.4-1.3-0.6-1.3-0.7c0-0.2,0.5-0.2,1.4-0.4
		c3.5-0.7,6.5-1.2,9.2-2.1V179.5z"/>
	<path fill="#4A7628" d="M528.8,201c0,2.4,0.4,4.6,2.6,5.7c0.4,0.2,0.7,0.2,0.7,0.4c0,0.2-0.4,0.3-1,0.3h-7.9
		c-1-2.3-1.6-4.9-1.8-7.5h-0.1c-2.9,5.9-7.1,8.6-13.6,8.6c-7.6,0-15.5-3.5-15.5-12.3c0-11.1,17-12.2,24.7-12.2h4.2v-2.4
		c0-7-3.3-12-10.7-12c-6.8,0-10.7,2-13.4,8.4c-0.3,0.7-0.4,1.2-0.6,1.2c-0.1,0-0.2-0.4-0.4-0.8l-1.9-6.6c6-3.2,10.8-3.7,17.3-3.7
		c8.4,0,17.2,3,17.2,12.3V201z M521.2,185.4h-4.3c-7.9,0-16.1,2.3-16.1,12c0,5.4,3.9,9.2,9.1,9.2c8.7,0,11.3-9.1,11.3-16.1V185.4z"
		/>
	<path fill="#4A7628" d="M542.8,179.5h0.1c1.7-6.2,5.3-11.4,15-11.4c8.1,0,15.6,4.2,15.6,15.8v14.2c-0.1,7,0.8,8,2.9,8.7
		c0.5,0.1,1,0.4,1,0.5c0,0.2-0.4,0.2-1.1,0.2c-0.7,0-2.6-0.2-6.6-0.2c-4,0-6.6,0.2-7.6,0.2c-0.4,0-0.8,0-0.8-0.2
		c0-0.1,0.1-0.4,0.7-0.4c2.6-0.3,4-2.3,4-8.8v-14.2c0-6.7-3-13.9-10.8-13.9c-8.7,0-11.6,9-11.6,19.2v8.9c0,4.6,0.2,8.1,3.5,8.7
		c0.5,0.1,0.8,0.2,0.8,0.4c0,0.3-0.2,0.4-0.7,0.4c-0.5,0-3.5-0.2-7.5-0.2c-4,0-7.3,0.2-7.9,0.2c-0.4,0-0.7-0.1-0.7-0.4
		c0-0.2,0.3-0.4,0.8-0.4c3.7-0.6,4-4,4-8.7v-18.2c0-4.4-0.5-6.9-2.6-7.8c-0.8-0.4-1.3-0.6-1.3-0.7c0-0.2,0.5-0.2,1.4-0.4
		c3.5-0.7,6.5-1.2,9.2-2.1V179.5z"/>
	<path fill="#4A7628" d="M575.3,173.4c-0.4,0-0.7-0.3-0.7-0.7c0-0.4,0.6-0.7,1.5-1c4.2-1.5,7.7-4.8,10.4-10.4
		c0.2-0.5,0.5-0.7,0.8-0.7c0.4,0,0.4,0.5,0.4,1v9.5h8.1l-0.5,2.4h-7.6v20.8c0,9.8,2.3,11.5,4.7,12.3c0.6,0.2,0.9,0.3,0.9,0.5
		c0,0.2-0.5,0.3-1.2,0.3h-8.9c-2.1-1-3.1-2.6-3.1-5.4v-28.6H575.3z"/>
	<path fill="#4A7628" d="M460.4,221.9v-7.2c0-1.5-0.4-2.6-1.5-2.9c-0.2-0.1-0.4-0.2-0.4-0.2c0-0.1,0.2-0.1,0.5-0.1
		c0.6,0,2.3,0.1,3.4,0.1c1.1,0,2.8-0.1,3.4-0.1c0.3,0,0.5,0,0.5,0.1c0,0-0.2,0.1-0.4,0.2c-1.1,0.3-1.5,1.5-1.5,2.9v15.8
		c0,1.7,0.3,2.8,1.9,3.6c0.2,0.1,0.3,0.2,0.3,0.3c0,0.1-0.2,0.1-0.6,0.1c-1.3,0-1.7-0.1-3.7-0.1c-2,0-2.5,0.1-3.7,0.1
		c-0.4,0-0.6,0-0.6-0.1c0-0.1,0.1-0.2,0.3-0.3c1.6-0.8,1.9-1.8,1.9-3.6v-7.7h-13.6v7.7c0,1.7,0.3,2.8,1.9,3.6
		c0.2,0.1,0.3,0.2,0.3,0.3c0,0.1-0.2,0.1-0.6,0.1c-1.3,0-1.7-0.1-3.7-0.1c-2,0-2.5,0.1-3.7,0.1c-0.4,0-0.6,0-0.6-0.1
		c0-0.1,0.1-0.2,0.3-0.3c1.6-0.8,1.9-1.8,1.9-3.6v-15.8c0-1.5-0.4-2.6-1.5-2.9c-0.2-0.1-0.4-0.2-0.4-0.2c0-0.1,0.2-0.1,0.5-0.1
		c0.6,0,2.3,0.1,3.4,0.1c1.1,0,2.9-0.1,3.4-0.1c0.3,0,0.5,0,0.5,0.1c0,0-0.2,0.1-0.4,0.2c-1.1,0.3-1.5,1.5-1.5,2.9v7.2H460.4z"/>
	<path fill="#4A7628" d="M475.3,221.9h6.6c2.6,0,4.9-1.2,5.4-2.7c0.1-0.2,0.2-0.3,0.3-0.3c0.1,0,0.1,0.2,0.1,0.5v5.9
		c0,0.6,0,0.7-0.1,0.7c-0.1,0-0.2-0.2-0.3-0.5c-1-2.6-4-2.8-6.4-2.8h-5.5v7.5c0,2.6,0.9,3.2,3.3,3.2h4c3,0,7-1.7,9.3-3.9
		c0.4-0.4,0.9-0.7,1-0.7c0.1,0,0.1,0,0.1,0.1c0,0.1,0,0.1-0.1,0.3l-1.6,5.1h-21.7c-0.8,0-1.1,0-1.1-0.1c0-0.1,0.7-0.3,1-0.5
		c1.3-1,1.6-2,1.6-5.3v-12.1c0-2.3-0.1-3.8-1.6-4.2c-0.2-0.1-0.6-0.2-0.6-0.3c0-0.1,0.1-0.2,0.7-0.2h20.1l1,3.3
		c0.1,0.4,0.3,0.9,0.3,1.3c0,0.1-0.1,0.3-0.2,0.3c-0.1,0-0.3-0.1-0.4-0.3c-1.5-2.5-5.3-3.7-8.6-3.7h-6.6V221.9z"/>
	<path fill="#4A7628" d="M502.1,224l-1.9,3.7c-0.6,1.2-1.2,2.6-1.2,4.1c0,1.5,1,1.9,1.9,2.3c0.3,0.1,0.4,0.1,0.4,0.2
		c0,0.1-0.2,0.2-0.4,0.2s-1.5-0.1-3.5-0.1c-1.4,0-2.4,0.1-2.8,0.1c-0.4,0-0.5-0.1-0.5-0.2c0-0.2,0.4-0.4,0.7-0.6
		c1.4-1.1,3.3-4.1,4.1-5.6l8.7-17c0.1-0.2,0.2-0.3,0.2-0.3h0.1c0.1,0,0.2,0.1,0.3,0.3l10.5,19.6c0.6,1.1,1.3,2.1,2.4,3
		c0.4,0.3,0.8,0.4,0.8,0.6c0,0.1-0.2,0.2-0.5,0.2c-0.2,0-1.9-0.1-4-0.1c-2.9,0-4.1,0.1-4.3,0.1c-0.2,0-0.4,0-0.4-0.1
		c0-0.1,0.2-0.2,0.5-0.3c0.8-0.3,1-1,1-1.8c0-0.6-0.7-2.4-1.6-4.1l-2-4.2H502.1z M506.3,215.7l-3.7,7.4h7.5L506.3,215.7z"/>
	<path fill="#4A7628" d="M529.6,229.6c0,3.6,1.3,3.8,4.4,3.8h1.9c3,0,7.2-1.6,9.4-4.1c0.4-0.5,0.6-0.9,0.7-0.9
		c0.1,0,0.2,0.1,0.2,0.2c0,0.1-0.1,0.3-0.1,0.5l-1.5,5.1h-20.9c-0.6,0-0.8-0.1-0.8-0.2c0-0.1,0.3-0.1,0.9-0.3
		c1.4-0.6,1.7-1.9,1.7-5.1v-14.1c0-1.5-0.6-2.5-1.5-2.8c-0.2-0.1-0.4-0.2-0.4-0.3c0-0.1,0.2-0.1,0.5-0.1c0.6,0,2.3,0.1,3.4,0.1
		c1.1,0,2.9-0.1,3.4-0.1c0.3,0,0.4,0,0.4,0.2c0,0.1-0.2,0.1-0.3,0.2c-1.1,0.5-1.5,1.4-1.5,2.9V229.6z"/>
	<path fill="#4A7628" d="M551.5,214.1c0-1.4-0.6-1.6-2.2-1.6c-3.5,0-5.9,2-7.5,3.5c-0.3,0.3-0.6,0.6-0.6,0.6c-0.1,0-0.2-0.1-0.2-0.2
		c0-0.1,0.1-0.5,0.2-0.8l1.1-4h22.4l1.1,4c0.1,0.4,0.2,0.7,0.2,0.8c0,0.1-0.1,0.2-0.2,0.2c-0.1,0-0.4-0.4-0.6-0.6
		c-1.6-1.5-4-3.5-7.5-3.5c-1.6,0-2.2,0.2-2.2,1.6v16.4c0,1.7,0.5,3.1,2.1,3.5c0.3,0,0.5,0.2,0.5,0.3c0,0.1-0.1,0.2-0.3,0.2
		c-0.3,0-2.4-0.1-4.5-0.1s-4.1,0.1-4.4,0.1c-0.2,0-0.3-0.1-0.3-0.2c0-0.1,0.3-0.1,0.7-0.3c1.6-0.7,2-1.7,2-5.1V214.1z"/>
	<path fill="#4A7628" d="M587.7,221.9v-7.2c0-1.5-0.4-2.6-1.5-2.9c-0.2-0.1-0.4-0.2-0.4-0.2c0-0.1,0.2-0.1,0.5-0.1
		c0.6,0,2.3,0.1,3.4,0.1c1.1,0,2.9-0.1,3.4-0.1c0.3,0,0.5,0,0.5,0.1c0,0-0.2,0.1-0.4,0.2c-1.1,0.3-1.5,1.5-1.5,2.9v15.8
		c0,1.7,0.3,2.8,1.9,3.6c0.2,0.1,0.3,0.2,0.3,0.3c0,0.1-0.2,0.1-0.6,0.1c-1.3,0-1.7-0.1-3.7-0.1c-2,0-2.5,0.1-3.7,0.1
		c-0.4,0-0.6,0-0.6-0.1c0-0.1,0.1-0.2,0.3-0.3c1.6-0.8,1.9-1.8,1.9-3.6v-7.7h-13.6v7.7c0,1.7,0.3,2.8,1.9,3.6
		c0.2,0.1,0.3,0.2,0.3,0.3c0,0.1-0.2,0.1-0.6,0.1c-1.3,0-1.7-0.1-3.7-0.1c-2,0-2.5,0.1-3.7,0.1c-0.4,0-0.6,0-0.6-0.1
		c0-0.1,0.1-0.2,0.3-0.3c1.6-0.8,1.9-1.8,1.9-3.6v-15.8c0-1.5-0.4-2.6-1.5-2.9c-0.2-0.1-0.4-0.2-0.4-0.2c0-0.1,0.2-0.1,0.5-0.1
		c0.6,0,2.3,0.1,3.4,0.1c1.1,0,2.8-0.1,3.4-0.1c0.3,0,0.5,0,0.5,0.1c0,0-0.2,0.1-0.4,0.2c-1.1,0.3-1.5,1.5-1.5,2.9v7.2H587.7z"/>
	<path fill="#4A7628" d="M373.4,185.2c-0.3,5.6-1.2,9.8-4.3,14.2c-5.5,7.8-14.3,9.1-20.7,7.2c-8.1-2.3-17.1-12.9-11.9-25
		c1.4-3.1,5.3-8.3,11.7-9.2c-4.7-0.2-9.8,1.8-13.7,6.4c-7.7,9.4-4.9,24.6,6.5,30.2c9.2,4.5,23.2,2.4,29.8-9.3
		C373.1,195.9,374.1,190.2,373.4,185.2z"/>
	<path fill="#4A7628" d="M328.3,192.2c0.3-5.6,1.2-9.8,4.3-14.2c5.5-7.8,14.3-9.1,20.7-7.3c8.1,2.3,17.1,12.9,11.9,25
		c-1.4,3.1-5.3,8.3-11.7,9.2c4.7,0.2,9.8-1.7,13.7-6.4c7.7-9.4,4.9-24.6-6.5-30.2c-9.2-4.5-23.2-2.4-29.8,9.3
		C328.6,181.6,327.6,187.3,328.3,192.2z"/>
	<path fill="#4A7628" d="M599,230.5c0.4,0.4,0.6,0.9,0.6,1.6c0,0.6-0.2,1.1-0.6,1.6c-0.4,0.4-1,0.7-1.6,0.7c-0.6,0-1.1-0.2-1.6-0.7
		c-0.4-0.4-0.6-1-0.6-1.6c0-0.6,0.2-1.1,0.6-1.6c0.4-0.4,0.9-0.7,1.6-0.7C598,229.8,598.6,230.1,599,230.5z M599.2,230.3
		c-0.5-0.5-1.1-0.7-1.8-0.7c-0.7,0-1.3,0.3-1.8,0.7c-0.5,0.5-0.8,1.1-0.8,1.8c0,0.7,0.2,1.3,0.7,1.8c0.5,0.5,1.1,0.8,1.8,0.8
		c0.7,0,1.3-0.3,1.8-0.8c0.5-0.5,0.8-1.1,0.8-1.8C600,231.4,599.7,230.8,599.2,230.3z M597.8,231.9c-0.1,0-0.3,0.1-0.5,0.1h-0.4v-1
		h0.4c0.3,0,0.5,0,0.6,0.1c0.1,0.1,0.2,0.2,0.2,0.4C598.1,231.7,598,231.9,597.8,231.9z M596.4,233.5h0.5v-1.1h0.4
		c0.3,0,0.4,0,0.6,0.1c0.2,0.1,0.3,0.3,0.3,0.6v0.2l0,0.1c0,0,0,0,0,0c0,0,0,0,0,0h0.5l0,0c0,0,0-0.1,0-0.1c0-0.1,0-0.1,0-0.2v-0.2
		c0-0.1-0.1-0.3-0.2-0.4c-0.1-0.2-0.3-0.2-0.5-0.3c0.2,0,0.3-0.1,0.4-0.1c0.2-0.1,0.3-0.3,0.3-0.6c0-0.4-0.1-0.6-0.4-0.7
		c-0.2-0.1-0.4-0.1-0.8-0.1h-1V233.5z"/>
</g>
</svg>
