<?xml version="1.0" encoding="utf-8"?>
<!-- Generator: Adobe Illustrator 19.2.0, SVG Export Plug-In . SVG Version: 6.00 Build 0)  -->
<!DOCTYPE svg PUBLIC "-//W3C//DTD SVG 1.1//EN" "http://www.w3.org/Graphics/SVG/1.1/DTD/svg11.dtd">
<svg version="1.1" id="Layer_1" xmlns="http://www.w3.org/2000/svg" xmlns:xlink="http://www.w3.org/1999/xlink" x="0px" y="0px"
	 viewBox="0 0 557.6 141.8" enable-background="new 0 0 557.6 141.8" xml:space="preserve">
<g>
	<path fill="#005A9C" d="M101.2,87.6c-12.5,10.1-29,13.5-44.9,13.5C27.1,101.2,0,84.8,0,50.6C0,19.9,27.1,0,56.2,0
		c13.7,0,30.5,3.6,42.7,11.3l-4.6,14c-0.6,1.8-1.6,5.1-2.1,5.1c-0.4,0-1.2-2.2-1.6-3.9C87.5,13.5,78.3,3.2,56.2,2.7
		c-27.1,0-39.3,25.7-39.3,47.9c0,22.2,13.4,47.9,45.3,47.9c14.6,0,25.6-8.9,32.1-23.9c0.7-1.8,0.9-3.1,1.6-3.1
		c0.6,0,0.7,0.4,1.3,2.7L101.2,87.6z"/>
	<path fill="#005A9C" d="M210.5,83.1l15.7-30.6c2.2-4.8,4.2-9.3,4.2-12.9c0-4.2-2.7-5.7-5.7-6.6c-0.6-0.1-1.1-0.4-1.1-0.7
		c0-0.4,0.5-0.5,1.2-0.5c3.2,0,4.3,0.5,9.3,0.5c4.8,0,5.9-0.5,9.1-0.5c0.9,0,1.6,0,1.6,0.4c0,0.5-0.4,1-1.1,1.5
		c-4.1,2.8-8.4,9.3-12.5,16.9l-24,45.9c-0.4,0.7-1.1,1.7-1.5,1.7h-0.2c-0.4,0-0.5-0.6-1.2-1.8l-21.5-41.9
		c-4.7-9.3-8.6-17.3-13.8-20.8c-1-0.6-1.5-0.9-1.5-1.2c0-0.5,0.7-0.5,1.6-0.5c2,0,5,0.5,10.9,0.5c5.7,0,10.1-0.5,11.1-0.5
		c0.6,0,1.6,0.1,1.6,0.5c0,0.4-0.5,0.7-1.1,1c-2,0.5-3.4,2-3.4,4.7c0,2.5,2,6,3.1,8.4L210.5,83.1z"/>
	<path fill="#005A9C" d="M249.9,55.5c-0.2,2.8-0.4,5.4-0.4,8c0,22.9,11.8,31.4,23.7,31.4c14.1,0,24.6-9.7,28.8-24.1h2.6
		c-3.9,17-16.2,27.2-33,27.2c-20.9,0-36.4-14.1-36.4-33.8c0-19.7,15.5-33.8,36.4-33.8c13.4,0,29.6,8.1,31.4,25.2H249.9z M287.6,53.2
		c0-12.1-5.8-20.5-18.6-20.5c-11.2,0-17.2,10-18.6,20.5H287.6z"/>
	<path fill="#005A9C" d="M320.4,49.4h0.2c2.8-10.5,8.9-19.1,25.1-19.1c13.5,0,26.2,7,26.2,26.6v23.7c-0.2,11.7,1.4,13.4,4.9,14.6
		c0.9,0.2,1.6,0.6,1.6,0.9c0,0.4-0.6,0.4-1.8,0.4c-1.1,0-4.3-0.4-11.1-0.4c-6.6,0-11.1,0.4-12.7,0.4c-0.7,0-1.4,0-1.4-0.4
		c0-0.2,0.2-0.6,1.1-0.7c4.4-0.5,6.6-3.8,6.6-14.8V56.8c0-11.3-5-23.4-18.1-23.4c-14.6,0-19.4,15-19.4,32.2v15
		c0,7.7,0.4,13.5,5.9,14.5c0.9,0.1,1.4,0.4,1.4,0.7c0,0.5-0.4,0.6-1.1,0.6c-0.9,0-5.9-0.4-12.5-0.4c-6.6,0-12.3,0.4-13.2,0.4
		c-0.7,0-1.1-0.1-1.1-0.6c0-0.4,0.5-0.6,1.4-0.7c6.2-1,6.6-6.8,6.6-14.5V50.1c0-7.4-0.9-11.6-4.3-13c-1.4-0.6-2.2-1-2.2-1.2
		c0-0.4,0.9-0.4,2.3-0.6c5.9-1.1,10.9-2,15.5-3.6V49.4z"/>
	<path fill="#005A9C" d="M438.2,85.4c0,4.1,0.6,7.7,4.4,9.5c0.7,0.4,1.2,0.4,1.2,0.7c0,0.4-0.7,0.5-1.6,0.5H429
		c-1.7-3.9-2.7-8.2-3-12.5h-0.2C421,93.5,413.8,98,403,98c-12.8,0-26-5.9-26-20.5c0-18.7,28.5-20.5,41.5-20.5h7v-4.1
		c0-11.8-5.5-20.2-18-20.2c-11.3,0-18,3.3-22.4,14.1c-0.5,1.1-0.7,2.1-1,2.1c-0.2,0-0.4-0.6-0.6-1.4l-3.2-11.1
		c10.1-5.3,18.1-6.2,29-6.2c14,0,28.8,5,28.8,20.5V85.4z M425.5,59.2h-7.3c-13.3,0-26.9,3.9-26.9,20.2c0,9,6.5,15.5,15.3,15.5
		c14.5,0,18.9-15.3,18.9-27.1V59.2z"/>
	<path fill="#005A9C" d="M461.7,49.4h0.2c2.8-10.5,8.9-19.1,25.1-19.1c13.5,0,26.2,7,26.2,26.6v23.7c-0.2,11.7,1.4,13.4,4.9,14.6
		c0.9,0.2,1.6,0.6,1.6,0.9c0,0.4-0.6,0.4-1.8,0.4c-1.1,0-4.3-0.4-11.1-0.4c-6.6,0-11.1,0.4-12.7,0.4c-0.7,0-1.4,0-1.4-0.4
		c0-0.2,0.2-0.6,1.1-0.7c4.4-0.5,6.6-3.8,6.6-14.8V56.8c0-11.3-5-23.4-18.1-23.4c-14.6,0-19.4,15-19.4,32.2v15
		c0,7.7,0.4,13.5,5.9,14.5c0.9,0.1,1.4,0.4,1.4,0.7c0,0.5-0.4,0.6-1.1,0.6c-0.9,0-5.9-0.4-12.5-0.4s-12.3,0.4-13.2,0.4
		c-0.7,0-1.1-0.1-1.1-0.6c0-0.4,0.5-0.6,1.4-0.7c6.1-1,6.6-6.8,6.6-14.5V50.1c0-7.4-0.9-11.6-4.3-13c-1.4-0.6-2.2-1-2.2-1.2
		c0-0.4,0.9-0.4,2.3-0.6c5.9-1.1,10.9-2,15.5-3.6V49.4z"/>
	<path fill="#005A9C" d="M516.1,39.2c-0.7,0-1.2-0.5-1.2-1.1c0-0.6,1-1.1,2.5-1.7c7-2.5,12.9-8.1,17.5-17.5c0.4-0.9,0.9-1.2,1.4-1.2
		c0.6,0,0.6,0.9,0.6,1.7v15.9h13.7l-0.9,3.9h-12.8v34.9c0,16.4,3.9,19.3,7.9,20.7c1,0.4,1.5,0.5,1.5,0.9c0,0.4-0.9,0.5-2,0.5h-14.9
		c-3.4-1.6-5.2-4.3-5.2-9v-48H516.1z"/>
	<path fill="#005A9C" d="M323.6,120.5v-12.1c0-2.4-0.7-4.4-2.6-4.9c-0.3-0.1-0.6-0.3-0.6-0.4c0-0.2,0.4-0.2,0.9-0.2
		c1,0,3.8,0.2,5.7,0.2c1.9,0,4.8-0.2,5.7-0.2c0.5,0,0.9,0.1,0.9,0.2c0,0.1-0.3,0.2-0.6,0.4c-1.9,0.5-2.6,2.4-2.6,4.9v26.5
		c0,2.9,0.5,4.7,3.2,6c0.4,0.2,0.5,0.3,0.5,0.5s-0.4,0.2-1,0.2c-2.1,0-2.9-0.2-6.3-0.2c-3.4,0-4.1,0.2-6.3,0.2c-0.6,0-1,0-1-0.2
		s0.2-0.3,0.5-0.5c2.7-1.3,3.2-3,3.2-6v-13h-22.7v13c0,2.9,0.5,4.7,3.2,6c0.4,0.2,0.5,0.3,0.5,0.5s-0.4,0.2-1,0.2
		c-2.1,0-2.9-0.2-6.3-0.2c-3.4,0-4.1,0.2-6.3,0.2c-0.6,0-1,0-1-0.2s0.2-0.3,0.5-0.5c2.7-1.3,3.2-3,3.2-6v-26.5
		c0-2.4-0.7-4.4-2.6-4.9c-0.3-0.1-0.6-0.3-0.6-0.4c0-0.2,0.4-0.2,0.9-0.2c1,0,3.8,0.2,5.7,0.2c1.9,0,4.8-0.2,5.7-0.2
		c0.5,0,0.9,0.1,0.9,0.2c0,0.1-0.3,0.2-0.6,0.4c-1.9,0.5-2.6,2.4-2.6,4.9v12.1H323.6z"/>
	<path fill="#005A9C" d="M348.5,120.5h11c4.4,0,8.2-2,9-4.5c0.1-0.4,0.3-0.5,0.5-0.5s0.2,0.3,0.2,0.9v9.9c0,1-0.1,1.3-0.2,1.3
		c-0.2,0-0.3-0.4-0.5-0.8c-1.7-4.4-6.6-4.7-10.8-4.7h-9.3v12.6c0,4.4,1.5,5.3,5.6,5.3h6.7c5,0,11.7-2.8,15.6-6.5
		c0.7-0.7,1.5-1.3,1.6-1.3c0.1,0,0.2,0.1,0.2,0.2c0,0.1-0.1,0.2-0.1,0.5l-2.6,8.6h-36.4c-1.4,0-1.8-0.1-1.8-0.2s1.3-0.5,1.7-0.9
		c2.2-1.7,2.6-3.4,2.6-8.8v-20.3c0-3.9-0.2-6.4-2.6-7c-0.4-0.2-1-0.4-1-0.5c0-0.2,0.2-0.4,1.1-0.4h33.7l1.6,5.6
		c0.2,0.6,0.5,1.5,0.5,2.2c0,0.2-0.1,0.5-0.3,0.5c-0.2,0-0.5-0.2-0.7-0.5c-2.5-4.1-8.8-6.3-14.4-6.3h-11V120.5z"/>
	<path fill="#005A9C" d="M393.5,123.9l-3.2,6.3c-1.1,2.1-2.1,4.4-2.1,6.8c0,2.6,1.6,3.2,3.2,3.8c0.5,0.1,0.7,0.2,0.7,0.4
		c0,0.2-0.3,0.3-0.7,0.3c-0.4,0-2.6-0.2-5.9-0.2c-2.4,0-3.9,0.2-4.7,0.2c-0.6,0-0.8-0.1-0.8-0.3c0-0.4,0.7-0.7,1.1-1
		c2.4-1.9,5.6-6.9,6.9-9.4l14.6-28.4c0.2-0.3,0.3-0.5,0.4-0.5h0.1c0.2,0,0.4,0.2,0.5,0.5l17.6,32.8c1,1.9,2.2,3.6,4,5
		c0.7,0.5,1.4,0.7,1.4,1c0,0.2-0.3,0.3-0.8,0.3c-0.4,0-3.2-0.2-6.7-0.2c-4.9,0-6.9,0.2-7.2,0.2c-0.3,0-0.6-0.1-0.6-0.2
		c0-0.2,0.3-0.4,0.8-0.5c1.4-0.5,1.7-1.6,1.7-3.1c0-1.1-1.3-4-2.7-6.8l-3.4-7H393.5z M400.5,110l-6.3,12.4h12.7L400.5,110z"/>
	<path fill="#005A9C" d="M439.6,133.4c0,6,2.3,6.4,7.3,6.4h3.2c5,0,12.1-2.7,15.7-6.9c0.7-0.8,1-1.4,1.3-1.4c0.2,0,0.4,0.1,0.4,0.4
		c0,0.2-0.2,0.5-0.2,0.8l-2.4,8.6h-35.1c-1,0-1.3-0.1-1.3-0.3c0-0.1,0.4-0.2,1.4-0.5c2.3-1,2.9-3.2,2.9-8.5v-23.6
		c0-2.4-1-4.2-2.6-4.8c-0.4-0.2-0.6-0.3-0.6-0.5c0-0.2,0.4-0.2,0.9-0.2c1,0,3.8,0.2,5.7,0.2c1.9,0,4.8-0.2,5.7-0.2
		c0.5,0,0.7,0.1,0.7,0.3c0,0.2-0.3,0.2-0.5,0.4c-1.8,0.8-2.4,2.4-2.4,4.8V133.4z"/>
	<path fill="#005A9C" d="M476.3,107.4c0-2.3-1-2.7-3.7-2.7c-5.9,0-9.9,3.3-12.6,5.9c-0.4,0.4-1,1-1.1,1c-0.2,0-0.3-0.2-0.3-0.4
		c0-0.2,0.2-0.8,0.4-1.4l1.9-6.7h37.6l1.9,6.7c0.2,0.6,0.4,1.1,0.4,1.4c0,0.2-0.1,0.4-0.3,0.4c-0.1,0-0.7-0.6-1.1-1
		c-2.7-2.6-6.7-5.9-12.6-5.9c-2.7,0-3.7,0.4-3.7,2.7v27.5c0,2.9,0.8,5.3,3.6,5.8c0.5,0.1,0.9,0.3,0.9,0.5c0,0.1-0.2,0.4-0.5,0.4
		c-0.4,0-4.1-0.2-7.5-0.2c-3.4,0-6.9,0.2-7.3,0.2c-0.4,0-0.5-0.1-0.5-0.3c0-0.2,0.5-0.2,1.1-0.5c2.7-1.2,3.3-2.9,3.3-8.5V107.4z"/>
	<path fill="#005A9C" d="M537,120.5v-12.1c0-2.4-0.7-4.4-2.6-4.9c-0.3-0.1-0.6-0.3-0.6-0.4c0-0.2,0.4-0.2,0.9-0.2
		c1,0,3.8,0.2,5.7,0.2c1.9,0,4.8-0.2,5.7-0.2c0.5,0,0.9,0.1,0.9,0.2c0,0.1-0.3,0.2-0.6,0.4c-1.9,0.5-2.6,2.4-2.6,4.9v26.5
		c0,2.9,0.5,4.7,3.2,6c0.4,0.2,0.5,0.3,0.5,0.5s-0.4,0.2-1,0.2c-2.1,0-2.9-0.2-6.3-0.2c-3.4,0-4.1,0.2-6.3,0.2c-0.6,0-1,0-1-0.2
		s0.2-0.3,0.5-0.5c2.7-1.3,3.2-3,3.2-6v-13h-22.7v13c0,2.9,0.5,4.7,3.2,6c0.4,0.2,0.5,0.3,0.5,0.5s-0.4,0.2-1,0.2
		c-2.1,0-2.9-0.2-6.3-0.2c-3.4,0-4.1,0.2-6.3,0.2c-0.6,0-1,0-1-0.2s0.2-0.3,0.5-0.5c2.7-1.3,3.2-3,3.2-6v-26.5
		c0-2.4-0.7-4.4-2.6-4.9c-0.3-0.1-0.6-0.3-0.6-0.4c0-0.2,0.4-0.2,0.9-0.2c1,0,3.8,0.2,5.7,0.2c1.9,0,4.8-0.2,5.7-0.2
		c0.5,0,0.9,0.1,0.9,0.2c0,0.1-0.3,0.2-0.6,0.4c-1.9,0.5-2.6,2.4-2.6,4.9v12.1H537z"/>
	<path fill="#A90533" d="M177.7,59c-0.5,9.4-2,16.5-7.2,23.8c-9.2,13-24,15.2-34.7,12.2c-13.5-3.8-28.7-21.7-19.9-41.9
		c2.3-5.3,8.9-13.9,19.6-15.4c-7.9-0.3-16.5,2.9-22.9,10.8c-13,15.8-8.2,41.2,11,50.7c15.4,7.6,38.9,4,49.9-15.6
		C177.2,76.9,178.9,67.3,177.7,59z"/>
	<path fill="#005A9C" d="M102.1,70.8c0.5-9.4,2-16.5,7.2-23.8c9.2-13,24-15.2,34.7-12.2c13.5,3.8,28.7,21.7,19.9,41.9
		c-2.3,5.3-8.9,13.9-19.6,15.4c7.9,0.3,16.5-2.9,22.9-10.8c13-15.8,8.2-41.2-11-50.7c-15.4-7.6-38.9-4-49.9,15.6
		C102.6,52.9,101,62.5,102.1,70.8z"/>
	<path fill="#005A9C" d="M555.9,134.9c0.7,0.7,1.1,1.6,1.1,2.6c0,1-0.4,1.9-1.1,2.6c-0.7,0.7-1.6,1.1-2.6,1.1c-1,0-1.9-0.4-2.6-1.1
		c-0.7-0.7-1.1-1.6-1.1-2.6c0-1,0.4-1.9,1.1-2.6c0.7-0.7,1.6-1.1,2.6-1.1C554.3,133.8,555.2,134.2,555.9,134.9z M556.3,134.5
		c-0.8-0.8-1.9-1.3-3-1.3c-1.2,0-2.2,0.4-3,1.3c-0.8,0.8-1.3,1.9-1.3,3c0,1.2,0.4,2.2,1.2,3.1c0.8,0.8,1.8,1.3,3,1.3s2.2-0.4,3-1.3
		c0.8-0.8,1.3-1.9,1.3-3.1C557.6,136.3,557.2,135.3,556.3,134.5z M553.9,137.3c-0.2,0.1-0.4,0.1-0.8,0.1h-0.8v-1.7h0.7
		c0.5,0,0.8,0.1,1,0.2s0.3,0.3,0.3,0.7C554.4,136.9,554.2,137.2,553.9,137.3z M551.5,139.9h0.8V138h0.7c0.4,0,0.8,0.1,0.9,0.2
		c0.3,0.2,0.4,0.5,0.4,1.1v0.4l0,0.2c0,0,0,0,0,0.1c0,0,0,0,0,0h0.8l0-0.1c0,0,0-0.1,0-0.2c0-0.1,0-0.2,0-0.4v-0.3
		c0-0.2-0.1-0.5-0.3-0.7c-0.2-0.2-0.4-0.4-0.8-0.5c0.3,0,0.5-0.1,0.7-0.2c0.3-0.2,0.5-0.5,0.5-0.9c0-0.6-0.2-1-0.7-1.2
		c-0.3-0.1-0.7-0.2-1.3-0.2h-1.7V139.9z"/>
</g>
</svg>
