<svg id="Layer_1" data-name="Layer 1" xmlns="http://www.w3.org/2000/svg" viewBox="0 0 350.11 87.07"><defs><style>.cls-1{fill:#a71930;}</style></defs><title>caet</title><path class="cls-1" d="M97.36,20.93C96,10,86.78-1.67,74.66.2c-3.45.53-6.52,2.65-9.18,4.77C64.28,5.93,63.15,7,62,8s-1.08.19-2-.62c-0.7-.64-1.43-1.25-2.16-1.85-6-4.92-12.78-7.06-20.09-3.9C31.13,4.56,27.44,11,26.46,18c-0.92,6.6,1.28,12.81,4.73,18.31,6.33,10.09,14.87,18.4,23.94,26l-1.69-2.61H23.08c-1.27,0-1,.19-1.18,1.49L20.7,69.48,18.59,84.16l1.69,2.61-3.85-52C16.37,34,14.65,33,14.74,32.21l-3.3,30,1.69,2.61-0.92-6.19C12.12,58,10.34,56.51,10.52,56L9.38,59.29c-0.23.68-1,.38-1.71,0.38H-0.11c0.54,0,1.11,2.61,1.69,2.61H8.87c0.29,0,2,.19,2.11-0.1l1.24-3.59L10.52,56l0.92,6.19C11.56,63,13.22,64,13.13,64.78l3.3-30-1.69-2.61,3.85,52c0.06,0.81,1.8,1.85,1.69,2.61l2.11-14.68,1.19-8.32c0.19-1.3-.09-1.49,1.18-1.49H55.14c-0.42,0-1.29-2.27-1.69-2.61C45,52.58,35.21,44.39,30.34,34.32c-5.19-10.74-1.86-24.69,9.17-30,5.42-2.63,10.95-1.82,16.06,1.06a38.72,38.72,0,0,1,6.87,5.29q0.65,1.21,1.29,0c0.66-.63,1.34-1.24,2-1.85a41.29,41.29,0,0,1,3.71-2.93,16.06,16.06,0,0,1,15.68-2c6.52,2.48,9.71,7.68,10.55,14.41,0.12,0.94,1.58,1.7,1.69,2.61h0Z" transform="translate(0.11)"/><path class="cls-1" d="M96.67,30.07a28.79,28.79,0,0,0,.7-9.14c-0.08-.92-1.61-1.71-1.69-2.61a28.77,28.77,0,0,1-.7,9.14c-0.17.72,1.85,1.93,1.69,2.61h0Z" transform="translate(0.11)"/><path class="cls-1" d="M168.14,59.71H57.84c0.54,0,1.11,2.61,1.69,2.61h110.3c-0.54,0-1.11-2.61-1.69-2.61h0Z" transform="translate(0.11)"/><path class="cls-1" d="M154.19,62.47c-0.61,0-1.24-2.93-1.9-2.93,0.61,0,1.24,2.93,1.9,2.93h0Z" transform="translate(0.11)"/><path class="cls-1" d="M348.31,59.71H195.11c0.54,0,1.11,2.61,1.69,2.61H350c-0.54,0-1.11-2.61-1.69-2.61h0Z" transform="translate(0.11)"/><path class="cls-1" d="M62.08,54.66c1.5,0,3-.88,3.92-4.33,1-3.75,1-3.83,1.46-3.83,0.71,0,.79.08,0.79,4.67,0,2.17-.13,2.75-0.63,3.21A10.09,10.09,0,0,1,62,55.82c-6.59,0-10.63-6.46-10.63-13.8,0-8.42,4.71-13.63,10.59-13.63a9.83,9.83,0,0,1,5.21,1.21c0.46,0.29.5,0.38,0.5,3.29,0,3.08-.08,3.25-0.79,3.25-0.38,0-.67-0.42-1.5-2.75-1.21-3.38-2.21-3.83-3.63-3.83-3.75,0-5.88,3.67-5.88,12.3S58.87,54.66,62.08,54.66Z" transform="translate(0.11)"/><path class="cls-1" d="M82,51c0,1.67.75,2.17,1.38,2.17,0.88,0,1-1.33,1.67-1.33q0.37,0,.37.5a4,4,0,0,1-3.63,3.33c-2.67,0-3-3.08-3.46-3.08s-1.75,3.25-5,3.25c-2.17,0-3.5-1.17-3.5-3.63,0-4.58,8.75-7.5,8.75-10.13V38.49a1.66,1.66,0,0,0-1.75-1.83c-1.58,0-3,1.33-3.21,3.54-0.21,1.83-1,3-2.58,3a1.31,1.31,0,0,1-1.5-1.38c0-1.63,3.33-6.13,8.34-6.13,3.25,0,4.13.58,4.13,2.83V51Zm-3.42-5.75c0-.5-0.12-0.58-0.42-0.58-0.54,0-4.38,3.29-4.5,6.21a2,2,0,0,0,1.88,2.29c2,0,3-1.5,3-5.25V45.24Z" transform="translate(0.11)"/><path class="cls-1" d="M91.42,52c0,1.5.46,2.17,1.75,2.33,1.54,0.21,1.67.29,1.67,0.63a0.4,0.4,0,0,1-.46.38c-0.71,0-2-.17-4.5-0.17-2.17,0-3.5.17-4.25,0.17-0.29,0-.54-0.08-0.54-0.33s0.21-.46,1.25-0.67c1.29-.25,1.42-0.67,1.42-2V40.4c0-1-.79-1.08-1.46-1.17s-1-.17-1-0.5c0-.63.75-0.38,3.21-1.75,1.71-1,1.71-1.5,2.08-1.5,0.21,0,.29.33,0.29,1v3.25c0,0.13,0,.17.08,0.17s1.92-4.25,4.75-4.25a2.61,2.61,0,0,1,2.58,2.67c0,1.33-.75,2.75-2,2.75a1.46,1.46,0,0,1-1.58-1.25c-0.25-.83-0.08-1.58-0.79-1.58-1.42,0-2.5,2.5-2.5,5.42V52Z" transform="translate(0.11)"/><path class="cls-1" d="M113.84,52.74c0,0.42.13,0.67,0.5,0.67,0.79,0,.79-1.67,1.42-1.67a0.37,0.37,0,0,1,.46.33v1.33c0,0.67-.58.75-2.17,1.54-2.54,1.25-2.79,1.29-2.92,1.29-0.71,0-.21-2.58-0.79-2.58s-1.88,2.17-5,2.17-6.17-3.67-6.17-9.25c0-6.25,3.38-10.92,7.67-10.92a11.27,11.27,0,0,1,3.29.83c0.21,0,.33-0.13.33-1V30.73c0-1.17,0-2-1.13-2.13-0.63,0-1.17-.21-1.17-0.54s0.29-.46.88-0.63a26.39,26.39,0,0,0,4.5-1.79c0.25,0,.33.13,0.33,0.58V52.74Zm-3.42-11.55c0-2.54-1.13-4.54-3.13-4.54-2.17,0-4.34,2.67-4.34,9,0,5.38,1.88,8.13,4.08,8.13,1.83,0,3.38-1.08,3.38-4.08V41.19Z" transform="translate(0.11)"/><path class="cls-1" d="M122.3,52.45c0,1.29.37,1.75,1.54,1.88,0.71,0.08,1,.29,1,0.5s-0.13.5-.71,0.5c-0.79,0-1.88-.17-3.58-0.17s-3.13.17-3.79,0.17c-0.46,0-.67-0.08-0.67-0.46a0.94,0.94,0,0,1,.88-0.63c1.63-.46,2-0.54,2-2V40.19c0-1.13-.63-1.17-1.46-1.33-0.46-.08-0.79-0.12-0.79-0.54s0.29-.5.79-0.63a14.59,14.59,0,0,0,4.5-2c0.25,0,.38.12,0.38,0.58V52.45Zm-1.63-23.8A2.11,2.11,0,0,1,122.6,31a2,2,0,1,1-3.83,0A2.11,2.11,0,0,1,120.68,28.65Z" transform="translate(0.11)"/><path class="cls-1" d="M134.06,55.82c-4.63,0-8-4.71-8-10.09s3.38-10.09,8-10.09,8,4.71,8,10.09S138.68,55.82,134.06,55.82Zm4.17-10.09c0-3.88-1.46-9.09-4.17-9.09s-4.17,5.21-4.17,9.09,1.46,9.09,4.17,9.09S138.22,49.61,138.22,45.74Z" transform="translate(0.11)"/><path class="cls-1" d="M149.23,52.2c0,1.54.67,1.79,1.79,2.13,0.88,0.25,1.21.17,1.21,0.63,0,0.25-.17.38-0.63,0.38-1.17,0-2.83-.17-4.25-0.17-1.21,0-2.75.17-3.58,0.17-0.46,0-.88,0-0.88-0.42s0.21-.42.83-0.58c1.83-.42,2.08-0.75,2.08-2.79V30.27a1.43,1.43,0,0,0-1.21-1.58c-0.67-.13-1.08-0.17-1.08-0.58s0.46-.46.88-0.58a15.94,15.94,0,0,0,4.5-1.88c0.25,0,.33.13,0.33,0.58v26Z" transform="translate(0.11)"/><path class="cls-1" d="M161,55.82c-4.63,0-8-4.71-8-10.09s3.38-10.09,8-10.09,8,4.71,8,10.09S165.61,55.82,161,55.82Zm4.17-10.09c0-3.88-1.46-9.09-4.17-9.09s-4.17,5.21-4.17,9.09,1.46,9.09,4.17,9.09S165.15,49.61,165.15,45.74Z" transform="translate(0.11)"/><path class="cls-1" d="M183.24,38.4a9.75,9.75,0,0,1,.92,3.83c0,2.58-1.63,6.84-7.42,6.84-1.17,0-2.42.83-2.42,1.5,0,3.21,11.5-1.71,11.5,6.88,0,4.67-4,6.88-8.75,6.88-4.5,0-6.42-2.33-6.42-4.88,0-2.83,3.42-3.88,3.42-4.59,0-.5-2.67-2.5-2.67-3.38,0-1.13,3.67-2.58,3.67-3s-3.75-1.71-3.75-6.34a6.3,6.3,0,0,1,6.34-6.54,6.18,6.18,0,0,1,3,.71,4.72,4.72,0,0,0,1.58.71h3.33c0.21,0,.29.13,0.29,0.67s-0.08.67-.29,0.67h-2.29Zm-6.29,16.55a3.68,3.68,0,0,0-3.63,3.71,4.54,4.54,0,0,0,4.88,4.67c3,0,5-1.67,5-4.54C183.15,55.57,180.48,54.95,176.94,54.95Zm0.79-6.71c1.58,0,2.75-2.08,2.75-5.79s-1.17-5.79-2.75-5.79S175,38.74,175,42.44,176.15,48.24,177.73,48.24Z" transform="translate(0.11)"/><path class="cls-1" d="M189.15,46.32c-2.88-8.46-2.83-9-3.58-9.17-0.37-.08-0.63-0.13-0.63-0.5a0.51,0.51,0,0,1,.63-0.5c0.42,0,1.42.17,3,.17s2.83-.17,3.08-0.17c0.46,0,.67.13,0.67,0.46s-0.21.42-.71,0.54c-1.25.29-1.58,0.46-1.58,1.17,0,0.33.13,0.92,1.67,5.59,1.83,5.5,1.67,5.92,2.08,5.92s0.42-.54.63-1.13l2.75-8.88a7.27,7.27,0,0,0,.29-1.25c0-.83-0.54-1.25-1.63-1.42-0.58-.08-0.75-0.13-0.75-0.42a0.54,0.54,0,0,1,.67-0.58c0.5,0,1.17.17,2.33,0.17a21.57,21.57,0,0,0,2.25-.17,0.4,0.4,0,0,1,.46.42,0.63,0.63,0,0,1-.58.58c-0.79.12-1.29,1.17-1.75,2.58l-7.21,23c-0.33,1.08-.58,1.63-2.17,1.63s-1.88-.25-1.88-2,0.13-2,2-2c1.67,0,1.92-.08,2.5-2.25l0.67-2.42Z" transform="translate(0.11)"/><path class="cls-1" d="M213.2,45.9c-0.63,0-.63.25-1.21,2.67-0.83,3.5-1,4-1,4.33a1.38,1.38,0,0,0,1.25,1.25c0.79,0.25,2,.08,2,0.63,0,0.25-.12.54-0.75,0.54-0.37,0-2-.17-3-0.17-2,0-2.71.17-3.13,0.17a0.36,0.36,0,0,1-.42-0.42c0-.63.54-0.38,1.42-0.75s1.38-2.38,4.75-13.5c3.67-12.09,3.38-12.25,4.13-12.25s0.54,0.5,5.67,17.17c2.08,6.75,2.33,8.29,3.17,8.59s1.46,0.21,1.46.71c0,0.29-.13.46-0.88,0.46s-2-.17-3.54-0.17c-2.25,0-3.75.17-4.21,0.17a0.44,0.44,0,0,1-.54-0.5c0-.38.42-0.33,1.83-0.67a1,1,0,0,0,.71-1,31.1,31.1,0,0,0-1-3.92c-0.83-3-.83-3.38-1.38-3.38H213.2Zm4.88-1.17c0.29,0,.37,0,0.37-0.12,0-.29-0.25-1-1.83-6.54-0.63-2.17-.63-2.33-0.79-2.33s-0.21.25-1.58,5.17c-0.88,3.25-1,3.58-1,3.71s0.08,0.12.46,0.12h4.42Z" transform="translate(0.11)"/><path class="cls-1" d="M227.41,50.11c0-.54.21-0.79,0.63-0.79s0.63,0.38,1.17,1.92c0.75,2.21,1.88,3.58,3.88,3.58s3.08-1.58,3.08-3.63c0-4.88-8.84-4.67-8.84-10,0-3.67,3.54-5.58,6.42-5.58a12.12,12.12,0,0,1,3.83.58c0.5,0.21.54,0.46,0.54,3,0,1.33-.13,1.58-0.75,1.58-1.17,0-.54-4.13-4.29-4.13a2.66,2.66,0,0,0-2.83,2.79c0,4.38,8.84,3.88,8.84,10.17,0,3.5-3,6.21-7.34,6.21-1.75,0-4.33-.67-4.33-1.42V50.11Z" transform="translate(0.11)"/><path class="cls-1" d="M240.88,50.11c0-.54.21-0.79,0.63-0.79s0.63,0.38,1.17,1.92c0.75,2.21,1.88,3.58,3.88,3.58s3.08-1.58,3.08-3.63c0-4.88-8.84-4.67-8.84-10,0-3.67,3.54-5.58,6.42-5.58a12.12,12.12,0,0,1,3.83.58c0.5,0.21.54,0.46,0.54,3,0,1.33-.13,1.58-0.75,1.58-1.17,0-.54-4.13-4.29-4.13a2.66,2.66,0,0,0-2.83,2.79c0,4.38,8.84,3.88,8.84,10.17,0,3.5-3,6.21-7.34,6.21-1.75,0-4.33-.67-4.33-1.42V50.11Z" transform="translate(0.11)"/><path class="cls-1" d="M262.17,55.82c-4.63,0-8-4.71-8-10.09s3.38-10.09,8-10.09,8,4.71,8,10.09S266.8,55.82,262.17,55.82Zm4.17-10.09c0-3.88-1.46-9.09-4.17-9.09S258,41.86,258,45.74s1.46,9.09,4.17,9.09S266.34,49.61,266.34,45.74Z" transform="translate(0.11)"/><path class="cls-1" d="M281.51,53.74c3.58,0,3.83-3.42,4.67-3.42,0.25,0,.46.17,0.46,0.75,0,1.25-2,4.75-6.54,4.75-4.67,0-7.84-4.17-7.84-10.42,0-5.5,3.5-9.75,8.67-9.75a10.73,10.73,0,0,1,4.25.79c0.58,0.33.67,0.46,0.67,2.25,0,2.88-.08,3-0.92,3s-1-.29-1.63-1.46c-1.5-2.75-1.71-3.63-2.83-3.63-2,0-4.38,2.83-4.38,7.75C276.09,49.66,278.43,53.74,281.51,53.74Z" transform="translate(0.11)"/><path class="cls-1" d="M293.14,52.45c0,1.29.37,1.75,1.54,1.88,0.71,0.08,1,.29,1,0.5s-0.13.5-.71,0.5c-0.79,0-1.88-.17-3.58-0.17s-3.13.17-3.79,0.17c-0.46,0-.67-0.08-0.67-0.46a0.94,0.94,0,0,1,.88-0.63c1.63-.46,2-0.54,2-2V40.19c0-1.13-.63-1.17-1.46-1.33-0.46-.08-0.79-0.12-0.79-0.54s0.29-.5.79-0.63a14.59,14.59,0,0,0,4.5-2c0.25,0,.38.12,0.38,0.58V52.45Zm-1.63-23.8A2.11,2.11,0,0,1,293.43,31a2,2,0,1,1-3.83,0A2.11,2.11,0,0,1,291.51,28.65Z" transform="translate(0.11)"/><path class="cls-1" d="M309.06,51c0,1.67.75,2.17,1.38,2.17,0.88,0,1-1.33,1.67-1.33q0.37,0,.37.5a4,4,0,0,1-3.63,3.33c-2.67,0-3-3.08-3.46-3.08s-1.75,3.25-5,3.25c-2.17,0-3.5-1.17-3.5-3.63,0-4.58,8.75-7.5,8.75-10.13V38.49a1.66,1.66,0,0,0-1.75-1.83c-1.58,0-3,1.33-3.21,3.54-0.21,1.83-1,3-2.58,3a1.31,1.31,0,0,1-1.5-1.38c0-1.63,3.33-6.13,8.34-6.13,3.25,0,4.13.58,4.13,2.83V51Zm-3.42-5.75c0-.5-0.13-0.58-0.42-0.58-0.54,0-4.38,3.29-4.5,6.21a2,2,0,0,0,1.88,2.29c2,0,3-1.5,3-5.25V45.24Z" transform="translate(0.11)"/><path class="cls-1" d="M317.19,36.32h2.67c0.42,0,.5.17,0.5,0.71s-0.08.71-.5,0.71H317.4a0.23,0.23,0,0,0-.21.25v12.8c0,1.83.42,2.54,1.25,2.54,1.17,0,1.54-2,2.13-2,0.25,0,.38.17,0.38,0.54,0,0.63-1.29,4-4,4-2.46,0-3.17-2.25-3.17-5V38.4c0-.5-0.13-0.67-0.46-0.67h-1.13c-0.38,0-.42-0.13-0.42-0.38,0-.5.75-0.67,2.25-2.29,2.13-2.29,2-4.08,2.75-4.08a0.55,0.55,0,0,1,.42.63v4.71Z" transform="translate(0.11)"/><path class="cls-1" d="M326.23,44.74c-0.71,0-.88.13-0.88,1.46,0,4,1.75,7.54,4.92,7.54,4.38,0,4.13-3.33,5-3.33a0.41,0.41,0,0,1,.46.5c0,1-2,4.92-6.63,4.92-4.21,0-7.59-3.46-7.59-9.88,0-5.38,3-10.29,7.92-10.29,4.33,0,6.29,3.75,6.29,7.38,0,1.42-.33,1.71-1.25,1.71h-8.25Zm3.33-8.09c-3.46,0-4,5.38-4,6.21,0,0.67.37,0.88,1.75,0.88,3.92,0,5-.54,5-3C332.32,39,331.61,36.65,329.57,36.65Z" transform="translate(0.11)"/><path class="cls-1" d="M337.48,50.11c0-.54.21-0.79,0.63-0.79s0.63,0.38,1.17,1.92c0.75,2.21,1.88,3.58,3.88,3.58s3.08-1.58,3.08-3.63c0-4.88-8.84-4.67-8.84-10,0-3.67,3.54-5.58,6.42-5.58a12.12,12.12,0,0,1,3.83.58c0.5,0.21.54,0.46,0.54,3,0,1.33-.13,1.58-0.75,1.58-1.17,0-.54-4.13-4.29-4.13a2.66,2.66,0,0,0-2.83,2.79c0,4.38,8.84,3.88,8.84,10.17,0,3.5-3,6.21-7.34,6.21-1.75,0-4.33-.67-4.33-1.42V50.11Z" transform="translate(0.11)"/><path class="cls-1" d="M58,87.07c-3.31,0-5.73-3.37-5.73-7.23s2.42-7.23,5.73-7.23,5.73,3.37,5.73,7.23S61.31,87.07,58,87.07Zm3-7.23c0-2.78-1-6.51-3-6.51s-3,3.73-3,6.51,1,6.51,3,6.51S61,82.62,61,79.84Z" transform="translate(0.11)"/><path class="cls-1" d="M68.57,84.5c0,1,.3,1.1,1.82,1.49,0.36,0.09.57,0.15,0.57,0.39s-0.12.33-.45,0.33c-0.63,0-2-.12-3-0.12s-1.79.12-2.69,0.12c-0.3,0-.45-0.12-0.45-0.33s0.09-.3.51-0.39c1.11-.24,1.28-0.48,1.28-1.55v-9.5c0-1.13-1.55-.27-1.55-1.13a0.86,0.86,0,0,1,.78-0.6,0.89,0.89,0,0,0,.78-1.07c0-4.54,1.73-6.69,4.39-6.69,1.4,0,1.94.48,1.94,1.07a6.23,6.23,0,0,1-.15,1.31C72.12,68.82,72,69,71.49,69c-0.87,0-1-2.54-1.79-2.54s-1.13,1.31-1.13,5.26c0,1.19.09,1.37,0.48,1.37h2c0.15,0,.24.06,0.24,0.51s-0.09.51-.24,0.51H68.9c-0.24,0-.33.12-0.33,0.45V84.5Z" transform="translate(0.11)"/><path class="cls-1" d="M79.32,69.72c0-.75-0.21-1-1.1-1.1-0.57-.09-0.84-0.06-0.84-0.45s0.24-.39.87-0.39c0.27,0,1,.12,4.75.12,3.14,0,4.54-.12,5.4-0.12,0.54,0,.69.12,0.69,0.57v3.79c0,0.39-.12.54-0.33,0.54-0.48,0-.3-0.15-1-1.67-0.81-1.79-1.64-2.39-3.94-2.39-1.43,0-1.58.12-1.58,0.81v6.06C82.24,75.9,82.3,76,83,76c2.48,0,2.6,0,3.14-1.13s0.45-1.37.84-1.37,0.36,0.15.36,0.54c0,0.63-.12,1.64-0.12,2.57,0,1.13.12,1.91,0.12,2.51S87.32,80,87,80s-0.45-.6-0.78-1.64c-0.42-1.37-.54-1.46-2.63-1.46-1.19,0-1.31,0-1.31.54v5.7c0,2.15.36,2.78,2.39,2.78s2.93-.84,3.7-2.93c0.6-1.58.57-1.7,0.87-1.7s0.33,0.09.33,0.69v4.24c0,0.42-.12.54-0.72,0.54-0.81,0-2.24-.12-5.29-0.12-3.37,0-4.24.12-5.67,0.12-0.54,0-.63-0.15-0.63-0.36s0.09-.42.51-0.48c1.28-.21,1.58-0.48,1.58-1.37V69.72Z" transform="translate(0.11)"/><path class="cls-1" d="M99.56,83.6c0,1.19.54,1.55,1,1.55,0.63,0,.72-1,1.19-1q0.27,0,.27.36a2.9,2.9,0,0,1-2.6,2.39c-1.91,0-2.12-2.21-2.48-2.21s-1.25,2.33-3.58,2.33a2.29,2.29,0,0,1-2.51-2.6c0-3.29,6.27-5.38,6.27-7.26V74.64a1.19,1.19,0,0,0-1.25-1.31c-1.13,0-2.12,1-2.3,2.54C93.41,77.18,92.81,78,91.71,78a0.94,0.94,0,0,1-1.07-1c0-1.16,2.39-4.39,6-4.39,2.33,0,3,.42,3,2v9Zm-2.45-4.12c0-.36-0.09-0.42-0.3-0.42-0.39,0-3.14,2.36-3.23,4.45a1.44,1.44,0,0,0,1.34,1.64c1.4,0,2.18-1.07,2.18-3.76V79.48Z" transform="translate(0.11)"/><path class="cls-1" d="M102.28,83a0.45,0.45,0,0,1,.45-0.57c0.27,0,.45.27,0.84,1.37,0.54,1.58,1.34,2.57,2.78,2.57a2.31,2.31,0,0,0,2.21-2.6c0-3.49-6.33-3.34-6.33-7.14,0-2.63,2.54-4,4.6-4a8.69,8.69,0,0,1,2.75.42c0.36,0.15.39,0.33,0.39,2.12,0,1-.09,1.13-0.54,1.13-0.84,0-.39-3-3.08-3a1.9,1.9,0,0,0-2,2c0,3.14,6.33,2.78,6.33,7.29,0,2.51-2.15,4.45-5.26,4.45-1.25,0-3.11-.48-3.11-1V83Z" transform="translate(0.11)"/><path class="cls-1" d="M115,73.09h1.91c0.3,0,.36.12,0.36,0.51s-0.06.51-.36,0.51h-1.76a0.16,0.16,0,0,0-.15.18v9.17c0,1.31.3,1.82,0.9,1.82,0.84,0,1.11-1.43,1.52-1.43,0.18,0,.27.12,0.27,0.39,0,0.45-.93,2.84-2.87,2.84-1.76,0-2.27-1.61-2.27-3.58v-8.9c0-.36-0.09-0.48-0.33-0.48h-0.81c-0.27,0-.3-0.09-0.3-0.27,0-.36.54-0.48,1.61-1.64,1.52-1.64,1.43-2.93,2-2.93a0.39,0.39,0,0,1,.3.45v3.37Z" transform="translate(0.11)"/><path class="cls-1" d="M134.29,67.9c1.37,0,1.08-1.19,1.73-1.19a0.42,0.42,0,0,1,.39.48c0,0.48-.09,1-0.42,5.32,0,0.3-.09.48-0.3,0.48-0.42,0-.27-0.24-1-2.33-0.54-1.64-1.19-1.91-2.33-1.91-0.63,0-.75.15-0.75,0.51V84.38c0,0.9.18,1.43,1.19,1.49s1.22,0.12,1.22.45-0.15.39-.51,0.39-1.1-.12-3-0.12c-2.42,0-3.4.12-3.82,0.12a0.38,0.38,0,0,1-.45-0.39c0-.3.18-0.36,0.93-0.45,1.37-.15,1.52-0.36,1.52-1.73V69.39c0-.54-0.21-0.66-0.81-0.66-1.13,0-1.79.54-2.78,2.27s-0.87,1.94-1.13,1.94a0.26,0.26,0,0,1-.27-0.3c0-.3.12-0.93,0.72-4.63,0.18-1.11.18-1.31,0.57-1.31,0.57,0,.12,1.19,1.28,1.19h8Z" transform="translate(0.11)"/><path class="cls-1" d="M139.15,79.12c-0.51,0-.63.09-0.63,1,0,2.87,1.25,5.4,3.52,5.4,3.14,0,3-2.39,3.58-2.39a0.3,0.3,0,0,1,.33.36,4.69,4.69,0,0,1-4.75,3.52c-3,0-5.43-2.48-5.43-7.08,0-3.85,2.15-7.38,5.67-7.38,3.11,0,4.51,2.69,4.51,5.29,0,1-.24,1.22-0.9,1.22h-5.91Zm2.39-5.79c-2.48,0-2.9,3.85-2.9,4.45s0.27,0.63,1.25.63c2.81,0,3.61-.39,3.61-2.12C143.51,75,143,73.33,141.54,73.33Z" transform="translate(0.11)"/><path class="cls-1" d="M155,76.53c0-1.73-.78-2.42-1.85-2.42s-2.06.78-2.57,2.24v8.3a1.15,1.15,0,0,0,1,1.34c0.6,0.18.69,0.27,0.69,0.42a0.29,0.29,0,0,1-.36.3c-0.57,0-1.37-.12-2.6-0.12-1,0-1.88.12-2.36,0.12s-0.48-.06-0.48-0.33,0.24-.36.63-0.45c0.81-.18,1-0.39,1-1.4V76.17c0-.9-0.15-1-0.63-1.13s-0.9,0-.9-0.33,0.6-.36,1.82-1c1.7-.93,1.52-1.25,1.91-1.25,0.18,0,.24.12,0.24,0.48V75h0.06c1-1.19,1.79-2.36,3.52-2.36s3.28,1,3.28,3.76v8.54a1,1,0,0,0,1,1.08c0.6,0.12.69,0.24,0.69,0.48a0.34,0.34,0,0,1-.39.24c-0.36,0-1-.12-2.57-0.12-0.72,0-1.46.12-2.18,0.12-0.36,0-.54-0.09-0.54-0.3s0.09-.3.51-0.42c0.9-.27,1-0.42,1-1.08V76.53Z" transform="translate(0.11)"/><path class="cls-1" d="M168,76.53c0-1.73-.78-2.42-1.85-2.42s-2.06.78-2.57,2.24v8.3a1.15,1.15,0,0,0,1,1.34c0.6,0.18.69,0.27,0.69,0.42a0.29,0.29,0,0,1-.36.3c-0.57,0-1.37-.12-2.6-0.12-1,0-1.88.12-2.36,0.12s-0.48-.06-0.48-0.33,0.24-.36.63-0.45c0.81-.18,1-0.39,1-1.4V76.17c0-.9-0.15-1-0.63-1.13s-0.9,0-.9-0.33,0.6-.36,1.82-1c1.7-.93,1.52-1.25,1.91-1.25,0.18,0,.24.12,0.24,0.48V75h0.06c1-1.19,1.79-2.36,3.52-2.36s3.28,1,3.28,3.76v8.54a1,1,0,0,0,1,1.08c0.6,0.12.69,0.24,0.69,0.48a0.34,0.34,0,0,1-.39.24c-0.36,0-1-.12-2.57-0.12-0.72,0-1.46.12-2.18,0.12-0.36,0-.54-0.09-0.54-0.3s0.09-.3.51-0.42c0.9-.27,1-0.42,1-1.08V76.53Z" transform="translate(0.11)"/><path class="cls-1" d="M176.39,79.12c-0.51,0-.63.09-0.63,1,0,2.87,1.25,5.4,3.52,5.4,3.14,0,3-2.39,3.58-2.39a0.3,0.3,0,0,1,.33.36,4.69,4.69,0,0,1-4.75,3.52c-3,0-5.43-2.48-5.43-7.08,0-3.85,2.15-7.38,5.67-7.38,3.11,0,4.51,2.69,4.51,5.29,0,1-.24,1.22-0.9,1.22h-5.91Zm2.39-5.79c-2.48,0-2.9,3.85-2.9,4.45s0.27,0.63,1.25.63c2.81,0,3.61-.39,3.61-2.12C180.75,75,180.24,73.33,178.78,73.33Z" transform="translate(0.11)"/><path class="cls-1" d="M184.45,83a0.45,0.45,0,0,1,.45-0.57c0.27,0,.45.27,0.84,1.37,0.54,1.58,1.34,2.57,2.78,2.57a2.31,2.31,0,0,0,2.21-2.6c0-3.49-6.33-3.34-6.33-7.14,0-2.63,2.54-4,4.6-4a8.69,8.69,0,0,1,2.75.42c0.36,0.15.39,0.33,0.39,2.12,0,1-.09,1.13-0.54,1.13-0.84,0-.39-3-3.08-3a1.9,1.9,0,0,0-2,2c0,3.14,6.33,2.78,6.33,7.29,0,2.51-2.15,4.45-5.26,4.45-1.25,0-3.11-.48-3.11-1V83Z" transform="translate(0.11)"/><path class="cls-1" d="M194.09,83a0.45,0.45,0,0,1,.45-0.57c0.27,0,.45.27,0.84,1.37,0.54,1.58,1.34,2.57,2.78,2.57a2.31,2.31,0,0,0,2.21-2.6c0-3.49-6.33-3.34-6.33-7.14,0-2.63,2.54-4,4.6-4a8.69,8.69,0,0,1,2.75.42c0.36,0.15.39,0.33,0.39,2.12,0,1-.09,1.13-0.54,1.13-0.84,0-.39-3-3.08-3a1.9,1.9,0,0,0-2,2c0,3.14,6.33,2.78,6.33,7.29,0,2.51-2.15,4.45-5.26,4.45-1.25,0-3.11-.48-3.11-1V83Z" transform="translate(0.11)"/><path class="cls-1" d="M207,79.12c-0.51,0-.63.09-0.63,1,0,2.87,1.25,5.4,3.52,5.4,3.14,0,3-2.39,3.58-2.39a0.3,0.3,0,0,1,.33.36,4.69,4.69,0,0,1-4.75,3.52c-3,0-5.43-2.48-5.43-7.08,0-3.85,2.15-7.38,5.67-7.38,3.11,0,4.51,2.69,4.51,5.29,0,1-.24,1.22-0.9,1.22H207Zm2.39-5.79c-2.48,0-2.9,3.85-2.9,4.45s0.27,0.63,1.25.63c2.81,0,3.61-.39,3.61-2.12C211.35,75,210.84,73.33,209.38,73.33Z" transform="translate(0.11)"/><path class="cls-1" d="M218.31,79.12c-0.51,0-.63.09-0.63,1,0,2.87,1.25,5.4,3.52,5.4,3.14,0,3-2.39,3.58-2.39a0.3,0.3,0,0,1,.33.36,4.69,4.69,0,0,1-4.75,3.52c-3,0-5.43-2.48-5.43-7.08,0-3.85,2.15-7.38,5.67-7.38,3.11,0,4.51,2.69,4.51,5.29,0,1-.24,1.22-0.9,1.22h-5.91Zm2.39-5.79c-2.48,0-2.9,3.85-2.9,4.45s0.27,0.63,1.25.63c2.81,0,3.61-.39,3.61-2.12C222.67,75,222.16,73.33,220.7,73.33Z" transform="translate(0.11)"/></svg>