<svg id="Layer_1" data-name="Layer 1" xmlns="http://www.w3.org/2000/svg" viewBox="0 0 360.29 220.31"><defs><style>.cls-1{fill:#929497;}.cls-2{fill:#002e6d;}</style></defs><title>pnrc</title><path class="cls-1" d="M48.79,151.32H45.95l-5.21-6.56h-2.5v6.56H36V134.86h4.25a15.23,15.23,0,0,1,2.37.15,4.67,4.67,0,0,1,1.82.72,4.11,4.11,0,0,1,1.37,1.43,4.28,4.28,0,0,1,.5,2.17,4.87,4.87,0,0,1-.92,3,5.4,5.4,0,0,1-2.51,1.8Zm-4.72-11.83a3,3,0,0,0-.25-1.28,2.16,2.16,0,0,0-.79-0.91,3,3,0,0,0-1.08-.44,7.81,7.81,0,0,0-1.54-.13H38.24v6.2h1.92a7.88,7.88,0,0,0,1.69-.17,2.6,2.6,0,0,0,1.28-.68,2.85,2.85,0,0,0,.7-1.1A4.5,4.5,0,0,0,44.07,139.49Z" transform="translate(0.1)"/><path class="cls-1" d="M57.59,151.61A6.13,6.13,0,0,1,53,149.94a6.48,6.48,0,0,1-1.63-4.73A7,7,0,0,1,53,140.4a5.27,5.27,0,0,1,4.14-1.79,5.78,5.78,0,0,1,2,.33,4.06,4.06,0,0,1,1.55,1,4.78,4.78,0,0,1,1,1.73,7.74,7.74,0,0,1,.35,2.51v1.13H53.5a4.6,4.6,0,0,0,1.08,3.3,3.94,3.94,0,0,0,3,1.14,5.87,5.87,0,0,0,1.34-.15,6.34,6.34,0,0,0,1.19-.4,8.58,8.58,0,0,0,1-.49,5.72,5.72,0,0,0,.64-0.45h0.12v2.26l-0.91.36a10,10,0,0,1-1,.34q-0.61.17-1.1,0.25A7.25,7.25,0,0,1,57.59,151.61ZM60,143.75a5.75,5.75,0,0,0-.2-1.45,3,3,0,0,0-.51-1,2.33,2.33,0,0,0-.93-0.71,4.17,4.17,0,0,0-2.82,0,3.36,3.36,0,0,0-1.06.72,3.45,3.45,0,0,0-.71,1.08,4.63,4.63,0,0,0-.31,1.37H60Z" transform="translate(0.1)"/><path class="cls-1" d="M76.58,151.32H74.5v-7a14.23,14.23,0,0,0-.08-1.59,3.39,3.39,0,0,0-.31-1.18,1.63,1.63,0,0,0-.71-0.69,2.8,2.8,0,0,0-1.24-.23,3.53,3.53,0,0,0-1.6.42A8.24,8.24,0,0,0,69,142.09v9.24H66.88v-17.2H69v6.2a8.18,8.18,0,0,1,1.83-1.27,4.29,4.29,0,0,1,1.91-.44,3.55,3.55,0,0,1,2.85,1.2,5.22,5.22,0,0,1,1,3.48v8Z" transform="translate(0.1)"/><path class="cls-1" d="M89.12,150l-0.68.53a4.79,4.79,0,0,1-.82.54,6.2,6.2,0,0,1-1.07.44,5.24,5.24,0,0,1-1.44.15,3.74,3.74,0,0,1-2.65-1.09,3.77,3.77,0,0,1-.8-1.26,4.51,4.51,0,0,1,.24-3.76,3.7,3.7,0,0,1,1.71-1.43,8.5,8.5,0,0,1,2.45-.66q1.42-.18,3.05-0.27v-0.4a2.73,2.73,0,0,0-.22-1.19,1.65,1.65,0,0,0-.62-0.7,2.42,2.42,0,0,0-1-.34,8.21,8.21,0,0,0-1.18-.08,7.87,7.87,0,0,0-1.69.22,11.22,11.22,0,0,0-1.94.63H82.37v-2.1q0.58-.16,1.65-0.36a11.68,11.68,0,0,1,2.12-.2,9.83,9.83,0,0,1,2.15.2,4.13,4.13,0,0,1,1.57.72,3.08,3.08,0,0,1,1,1.32,5.18,5.18,0,0,1,.33,2v8.44H89.12V150Zm0-1.73v-3.41l-1.87.18a10.19,10.19,0,0,0-1.83.32,3.34,3.34,0,0,0-1.37.77,1.92,1.92,0,0,0-.54,1.45,2,2,0,0,0,.6,1.59,2.53,2.53,0,0,0,1.75.54,3.76,3.76,0,0,0,1.78-.42A7.72,7.72,0,0,0,89.12,148.29Z" transform="translate(0.1)"/><path class="cls-1" d="M107.22,144.94a7.62,7.62,0,0,1-1.47,4.89,4.54,4.54,0,0,1-3.69,1.85,5.27,5.27,0,0,1-1.72-.25,7.56,7.56,0,0,1-1.41-.67l-0.13.56H96.84v-17.2h2.08v6.12a7.8,7.8,0,0,1,1.71-1.17,4.56,4.56,0,0,1,2.08-.46,3.85,3.85,0,0,1,3.3,1.68A7.84,7.84,0,0,1,107.22,144.94Zm-2.15.17a6.74,6.74,0,0,0-.68-3.37,2.33,2.33,0,0,0-2.17-1.15,4.13,4.13,0,0,0-1.73.4,6.69,6.69,0,0,0-1.58,1v7.11a7.59,7.59,0,0,0,1.4.55,5.24,5.24,0,0,0,1.34.16,3,3,0,0,0,2.51-1.13A5.69,5.69,0,0,0,105.07,145.11Z" transform="translate(0.1)"/><path class="cls-1" d="M114.34,136.89H112v-2.15h2.36v2.15Zm-0.14,14.44h-2.08V139h2.08v12.36Z" transform="translate(0.1)"/><path class="cls-1" d="M122.11,151.32H120v-17.2h2.08v17.2Z" transform="translate(0.1)"/><path class="cls-1" d="M130.17,136.89h-2.36v-2.15h2.36v2.15ZM130,151.32H128V139H130v12.36Z" transform="translate(0.1)"/><path class="cls-1" d="M139.58,151.56a3.57,3.57,0,0,1-2.66-1,4.21,4.21,0,0,1-1-3.05v-6.83h-1.42V139H136v-3.54H138V139h3.85v1.75H138v5.87q0,0.94,0,1.45a2.44,2.44,0,0,0,.26.95,1.22,1.22,0,0,0,.61.58,2.79,2.79,0,0,0,1.14.19,3.27,3.27,0,0,0,1-.15,5.86,5.86,0,0,0,.69-0.25h0.12v1.86a10.17,10.17,0,0,1-1.19.26A7.34,7.34,0,0,1,139.58,151.56Z" transform="translate(0.1)"/><path class="cls-1" d="M153,150l-0.68.53a4.79,4.79,0,0,1-.82.54,6.19,6.19,0,0,1-1.07.44,5.24,5.24,0,0,1-1.44.15,3.74,3.74,0,0,1-2.65-1.09,3.77,3.77,0,0,1-.8-1.26,4.51,4.51,0,0,1,.24-3.76,3.7,3.7,0,0,1,1.71-1.43,8.5,8.5,0,0,1,2.45-.66q1.42-.18,3.05-0.27v-0.4a2.73,2.73,0,0,0-.22-1.19,1.65,1.65,0,0,0-.62-0.7,2.42,2.42,0,0,0-1-.34,8.21,8.21,0,0,0-1.18-.08,7.87,7.87,0,0,0-1.69.22,11.22,11.22,0,0,0-1.94.63h-0.12v-2.1q0.58-.16,1.65-0.36a11.68,11.68,0,0,1,2.12-.2,9.83,9.83,0,0,1,2.15.2,4.13,4.13,0,0,1,1.57.72,3.08,3.08,0,0,1,1,1.32,5.18,5.18,0,0,1,.33,2v8.44H153V150Zm0-1.73v-3.41l-1.87.18a10.19,10.19,0,0,0-1.83.32,3.34,3.34,0,0,0-1.37.77,1.92,1.92,0,0,0-.54,1.45,2,2,0,0,0,.6,1.59,2.53,2.53,0,0,0,1.75.54,3.76,3.76,0,0,0,1.78-.42A7.72,7.72,0,0,0,153,148.29Z" transform="translate(0.1)"/><path class="cls-1" d="M164.47,151.56a3.57,3.57,0,0,1-2.66-1,4.21,4.21,0,0,1-1-3.05v-6.83h-1.42V139h1.42v-3.54h2.08V139h3.85v1.75h-3.85v5.87q0,0.94,0,1.45a2.44,2.44,0,0,0,.26.95,1.21,1.21,0,0,0,.61.58,2.79,2.79,0,0,0,1.14.19,3.27,3.27,0,0,0,1-.15,5.87,5.87,0,0,0,.69-0.25h0.12v1.86a10.2,10.2,0,0,1-1.19.26A7.34,7.34,0,0,1,164.47,151.56Z" transform="translate(0.1)"/><path class="cls-1" d="M173.3,136.89h-2.36v-2.15h2.36v2.15Zm-0.14,14.44h-2.08V139h2.08v12.36Z" transform="translate(0.1)"/><path class="cls-1" d="M189.07,145.15a7.07,7.07,0,0,1-1.5,4.83,5.07,5.07,0,0,1-4,1.7,5,5,0,0,1-4-1.76,7.19,7.19,0,0,1-1.47-4.77,7,7,0,0,1,1.52-4.82,5.52,5.52,0,0,1,8,0A7.09,7.09,0,0,1,189.07,145.15Zm-2.15,0a5.94,5.94,0,0,0-.87-3.56,3.24,3.24,0,0,0-5,0,7.58,7.58,0,0,0,0,7.08,3.2,3.2,0,0,0,5,0A5.9,5.9,0,0,0,186.93,145.15Z" transform="translate(0.1)"/><path class="cls-1" d="M203.64,151.32h-2.08v-7a14.23,14.23,0,0,0-.08-1.59,3.39,3.39,0,0,0-.31-1.18,1.62,1.62,0,0,0-.71-0.69,2.8,2.8,0,0,0-1.24-.23,3.54,3.54,0,0,0-1.6.42,8.24,8.24,0,0,0-1.61,1.08v9.24h-2.08V139H196v1.36a8.18,8.18,0,0,1,1.83-1.27,4.3,4.3,0,0,1,1.91-.44,3.55,3.55,0,0,1,2.85,1.2,5.22,5.22,0,0,1,1,3.48v8Z" transform="translate(0.1)"/><path class="cls-1" d="M225.55,151.63a7.93,7.93,0,0,1-3-.54,6.32,6.32,0,0,1-2.34-1.62,7.4,7.4,0,0,1-1.53-2.68,11.49,11.49,0,0,1-.54-3.69,11.18,11.18,0,0,1,.53-3.61,7.8,7.8,0,0,1,1.53-2.68,6.56,6.56,0,0,1,2.33-1.69,7.56,7.56,0,0,1,3-.58,9.41,9.41,0,0,1,1.55.12,10.83,10.83,0,0,1,1.34.31,10.09,10.09,0,0,1,1.09.41q0.56,0.25,1.1.55v2.64H230.5q-0.29-.26-0.74-0.64a7.37,7.37,0,0,0-1.11-.73,7.16,7.16,0,0,0-1.37-.56,6.06,6.06,0,0,0-1.71-.22,4.67,4.67,0,0,0-3.64,1.7,6,6,0,0,0-1.08,2.11,9.83,9.83,0,0,0-.39,2.86,9.22,9.22,0,0,0,.41,2.91A6.24,6.24,0,0,0,222,148.1a4.45,4.45,0,0,0,1.61,1.23,4.77,4.77,0,0,0,2,.41,6.31,6.31,0,0,0,1.76-.23,6.69,6.69,0,0,0,1.44-.59,7.49,7.49,0,0,0,1-.71q0.44-.36.7-0.62h0.17v2.62l-1,.49a9.15,9.15,0,0,1-1.17.45,11.82,11.82,0,0,1-1.33.35A8.55,8.55,0,0,1,225.55,151.63Z" transform="translate(0.1)"/><path class="cls-1" d="M240.62,151.61a6.13,6.13,0,0,1-4.59-1.67,6.48,6.48,0,0,1-1.63-4.73A7,7,0,0,1,236,140.4a5.27,5.27,0,0,1,4.14-1.79,5.78,5.78,0,0,1,2,.33,4.05,4.05,0,0,1,1.55,1,4.78,4.78,0,0,1,1,1.73,7.75,7.75,0,0,1,.35,2.51v1.13h-8.56a4.6,4.6,0,0,0,1.08,3.3,3.94,3.94,0,0,0,3,1.14,5.87,5.87,0,0,0,1.34-.15,6.35,6.35,0,0,0,1.19-.4,8.58,8.58,0,0,0,1-.49,5.72,5.72,0,0,0,.64-0.45h0.12v2.26l-0.91.36a10,10,0,0,1-1,.34q-0.61.17-1.1,0.25A7.24,7.24,0,0,1,240.62,151.61Zm2.44-7.86a5.75,5.75,0,0,0-.2-1.45,3,3,0,0,0-.51-1,2.33,2.33,0,0,0-.93-0.71,4.17,4.17,0,0,0-2.82,0,3.36,3.36,0,0,0-1.06.72,3.45,3.45,0,0,0-.71,1.08,4.63,4.63,0,0,0-.31,1.37h6.53Z" transform="translate(0.1)"/><path class="cls-1" d="M259.61,151.32h-2.08v-7a14.24,14.24,0,0,0-.08-1.59,3.39,3.39,0,0,0-.31-1.18,1.63,1.63,0,0,0-.71-0.69,2.8,2.8,0,0,0-1.24-.23,3.53,3.53,0,0,0-1.6.42,8.24,8.24,0,0,0-1.61,1.08v9.24h-2.08V139H252v1.36a8.18,8.18,0,0,1,1.83-1.27,4.29,4.29,0,0,1,1.91-.44,3.55,3.55,0,0,1,2.85,1.2,5.22,5.22,0,0,1,1,3.48v8Z" transform="translate(0.1)"/><path class="cls-1" d="M269,151.56a3.57,3.57,0,0,1-2.66-1,4.21,4.21,0,0,1-1-3.05v-6.83H264V139h1.42v-3.54h2.08V139h3.85v1.75h-3.85v5.87q0,0.94,0,1.45a2.44,2.44,0,0,0,.26.95,1.21,1.21,0,0,0,.61.58,2.79,2.79,0,0,0,1.14.19,3.27,3.27,0,0,0,1-.15,5.87,5.87,0,0,0,.69-0.25h0.12v1.86a10.21,10.21,0,0,1-1.19.26A7.34,7.34,0,0,1,269,151.56Z" transform="translate(0.1)"/><path class="cls-1" d="M280.9,151.61a6.13,6.13,0,0,1-4.59-1.67,6.48,6.48,0,0,1-1.63-4.73,7,7,0,0,1,1.58-4.81,5.27,5.27,0,0,1,4.14-1.79,5.78,5.78,0,0,1,2,.33,4.05,4.05,0,0,1,1.55,1,4.78,4.78,0,0,1,1,1.73,7.75,7.75,0,0,1,.35,2.51v1.13H276.8a4.6,4.6,0,0,0,1.08,3.3,3.94,3.94,0,0,0,3,1.14,5.87,5.87,0,0,0,1.34-.15,6.35,6.35,0,0,0,1.19-.4,8.58,8.58,0,0,0,1-.49,5.72,5.72,0,0,0,.64-0.45h0.12v2.26l-0.91.36a10,10,0,0,1-1,.34q-0.61.17-1.1,0.25A7.24,7.24,0,0,1,280.9,151.61Zm2.44-7.86a5.75,5.75,0,0,0-.2-1.45,3,3,0,0,0-.51-1,2.33,2.33,0,0,0-.93-0.71,4.17,4.17,0,0,0-2.82,0,3.36,3.36,0,0,0-1.06.72,3.45,3.45,0,0,0-.71,1.08,4.63,4.63,0,0,0-.31,1.37h6.53Z" transform="translate(0.1)"/><path class="cls-1" d="M296.72,141.2h-0.11a2.42,2.42,0,0,0-.49-0.08l-0.62,0a4.1,4.1,0,0,0-1.67.36,5.35,5.35,0,0,0-1.57,1.08v8.77h-2.08V139h2.08v1.84a9.5,9.5,0,0,1,2-1.42,3.71,3.71,0,0,1,1.64-.42l0.48,0,0.36,0.05v2.17Z" transform="translate(0.1)"/><path class="cls-2" d="M2.92,151.18a3,3,0,0,1-3-3.24c2-28.25,14.65-71.53,37.63-99.81,12.72-15.66,35.66-28.68,48.2-35a230.14,230.14,0,0,1,22.5-10c11-4.11,12.17-3.2,13.32-2.31a7.41,7.41,0,0,1,2.5,5.43c0.33,4.3-1.43,14-16.88,30.3-10.72,11.34-29.47,28-55.85,49.74A227.64,227.64,0,0,1,38.2,111.18C25.13,132.56,15.72,142.1,4.76,150.55A3,3,0,0,1,2.92,151.18ZM118,6.24c-9,2.06-56,21.32-75.8,45.71C21.93,76.93,10,114.14,6.64,141.23,14.87,134,22.75,124.88,33,108c2.5-4.09,4.88-8.31,7.17-12.72l-5,4a3,3,0,1,1-3.79-4.7q7.84-6.32,15-12.16c6.12-13.71,11.64-29.31,17.06-48a3,3,0,1,1,5.8,1.68c-4.13,14.22-8.32,26.71-12.8,38,21.49-17.94,37-32,46.33-41.8C116.86,17.47,118.45,9,118,6.24Z" transform="translate(0.1)"/><path class="cls-2" d="M56.91,123a6.18,6.18,0,0,1-1.94-.31c-3.84-1.27-5.72-6-4.68-11.8,2.1-11.64,11.44-25.76,25.65-38.74A3,3,0,0,1,80,76.61Q78.6,77.9,77.3,79.16a3,3,0,0,1,4.11,4c-0.89,1.94-1.7,4.07-2.64,6.53-1.22,3.2-2.73,7.18-5.08,12.45A55.47,55.47,0,0,0,71,114.83c1.44-1.28,4.08-4.16,8.47-10.69A248.78,248.78,0,0,0,93.25,81.31c4.53-10.45,9.37-22.94,11.47-31.42a3,3,0,0,1,5.91,1.2c-1.55,9.66-5.47,20.48-11.87,32.71-2.1,4.84-4.11,9.18-5.69,12.42-3.74,7.64-4.38,14.22-3.39,17.1a1.91,1.91,0,0,0,.64,1,3,3,0,0,1-2.65,5.43,7.43,7.43,0,0,1-3.7-4.51,16.69,16.69,0,0,1-.73-6c-7.47,10.79-11.93,14.15-15.68,11.95a4.83,4.83,0,0,1-2.3-3.33C61.94,122,59,123,56.91,123ZM76,80.43c-15.4,15.32-19,27-19.77,31.53-0.6,3.34.34,4.9,0.63,5s3.35-.86,7.06-8.33c1.6-3.22,2.93-6,4.06-8.57a133.35,133.35,0,0,1,8-19.57Z" transform="translate(0.1)"/><path class="cls-2" d="M93.37,81.84a3,3,0,0,1-2.09-5.2l1-1c7.12-6.88,19-18.4,35-20a3,3,0,0,1,1.47,5.79,2.87,2.87,0,0,0-.79.49,6.65,6.65,0,0,1-2,1.14,3,3,0,0,1-3-.55C111.5,65.49,102.61,74.09,96.48,80l-1,1A3,3,0,0,1,93.37,81.84Z" transform="translate(0.1)"/><path class="cls-2" d="M93.91,115.61a3,3,0,0,1-2-5.25c2.73-2.49,8.6-10,13.77-16.57,3.84-4.9,7.48-9.53,10.05-12.46a3,3,0,1,1,4.54,4c-2.47,2.81-6,7.37-9.84,12.21C104.81,104.63,99,112,95.94,114.82A3,3,0,0,1,93.91,115.61Z" transform="translate(0.1)"/><path class="cls-2" d="M103.66,128.81a3,3,0,0,1-2.93-3.75c2.65-10.73,6.91-20.86,11-30.65l1.72-4.11a3,3,0,0,1,5.57,2.32l-1.73,4.13c-4,9.58-8.2,19.49-10.74,29.76A3,3,0,0,1,103.66,128.81Z" transform="translate(0.1)"/><path class="cls-2" d="M132.31,86.08a3,3,0,0,1-2.93-3.75c0-.12.06-0.23,0.09-0.33s0-.14,0-0.21h0v0l0.08-.34a3,3,0,0,1,5.86,1.45l-0.05.19,0,0.14-0.14.56A3,3,0,0,1,132.31,86.08Z" transform="translate(0.1)"/><path class="cls-2" d="M182.12,78.68a3,3,0,0,1-2.93-3.74c0-.12.06-0.23,0.09-0.34s0-.14,0-0.2h0l0.08-.34a3,3,0,1,1,5.86,1.45l-0.05.19,0,0.13h0l-0.14.56A3,3,0,0,1,182.12,78.68Z" transform="translate(0.1)"/><path class="cls-2" d="M115.37,125a3,3,0,0,1-2.38-4.87c3.26-4.19,9.3-17,12.34-25.22A3,3,0,0,1,131,97c-2.81,7.63-9.14,21.58-13.23,26.84A3,3,0,0,1,115.37,125Z" transform="translate(0.1)"/><path class="cls-2" d="M201.15,123.28c-4.06,0-5.8-2.44-7.06-4.87-3.83,2.24-8.76,3.51-12.42,2.37-3.49-1.09-5.52-4.09-5.56-8.24q0-.16,0-0.32a44,44,0,0,1-6.75,6.15c-3,2.1-7.26,4.62-10.49,2.34-2.19-1.54-2.67-4.39-2.17-8.23-7.75,7.2-13.91,11.19-18.52,9.39-5.63-2.2-7.87-7.18-6-13.32,2.31-7.51,10.9-16.32,16.51-15a3,3,0,0,1-1.27,5.9c-2,.1-8.7,6.22-9.75,12-0.44,2.47.33,3.86,2.68,4.77,0,0,2,.65,9-5.31,4-3.41,8.38-7.82,12.42-12a42.76,42.76,0,0,1,3.87-4c1.59-1.65,3.09-3.19,4.39-4.47a3,3,0,0,1,4.62,3.84,26,26,0,0,1-3.93,4.15l-0.84.78-1.48,1.55-2,2.09a11.64,11.64,0,0,0-2.28,4c-1.43,5.08-1.62,7.44-1.57,8.49a16.05,16.05,0,0,0,3.33-1.94c3.32-2.35,6.42-5.95,9.43-9.43,3.33-3.86,6.55-7.59,10.11-9.77a17,17,0,0,1,6.75-3.8c3.58-.76,5.19.61,5.84,1.49a3.62,3.62,0,0,1,.21,4c-1,1.78-3.26,2.7-6,2.46a5.8,5.8,0,0,0-3.33.87c-3.28,3-6.79,7.87-6.73,13.25,0,2.13.86,2.39,1.32,2.53,2.85,0.89,8.76-1.78,10.45-4.19l0.09-.13c0.56-2.06,1.4-4.48,2.44-7.36,0.44-1.22.89-2.47,1.31-3.71a3,3,0,0,1,5.79,1.7c-0.18.73-.32,1.48-0.47,2.28a24.44,24.44,0,0,1-3.47,9.58,6.11,6.11,0,0,0-.25,2.27c0.95,1.88,1.05,1.87,2.19,1.78a3,3,0,1,1,.48,6Q201.57,123.28,201.15,123.28Z" transform="translate(0.1)"/><path class="cls-2" d="M210.77,140a3,3,0,0,1-2.94-3.72C211.93,119.14,233.69,26.2,235,17.22a3,3,0,0,1,6,.9c-0.43,2.85-2.69,13.22-5.76,26.77,5.34-14.79,9.14-20.47,13-21.22a3.56,3.56,0,0,1,2.87.23c3.63,2,4.84,9.94,5.85,59,0.23,11.12.45,21.62,0.88,24.33,1,6.22,2.68,6.1,4,6a15.17,15.17,0,0,0,4.76-1.62,71.67,71.67,0,0,1,2.82-12.52c2.24-6.87,6.62-10.06,10-10.75a6.35,6.35,0,0,1,6.23,1.87c1.1,1.24,2.67,4.12.86,9.46-2.37,7-8.46,12.36-14.16,15.71-0.19,3.18,0,5.5.5,6.49,4.76-.52,10.67-8.09,15.45-14.22,1.14-1.46,2.25-2.88,3.34-4.22,3.39-5.91,8.83-10.18,12.34-11s5.21,0.46,5.88,1.32a3.62,3.62,0,0,1,.33,4c-1,1.81-3.18,2.8-5.94,2.63h-0.08c-1.73,0-4.68,3.11-7.54,6.58a15.26,15.26,0,0,0-2,7.83c0.08,2.13.93,2.37,1.39,2.5,2.87,0.8,8.7-2,10.33-4.5l0.09-.13c0.5-2.07,1.27-4.52,2.23-7.43,0.4-1.23.81-2.49,1.2-3.75a3,3,0,0,1,5.84,1.53c-0.16.74-.28,1.49-0.4,2.29a24.44,24.44,0,0,1-3.2,9.68,6.11,6.11,0,0,0-.18,2.28c0.88,1.63,1.07,1.81,1.87,1.75,1.21-.82,4.18-4.11,11.43-14.84l0.1-.38c0.21-.81.42-1.62,0.63-2.43l0.08-.33c2.26-9,7.57-30.06,21.42-48.18,2.81-3.67,7.05-9.23,10.89-6.57,2,1.41,2.81,4.15,0,13A66.39,66.39,0,0,1,352.85,72l-2.08,3.37c-8.64,14-15.08,24.08-19.94,31.3-2.07,8.1-2.82,13.31,1.37,16.27a3,3,0,1,1-3.48,4.94,12.8,12.8,0,0,1-5.57-10.39c-4.82,6.25-6.77,7.28-8.31,7.45-4.69.51-6.66-2-8.08-4.6-3.76,2.35-8.65,3.76-12.34,2.73a7.69,7.69,0,0,1-5.59-6.28c-5.06,6.1-10.38,11.19-16.44,11.19h-0.06a5.07,5.07,0,0,1-4.14-2.22c-1.24-1.72-1.79-4.37-1.88-7.43a15.65,15.65,0,0,1-4,1c-8.53.6-9.94-8.19-10.4-11.07-0.5-3.12-.7-12.85-1-25.17-0.33-15.76-.9-43.65-2.67-52.22-1.69,2.28-5,8.48-10.58,25.4-4.91,15-9.9,33.14-14.3,49.15-5.14,18.69-8.13,29.43-10,33A3,3,0,0,1,210.77,140Zm70.31-45.75a2.57,2.57,0,0,0-1,.27c-1.52.69-3.58,2.75-4.8,6.49a63.41,63.41,0,0,0-1.7,6.26c3.18-2.57,6-5.83,7.29-9.5,0.79-2.32.47-3.37,0.34-3.52h-0.1Zm72.17-39-1,1.25c-7.7,10.08-12.64,21.23-15.83,30.46,2.73-4.32,5.78-9.2,9.19-14.72l2.1-3.4A63.93,63.93,0,0,0,353.25,55.23Z" transform="translate(0.1)"/><path class="cls-2" d="M119.82,199.28c-4.85,3.93-11.26,5.25-17.44,5.25-11.32,0-21.82-6.35-21.82-19.63,0-11.89,10.51-19.63,21.82-19.63,5.31,0,11.84,1.39,16.57,4.39l-1.79,5.43a6.75,6.75,0,0,1-.81,2,3.38,3.38,0,0,1-.63-1.5c-1.21-5-4.79-9-13.34-9.22-10.51,0-15.25,10-15.25,18.57s5.2,18.57,17.56,18.57c5.66,0,9.93-3.45,12.47-9.28,0.29-.69.35-1.21,0.64-1.21s0.29,0.17.52,1Z" transform="translate(0.1)"/><path class="cls-2" d="M162.22,197.51l6.11-11.88a13.78,13.78,0,0,0,1.62-5c0-1.62-1-2.19-2.19-2.58a0.44,0.44,0,0,1-.43-0.29c0-.14.19-0.19,0.48-0.19,1.24,0,1.67.19,3.63,0.19s2.29-.19,3.53-0.19c0.33,0,.62,0,0.62.14a0.77,0.77,0,0,1-.43.57c-1.57,1.1-3.25,3.63-4.87,6.54L161,202.62a1.36,1.36,0,0,1-.57.67h-0.1a1.44,1.44,0,0,1-.48-0.72l-8.35-16.27c-1.81-3.63-3.34-6.73-5.35-8.07a1,1,0,0,1-.57-0.48c0-.19.29-0.19,0.62-0.19,0.76,0,2,.19,4.25.19s3.91-.19,4.3-0.19a0.69,0.69,0,0,1,.62.19,0.59,0.59,0,0,1-.43.38,1.71,1.71,0,0,0-1.34,1.81,9.54,9.54,0,0,0,1.19,3.25Z" transform="translate(0.1)"/><path class="cls-2" d="M177.54,186.82c-0.1,1.1-.14,2.1-0.14,3.1,0,8.88,4.58,12.17,9.21,12.17,5.49,0,9.55-3.77,11.17-9.35h1c-1.53,6.59-6.3,10.55-12.79,10.55-8.11,0-14.13-5.49-14.13-13.12S177.87,177,186,177c5.2,0,11.5,3.15,12.17,9.78H177.54Zm14.6-.91c0-4.68-2.24-8-7.21-8-4.34,0-6.68,3.87-7.21,8h14.41Z" transform="translate(0.1)"/><path class="cls-2" d="M204.86,184.43H205c1.1-4.06,3.44-7.4,9.74-7.4,5.25,0,10.17,2.72,10.17,10.31v9.21c-0.1,4.53.53,5.2,1.91,5.68a1,1,0,0,1,.62.33c0,0.14-.24.14-0.72,0.14s-1.67-.14-4.3-0.14-4.29.14-4.91,0.14c-0.29,0-.53,0-0.53-0.14s0.1-.24.43-0.29c1.72-.19,2.58-1.48,2.58-5.73V187.3c0-4.39-2-9.07-7-9.07-5.68,0-7.54,5.82-7.54,12.51v5.82c0,3,.14,5.25,2.29,5.63,0.33,0,.53.14,0.53,0.29s-0.14.24-.43,0.24-2.29-.14-4.87-0.14-4.77.14-5.11,0.14-0.43,0-.43-0.24,0.19-.24.52-0.29c2.39-.38,2.58-2.62,2.58-5.63V184.72c0-2.86-.33-4.49-1.67-5.06a2.12,2.12,0,0,1-.86-0.48,1.3,1.3,0,0,1,.91-0.24,41.77,41.77,0,0,0,6-1.38v6.87Z" transform="translate(0.1)"/><path class="cls-2" d="M250.59,198.42c0,1.57.24,3,1.72,3.67a0.65,0.65,0,0,1,.48.29,0.59,0.59,0,0,1-.62.19H247a14.25,14.25,0,0,1-1.14-4.87h-0.1c-1.86,3.87-4.63,5.58-8.83,5.58-5,0-10.07-2.29-10.07-8,0-7.25,11.07-8,16.08-8h2.72v-1.58c0-4.58-2.15-7.83-7-7.83-4.39,0-7,1.29-8.69,5.49a2.45,2.45,0,0,1-.38.81,0.85,0.85,0,0,1-.24-0.53l-1.24-4.3c3.91-2.05,7-2.39,11.26-2.39,5.44,0,11.17,2,11.17,8v13.41Zm-4.92-10.17h-2.82c-5.15,0-10.45,1.53-10.45,7.83a5.79,5.79,0,0,0,5.92,6c5.63,0,7.35-5.92,7.35-10.5v-3.34Z" transform="translate(0.1)"/><path class="cls-2" d="M259.69,184.43h0.1c1.1-4.06,3.44-7.4,9.74-7.4,5.25,0,10.17,2.72,10.17,10.31v9.21c-0.1,4.53.52,5.2,1.91,5.68a1,1,0,0,1,.62.33c0,0.14-.24.14-0.72,0.14s-1.67-.14-4.3-0.14-4.3.14-4.92,0.14c-0.29,0-.53,0-0.53-0.14s0.1-.24.43-0.29c1.72-.19,2.58-1.48,2.58-5.73V187.3c0-4.39-2-9.07-7-9.07-5.68,0-7.54,5.82-7.54,12.51v5.82c0,3,.14,5.25,2.29,5.63,0.33,0,.53.14,0.53,0.29s-0.14.24-.43,0.24-2.29-.14-4.87-0.14-4.77.14-5.11,0.14-0.43,0-.43-0.24,0.19-.24.53-0.29c2.39-.38,2.58-2.62,2.58-5.63V184.72c0-2.86-.34-4.49-1.67-5.06a2.12,2.12,0,0,1-.86-0.48,1.29,1.29,0,0,1,.91-0.24,41.75,41.75,0,0,0,6-1.38v6.87Z" transform="translate(0.1)"/><path class="cls-2" d="M280.82,180.47a0.44,0.44,0,0,1-.48-0.43,1.33,1.33,0,0,1,1-.67c2.72-1,5-3.15,6.78-6.78a0.63,0.63,0,0,1,.53-0.48c0.24,0,.24.33,0.24,0.67v6.16h5.3l-0.33,1.53h-5V194c0,6.35,1.53,7.49,3.06,8a0.7,0.7,0,0,1,.57.34,0.8,0.8,0,0,1-.76.19h-5.78a3.39,3.39,0,0,1-2-3.48V180.47h-3.1Z" transform="translate(0.1)"/><path class="cls-2" d="M206.12,212v-4.68c0-.95-0.25-1.71-1-1.9a0.56,0.56,0,0,1-.23-0.14c0-.07.14-0.09,0.35-0.09,0.37,0,1.48.09,2.22,0.09s1.85-.09,2.22-0.09c0.21,0,.35,0,0.35.09a0.56,0.56,0,0,1-.23.14c-0.74.19-1,1-1,1.9v10.29a2.13,2.13,0,0,0,1.25,2.32,0.28,0.28,0,0,1,.21.18c0,0.07-.14.07-0.37,0.07-0.83,0-1.11-.07-2.43-0.07s-1.6.07-2.43,0.07c-0.23,0-.37,0-0.37-0.07a0.28,0.28,0,0,1,.21-0.18,2.13,2.13,0,0,0,1.25-2.32v-5h-8.83v5a2.13,2.13,0,0,0,1.25,2.32,0.28,0.28,0,0,1,.21.18c0,0.07-.14.07-0.37,0.07-0.83,0-1.11-.07-2.43-0.07s-1.6.07-2.43,0.07c-0.23,0-.37,0-0.37-0.07a0.28,0.28,0,0,1,.21-0.18,2.13,2.13,0,0,0,1.25-2.32V207.34c0-.95-0.25-1.71-1-1.9a0.56,0.56,0,0,1-.23-0.14c0-.07.14-0.09,0.35-0.09,0.37,0,1.48.09,2.22,0.09s1.85-.09,2.22-0.09c0.21,0,.35,0,0.35.09a0.56,0.56,0,0,1-.23.14c-0.74.19-1,1-1,1.9V212h8.83Z" transform="translate(0.1)"/><path class="cls-2" d="M215.79,212h4.29c1.69,0,3.17-.79,3.5-1.74a0.25,0.25,0,0,1,.18-0.21c0.07,0,.09.12,0.09,0.35v3.82c0,0.39,0,.49-0.09.49a0.45,0.45,0,0,1-.18-0.32c-0.67-1.71-2.57-1.81-4.19-1.81h-3.59v4.89c0,1.69.58,2.06,2.16,2.06h2.62a9.85,9.85,0,0,0,6-2.53,3.2,3.2,0,0,1,.63-0.49,0.06,0.06,0,0,1,.07.07,1.06,1.06,0,0,1,0,.18l-1,3.34H212.13a0.87,0.87,0,0,1-.7-0.09c0-.07.49-0.21,0.65-0.35,0.86-.67,1-1.32,1-3.43v-7.88c0-1.51-.09-2.5-1-2.73a0.82,0.82,0,0,1-.39-0.21c0-.09.09-0.14,0.44-0.14h13.09l0.63,2.18a3.34,3.34,0,0,1,.21.86,0.17,0.17,0,0,1-.12.19,0.4,0.4,0,0,1-.28-0.21c-1-1.6-3.43-2.43-5.61-2.43h-4.26V212Z" transform="translate(0.1)"/><path class="cls-2" d="M233.24,213.36L232,215.8a5.87,5.87,0,0,0-.81,2.64,1.47,1.47,0,0,0,1.25,1.48c0.19,0,.25.09,0.25,0.16s-0.12.12-.28,0.12-1-.07-2.27-0.07c-0.93,0-1.53.07-1.81,0.07s-0.3,0-.3-0.12a0.8,0.8,0,0,1,.44-0.37,14.21,14.21,0,0,0,2.69-3.66l5.68-11a0.32,0.32,0,0,1,.16-0.19h0a0.29,0.29,0,0,1,.18.19L244,217.76a5.86,5.86,0,0,0,1.55,1.92,1.44,1.44,0,0,1,.53.39c0,0.07-.12.12-0.32,0.12s-1.25-.07-2.59-0.07c-1.9,0-2.66.07-2.8,0.07a0.25,0.25,0,0,1-.23-0.07c0-.09.12-0.14,0.3-0.18a1.07,1.07,0,0,0,.65-1.2,9.51,9.51,0,0,0-1-2.64l-1.32-2.73h-5.51ZM236,208l-2.43,4.82h4.91Z" transform="translate(0.1)"/><path class="cls-2" d="M251.13,217c0,2.32.88,2.5,2.85,2.5h1.23a8.91,8.91,0,0,0,6.09-2.69,1.75,1.75,0,0,1,.49-0.55,0.14,0.14,0,0,1,.14.16,2.48,2.48,0,0,1-.09.32l-1,3.34H247.26c-0.39,0-.51,0-0.51-0.12a1.72,1.72,0,0,1,.56-0.21c0.9-.39,1.13-1.25,1.13-3.31v-9.15a1.78,1.78,0,0,0-1-1.85,0.29,0.29,0,0,1-.23-0.19c0-.07.14-0.09,0.35-0.09,0.37,0,1.48.09,2.22,0.09s1.85-.09,2.22-0.09c0.21,0,.28,0,0.28.12a0.3,0.3,0,0,1-.21.14,1.78,1.78,0,0,0-.95,1.88V217Z" transform="translate(0.1)"/><path class="cls-2" d="M265.39,206.94c0-.9-0.39-1.06-1.44-1.06a7,7,0,0,0-4.89,2.29,2.63,2.63,0,0,1-.42.39,0.13,0.13,0,0,1-.12-0.14,3.87,3.87,0,0,1,.16-0.53l0.74-2.59H274l0.74,2.59a3.87,3.87,0,0,1,.16.53,0.13,0.13,0,0,1-.12.14,2.63,2.63,0,0,1-.42-0.39,7,7,0,0,0-4.89-2.29c-1,0-1.44.16-1.44,1.06v10.68c0,1.13.3,2,1.39,2.25a0.37,0.37,0,0,1,.35.19,0.21,0.21,0,0,1-.18.14c-0.16,0-1.58-.07-2.9-0.07s-2.69.07-2.85,0.07-0.21,0-.21-0.12a0.77,0.77,0,0,1,.44-0.19c1.07-.46,1.28-1.13,1.28-3.29v-9.66Z" transform="translate(0.1)"/><path class="cls-2" d="M288.91,212v-4.68c0-.95-0.25-1.71-1-1.9a0.56,0.56,0,0,1-.23-0.14c0-.07.14-0.09,0.35-0.09,0.37,0,1.48.09,2.22,0.09s1.85-.09,2.22-0.09c0.21,0,.35,0,0.35.09a0.56,0.56,0,0,1-.23.14c-0.74.19-1,1-1,1.9v10.29a2.13,2.13,0,0,0,1.25,2.32,0.28,0.28,0,0,1,.21.18c0,0.07-.14.07-0.37,0.07-0.83,0-1.11-.07-2.43-0.07s-1.6.07-2.43,0.07c-0.23,0-.37,0-0.37-0.07a0.28,0.28,0,0,1,.21-0.18,2.13,2.13,0,0,0,1.25-2.32v-5h-8.83v5a2.13,2.13,0,0,0,1.25,2.32,0.28,0.28,0,0,1,.21.18c0,0.07-.14.07-0.37,0.07-0.83,0-1.11-.07-2.43-0.07s-1.6.07-2.43,0.07c-0.23,0-.37,0-0.37-0.07a0.28,0.28,0,0,1,.21-0.18,2.13,2.13,0,0,0,1.25-2.32V207.34c0-.95-0.25-1.71-1-1.9a0.56,0.56,0,0,1-.23-0.14c0-.07.14-0.09,0.35-0.09,0.37,0,1.48.09,2.22,0.09s1.85-.09,2.22-0.09c0.21,0,.35,0,0.35.09a0.56,0.56,0,0,1-.23.14c-0.74.19-1,1-1,1.9V212h8.83Z" transform="translate(0.1)"/><path class="cls-2" d="M149.51,188.16c-0.19,3.65-.78,6.4-2.78,9.23a12.26,12.26,0,0,1-13.46,4.72c-5.24-1.48-11.16-8.41-7.73-16.25a10.24,10.24,0,0,1,7.6-6,11,11,0,0,0-8.89,4.19,13,13,0,0,0,4.26,19.66,14.9,14.9,0,0,0,19.37-6.06A16,16,0,0,0,149.51,188.16Z" transform="translate(0.1)"/><path class="cls-2" d="M120.18,192.73c0.19-3.65.78-6.4,2.78-9.23a12.26,12.26,0,0,1,13.46-4.72c5.24,1.48,11.16,8.41,7.73,16.25a10.24,10.24,0,0,1-7.6,6,11,11,0,0,0,8.89-4.19,13,13,0,0,0-4.26-19.66,14.9,14.9,0,0,0-19.37,6.06A16,16,0,0,0,120.18,192.73Z" transform="translate(0.1)"/><path class="cls-2" d="M296.25,217.62a1.39,1.39,0,0,1,.42,1,1.4,1.4,0,0,1-.42,1,1.43,1.43,0,0,1-2,0,1.41,1.41,0,0,1-.42-1A1.43,1.43,0,0,1,296.25,217.62Zm0.17-.16a1.67,1.67,0,0,0-2.36,2.36,1.66,1.66,0,0,0,2.36,0,1.62,1.62,0,0,0,.49-1.18A1.6,1.6,0,0,0,296.42,217.46Zm-0.94,1.1a0.87,0.87,0,0,1-.31,0h-0.29v-0.66h0.28a0.84,0.84,0,0,1,.39.07,0.28,0.28,0,0,1,.12.27A0.28,0.28,0,0,1,295.49,218.56Zm-0.92,1h0.32v-0.72h0.26a0.78,0.78,0,0,1,.36.06,0.45,0.45,0,0,1,.17.42v0.24H296v0a0.33,0.33,0,0,1,0-.1s0-.09,0-0.14v-0.13a0.51,0.51,0,0,0-.1-0.29,0.45,0.45,0,0,0-.32-0.18,0.7,0.7,0,0,0,.27-0.09,0.4,0.4,0,0,0,.18-0.36,0.45,0.45,0,0,0-.28-0.46,1.4,1.4,0,0,0-.5-0.07h-0.64v1.83Z" transform="translate(0.1)"/><rect class="cls-2" x="35.6" y="157.98" width="259.6" height="1.13"/></svg>