<svg id="Layer_1" data-name="Layer 1" xmlns="http://www.w3.org/2000/svg" viewBox="0 0 360 220.13"><defs><style>.cls-1{fill:#929497;}.cls-2{fill:#002e6d;}</style></defs><title>patricia-neal-rehabilitation-center</title><path class="cls-1" d="M48.85,151.2H46l-5.2-6.55h-2.5v6.55H36.12V134.75h4.24a15.21,15.21,0,0,1,2.37.15,4.67,4.67,0,0,1,1.82.72A4.11,4.11,0,0,1,45.92,137a4.27,4.27,0,0,1,.5,2.16,4.87,4.87,0,0,1-.92,3A5.39,5.39,0,0,1,43,144Zm-4.71-11.82a3,3,0,0,0-.25-1.27,2.15,2.15,0,0,0-.78-0.91,3,3,0,0,0-1.08-.44,7.8,7.8,0,0,0-1.54-.13H38.31v6.2h1.92a7.88,7.88,0,0,0,1.69-.17,2.59,2.59,0,0,0,1.28-.68,2.84,2.84,0,0,0,.7-1.1A4.5,4.5,0,0,0,44.13,139.38Z"/><path class="cls-1" d="M57.65,151.49a6.13,6.13,0,0,1-4.59-1.66,6.47,6.47,0,0,1-1.63-4.73A7,7,0,0,1,53,140.28a5.27,5.27,0,0,1,4.14-1.79,5.77,5.77,0,0,1,2,.33,4.05,4.05,0,0,1,1.55,1,4.78,4.78,0,0,1,1,1.73,7.73,7.73,0,0,1,.35,2.51v1.13H53.55a4.6,4.6,0,0,0,1.08,3.29,3.94,3.94,0,0,0,3,1.14,5.86,5.86,0,0,0,1.34-.15,6.34,6.34,0,0,0,1.19-.4,8.58,8.58,0,0,0,1-.49,5.71,5.71,0,0,0,.64-0.45h0.12v2.26l-0.91.36a10,10,0,0,1-1,.34q-0.61.17-1.1,0.25A7.24,7.24,0,0,1,57.65,151.49Zm2.43-7.85a5.75,5.75,0,0,0-.2-1.44,3,3,0,0,0-.51-1,2.33,2.33,0,0,0-.93-0.71,4.16,4.16,0,0,0-2.82,0,3.35,3.35,0,0,0-1.05.72,3.45,3.45,0,0,0-.71,1.08,4.63,4.63,0,0,0-.31,1.37h6.53Z"/><path class="cls-1" d="M76.62,151.2H74.55v-7a14.22,14.22,0,0,0-.08-1.59,3.38,3.38,0,0,0-.31-1.18,1.62,1.62,0,0,0-.71-0.69,2.8,2.8,0,0,0-1.24-.23,3.53,3.53,0,0,0-1.59.42A8.23,8.23,0,0,0,69,142v9.23H66.93V134H69v6.19a8.17,8.17,0,0,1,1.83-1.27,4.29,4.29,0,0,1,1.91-.44,3.54,3.54,0,0,1,2.85,1.2,5.22,5.22,0,0,1,1,3.48v8Z"/><path class="cls-1" d="M89.15,149.9l-0.68.52a4.79,4.79,0,0,1-.82.54,6.19,6.19,0,0,1-1.07.44,5.24,5.24,0,0,1-1.44.15,3.73,3.73,0,0,1-2.65-1.09,3.77,3.77,0,0,1-.8-1.25,4.51,4.51,0,0,1,.24-3.76A3.7,3.7,0,0,1,83.65,144a8.5,8.5,0,0,1,2.45-.66q1.41-.18,3-0.27v-0.4a2.73,2.73,0,0,0-.22-1.19,1.65,1.65,0,0,0-.62-0.7,2.41,2.41,0,0,0-1-.34,8.2,8.2,0,0,0-1.18-.08,7.86,7.86,0,0,0-1.69.22,11.21,11.21,0,0,0-1.94.63H82.41v-2.1q0.57-.16,1.65-0.36a11.67,11.67,0,0,1,2.12-.2,9.82,9.82,0,0,1,2.14.2,4.13,4.13,0,0,1,1.57.72,3.08,3.08,0,0,1,1,1.31,5.18,5.18,0,0,1,.33,2v8.44H89.15v-1.3Zm0-1.72v-3.41l-1.87.18a10.19,10.19,0,0,0-1.83.32,3.34,3.34,0,0,0-1.37.77,1.92,1.92,0,0,0-.54,1.45,2,2,0,0,0,.6,1.59,2.53,2.53,0,0,0,1.75.54,3.75,3.75,0,0,0,1.78-.42A7.71,7.71,0,0,0,89.15,148.18Z"/><path class="cls-1" d="M107.23,144.82a7.61,7.61,0,0,1-1.47,4.88,4.53,4.53,0,0,1-3.69,1.85,5.27,5.27,0,0,1-1.72-.25,7.55,7.55,0,0,1-1.41-.67l-0.13.56H96.86V134h2.07v6.11a7.8,7.8,0,0,1,1.71-1.17,4.56,4.56,0,0,1,2.08-.46,3.85,3.85,0,0,1,3.3,1.68A7.83,7.83,0,0,1,107.23,144.82Zm-2.15.17a6.74,6.74,0,0,0-.68-3.37,2.33,2.33,0,0,0-2.17-1.15,4.13,4.13,0,0,0-1.72.4,6.68,6.68,0,0,0-1.58,1V149a7.59,7.59,0,0,0,1.4.55,5.24,5.24,0,0,0,1.34.16,3,3,0,0,0,2.51-1.13A5.69,5.69,0,0,0,105.09,145Z"/><path class="cls-1" d="M114.35,136.78H112v-2.15h2.36v2.15Zm-0.14,14.43h-2.07V138.85h2.07V151.2Z"/><path class="cls-1" d="M122.12,151.2H120V134h2.07V151.2Z"/><path class="cls-1" d="M130.17,136.78h-2.36v-2.15h2.36v2.15ZM130,151.2H128V138.85H130V151.2Z"/><path class="cls-1" d="M139.57,151.44a3.57,3.57,0,0,1-2.66-1,4.2,4.2,0,0,1-1-3.05V140.6h-1.41v-1.74H136v-3.54H138v3.54h3.84v1.74H138v5.86q0,0.94,0,1.45a2.44,2.44,0,0,0,.26.95,1.21,1.21,0,0,0,.61.58,2.79,2.79,0,0,0,1.14.19,3.27,3.27,0,0,0,1-.15,5.85,5.85,0,0,0,.69-0.25h0.12v1.86a10.17,10.17,0,0,1-1.19.26A7.33,7.33,0,0,1,139.57,151.44Z"/><path class="cls-1" d="M153,149.9l-0.68.52a4.79,4.79,0,0,1-.82.54,6.19,6.19,0,0,1-1.07.44,5.24,5.24,0,0,1-1.44.15,3.73,3.73,0,0,1-2.65-1.09,3.77,3.77,0,0,1-.8-1.25,4.51,4.51,0,0,1,.24-3.76A3.69,3.69,0,0,1,147.5,144a8.5,8.5,0,0,1,2.45-.66q1.41-.18,3-0.27v-0.4a2.73,2.73,0,0,0-.22-1.19,1.65,1.65,0,0,0-.62-0.7,2.41,2.41,0,0,0-1-.34,8.2,8.2,0,0,0-1.18-.08,7.86,7.86,0,0,0-1.69.22,11.21,11.21,0,0,0-1.94.63h-0.12v-2.1q0.57-.16,1.65-0.36a11.67,11.67,0,0,1,2.12-.2,9.82,9.82,0,0,1,2.14.2,4.13,4.13,0,0,1,1.57.72,3.08,3.08,0,0,1,1,1.31,5.18,5.18,0,0,1,.33,2v8.44H153v-1.3Zm0-1.72v-3.41l-1.87.18a10.19,10.19,0,0,0-1.83.32,3.34,3.34,0,0,0-1.37.77,1.92,1.92,0,0,0-.54,1.45,2,2,0,0,0,.6,1.59,2.53,2.53,0,0,0,1.75.54,3.75,3.75,0,0,0,1.78-.42A7.71,7.71,0,0,0,153,148.18Z"/><path class="cls-1" d="M164.45,151.44a3.57,3.57,0,0,1-2.66-1,4.21,4.21,0,0,1-1-3.05V140.6h-1.41v-1.74h1.41v-3.54h2.07v3.54h3.84v1.74h-3.84v5.86q0,0.94,0,1.45a2.44,2.44,0,0,0,.26.95,1.21,1.21,0,0,0,.61.58,2.79,2.79,0,0,0,1.14.19,3.27,3.27,0,0,0,1-.15,5.86,5.86,0,0,0,.69-0.25h0.12v1.86a10.19,10.19,0,0,1-1.19.26A7.34,7.34,0,0,1,164.45,151.44Z"/><path class="cls-1" d="M173.26,136.78h-2.36v-2.15h2.36v2.15Zm-0.14,14.43H171V138.85h2.07V151.2Z"/><path class="cls-1" d="M189,145a7.06,7.06,0,0,1-1.5,4.82,5.06,5.06,0,0,1-4,1.7,5,5,0,0,1-4-1.76A7.19,7.19,0,0,1,178,145a7,7,0,0,1,1.52-4.82,5.51,5.51,0,0,1,8,0A7.09,7.09,0,0,1,189,145Zm-2.15,0a5.94,5.94,0,0,0-.87-3.56,3.24,3.24,0,0,0-5,0,7.57,7.57,0,0,0,0,7.07,3.19,3.19,0,0,0,5,0A5.89,5.89,0,0,0,186.88,145Z"/><path class="cls-1" d="M203.58,151.2H201.5v-7a14.22,14.22,0,0,0-.08-1.59,3.38,3.38,0,0,0-.31-1.18,1.62,1.62,0,0,0-.71-0.69,2.8,2.8,0,0,0-1.24-.23,3.53,3.53,0,0,0-1.59.42A8.23,8.23,0,0,0,196,142v9.23h-2.07V138.85H196v1.36a8.17,8.17,0,0,1,1.83-1.27,4.29,4.29,0,0,1,1.91-.44,3.54,3.54,0,0,1,2.85,1.2,5.22,5.22,0,0,1,1,3.48v8Z"/><path class="cls-1" d="M225.47,151.51a7.93,7.93,0,0,1-3-.54,6.31,6.31,0,0,1-2.34-1.62,7.4,7.4,0,0,1-1.53-2.68,11.48,11.48,0,0,1-.54-3.68,11.17,11.17,0,0,1,.53-3.61,7.8,7.8,0,0,1,1.53-2.68,6.55,6.55,0,0,1,2.33-1.69,7.56,7.56,0,0,1,3-.58,9.4,9.4,0,0,1,1.55.12,10.83,10.83,0,0,1,1.34.31,10.08,10.08,0,0,1,1.09.41q0.56,0.25,1.1.55v2.64h-0.18q-0.29-.26-0.74-0.63a7.36,7.36,0,0,0-1.1-.73,7.16,7.16,0,0,0-1.37-.56,6.05,6.05,0,0,0-1.71-.22,4.67,4.67,0,0,0-3.63,1.7,6,6,0,0,0-1.08,2.11,9.82,9.82,0,0,0-.39,2.86,9.21,9.21,0,0,0,.41,2.91,6.23,6.23,0,0,0,1.12,2.06,4.45,4.45,0,0,0,1.61,1.23,4.77,4.77,0,0,0,2,.41,6.3,6.3,0,0,0,1.76-.23,6.69,6.69,0,0,0,1.44-.59,7.48,7.48,0,0,0,1-.71q0.44-.36.7-0.62h0.17v2.61l-1,.49a9.14,9.14,0,0,1-1.17.45,11.81,11.81,0,0,1-1.33.35A8.54,8.54,0,0,1,225.47,151.51Z"/><path class="cls-1" d="M240.53,151.49a6.13,6.13,0,0,1-4.58-1.66,6.47,6.47,0,0,1-1.63-4.73,7,7,0,0,1,1.58-4.81A5.26,5.26,0,0,1,240,138.5a5.78,5.78,0,0,1,2,.33,4.05,4.05,0,0,1,1.55,1,4.78,4.78,0,0,1,1,1.73,7.74,7.74,0,0,1,.35,2.51v1.13h-8.56a4.6,4.6,0,0,0,1.08,3.29,3.94,3.94,0,0,0,3,1.14,5.87,5.87,0,0,0,1.34-.15,6.35,6.35,0,0,0,1.19-.4,8.58,8.58,0,0,0,1-.49,5.71,5.71,0,0,0,.64-0.45h0.12v2.26l-0.91.36a10,10,0,0,1-1,.34q-0.61.17-1.1,0.25A7.23,7.23,0,0,1,240.53,151.49Zm2.43-7.85a5.75,5.75,0,0,0-.2-1.44,3,3,0,0,0-.51-1,2.33,2.33,0,0,0-.93-0.71,4.16,4.16,0,0,0-2.82,0,3.36,3.36,0,0,0-1.05.72,3.45,3.45,0,0,0-.71,1.08,4.63,4.63,0,0,0-.31,1.37H243Z"/><path class="cls-1" d="M259.5,151.2h-2.07v-7a14.23,14.23,0,0,0-.08-1.59,3.38,3.38,0,0,0-.31-1.18,1.62,1.62,0,0,0-.71-0.69,2.79,2.79,0,0,0-1.24-.23,3.53,3.53,0,0,0-1.59.42,8.23,8.23,0,0,0-1.61,1.08v9.23h-2.07V138.85h2.07v1.36a8.17,8.17,0,0,1,1.83-1.27,4.29,4.29,0,0,1,1.91-.44,3.54,3.54,0,0,1,2.85,1.2,5.22,5.22,0,0,1,1,3.48v8Z"/><path class="cls-1" d="M268.88,151.44a3.57,3.57,0,0,1-2.66-1,4.21,4.21,0,0,1-1-3.05V140.6h-1.41v-1.74h1.41v-3.54h2.07v3.54h3.84v1.74h-3.84v5.86q0,0.94,0,1.45a2.44,2.44,0,0,0,.26.95,1.21,1.21,0,0,0,.61.58,2.79,2.79,0,0,0,1.14.19,3.27,3.27,0,0,0,1-.15,5.87,5.87,0,0,0,.69-0.25h0.12v1.86a10.2,10.2,0,0,1-1.19.26A7.34,7.34,0,0,1,268.88,151.44Z"/><path class="cls-1" d="M280.78,151.49a6.13,6.13,0,0,1-4.58-1.66,6.47,6.47,0,0,1-1.63-4.73,7,7,0,0,1,1.58-4.81,5.26,5.26,0,0,1,4.14-1.79,5.78,5.78,0,0,1,2,.33,4.05,4.05,0,0,1,1.55,1,4.78,4.78,0,0,1,1,1.73,7.74,7.74,0,0,1,.35,2.51v1.13h-8.56a4.6,4.6,0,0,0,1.08,3.29,3.94,3.94,0,0,0,3,1.14,5.87,5.87,0,0,0,1.34-.15,6.35,6.35,0,0,0,1.19-.4,8.58,8.58,0,0,0,1-.49,5.71,5.71,0,0,0,.64-0.45H285v2.26l-0.91.36a10,10,0,0,1-1,.34q-0.61.17-1.1,0.25A7.23,7.23,0,0,1,280.78,151.49Zm2.43-7.85a5.75,5.75,0,0,0-.2-1.44,3,3,0,0,0-.51-1,2.33,2.33,0,0,0-.93-0.71,4.16,4.16,0,0,0-2.82,0,3.35,3.35,0,0,0-1.05.72,3.45,3.45,0,0,0-.71,1.08,4.62,4.62,0,0,0-.31,1.37h6.53Z"/><path class="cls-1" d="M296.59,141.09h-0.11A2.42,2.42,0,0,0,296,141l-0.62,0a4.09,4.09,0,0,0-1.67.36,5.35,5.35,0,0,0-1.57,1.08v8.76h-2.07V138.85h2.07v1.84a9.49,9.49,0,0,1,2-1.42,3.71,3.71,0,0,1,1.64-.41l0.48,0,0.36,0.05v2.17Z"/><path class="cls-2" d="M3,151.06a3,3,0,0,1-3-3.23C2,119.6,14.65,76.36,37.61,48.1c12.71-15.65,35.63-28.65,48.17-35a230,230,0,0,1,22.49-10C119.24-1,120.42-.13,121.56.76a7.4,7.4,0,0,1,2.5,5.42c0.33,4.3-1.42,13.95-16.86,30.28-10.71,11.33-29.44,28-55.81,49.7a227.46,227.46,0,0,1-13.13,24.93C25.22,132.46,15.81,142,4.86,150.43A3,3,0,0,1,3,151.06ZM118,6.23c-9,2.06-55.94,21.3-75.74,45.67-20.28,25-32.2,62.14-35.56,89.21,8.22-7.17,16.1-16.33,26.39-33.17,2.5-4.08,4.88-8.31,7.17-12.71l-5,4a3,3,0,1,1-3.79-4.7q7.84-6.32,14.94-12.15c6.11-13.7,11.63-29.29,17-47.94a3,3,0,1,1,5.8,1.68C65.19,50.36,61,62.83,56.52,74.08c21.47-17.93,37-31.93,46.29-41.77C116.86,17.45,118.46,9,118,6.23Z"/><path class="cls-2" d="M57,122.9A6.17,6.17,0,0,1,55,122.6c-3.84-1.27-5.72-6-4.68-11.79C52.44,99.17,61.78,85.06,76,72.09A3,3,0,0,1,80,76.55q-1.41,1.29-2.71,2.55a3,3,0,0,1,4.11,4c-0.89,1.94-1.7,4.07-2.64,6.52-1.22,3.2-2.73,7.17-5.07,12.44A55.42,55.42,0,0,0,71,114.74c1.44-1.27,4.07-4.16,8.46-10.68A248.58,248.58,0,0,0,93.28,81.25c4.53-10.45,9.36-22.92,11.46-31.39a3,3,0,0,1,5.91,1.2c-1.55,9.65-5.47,20.46-11.86,32.68-2.1,4.84-4.1,9.17-5.69,12.41-3.74,7.63-4.38,14.21-3.39,17.09a1.91,1.91,0,0,0,.64,1,3,3,0,0,1-2.64,5.42A7.42,7.42,0,0,1,84,115.2a16.67,16.67,0,0,1-.73-6C75.8,120,71.34,123.34,67.6,121.14a4.83,4.83,0,0,1-2.3-3.32C62,121.94,59,122.9,57,122.9ZM76,80.37c-15.39,15.31-18.93,27-19.75,31.51-0.6,3.34.34,4.9,0.63,5s3.35-.86,7.05-8.32c1.6-3.22,2.93-6,4.06-8.57a133.24,133.24,0,0,1,8-19.56Z"/><path class="cls-2" d="M93.4,81.78a3,3,0,0,1-2.09-5.19l1-1c7.11-6.88,19-18.39,34.93-20a3,3,0,0,1,1.47,5.78,2.87,2.87,0,0,0-.79.49,6.65,6.65,0,0,1-2,1.14,3,3,0,0,1-3-.55C111.51,65.44,102.63,74,96.51,80l-1,1A3,3,0,0,1,93.4,81.78Z"/><path class="cls-2" d="M93.93,115.52a3,3,0,0,1-2-5.25c2.73-2.49,8.59-10,13.76-16.56,3.84-4.9,7.47-9.52,10-12.45a3,3,0,1,1,4.53,4c-2.47,2.81-6,7.37-9.83,12.2-5.58,7.11-11.35,14.46-14.44,17.29A3,3,0,0,1,93.93,115.52Z"/><path class="cls-2" d="M103.67,128.71a3,3,0,0,1-2.93-3.74c2.65-10.72,6.91-20.84,11-30.63l1.72-4.11a3,3,0,0,1,5.57,2.32l-1.73,4.12c-4,9.58-8.19,19.48-10.73,29.74A3,3,0,0,1,103.67,128.71Z"/><path class="cls-2" d="M132.31,86a3,3,0,0,1-2.93-3.74c0-.12.06-0.23,0.09-0.33s0-.14,0-0.21h0v0l0.08-.34a3,3,0,1,1,5.86,1.45l-0.05.19,0,0.14-0.14.56A3,3,0,0,1,132.31,86Z"/><path class="cls-2" d="M182.08,78.62a3,3,0,0,1-2.93-3.74c0-.12.06-0.23,0.09-0.33s0-.14,0-0.2h0l0.08-.34a3,3,0,1,1,5.86,1.45l-0.05.19,0,0.13h0l-0.14.56A3,3,0,0,1,182.08,78.62Z"/><path class="cls-2" d="M115.38,124.95a3,3,0,0,1-2.38-4.87c3.25-4.19,9.3-17,12.33-25.2A3,3,0,1,1,131,97c-2.81,7.62-9.14,21.56-13.22,26.82A3,3,0,0,1,115.38,124.95Z"/><path class="cls-2" d="M201.09,123.18c-4.06,0-5.8-2.44-7.06-4.87-3.82,2.24-8.75,3.5-12.41,2.36-3.49-1.09-5.52-4.09-5.56-8.23q0-.16,0-0.32a44,44,0,0,1-6.74,6.14c-3,2.09-7.26,4.62-10.49,2.34-2.19-1.54-2.67-4.38-2.17-8.22-7.74,7.19-13.9,11.18-18.51,9.38-5.63-2.2-7.86-7.17-6-13.3,2.31-7.5,10.89-16.3,16.5-15a3,3,0,0,1-1.27,5.9c-2,.1-8.7,6.21-9.74,12-0.44,2.47.33,3.85,2.68,4.77,0,0,1.95.65,9-5.31,4-3.41,8.38-7.81,12.41-12a42.73,42.73,0,0,1,3.86-4c1.59-1.65,3.08-3.19,4.39-4.46a3,3,0,0,1,4.62,3.84,26,26,0,0,1-3.93,4.15l-0.84.78-1.48,1.54-2,2.09a11.63,11.63,0,0,0-2.28,4c-1.42,5.07-1.62,7.43-1.57,8.48a16,16,0,0,0,3.32-1.93c3.32-2.35,6.42-5.94,9.42-9.42,3.33-3.86,6.55-7.58,10.1-9.76a17,17,0,0,1,6.75-3.79c3.57-.76,5.19.61,5.84,1.49a3.62,3.62,0,0,1,.21,4c-1,1.78-3.26,2.7-6,2.45a5.79,5.79,0,0,0-3.33.86c-3.28,3-6.78,7.86-6.73,13.24,0,2.13.86,2.39,1.32,2.53,2.85,0.89,8.75-1.78,10.44-4.19l0.09-.13c0.56-2.06,1.4-4.47,2.44-7.35,0.44-1.22.89-2.47,1.31-3.71a3,3,0,0,1,5.78,1.7c-0.18.73-.32,1.48-0.47,2.28a24.42,24.42,0,0,1-3.47,9.57,6.11,6.11,0,0,0-.25,2.27c0.95,1.88,1.05,1.87,2.19,1.78a3,3,0,1,1,.48,6Q201.51,123.19,201.09,123.18Z"/><path class="cls-2" d="M210.71,139.89a3,3,0,0,1-2.93-3.72c4.09-17.12,25.83-110,27.18-119a3,3,0,0,1,6,.9c-0.43,2.85-2.69,13.21-5.75,26.75,5.34-14.78,9.14-20.46,13-21.2a3.56,3.56,0,0,1,2.87.23c3.63,2,4.84,9.93,5.85,59,0.23,11.11.45,21.61,0.88,24.31,1,6.22,2.68,6.1,4,6a15.15,15.15,0,0,0,4.76-1.62,71.61,71.61,0,0,1,2.82-12.51c2.24-6.86,6.61-10.05,10-10.74a6.34,6.34,0,0,1,6.22,1.87c1.1,1.24,2.67,4.12.86,9.45-2.36,7-8.46,12.35-14.15,15.7-0.19,3.17,0,5.5.5,6.49,4.75-.52,10.66-8.08,15.44-14.21,1.14-1.46,2.25-2.88,3.34-4.22,3.39-5.91,8.82-10.17,12.33-11s5.21,0.46,5.88,1.32a3.62,3.62,0,0,1,.33,4c-1,1.81-3.17,2.79-5.93,2.63h-0.08c-1.73,0-4.67,3.11-7.53,6.57a15.25,15.25,0,0,0-2,7.82c0.08,2.13.93,2.37,1.39,2.49,2.87,0.8,8.69-2,10.32-4.49l0.09-.13c0.5-2.07,1.27-4.51,2.22-7.42,0.4-1.23.81-2.49,1.2-3.74a3,3,0,0,1,5.83,1.53c-0.16.73-.28,1.49-0.4,2.29a24.42,24.42,0,0,1-3.19,9.67,6.1,6.1,0,0,0-.18,2.27c0.88,1.63,1.07,1.81,1.87,1.75,1.21-.82,4.18-4.11,11.42-14.83l0.1-.38c0.21-.81.42-1.62,0.63-2.43l0.08-.33c2.26-9,7.56-30,21.4-48.15,2.81-3.67,7-9.22,10.88-6.56,2,1.41,2.8,4.14,0,12.95A66.34,66.34,0,0,1,352.67,72l-2.08,3.37c-8.64,14-15.07,24.06-19.92,31.27-2.07,8.1-2.82,13.3,1.37,16.25a3,3,0,1,1-3.48,4.93A12.78,12.78,0,0,1,323,117.4c-4.82,6.24-6.76,7.27-8.3,7.44-4.68.51-6.65-2-8.07-4.6-3.76,2.35-8.64,3.75-12.33,2.72a7.69,7.69,0,0,1-5.59-6.27c-5.05,6.09-10.37,11.19-16.42,11.19h-0.06a5.07,5.07,0,0,1-4.14-2.22c-1.24-1.72-1.79-4.37-1.88-7.43a15.63,15.63,0,0,1-4,1c-8.52.6-9.93-8.18-10.4-11.07-0.5-3.12-.7-12.84-1-25.15-0.32-15.75-.9-43.61-2.66-52.18-1.69,2.27-5,8.48-10.58,25.38-4.91,15-9.89,33.11-14.29,49.11-5.13,18.67-8.13,29.41-10,33A3,3,0,0,1,210.71,139.89ZM281,94.17a2.57,2.57,0,0,0-1,.26c-1.52.68-3.58,2.75-4.8,6.49a63.36,63.36,0,0,0-1.7,6.26c3.17-2.57,6-5.82,7.28-9.49,0.79-2.32.47-3.36,0.34-3.51H281Zm72.11-39-1,1.25c-7.7,10.07-12.63,21.21-15.82,30.43,2.73-4.31,5.78-9.19,9.18-14.71l2.1-3.4A63.88,63.88,0,0,0,353.07,55.19Z"/><path class="cls-2" d="M119.82,199.12c-4.85,3.92-11.25,5.25-17.42,5.25-11.31,0-21.81-6.35-21.81-19.61,0-11.88,10.5-19.61,21.81-19.61,5.31,0,11.83,1.38,16.56,4.38l-1.79,5.42a6.74,6.74,0,0,1-.81,2,3.37,3.37,0,0,1-.63-1.5c-1.21-5-4.79-9-13.33-9.21-10.5,0-15.24,10-15.24,18.56s5.2,18.56,17.55,18.56c5.65,0,9.92-3.45,12.46-9.27,0.29-.69.35-1.21,0.63-1.21s0.29,0.17.52,1Z"/><path class="cls-2" d="M162.19,197.35l6.1-11.87a13.77,13.77,0,0,0,1.62-5c0-1.62-1-2.19-2.19-2.58a0.44,0.44,0,0,1-.43-0.29c0-.14.19-0.19,0.48-0.19,1.24,0,1.67.19,3.62,0.19s2.29-.19,3.53-0.19c0.33,0,.62,0,0.62.14a0.77,0.77,0,0,1-.43.57c-1.57,1.1-3.24,3.62-4.86,6.53L161,202.46a1.36,1.36,0,0,1-.57.67h-0.1a1.44,1.44,0,0,1-.48-0.72l-8.35-16.26c-1.81-3.62-3.34-6.72-5.34-8.06a1,1,0,0,1-.57-0.48c0-.19.29-0.19,0.62-0.19,0.76,0,2,.19,4.25.19s3.91-.19,4.29-0.19a0.69,0.69,0,0,1,.62.19,0.59,0.59,0,0,1-.43.38,1.71,1.71,0,0,0-1.34,1.81,9.53,9.53,0,0,0,1.19,3.24Z"/><path class="cls-2" d="M177.5,186.67c-0.1,1.1-.14,2.1-0.14,3.1,0,8.87,4.58,12.16,9.2,12.16,5.48,0,9.54-3.77,11.16-9.35h1c-1.53,6.58-6.3,10.54-12.78,10.54-8.11,0-14.12-5.48-14.12-13.11s6-13.11,14.12-13.11c5.2,0,11.49,3.15,12.16,9.78H177.5Zm14.59-.91c0-4.67-2.24-8-7.2-8-4.34,0-6.68,3.86-7.2,8h14.4Z"/><path class="cls-2" d="M204.8,184.29h0.1c1.1-4.05,3.44-7.39,9.73-7.39,5.25,0,10.16,2.72,10.16,10.3v9.2c-0.1,4.53.52,5.2,1.91,5.67a1,1,0,0,1,.62.33c0,0.14-.24.14-0.72,0.14s-1.67-.14-4.29-0.14-4.29.14-4.91,0.14c-0.29,0-.52,0-0.52-0.14s0.1-.24.43-0.29c1.72-.19,2.58-1.48,2.58-5.72v-9.25c0-4.39-2-9.06-7-9.06-5.68,0-7.54,5.82-7.54,12.5v5.82c0,3,.14,5.25,2.29,5.63,0.33,0,.52.14,0.52,0.29s-0.14.24-.43,0.24-2.29-.14-4.87-0.14-4.77.14-5.1,0.14-0.43,0-.43-0.24,0.19-.24.52-0.29c2.38-.38,2.58-2.62,2.58-5.63V184.57c0-2.86-.33-4.48-1.67-5.05a2.12,2.12,0,0,1-.86-0.48,1.29,1.29,0,0,1,.91-0.24,41.74,41.74,0,0,0,6-1.38v6.87Z"/><path class="cls-2" d="M250.49,198.26c0,1.57.24,3,1.72,3.67a0.65,0.65,0,0,1,.48.29,0.59,0.59,0,0,1-.62.19h-5.15a14.24,14.24,0,0,1-1.14-4.86h-0.1c-1.86,3.86-4.63,5.58-8.82,5.58-5,0-10.06-2.29-10.06-8,0-7.25,11.06-8,16.07-8h2.72v-1.57c0-4.58-2.15-7.82-7-7.82-4.39,0-7,1.29-8.68,5.48a2.44,2.44,0,0,1-.38.81,0.85,0.85,0,0,1-.24-0.53l-1.24-4.29c3.91-2.05,7-2.38,11.25-2.38,5.44,0,11.16,2,11.16,8v13.4Zm-4.91-10.16h-2.81c-5.15,0-10.44,1.53-10.44,7.82a5.79,5.79,0,0,0,5.91,6c5.63,0,7.34-5.91,7.34-10.49V188.1Z"/><path class="cls-2" d="M259.59,184.29h0.1c1.1-4.05,3.43-7.39,9.73-7.39,5.25,0,10.16,2.72,10.16,10.3v9.2c-0.1,4.53.52,5.2,1.91,5.67a1,1,0,0,1,.62.33c0,0.14-.24.14-0.72,0.14s-1.67-.14-4.29-0.14-4.29.14-4.91,0.14c-0.29,0-.53,0-0.53-0.14s0.1-.24.43-0.29c1.72-.19,2.58-1.48,2.58-5.72v-9.25c0-4.39-2-9.06-7-9.06-5.68,0-7.54,5.82-7.54,12.5v5.82c0,3,.14,5.25,2.29,5.63,0.33,0,.52.14,0.52,0.29s-0.14.24-.43,0.24-2.29-.14-4.86-0.14-4.77.14-5.1,0.14-0.43,0-.43-0.24,0.19-.24.53-0.29c2.38-.38,2.58-2.62,2.58-5.63V184.57c0-2.86-.33-4.48-1.67-5.05a2.12,2.12,0,0,1-.86-0.48,1.29,1.29,0,0,1,.91-0.24,41.72,41.72,0,0,0,6-1.38v6.87Z"/><path class="cls-2" d="M280.69,180.33a0.44,0.44,0,0,1-.48-0.43,1.33,1.33,0,0,1,1-.67c2.72-1,5-3.15,6.77-6.77a0.63,0.63,0,0,1,.52-0.48c0.24,0,.24.33,0.24,0.67v6.15H294l-0.33,1.53h-5v13.54c0,6.34,1.53,7.49,3.05,8a0.7,0.7,0,0,1,.57.33,0.8,0.8,0,0,1-.76.19H285.8a3.39,3.39,0,0,1-2-3.48v-18.6h-3.1Z"/><path class="cls-2" d="M206.06,211.85v-4.68c0-.95-0.25-1.71-1-1.9a0.56,0.56,0,0,1-.23-0.14c0-.07.14-0.09,0.35-0.09,0.37,0,1.48.09,2.22,0.09s1.85-.09,2.22-0.09c0.21,0,.35,0,0.35.09a0.56,0.56,0,0,1-.23.14c-0.74.19-1,1-1,1.9v10.28a2.13,2.13,0,0,0,1.25,2.32,0.28,0.28,0,0,1,.21.18c0,0.07-.14.07-0.37,0.07-0.83,0-1.11-.07-2.43-0.07S205.8,220,205,220c-0.23,0-.37,0-0.37-0.07a0.28,0.28,0,0,1,.21-0.18,2.13,2.13,0,0,0,1.25-2.32v-5h-8.82v5a2.13,2.13,0,0,0,1.25,2.32,0.28,0.28,0,0,1,.21.18c0,0.07-.14.07-0.37,0.07-0.83,0-1.11-.07-2.43-0.07s-1.6.07-2.43,0.07c-0.23,0-.37,0-0.37-0.07a0.28,0.28,0,0,1,.21-0.18,2.13,2.13,0,0,0,1.25-2.32V207.17c0-.95-0.25-1.71-1-1.9a0.56,0.56,0,0,1-.23-0.14c0-.07.14-0.09,0.35-0.09,0.37,0,1.48.09,2.22,0.09s1.85-.09,2.22-0.09c0.21,0,.35,0,0.35.09a0.56,0.56,0,0,1-.23.14c-0.74.19-1,1-1,1.9v4.68h8.82Z"/><path class="cls-2" d="M215.72,211.85H220c1.69,0,3.17-.79,3.5-1.74a0.25,0.25,0,0,1,.18-0.21c0.07,0,.09.12,0.09,0.35v3.82c0,0.39,0,.49-0.09.49a0.45,0.45,0,0,1-.18-0.32c-0.67-1.71-2.57-1.81-4.19-1.81h-3.59v4.88c0,1.69.58,2.06,2.15,2.06h2.61a9.85,9.85,0,0,0,6-2.52,3.19,3.19,0,0,1,.62-0.49,0.06,0.06,0,0,1,.07.07,1.06,1.06,0,0,1,0,.18l-1,3.33h-14.1a0.87,0.87,0,0,1-.69-0.09c0-.07.49-0.21,0.65-0.35,0.86-.67,1-1.32,1-3.43v-7.87c0-1.5-.09-2.5-1-2.73a0.82,0.82,0,0,1-.39-0.21c0-.09.09-0.14,0.44-0.14h13.08l0.62,2.18a3.34,3.34,0,0,1,.21.86,0.17,0.17,0,0,1-.12.19,0.4,0.4,0,0,1-.28-0.21c-1-1.6-3.43-2.43-5.6-2.43h-4.26v6.13Z"/><path class="cls-2" d="M233.16,213.19l-1.25,2.43a5.87,5.87,0,0,0-.81,2.64,1.47,1.47,0,0,0,1.25,1.48c0.19,0,.25.09,0.25,0.16s-0.12.12-.28,0.12-1-.07-2.27-0.07c-0.93,0-1.53.07-1.81,0.07s-0.3,0-.3-0.12a0.8,0.8,0,0,1,.44-0.37,14.2,14.2,0,0,0,2.68-3.66l5.67-11a0.32,0.32,0,0,1,.16-0.19h0a0.29,0.29,0,0,1,.18.19l6.81,12.73a5.85,5.85,0,0,0,1.55,1.92,1.43,1.43,0,0,1,.53.39c0,0.07-.12.12-0.32,0.12s-1.25-.07-2.59-0.07c-1.9,0-2.66.07-2.8,0.07a0.25,0.25,0,0,1-.23-0.07c0-.09.12-0.14,0.3-0.18a1.07,1.07,0,0,0,.65-1.2,9.5,9.5,0,0,0-1-2.64l-1.32-2.73h-5.51Zm2.73-5.39-2.43,4.82h4.91Z"/><path class="cls-2" d="M251,216.87c0,2.32.88,2.5,2.85,2.5h1.23a8.91,8.91,0,0,0,6.09-2.69,1.75,1.75,0,0,1,.49-0.55,0.14,0.14,0,0,1,.14.16,2.48,2.48,0,0,1-.09.32L260.78,220H247.17c-0.39,0-.51,0-0.51-0.12a1.72,1.72,0,0,1,.56-0.21c0.9-.39,1.13-1.25,1.13-3.31v-9.14a1.78,1.78,0,0,0-1-1.85,0.29,0.29,0,0,1-.23-0.19c0-.07.14-0.09,0.35-0.09,0.37,0,1.48.09,2.22,0.09s1.85-.09,2.22-0.09c0.21,0,.28,0,0.28.12a0.3,0.3,0,0,1-.21.14,1.77,1.77,0,0,0-.95,1.87v9.7Z"/><path class="cls-2" d="M265.28,206.78c0-.9-0.39-1.06-1.44-1.06A7,7,0,0,0,259,208a2.62,2.62,0,0,1-.42.39,0.13,0.13,0,0,1-.12-0.14,3.87,3.87,0,0,1,.16-0.53l0.74-2.59h14.58l0.74,2.59a3.86,3.86,0,0,1,.16.53,0.13,0.13,0,0,1-.12.14,2.63,2.63,0,0,1-.42-0.39,7,7,0,0,0-4.88-2.29c-1,0-1.44.16-1.44,1.06v10.67c0,1.13.3,2,1.39,2.24a0.37,0.37,0,0,1,.35.19,0.21,0.21,0,0,1-.18.14c-0.16,0-1.58-.07-2.89-0.07s-2.69.07-2.85,0.07-0.21,0-.21-0.12a0.77,0.77,0,0,1,.44-0.19c1.07-.46,1.27-1.13,1.27-3.29v-9.65Z"/><path class="cls-2" d="M288.78,211.85v-4.68c0-.95-0.25-1.71-1-1.9a0.56,0.56,0,0,1-.23-0.14c0-.07.14-0.09,0.35-0.09,0.37,0,1.48.09,2.22,0.09S292,205,292.35,205c0.21,0,.35,0,0.35.09a0.56,0.56,0,0,1-.23.14c-0.74.19-1,1-1,1.9v10.28a2.13,2.13,0,0,0,1.25,2.32,0.28,0.28,0,0,1,.21.18c0,0.07-.14.07-0.37,0.07-0.83,0-1.11-.07-2.43-0.07s-1.6.07-2.43,0.07c-0.23,0-.37,0-0.37-0.07a0.28,0.28,0,0,1,.21-0.18,2.13,2.13,0,0,0,1.25-2.32v-5H280v5a2.13,2.13,0,0,0,1.25,2.32,0.28,0.28,0,0,1,.21.18c0,0.07-.14.07-0.37,0.07-0.83,0-1.11-.07-2.43-0.07s-1.6.07-2.43,0.07c-0.23,0-.37,0-0.37-0.07a0.28,0.28,0,0,1,.21-0.18,2.13,2.13,0,0,0,1.25-2.32V207.17c0-.95-0.25-1.71-1-1.9a0.56,0.56,0,0,1-.23-0.14c0-.07.14-0.09,0.35-0.09,0.37,0,1.48.09,2.22,0.09s1.85-.09,2.22-0.09c0.21,0,.35,0,0.35.09a0.56,0.56,0,0,1-.23.14c-0.74.19-1,1-1,1.9v4.68h8.82Z"/><path class="cls-2" d="M149.5,188c-0.19,3.64-.78,6.39-2.78,9.22a12.25,12.25,0,0,1-13.45,4.71c-5.24-1.47-11.15-8.4-7.72-16.24a10.23,10.23,0,0,1,7.6-6,10.94,10.94,0,0,0-8.88,4.18,13,13,0,0,0,4.25,19.65,14.89,14.89,0,0,0,19.35-6.05A16,16,0,0,0,149.5,188Z"/><path class="cls-2" d="M120.19,192.58c0.19-3.64.78-6.39,2.78-9.22a12.25,12.25,0,0,1,13.45-4.71c5.24,1.47,11.15,8.4,7.72,16.24a10.23,10.23,0,0,1-7.6,6,10.94,10.94,0,0,0,8.88-4.19A13,13,0,0,0,141.17,177a14.89,14.89,0,0,0-19.35,6.05A16,16,0,0,0,120.19,192.58Z"/><path class="cls-2" d="M296.12,217.44a1.39,1.39,0,0,1,.42,1,1.4,1.4,0,0,1-.42,1,1.43,1.43,0,0,1-2,0,1.41,1.41,0,0,1-.42-1A1.43,1.43,0,0,1,296.12,217.44Zm0.17-.16a1.67,1.67,0,0,0-2.36,2.36,1.66,1.66,0,0,0,2.36,0,1.62,1.62,0,0,0,.49-1.18A1.6,1.6,0,0,0,296.29,217.28Zm-0.93,1.1a0.87,0.87,0,0,1-.31,0h-0.29v-0.66H295a0.84,0.84,0,0,1,.39.07,0.28,0.28,0,0,1,.12.27A0.28,0.28,0,0,1,295.35,218.38Zm-0.92,1h0.32v-0.72H295a0.78,0.78,0,0,1,.36.06,0.45,0.45,0,0,1,.17.42v0.24h0.3v0a0.32,0.32,0,0,1,0-.1s0-.09,0-0.14V219a0.51,0.51,0,0,0-.1-0.29,0.45,0.45,0,0,0-.32-0.18,0.7,0.7,0,0,0,.27-0.09,0.4,0.4,0,0,0,.18-0.36,0.45,0.45,0,0,0-.28-0.46,1.39,1.39,0,0,0-.5-0.07h-0.64v1.83Z"/><rect class="cls-2" x="35.58" y="157.85" width="259.39" height="1.13"/></svg>