<svg id="Layer_1" data-name="Layer 1" xmlns="http://www.w3.org/2000/svg" xmlns:xlink="http://www.w3.org/1999/xlink" viewBox="0 0 350.51 53.71"><defs><style>.cls-1{fill:#6ca439;}.cls-2{fill:#007cba;}.cls-3,.cls-4,.cls-5{fill:none;}.cls-3,.cls-4{stroke-miterlimit:10;}.cls-3{stroke-width:0.55px;stroke:url(#linear-gradient);}.cls-4{stroke-width:0.54px;stroke:url(#linear-gradient-2);}.cls-6{fill:url(#linear-gradient-3);}</style><linearGradient id="linear-gradient" x1="94.93" y1="7.53" x2="233.26" y2="7.53" gradientUnits="userSpaceOnUse"><stop offset="0" stop-color="#fff"/><stop offset="0.02" stop-color="#f0f7fb"/><stop offset="0.1" stop-color="#b1d7ea"/><stop offset="0.18" stop-color="#7bbbdb"/><stop offset="0.26" stop-color="#4fa5cf"/><stop offset="0.33" stop-color="#2d93c6"/><stop offset="0.4" stop-color="#1486bf"/><stop offset="0.47" stop-color="#057fbb"/><stop offset="0.52" stop-color="#007cba"/><stop offset="0.57" stop-color="#057ebb"/><stop offset="0.63" stop-color="#1285bf"/><stop offset="0.7" stop-color="#2991c5"/><stop offset="0.76" stop-color="#49a2ce"/><stop offset="0.83" stop-color="#72b7d9"/><stop offset="0.9" stop-color="#a5d1e7"/><stop offset="0.97" stop-color="#dfeef6"/><stop offset="1" stop-color="#fff"/></linearGradient><linearGradient id="linear-gradient-2" x1="215.51" y1="47.67" x2="350.51" y2="47.67" xlink:href="#linear-gradient"/><linearGradient id="linear-gradient-3" x1="215.95" y1="-41.24" x2="238.31" y2="16.69" gradientTransform="matrix(0.78, 0.02, -0.02, 0.95, -138.63, 34.26)" gradientUnits="userSpaceOnUse"><stop offset="0.18" stop-color="#fff" stop-opacity="0"/><stop offset="1" stop-color="#fff" stop-opacity="0.6"/></linearGradient></defs><title>orgastro</title><path class="cls-1" d="M246.93,6.33a6.21,6.21,0,0,1-1.66,4.53,5.21,5.21,0,0,1-3.84,1.7A5.05,5.05,0,0,1,237.77,11a5.65,5.65,0,0,1-1.58-4.21,6.2,6.2,0,0,1,1.66-4.55A5.23,5.23,0,0,1,241.69.56a5.05,5.05,0,0,1,3.66,1.56A5.65,5.65,0,0,1,246.93,6.33Zm-1.56.2A4.87,4.87,0,0,0,244.17,3a3.69,3.69,0,0,0-2.74-1.24,3.32,3.32,0,0,0-2.56,1.31,5.18,5.18,0,0,0-1.12,3.49,4.86,4.86,0,0,0,1.2,3.52,3.71,3.71,0,0,0,2.74,1.24A3.29,3.29,0,0,0,244.24,10,5.22,5.22,0,0,0,245.36,6.53Z"/><path class="cls-1" d="M262.37,12.22h-1.85a19.37,19.37,0,0,0-1.11-3.7h-5.07a18.4,18.4,0,0,0-1.09,3.7h-1.77a60.24,60.24,0,0,1,2.27-5.61A42,42,0,0,0,256,.79h2a42.33,42.33,0,0,0,2.16,5.73A44.47,44.47,0,0,1,262.37,12.22ZM259,7.37q-2.06-5.15-2.06-5.48h-0.1q0,0.27-2.13,5.48H259Z"/><path class="cls-1" d="M276.51,12.22h-1.92a12.47,12.47,0,0,0-1-1.53A30.64,30.64,0,0,0,271.47,8q-1.3-1.47-1.92-1.47h-0.27q0,2.05.09,5.73h-1.65q0.13-2.72.13-6,0-3.09-.13-5.42h1.65q-0.09,2.34-.09,4.74h0.2q0.48,0,2.41-2.24a12.65,12.65,0,0,0,1.93-2.5h1.83A9.82,9.82,0,0,1,273.77,3,25.62,25.62,0,0,1,271,5.53V5.62Q272,6,274.34,9.1A19.32,19.32,0,0,1,276.51,12.22Z"/><path class="cls-1" d="M298.1,12.22H296.4q-0.84-2.52-1.23-3.34a2.66,2.66,0,0,0-1.11-1.33,4.52,4.52,0,0,0-1.76-.24l-1.33,0q0,2.84.11,4.88h-1.63q0.13-2.72.13-6,0-3.09-.13-5.42h1.24l1,0q0.61,0,1.39,0,3.85,0,3.84,2.65a3.15,3.15,0,0,1-2.16,3.1V6.57a2.68,2.68,0,0,1,1.56,1.34A39.43,39.43,0,0,1,298.1,12.22ZM295.41,4q0-2.09-2.83-2.09a10.57,10.57,0,0,0-1.69.11Q291,3.54,291,6.16l1,0Q295.41,6.18,295.41,4Z"/><path class="cls-1" d="M305.59,12.22h-1.67q0.13-2.84.13-6t-0.13-5.42h1.67q-0.12,2.4-.12,5.42T305.59,12.22Z"/><path class="cls-1" d="M321.52,6.09a6.55,6.55,0,0,1-1.59,4.37,5.45,5.45,0,0,1-4.39,1.88q-0.91,0-3-.12,0.13-2.72.13-6,0-3.09-.13-5.42h1l1.07,0,0.95,0A6.11,6.11,0,0,1,320,2.26,5.29,5.29,0,0,1,321.52,6.09Zm-1.53.4a4.54,4.54,0,0,0-1.24-3.26,5.07,5.07,0,0,0-3.84-1.31,7.94,7.94,0,0,0-1,.09q0.07,2,.07,4.2,0,2.37.1,4.81a6.89,6.89,0,0,0,1.35.14,4.2,4.2,0,0,0,3.45-1.37A5,5,0,0,0,320,6.49Z"/><path class="cls-1" d="M336.15,12a9.24,9.24,0,0,1-2.91.47,6.12,6.12,0,0,1-4.65-1.65A5.67,5.67,0,0,1,327,6.74a6.08,6.08,0,0,1,1.7-4.28A6.13,6.13,0,0,1,333.45.63a8.13,8.13,0,0,1,2.06.25L335.3,2.34A10.43,10.43,0,0,0,333,2a4.09,4.09,0,0,0-3.25,1.29,4.66,4.66,0,0,0-1.13,3.19,4.86,4.86,0,0,0,1.29,3.35,4.66,4.66,0,0,0,3.66,1.44,9.38,9.38,0,0,0,1.29-.13A13.27,13.27,0,0,1,334.67,9a16,16,0,0,0-.12-2h1.6q-0.07,1.16-.07,2.45Q336.08,10,336.15,12Z"/><path class="cls-1" d="M349.69,10.89l-0.05,1.33h-7.07q0.12-2.72.12-6,0-3.09-.12-5.42h6.64L349.13,2.1Q346.71,2,344,2q0.05,1.36.05,3.68,2.33,0,4.16-.11V6.87q-1.95-.08-4.16-0.08,0,2.26.08,4.23Q347.06,11,349.69,10.89Z"/><path class="cls-1" d="M104.85,53.33h-1.66a17.31,17.31,0,0,0-1-3.31H97.67a16.45,16.45,0,0,0-1,3.31H95.11a53.81,53.81,0,0,1,2-5,37.57,37.57,0,0,0,2-5.2H101a37.88,37.88,0,0,0,1.93,5.13A39.79,39.79,0,0,1,104.85,53.33Zm-3-4.33Q100,44.39,100,44.1H99.91q0,0.24-1.91,4.9h3.84Z"/><path class="cls-1" d="M115.91,50.69q0,2.9-4,2.91a9.29,9.29,0,0,1-2.62-.34L109.52,52a7.67,7.67,0,0,0,2.5.46q2.67,0,2.67-1.51a1.61,1.61,0,0,0-.69-1.3,9.9,9.9,0,0,0-1.82-1,7.65,7.65,0,0,1-2-1.17,2.59,2.59,0,0,1,0-3.75,3.67,3.67,0,0,1,2.55-.82,8.93,8.93,0,0,1,2.56.24l-0.19,1.25a8.36,8.36,0,0,0-2.54-.38q-2,0-2,1.35a1.32,1.32,0,0,0,.58,1.09,10.5,10.5,0,0,0,1.66.83,8.36,8.36,0,0,1,2.12,1.21A2.72,2.72,0,0,1,115.91,50.69Z"/><path class="cls-1" d="M127.67,50.69q0,2.9-4,2.91a9.29,9.29,0,0,1-2.62-.34L121.28,52a7.67,7.67,0,0,0,2.5.46q2.67,0,2.67-1.51a1.61,1.61,0,0,0-.69-1.3,9.9,9.9,0,0,0-1.82-1,7.65,7.65,0,0,1-2-1.17,2.59,2.59,0,0,1,0-3.75,3.67,3.67,0,0,1,2.55-.82,8.93,8.93,0,0,1,2.56.24l-0.19,1.25a8.36,8.36,0,0,0-2.54-.38q-2,0-2,1.35a1.32,1.32,0,0,0,.58,1.09,10.5,10.5,0,0,0,1.66.83,8.36,8.36,0,0,1,2.12,1.21A2.72,2.72,0,0,1,127.67,50.69Z"/><path class="cls-1" d="M142.37,48.06a5.56,5.56,0,0,1-1.48,4.06,4.66,4.66,0,0,1-3.43,1.52,4.52,4.52,0,0,1-3.28-1.39,5.06,5.06,0,0,1-1.41-3.77,5.54,5.54,0,0,1,1.48-4.07,4.68,4.68,0,0,1,3.43-1.5A4.52,4.52,0,0,1,141,44.3,5.06,5.06,0,0,1,142.37,48.06Zm-1.4.18a4.35,4.35,0,0,0-1.06-3.14A3.31,3.31,0,0,0,137.45,44a3,3,0,0,0-2.29,1.17,4.63,4.63,0,0,0-1,3.12,4.34,4.34,0,0,0,1.07,3.14,3.32,3.32,0,0,0,2.45,1.11A2.94,2.94,0,0,0,140,51.36,4.67,4.67,0,0,0,141,48.24Z"/><path class="cls-1" d="M155.24,52.08l-0.1,1.17a7.28,7.28,0,0,1-2.1.29A5.24,5.24,0,0,1,149,52.06a5.15,5.15,0,0,1-1.36-3.62,5.46,5.46,0,0,1,1.52-3.86A5.31,5.31,0,0,1,153.21,43a5.74,5.74,0,0,1,1.49.21l-0.22,1.25a5.45,5.45,0,0,0-1.61-.28A3.54,3.54,0,0,0,150,45.32a4.35,4.35,0,0,0-1,2.88,4.26,4.26,0,0,0,1.13,3,4,4,0,0,0,3.12,1.24A7.77,7.77,0,0,0,155.24,52.08Z"/><path class="cls-1" d="M162.18,53.33h-1.49q0.12-2.54.12-5.37t-0.12-4.85h1.49q-0.11,2.14-.11,4.85T162.18,53.33Z"/><path class="cls-1" d="M177,53.33h-1.66a17.32,17.32,0,0,0-1-3.31h-4.53a16.45,16.45,0,0,0-1,3.31h-1.59a53.81,53.81,0,0,1,2-5,37.55,37.55,0,0,0,2-5.2h1.82a37.9,37.9,0,0,0,1.93,5.13A39.85,39.85,0,0,1,177,53.33ZM174,49q-1.85-4.61-1.85-4.9h-0.09q0,0.24-1.91,4.9H174Z"/><path class="cls-1" d="M188.27,43.11l0,1.11q-1.55-.08-3.21-0.08,0,1.51,0,3.82,0,2.56.08,5.37h-1.44q0.09-2.68.09-5.37,0-2.28,0-3.82-1.16,0-3.27.09l0-1.12h7.81Z"/><path class="cls-1" d="M199.83,52.15l0,1.19h-6.33q0.11-2.43.11-5.37,0-2.76-.11-4.85h5.94l-0.06,1.17q-2.16-.09-4.58-0.09,0,1.22,0,3.29,2.09,0,3.72-.09v1.17q-1.74-.07-3.72-0.07,0,2,.07,3.78Q197.48,52.26,199.83,52.15Z"/><path class="cls-1" d="M211.33,50.69q0,2.9-4,2.91a9.29,9.29,0,0,1-2.62-.34L204.94,52a7.67,7.67,0,0,0,2.51.46q2.67,0,2.67-1.51a1.61,1.61,0,0,0-.69-1.3,9.9,9.9,0,0,0-1.82-1,7.64,7.64,0,0,1-2-1.17,2.59,2.59,0,0,1,0-3.75,3.67,3.67,0,0,1,2.55-.82,8.93,8.93,0,0,1,2.56.24l-0.19,1.25a8.36,8.36,0,0,0-2.54-.38q-2,0-2,1.35a1.32,1.32,0,0,0,.58,1.09,10.48,10.48,0,0,0,1.66.83,8.37,8.37,0,0,1,2.12,1.21A2.72,2.72,0,0,1,211.33,50.69Z"/><path class="cls-2" d="M111.63,38.8a20.56,20.56,0,0,1-6,1.12q-5.15,0-7.81-3.47A13.46,13.46,0,0,1,95.21,28,14.65,14.65,0,0,1,98.1,19a9.48,9.48,0,0,1,8-3.85,15.3,15.3,0,0,1,4.25.53L109.89,20a14,14,0,0,0-4.22-.76A5.25,5.25,0,0,0,101,21.62a10.44,10.44,0,0,0-1.56,5.83,10.8,10.8,0,0,0,1.74,6.13A5.48,5.48,0,0,0,106,36.2a10.37,10.37,0,0,0,2-.22,36.76,36.76,0,0,1-.22-4,36,36,0,0,0-.31-4.48h4.24q-0.12,2.84-.12,5.71Q111.51,35.28,111.63,38.8Z"/><path class="cls-2" d="M130.41,39.42h-4.79a46.68,46.68,0,0,0-1.36-6.89h-6.91a42.56,42.56,0,0,0-1.41,6.89h-4.5q0-.72,3.49-11.79t3.49-12.19h5.66q0,1,3.17,12T130.41,39.42ZM123.5,29q-2.56-9.51-2.56-10.28H120.7q0,0.72-2.65,10.28h5.45Z"/><path class="cls-2" d="M143.61,32.88q0,7.2-8.41,7.2a16.18,16.18,0,0,1-5.31-.85l0.73-4.11a11.72,11.72,0,0,0,4.58,1,7.62,7.62,0,0,0,3.44-.57,2,2,0,0,0,1-1.92,3.16,3.16,0,0,0-1-2.36,15.89,15.89,0,0,0-3.46-2.21,10.82,10.82,0,0,1-3.52-2.73,7.23,7.23,0,0,1-1.45-4.59,6.46,6.46,0,0,1,1.91-5,7.73,7.73,0,0,1,5.49-1.79,17.08,17.08,0,0,1,4.92.61L142,19.75a10.59,10.59,0,0,0-4.37-.9q-3.53,0-3.53,2.32a2.63,2.63,0,0,0,.82,2A15.46,15.46,0,0,0,138.09,25a11.66,11.66,0,0,1,3.83,2.8A7.66,7.66,0,0,1,143.61,32.88Z"/><path class="cls-2" d="M158.72,15.44l-0.1,4q-3-.28-5.64-0.28,0,3.48,0,7.75,0,6.63.16,12.54h-4.19q0.19-5.86.19-12.54,0-4.2-.06-7.75-2.11,0-5.79.29l0.12-4h15.34Z"/><path class="cls-2" d="M175.14,39.42h-4.43q-1.74-6.52-2.66-8a3.24,3.24,0,0,0-3-1.53l-1.66,0q0,4.73.13,9.56h-4.16q0.19-5.56.19-12.54,0-6.7-.19-11.44H162l1.88-.06q1.43-.06,2.64-0.06,6.87,0,6.87,5.78a6.46,6.46,0,0,1-3.92,6.39v0.28a5.12,5.12,0,0,1,2.65,2.9A72.32,72.32,0,0,1,175.14,39.42Zm-5.61-16.95q0-3.67-3.83-3.67a10.74,10.74,0,0,0-2.48.26q0.16,2.86.16,7.44,0.82,0,1.39,0Q169.53,26.55,169.53,22.48Z"/><path class="cls-2" d="M192,27a15.11,15.11,0,0,1-2.81,9.38,8.45,8.45,0,0,1-7,3.72,8.09,8.09,0,0,1-6.62-3.42A13.7,13.7,0,0,1,172.94,28a15.1,15.1,0,0,1,2.81-9.38,8.44,8.44,0,0,1,7-3.72,8.1,8.1,0,0,1,6.62,3.41A13.7,13.7,0,0,1,192,27Zm-4.13.53a11,11,0,0,0-1.6-6.24,4.67,4.67,0,0,0-4-2.39,4.39,4.39,0,0,0-3.71,2.41,11.21,11.21,0,0,0-1.53,6.1,11,11,0,0,0,1.61,6.24,4.67,4.67,0,0,0,3.94,2.4,4.38,4.38,0,0,0,3.71-2.42A11.22,11.22,0,0,0,187.86,27.52Z"/><path class="cls-2" d="M205.09,35.37L205,39.42H192.24q0.19-5.56.19-12.54,0-6.7-.19-11.44h12.15l-0.16,4q-4.49-.29-8.14-0.29,0.15,2.56.15,6,3.13,0,6.69-.2v3.85q-3.5-.18-6.69-0.18,0,3.74.12,7Q200.45,35.68,205.09,35.37Z"/><path class="cls-2" d="M222.62,39.42h-3.7q0-.76-4.12-8Q210.5,23.84,209.9,21h-0.24q0.37,4,.37,7.29,0,4.55.21,11.09h-3.68q0.22-5.71.22-12.54t-0.22-11.44H211q0,1,3.7,7.79,3.94,7.24,4.52,9.82h0.22q-0.36-4.11-.36-7.37,0-5-.21-10.24h3.74q-0.21,4.57-.21,11.44T222.62,39.42Z"/><path class="cls-2" d="M238.73,15.44l-0.1,4q-3-.28-5.64-0.28,0,3.48,0,7.75,0,6.63.16,12.54h-4.19q0.19-5.86.19-12.54,0-4.2-.06-7.75-2.11,0-5.79.29l0.12-4h15.34Z"/><path class="cls-2" d="M252.23,35.37l-0.12,4.05H239.37q0.19-5.56.19-12.54,0-6.7-.19-11.44h12.15l-0.16,4q-4.49-.29-8.14-0.29,0.15,2.56.15,6,3.13,0,6.69-.2v3.85q-3.5-.18-6.69-0.18,0,3.74.12,7Q247.59,35.68,252.23,35.37Z"/><path class="cls-2" d="M269.47,39.42H265q-1.74-6.52-2.66-8a3.24,3.24,0,0,0-3-1.53l-1.66,0q0,4.73.13,9.56H253.7q0.19-5.56.19-12.54,0-6.7-.19-11.44h2.59l1.88-.06q1.43-.06,2.64-0.06,6.87,0,6.87,5.78a6.46,6.46,0,0,1-3.92,6.39v0.28a5.12,5.12,0,0,1,2.65,2.9A72.32,72.32,0,0,1,269.47,39.42Zm-5.61-16.95q0-3.67-3.83-3.67a10.74,10.74,0,0,0-2.48.26q0.16,2.86.16,7.44,0.82,0,1.39,0Q263.86,26.55,263.86,22.48Z"/><path class="cls-2" d="M286.94,27a15.11,15.11,0,0,1-2.81,9.38,8.45,8.45,0,0,1-7,3.72,8.09,8.09,0,0,1-6.62-3.42A13.7,13.7,0,0,1,267.89,28a15.1,15.1,0,0,1,2.81-9.38,8.44,8.44,0,0,1,7-3.72,8.1,8.1,0,0,1,6.62,3.41A13.7,13.7,0,0,1,286.94,27Zm-4.13.53a11,11,0,0,0-1.6-6.24,4.67,4.67,0,0,0-4-2.39,4.39,4.39,0,0,0-3.71,2.41,11.21,11.21,0,0,0-1.53,6.1,11,11,0,0,0,1.61,6.24,4.67,4.67,0,0,0,3.94,2.4,4.38,4.38,0,0,0,3.71-2.42A11.22,11.22,0,0,0,282.81,27.52Z"/><path class="cls-2" d="M299.74,35.41l-0.12,4H287.18q0.18-5,.18-12.54,0-6.93-.18-11.44h4.21q-0.18,4.18-.18,11.44,0,5.54-.19,8.81Q295.15,35.68,299.74,35.41Z"/><path class="cls-2" d="M317.66,27a15.11,15.11,0,0,1-2.81,9.38,8.45,8.45,0,0,1-7,3.72,8.09,8.09,0,0,1-6.62-3.42A13.7,13.7,0,0,1,298.61,28a15.1,15.1,0,0,1,2.81-9.38,8.44,8.44,0,0,1,7-3.72A8.1,8.1,0,0,1,315,18.29,13.7,13.7,0,0,1,317.66,27Zm-4.13.53a11,11,0,0,0-1.6-6.24,4.67,4.67,0,0,0-4-2.39,4.39,4.39,0,0,0-3.71,2.41,11.21,11.21,0,0,0-1.53,6.1,11,11,0,0,0,1.61,6.24,4.67,4.67,0,0,0,3.94,2.4A4.38,4.38,0,0,0,312,33.61,11.22,11.22,0,0,0,313.53,27.52Z"/><path class="cls-2" d="M334.24,38.8a20.56,20.56,0,0,1-6,1.12q-5.15,0-7.81-3.47A13.46,13.46,0,0,1,317.82,28a14.65,14.65,0,0,1,2.9-9.06,9.48,9.48,0,0,1,8-3.85,15.3,15.3,0,0,1,4.25.53L332.5,20a14,14,0,0,0-4.22-.76,5.25,5.25,0,0,0-4.71,2.39A10.44,10.44,0,0,0,322,27.45a10.8,10.8,0,0,0,1.74,6.13,5.48,5.48,0,0,0,4.81,2.62,10.37,10.37,0,0,0,2-.22,36.82,36.82,0,0,1-.22-4,36,36,0,0,0-.31-4.48h4.24q-0.12,2.84-.12,5.71Q334.12,35.28,334.24,38.8Z"/><path class="cls-2" d="M350,15.44a14.82,14.82,0,0,1-1.71,4.07q-2.62,5.07-3.19,6.3a15.35,15.35,0,0,0-1.71,5.54q0,4.05.18,8.07h-4.25q0.16-4,.16-8.12a16.91,16.91,0,0,0-1.57-5.69q-0.73-1.77-2.93-6.32a16.83,16.83,0,0,1-1.57-3.85h4.7A34.89,34.89,0,0,0,340,21q1.88,4.93,1.88,6.36h0.24q0-1.33,1.83-6t1.83-5.91H350Z"/><line class="cls-3" x1="94.93" y1="7.53" x2="233.26" y2="7.53"/><line class="cls-4" x1="215.51" y1="47.67" x2="350.51" y2="47.67"/><path class="cls-5" d="M26.6,43.69A17.16,17.16,0,0,0,43.54,23.93,210.34,210.34,0,0,0,13.83,38,17.1,17.1,0,0,0,26.6,43.69Z"/><path class="cls-5" d="M52.89,21.17h3.18q4.84,0,6.67-1.27a4.14,4.14,0,0,0,1.66-2.61c-4,1-7.81,2.15-11.5,3.35v0.54Z"/><path class="cls-2" d="M64.27,29.94a15.29,15.29,0,0,0,7.59-5.35,14.76,14.76,0,0,0,2.52-8.79c0-.27,0-0.54,0-0.8q-5.11,1-10,2.28a4.14,4.14,0,0,1-1.66,2.61q-1.82,1.27-6.67,1.27H52.89V20.63c-3.23,1.05-6.35,2.16-9.35,3.3A17.16,17.16,0,0,1,26.6,43.69,17.1,17.1,0,0,1,13.83,38c-3.27,1.88-6.07,3.61-8.36,5.08a26.8,26.8,0,0,0,37.27,5.42v5.15H52.89V31.06h0.93l12,22.58H76.9Z"/><path class="cls-2" d="M9.45,26.55a17.15,17.15,0,0,1,34.09-2.62c3-1.14,6.12-2.25,9.35-3.3V10.22h2.78a18.34,18.34,0,0,1,5.56.56,5,5,0,0,1,2.42,1.85,5.16,5.16,0,0,1,.9,3,7.34,7.34,0,0,1-.17,1.6Q69.25,16,74.36,15A15.72,15.72,0,0,0,72.1,7.14a12.89,12.89,0,0,0-6-5.24Q62.32,0.33,53.49.33H42.74V5.22A26.84,26.84,0,0,0,5.47,43.07c2.29-1.48,5.09-3.21,8.36-5.08A17.08,17.08,0,0,1,9.45,26.55Z"/><path class="cls-6" d="M52.89,10.22h2.78a18.34,18.34,0,0,1,5.56.56,5,5,0,0,1,2.42,1.85,5.16,5.16,0,0,1,.9,3,7.34,7.34,0,0,1-.17,1.6Q69.25,16,74.36,15A15.72,15.72,0,0,0,72.1,7.14a12.89,12.89,0,0,0-6-5.24Q62.32,0.33,53.49.33H42.74V5.22A26.84,26.84,0,0,0,5.47,43.07c2.29-1.48,5.09-3.21,8.36-5.08A17.14,17.14,0,1,1,43.54,23.93c3-1.14,6.12-2.25,9.35-3.3V20.26"/></svg>