<svg id="Layer_1" data-name="Layer 1" xmlns="http://www.w3.org/2000/svg" viewBox="0 0 359.39 125.1"><defs><style>.cls-1{fill:#68737a;}.cls-2{fill:#a90533;}.cls-3{fill:#005a9c;}</style></defs><title>fort-loudoun</title><path class="cls-1" d="M134.06,32.06h5.87c2.31,0,4.34-1.08,4.69-2.38,0.06-.19.1-0.29,0.22-0.29s0.16,0.1.16,0.41V35.2c0,0.22,0,.32-0.13.32a1.26,1.26,0,0,1-.35-0.57c-0.86-1.55-3.33-2.09-5.55-2.09h-4.91v4.57c0,2.92.38,5.07,1.65,5.45a1.27,1.27,0,0,1,.67.29c0,0.06,0,.1-0.19.1s-2.16-.1-4-0.1-3.58.1-3.74,0.1a0.27,0.27,0,0,1-.29-0.1,1,1,0,0,1,.48-0.29c1.3-.67,1.71-1.59,1.71-3.93V26.42c0-1.84-.16-2.82-1.08-3.17a0.76,0.76,0,0,1-.51-0.25c0-.06.13-0.13,0.54-0.13H146.9l0.86,3c0.1,0.32.38,1.08,0.38,1.17s0,0.22-.1.22a1.09,1.09,0,0,1-.41-0.38,10.56,10.56,0,0,0-7.8-3.2h-5.77v8.4Z" transform="translate(-0.61)"/><path class="cls-1" d="M156.88,26.2c5.42,0,9.42,3.65,9.42,8.72s-4,8.72-9.42,8.72S147.5,40,147.5,34.92,151.49,26.2,156.88,26.2Zm0,16.84c4.76,0,5.74-4.38,5.74-8.12s-1-8.12-5.74-8.12-5.71,4.38-5.71,8.12S152.16,43,156.88,43Z" transform="translate(-0.61)"/><path class="cls-1" d="M171.52,30.64h0.06C172.82,28,175,26.07,178,26.2l-1.33,3.27a3.27,3.27,0,0,0-2-.51c-1.81,0-3,2.31-3,4.38v5.83c0,2,.16,3.49,1.81,3.8a0.37,0.37,0,0,1,.32.19c0,0.1-.1.1-0.25,0.1s-1.78-.1-3.52-0.1-3.2.1-3.39,0.1a0.27,0.27,0,0,1-.29-0.1,0.38,0.38,0,0,1,.35-0.16c1.49-.54,1.71-1.17,1.71-3.84V31.59c0-2.19-.13-3.33-1.24-3.58a0.7,0.7,0,0,1-.48-0.25,1.44,1.44,0,0,1,.67-0.16,24.54,24.54,0,0,0,4.12-1v4.09Z" transform="translate(-0.61)"/><path class="cls-1" d="M179.24,28.48a0.29,0.29,0,0,1-.32-0.29,0.88,0.88,0,0,1,.63-0.44,8.19,8.19,0,0,0,4.5-4.5,0.42,0.42,0,0,1,.35-0.32c0.16,0,.16.22,0.16,0.44v4.09h3.52l-0.22,1h-3.3v9c0,4.22,1,5,2,5.33A0.47,0.47,0,0,1,187,43a0.53,0.53,0,0,1-.51.13h-3.84a2.25,2.25,0,0,1-1.33-2.31V28.48h-2.06Z" transform="translate(-0.61)"/><path class="cls-1" d="M203.63,38.94c0,3.17,1.2,3.42,3.9,3.42h1.68a12.2,12.2,0,0,0,8.34-3.68,2.41,2.41,0,0,1,.67-0.76,0.19,0.19,0,0,1,.19.22,3.28,3.28,0,0,1-.13.44L217,43.16H198.34c-0.54,0-.7-0.06-0.7-0.16a2.34,2.34,0,0,1,.76-0.29c1.24-.54,1.55-1.71,1.55-4.53V25.66a2.44,2.44,0,0,0-1.36-2.54,0.39,0.39,0,0,1-.32-0.25c0-.1.19-0.13,0.48-0.13,0.51,0,2,.13,3,0.13s2.54-.13,3-0.13c0.29,0,.38,0,0.38.16a0.41,0.41,0,0,1-.29.19c-1,.41-1.3,1.27-1.3,2.57V38.94Z" transform="translate(-0.61)"/><path class="cls-1" d="M228.62,26.2c5.42,0,9.42,3.65,9.42,8.72s-4,8.72-9.42,8.72-9.38-3.65-9.38-8.72S223.23,26.2,228.62,26.2Zm0,16.84c4.76,0,5.74-4.38,5.74-8.12s-1-8.12-5.74-8.12-5.71,4.38-5.71,8.12S223.89,43,228.62,43Z" transform="translate(-0.61)"/><path class="cls-1" d="M256.8,39.13c0,2.63.38,3.46,1.74,3.8a0.24,0.24,0,0,1,.19.1,0.39,0.39,0,0,1-.41.13h-3.77a9.36,9.36,0,0,1-.82-3.65h-0.06c-1,2.82-2.92,4.12-6.18,4.12-4.53,0-6.75-1.74-6.75-6.85v-6.4c0-1.84-.13-2.22-1-2.54a0.64,0.64,0,0,1-.48-0.25,0.54,0.54,0,0,1,.48-0.13,32.49,32.49,0,0,0,4.28-.92V36.82c0,2.92,1.3,6,4.66,6s4.88-3.14,4.88-6.09V30.38c0-1.93-.35-2.35-0.92-2.63a2.36,2.36,0,0,1-.41-0.22,0.85,0.85,0,0,1,.51-0.19c1.24-.19,2.5-0.41,4.09-0.79V39.13Z" transform="translate(-0.61)"/><path class="cls-1" d="M277.41,34.92c0,1.74,0,3.49.13,5.2,0.1,1.24.54,2.44,1.68,2.76a0.26,0.26,0,0,1,.22.16c0,0.1-.16.13-0.54,0.13h-3.74a12.08,12.08,0,0,1-.92-3.17h-0.06a6.92,6.92,0,0,1-6.44,3.65c-4.44,0-8.18-3.39-8.18-8.72,0-4.5,3.55-8.72,8.18-8.72a7.7,7.7,0,0,1,6.34,2.7h0.06V24c0-1.14,0-2.19-1.24-2.44a0.54,0.54,0,0,1-.41-0.19,0.75,0.75,0,0,1,.57-0.19c1.49-.29,2.82-0.6,4.34-1V34.92Zm-8.62,7.93c2.06,0,5.52-2,5.52-7.93,0-6.66-3.46-7.93-5.52-7.93s-5.55,1.27-5.55,7.93S266.69,42.84,268.79,42.84Z" transform="translate(-0.61)"/><path class="cls-1" d="M289.55,26.2c5.42,0,9.42,3.65,9.42,8.72s-4,8.72-9.42,8.72-9.38-3.65-9.38-8.72S284.16,26.2,289.55,26.2Zm0,16.84c4.76,0,5.74-4.38,5.74-8.12s-1-8.12-5.74-8.12-5.71,4.38-5.71,8.12S284.83,43,289.55,43Z" transform="translate(-0.61)"/><path class="cls-1" d="M317.74,39.13c0,2.63.38,3.46,1.74,3.8a0.24,0.24,0,0,1,.19.1,0.39,0.39,0,0,1-.41.13h-3.77a9.37,9.37,0,0,1-.82-3.65H314.6c-1,2.82-2.92,4.12-6.18,4.12-4.53,0-6.75-1.74-6.75-6.85v-6.4c0-1.84-.13-2.22-1-2.54a0.64,0.64,0,0,1-.48-0.25,0.54,0.54,0,0,1,.48-0.13,32.51,32.51,0,0,0,4.28-.92V36.82c0,2.92,1.3,6,4.66,6s4.88-3.14,4.88-6.09V30.38c0-1.93-.35-2.35-0.92-2.63a2.33,2.33,0,0,1-.41-0.22,0.85,0.85,0,0,1,.51-0.19c1.24-.19,2.5-0.41,4.09-0.79V39.13Z" transform="translate(-0.61)"/><path class="cls-1" d="M324.68,31.11h0.06c0.73-2.7,2.28-4.91,6.47-4.91C334.7,26.2,338,28,338,33v6.12c-0.06,3,.35,3.46,1.27,3.77a0.65,0.65,0,0,1,.41.22c0,0.1-.16.1-0.48,0.1s-1.11-.1-2.85-0.1-2.85.1-3.27,0.1c-0.19,0-.35,0-0.35-0.1S332.77,43,333,43c1.14-.13,1.71-1,1.71-3.8V33c0-2.92-1.3-6-4.66-6-3.77,0-5,3.87-5,8.31v3.87c0,2,.1,3.49,1.52,3.74,0.22,0,.35.1,0.35,0.19s-0.1.16-.29,0.16-1.52-.1-3.23-0.1-3.17.1-3.39,0.1-0.29,0-.29-0.16,0.13-.16.35-0.19c1.59-.25,1.71-1.74,1.71-3.74V31.3c0-1.9-.22-3-1.11-3.36a1.4,1.4,0,0,1-.57-0.32,0.86,0.86,0,0,1,.6-0.16,27.75,27.75,0,0,0,4-.92v4.57Z" transform="translate(-0.61)"/><path class="cls-1" d="M140.73,67.33l7-15.66h5c0.38,0,.44.1,0.44,0.19a0.55,0.55,0,0,1-.44.25c-1,.22-1.33,1.33-1.33,2.82V67c0,1.87.06,4.41,2,4.79a0.89,0.89,0,0,1,.51.25,0.55,0.55,0,0,1-.51.16c-0.16,0-1-.1-3.74-0.1-2.44,0-3.3.1-3.61,0.1a0.36,0.36,0,0,1-.38-0.16,0.9,0.9,0,0,1,.51-0.22c1.62-.44,1.71-2.95,1.71-4.82V53.82h-0.06l-7.93,17.25a2.63,2.63,0,0,1-.79,1.27H139c-0.35,0-.67-1-0.82-1.3l-7.83-17.22h-0.06v12c0,2.22.29,5,2.09,5.74a1.74,1.74,0,0,1,.67.48,0.91,0.91,0,0,1-.41,0h-5.48a0.53,0.53,0,0,1-.44-0.1,0.93,0.93,0,0,1,.44-0.29c1.74-1,2.35-3.84,2.35-5.87V55.37c0-1.17-.29-3-1.49-3.3a0.29,0.29,0,0,1-.22-0.29,0.2,0.2,0,0,1,.22-0.13h5.23Z" transform="translate(-0.61)"/><path class="cls-1" d="M158.23,61.62c-0.06.73-.1,1.39-0.1,2.06,0,5.9,3,8.08,6.12,8.08,3.65,0,6.34-2.5,7.42-6.21h0.67c-1,4.38-4.19,7-8.5,7-5.39,0-9.38-3.65-9.38-8.72s4-8.72,9.38-8.72c3.46,0,7.64,2.09,8.08,6.5h-13.7Zm9.7-.6c0-3.11-1.49-5.29-4.79-5.29-2.88,0-4.44,2.57-4.79,5.29h9.57Z" transform="translate(-0.61)"/><path class="cls-1" d="M191.68,63.84c0,1.74,0,3.49.13,5.2,0.1,1.24.54,2.44,1.68,2.76a0.26,0.26,0,0,1,.22.16c0,0.1-.16.13-0.54,0.13h-3.74a12.08,12.08,0,0,1-.92-3.17h-0.06A6.92,6.92,0,0,1,182,72.56c-4.44,0-8.18-3.39-8.18-8.72,0-4.5,3.55-8.72,8.18-8.72a7.7,7.7,0,0,1,6.34,2.7h0.06V52.93c0-1.14,0-2.19-1.24-2.44a0.54,0.54,0,0,1-.41-0.19,0.75,0.75,0,0,1,.57-0.19c1.49-.29,2.82-0.6,4.34-1V63.84Zm-8.62,7.93c2.06,0,5.52-2,5.52-7.93,0-6.66-3.46-7.93-5.52-7.93s-5.55,1.27-5.55,7.93S181,71.76,183.06,71.76Z" transform="translate(-0.61)"/><path class="cls-1" d="M196.05,58.86c0-1.58-.6-1.78-1.11-2.06a1.64,1.64,0,0,1-.54-0.19,1.35,1.35,0,0,1,.57-0.13c1.49-.29,2.82-0.6,4.34-1V68.09c0,2,.19,3.42,1.65,3.71a0.29,0.29,0,0,1,.32.29c0,0.1-.16.1-0.44,0.1s-1.46-.1-3.17-0.1-2.85.1-3.17,0.1-0.44,0-.44-0.1a0.29,0.29,0,0,1,.32-0.29c1.46-.29,1.68-1.71,1.68-3.71V58.86Zm-0.51-7.32a1.89,1.89,0,1,1,3.77,0A1.89,1.89,0,0,1,195.55,51.54Z" transform="translate(-0.61)"/><path class="cls-1" d="M218.22,59.5a1.71,1.71,0,0,1-.38.86,0.52,0.52,0,0,1-.19-0.38,5.79,5.79,0,0,0-5.8-4.25c-4.15,0-5.64,4.25-5.67,8.12,0,5.74,3.2,7.93,6.12,7.93a7.45,7.45,0,0,0,6.37-4.19l0.51,0.51c-1.71,2.92-3.87,4.47-7.29,4.47-5.39,0-9.38-3.65-9.38-8.72s4-8.72,9.38-8.72c1.81,0,5.52.76,7.07,1.9Z" transform="translate(-0.61)"/><path class="cls-1" d="M236.45,69.32c0,1,.16,2,1.14,2.44a0.44,0.44,0,0,1,.32.19,0.39,0.39,0,0,1-.41.13h-3.42a9.45,9.45,0,0,1-.76-3.23h-0.06a5.91,5.91,0,0,1-5.87,3.71c-3.3,0-6.69-1.52-6.69-5.29,0-4.82,7.36-5.29,10.68-5.29h1.81v-1c0-3-1.43-5.2-4.63-5.2-2.92,0-4.63.86-5.77,3.65a1.61,1.61,0,0,1-.25.54,0.57,0.57,0,0,1-.16-0.35l-0.82-2.85A14.39,14.39,0,0,1,229,55.12c3.61,0,7.42,1.3,7.42,5.29v8.91Zm-3.27-6.75h-1.87c-3.42,0-6.94,1-6.94,5.2a3.85,3.85,0,0,0,3.93,4c3.74,0,4.88-3.93,4.88-7V62.57Z" transform="translate(-0.61)"/><path class="cls-1" d="M244.4,68.09c0,2,.1,3.2,1.81,3.8a0.27,0.27,0,0,1,.19.19,0.3,0.3,0,0,1-.29.1c-0.16,0-1-.1-3.36-0.1-1.71,0-3.08.1-3.3,0.1s-0.32,0-.32-0.1a0.27,0.27,0,0,1,.19-0.19c1.74-.73,1.81-1.81,1.81-3.8V52.93c0-1.55-.29-2.19-1.08-2.35a0.57,0.57,0,0,1-.48-0.25c0-.16.25-0.19,0.48-0.22,1.49-.29,2.82-0.6,4.34-1v19Z" transform="translate(-0.61)"/><path class="cls-1" d="M278.5,69.83a15.08,15.08,0,0,1-9.57,2.88c-6.21,0-12-3.49-12-10.78,0-6.53,5.77-10.78,12-10.78a18,18,0,0,1,9.1,2.41l-1,3a3.72,3.72,0,0,1-.44,1.08,1.85,1.85,0,0,1-.35-0.82c-0.67-2.76-2.63-4.76-7.32-4.85-5.77,0-7.74,5.26-7.74,10s2.22,10,9,10c3.11,0,5.45-1.68,6.85-4.88a1,1,0,0,1,.35-0.67c0.13,0,.16.1,0.29,0.57Z" transform="translate(-0.61)"/><path class="cls-1" d="M283.85,61.62c-0.06.73-.1,1.39-0.1,2.06,0,5.9,3,8.08,6.12,8.08,3.65,0,6.34-2.5,7.42-6.21H298c-1,4.38-4.19,7-8.5,7-5.39,0-9.38-3.65-9.38-8.72s4-8.72,9.38-8.72c3.46,0,7.64,2.09,8.08,6.5h-13.7Zm9.7-.6c0-3.11-1.49-5.29-4.79-5.29-2.89,0-4.44,2.57-4.79,5.29h9.57Z" transform="translate(-0.61)"/><path class="cls-1" d="M303.64,60h0.06c0.73-2.7,2.28-4.91,6.47-4.91,3.49,0,6.75,1.81,6.75,6.85v6.12c-0.06,3,.35,3.46,1.27,3.77a0.65,0.65,0,0,1,.41.22c0,0.1-.16.1-0.48,0.1s-1.11-.1-2.85-0.1-2.85.1-3.27,0.1c-0.19,0-.35,0-0.35-0.1s0.06-.16.29-0.19c1.14-.13,1.71-1,1.71-3.8V61.94c0-2.92-1.3-6-4.66-6-3.77,0-5,3.87-5,8.31v3.87c0,2,.1,3.49,1.52,3.74,0.22,0,.35.1,0.35,0.19s-0.1.16-.29,0.16-1.52-.1-3.23-0.1-3.17.1-3.39,0.1-0.29,0-.29-0.16,0.13-.16.35-0.19c1.59-.25,1.71-1.74,1.71-3.74V60.22c0-1.9-.22-3-1.11-3.36a1.4,1.4,0,0,1-.57-0.32,0.86,0.86,0,0,1,.6-0.16,27.74,27.74,0,0,0,4-.92V60Z" transform="translate(-0.61)"/><path class="cls-1" d="M319.55,57.4a0.29,0.29,0,0,1-.32-0.29,0.88,0.88,0,0,1,.63-0.44,8.19,8.19,0,0,0,4.5-4.5,0.42,0.42,0,0,1,.35-0.32c0.16,0,.16.22,0.16,0.44v4.09h3.52l-0.22,1h-3.3v9c0,4.22,1,5,2,5.33a0.47,0.47,0,0,1,.38.22,0.53,0.53,0,0,1-.51.13h-3.84a2.25,2.25,0,0,1-1.33-2.31V57.4h-2.06Z" transform="translate(-0.61)"/><path class="cls-1" d="M333,61.62c-0.06.73-.1,1.39-0.1,2.06,0,5.9,3,8.08,6.12,8.08,3.65,0,6.34-2.5,7.42-6.21h0.67c-1,4.38-4.19,7-8.5,7-5.39,0-9.38-3.65-9.38-8.72s4-8.72,9.38-8.72c3.46,0,7.64,2.09,8.08,6.5H333Zm9.7-.6c0-3.11-1.49-5.29-4.79-5.29-2.89,0-4.44,2.57-4.79,5.29h9.57Z" transform="translate(-0.61)"/><path class="cls-1" d="M353.35,59.56h0.06c1.24-2.63,3.46-4.57,6.44-4.44l-1.33,3.27a3.27,3.27,0,0,0-2-.51c-1.81,0-3,2.31-3,4.38v5.83c0,2,.16,3.49,1.81,3.8a0.37,0.37,0,0,1,.32.19c0,0.1-.1.1-0.25,0.1s-1.78-.1-3.52-0.1-3.2.1-3.39,0.1a0.27,0.27,0,0,1-.29-0.1,0.38,0.38,0,0,1,.35-0.16c1.49-.54,1.71-1.17,1.71-3.84V60.51c0-2.19-.13-3.33-1.24-3.58a0.7,0.7,0,0,1-.48-0.25,1.44,1.44,0,0,1,.67-0.16,24.55,24.55,0,0,0,4.12-1v4.09Z" transform="translate(-0.61)"/><path class="cls-1" d="M240.82,111c-3.26,2.64-7.58,3.54-11.73,3.54-7.62,0-14.69-4.27-14.69-13.21,0-8,7.07-13.21,14.69-13.21a22,22,0,0,1,11.15,3L239,94.67a4.55,4.55,0,0,1-.54,1.32,2.27,2.27,0,0,1-.43-1c-0.82-3.38-3.23-6.09-9-6.21-7.07,0-10.27,6.71-10.27,12.5s3.5,12.5,11.82,12.5c3.81,0,6.68-2.32,8.39-6.24a1.21,1.21,0,0,1,.43-0.82c0.16,0,.19.12,0.35,0.7Z" transform="translate(-0.61)"/><path class="cls-1" d="M269.36,109.76l4.11-8a9.29,9.29,0,0,0,1.09-3.37,1.74,1.74,0,0,0-1.48-1.74,0.3,0.3,0,0,1-.29-0.19c0-.1.13-0.13,0.32-0.13,0.84,0,1.12.13,2.44,0.13s1.54-.13,2.38-0.13c0.22,0,.42,0,0.42.1a0.52,0.52,0,0,1-.29.39,14.1,14.1,0,0,0-3.28,4.4l-6.26,12a0.93,0.93,0,0,1-.38.45h-0.06a1,1,0,0,1-.32-0.48l-5.62-11c-1.22-2.44-2.25-4.53-3.6-5.43a0.66,0.66,0,0,1-.39-0.32c0-.13.19-0.13,0.42-0.13,0.51,0,1.32.13,2.86,0.13s2.63-.13,2.89-0.13a0.47,0.47,0,0,1,.42.13,0.39,0.39,0,0,1-.29.26,1.15,1.15,0,0,0-.9,1.22,6.44,6.44,0,0,0,.8,2.18Z" transform="translate(-0.61)"/><path class="cls-1" d="M279.66,102.57c-0.06.74-.1,1.41-0.1,2.09,0,6,3.08,8.19,6.2,8.19,3.69,0,6.42-2.54,7.52-6.29H294c-1,4.43-4.24,7.1-8.61,7.1-5.46,0-9.51-3.69-9.51-8.83s4-8.83,9.51-8.83c3.5,0,7.74,2.12,8.19,6.59H279.66Zm9.83-.61c0-3.15-1.51-5.36-4.85-5.36-2.92,0-4.5,2.6-4.85,5.36h9.7Z" transform="translate(-0.61)"/><path class="cls-1" d="M298.06,101h0.06c0.74-2.73,2.31-5,6.55-5,3.53,0,6.84,1.83,6.84,6.94v6.2c-0.06,3.05.35,3.5,1.28,3.82a0.66,0.66,0,0,1,.42.23c0,0.1-.16.1-0.48,0.1s-1.12-.1-2.89-0.1-2.89.1-3.31,0.1c-0.19,0-.35,0-0.35-0.1s0.06-.16.29-0.19c1.16-.13,1.73-1,1.73-3.86v-6.23c0-3-1.32-6.1-4.72-6.1-3.82,0-5.08,3.92-5.08,8.42v3.92c0,2,.1,3.53,1.54,3.79,0.23,0,.35.1,0.35,0.19s-0.1.16-.29,0.16-1.54-.1-3.28-0.1-3.21.1-3.44,0.1-0.29,0-.29-0.16,0.13-.16.35-0.19c1.61-.26,1.73-1.77,1.73-3.79v-8c0-1.93-.22-3-1.12-3.4a1.39,1.39,0,0,1-.58-0.32,0.85,0.85,0,0,1,.61-0.16,28.15,28.15,0,0,0,4-.93V101Z" transform="translate(-0.61)"/><path class="cls-1" d="M328.82,110.37c0,1.06.16,2,1.16,2.47a0.44,0.44,0,0,1,.32.19,0.4,0.4,0,0,1-.42.13h-3.47a9.62,9.62,0,0,1-.77-3.28h-0.06a6,6,0,0,1-5.94,3.76c-3.34,0-6.78-1.54-6.78-5.36,0-4.88,7.45-5.36,10.82-5.36h1.83v-1.06c0-3.08-1.45-5.27-4.69-5.27-3,0-4.69.87-5.85,3.69a1.64,1.64,0,0,1-.26.55,0.58,0.58,0,0,1-.16-0.35l-0.84-2.89A14.56,14.56,0,0,1,321.31,96c3.66,0,7.52,1.32,7.52,5.36v9Zm-3.31-6.84h-1.89c-3.47,0-7,1-7,5.27a3.9,3.9,0,0,0,4,4c3.79,0,4.95-4,4.95-7.06v-2.25Z" transform="translate(-0.61)"/><path class="cls-1" d="M335,101H335c0.74-2.73,2.31-5,6.55-5,3.53,0,6.84,1.83,6.84,6.94v6.2c-0.06,3.05.35,3.5,1.28,3.82a0.67,0.67,0,0,1,.42.23c0,0.1-.16.1-0.48,0.1s-1.12-.1-2.89-0.1-2.89.1-3.31,0.1c-0.19,0-.35,0-0.35-0.1s0.06-.16.29-0.19c1.16-.13,1.73-1,1.73-3.86v-6.23c0-3-1.32-6.1-4.72-6.1-3.82,0-5.08,3.92-5.08,8.42v3.92c0,2,.1,3.53,1.54,3.79,0.22,0,.35.1,0.35,0.19s-0.1.16-.29,0.16-1.54-.1-3.28-0.1-3.21.1-3.44,0.1-0.29,0-.29-0.16,0.13-.16.35-0.19c1.61-.26,1.74-1.77,1.74-3.79v-8c0-1.93-.23-3-1.12-3.4a1.39,1.39,0,0,1-.58-0.32,0.85,0.85,0,0,1,.61-0.16,28.08,28.08,0,0,0,4-.93V101Z" transform="translate(-0.61)"/><path class="cls-1" d="M349.17,98.3a0.3,0.3,0,0,1-.32-0.29,0.89,0.89,0,0,1,.64-0.45A8.29,8.29,0,0,0,354.05,93a0.43,0.43,0,0,1,.35-0.32c0.16,0,.16.22,0.16,0.45v4.15h3.56l-0.23,1h-3.34v9.12c0,4.27,1,5,2.05,5.4,0.26,0.1.39,0.13,0.39,0.23a0.53,0.53,0,0,1-.51.13h-3.89a2.28,2.28,0,0,1-1.35-2.34V98.3h-2.09Z" transform="translate(-0.61)"/><path class="cls-1" d="M298.9,119.53v-3.15a1.14,1.14,0,0,0-.67-1.28,0.35,0.35,0,0,1-.16-0.09s0.09-.06.23-0.06,1,0.06,1.5.06,1.25-.06,1.5-0.06,0.23,0,.23.06a0.35,0.35,0,0,1-.16.09,1.14,1.14,0,0,0-.67,1.28v6.92a1.43,1.43,0,0,0,.84,1.56,0.19,0.19,0,0,1,.14.13s-0.09,0-.25,0c-0.56,0-.75,0-1.64,0s-1.08,0-1.64,0c-0.16,0-.25,0-0.25,0a0.19,0.19,0,0,1,.14-0.13,1.43,1.43,0,0,0,.84-1.56v-3.38H293v3.38a1.43,1.43,0,0,0,.84,1.56,0.19,0.19,0,0,1,.14.13s-0.09,0-.25,0c-0.56,0-.75,0-1.64,0s-1.08,0-1.64,0c-0.16,0-.25,0-0.25,0a0.19,0.19,0,0,1,.14-0.13,1.43,1.43,0,0,0,.84-1.56v-6.92a1.14,1.14,0,0,0-.67-1.28,0.35,0.35,0,0,1-.16-0.09s0.09-.06.23-0.06,1,0.06,1.5.06,1.25-.06,1.5-0.06,0.23,0,.23.06a0.36,0.36,0,0,1-.16.09,1.14,1.14,0,0,0-.67,1.28v3.15h5.94Z" transform="translate(-0.61)"/><path class="cls-1" d="M305.41,119.53h2.88a2.48,2.48,0,0,0,2.35-1.17,0.16,0.16,0,0,1,.13-0.14s0.06,0.08.06,0.23V121c0,0.27,0,.33-0.06.33a0.31,0.31,0,0,1-.13-0.22c-0.45-1.15-1.73-1.21-2.82-1.21h-2.42v3.29c0,1.14.39,1.39,1.45,1.39h1.76a6.63,6.63,0,0,0,4.07-1.7,2.12,2.12,0,0,1,.42-0.33,0,0,0,0,1,0,0,0.78,0.78,0,0,1,0,.13L312.44,125h-9.49a0.57,0.57,0,0,1-.47-0.06s0.33-.14.44-0.23c0.58-.45.68-0.89,0.68-2.31v-5.3c0-1-.06-1.68-0.68-1.84a0.57,0.57,0,0,1-.27-0.14c0-.06.06-0.09,0.3-0.09h8.81l0.42,1.47a2.2,2.2,0,0,1,.14.58,0.11,0.11,0,0,1-.08.12A0.26,0.26,0,0,1,312,117a4.54,4.54,0,0,0-3.77-1.64h-2.87v4.13Z" transform="translate(-0.61)"/><path class="cls-1" d="M317.15,120.43l-0.84,1.64a3.94,3.94,0,0,0-.54,1.78,1,1,0,0,0,.84,1c0.12,0,.17.06,0.17,0.11s-0.08.08-.19,0.08-0.67,0-1.53,0c-0.62,0-1,0-1.22,0s-0.2,0-.2-0.08a0.54,0.54,0,0,1,.3-0.25,9.63,9.63,0,0,0,1.81-2.46l3.82-7.42a0.23,0.23,0,0,1,.11-0.12h0a0.19,0.19,0,0,1,.13.12l4.58,8.58a4,4,0,0,0,1,1.29,1,1,0,0,1,.36.27s-0.08.08-.22,0.08-0.84,0-1.75,0c-1.28,0-1.79,0-1.89,0a0.17,0.17,0,0,1-.16,0c0-.06.08-0.09,0.2-0.13a0.72,0.72,0,0,0,.44-0.81,6.4,6.4,0,0,0-.7-1.78l-0.89-1.84h-3.71ZM319,116.8L317.36,120h3.31Z" transform="translate(-0.61)"/><path class="cls-1" d="M329.19,122.91c0,1.56.59,1.68,1.92,1.68h0.83a6,6,0,0,0,4.1-1.81,1.21,1.21,0,0,1,.33-0.37,0.1,0.1,0,0,1,.09.11,1.76,1.76,0,0,1-.06.22L335.76,125h-9.17c-0.27,0-.34,0-0.34-0.08a1.22,1.22,0,0,1,.37-0.14c0.61-.27.76-0.84,0.76-2.23v-6.16a1.2,1.2,0,0,0-.67-1.25,0.19,0.19,0,0,1-.15-0.13s0.09-.06.23-0.06,1,0.06,1.5.06,1.25-.06,1.5-0.06,0.19,0,.19.08a0.2,0.2,0,0,1-.14.09,1.19,1.19,0,0,0-.64,1.26v6.53Z" transform="translate(-0.61)"/><path class="cls-1" d="M338.79,116.11c0-.61-0.27-0.72-1-0.72a4.69,4.69,0,0,0-3.29,1.54,1.78,1.78,0,0,1-.28.26,0.09,0.09,0,0,1-.08-0.09,2.63,2.63,0,0,1,.11-0.36l0.5-1.75h9.82l0.5,1.75a2.48,2.48,0,0,1,.11.36,0.09,0.09,0,0,1-.08.09,1.8,1.8,0,0,1-.28-0.26,4.7,4.7,0,0,0-3.29-1.54c-0.7,0-1,.11-1,0.72v7.19a1.28,1.28,0,0,0,.94,1.51,0.25,0.25,0,0,1,.23.13,0.14,0.14,0,0,1-.12.09c-0.11,0-1.06,0-2,0s-1.81,0-1.92,0-0.14,0-.14-0.08a0.53,0.53,0,0,1,.3-0.13c0.72-.31.86-0.76,0.86-2.21v-6.5Z" transform="translate(-0.61)"/><path class="cls-1" d="M354.62,119.53v-3.15a1.14,1.14,0,0,0-.67-1.28,0.35,0.35,0,0,1-.16-0.09s0.09-.06.23-0.06,1,0.06,1.5.06,1.25-.06,1.5-0.06,0.23,0,.23.06a0.36,0.36,0,0,1-.15.09,1.14,1.14,0,0,0-.67,1.28v6.92a1.43,1.43,0,0,0,.84,1.56,0.19,0.19,0,0,1,.14.13s-0.09,0-.25,0c-0.56,0-.75,0-1.64,0s-1.08,0-1.64,0c-0.16,0-.25,0-0.25,0a0.18,0.18,0,0,1,.14-0.13,1.43,1.43,0,0,0,.84-1.56v-3.38h-5.94v3.38a1.43,1.43,0,0,0,.84,1.56,0.18,0.18,0,0,1,.14.13s-0.09,0-.25,0c-0.56,0-.75,0-1.64,0s-1.08,0-1.64,0c-0.15,0-.25,0-0.25,0a0.18,0.18,0,0,1,.14-0.13,1.43,1.43,0,0,0,.84-1.56v-6.92a1.14,1.14,0,0,0-.67-1.28A0.35,0.35,0,0,1,346,115s0.09-.06.23-0.06,1,0.06,1.5.06,1.25-.06,1.5-0.06,0.23,0,.23.06a0.35,0.35,0,0,1-.16.09,1.14,1.14,0,0,0-.67,1.28v3.15h5.94Z" transform="translate(-0.61)"/><path class="cls-1" d="M260.81,103.47a10.82,10.82,0,0,1-1.87,6.21,8.25,8.25,0,0,1-9.06,3.18c-3.53-1-7.51-5.66-5.2-10.94a6.89,6.89,0,0,1,5.12-4,7.37,7.37,0,0,0-6,2.82A8.75,8.75,0,0,0,246.67,114a10,10,0,0,0,13-4.08A10.8,10.8,0,0,0,260.81,103.47Z" transform="translate(-0.61)"/><path class="cls-1" d="M241.07,106.55a10.81,10.81,0,0,1,1.87-6.21A8.25,8.25,0,0,1,252,97.16c3.53,1,7.51,5.66,5.2,10.94a6.89,6.89,0,0,1-5.12,4,7.36,7.36,0,0,0,6-2.82,8.75,8.75,0,0,0-2.86-13.23,10,10,0,0,0-13,4.08A10.8,10.8,0,0,0,241.07,106.55Z" transform="translate(-0.61)"/><path class="cls-1" d="M359.56,123.29a0.93,0.93,0,0,1,.28.68,0.94,0.94,0,0,1-.28.69,1,1,0,0,1-1.37,0,1,1,0,0,1-.28-0.69,0.93,0.93,0,0,1,.28-0.68A1,1,0,0,1,359.56,123.29Zm0.11-.11a1.13,1.13,0,1,0,.33.79A1.08,1.08,0,0,0,359.67,123.18Zm-0.63.74a0.56,0.56,0,0,1-.21,0h-0.2v-0.45h0.19a0.55,0.55,0,0,1,.26,0,0.18,0.18,0,0,1,.08.18A0.19,0.19,0,0,1,359,123.92Zm-0.62.67h0.22V124.1h0.17a0.54,0.54,0,0,1,.24,0,0.3,0.3,0,0,1,.12.28v0.14h0.2a0.23,0.23,0,0,1,0-.07s0-.06,0-0.09v-0.09a0.33,0.33,0,0,0-.07-0.19,0.3,0.3,0,0,0-.21-0.12,0.44,0.44,0,0,0,.18-0.06,0.27,0.27,0,0,0,.12-0.24,0.3,0.3,0,0,0-.19-0.31,0.91,0.91,0,0,0-.34,0h-0.43v1.23Z" transform="translate(-0.61)"/><rect class="cls-1" y="80.78" width="358.1" height="1.19"/><path class="cls-2" d="M24.94,49.56q-3.15.55-6.25,1.42V23.48l3.12-2.55,3.12,2.55V49.56Z" transform="translate(-0.61)"/><path class="cls-2" d="M32.87,48.65c-2.1.12-4.18,0.33-6.25,0.64V23.48l3.12-2.55,3.12,2.55V48.65Z" transform="translate(-0.61)"/><path class="cls-2" d="M40.79,48.64q-3.15-.16-6.24-0.07V23.48l3.12-2.55,3.12,2.55V48.64Z" transform="translate(-0.61)"/><path class="cls-2" d="M82.13,55.7c2.1,0.12,4.18.15,6.24,0.08V23.48l-3.12-2.55-3.12,2.55V55.7Z" transform="translate(-0.61)"/><path class="cls-2" d="M90.06,55.7q3.13-.19,6.24-0.68V23.48l-3.12-2.55-3.12,2.55V55.7Z" transform="translate(-0.61)"/><path class="cls-2" d="M98,54.73c2.07-.39,4.15-0.9,6.25-1.51V23.48l-3.12-2.55L98,23.48V54.73Z" transform="translate(-0.61)"/><path class="cls-2" d="M42.48,68.48c2.05,0.16,4.13.41,6.24,0.74V2.55L45.6,0,42.48,2.55V68.48Z" transform="translate(-0.61)"/><path class="cls-2" d="M50.41,69.5q3.06,0.53,6.24,1.26V2.55L53.53,0,50.41,2.55V69.5Z" transform="translate(-0.61)"/><path class="cls-2" d="M58.34,71.17q1.56,0.38,3.15.81t3.09,0.79V2.55L61.46,0,58.34,2.55V71.17Z" transform="translate(-0.61)"/><path class="cls-2" d="M66.27,73.17q3.18,0.74,6.24,1.27V2.55L69.39,0,66.27,2.55V73.17Z" transform="translate(-0.61)"/><path class="cls-2" d="M74.19,74.72c2.12,0.33,4.19.58,6.25,0.74V2.55L77.32,0,74.2,2.55V74.72Z" transform="translate(-0.61)"/><path class="cls-3" d="M3.61,62.88a1.78,1.78,0,0,0,.83-0.21,70.19,70.19,0,0,1,24.33-8,102.28,102.28,0,0,1,12-.54V50.57c-3.33,0-6.79,0-10.33.35H30.25l-1.92.22c-1.62.19-3.26,0.44-4.9,0.78h0A76.28,76.28,0,0,0,2.77,59.51,1.79,1.79,0,0,0,3.61,62.88Z" transform="translate(-0.61)"/><path class="cls-3" d="M29.58,62.43l-1.74.26c-1.55.24-3.14,0.54-4.78,0.94h0A86.32,86.32,0,0,0,2.7,71.49a1.79,1.79,0,1,0,1.66,3.17A81.62,81.62,0,0,1,23.9,67.1h0L24.27,67q2.1-.48,4.21-0.81a80.06,80.06,0,0,1,12.29-.72V61.91a91.51,91.51,0,0,0-11,.52H29.58Z" transform="translate(-0.61)"/><path class="cls-3" d="M87.11,61.39c1.17,0,2.32,0,3.49-.08h0.21l1.2-.1,0.43,0h0c9.22-.87,18.09-3.67,27.76-8.75a1.79,1.79,0,0,0-1.66-3.17c-9.31,4.89-17.81,7.57-26.62,8.37-2.39.21-4.76,0.19-7.27,0.17l-2.56,0v3.58l2.52,0Z" transform="translate(-0.61)"/><path class="cls-3" d="M29.95,56.65l-1.71.22c-1.59.2-3.21,0.47-4.82,0.82v0A80.47,80.47,0,0,0,2.74,65.5,1.79,1.79,0,1,0,4.4,68.67a73.27,73.27,0,0,1,24.26-8.24,95.62,95.62,0,0,1,12.11-.6V56.24c-3.27,0-6.87,0-10.62.41H29.95Z" transform="translate(-0.61)"/><path class="cls-3" d="M118.51,55.24c-9.94,5.22-19.12,7.85-28.89,8.26h0l-0.85,0c-1.13,0-2.26,0-3.44,0s-2.14,0-3.22,0V67c1.05,0,2.1,0,3.14,0s2.1,0,3.17,0h0.12l0.46,0h1.1v0c10.19-.48,19.76-3.23,30.07-8.64A1.79,1.79,0,0,0,118.51,55.24Z" transform="translate(-0.61)"/><path class="cls-3" d="M118.47,61.23c-9.53,5-18.34,7.55-27.7,8-1.64.07-3.28,0-5-.05-1.19,0-2.42-.09-3.66-0.09v3.58c1.18,0,2.37,0,3.53.09s2.37,0.09,3.57.09l1.26,0h0.12l0.33,0h0.3c9.8-.52,19-3.19,28.93-8.41A1.79,1.79,0,0,0,118.47,61.23Z" transform="translate(-0.61)"/></svg>