<?xml version="1.0" encoding="utf-8"?>
<!-- Generator: Adobe Illustrator 19.2.0, SVG Export Plug-In . SVG Version: 6.00 Build 0)  -->
<!DOCTYPE svg PUBLIC "-//W3C//DTD SVG 1.1//EN" "http://www.w3.org/Graphics/SVG/1.1/DTD/svg11.dtd">
<svg version="1.1" id="Layer_1" xmlns="http://www.w3.org/2000/svg" xmlns:xlink="http://www.w3.org/1999/xlink" x="0px" y="0px"
	 viewBox="0 0 360 219.4" enable-background="new 0 0 360 219.4" xml:space="preserve">
<g>
	<g>
		<path fill="#004A97" d="M1.6,90.2c0-1.2-0.2-2.6,0.4-3.7c2.1-3.9,3.6-7.7,6-11.5c0.1-0.1,0-0.4,0.1-0.5c0.1-0.2,0.4-0.3,0.5-0.6
			c0.1-0.1,0-0.4,0-0.5C9,72.7,9.8,72,9.6,71c-1.5-0.7-3-0.1-4.5-0.3c-0.2-2.4,3-2.7,4.7-3.5c0.4-0.2,0.8-0.6,1.1-0.6
			c1.8-0.1,3-1.4,3.6-3c0.3-0.8,1.3-1.3,1.7-2.2c0.1-0.1,0-0.4,0.1-0.5c0.2-0.3,0.6-0.5,0.7-0.8c0.2-0.8,0.6-1.5,1-2
			c0.9-1.2,1.2-2.5,2.3-3.6c0.1-0.1,0-0.4,0.1-0.5c0.4-0.4,0.6-1,1-1.4c0.1-0.1,0-0.4,0.1-0.5c1.1-1.6,2.2-3.3,2.4-5.3
			c-1.3-0.8-2.6,0.2-4,0.1c-0.2,0-0.3,0.4-0.5,0.4c-0.9,0.2-1.6,0.6-2.4,0.7c-0.9,0.2-1.6,0.3-2.4,0.9c-0.1,0.1-0.3,0-0.5,0
			c-0.8,0.3-1.2,1.1-2.1,1.1c-0.4,0-0.7,0.6-1.1,0.9c-0.1,0.1-0.4,0-0.5,0.1c-0.6,0.4-1.1,0.8-1.6,1.3c-0.1,0.1-0.4,0-0.5,0.1
			c-1.5,1.4-2.2,3.2-3.8,4.5c-0.1,0.1-0.4,0-0.5,0.1c-0.5,0.4-0.9,1-1.6,0.7c-1.3-0.5-2.5-1.6-2.1-3.1c0.2-0.7,0.7-1.2,1.3-1.6
			c1.4-0.9,2.8-1.5,4.3-2.4c0.4-0.2,0.9-0.2,1.3-0.4c2.7-1.2,5.1-2.9,7.8-4c0.6-0.3,1.4-0.5,2-0.7c1.1-0.5,2.2-0.6,3.3-1.2
			c0.2-0.1,0.5,0,0.8-0.1c1.8-0.8,4-0.9,5.8-0.2c0.8,0.3,1.3,0.9,1.8,1.6c0.1,0.1,0,0.4,0.1,0.5c1,1,0.4,2.5,0.4,3.7
			c0,0.2-0.4,0.3-0.4,0.5c-0.6,2.5-1.9,4.7-3.5,6.9c-0.1,0.1,0,0.4-0.1,0.5c-1.7,1.7-2.4,4-3.4,6.1c0.5,0.5,1.1,0.4,1.6,0.2
			c2.2-0.9,4.8-0.7,6.9-1.8c0.2,0.4,0.5,0.3,0.8,0.2c2.4-0.7,4.8-1.2,7.2-1c1-0.7,2.2-0.3,3.1-0.9c0.6-0.4,0.5-1.2,0.9-1.7
			c0.1-0.1,0.3-0.1,0.5-0.3c0.9-1.4,1.2-2.9,2-4.3c0.2-0.4,0.6-0.9,0.7-1.5c0.1-0.2,0.4-0.3,0.5-0.6c0.1-0.1,0-0.4,0.1-0.5
			c0.6-0.8,0.6-1.6,1.1-2.3c0.3-0.4,0.8-0.7,0.9-1.1c0.1-0.9,0.2-1.7,0.8-2.4c0.1-0.2,0-0.5,0.1-0.7c0.8-1.2,0.3-2.8,1.1-4
			c0.6-1,1.8-1.3,2.8-0.8c2.8,1.7,1.8,5.5,0.1,7.9c-0.1,0.1,0,0.4-0.1,0.5c-0.4,0.5-0.6,1.1-1.3,1.4c0.2,0.7-0.3,1.2-0.3,1.9
			c0,0.2-0.3,0.3-0.5,0.5c-0.1,0.1,0,0.4-0.1,0.5c-0.2,0.3-0.6,0.5-0.7,0.8c-0.1,0.2,0,0.5-0.1,0.8c-0.1,0.2-0.4,0.3-0.5,0.6
			c-0.3,1.5-1.4,2.6-1.9,4c-0.1,0.3-0.3,0.9,0.2,1c2,0.5,4.4-0.7,6.1,0.8c0.1,0.1,0.4,0,0.5,0.1c1.3,2-1.1,3.8-2.9,3.6
			c-0.2,0-0.6-0.2-0.9-0.3c-1.4-0.5-2.9-0.1-4.5-0.3c-0.5-0.1-1.2,0.2-1.5,0.5c-1.9,2.3-2.6,5-4.3,7.6c-0.4,0.6-0.4,1.2-0.6,1.8
			c-0.1,0.4-0.8,0.4-0.9,0.8c-0.6,2.6-1.7,4.7-3.5,6.7c-0.2,0.2,0.2,0.4,0.2,0.5c0.1,0.5-0.4,0.9-0.7,1.3c-0.1,0.2,0,0.7-0.1,0.7
			c-0.9,0.3-0.8,1.3-0.8,1.9c-0.3-0.1-0.5,0.1-0.5,0.3c-0.1,0.9,0.1,1.8-0.3,2.7c0.9,1.1,1.6,3,0.2,3.9c-1.1,0.7-2.3,0.5-3.4-0.2
			c-0.9-0.6-1.5-1.5-2.1-2.4c-0.2-0.4-0.1-0.9-0.2-1.3c-0.4-3.3,0.7-6.6-0.5-9.8c-0.3-0.7-0.2-1.5-0.6-2.1c-0.5-0.9-1.2-1.8-2-2.4
			c-0.1-0.1-0.4,0-0.5-0.1c-1.8-1.4-3.9-2-5.9-3.1c-0.4-0.2-0.9-0.2-1.3,0c-1,0.6-1.3,1.8-2.1,2.6c-0.1,0.1,0,0.3-0.1,0.5
			c-0.3,0.7-1,1-1.2,1.6c-0.2,0.7-0.5,1.2-0.8,1.9c-0.2,0.4-0.2,0.9-0.6,1.3c-0.1,0.2,0,0.5-0.1,0.7c-0.4,0.6-1.3,1-1.4,1.6
			c-0.3,1.6-1.1,2.9-1.5,4.5c-0.3-0.1-0.5,0.1-0.5,0.3c0,0.9,0,1.7-1.1,1.9c-0.2,0-0.4,0.3-0.2,0.5c0.3,0.3,0.3,0.6,0.2,0.8
			c-0.3,0.3-0.3,0.7-0.4,0.9c-0.3,0.9-0.2,1.9-0.9,2.6c0.5,0.4,0.3,0.9,0.2,1.3c-0.4,1.2-1.5,0.9-2.3,0.2
			C2.8,93.5,1.6,91.9,1.6,90.2z M27.9,74.3c0.2,0.1,0.4,0.2,0.5,0.3c0.7,1,1.2,1.9,1.4,3.1c0,0.2,0.3,0.4,0.5,0.5
			c0.2,0.1,0.4,0,0.5-0.3c1.9-4.1,4.3-7.7,6.6-11.7c0.1-0.3,0.3-0.9-0.2-0.9c-2.6-0.1-5.1,0.2-7.7,0.7c-1,0.2-2-0.2-2.9-0.1
			c-0.5,0.1-1.1,0.3-1.7,0.6c-0.5,0.2-1.1-0.3-1.6-0.3c-0.3,0-0.8,0.5-1.1,0.6c-0.9,0.2-1.7,0.5-2.6,0.9c-0.2,0.1-0.6-0.1-0.7,0.1
			c-0.7,0.6-1.2,1.5-1.6,2.4c-0.1,0.2,0.1,0.5,0.3,0.5c0.7,0.1,1.3,0.3,1.9,0.4c1.4,0.3,2.8,0.6,4.2,1c0.2,0.1,0.4,0.4,0.5,0.4
			C25.8,72.4,26.7,73.4,27.9,74.3z"/>
	</g>
	<g>
		<path fill="#004A97" d="M57.4,82.4C57.4,82.5,57.3,82.5,57.4,82.4c0-0.2,0.3-0.1,0.5-0.2c0.6-0.7,1.3-1,2-1.5
			c0.1-0.1,0.2-0.2,0.3-0.3c0.2-0.1,0.4-0.1,0.5-0.2c0.7-0.4,1.2-1.2,2-1.4c-0.1,0.1-0.1,0.1-0.1,0.2c0,0.3-0.2,0.5-0.3,0.7
			c0,0,0,0.1-0.1,0.2c-0.1,0.2-0.3,0.2-0.4,0.4c-0.3,0.5-0.4,1-0.7,1.5c0,0.1,0,0.2,0,0.3c-0.4,0.5-0.7,1.1-1,1.6
			c0,0.5-0.2,0.9-0.3,1.3c0,0.2-0.2,0.3-0.2,0.5c-0.1,0.3-0.2,0.6-0.2,0.9c0,0.1-0.1,0.2-0.2,0.2c-0.2,0-0.3,0.2-0.5,0.1
			c-0.1,0.2-0.3,0.1-0.5,0.3c-0.1,0.1-0.1,0.2-0.2,0.3c-0.3,0.2-0.6,0.4-0.9,0.5c-0.2,0.1-0.4,0.2-0.7,0.3c-0.1,0-0.2,0-0.2,0
			c-0.1,0.1-0.2,0.2-0.2,0.2c-1.2,0.5-2.3,1-3.5,1.5c-0.3,0.2-0.8,0.5-1.3,0.4c-0.1,0.4-0.6,0.2-0.8,0.5c-0.1,0.1-0.5,0-0.7,0.1
			c-0.9,0.7-2.2,0.7-3,0c-0.8,0.6-1.8,0.3-2.6,0.1c-2.1-0.5-3.7-2.4-4.4-4.6c-0.1-0.4-0.7-0.7-0.9-1.1c-0.2-0.5-0.2-1.1,0-1.6
			c0.2-0.5,0.7-0.9,0.9-1.4c0.9-1.8,1.4-3.5,2.4-5.3c0.6-0.9,1.7-1.2,2.1-2.1c0.8-2,2.9-2.8,4.6-3.6c2.1-1,4.5-1.5,6.9-1.4
			c1.2,0.8,3.1,0.2,3.7,1.9c0.7,1.9-1,3.6-2.8,4.6c-0.7,0.4-1.3,0.9-2,1.4c-0.2,0.2-0.7,0-1,0.1c-0.5,0.3-0.9,0.9-1.4,1.2
			c-0.1,0.1-0.4,0-0.5,0.1c-0.5,0.3-0.7,0.9-1.1,1.3c-0.1,0.1-0.4,0-0.5,0.1c-0.5,0.5-1,1-1.6,1.3c-0.1,0.1-0.4,0-0.5,0.1
			c-0.7,0.6-1.4,2.1-2.4,1.3c-0.4,0.4-0.3,1-1,1.2c-0.9,0.2-1.2,1.6-1,2.5c0.1,0.3,0.4,0.7,0.7,0.8c1,0.3,2.1,0.2,3.1-0.1
			c1-0.2,1.9-0.7,3-0.6c0.7-1,2.1-1,2.9-1.9c0.3-0.3,0.7-0.4,0.9-0.7c0.1-0.1,0.3,0,0.5-0.1c1-0.5,1.6-1.2,2.6-1.7
			c0.2-0.1,0.3-0.2,0.5-0.3 M49.4,75.2c-1.7,0.9-2.4,2.6-3,4.1c-0.1,0.3,0.5,0.3,0.7,0.2c2.7-1.6,5.1-3.2,7.2-5.6
			c0.2-0.2,0-0.4-0.2-0.5c-1.2-0.3-2.1,0.5-3.2,0.8C50.3,74.5,49.8,75,49.4,75.2z"/>
	</g>
	<g>
		<path fill="#004A97" d="M59,81.6c2.2-2.6,4.3-4.8,7-6.8c0.1-0.1,0.3,0,0.5-0.1c1.3-0.5,2.2-1.8,3.7-2.2c1.3-0.4,2.5-1.2,4-1.5
			c0.4-0.1,0.8-0.6,1-0.4c0.8,0.5,1.5-0.4,2.2,0c1.2,0.6,2.1,1.8,2.2,3.1c0,0.2,0.3,0.4,0.4,0.2c1.1-1.7,3-2.8,4.8-2.1
			c1,1.4,0.5,3.1-0.1,4.5c-0.2,0.4-0.5,0.9-0.8,1.3c-0.7,0.9-1.1,1.8-1.3,3c-0.1,0.4-0.3,0.7-0.5,1.1c-0.5,1-0.2,2-0.2,2.9
			c0,0.4,0.6,0.4,0.7,0.2c1-1,2.9-1.6,3.3-3.1c0,0-0.1-0.1,0-0.1c0.7-0.4,1.6-3.7,2.2-4.2c0.1-0.1,1.9-2.1,2-2.1
			c0.4-0.2-0.3,7.7-0.6,9c0,0.3-0.2,0.5-0.5,0.5c-0.3,0.1-2.6,1.8-2.9,1.9c-1.5,1.1-2.8,2-4.5,2.6c-1,0.3-2-0.1-2.8-0.6
			c-2.3-1.5-1.2-4.5-1.9-6.8c-0.7,0.4-1.1,1-1.7,1.5c-0.9,0.7-1.6,1.8-2.8,2c-0.7,1.1-1.7,1.8-2.7,2.6c-0.2,0.1-0.5,0.3-0.7,0.4
			c-2.8,2.3-6.4,4.9-9.9,3.1c0.1-0.6-0.6-0.4-0.8-0.8c-0.5-1-0.5-2.3-1.2-2.9c-0.6-0.5,0-1.5,0.2-2.3c0.2-0.9,0.7-1.6,1-2.3
			c0.2-0.4,0.3-0.9,0.5-1.3c0.1-0.2,0.3-0.2,0.4-0.4 M68.6,78.6c-1.1,0.6-2.1,1.4-2.9,2.3c-1,1.2-2,2.2-3,3.4
			c-0.1,0.1,0,0.4-0.1,0.5c-0.9,1-1.2,2.7,0,3.5c1.7-0.6,3.2-1.4,4.7-2.5c0.7-0.5,1.2-1.1,2-1.4c3.3-1.8,5.7-4.5,8.1-7.3
			c0.1-0.2,0.2-0.7-0.2-0.7c-1.2-0.2-2.3-0.6-3.4-0.2c-0.6,0.2-1.2,0.4-1.9,0.5C70.8,77.1,69.8,78,68.6,78.6z"/>
	</g>
	<g>
		<path fill="#004A97" d="M105.2,65.8c-0.1,0.5-0.4,0.9-0.5,1.3c0,0.1-0.1,0.1-0.1,0.1c0,0.1-0.1,0.3-0.2,0.3
			c-0.4,0.2-0.2,0.3-0.3,0.4c-0.1,0.1-0.1,0.2-0.1,0.2c-0.1,0-0.1,0.2-0.2,0.3c-0.7,0.8-1.5,1.4-1.6,2.5c0,0.4-0.8,0.4-1,0.8
			c-0.6,1.4-1.7,2.5-2.5,3.8c-0.3,0.5-0.7,0.9-1,1.5c-0.5,1-1.9,1.4-2.2,2.5c-0.1,0.3-0.3,0.8-0.4,0.9c-1,0.6-2.6-0.7-3,0.7
			c-0.3,1.2-0.6,2.5-0.5,3.7c0.1,1.1,0,2.2,0.5,3.2c1,1.9,2.7-0.1,4.2-0.2c0.5-1.3,1.7-1.5,2.6-2.4c0.2-0.3,0.3-0.7,0.6-1
			c1.6-1.2,2.4-2.8,4-4c0.3-0.2,0.8-0.3,1-0.6c0.5-1.2,1.7-1.7,2.4-2.7c0.8-1.2,2-2.1,1.9-3.7c1.3-1.2,2.2-2.6,3.1-4
			c0.3-0.5,0.7-1.2-0.2-1.5c-1.1-0.3-2.1,0.5-3.2,0.5c-0.2,0-0.4-0.1-0.5,0c-0.8,0.7-2.3,0.9-3.2,0.2c-0.1-0.1,0.1-0.5,0.1-0.7
			c0.2-0.6,0.8-1.1,1-1.8c0.4,0,0,0-0.1,0.1c0.7-0.8,1.1-1.9,2.1-1.9c1.6,0,3.3-0.3,4.8-0.9c0.9-0.4,2-0.3,2.9-0.6
			c0.4-0.2,0.9-0.5,1.3-0.8c1.1-0.9,2.3-1.7,3.2-2.9c0.3-0.4,0.6-0.9,0.8-1.3c0.1-0.3,0.3-0.5,0.4-0.7c0.6-0.9,1.1-2.2,2.2-1.6
			c1.2,0.7,1.7,2.2,1.3,3.6c-0.3,1-1.4,1.3-2,2.2c-0.2,0.2,0.1,0.5,0.2,0.5c3.2,0.1,6.1-0.9,9.3-1.5c0.2,0,0.4,0.2,0.2,0.5
			c-0.8,1.2-1.3,2.5-1.8,3.7c-2.1,0.3-4,1-6.1,1.2c-0.1,0-0.7,0.3-0.8,0.3c-2.2,0.1-4.2,1-5.4,3c0,0.1-0.4,0.1-0.4,0.3
			c-0.1,0.7-0.6,1-0.9,1.5c-0.6,1.1-1.5,2-2.4,2.9c-0.2,0.2-0.5,0.4-0.6,0.7c-0.1,0.3-0.4,0.6-0.4,1c0,0.2-0.3,0.3-0.4,0.5
			c-0.1,0.1,0,0.3,0,0.5c-0.3-0.1-0.5,0.1-0.5,0.3c0,0.4-0.3,0.7-0.3,1.1c-0.3-0.1-0.4,0.1-0.5,0.3c-0.2,0.5-0.5,0.9-0.8,1.3
			c-0.1,0.1,0,0.4-0.1,0.5c-0.7,0.8-1.6,1.2-1.3,2.4c-0.6,0.4-0.7,1.2-0.8,1.9c-0.3-0.1-0.5,0.1-0.5,0.3c0,1.2-0.9,2.8,0.5,3.3
			c1.2,0.5,2.5,0,3.7-0.6c0.2-0.1,0.5,0,0.8-0.1c1.3-0.7,2.6-1.6,4-2.1c0.4-0.2,0.7-0.7,1.1-1c0.5-0.2,1.2-0.4,1.2-0.9
			c0.1-1.2,0.5-2.3,0.6-3.4c2.6-2.3,5.3-4.4,7.4-7.5c0.2-0.3,0.3-0.7,0.4-1c0.8-1.5,1.4-3,2.4-4.5c0.4-0.6,0.7-1.1,0.9-1.7
			c1.3-2.9,2.9-5.5,4.5-8.2c0.2-0.3,0.3-0.7,0.4-1c0.2-0.5,0.8-0.9,0.9-1.4c0.3-1.5,1.4-2.4,2-3.7c0.3-0.7,1-1.3,1.4-1.9
			c0.1-0.2,0.3-0.5,0.4-0.7c0.8-1.4,1.9-2.8,3.6-2.1c1,0.4,1.3,1.6,1.5,2.6c0.3,1.7-0.6,3.3-0.7,5c0,0.5-0.8,0.9-0.8,1.3
			c-0.2,2.2-1.5,3.8-2,5.8c-1.5,1.7-2.5,3.6-3.7,5.6c0,0,0.2,0.2,0.2,0.2c0,0.1-0.1,0.2-0.2,0.2c-0.1,0-0.2-0.1-0.3-0.2
			c-0.8,1.4-2,2-3.4,2.8c-0.2,0.1,0.1,0.9-0.1,1.2c-1.7,2.1-2.8,4.3-4,6.7c-0.2,0.4-0.5,0.7-0.7,1.1c-0.3,0.6-0.3,1.2-0.5,1.9
			c0,0.1,0.3,0.4,0.4,0.2c2-2.1,4.4-3.5,6.5-5.4c1.1-1,2.5-1.7,3.9-2.2c2.4-0.9,6.3-1.4,7,1.8c0.5,2.2-0.4,4.2-0.9,6.3
			c-0.8,0.4-0.5,1.2-0.7,1.9c-0.2,1-0.5,2.1,0.1,3.2c0.3-0.4,0.9-0.6,1.3-0.9c3.1-2.3,5.5-5,8.8-6.6c0.8,2.7-1.1,5.5-3.5,6.9
			c-0.1,0.1-0.4,0-0.5,0c-0.5,0.2-0.5,0.9-0.8,0.9c-1.1,0.1-2.1,0.5-2.1,1.7c-0.6,0.1-0.9,0.8-1.6,0.5c-1,2.4-4,3.1-6.1,1.6
			c-2.5-3.9,0-8.5-0.3-12.7c0-0.3-0.4-0.7-0.7-0.7c-0.9,0-1.1,1-2.1,1.1c-0.4,0-0.8,0.8-1.4,1.2c-0.1,0.1-0.4,0-0.5,0.1
			c-0.3,0.2-0.5,0.5-0.8,0.7c-0.1,0.1-0.4,0-0.5,0.1c-1.8,1.6-3.8,2.9-5.3,4.8c-0.4,0.5-0.8,0-1.1,0.2c-0.3,0.2-0.6,0.5-0.8,0.8
			c-0.1,0.2,0.1,0.6-0.1,0.7c-1.2,1.5-2.8,2.6-3.7,4.3c-0.4,0.7-1.3,0.9-1.8,1.6c-1-0.2-2-0.8-2.3-1.6c-0.2-0.6-0.3-1.2-0.4-1.8
			c0-0.2-0.3-0.4-0.5-0.2c-0.3,0.2-0.5,0.6-0.8,0.7c-1.3,0.5-2.7,0.9-3.7,1.9c-1.8,0.4-3.5,0.9-5.3,0.9c-0.3,0-0.7-0.1-1.1-0.1
			c0.1-0.3-0.1-0.4-0.3-0.5c-0.2-0.1-0.3,0-0.5,0c0.1-0.3-0.1-0.4-0.3-0.5c-0.2-0.1-0.4,0-0.5,0c-1.4-1.6-2.5-3.1-2.7-5.3
			c-0.1-0.4-0.6-0.4-0.7-0.2c-1.3,1.3-2.3,2.8-3.9,3.8c-0.7,0.4-1.1,1.3-2,1.2c-0.2,0-0.2,0.3-0.3,0.4c-0.5,0.7-1.5,0.7-2.3,1
			c-0.2,0.1-0.6,0.2-0.9,0.3c-1.3,0.5-2.5-0.7-3.9-0.4c-1.7-0.7-2.6-2.4-3-4.2c-0.6-2.6,0-5.2,0.1-7.8c0.2-0.3,0.1-0.6,0.2-0.9
			c0.3-0.7,0.2-1.4,0.5-2c0,0-0.1,0.1-0.1,0.2c0-0.2,0.5-0.7,0.6-1.1c1.1-3.5,2.8-6.4,4.5-9.6c0.9-1.7,1.6-3.7,3.2-5.1
			c0.2-0.2,0.3-0.8,0.6-0.9c0.2-0.1,0.4-0.1,0.5-0.3c0.3-1,1.2-1.4,1.8-2.2c0.3-0.3,0.3-0.9,0.4-1.2c0.2-0.5,0.3-1.2,0.8-1.6
			c0.1-0.1,0.4-0.1,0.5-0.3c0.6-1.5,2.1-2.4,2.8-3.8c0.1-0.2,0.3-0.6,0.4-0.7c1.4-1.6,2.6-3.3,4.5-4.2c0.8-0.4,2-0.4,2.8,0
			c1.5,0.6,2.7,2.1,2.1,3.9c-0.1,0.2-0.4,0.3-0.5,0.6c-0.2,0.9-0.5,1.7-1.1,2.4c-0.3,0.3-0.3,0.9-0.4,1.2c-0.1,0.4-0.5,0.7-0.6,1.1
			c-0.2,0.4-0.1,0.9-0.1,1.3c-0.3-0.1-0.5,0.1-0.5,0.3c-0.1,0.4-0.3,0.7-0.4,1c-0.2,0.6-0.9,1.1-1.1,1.7c-1,2.4-2.8,4.2-4,6.6
			 M100.7,66.8c0.7-0.6,1.2-1.3,1.7-2c0.8-1.1,1.4-2.3,2.3-3.3c0.5-0.6,1.1-1.1,1.5-1.7c0.9-1.4,1.9-2.7,2.4-4.2
			c0.2-0.5,0.4-0.9,0.5-1.3c0.2-0.9,1-2-0.1-2.6c-0.7,0.9-1.2,1.6-2.1,2.4c-0.1,0.1,0,0.3-0.1,0.5c-1.4,2.2-3.2,3.6-4.5,5.8
			c-0.4,0.6-1,1.1-1.5,1.7c-0.1,0.1,0,0.4-0.1,0.5c-0.3,0.4-0.5,0.9-0.8,1.3c-0.5,0.6-0.7,1.2-1.1,1.9c-0.3,0.4-1,0.6-1.2,1.1
			c-0.1,0.2,0,0.5-0.1,0.8c-0.7,1.3-1.1,2.5-2,3.8c-0.3,0.5-0.6,1.1-0.6,1.8c0,0.1,0.2,0.2,0.2,0.2c1.2-1,2.2-2,3.2-3.2
			c0.1-0.1,0-0.4,0.1-0.5C99.1,68.7,99.8,67.7,100.7,66.8z"/>
	</g>
</g>
<g>
	<path fill="#004A97" d="M175.4,97.6c-0.3,1.5-1,2.8-2.5,3.5c-0.2,0.1-0.4,0.1-0.5,0c-0.9-0.3-1.4-1.1-1.5-1.9
		c-0.2-2.3,1.3-4.3,2.1-6.4c0.2-0.6,0.6-1.1,0.7-1.8c0.2-0.6,0.9-1,1.5-1.3c0.1-0.1,0.4-0.1,0.5,0c0.9,0.5,1.7,1.3,1.3,2.3
		c-0.2,0.5-0.3,0.9-0.7,1.4C175.5,94.6,175.7,96.1,175.4,97.6z"/>
</g>
<g>
	<path fill="#004A97" d="M173,85.5c4.1,1.2,6.8-2.5,9.8-4.8c0.3-0.2,1-0.2,1.2,0c0.8,0.8,1.2,2,0.8,3.1c-0.8,1.9-2.6,2.9-4.7,3.6
		c-0.4,0.1-0.8,0.5-1.1,0.6c-4.8,1.5-11.2,0.6-13.5-4.4c0-1.7-0.3-3.5,0.4-5c0.5-1.2,1-2.5,2.1-3.4c0.1-0.1,0.4-0.1,0.5-0.3
		c0.3-0.7,0.5-1.3,1.1-1.9c2.9-2.6,5.7-4.7,8.7-7.2c0.3-0.2-0.3-0.6-0.5-0.7c-1-0.4-2.3-0.4-2.8-1.4c-0.2-0.4-0.5-0.9-0.5-1.3
		c-0.5-3.5,2.9-5.8,5.7-7.5c0.5-0.3,0.8-0.9,1.4-1.2c2.1-1.1,4.1-2,6.1-3.1c0.4-0.2,1-0.5,1.5-0.4c0.1-0.4,0.6-0.2,0.8-0.5
		c0.1-0.1,0.5,0,0.7-0.1c2-1,4.7-0.7,6.4,0.8c-0.1,0.8,0.7,1.8-0.3,2.4c-0.8-0.7-1.9-1-2.9-0.7c-1.6,0.5-3.3,0.8-4.6,2
		c-0.1,0.1-0.5,0-0.7,0.1c-0.8,0.5-1.6,0.6-2.4,1.1c-0.5,0.3-0.9,0.9-1.4,1.2c-1,0.6-2,1.1-3.1,1.4c-1.2,1.5-2.9,2.5-3.7,4.3
		c-0.1,0.2,0.1,0.5,0.3,0.5c2.8,0.5,5.4-0.4,7.9-1.4c0.2-0.1,0.6-0.2,0.9-0.3c0.9-0.5,2-0.8,2.9-1.3c0.4-0.2,1.1-0.2,1.5,0
		c1,0.5,1.8,1.8,1.3,2.8c-1.1,2-3.6,2.6-5.7,3.6c-2.9,1.4-5.4,3.1-8,5.2c-2.3,1.8-3.8,3.9-5.8,5.8c-0.1,0.1-0.4,0-0.5,0.1
		c-0.8,0.8-0.8,1.8-1.5,2.7c-1.2,1.6-1.1,3.7-0.1,5.5C171.5,85.8,172.3,85.3,173,85.5z"/>
</g>
<g>
	<path fill="#004A97" d="M189,41.6c0.4-1.1,1.1-2.1,2.1-2.9c0.3-0.3,0.8-0.5,1.3-0.3c1.2,0.5,1.3,1.6,0.8,2.6
		c-0.7,1.4-1.9,2.3-2.8,3.5c-0.9,1.2-1,2.8-2.3,3.6c-0.6,0.4-1.6,0.2-1.8-0.7c-0.4-1.8,1-3,2-4.3C188.5,42.7,188.8,42.1,189,41.6z"
		/>
</g>
<g>
	<g>
		<path fill="#004A97" d="M347.5,69.2c0.6,1.9,0.8,3.9,1.4,5.8c0.1,0.2,0.1,0.7,0.4,1c0.3,0.5-0.2,1.2-0.1,1.6
			c0.2,0.6,0.3,1.3,0.1,1.7c-0.3,0.8-0.6,1.5-0.4,2.3c0,0.2,0.3,0.4,0.5,0.3c3-1.6,4.7-4.7,7.8-6c0.1-1,1.1-1.1,1.8-1.3
			c1-0.3,0.7,1.2,1.1,1.9c-0.7,1.3-2.1,2-3.1,3c-0.1,0.1-0.4,0.6-0.5,0.7c-2.7,2.3-5,4.7-8.1,6.6c-0.8,0.5-1.7,0.9-2.6,1.4
			c-0.2,0.1-0.5,0.4-0.8,0.5c-0.5,0.2-0.9,0.8-1.5,1c-2,0.7-3.5,2.1-5.5,2.5c-1.1,0.3-2.3-0.3-3.4-0.2c-0.8-1.1-1.8-2.1-2.5-3.2
			c-0.6-1.1,1-2.2,2-2.7c0.5-0.3,1.1-0.4,1.7-0.6c1.1-0.4,2.1,0.7,3.1,0.7c0.6,0,1.2-0.4,1.7-0.9c1.5-1.5,2.8-3.5,3-5.7
			c0-0.5,0.7-0.1,0.8-0.6c0.2-0.6-0.8-1.2,0-1.7c-0.1-1.3,0.2-2.5-0.3-3.7c-0.1-0.2-0.3-0.4-0.5-0.3c-1.7,1.5-2.9,3.3-4.7,4.8
			c-4,3.4-7.2,6.8-11.5,9.8c-0.3,0.2-0.8,0.3-1,0.5c-2.8,1.7-5.6,2.9-8.4,4.6c-1.6,0.9-3.1-0.1-4.7,0.2c-1.1-0.8-1.8-2.1-2.5-3.2
			c-0.5-0.9,0.8-1.8,1.7-2.5c0.6-0.5,1.3-0.5,2-0.9c0.3-0.2,0.8-0.2,1.1,0c2,1.5,3.9,0.3,4.9-1.5c0.1-0.1,0-0.4,0.1-0.5
			c0.8-1.2,1.9-2.2,1.7-3.8c0.5,0.1,0.6-0.4,0.9-0.6c-0.6-1.1,0.2-2.1-0.1-3.2c0-0.2-0.4-0.3-0.2-0.6c0.1-0.2,0.4-0.4,0.2-0.6
			c-0.3-0.3-0.2-0.6-0.3-0.9c-0.1-0.2-0.3-0.4-0.5-0.3c-2,1.8-3.9,3.7-4.4,6.3c-1.6,1.3-2.9,2.8-4.4,4.3c-0.1,0.1-0.4,0-0.5,0.1
			c-1.1,1.2-2.6,1.6-3.7,2.6c-0.1,0.1-0.1,0.4-0.4,0.5c-0.8,0.4-1.7,0.5-2.3,1.1c-0.1,0.1-0.4,0-0.5,0.1c-1.3,1.1-2.8,1.5-4.4,1.9
			c-0.8,0.2-1.7,0.2-2.6-0.2c-0.7,0.6-1.6,0.3-2.3,0.2c-0.7-0.1-1.6-0.3-1.9-0.9c-0.5-0.8-1.3-1.2-1.9-1.9c-0.2,0.2-0.4,0.4-0.6,0.6
			c-0.2,0.1-0.4,0-0.6,0.1c-0.6,0.3-0.6,1.1-1.2,1.4c-0.5,0.2-1,0.7-1.5,0.8c-1.9,0.5-3.9,0-5.1-1.7c-0.4-0.7-1-1.2-1.2-2
			c-0.3-1.4-0.4-2.7-0.5-4c0-0.1,0.2-0.6,0.1-0.8c-0.1-0.2-0.4-0.3-0.2-0.6c0.7-1.4,0.2-3.3-0.6-4.3c-1.4,0.5-2.5,1.2-3.7,2
			c-2.3,1.5-4.1,3.1-5.7,5.3c-1.3,1.9-3.3,2.9-4.5,4.8c-2.3,1.2-4.5,3.4-7.2,3.1c-0.7-0.1-0.8-1-0.5-1.6c0.9-1.7,2-3.2,3.3-4.8
			c1-1.2,1.6-2.7,2.7-4c0-0.1-0.3-0.4-0.5-0.2c-3,2.9-4.9,6.7-9.2,7.8c-0.4,0.1-0.8,0.5-1.2,0.7c-0.7,0.3-1.5,0.2-2.3,0.3
			c-0.3,0-0.8-0.3-1.1-0.5c-0.9-0.8-1.7-1.7-2.3-2.8c-0.1-0.1,0-0.4-0.1-0.5c-0.2-0.3-0.4-0.8-0.8-0.5c-1.7,1.4-3.5,2.5-5.3,3.6
			c-0.3,0.2-1,0.4-1.3,0.5c-0.8,0.5-1.6,0.6-2.4,0.6c-1-0.1-2.1-0.8-2.2-1.9c-0.2-1.7-0.8-3.2-0.5-4.9c0-0.2-0.3-0.4-0.5-0.2
			c-1.2,0.9-1.9,2.1-3.2,2.8c-0.2,0.1-0.4,0-0.5,0.1c-0.4,0.2-0.6,0.7-0.9,0.8c-0.4,0.2-1-0.1-1.4,0.1c-0.3,0.2-0.7,0.3-1,0.4
			c-2.1,0.8-4.1,1.1-6.3,1.7c-0.2,0.1-0.7,0.2-1,0.3c-1.1,0.5-2.3-0.4-2.7-1.4c-0.6-1.3,0.2-2.8,1.6-3.4c0.3-0.1,0.4,0.1,0.6,0.3
			c0.6-0.6,1.4,0,1.7-0.9c1,0.1,2,0.1,2.8-0.4c1.1-0.8,2.3-1.2,3.5-1.7c2.9-1.3,4.8-3.9,7.2-5.7c-0.1-0.9,0.8-1.2,1-1.8
			c0.2-0.4,0.6-0.8,0.4-1.4c1.5-0.5,1.7-2.3,3-3c1.6-0.8,2.6,1,3.7,2.2c0.2,2.9-1.1,5.8-2.6,8.1c0.4,1.5-1.7,4.8,0.8,4.3
			c0.3-0.1,0.6-0.6,0.9-0.7c0.5-0.2,1-0.5,1.4-0.9c0.1-0.1,0.4,0,0.5-0.1c1-0.5,1.8-1.3,2.5-2.1c0.3-0.3,0.3-0.9,0.4-1.4
			c0.4-1.8,1.6-3.2,2.3-4.9c0.2-0.5,0.8-1,1-1.5c0.1-0.3-0.1-0.8,0.1-1.1c0.2-0.5,0.9-0.7,1-1.2c0.1-0.3,0.4-0.6,0.5-0.8
			c0.9-1.1,1.3-2.2,2.2-3.3c0.2-0.2-0.1-0.5-0.3-0.5c-2,0.1-3.9,0.6-5.8,1.3c-0.8,0.3-2.1,0.4-2.5-0.5c-0.5-1.2,0.2-2.6,1.4-3.4
			c0.2-0.1,0.6-0.2,0.8,0.2c0.5-1.1,1.6-1.2,2.6-0.9c0.9-0.8,2-0.5,2.9-1c0.8-0.5,1.9-0.4,2.8-0.7c0.7-0.2,1.3-0.7,2-1.2
			c1.1-0.7,1.8-1.7,2.5-2.6c1-1.3,1.5-2.9,2.7-4c1.8,0.4,2.8,2,2.5,3.7c-0.2,0.9-1,1.3-1.6,2.1c-0.2,0.2,0.1,0.5,0.3,0.5
			c3.4,0,6.5-1.4,9.8-1.9c2.3-0.3,4.5-0.3,6.6-1.1c0.3-0.1,0.8,0,0.9-0.5c0.4,0.5,1,0.3,1.4,0.2c1.4-0.3,2.5-0.7,3.8-0.6
			c0.4,0,1,0.2,1.4,0c1.3-0.6,2.9-1.2,4.4-0.5c0.2-0.4,0.6-0.3,0.9-0.3c1.3,0.4,2.3,1.3,2.8,2.6c0.3,0.7,0.3,1.8-0.5,1.9
			c-3.5,0.4-6.8,0-10.4,0.6c-0.9,0.2-1.7,0.3-2.6,0.6c-1.2,0.4-2.5-0.2-3.8,0.3c-0.6,0.2-1.2,0.5-1.7,0.5
			c-5.5,0.5-10.9,1.7-16.1,3.4c-0.5,0.2-0.8,0.9-1.2,1.3c-0.1,0.1,0,0.5-0.1,0.5c-1.2,0.6-1.3,2.2-2.3,2.8c-0.3,0.2-0.7,0.5-0.7,0.7
			c-0.1,0.3-0.3,0.6-0.5,0.8c-0.7,1.2-1.4,2.2-2,3.5c-0.2,0.5-0.5,1-0.9,1.4c-0.4,0.5-0.6,1.1-1.1,1.5c-0.1,0.1,0,0.4-0.1,0.5
			c-0.3,0.5-0.8,0.7-1.1,1.2c-0.1,0.2,0,0.6-0.1,0.8c-0.6,1.5-2.5,3.8-0.8,4.8c0.9,0.5,1.9-0.3,2.8-0.8c1-0.5,1.1-1.9,2.1-2.5
			c0.3-0.2,0.8,0.1,1.1-0.1c1.3-0.9,1.7-2.5,2.8-3.5c0.4-0.4,0.5-1.1,1-1.6c1.4-1.6,3.3-2.6,4-4.6c2.4-1.4,4.6,0.6,5.4,2.9
			c0.4,1.1,0.6,2.2-0.1,3.5c0,0.1,0.4,0.5,0.5,0.5c1.2-0.4,1.7-1.7,2.7-2.5c0.1-0.1,0.4,0,0.5-0.1c3.1-2.2,6.3-5.3,10.1-4.3
			c3.5,2.1,2.7,6.6,2.3,10.1c-1.3,1-0.1,2.4,0.6,3.5c1.6,0.3,2.8-1.2,3-2.6c0.1-0.6,0.8-1,1-1.5c1.1-2.5,1.7-5.4,4.1-7.2
			c0.4-0.3,0.2-1,0.6-1.4c0.3,0.5,0.8,0.3,1.1,0.2c0.4-0.1,0.4-0.5,0.3-0.8c-0.1-0.2-0.4-0.4-0.2-0.5c3.7-2.8,8.4-4.2,12.6-1.7
			c1.3,0.7,0.8,2.4,0,3.3c-1.3,1.4-2.9,2.7-4.8,3.4c-0.6,0.2-0.9,0.9-1.5,1.3c-0.1,0.1-0.4,0-0.5,0.1c-1.3,1.1-2.5,2.4-4,2.9
			c-0.4,0.1-0.4,0.9-0.9,1.1c-1.3,0.5-2.6,1.4-3.1,2.6c-0.3,0.7-0.3,1.7,0.5,1.9c3,0.6,5.6-0.6,8.1-2.2c0.1-0.1,0.4,0,0.5-0.1
			c0.6-0.4,0.9-1.1,1.5-1.3c0.7-0.3,1.1-0.9,1.7-1.1c0.3-0.1,0.5-0.4,0.8-0.5c0.8-0.3,0.7-1.5,1.3-2.1c0.3-0.4,0.9-0.7,1.4-0.9
			c0.3-0.1,0.6-0.4,0.8-0.5c3.8-2.8,7.2-6,8.3-10.8c0.3-1.2,1.9-1.1,3-0.6c0.7,0.4,1.4,0.8,1.7,1.7c0.7,2.1,1.4,4.1,1.9,6.3
			c0,0.2,0.3,0.7,0.3,0.9c0.3,1.5,0.4,3.1-0.3,4.6c-0.2,0.4-0.4,1.2,0.2,1.3c0.3,0,0.8-0.3,1.1-0.5c2.8-2.4,5.2-4.7,8.4-6.9
			c1.2-0.9,2.1-1.9,2.8-3.2c0.1-0.2,0.4-0.5,0.5-0.7c0.7-1.1,1.2-2.2,1.4-3.5c0.1-0.6,0.5-1.2,1.1-1.4
			C345,66.4,346.8,67.1,347.5,69.2z M303.4,77.1c1.4-0.7,2.4-1.7,3.4-2.9c0.2-0.2-0.1-0.5-0.3-0.5c-1.2,0-2.4,0.4-3.4,1
			c-1.8,1.1-4.1,2.1-4.1,4.5C300.6,80.8,302,77.8,303.4,77.1z"/>
	</g>
	<g>
		<path fill="#004A97" d="M249.5,56.8c1.5,0.8,1.6,2.5,1.3,3.8c0,0.2-0.2,0.4-0.3,0.5c-1.2,1.3-3.2,1.3-4.2-0.3
			c-0.7-1.1-0.7-2.5,0-3.6C247,56.3,248.4,56.2,249.5,56.8z"/>
	</g>
	<g>
		<path fill="#004A97" d="M222.9,70.2c-0.7,0.9-1,1.8-1.6,2.7c-0.5,0.6-0.8,1.4-1.1,2.2c-0.2,0.4-0.8,0.7-1,1.2
			c-0.1,0.2,0,0.6-0.1,0.8c-0.8,1.8-2.3,3.2-2.6,5.2c-0.5-0.1-0.7,0.3-0.8,0.6c-0.8,1.4-0.8,3.1-2,4.3c-0.1,0.1,0,0.6-0.1,0.8
			c-0.6,0.6-0.8,1.2-0.9,2.1c0,0.3-0.5,0.5-0.7,0.9c-0.1,0.1,0,0.4-0.1,0.5c-0.1,0.2-0.5,0.4-0.5,0.6c-0.1,2-1.2,3.9-0.1,5.8
			c1,0,1.9-1,1.9,0.3c0,0.9,0.1,2.1-0.8,2.5c-2.4,1.1-5.2-0.3-6.2-2.6c-0.3-0.7-0.7-1.6-0.8-2.3c-0.2-2.8,0.7-5.5,1.7-8
			c0.4-1.1,1.1-2.1,2.2-2.6c-0.6-0.9,0.1-1.7,0.3-2.6c0.3,0.1,0.5-0.1,0.6-0.3c0.4-0.9,0.7-1.8,1-2.7c0.4-0.9,0.8-1.7,1.5-2.6
			c0.2-0.2,0-0.8,0.1-1.1c1.6-3.4,3.8-6.4,5.4-9.9c0.1-0.1-0.3-0.4-0.5-0.2c-0.7,0.6-1.4,0.6-2.1,1c-0.3,0.2-0.7,0.5-1.1,0.4
			c-0.1,0-0.2-0.2-0.3-0.3c-0.9,1.1-2.5,1.3-3.7,1.8c-0.4,0.2-0.8,0.5-1.2,0.7c-0.2,0.1-0.6-0.1-0.8,0.1c-0.5,0.4-1,0.7-1.5,1
			c-0.5,0.3-1,0.7-1.4,0.8c-0.4,0.1-0.9,0.2-1.4,0.4c-0.2,0.1-0.3,0.4-0.3,0.5c-1.9,1.1-2.5,3-4,4.4c-0.1,0.1-0.4,0.1-0.5,0
			c-0.9-0.6-1.5-1.6-1.1-2.5c0.3-0.8,0.5-1.6,0.9-2.3c1-1.8,3.2-1.8,4.8-3c0.3-0.3,0.6-0.7,0.9-0.8c0.6-0.1,1.2-0.3,1.7-0.5
			c3.1-1.6,6-3.5,9.6-4.3c0.3-0.1,0.6-0.7,0.9-0.7c1.1-0.2,2.2-0.5,3.2-1.2c0.1-0.1,0.4,0,0.5-0.1c2.8-1.6,3.8-4.9,6.4-6.6
			c-0.1-1,0.9-1.3,1.4-2c0.1-0.1,0-0.4,0.1-0.5c0.4-0.5,0.6-1,0.9-1.4c2.2-3.1,5-5.2,7.1-8.1c-0.6-1-2-0.7-2.8-0.4
			c-0.2,0.1-0.7,0.3-0.9,0.3c-1.6,0.3-3.1,0.9-4.6,1.5c-0.2,0.1-0.6-0.1-0.8,0.1c-0.5,0.4-1,0.7-1.5,1.1c-0.2,0.1-0.6,0-0.8,0.1
			c-0.7,0.3-1.2,0.9-1.8,1.4c-0.6,0.4-1.4,0.2-2,0.4c-1.1,0.4-1.9,1.2-3,1.9c-0.3,0.2-0.8,0.3-1,0.5c-1.7,1.2-3.3,2.5-4.4,4.2
			c0.2,1-0.2,1.8-1.2,1.9c-0.6,0.1-1.3-0.3-1.7-0.8c-0.7-1-0.5-2.1-0.3-3.1c0.3-1.7,1.7-2.6,3.3-3.1c1-0.3,2.1-0.8,2.9-1.6
			c0.1-0.1,0.2-0.5,0.3-0.5c0.4,0,0.6-0.3,0.8-0.4c1.1-0.6,2.2-1.5,3.5-1.7c0.3-0.1,0.5-0.6,0.9-0.7c3.5-1.6,6.9-3.1,10.6-4.1
			c2.3-0.6,4.6-0.8,6.9-0.9c0.8,0,1.8,0.4,2.3,1.3c0.6,1,1,2.1,0.7,3.1c-0.3,1.1-1.1,2.1-1.7,3.2c-0.5,0.9-1.6,1.5-2.1,2.4
			c-0.1,0.2-0.4,0.5-0.5,0.8c-0.5,1-1.7,1.5-2.4,2.5c-0.5,0.8-1.4,1.1-1.9,1.9c-0.1,0.1,0,0.4-0.1,0.5c-0.5,0.6-0.8,1.1-1,1.7
			c-0.3,1-2,1.3-1.9,2.6c0,0.1,0.2,0.3,0.2,0.3c0.7-0.5,1.4,0,2-0.3c0.8-0.5,1.8-0.4,2.6-0.9c0.3-0.2,0.7-0.3,1-0.3
			c1.2-0.3,2.4-0.7,3.7-0.4c1.9,0.5,1.9,2.6,1.7,4.3c-1.1,1.2-2.7,1.6-4.3,1.4c-2.5-2.1-5.7-0.6-8.6-0.1c-0.6,0.1-1.1,0.7-1.7,1.1
			c-0.7,0.4-1.1,1.3-1.7,2C224.3,66.9,224,68.7,222.9,70.2z"/>
	</g>
</g>
<g>
	<path fill="#68737A" d="M39.4,27.9c0,2.3-0.4,6.2,2.2,7.2v0.2h-9.9v-0.2c2.7-0.9,2.3-4.8,2.3-7.2V8.3c0-2.4,0.3-6.2-2.3-7.2V0.9
		h16.7c0.9,0,1.8,0.1,2.5-0.3h0.2v6.1h-0.2c-1.6-1.8-3.8-2-6.2-2c-1.8,0-3.7,0.1-5.3,0.4v9.7h6.3c0.8,0,1.6,0,2.2-0.3h0.2v5.5h-0.2
		c-0.8-1.6-3-1.5-4.6-1.5h-3.9V27.9z"/>
</g>
<g>
	<path fill="#68737A" d="M87.4,17.7c0,10.6-8.8,18.4-19.2,18.4c-10.3,0-19.1-7.4-19.1-18.1c0-9.9,8.6-18.2,19.6-18
		C79.7,0,87.4,8.3,87.4,17.7z M55.1,17.5c0,7.3,5.2,14.8,13.4,14.8c7.9,0,13-5.8,13-13.6c0-7.6-4.9-15-13.1-15
		C60.3,3.8,55.1,9.6,55.1,17.5z"/>
</g>
<g>
	<path fill="#68737A" d="M98.5,0.9c7,0,10.8,3.7,10.8,8.4c0,4.6-4,8.2-8.3,9.2l7.5,9.4c2.2,2.7,5.5,5.4,8.5,7.3h-4.8
		c-2.8,0-4.5-0.7-6.1-2.6l-6.4-7.9l-4.8-7.4c4.2-0.6,9-2.6,9-7.5c0-3.8-3.2-5.9-6.7-5.8c-1.2,0.1-2.3,0.2-3.5,0.4v23.4
		c0,2.4-0.3,6.2,2.3,7.2v0.2h-10v-0.2c2.7-0.9,2.3-4.8,2.3-7.2V8.3c0-2.4,0.4-6.2-2.3-7.2V0.9H98.5z"/>
</g>
<g>
	<path fill="#68737A" d="M124.6,28.5c0,3-0.1,5,2.7,6.6v0.2H117v-0.2c2.6-1,2.3-4.8,2.3-7.2V4.7h-4.6c-2.2,0-4.6,0.6-6.2,2.1h-0.2
		l1.8-6.2h0.2c0.6,0.3,1.3,0.3,2,0.4h1.3h19.5c0.9,0,1.7-0.1,2.4-0.4h0.2L134,6.7h-0.2c-0.7-1.8-2.8-2.1-4.5-2.1h-4.7V28.5z"/>
</g>
<g>
	<path fill="#68737A" d="M166.7,7.1c-2-2.1-5.3-3.3-8.2-3.3c-3,0-6.7,1.1-6.7,4.7c0,7.2,18,7,18,16.7c0,5.6-5.8,10.8-14,10.8
		c-3.2,0-6.4-0.5-9.3-1.6l-1.5-6.5c3.1,2.7,7.4,4.3,11.4,4.3c3,0,7.5-1.8,7.5-5.4c0-8.1-18-6.7-18-17.7c0-6.6,6.7-9.1,13.1-9.1
		c2.6,0,5.3,0.4,7.8,1.1V7.1z"/>
</g>
<g>
	<path fill="#68737A" d="M177.2,22.3l-2.7,7.4c-1.1,2.9-1.5,4.4,1,5.4v0.2h-9.6v-0.2c3-1.5,3.9-4.4,5.1-7.4l8.7-21.8
		c0.7-1.9,1.7-4.1-0.8-4.9V0.9h8.2L198,27.7c1.2,3,2.1,5.9,5.1,7.4v0.2h-10.7v-0.2c2.6-1.1,2.1-1.7,0.7-5.4l-2.8-7.4H177.2z
		 M183.7,5.3l-5.2,13.2h10.3L183.7,5.3z"/>
</g>
<g>
	<path fill="#68737A" d="M207.6,28.5c0,2.9-0.1,5,2.7,6.6v0.2H201v-0.2c2.8-1.6,2.8-3.7,2.8-6.6V7.6c0-2.9,0-5-2.7-6.6V0.9h7.6v0.1
		c0.2,0.6,0.4,0.9,0.8,1.3l0.7,1l19.1,24.1V7.6c0-2.9,0.1-5-2.7-6.6V0.9h9.2V1c-2.7,1.6-2.7,3.7-2.7,6.6v29.3
		c-3.7-1.3-5.3-3-7.6-5.9L207.6,8.3V28.5z"/>
</g>
<g>
	<path fill="#68737A" d="M238.4,8c0-2.4,0.4-6.2-2.3-7V0.9h12.8c11.9,0,19.3,6.5,19.3,16.9c0,10.3-7.9,17.5-19.6,17.5h-12.5v-0.2
		c2.6-1.8,2.3-4.3,2.3-7.4V8z M243.7,31.1c1.3,0.3,2.5,0.4,3.8,0.4c7.8,0,14.7-4.1,14.7-13.1c0-9.1-5.1-13.7-13.8-13.7
		c-1.6,0-3.1,0.2-4.7,0.6V31.1z"/>
</g>
<g>
	<path fill="#68737A" d="M274.6,30.9l6.6,0.6c3.4,0.3,7-0.8,9.7-3.1h0.2l-2.3,6.8H267v-0.2c2.7-0.9,2.3-4.8,2.3-7.2V8.3
		c0-2.4,0.3-6.2-2.3-7.2V0.9h16.7c0.9,0,1.8,0.1,2.5-0.3h0.2v6.1h-0.2c-1.6-1.9-3.8-2.1-6.2-2.1c-1.8,0-3.7,0.1-5.3,0.4v9.7h6.2
		c0.8,0,1.7,0,2.3-0.3h0.2v5.5h-0.2c-0.8-1.5-3-1.5-4.6-1.5h-3.9V30.9z"/>
</g>
<g>
	<path fill="#68737A" d="M302.4,0.9c7,0,10.8,3.7,10.8,8.4c0,4.6-4,8.2-8.3,9.2l7.5,9.4c2.2,2.7,5.5,5.4,8.5,7.3h-4.8
		c-2.8,0-4.5-0.7-6.1-2.6l-6.4-7.9l-4.8-7.4c4.2-0.6,9-2.6,9-7.5c0-3.8-3.2-5.9-6.7-5.8c-1.2,0.1-2.3,0.2-3.5,0.4v23.4
		c0,2.4-0.3,6.2,2.3,7.2v0.2h-10v-0.2c2.7-0.9,2.3-4.8,2.3-7.2V8.3c0-2.4,0.4-6.2-2.3-7.2V0.9H302.4z"/>
</g>
<g>
	<path fill="#68737A" d="M336.7,7.1c-2-2.1-5.3-3.3-8.2-3.3c-3,0-6.7,1.1-6.7,4.7c0,7.2,18,7,18,16.7c0,5.6-5.8,10.8-14,10.8
		c-3.2,0-6.4-0.5-9.3-1.6l-1.5-6.5c3.1,2.7,7.4,4.3,11.4,4.3c3,0,7.5-1.8,7.5-5.4c0-8.1-18-6.7-18-17.7c0-6.6,6.7-9.1,13.1-9.1
		c2.6,0,5.3,0.4,7.8,1.1V7.1z"/>
</g>
<g>
	<path fill="#68737A" d="M131,109.9c-2.9-1.8-6.2-3-9.7-3c-7.2,0-12.2,5.3-12.2,12.8c0,7.7,5.2,14.5,13.3,14.5
		c3.9,0,7.8-1.4,11.1-3.3h0.2L131,137c-2.5,1.1-5.2,1.6-7.9,1.6c-12.3,0-19.9-6.9-19.9-18.1c0-10.8,7.6-18,18.3-18
		c3.2,0,6.4,0.6,9.5,1.3V109.9z"/>
</g>
<g>
	<path fill="#68737A" d="M140.5,133.4l6.6,0.6c3.4,0.3,7-0.8,9.7-3.1h0.2l-2.3,6.8h-21.8v-0.2c2.7-0.9,2.3-4.8,2.3-7.2v-19.7
		c0-2.4,0.3-6.2-2.3-7.2v-0.2h16.7c0.9,0,1.8,0.1,2.5-0.3h0.2v6.1H152c-1.6-1.9-3.8-2.1-6.2-2.1c-1.8,0-3.7,0.1-5.3,0.4v9.7h6.2
		c0.8,0,1.7,0,2.3-0.3h0.2v5.5H149c-0.8-1.5-3-1.5-4.6-1.5h-3.9V133.4z"/>
</g>
<g>
	<path fill="#68737A" d="M163.1,131c0,2.9-0.1,5,2.7,6.6v0.2h-9.2v-0.2c2.8-1.6,2.8-3.7,2.8-6.6v-20.8c0-2.9,0-5-2.7-6.6v-0.2h7.6
		v0.1c0.2,0.6,0.4,0.9,0.8,1.3l0.7,1l19.1,24.1v-19.8c0-2.9,0.1-5-2.7-6.6v-0.2h9.2v0.2c-2.7,1.6-2.7,3.7-2.7,6.6v29.3
		c-3.7-1.3-5.3-3-7.6-5.9l-17.9-22.7V131z"/>
</g>
<g>
	<path fill="#68737A" d="M205.8,131c0,3-0.1,5,2.7,6.6v0.2h-10.3v-0.2c2.6-1,2.3-4.8,2.3-7.2v-23.3h-4.6c-2.2,0-4.6,0.6-6.2,2.1
		h-0.2l1.8-6.2h0.2c0.6,0.3,1.3,0.3,2,0.4h1.3h19.5c0.9,0,1.7-0.1,2.4-0.4h0.2l-1.7,6.2H215c-0.7-1.8-2.8-2.1-4.5-2.1h-4.7V131z"/>
</g>
<g>
	<path fill="#68737A" d="M223.4,133.4l6.6,0.6c3.4,0.3,7-0.8,9.7-3.1h0.2l-2.3,6.8h-21.8v-0.2c2.7-0.9,2.3-4.8,2.3-7.2v-19.7
		c0-2.4,0.3-6.2-2.3-7.2v-0.2h16.7c0.9,0,1.8,0.1,2.5-0.3h0.2v6.1h-0.2c-1.6-1.9-3.8-2.1-6.2-2.1c-1.8,0-3.7,0.1-5.3,0.4v9.7h6.2
		c0.8,0,1.7,0,2.3-0.3h0.2v5.5h-0.2c-0.8-1.5-3-1.5-4.6-1.5h-3.9V133.4z"/>
</g>
<g>
	<path fill="#68737A" d="M252.2,103.4c7,0,10.8,3.7,10.8,8.4c0,4.6-4,8.2-8.3,9.2l7.5,9.4c2.2,2.7,5.5,5.4,8.5,7.3h-4.8
		c-2.8,0-4.5-0.7-6.1-2.6l-6.4-7.9l-4.8-7.4c4.2-0.6,9-2.6,9-7.5c0-3.8-3.2-5.9-6.7-5.8c-1.2,0.1-2.3,0.2-3.5,0.4v23.4
		c0,2.4-0.3,6.2,2.3,7.2v0.2h-10v-0.2c2.7-0.9,2.3-4.8,2.3-7.2v-19.7c0-2.4,0.4-6.2-2.3-7.2v-0.2H252.2z"/>
</g>
<g>
	<line fill="#68737A" x1="312.9" y1="142.7" x2="55.7" y2="142.7"/>
	<polygon fill="#68737A" points="312.9,143.1 55.7,143.1 55.7,142.2 312.9,142.2 312.9,143.1 	"/>
</g>
<g>
	<line fill="#68737A" x1="312.9" y1="164.1" x2="55.7" y2="164.1"/>
	<polygon fill="#68737A" points="312.9,164.6 55.7,164.6 55.7,163.7 312.9,163.7 312.9,164.6 	"/>
</g>
<g>
	<path fill="#68737A" d="M63.3,158.5h-1.6l-0.6-2h-3.3l-0.6,2h-1.6l3.1-9.8h1.4L63.3,158.5z M60.9,155.7l-1-3.8
		c-0.2-0.7-0.3-1.3-0.4-2h-0.1c-0.1,0.7-0.3,1.3-0.4,2l-0.9,3.8H60.9z"/>
</g>
<g>
	<path fill="#68737A" d="M81.5,149.5h-3.6v3.5h3.4v0.8h-3.4v4.7h-1.5v-9.8h5V149.5z"/>
</g>
<g>
	<path fill="#68737A" d="M88.8,158.5h-1.5v-9.8h1.5V158.5z"/>
</g>
<g>
	<path fill="#68737A" d="M98.5,158.5h-1.3l-3.2-9.8h1.5l2.1,7.2c0.1,0.2,0.2,0.9,0.3,1.3h0.1c0.1-0.4,0.1-1.1,0.2-1.3l2-7.2h1.5
		L98.5,158.5z"/>
</g>
<g>
	<path fill="#68737A" d="M111.9,149.5h-3.5v3.5h3.4v0.8h-3.4v3.9h3.5v0.8h-4.9v-9.8h4.9V149.5z"/>
</g>
<g>
	<path fill="#68737A" d="M131.3,150.2c-0.6-0.4-1.3-0.8-2.3-0.8c-1.5,0-2.3,0.8-2.3,1.6c0,1.1,1.3,1.7,2.7,2.3
		c1.3,0.6,2.7,1.2,2.7,2.6c0,1.4-1.5,2.8-3.9,2.8c-0.9,0-1.8-0.2-2.5-0.5V157c0.7,0.4,1.5,0.8,2.5,0.8c1.5,0,2.4-0.8,2.4-1.7
		c0-1.1-1.3-1.7-2.7-2.2c-1.3-0.6-2.7-1.2-2.7-2.6c0-1.3,1.3-2.6,3.6-2.6c0.9,0,1.7,0.2,2.5,0.5V150.2z"/>
</g>
<g>
	<path fill="#68737A" d="M142.8,149.5h-2.4v9H139v-9h-2.4v-0.8h6.2V149.5z"/>
</g>
<g>
	<path fill="#68737A" d="M154.3,158.5h-1.6l-0.6-2h-3.3l-0.6,2h-1.6l3.1-9.8h1.4L154.3,158.5z M152,155.7l-1-3.8
		c-0.2-0.7-0.3-1.3-0.4-2h-0.1c-0.1,0.7-0.3,1.3-0.4,2l-0.9,3.8H152z"/>
</g>
<g>
	<path fill="#68737A" d="M159.4,158.5v-9.8h1.6c2.2,0,4.3,0.1,4.3,2.5c0,1.3-0.4,2.5-3,2.5l3.5,4.8h-1.5l-3.3-4.8h0v4.8H159.4z
		 M160.8,153h0.5c2,0,2.4-0.4,2.4-1.7c0-1.6-0.8-1.7-2.6-1.7h-0.3V153z"/>
</g>
<g>
	<path fill="#68737A" d="M184.9,158.2c-0.5,0.2-1.3,0.4-2,0.4c-3.7,0-4.2-3-4.2-4.7c0-1.6,0.1-5.4,4.4-5.4c0.6,0,1.4,0.1,1.9,0.3v1
		c-0.6-0.2-1.1-0.4-1.8-0.4c-2.5,0-2.9,2.3-2.9,4.1c0,1.1,0,4.2,2.8,4.2c0.7,0,1.4-0.2,1.9-0.4V158.2z"/>
</g>
<g>
	<path fill="#68737A" d="M192,157.7h3.4v0.8h-4.9v-9.8h1.5V157.7z"/>
</g>
<g>
	<path fill="#68737A" d="M207,155.4c0,1.8-0.2,3.2-3.3,3.2c-3.2,0-3.3-1.5-3.3-3.2v-6.7h1.5v6.7c0,1.6,0.1,2.4,1.8,2.4
		c1.7,0,1.8-0.8,1.8-2.4v-6.7h1.5V155.4z"/>
</g>
<g>
	<path fill="#68737A" d="M213.2,158.5v-9.8h2c2.1,0,3.8,0.2,3.8,2.4c0,1-0.4,1.9-2,2.3v-0.1c1.9,0.3,2.3,1.3,2.3,2.4
		c0,2-1.1,2.7-4.3,2.7H213.2z M214.7,153h0.4c1.2,0,2.5,0.1,2.5-1.8c0-1.6-0.6-1.7-2.5-1.7h-0.4V153z M214.7,157.7h0.4
		c2.2,0,2.8-0.4,2.8-1.9c0-1.7-0.9-2.1-2.8-2.1h-0.4V157.7z"/>
</g>
<g>
	<polygon fill="#68737A" points="243.1,151.5 248,151.8 244.2,155.1 245.4,159.9 241.4,157.2 237.3,159.9 238.3,155.1 234.7,151.8 
		239.6,151.5 241.4,147.2 	"/>
</g>
<g>
	<polygon fill="#68737A" points="259.2,151.5 264,151.8 260.3,155.1 261.5,159.9 257.4,157.2 253.3,159.9 254.4,155.1 250.8,151.8 
		255.7,151.5 257.4,147.2 	"/>
</g>
<g>
	<polygon fill="#68737A" points="275.3,151.5 280.1,151.8 276.4,155.1 277.6,159.9 273.5,157.2 269.4,159.9 270.5,155.1 
		266.9,151.8 271.7,151.5 273.5,147.2 	"/>
</g>
<g>
	<polygon fill="#68737A" points="291.3,151.5 296.2,151.8 292.4,155.1 293.7,159.9 289.6,157.2 285.5,159.9 286.6,155.1 283,151.8 
		287.8,151.5 289.6,147.2 	"/>
</g>
<g>
	<polygon fill="#68737A" points="307.4,151.5 312.3,151.8 308.5,155.1 309.8,159.9 305.7,157.2 301.6,159.9 302.6,155.1 
		299.1,151.8 303.9,151.5 305.7,147.2 	"/>
</g>
<g>
	<g>
		<path fill="#68737A" d="M161.3,201c-4.3,3.5-9.9,4.6-15.4,4.6c-10,0-19.2-5.6-19.2-17.3c0-10.5,9.3-17.3,19.2-17.3
			c4.7,0,10.4,1.2,14.6,3.9l-1.6,4.8c-0.2,0.6-0.6,1.7-0.7,1.7c-0.2,0-0.4-0.8-0.6-1.3c-1.1-4.4-4.2-8-11.8-8.1
			c-9.3,0-13.4,8.8-13.4,16.4c0,7.6,4.6,16.4,15.5,16.4c5,0,8.8-3,11-8.2c0.3-0.6,0.3-1.1,0.6-1.1c0.2,0,0.3,0.2,0.5,0.9L161.3,201z
			"/>
	</g>
	<g>
		<path fill="#68737A" d="M198.7,199.4l5.4-10.5c0.8-1.6,1.4-3.2,1.4-4.4c0-1.4-0.9-1.9-1.9-2.3c-0.2,0-0.4-0.1-0.4-0.3
			s0.2-0.2,0.4-0.2c1.1,0,1.5,0.2,3.2,0.2c1.6,0,2-0.2,3.1-0.2c0.3,0,0.5,0,0.5,0.1c0,0.2-0.1,0.3-0.4,0.5c-1.4,1-2.9,3.2-4.3,5.8
			l-8.2,15.7c-0.1,0.3-0.4,0.6-0.5,0.6H197c-0.1,0-0.2-0.2-0.4-0.6l-7.4-14.3c-1.6-3.2-2.9-5.9-4.7-7.1c-0.3-0.2-0.5-0.3-0.5-0.4
			c0-0.2,0.3-0.2,0.5-0.2c0.7,0,1.7,0.2,3.7,0.2c1.9,0,3.4-0.2,3.8-0.2c0.2,0,0.5,0,0.5,0.2s-0.2,0.3-0.4,0.3
			c-0.7,0.2-1.2,0.7-1.2,1.6c0,0.8,0.7,2.1,1.1,2.9L198.7,199.4z"/>
	</g>
	<g>
		<path fill="#68737A" d="M212.2,190c-0.1,1-0.1,1.9-0.1,2.7c0,7.8,4,10.7,8.1,10.7c4.8,0,8.4-3.3,9.8-8.2h0.9
			c-1.3,5.8-5.6,9.3-11.3,9.3c-7.2,0-12.4-4.8-12.4-11.6c0-6.7,5.3-11.6,12.4-11.6c4.6,0,10.1,2.8,10.7,8.6H212.2z M225.1,189.2
			c0-4.1-2-7-6.4-7c-3.8,0-5.9,3.4-6.4,7H225.1z"/>
	</g>
	<g>
		<path fill="#68737A" d="M236.3,187.9L236.3,187.9c1.1-3.6,3.1-6.5,8.7-6.5c4.6,0,9,2.4,9,9.1v8.1c-0.1,4,0.5,4.6,1.7,5
			c0.3,0.1,0.5,0.2,0.5,0.3c0,0.1-0.2,0.1-0.6,0.1c-0.4,0-1.5-0.1-3.8-0.1c-2.3,0-3.8,0.1-4.3,0.1c-0.3,0-0.5,0-0.5-0.1
			c0-0.1,0.1-0.2,0.4-0.3c1.5-0.2,2.3-1.3,2.3-5v-8.2c0-3.9-1.7-8-6.2-8c-5,0-6.6,5.1-6.6,11v5.1c0,2.6,0.1,4.6,2,5
			c0.3,0,0.5,0.1,0.5,0.3c0,0.2-0.1,0.2-0.4,0.2c-0.3,0-2-0.1-4.3-0.1c-2.3,0-4.2,0.1-4.5,0.1c-0.3,0-0.4,0-0.4-0.2
			c0-0.1,0.2-0.2,0.5-0.3c2.1-0.3,2.3-2.3,2.3-5v-10.4c0-2.5-0.3-4-1.5-4.5c-0.5-0.2-0.8-0.3-0.8-0.4c0-0.1,0.3-0.1,0.8-0.2
			c2-0.4,3.7-0.7,5.3-1.2V187.9z"/>
	</g>
	<g>
		<path fill="#68737A" d="M276.6,200.2c0,1.4,0.2,2.6,1.5,3.2c0.3,0.1,0.4,0.1,0.4,0.3c0,0.1-0.3,0.2-0.5,0.2h-4.5
			c-0.6-1.3-0.9-2.8-1-4.3h-0.1c-1.6,3.4-4.1,4.9-7.8,4.9c-4.4,0-8.9-2-8.9-7c0-6.4,9.8-7,14.2-7h2.4v-1.4c0-4-1.9-6.9-6.1-6.9
			c-3.9,0-6.1,1.1-7.7,4.8c-0.2,0.4-0.3,0.7-0.3,0.7c-0.1,0-0.1-0.2-0.2-0.5l-1.1-3.8c3.4-1.8,6.2-2.1,9.9-2.1c4.8,0,9.8,1.7,9.8,7
			V200.2z M272.2,191.2h-2.5c-4.5,0-9.2,1.3-9.2,6.9c0,3.1,2.2,5.3,5.2,5.3c5,0,6.5-5.2,6.5-9.3V191.2z"/>
	</g>
	<g>
		<path fill="#68737A" d="M284.6,187.9L284.6,187.9c1.1-3.6,3.1-6.5,8.7-6.5c4.6,0,9,2.4,9,9.1v8.1c-0.1,4,0.5,4.6,1.7,5
			c0.3,0.1,0.5,0.2,0.5,0.3c0,0.1-0.2,0.1-0.6,0.1c-0.4,0-1.5-0.1-3.8-0.1c-2.3,0-3.8,0.1-4.3,0.1c-0.3,0-0.5,0-0.5-0.1
			c0-0.1,0.1-0.2,0.4-0.3c1.5-0.2,2.3-1.3,2.3-5v-8.2c0-3.9-1.7-8-6.2-8c-5,0-6.6,5.1-6.6,11v5.1c0,2.6,0.1,4.6,2,5
			c0.3,0,0.5,0.1,0.5,0.3c0,0.2-0.1,0.2-0.4,0.2c-0.3,0-2-0.1-4.3-0.1c-2.3,0-4.2,0.1-4.5,0.1c-0.3,0-0.4,0-0.4-0.2
			c0-0.1,0.2-0.2,0.5-0.3c2.1-0.3,2.3-2.3,2.3-5v-10.4c0-2.5-0.3-4-1.5-4.5c-0.5-0.2-0.8-0.3-0.8-0.4c0-0.1,0.3-0.1,0.8-0.2
			c2-0.4,3.7-0.7,5.3-1.2V187.9z"/>
	</g>
	<g>
		<path fill="#68737A" d="M303.2,184.4c-0.3,0-0.4-0.2-0.4-0.4s0.3-0.4,0.8-0.6c2.4-0.8,4.4-2.8,6-6c0.1-0.3,0.3-0.4,0.5-0.4
			c0.2,0,0.2,0.3,0.2,0.6v5.4h4.7l-0.3,1.3h-4.4v11.9c0,5.6,1.3,6.6,2.7,7.1c0.3,0.1,0.5,0.2,0.5,0.3c0,0.1-0.3,0.2-0.7,0.2h-5.1
			c-1.2-0.5-1.8-1.5-1.8-3.1v-16.4H303.2z"/>
	</g>
	<g>
		<path fill="#68737A" d="M237.4,212.2v-4.1c0-0.8-0.2-1.5-0.9-1.7c-0.1,0-0.2-0.1-0.2-0.1c0-0.1,0.1-0.1,0.3-0.1
			c0.3,0,1.3,0.1,2,0.1c0.7,0,1.6-0.1,2-0.1c0.2,0,0.3,0,0.3,0.1c0,0-0.1,0.1-0.2,0.1c-0.7,0.2-0.9,0.8-0.9,1.7v9.1
			c0,1,0.2,1.6,1.1,2c0.1,0.1,0.2,0.1,0.2,0.2c0,0.1-0.1,0.1-0.3,0.1c-0.7,0-1-0.1-2.1-0.1c-1.2,0-1.4,0.1-2.1,0.1
			c-0.2,0-0.3,0-0.3-0.1c0-0.1,0.1-0.1,0.2-0.2c0.9-0.4,1.1-1,1.1-2v-4.4h-7.8v4.4c0,1,0.2,1.6,1.1,2c0.1,0.1,0.2,0.1,0.2,0.2
			c0,0.1-0.1,0.1-0.3,0.1c-0.7,0-1-0.1-2.1-0.1c-1.2,0-1.4,0.1-2.1,0.1c-0.2,0-0.3,0-0.3-0.1c0-0.1,0.1-0.1,0.2-0.2
			c0.9-0.4,1.1-1,1.1-2v-9.1c0-0.8-0.2-1.5-0.9-1.7c-0.1,0-0.2-0.1-0.2-0.1c0-0.1,0.1-0.1,0.3-0.1c0.3,0,1.3,0.1,2,0.1
			c0.7,0,1.6-0.1,2-0.1c0.2,0,0.3,0,0.3,0.1c0,0-0.1,0.1-0.2,0.1c-0.7,0.2-0.9,0.8-0.9,1.7v4.1H237.4z"/>
	</g>
	<g>
		<path fill="#68737A" d="M245.9,212.2h3.8c1.5,0,2.8-0.7,3.1-1.5c0-0.1,0.1-0.2,0.2-0.2c0.1,0,0.1,0.1,0.1,0.3v3.4
			c0,0.3,0,0.4-0.1,0.4c-0.1,0-0.1-0.1-0.2-0.3c-0.6-1.5-2.3-1.6-3.7-1.6h-3.2v4.3c0,1.5,0.5,1.8,1.9,1.8h2.3c1.7,0,4-1,5.3-2.2
			c0.2-0.2,0.5-0.4,0.6-0.4c0,0,0.1,0,0.1,0.1c0,0,0,0.1,0,0.2l-0.9,2.9h-12.4c-0.5,0-0.6,0-0.6-0.1c0-0.1,0.4-0.2,0.6-0.3
			c0.8-0.6,0.9-1.2,0.9-3V209c0-1.3-0.1-2.2-0.9-2.4c-0.1-0.1-0.3-0.1-0.3-0.2c0-0.1,0.1-0.1,0.4-0.1h11.5l0.6,1.9
			c0.1,0.2,0.2,0.5,0.2,0.8c0,0.1,0,0.2-0.1,0.2c-0.1,0-0.2-0.1-0.2-0.2c-0.9-1.4-3-2.1-4.9-2.1h-3.8V212.2z"/>
	</g>
	<g>
		<path fill="#68737A" d="M261.3,213.4l-1.1,2.1c-0.4,0.7-0.7,1.5-0.7,2.3c0,0.9,0.6,1.1,1.1,1.3c0.2,0,0.2,0.1,0.2,0.1
			c0,0.1-0.1,0.1-0.2,0.1c-0.1,0-0.9-0.1-2-0.1c-0.8,0-1.3,0.1-1.6,0.1c-0.2,0-0.3,0-0.3-0.1c0-0.1,0.2-0.2,0.4-0.3
			c0.8-0.7,1.9-2.3,2.4-3.2l5-9.7c0.1-0.1,0.1-0.2,0.1-0.2h0c0.1,0,0.1,0.1,0.2,0.2l6,11.2c0.3,0.6,0.8,1.2,1.4,1.7
			c0.2,0.2,0.5,0.2,0.5,0.3c0,0.1-0.1,0.1-0.3,0.1c-0.1,0-1.1-0.1-2.3-0.1c-1.7,0-2.3,0.1-2.5,0.1c-0.1,0-0.2,0-0.2-0.1
			c0-0.1,0.1-0.1,0.3-0.2c0.5-0.2,0.6-0.6,0.6-1.1c0-0.4-0.4-1.4-0.9-2.3l-1.2-2.4H261.3z M263.7,208.6l-2.1,4.2h4.3L263.7,208.6z"
			/>
	</g>
	<g>
		<path fill="#68737A" d="M277,216.6c0,2,0.8,2.2,2.5,2.2h1.1c1.7,0,4.1-0.9,5.4-2.4c0.2-0.3,0.3-0.5,0.4-0.5c0.1,0,0.1,0,0.1,0.1
			c0,0.1-0.1,0.2-0.1,0.3l-0.8,2.9h-12c-0.3,0-0.4,0-0.4-0.1c0,0,0.1-0.1,0.5-0.2c0.8-0.3,1-1.1,1-2.9v-8.1c0-0.8-0.3-1.4-0.9-1.6
			c-0.1-0.1-0.2-0.1-0.2-0.2c0-0.1,0.1-0.1,0.3-0.1c0.3,0,1.3,0.1,2,0.1c0.7,0,1.6-0.1,2-0.1c0.2,0,0.2,0,0.2,0.1
			c0,0.1-0.1,0.1-0.2,0.1c-0.6,0.3-0.8,0.8-0.8,1.7V216.6z"/>
	</g>
	<g>
		<path fill="#68737A" d="M289.6,207.7c0-0.8-0.3-0.9-1.3-0.9c-2,0-3.4,1.1-4.3,2c-0.1,0.1-0.3,0.3-0.4,0.3c-0.1,0-0.1-0.1-0.1-0.1
			c0-0.1,0.1-0.3,0.1-0.5l0.7-2.3h12.9l0.7,2.3c0.1,0.2,0.1,0.4,0.1,0.5c0,0.1,0,0.1-0.1,0.1c0,0-0.2-0.2-0.4-0.3
			c-0.9-0.9-2.3-2-4.3-2c-0.9,0-1.3,0.1-1.3,0.9v9.4c0,1,0.3,1.8,1.2,2c0.2,0,0.3,0.1,0.3,0.2c0,0-0.1,0.1-0.2,0.1
			c-0.1,0-1.4-0.1-2.6-0.1c-1.2,0-2.4,0.1-2.5,0.1c-0.1,0-0.2,0-0.2-0.1c0-0.1,0.2-0.1,0.4-0.2c0.9-0.4,1.1-1,1.1-2.9V207.7z"/>
	</g>
	<g>
		<path fill="#68737A" d="M310.3,212.2v-4.1c0-0.8-0.2-1.5-0.9-1.7c-0.1,0-0.2-0.1-0.2-0.1c0-0.1,0.1-0.1,0.3-0.1
			c0.3,0,1.3,0.1,2,0.1c0.7,0,1.6-0.1,2-0.1c0.2,0,0.3,0,0.3,0.1c0,0-0.1,0.1-0.2,0.1c-0.7,0.2-0.9,0.8-0.9,1.7v9.1
			c0,1,0.2,1.6,1.1,2c0.1,0.1,0.2,0.1,0.2,0.2c0,0.1-0.1,0.1-0.3,0.1c-0.7,0-1-0.1-2.1-0.1c-1.2,0-1.4,0.1-2.1,0.1
			c-0.2,0-0.3,0-0.3-0.1c0-0.1,0.1-0.1,0.2-0.2c0.9-0.4,1.1-1,1.1-2v-4.4h-7.8v4.4c0,1,0.2,1.6,1.1,2c0.1,0.1,0.2,0.1,0.2,0.2
			c0,0.1-0.1,0.1-0.3,0.1c-0.7,0-1-0.1-2.1-0.1c-1.2,0-1.4,0.1-2.1,0.1c-0.2,0-0.3,0-0.3-0.1c0-0.1,0.1-0.1,0.2-0.2
			c0.9-0.4,1.1-1,1.1-2v-9.1c0-0.8-0.2-1.5-0.9-1.7c-0.1,0-0.2-0.1-0.2-0.1c0-0.1,0.1-0.1,0.3-0.1c0.3,0,1.3,0.1,2,0.1
			c0.7,0,1.6-0.1,2-0.1c0.2,0,0.3,0,0.3,0.1c0,0-0.1,0.1-0.2,0.1c-0.7,0.2-0.9,0.8-0.9,1.7v4.1H310.3z"/>
	</g>
	<g>
		<path fill="#68737A" d="M187.5,191.2c-0.2,3.2-0.7,5.6-2.5,8.1c-3.1,4.5-8.2,5.2-11.9,4.2c-4.6-1.3-9.8-7.4-6.8-14.3
			c0.8-1.8,3-4.8,6.7-5.3c-2.7-0.1-5.6,1-7.8,3.7c-4.4,5.4-2.8,14.1,3.8,17.3c5.3,2.6,13.3,1.4,17.1-5.3
			C187.3,197.3,187.9,194,187.5,191.2z"/>
	</g>
	<g>
		<path fill="#68737A" d="M161.6,195.2c0.2-3.2,0.7-5.6,2.5-8.1c3.1-4.5,8.2-5.2,11.9-4.2c4.6,1.3,9.8,7.4,6.8,14.3
			c-0.8,1.8-3,4.8-6.7,5.3c2.7,0.1,5.6-1,7.8-3.7c4.4-5.4,2.8-14.1-3.8-17.3c-5.3-2.6-13.3-1.4-17.1,5.3
			C161.8,189.1,161.2,192.4,161.6,195.2z"/>
	</g>
	<g>
		<path fill="#68737A" d="M316.6,217c0.2,0.2,0.4,0.5,0.4,0.9c0,0.4-0.1,0.7-0.4,0.9c-0.2,0.2-0.5,0.4-0.9,0.4
			c-0.4,0-0.7-0.1-0.9-0.4c-0.2-0.2-0.4-0.5-0.4-0.9c0-0.3,0.1-0.6,0.4-0.9c0.2-0.2,0.5-0.4,0.9-0.4
			C316,216.6,316.3,216.8,316.6,217z M316.7,216.9c-0.3-0.3-0.6-0.4-1-0.4c-0.4,0-0.8,0.1-1,0.4c-0.3,0.3-0.4,0.6-0.4,1
			c0,0.4,0.1,0.8,0.4,1c0.3,0.3,0.6,0.4,1,0.4c0.4,0,0.8-0.1,1-0.4c0.3-0.3,0.4-0.6,0.4-1C317.1,217.5,317,217.1,316.7,216.9z
			 M315.9,217.8c-0.1,0-0.2,0-0.3,0h-0.3v-0.6h0.2c0.2,0,0.3,0,0.3,0.1c0.1,0,0.1,0.1,0.1,0.2C316.1,217.7,316,217.8,315.9,217.8z
			 M315.1,218.7h0.3v-0.6h0.2c0.2,0,0.3,0,0.3,0.1c0.1,0.1,0.2,0.2,0.2,0.4v0.1l0,0.1c0,0,0,0,0,0c0,0,0,0,0,0h0.3l0,0
			c0,0,0,0,0-0.1c0,0,0-0.1,0-0.1v-0.1c0-0.1,0-0.2-0.1-0.3c-0.1-0.1-0.2-0.1-0.3-0.2c0.1,0,0.2,0,0.2-0.1c0.1-0.1,0.2-0.2,0.2-0.3
			c0-0.2-0.1-0.3-0.3-0.4c-0.1,0-0.2-0.1-0.4-0.1h-0.6V218.7z"/>
	</g>
</g>
</svg>
