<svg id="Layer_1" data-name="Layer 1" xmlns="http://www.w3.org/2000/svg" viewBox="0 0 359.89 115.25"><defs><style>.cls-1{fill:#a90533;}.cls-2{fill:#c9d0d5;}.cls-3{stroke:#000;stroke-width:0.49px;}.cls-4{fill:#68737a;}</style></defs><title>thompson-cancer-survival-center</title><polygon class="cls-1" points="46.96 51.96 52.77 51.96 52.77 46.24 70.2 46.24 70.2 40.52 52.77 40.52 52.77 34.8 46.96 34.8 46.96 51.96"/><path class="cls-2" d="M53.27,52.45h-6.8V34.31h6.8V40H70.69v6.7H53.27v5.72Zm-5.81-1h4.82V45.74H69.71V41H52.28V35.3H47.46V51.46Z"/><polygon class="cls-1" points="46.96 11.93 46.96 17.65 52.77 17.65 52.77 34.8 58.58 34.8 58.58 17.65 64.39 17.65 64.39 11.93 46.96 11.93"/><path class="cls-2" d="M59.08,35.3h-6.8V18.14H46.47V11.44H64.88v6.71H59.08V35.3Zm-5.81-1h4.82V17.15H63.9V12.42H47.46v4.73h5.81V34.31Z"/><polygon class="cls-1" points="23.73 57.67 23.73 51.96 17.92 51.96 17.92 34.8 12.11 34.8 12.11 51.96 6.3 51.96 6.3 57.67 23.73 57.67"/><path class="cls-2" d="M24.22,58.17H5.81V51.46h5.81V34.31h6.8V51.46h5.81v6.71Zm-17.43-1H23.23V52.45H17.43V35.3H12.6V52.45H6.8v4.73Z"/><polygon class="cls-1" points="29.54 69.11 35.35 69.11 35.35 63.39 52.77 63.39 52.77 57.67 35.35 57.67 35.35 51.96 29.54 51.96 29.54 69.11"/><path class="cls-2" d="M35.84,69.6H29V51.46h6.8v5.72H53.27v6.71H35.84V69.6Zm-5.81-1h4.82V62.9H52.28V58.17H34.85V52.45H30V68.62Z"/><polygon class="cls-1" points="58.58 46.24 52.77 46.24 52.77 51.96 35.35 51.96 35.35 57.67 52.77 57.67 52.77 63.39 58.58 63.39 58.58 46.24"/><path class="cls-2" d="M59.08,63.89h-6.8V58.17H34.85V51.46H52.28V45.74h6.8V63.89Zm-5.81-1h4.82V46.73H53.27v5.72H35.84v4.73H53.27V62.9Z"/><polygon class="cls-1" points="70.2 40.52 70.2 34.8 64.39 34.8 64.39 17.65 58.58 17.65 58.58 34.8 52.77 34.8 52.77 40.52 70.2 40.52"/><path class="cls-2" d="M70.69,41H52.28V34.31h5.81V17.15h6.8V34.31h5.81V41ZM53.27,40H69.71V35.3H63.9V18.14H59.08V35.3H53.27V40Z"/><polygon class="cls-1" points="17.92 46.24 17.92 51.96 23.73 51.96 23.73 69.11 29.54 69.11 29.54 51.96 35.35 51.96 35.35 46.24 17.92 46.24"/><path class="cls-2" d="M30,69.6h-6.8V52.45H17.43V45.74H35.84v6.71H30V69.6Zm-5.81-1H29V51.46h5.81V46.73H18.41v4.73h5.81V68.62Z"/><polygon class="cls-1" points="0.49 29.08 0.49 34.8 6.3 34.8 6.3 51.96 12.11 51.96 12.11 34.8 17.92 34.8 17.92 29.08 0.49 29.08"/><path class="cls-2" d="M12.6,52.45H5.81V35.3H0V28.59H18.41V35.3H12.6V52.45Zm-5.81-1h4.82V34.31h5.81V29.58H1v4.73H6.8V51.46Z"/><polygon class="cls-1" points="12.11 23.37 17.92 23.37 17.92 17.65 35.35 17.65 35.35 11.93 17.92 11.93 17.92 6.21 12.11 6.21 12.11 23.37"/><path class="cls-2" d="M18.41,23.86h-6.8V5.72h6.8v5.72H35.84v6.71H18.41v5.72Zm-5.81-1h4.82V17.15H34.85V12.42H17.43V6.71H12.6V22.87Z"/><polygon class="cls-1" points="41.16 0.49 35.35 0.49 35.35 6.21 17.92 6.21 17.92 11.93 35.35 11.93 35.35 17.65 41.16 17.65 41.16 0.49"/><path class="cls-2" d="M41.65,18.14h-6.8V12.42H17.43V5.72H34.85V0h6.8V18.14Zm-5.81-1h4.82V1H35.84V6.71H18.41v4.73H35.84v5.72Z"/><polygon class="cls-1" points="52.77 23.37 52.77 17.65 46.96 17.65 46.96 0.49 41.16 0.49 41.16 17.65 35.35 17.65 35.35 23.37 52.77 23.37"/><path class="cls-2" d="M53.27,23.86H34.85V17.15h5.81V0h6.8V17.15h5.81v6.71Zm-17.43-1H52.28V18.14H46.47V1H41.65V18.14H35.84v4.73Z"/><polygon class="cls-1" points="23.73 17.65 17.92 17.65 17.92 23.37 0.49 23.37 0.49 29.08 17.92 29.08 17.92 34.8 23.73 34.8 23.73 17.65"/><path class="cls-2" d="M24.22,35.3h-6.8V29.58H0V22.87H17.43V17.15h6.8V35.3Zm-5.81-1h4.82V18.14H18.41v5.72H1v4.73H18.41v5.72Z"/><path class="cls-3" d="M35.35,34.8"/><rect class="cls-4" x="75.24" y="64.32" width="282.69" height="0.99"/><path class="cls-4" d="M215.36,98.08c-4,3.2-9.19,4.29-14.23,4.29-9.24,0-17.81-5.18-17.81-16,0-9.71,8.58-16,17.81-16a26.67,26.67,0,0,1,13.52,3.58l-1.46,4.43a5.57,5.57,0,0,1-.66,1.6,2.75,2.75,0,0,1-.52-1.23c-1-4.1-3.91-7.38-10.88-7.53-8.58,0-12.45,8.14-12.45,15.16s4.25,15.16,14.33,15.16c4.62,0,8.1-2.81,10.18-7.57,0.24-.57.28-1,0.52-1s0.24,0.14.42,0.85Z"/><path class="cls-4" d="M250,96.64l5-9.7a11.24,11.24,0,0,0,1.32-4.09,2.11,2.11,0,0,0-1.79-2.1,0.36,0.36,0,0,1-.35-0.23c0-.12.16-0.16,0.39-0.16,1,0,1.36.16,3,.16s1.87-.16,2.88-0.16c0.27,0,.51,0,0.51.12a0.63,0.63,0,0,1-.35.47c-1.28.9-2.65,3-4,5.34L249,100.81a1.12,1.12,0,0,1-.47.55h-0.08a1.17,1.17,0,0,1-.39-0.58l-6.82-13.28c-1.48-3-2.73-5.49-4.36-6.58a0.81,0.81,0,0,1-.47-0.39c0-.16.23-0.16,0.51-0.16,0.62,0,1.6.16,3.47,0.16s3.19-.16,3.51-0.16a0.56,0.56,0,0,1,.51.16,0.48,0.48,0,0,1-.35.31,1.39,1.39,0,0,0-1.09,1.48,7.82,7.82,0,0,0,1,2.65Z"/><path class="cls-4" d="M262.47,87.92c-0.08.9-.12,1.71-0.12,2.53,0,7.24,3.74,9.93,7.52,9.93,4.48,0,7.79-3.08,9.11-7.63h0.82c-1.25,5.37-5.14,8.61-10.44,8.61-6.62,0-11.53-4.48-11.53-10.71s4.91-10.71,11.53-10.71c4.25,0,9.39,2.57,9.93,8H262.47Zm11.92-.74c0-3.82-1.83-6.51-5.88-6.51-3.54,0-5.45,3.15-5.88,6.51h11.76Z"/><path class="cls-4" d="M284.77,86h0.08c0.9-3.31,2.8-6,7.95-6,4.28,0,8.3,2.22,8.3,8.41v7.52c-0.08,3.7.43,4.25,1.56,4.64a0.8,0.8,0,0,1,.51.27c0,0.12-.19.12-0.58,0.12s-1.36-.12-3.51-0.12-3.51.12-4,.12c-0.23,0-.43,0-0.43-0.12s0.08-.19.35-0.23c1.4-.16,2.1-1.21,2.1-4.67V88.31c0-3.58-1.6-7.4-5.73-7.4-4.64,0-6.15,4.75-6.15,10.21v4.75c0,2.45.12,4.29,1.87,4.6,0.27,0,.43.12,0.43,0.23s-0.12.19-.35,0.19-1.87-.12-4-0.12-3.89.12-4.17,0.12-0.35,0-.35-0.19,0.16-.19.43-0.23c1.95-.31,2.1-2.14,2.1-4.6V86.2c0-2.34-.27-3.66-1.36-4.13a1.72,1.72,0,0,1-.7-0.39,1.05,1.05,0,0,1,.74-0.19,33.94,33.94,0,0,0,4.91-1.13V86Z"/><path class="cls-4" d="M322.09,97.38c0,1.29.19,2.45,1.4,3a0.54,0.54,0,0,1,.39.23,0.48,0.48,0,0,1-.51.16h-4.21a11.62,11.62,0,0,1-.93-4h-0.08a7.26,7.26,0,0,1-7.21,4.56c-4.05,0-8.22-1.87-8.22-6.51,0-5.92,9-6.5,13.13-6.5h2.22V87.06c0-3.74-1.75-6.39-5.69-6.39-3.58,0-5.69,1.05-7.09,4.48a2,2,0,0,1-.31.66,0.7,0.7,0,0,1-.19-0.43l-1-3.51A17.68,17.68,0,0,1,313,79.93c4.44,0,9.11,1.6,9.11,6.5V97.38Zm-4-8.3h-2.3c-4.21,0-8.53,1.25-8.53,6.39a4.73,4.73,0,0,0,4.83,4.91c4.6,0,6-4.83,6-8.57V89.08Z"/><path class="cls-4" d="M329.52,86h0.08c0.9-3.31,2.8-6,7.95-6,4.28,0,8.3,2.22,8.3,8.41v7.52c-0.08,3.7.43,4.25,1.56,4.64a0.8,0.8,0,0,1,.51.27c0,0.12-.19.12-0.58,0.12s-1.36-.12-3.51-0.12-3.51.12-4,.12c-0.23,0-.43,0-0.43-0.12s0.08-.19.35-0.23c1.4-.16,2.1-1.21,2.1-4.67V88.31c0-3.58-1.6-7.4-5.73-7.4-4.63,0-6.15,4.75-6.15,10.21v4.75c0,2.45.12,4.29,1.87,4.6,0.27,0,.43.12,0.43,0.23s-0.12.19-.35,0.19-1.87-.12-4-0.12-3.9.12-4.17,0.12-0.35,0-.35-0.19,0.16-.19.43-0.23c1.95-.31,2.1-2.14,2.1-4.6V86.2c0-2.34-.27-3.66-1.36-4.13a1.72,1.72,0,0,1-.7-0.39,1.06,1.06,0,0,1,.74-0.19,34,34,0,0,0,4.91-1.13V86Z"/><path class="cls-4" d="M346.76,82.73a0.36,0.36,0,0,1-.39-0.35,1.08,1.08,0,0,1,.78-0.55c2.22-.78,4.09-2.57,5.53-5.53a0.52,0.52,0,0,1,.43-0.39c0.2,0,.2.27,0.2,0.55v5h4.32l-0.27,1.25H353.3V93.8c0,5.18,1.25,6.12,2.49,6.54a0.57,0.57,0,0,1,.47.27,0.65,0.65,0,0,1-.62.16h-4.71a2.77,2.77,0,0,1-1.64-2.84V82.73h-2.53Z"/><path class="cls-4" d="M285.8,108.48v-3.82a1.38,1.38,0,0,0-.81-1.55,0.46,0.46,0,0,1-.19-0.11c0-.06.11-0.08,0.28-0.08s1.21,0.08,1.81.08,1.51-.08,1.81-0.08,0.28,0,.28.08a0.46,0.46,0,0,1-.19.11,1.38,1.38,0,0,0-.81,1.55v8.39a1.74,1.74,0,0,0,1,1.89,0.23,0.23,0,0,1,.17.15c0,0.06-.11.06-0.3,0.06-0.68,0-.91-0.06-2-0.06s-1.3.06-2,.06c-0.19,0-.3,0-0.3-0.06a0.23,0.23,0,0,1,.17-0.15,1.74,1.74,0,0,0,1-1.89V109h-7.2v4.1a1.74,1.74,0,0,0,1,1.89,0.23,0.23,0,0,1,.17.15c0,0.06-.11.06-0.3,0.06-0.68,0-.91-0.06-2-0.06s-1.3.06-2,.06c-0.19,0-.3,0-0.3-0.06a0.23,0.23,0,0,1,.17-0.15,1.74,1.74,0,0,0,1-1.89v-8.39a1.38,1.38,0,0,0-.81-1.55,0.46,0.46,0,0,1-.19-0.11c0-.06.11-0.08,0.28-0.08s1.21,0.08,1.81.08,1.51-.08,1.82-0.08,0.28,0,.28.08a0.46,0.46,0,0,1-.19.11,1.38,1.38,0,0,0-.81,1.55v3.82h7.2Z"/><path class="cls-4" d="M293.69,108.48h3.5c1.38,0,2.59-.64,2.86-1.42a0.2,0.2,0,0,1,.15-0.17c0.06,0,.08.09,0.08,0.28v3.12c0,0.32,0,.4-0.08.4a0.37,0.37,0,0,1-.15-0.26c-0.55-1.4-2.1-1.48-3.42-1.48h-2.93v4c0,1.38.47,1.68,1.76,1.68h2.14a8,8,0,0,0,4.93-2.06,2.61,2.61,0,0,1,.51-0.4,0.05,0.05,0,0,1,.06.06,0.81,0.81,0,0,1,0,.15l-0.83,2.72H290.7a0.71,0.71,0,0,1-.57-0.07c0-.06.4-0.17,0.53-0.28,0.7-.55.83-1.08,0.83-2.8v-6.43c0-1.23-.08-2-0.83-2.23a0.68,0.68,0,0,1-.32-0.17c0-.08.08-0.11,0.36-0.11h10.68l0.51,1.78a2.72,2.72,0,0,1,.17.7,0.14,0.14,0,0,1-.09.15,0.32,0.32,0,0,1-.23-0.17c-0.79-1.3-2.8-2-4.58-2h-3.48v5Z"/><path class="cls-4" d="M307.93,109.58l-1,2a4.79,4.79,0,0,0-.66,2.16,1.2,1.2,0,0,0,1,1.21c0.15,0,.21.08,0.21,0.13s-0.09.09-.23,0.09-0.81-.06-1.85-0.06c-0.76,0-1.25.06-1.47,0.06s-0.25,0-.25-0.09a0.66,0.66,0,0,1,.36-0.3,11.6,11.6,0,0,0,2.19-3l4.63-9a0.27,0.27,0,0,1,.13-0.15h0a0.24,0.24,0,0,1,.15.15l5.56,10.4a4.79,4.79,0,0,0,1.27,1.57,1.17,1.17,0,0,1,.43.32c0,0.06-.09.09-0.26,0.09s-1-.06-2.12-0.06c-1.55,0-2.17.06-2.29,0.06a0.2,0.2,0,0,1-.19-0.06c0-.07.09-0.11,0.25-0.15a0.88,0.88,0,0,0,.53-1,7.75,7.75,0,0,0-.85-2.15l-1.08-2.23h-4.5Zm2.23-4.4-2,3.93h4Z"/><path class="cls-4" d="M322.54,112.58c0,1.89.72,2,2.33,2h1a7.28,7.28,0,0,0,5-2.19,1.45,1.45,0,0,1,.4-0.45,0.12,0.12,0,0,1,.11.13,2,2,0,0,1-.08.26l-0.78,2.72H319.38c-0.32,0-.42,0-0.42-0.09a1.4,1.4,0,0,1,.45-0.17c0.74-.32.93-1,0.93-2.7v-7.47a1.46,1.46,0,0,0-.81-1.51,0.23,0.23,0,0,1-.19-0.15c0-.06.11-0.08,0.28-0.08s1.21,0.08,1.82.08,1.51-.08,1.81-0.08,0.23,0,.23.09a0.24,0.24,0,0,1-.17.11,1.45,1.45,0,0,0-.78,1.53v7.92Z"/><path class="cls-4" d="M334.17,104.34c0-.74-0.32-0.87-1.17-0.87a5.71,5.71,0,0,0-4,1.87,2.19,2.19,0,0,1-.34.32,0.11,0.11,0,0,1-.09-0.11,3.06,3.06,0,0,1,.13-0.43l0.6-2.12h11.91l0.6,2.12a3.17,3.17,0,0,1,.13.43,0.11,0.11,0,0,1-.09.11,2.19,2.19,0,0,1-.34-0.32,5.7,5.7,0,0,0-4-1.87c-0.85,0-1.17.13-1.17,0.87v8.72c0,0.93.25,1.66,1.13,1.83a0.3,0.3,0,0,1,.28.15,0.17,0.17,0,0,1-.15.11c-0.13,0-1.29-.06-2.36-0.06s-2.19.06-2.33,0.06-0.17,0-.17-0.09a0.63,0.63,0,0,1,.36-0.15c0.87-.38,1-0.93,1-2.68v-7.88Z"/><path class="cls-4" d="M353.37,108.48v-3.82a1.38,1.38,0,0,0-.81-1.55,0.46,0.46,0,0,1-.19-0.11c0-.06.11-0.08,0.28-0.08s1.21,0.08,1.81.08,1.51-.08,1.81-0.08,0.28,0,.28.08a0.45,0.45,0,0,1-.19.11,1.38,1.38,0,0,0-.81,1.55v8.39a1.74,1.74,0,0,0,1,1.89,0.23,0.23,0,0,1,.17.15c0,0.06-.11.06-0.3,0.06-0.68,0-.91-0.06-2-0.06s-1.3.06-2,.06c-0.19,0-.3,0-0.3-0.06a0.23,0.23,0,0,1,.17-0.15,1.74,1.74,0,0,0,1-1.89V109h-7.2v4.1a1.74,1.74,0,0,0,1,1.89,0.23,0.23,0,0,1,.17.15c0,0.06-.11.06-0.3,0.06-0.68,0-.91-0.06-2-0.06s-1.3.06-2,.06c-0.19,0-.3,0-0.3-0.06a0.23,0.23,0,0,1,.17-0.15,1.74,1.74,0,0,0,1-1.89v-8.39a1.38,1.38,0,0,0-.81-1.55A0.46,0.46,0,0,1,343,103c0-.06.11-0.08,0.28-0.08s1.21,0.08,1.82.08,1.51-.08,1.81-0.08,0.28,0,.28.08a0.46,0.46,0,0,1-.19.11,1.38,1.38,0,0,0-.81,1.55v3.82h7.2Z"/><path class="cls-4" d="M239.6,89a13.13,13.13,0,0,1-2.27,7.53,10,10,0,0,1-11,3.85c-4.28-1.2-9.1-6.86-6.31-13.26a8.36,8.36,0,0,1,6.2-4.87A8.94,8.94,0,0,0,219,85.67a10.61,10.61,0,0,0,3.47,16,12.16,12.16,0,0,0,15.8-4.94A13.1,13.1,0,0,0,239.6,89Z"/><path class="cls-4" d="M215.66,92.74a13.12,13.12,0,0,1,2.27-7.53,10,10,0,0,1,11-3.85c4.28,1.2,9.1,6.86,6.3,13.26a8.36,8.36,0,0,1-6.2,4.87,8.94,8.94,0,0,0,7.25-3.42,10.61,10.61,0,0,0-3.47-16A12.16,12.16,0,0,0,217,85,13.1,13.1,0,0,0,215.66,92.74Z"/><path class="cls-4" d="M359.36,113a1.18,1.18,0,1,1-1.66,1.67,1.15,1.15,0,0,1-.34-0.84A1.17,1.17,0,0,1,359.36,113Zm0.14-.13a1.36,1.36,0,1,0,.4,1A1.31,1.31,0,0,0,359.49,112.92Zm-0.76.9a0.72,0.72,0,0,1-.25,0h-0.24v-0.54h0.22a0.69,0.69,0,0,1,.32.06,0.23,0.23,0,0,1,.1.22A0.23,0.23,0,0,1,358.73,113.82Zm-0.75.81h0.26V114h0.21a0.63,0.63,0,0,1,.29,0,0.37,0.37,0,0,1,.14.34v0.2h0.25v0a0.23,0.23,0,0,1,0-.08s0-.08,0-0.11v-0.11a0.41,0.41,0,0,0-.08-0.23,0.37,0.37,0,0,0-.26-0.15,0.58,0.58,0,0,0,.22-0.07,0.33,0.33,0,0,0,.15-0.3,0.37,0.37,0,0,0-.23-0.38,1.15,1.15,0,0,0-.41-0.05H358v1.5Z"/><path class="cls-4" d="M84.53,28.54c0,1.8,0,3,1.64,4v0.09H79.92V32.55c1.58-.6,1.39-2.9,1.39-4.33V14.14H78.53a5.48,5.48,0,0,0-3.76,1.26H74.68l1.11-3.76h0.09a5,5,0,0,0,1.2.22H89.64a3.52,3.52,0,0,0,1.45-.22h0.09l-1,3.76H90.09c-0.41-1.1-1.67-1.26-2.72-1.26H84.53v14.4Z"/><path class="cls-4" d="M94.92,22.51v5.71c0,1.42-.19,3.73,1.39,4.33v0.09h-6V32.55c1.58-.6,1.39-2.9,1.39-4.33V16.29c0-1.42.22-3.73-1.39-4.33V11.87h6V12c-1.58.6-1.39,2.9-1.39,4.36v3.91h11.4V16.32c0-1.45.22-3.76-1.39-4.36V11.87h6V12c-1.61.6-1.42,2.9-1.42,4.33V28.22c0,1.42-.19,3.73,1.42,4.33v0.09h-6V32.55c1.61-.6,1.39-2.9,1.39-4.33V22.51H94.92Z"/><path class="cls-4" d="M134.76,22c0,6.44-5.34,11.11-11.62,11.11s-11.52-4.48-11.52-11c0-6,5.21-11,11.84-10.86A10.9,10.9,0,0,1,134.76,22Zm-19.54-.13c0,4.42,3.13,9,8.08,9,4.8,0,7.86-3.5,7.86-8.21s-2.94-9.06-7.92-9.06S115.22,17.14,115.22,21.91Z"/><path class="cls-4" d="M154.21,13.85a5.55,5.55,0,0,0,.47-2v0h5.46V12a1.8,1.8,0,0,0-1,1.86l2.08,15.5c0.19,1.48.35,2.34,1.61,3.22v0.09h-6.09V32.55c1.11-.35,1.29-1.29,1.29-2.37L156.26,15l-7.07,18.09a7.64,7.64,0,0,1-2.78-3.82l-6-14.24-1.8,13.58c-0.25,1.93-.47,3.32,1,4v0.09h-5.15V32.55c1.33-1.17,1.52-2.72,1.77-4.42L138,14.9c0.13-.88.47-2.15-1-2.94V11.87h5.53v0a3.74,3.74,0,0,0,.44,1.42L149,27.24Z"/><path class="cls-4" d="M170.82,11.87c4.1,0,7.23,2,7.23,5.53s-3.38,5.94-6.95,5.94a5.27,5.27,0,0,1-2.3-.44c2.72-.16,5.65-1.83,5.65-4.86,0-2.78-2-3.88-4.48-3.88a12.77,12.77,0,0,0-2.21.19V28.57c0,1.77,0,3,1.64,4v0.09h-6.28V32.55c1.61-.57,1.42-2.9,1.42-4.33V16.32c0-1.42.19-3.73-1.39-4.36V11.87h7.67Z"/><path class="cls-4" d="M190.55,15.62a7.19,7.19,0,0,0-5-2c-1.8,0-4.07.69-4.07,2.87,0,4.33,10.86,4.26,10.86,10.1,0,3.38-3.54,6.54-8.46,6.54a16.35,16.35,0,0,1-5.65-.95l-0.92-3.95a10.93,10.93,0,0,0,6.91,2.62c1.8,0,4.51-1.07,4.51-3.28,0-4.93-10.86-4-10.86-10.73,0-4,4.07-5.49,7.92-5.49a15.87,15.87,0,0,1,4.7.69v3.57Z"/><path class="cls-4" d="M216.22,22c0,6.44-5.34,11.11-11.62,11.11s-11.52-4.48-11.52-11c0-6,5.21-11,11.84-10.86A10.9,10.9,0,0,1,216.22,22Zm-19.54-.13c0,4.42,3.13,9,8.08,9,4.8,0,7.86-3.5,7.86-8.21s-2.94-9.06-7.92-9.06S196.68,17.14,196.68,21.91Z"/><path class="cls-4" d="M220.86,28.54c0,1.77,0,3,1.64,4v0.09h-5.59V32.55c1.67-1,1.67-2.24,1.67-4V15.94c0-1.77,0-3-1.64-4V11.87h4.61v0a2,2,0,0,0,.47.79l0.44,0.63L234,27.9v-12c0-1.77,0-3-1.64-4V11.87h5.56V12c-1.64.95-1.64,2.21-1.64,4V33.65a8.73,8.73,0,0,1-4.61-3.6L220.86,16.32V28.54Z"/><path class="cls-4" d="M262.7,15.78a11,11,0,0,0-5.84-1.8c-4.36,0-7.39,3.19-7.39,7.77s3.16,8.78,8,8.78a13.91,13.91,0,0,0,6.72-2h0.1L262.7,32.2a11.19,11.19,0,0,1-4.77.95c-7.45,0-12.06-4.17-12.06-10.92,0-6.54,4.61-10.86,11.08-10.86a25.22,25.22,0,0,1,5.75.79v3.63Z"/><path class="cls-4" d="M270.06,24.84l-1.64,4.45c-0.66,1.77-.88,2.68.63,3.25v0.09h-5.81V32.55c1.83-.92,2.37-2.68,3.06-4.48l5.27-13.17c0.44-1.14,1-2.46-.47-2.94V11.87h5l6.57,16.2c0.73,1.8,1.3,3.57,3.09,4.48v0.09h-6.47V32.55c1.55-.69,1.29-1,0.44-3.25L278,24.84h-8ZM274,14.55l-3.13,8h6.22Z"/><path class="cls-4" d="M289.69,28.54c0,1.77,0,3,1.64,4v0.09h-5.59V32.55c1.67-1,1.67-2.24,1.67-4V15.94c0-1.77,0-3-1.64-4V11.87h4.61v0a2,2,0,0,0,.47.79l0.44,0.63L302.86,27.9v-12c0-1.77,0-3-1.64-4V11.87h5.56V12c-1.64.95-1.64,2.21-1.64,4V33.65a8.73,8.73,0,0,1-4.61-3.6L289.69,16.32V28.54Z"/><path class="cls-4" d="M323.79,15.78A11,11,0,0,0,318,14c-4.36,0-7.39,3.19-7.39,7.77s3.16,8.78,8,8.78a13.91,13.91,0,0,0,6.72-2h0.1l-1.61,3.66a11.19,11.19,0,0,1-4.77.95C311.57,33.15,307,29,307,22.22c0-6.54,4.61-10.86,11.08-10.86a25.22,25.22,0,0,1,5.75.79v3.63Z"/><path class="cls-4" d="M330.14,30l4,0.38A7.87,7.87,0,0,0,340,28.5h0.1l-1.42,4.14H325.5V32.55c1.61-.57,1.42-2.9,1.42-4.33V16.32c0-1.45.19-3.76-1.42-4.36V11.87h10.1a3.22,3.22,0,0,0,1.48-.16h0.09V15.4h-0.09c-1-1.14-2.27-1.26-3.73-1.26a17.8,17.8,0,0,0-3.22.22v5.87h3.76a3.23,3.23,0,0,0,1.39-.19h0.1v3.35h-0.1c-0.5-.92-1.83-0.88-2.81-0.88h-2.34V30Z"/><path class="cls-4" d="M348.23,11.87c4.23,0,6.53,2.21,6.53,5.08s-2.43,5-5,5.56l4.55,5.71a22.13,22.13,0,0,0,5.11,4.42H356.5a4.15,4.15,0,0,1-3.66-1.58L349,26.29l-2.9-4.45c2.53-.38,5.46-1.55,5.46-4.51a3.63,3.63,0,0,0-4.07-3.5,16.6,16.6,0,0,0-2.15.25V28.22c0,1.45-.19,3.76,1.42,4.33v0.09h-6V32.55c1.61-.57,1.39-2.9,1.39-4.33V16.32c0-1.45.22-3.76-1.39-4.36V11.87h7.51Z"/><path class="cls-4" d="M89.36,40.29a7.19,7.19,0,0,0-5-2c-1.8,0-4.07.69-4.07,2.87,0,4.33,10.86,4.26,10.86,10.1,0,3.38-3.54,6.54-8.46,6.54a16.35,16.35,0,0,1-5.65-.95l-0.92-3.95a10.93,10.93,0,0,0,6.91,2.62c1.8,0,4.51-1.07,4.51-3.28,0-4.93-10.86-4-10.86-10.73,0-4,4.07-5.49,7.92-5.49a15.86,15.86,0,0,1,4.7.69v3.57Z"/><path class="cls-4" d="M106.82,55.22c-1.39,1.83-4,2.59-6.19,2.59a7.75,7.75,0,0,1-5.71-2.21c-1.67-1.83-1.61-3.95-1.61-6.22V41c0-1.42.22-3.73-1.39-4.33V36.53h6v0.09c-1.58.6-1.39,2.9-1.39,4.33v8.43c0,4.2,1.77,6.16,5,6.16a5.58,5.58,0,0,0,4.61-2.21,4.16,4.16,0,0,0,.66-2.87V41c0-1.42.19-3.73-1.39-4.33V36.53h6l0,0.09c-1.61.6-1.42,2.9-1.42,4.36v11.9c0,1.42-.19,3.73,1.42,4.33v0.09h-4.64V55.22Z"/><path class="cls-4" d="M120.27,36.53c4.23,0,6.54,2.21,6.54,5.08s-2.43,5-5,5.56l4.55,5.71a22.13,22.13,0,0,0,5.11,4.42h-2.9a4.15,4.15,0,0,1-3.66-1.58L121,51l-2.9-4.45c2.53-.38,5.46-1.55,5.46-4.51a3.63,3.63,0,0,0-4.07-3.5,16.63,16.63,0,0,0-2.15.25V52.89c0,1.45-.19,3.76,1.42,4.33v0.09h-6V57.21c1.61-.57,1.39-2.9,1.39-4.33V41c0-1.45.22-3.76-1.39-4.36V36.53h7.51Z"/><path class="cls-4" d="M142.43,42.25c0.85-2.24,1.93-4.83,0-5.62V36.53h4.7l-8.33,21.72c-2.21-1.45-2.94-1.7-3.85-4.2l-4.77-12.91c-0.6-1.61-1.07-3.44-2.46-4.51V36.53h4.61l0,0.38a12.9,12.9,0,0,0,.85,2.94l5,13.73Z"/><path class="cls-4" d="M148.59,41c0-1.45.22-3.76-1.39-4.36V36.53h6v0.09c-1.58.6-1.39,2.94-1.39,4.36v11.9c0,1.42-.19,3.73,1.39,4.33v0.09h-6V57.21c1.58-.57,1.39-2.9,1.39-4.33V41Z"/><path class="cls-4" d="M167.38,42.25c0.85-2.24,1.93-4.83,0-5.62V36.53H172l-8.33,21.72c-2.21-1.45-2.94-1.7-3.85-4.2l-4.77-12.91c-0.6-1.61-1.07-3.44-2.46-4.51V36.53h4.61l0,0.38a12.9,12.9,0,0,0,.85,2.94l5,13.73Z"/><path class="cls-4" d="M174.51,49.51L172.87,54c-0.66,1.77-.88,2.68.63,3.25v0.09H167.7V57.21c1.83-.92,2.37-2.68,3.06-4.48L176,39.56c0.44-1.14,1-2.46-.47-2.94V36.53h5l6.57,16.2c0.73,1.8,1.3,3.57,3.09,4.48v0.09h-6.47V57.21c1.55-.69,1.29-1,0.44-3.25l-1.7-4.45h-8Zm3.95-10.29-3.13,8h6.22Z"/><path class="cls-4" d="M199.46,55A7.77,7.77,0,0,0,205,53.11h0.09l-1.64,4.2h-13V57.21c1.61-.57,1.42-2.9,1.42-4.33V41c0-1.45.19-3.76-1.42-4.36V36.53h6v0.09c-1.61.6-1.39,2.94-1.39,4.36V54.75Z"/><path class="cls-4" d="M229.67,40.45a11,11,0,0,0-5.84-1.8c-4.36,0-7.39,3.19-7.39,7.77s3.16,8.78,8,8.78a13.92,13.92,0,0,0,6.72-2h0.09l-1.61,3.66a11.19,11.19,0,0,1-4.77.95c-7.45,0-12.06-4.17-12.06-10.92,0-6.54,4.61-10.86,11.08-10.86a25.24,25.24,0,0,1,5.75.79v3.63Z"/><path class="cls-4" d="M236,54.66L240,55a7.87,7.87,0,0,0,5.84-1.86H246l-1.42,4.14H231.38V57.21c1.61-.57,1.42-2.9,1.42-4.33V41c0-1.45.19-3.76-1.42-4.36V36.53h10.1a3.22,3.22,0,0,0,1.48-.16h0.1v3.69H243c-1-1.14-2.27-1.26-3.73-1.26A17.76,17.76,0,0,0,236,39V44.9h3.76a3.24,3.24,0,0,0,1.39-.19h0.09v3.35h-0.09c-0.51-.92-1.83-0.88-2.81-0.88H236v7.48Z"/><path class="cls-4" d="M250.36,53.2c0,1.77,0,3,1.64,4v0.09h-5.59V57.21c1.67-1,1.67-2.24,1.67-4V40.61c0-1.77,0-3-1.64-4V36.53H251v0a2,2,0,0,0,.47.79L252,38l11.56,14.59v-12c0-1.77,0-3-1.64-4V36.53h5.56v0.09c-1.64.95-1.64,2.21-1.64,4V58.32a8.73,8.73,0,0,1-4.61-3.6L250.36,41V53.2Z"/><path class="cls-4" d="M275.68,53.2c0,1.8,0,3,1.64,4v0.09h-6.25V57.21c1.58-.6,1.39-2.9,1.39-4.33V38.81h-2.78a5.48,5.48,0,0,0-3.76,1.26h-0.09l1.11-3.76H267a5,5,0,0,0,1.2.22h12.57a3.51,3.51,0,0,0,1.45-.22h0.09l-1,3.76h-0.09c-0.41-1.1-1.67-1.26-2.72-1.26h-2.84V53.2Z"/><path class="cls-4" d="M286.38,54.66l4,0.38a7.87,7.87,0,0,0,5.84-1.86h0.09l-1.42,4.14H281.74V57.21c1.61-.57,1.42-2.9,1.42-4.33V41c0-1.45.19-3.76-1.42-4.36V36.53h10.1a3.22,3.22,0,0,0,1.48-.16h0.1v3.69h-0.1c-1-1.14-2.27-1.26-3.73-1.26a17.76,17.76,0,0,0-3.22.22V44.9h3.76a3.24,3.24,0,0,0,1.39-.19h0.09v3.35h-0.09c-0.51-.92-1.83-0.88-2.81-0.88h-2.34v7.48Z"/><path class="cls-4" d="M304.47,36.53c4.23,0,6.54,2.21,6.54,5.08s-2.43,5-5,5.56l4.55,5.71a22.14,22.14,0,0,0,5.11,4.42h-2.9a4.15,4.15,0,0,1-3.66-1.58L305.23,51l-2.91-4.45c2.53-.38,5.46-1.55,5.46-4.51a3.63,3.63,0,0,0-4.07-3.5,16.61,16.61,0,0,0-2.15.25V52.89c0,1.45-.19,3.76,1.42,4.33v0.09h-6V57.21c1.61-.57,1.39-2.9,1.39-4.33V41c0-1.45.22-3.76-1.39-4.36V36.53h7.51Z"/></svg>