<svg id="Layer_1" data-name="Layer 1" xmlns="http://www.w3.org/2000/svg" viewBox="0 0 349.55 182.67"><defs><style>.cls-1{fill:#454e7e;}.cls-2{fill:#a0a1bc;}</style></defs><title>smg</title><path class="cls-1" d="M120.93,47.88a19.88,19.88,0,0,0,9.6,2.53c4.59,0,7.18-2.18,7.18-5.42,0-3-2-4.77-7-6.59-6.59-2.36-10.77-5.83-10.77-11.54,0-6.53,5.42-11.42,14.07-11.42a20.66,20.66,0,0,1,9.48,2l-1.71,5.83a17.29,17.29,0,0,0-7.95-1.89c-4.59,0-6.53,2.41-6.53,4.77,0,3.06,2.29,4.47,7.59,6.53,6.89,2.59,10.19,6.07,10.19,11.78,0,6.42-4.83,12-15,12-4.24,0-8.6-1.18-10.77-2.53Z" transform="translate(-0.45)"/><path class="cls-1" d="M178.93,41.17c0,10.54-7.42,15.25-14.72,15.25-8.07,0-14.37-5.53-14.37-14.78,0-9.42,6.18-15.19,14.84-15.19S178.93,32.46,178.93,41.17Zm-21.61.29c0,5.53,2.77,9.71,7.12,9.71,4.12,0,7-4,7-9.83,0-4.47-2-9.65-6.95-9.65C159.38,31.69,157.32,36.7,157.32,41.46Z" transform="translate(-0.45)"/><path class="cls-1" d="M210.54,47.18c0,3.41.12,6.24,0.24,8.59h-6.3l-0.35-4.3h-0.17a10.5,10.5,0,0,1-9.24,4.94c-5.18,0-10-3.12-10-12.48V27.1H192V42.7c0,4.77,1.53,7.83,5.36,7.83a5.89,5.89,0,0,0,5.53-3.89,5.24,5.24,0,0,0,.41-2.24V27.1h7.24V47.18Z" transform="translate(-0.45)"/><path class="cls-1" d="M226.67,19.74V27.1h6.89v5.42h-6.89V45.17c0,3.53.94,5.3,3.71,5.3a9.37,9.37,0,0,0,2.82-.29l0.12,5.48a15.92,15.92,0,0,1-5.24.76,8.29,8.29,0,0,1-6.24-2.35c-1.59-1.65-2.3-4.3-2.3-8.07V32.52h-4.06V27.1h4.06V21.74Z" transform="translate(-0.45)"/><path class="cls-1" d="M239,14h7.24V31h0.12A9.53,9.53,0,0,1,250,27.75a10.22,10.22,0,0,1,5-1.3c4.89,0,10,3.24,10,12.42v16.9h-7.24V39.64c0-4.12-1.53-7.3-5.54-7.3a6,6,0,0,0-5.65,4.06,6.46,6.46,0,0,0-.29,2.18V55.77H239V14Z" transform="translate(-0.45)"/><path class="cls-1" d="M277.82,43.47c0.18,5.18,4.18,7.42,8.83,7.42a23.07,23.07,0,0,0,7.95-1.3l1.06,4.95a25.77,25.77,0,0,1-10,1.83c-9.3,0-14.78-5.71-14.78-14.48,0-7.95,4.83-15.43,14-15.43s12.37,7.65,12.37,14a17.86,17.86,0,0,1-.23,3.06H277.82Zm12.6-5.06c0.06-2.65-1.12-7-5.95-7-4.47,0-6.36,4.06-6.65,7h12.6Z" transform="translate(-0.45)"/><path class="cls-1" d="M303.08,36.34c0-3.89-.06-6.71-0.24-9.24h6.24l0.29,5.42h0.17a8.58,8.58,0,0,1,7.89-6.07,7.64,7.64,0,0,1,1.71.18V33.4a11.69,11.69,0,0,0-2.18-.18,6.38,6.38,0,0,0-6.47,5.47,12.37,12.37,0,0,0-.18,2.18V55.77h-7.24V36.34Z" transform="translate(-0.45)"/><path class="cls-1" d="M324,35.64c0-3.3-.12-6.06-0.24-8.54h6.3l0.35,4.3h0.18a10.52,10.52,0,0,1,9.18-4.95c5,0,10.19,3.24,10.19,12.31v17h-7.24V39.58c0-4.12-1.53-7.24-5.48-7.24a6.08,6.08,0,0,0-5.65,4.24,6.74,6.74,0,0,0-.35,2.3v16.9H324V35.64Z" transform="translate(-0.45)"/><path class="cls-1" d="M153.79,98c-0.23-5.12-.53-11.3-0.47-16.66h-0.18c-1.3,4.83-2.94,10.19-4.71,15.19l-5.83,17.19h-5.53l-5.3-17c-1.53-5.06-2.94-10.48-4-15.42h-0.12c-0.17,5.18-.41,11.48-0.71,16.9l-0.88,16h-6.77l2.65-39.68h9.54l5.18,16c1.41,4.65,2.65,9.36,3.65,13.78h0.17c1.06-4.3,2.41-9.18,3.95-13.83l5.47-15.9h9.42l2.29,39.68h-7.06Z" transform="translate(-0.45)"/><path class="cls-1" d="M174.1,101.84c0.17,5.18,4.18,7.42,8.83,7.42a23.07,23.07,0,0,0,7.95-1.3l1.06,4.95a25.78,25.78,0,0,1-10,1.83c-9.3,0-14.78-5.71-14.78-14.48,0-7.95,4.83-15.43,14-15.43s12.36,7.66,12.36,14a17.85,17.85,0,0,1-.23,3.06H174.1Zm12.6-5.06c0.06-2.65-1.12-7-5.95-7-4.47,0-6.36,4.06-6.65,7h12.6Z" transform="translate(-0.45)"/><path class="cls-1" d="M225.78,72.35v33.73c0,2.94.12,6.12,0.23,8.07H219.6l-0.35-4.53h-0.12a10.29,10.29,0,0,1-9.3,5.18c-6.89,0-12.31-5.83-12.31-14.66-0.06-9.6,5.95-15.31,12.83-15.31,3.95,0,6.77,1.59,8.07,3.71h0.12V72.35h7.24Zm-7.24,25.08a10.87,10.87,0,0,0-.18-1.94,6.35,6.35,0,0,0-6.24-5.06c-4.65,0-7.24,4.12-7.24,9.42s2.59,9.12,7.18,9.12a6.38,6.38,0,0,0,6.24-5.12,8,8,0,0,0,.24-2.12v-4.3Z" transform="translate(-0.45)"/><path class="cls-1" d="M241.27,77.47a4.06,4.06,0,1,1-4.06-3.95A3.87,3.87,0,0,1,241.27,77.47Zm-7.71,36.68V85.48h7.24v28.67h-7.24Z" transform="translate(-0.45)"/><path class="cls-1" d="M269.7,113.27a21,21,0,0,1-8.13,1.47c-8.95,0-14.78-5.77-14.78-14.66,0-8.59,5.89-15.25,16-15.25a19.31,19.31,0,0,1,7,1.3l-1.3,5.48A11.92,11.92,0,0,0,263,90.48c-5.53,0-8.83,4.06-8.77,9.3,0,5.89,3.83,9.24,8.77,9.24a14.37,14.37,0,0,0,5.71-1.12Z" transform="translate(-0.45)"/><path class="cls-1" d="M297.31,107.26a38.53,38.53,0,0,0,.47,6.89h-6.53L290.72,111h-0.18a10.48,10.48,0,0,1-8.48,3.83c-5.77,0-9-4.18-9-8.53,0-7.18,6.42-10.89,17-10.83V95c0-1.89-.76-5-5.83-5a15.17,15.17,0,0,0-7.71,2.12l-1.41-4.71a20.67,20.67,0,0,1,10.36-2.53c9.18,0,11.83,5.83,11.83,12.13v10.3Zm-7.06-7.12c-5.12-.06-10,1-10,5.36a3.8,3.8,0,0,0,4.12,4.12,6,6,0,0,0,5.71-3.95,4.88,4.88,0,0,0,.18-1.59v-3.94Z" transform="translate(-0.45)"/><path class="cls-1" d="M305,72.35h7.24v41.8H305V72.35Z" transform="translate(-0.45)"/><path class="cls-1" d="M153.14,168.25a39.25,39.25,0,0,1-12.72,2.24c-6.71,0-11.83-1.71-15.6-5.3-3.53-3.36-5.54-8.59-5.54-14.6C119.35,138,128.24,130,141.37,130a26.35,26.35,0,0,1,10.54,1.88l-1.59,5.83a20.54,20.54,0,0,0-9-1.71c-8.48,0-14.42,5-14.42,14.25,0,9,5.53,14.37,13.78,14.37a15.18,15.18,0,0,0,5.48-.76v-10h-7v-5.71h14v20.08Z" transform="translate(-0.45)"/><path class="cls-1" d="M160.44,150.65c0-3.89-.06-6.71-0.23-9.24h6.24l0.29,5.42h0.18a8.58,8.58,0,0,1,7.89-6.07,7.64,7.64,0,0,1,1.71.18v6.77a11.67,11.67,0,0,0-2.18-.17,6.38,6.38,0,0,0-6.48,5.47,12.61,12.61,0,0,0-.18,2.18v14.89h-7.24V150.65Z" transform="translate(-0.45)"/><path class="cls-1" d="M208.13,155.48c0,10.54-7.42,15.25-14.72,15.25-8.07,0-14.37-5.53-14.37-14.78,0-9.42,6.18-15.19,14.84-15.19S208.13,146.76,208.13,155.48Zm-21.61.29c0,5.53,2.77,9.71,7.12,9.71,4.12,0,7-4,7-9.83,0-4.47-2-9.65-6.95-9.65C188.58,146,186.52,151,186.52,155.77Z" transform="translate(-0.45)"/><path class="cls-1" d="M239.74,161.48c0,3.41.12,6.24,0.23,8.59h-6.3l-0.35-4.3h-0.18a10.49,10.49,0,0,1-9.24,4.94c-5.18,0-9.95-3.12-9.95-12.48V141.41h7.24V157c0,4.77,1.53,7.83,5.36,7.83a5.89,5.89,0,0,0,5.54-3.89,5.24,5.24,0,0,0,.41-2.24V141.41h7.24v20.08Z" transform="translate(-0.45)"/><path class="cls-1" d="M247.56,150.94c0-3.77-.12-6.83-0.23-9.54h6.36l0.35,4.41h0.12a11.17,11.17,0,0,1,9.83-5.06c6.59,0,12.07,5.65,12.07,14.6,0,10.36-6.53,15.36-13.07,15.36-3.59,0-6.59-1.53-8.07-3.83h-0.12v14.84h-7.24V150.94Zm7.24,7.12a11.06,11.06,0,0,0,.18,2,6.62,6.62,0,0,0,6.42,5.06c4.59,0,7.3-3.83,7.3-9.48,0-5.06-2.47-9.18-7.12-9.18a6.86,6.86,0,0,0-6.53,5.36,9.72,9.72,0,0,0-.24,1.83v4.41Z" transform="translate(-0.45)"/><path class="cls-2" d="M49.52,182.43c-11.86,0-23.52-2.25-33.87-8.09l0.2,8.33H52.54v-0.32C51.55,182.4,50.55,182.43,49.52,182.43Z" transform="translate(-0.45)"/><path class="cls-2" d="M25.79,29.65c0,15.78,9.65,27.75,26.75,41.54V4.1a28.7,28.7,0,0,0-5.18-.52C29.46,3.58,25.79,21.33,25.79,29.65Z" transform="translate(-0.45)"/><path class="cls-2" d="M12.41,182.67L12,142.89h3.45v10.79c8.24,13.69,24.5,23.07,37.11,24.67V100.15c-1.86-1.44-3.79-2.92-5.82-4.45C22.12,77.28,7,65.82,7,40.88,7,17.46,24.59,2,45.12,0H0.45V182.67h12Z" transform="translate(-0.45)"/><path class="cls-1" d="M86.85,37.06H83.4v-11C74.77,13.25,62.73,6,52.54,4.1V71.19q3.56,2.87,7.55,5.87c18.12,13.7,27.4,20.44,33.66,34.82a53.76,53.76,0,0,1,4.32,20.67c0,20.06-13.4,48.14-45.53,49.8v0.32h52.1V0H86.85V37.06Z" transform="translate(-0.45)"/><path class="cls-1" d="M82.54,146.93c0-20-9.78-31.07-30-46.78v78.19a29.35,29.35,0,0,0,3.67.27C69.81,178.61,82.54,168.95,82.54,146.93Z" transform="translate(-0.45)"/><path class="cls-1" d="M83.4,0H56.13C63,0.51,73.92,2.16,83.4,7.4V0Z" transform="translate(-0.45)"/></svg>