<svg id="Layer_1" data-name="Layer 1" xmlns="http://www.w3.org/2000/svg" viewBox="0 0 359.95 104.06"><defs><style>.cls-1{fill:#005a9c;}.cls-2{fill:#a90533;}</style></defs><title>covenant-medical-group</title><path class="cls-1" d="M65.58,56.74c-8.09,6.57-18.78,8.8-29.1,8.81C17.59,65.57,0,55,0,32.82,0,13,17.5,0,36.39,0c8.87,0,19.76,2.29,27.67,7.29l-3,9.06c-0.38,1.16-1.06,3.28-1.35,3.28s-0.77-1.44-1.06-2.5c-2-8.38-8-15.1-22.29-15.37C18.85,1.79,11,18.45,11,32.81s8.73,31,29.36,31c9.45,0,16.57-5.78,20.8-15.52,0.48-1.16.58-2,1.06-2s0.48,0.29.87,1.73Z" transform="translate(0)"/><path class="cls-1" d="M136.37,53.69l10.17-19.86c1.43-3.11,2.7-6.06,2.7-8.37,0-2.71-1.76-3.66-3.67-4.3a0.74,0.74,0,0,1-.72-0.48c0-.24.32-0.32,0.8-0.32,2.07,0,2.79.31,6.06,0.31,3.11,0,3.82-.32,5.9-0.33,0.56,0,1,0,1,.24a1.28,1.28,0,0,1-.72,1c-2.63,1.84-5.41,6.06-8.11,10.93l-15.5,29.74a2.3,2.3,0,0,1-1,1.12h-0.16c-0.24,0-.32-0.4-0.8-1.19L118.41,35c-3-6.05-5.59-11.23-8.94-13.45a1.65,1.65,0,0,1-1-.8c0-.32.48-0.32,1-0.32,1.27,0,3.27.31,7.09,0.31,3.67,0,6.53-.33,7.17-0.33a1.15,1.15,0,0,1,1,.32,1,1,0,0,1-.72.64,2.85,2.85,0,0,0-2.23,3c0,1.59,1.28,3.9,2,5.42Z" transform="translate(0)"/><path class="cls-1" d="M161.91,35.8c-0.16,1.83-.23,3.51-0.23,5.18,0,14.82,7.68,20.31,15.41,20.3,9.16,0,15.93-6.32,18.62-15.64h1.67c-2.54,11-10.49,17.62-21.33,17.64-13.55,0-23.6-9.13-23.62-21.88s10-21.93,23.56-21.94c8.69,0,19.21,5.23,20.34,16.31Zm24.38-1.55c0-7.81-3.76-13.3-12-13.29-7.25,0-11.15,6.47-12,13.32Z" transform="translate(0)"/><path class="cls-1" d="M207.54,31.76h0.16c1.82-6.78,5.72-12.36,16.24-12.37,8.76,0,17,4.52,17,17.19L241,52c-0.15,7.57.89,8.68,3.2,9.48a1.63,1.63,0,0,1,1,.56c0,0.24-.4.24-1.19,0.24S241.2,62,236.82,62s-7.17.25-8.21,0.25c-0.48,0-.88,0-0.88-0.24s0.16-.4.72-0.48c2.87-.32,4.3-2.48,4.29-9.57l0-15.46c0-7.33-3.29-15.13-11.73-15.12-9.48,0-12.58,9.74-12.56,20.89V52c0,5,.25,8.76,3.84,9.4,0.56,0.08.88,0.24,0.88,0.48s-0.24.4-.72,0.4S208.61,62,204.31,62s-8,.25-8.53.25-0.72-.08-0.72-0.4,0.32-.4.87-0.48c4-.64,4.3-4.39,4.29-9.41l0-19.76c0-4.78-.57-7.49-2.8-8.44A3.51,3.51,0,0,1,196,23c0-.24.56-0.24,1.51-0.4a69.65,69.65,0,0,0,10-2.32Z" transform="translate(0)"/><path class="cls-1" d="M283.9,55c0,2.63.4,5,2.88,6.13,0.48,0.24.8,0.24,0.8,0.48a1,1,0,0,1-1,.32h-8.61A23.8,23.8,0,0,1,276,53.82h-0.16c-3.1,6.46-7.72,9.33-14.73,9.34-8.29,0-16.82-3.8-16.83-13.28,0-12.11,18.47-13.33,26.83-13.34h4.54V33.9c0-7.65-3.6-13.06-11.65-13.05-7.33,0-11.63,2.17-14.49,9.18a4.1,4.1,0,0,1-.64,1.36,1.42,1.42,0,0,1-.4-0.88l-2.08-7.17c6.53-3.44,11.71-4,18.8-4,9.08,0,18.65,3.24,18.66,13.28Zm-8.23-17H271c-8.61,0-17.45,2.57-17.43,13.09a9.67,9.67,0,0,0,9.9,10c9.4,0,12.26-9.9,12.25-17.55V38Z" transform="translate(0)"/><path class="cls-1" d="M299.08,31.63h0.16c1.82-6.78,5.72-12.36,16.24-12.37,8.77,0,17,4.52,17,17.19l0,15.38c-0.15,7.57.89,8.68,3.2,9.48a1.63,1.63,0,0,1,1,.56c0,0.24-.4.24-1.19,0.24s-2.79-.24-7.17-0.23-7.17.25-8.21,0.25c-0.48,0-.88,0-0.88-0.24s0.16-.4.72-0.48c2.87-.32,4.3-2.48,4.29-9.57l0-15.46c0-7.33-3.29-15.13-11.73-15.12C303,21.27,300,31,300,42.15v9.72c0,5,.25,8.76,3.84,9.4,0.56,0.08.88,0.24,0.88,0.48s-0.24.4-.72,0.4-3.82-.23-8.13-0.23-8,.25-8.53.25-0.72-.08-0.72-0.4,0.32-.4.88-0.48c4-.64,4.3-4.39,4.29-9.41l0-19.76c0-4.78-.57-7.49-2.8-8.44a3.52,3.52,0,0,1-1.44-.8c0-.24.56-0.24,1.51-0.4a69.68,69.68,0,0,0,10-2.32Z" transform="translate(0)"/><path class="cls-1" d="M334.33,25a0.74,0.74,0,0,1-.8-0.72c0-.4.64-0.72,1.59-1.12,4.54-1.6,8.36-5.27,11.3-11.33a1.06,1.06,0,0,1,.87-0.8c0.4,0,.4.56,0.4,1.11V22.4h8.84L356,24.94h-8.29l0,22.63c0,10.6,2.57,12.51,5.12,13.38,0.64,0.24,1,.32,1,0.56s-0.56.32-1.27,0.32h-9.64c-2.23-1-3.35-2.78-3.35-5.81l0-31.08h-5.18Z" transform="translate(0)"/><path class="cls-2" d="M115.13,38.1c-0.3,6.08-1.29,10.68-4.62,15.42A20.46,20.46,0,0,1,88,61.42C79.29,59,69.4,47.41,75.11,34.3c1.49-3.42,5.75-9,12.68-10a18.29,18.29,0,0,0-14.83,7C64.57,41.57,67.68,58,80.11,64.16c10,4.93,25.19,2.56,32.32-10.16A26.8,26.8,0,0,0,115.13,38.1Z" transform="translate(0)"/><path class="cls-1" d="M66.17,45.8c0.3-6.09,1.29-10.68,4.62-15.42a20.46,20.46,0,0,1,22.47-7.91c8.76,2.45,18.64,14,12.93,27.12-1.49,3.42-5.75,9-12.68,10a18.29,18.29,0,0,0,14.83-7c8.38-10.23,5.28-26.69-7.15-32.82C91.2,14.82,76,17.18,68.88,29.9A26.8,26.8,0,0,0,66.17,45.8Z" transform="translate(0)"/><path class="cls-1" d="M103.39,90.84L112,71.63h6.1c0.47,0,.54.12,0.54,0.23a0.68,0.68,0,0,1-.54.31c-1.28.27-1.63,1.63-1.63,3.46l0,14.77c0,2.29.09,5.4,2.42,5.86a1.09,1.09,0,0,1,.62.31,0.68,0.68,0,0,1-.62.19c-0.19,0-1.24-.11-4.59-0.11-3,0-4,.12-4.43.12a0.45,0.45,0,0,1-.47-0.19,1.09,1.09,0,0,1,.62-0.27c2-.55,2.09-3.62,2.09-5.91l0-16.13H112l-9.69,21.16c-0.08.23-.62,1.56-1,1.56h-0.08c-0.43,0-.82-1.17-1-1.59L90.62,74.3H90.54l0,14.73c0,2.72.36,6.14,2.57,7a2.13,2.13,0,0,1,.82.58,1.12,1.12,0,0,1-.5,0H86.73a0.65,0.65,0,0,1-.54-0.12,1.15,1.15,0,0,1,.54-0.35c2.14-1.17,2.87-4.71,2.87-7.19l0-12.83c0-1.44-.36-3.73-1.83-4a0.36,0.36,0,0,1-.27-0.35,0.24,0.24,0,0,1,.27-0.16h6.41Z" transform="translate(0)"/><path class="cls-1" d="M124.26,83.82c-0.08.89-.11,1.71-0.11,2.53,0,7.23,3.74,9.91,7.51,9.9,4.47,0,7.77-3.08,9.08-7.63h0.82c-1.24,5.37-5.12,8.6-10.4,8.6-6.61,0-11.51-4.45-11.52-10.67s4.88-10.69,11.49-10.7c4.24,0,9.37,2.55,9.92,8Zm11.89-.75c0-3.81-1.84-6.49-5.88-6.48-3.54,0-5.44,3.16-5.86,6.5Z" transform="translate(0)"/><path class="cls-1" d="M164.68,86.49c0,2.14,0,4.27.16,6.37,0.12,1.52.66,3,2.06,3.38a0.32,0.32,0,0,1,.27.19c0,0.12-.19.16-0.66,0.16h-4.59a14.81,14.81,0,0,1-1.13-3.88h-0.08a8.48,8.48,0,0,1-7.88,4.48c-5.44,0-10-4.14-10-10.67,0-5.52,4.34-10.69,10-10.7,3.38,0,6.22,1.2,7.78,3.29h0.08v-6c0-1.4,0-2.68-1.52-3a0.66,0.66,0,0,1-.51-0.23,0.92,0.92,0,0,1,.7-0.23c1.83-.35,3.46-0.74,5.32-1.25Zm-10.56,9.73c2.53,0,6.76-2.5,6.75-9.73,0-8.16-4.25-9.71-6.78-9.71s-6.8,1.56-6.79,9.73S151.56,96.22,154.12,96.22Z" transform="translate(0)"/><path class="cls-1" d="M169.46,80.38c0-1.94-.74-2.18-1.36-2.52a2,2,0,0,1-.66-0.23,1.65,1.65,0,0,1,.7-0.16c1.83-.35,3.46-0.74,5.32-1.25l0,15.47c0,2.45.24,4.2,2,4.54a0.36,0.36,0,0,1,.39.35c0,0.12-.19.12-0.54,0.12s-1.79-.11-3.89-0.11-3.5.12-3.89,0.12-0.54,0-.54-0.12a0.36,0.36,0,0,1,.39-0.35c1.79-.35,2.06-2.1,2.05-4.55Zm-0.63-9a2.31,2.31,0,1,1,4.63,0A2.31,2.31,0,0,1,168.82,71.4Z" transform="translate(0)"/><path class="cls-1" d="M196,81.12a2.1,2.1,0,0,1-.47,1.05,0.63,0.63,0,0,1-.23-0.47,7.1,7.1,0,0,0-7.12-5.2c-5.09,0-6.91,5.22-6.94,10,0,7,3.94,9.71,7.51,9.71A9.14,9.14,0,0,0,196.6,91l0.62,0.62c-2.09,3.58-4.73,5.49-8.93,5.49-6.61,0-11.51-4.45-11.52-10.67s4.88-10.69,11.49-10.7c2.22,0,6.76.92,8.67,2.32Z" transform="translate(0)"/><path class="cls-1" d="M217.82,93.14c0,1.28.2,2.45,1.4,3a0.54,0.54,0,0,1,.39.23,0.48,0.48,0,0,1-.5.16h-4.2a11.6,11.6,0,0,1-.94-4H213.9a7.25,7.25,0,0,1-7.18,4.56c-4,0-8.2-1.85-8.21-6.48,0-5.91,9-6.5,13.09-6.51h2.21V82.84c0-3.73-1.76-6.37-5.68-6.37-3.57,0-5.67,1.06-7.07,4.48a2,2,0,0,1-.31.66,0.69,0.69,0,0,1-.19-0.43l-1-3.5a17.64,17.64,0,0,1,9.17-2c4.43,0,9.1,1.58,9.1,6.48V93.14Zm-4-8.27h-2.29c-4.2,0-8.51,1.26-8.5,6.39a4.72,4.72,0,0,0,4.83,4.89c4.59,0,6-4.83,6-8.56V84.86Z" transform="translate(0)"/><path class="cls-1" d="M227,91.61c0,2.45.12,3.92,2.22,4.66a0.33,0.33,0,0,1,.23.23,0.37,0.37,0,0,1-.35.12c-0.19,0-1.21-.11-4.12-0.11-2.1,0-3.77.12-4,.12s-0.39,0-.39-0.12a0.33,0.33,0,0,1,.23-0.23c2.14-.9,2.21-2.22,2.21-4.67L223,73c0-1.9-.35-2.68-1.33-2.87a0.71,0.71,0,0,1-.58-0.31c0-.19.31-0.23,0.58-0.27,1.83-.35,3.46-0.74,5.32-1.25Z" transform="translate(0)"/><path class="cls-1" d="M268.16,93.77c-2.72,2.41-7.26,3.47-11.65,3.48-7.23,0-14.7-4.26-14.71-13.19,0-8,7.06-13.22,14.67-13.23,5.13,0,9.1,1.15,12.21,3.25l-1.36,3.38a3.78,3.78,0,0,1-.46,1,1.79,1.79,0,0,1-.27-0.7c-0.82-4-5.06-5.94-9.1-5.93-7.31,0-10.49,6.47-10.48,12.88,0,6.22,4,11.62,9.5,11.61,5.32,0,7.15-1.91,7.14-6V87.44c0-2.41-1.29-2.76-3.35-3.22a1.67,1.67,0,0,1-1-.39c0-.12.19-0.16,0.54-0.16s3.73,0.15,5.4.15,4.2-.16,4.74-0.16,0.78,0.12.78,0.27a1.4,1.4,0,0,1-.7.31c-1.86.55-1.86,1.32-1.86,3.11v6.41Z" transform="translate(0)"/><path class="cls-1" d="M277.67,81.09h0.08c1.51-3.23,4.23-5.6,7.88-5.45l-1.63,4a4,4,0,0,0-2.41-.62c-2.22,0-3.69,2.84-3.69,5.37v7.15c0,2.45.2,4.27,2.22,4.66a0.45,0.45,0,0,1,.39.23c0,0.12-.12.12-0.31,0.12s-2.18-.11-4.31-0.11-3.93.12-4.16,0.12a0.33,0.33,0,0,1-.35-0.12,0.47,0.47,0,0,1,.43-0.19c1.83-.66,2.1-1.44,2.09-4.71V82.26c0-2.68-.16-4.08-1.52-4.39a0.85,0.85,0,0,1-.58-0.31,1.77,1.77,0,0,1,.82-0.2,30,30,0,0,0,5.05-1.29v5Z" transform="translate(0)"/><path class="cls-1" d="M297.25,75.62c6.65,0,11.55,4.45,11.56,10.67S303.92,97,297.28,97s-11.51-4.45-11.52-10.67S290.64,75.63,297.25,75.62Zm0,20.64c5.83,0,7-5.37,7-10s-1.22-9.95-7-9.94-7,5.37-7,10S291.49,96.26,297.28,96.25Z" transform="translate(0)"/><path class="cls-1" d="M331.24,91.43c0,3.23.47,4.24,2.14,4.66a0.29,0.29,0,0,1,.23.12,0.48,0.48,0,0,1-.51.16h-4.62a11.5,11.5,0,0,1-1-4.47h-0.08c-1.28,3.46-3.57,5.06-7.57,5.06-5.56,0-8.28-2.13-8.29-8.38V80.73c0-2.25-.16-2.72-1.25-3.11a0.78,0.78,0,0,1-.58-0.31,0.66,0.66,0,0,1,.58-0.16A39.84,39.84,0,0,0,315.52,76l0,12.59c0,3.58,1.6,7.38,5.72,7.38s6-3.86,6-7.47V80.71c0-2.37-.43-2.88-1.13-3.22a2.8,2.8,0,0,1-.51-0.27,1,1,0,0,1,.62-0.23c1.51-.24,3.07-0.51,5-1Z" transform="translate(0)"/><path class="cls-1" d="M335.35,80.7c0.08-1.67-.28-2.56-1.29-2.87a1,1,0,0,1-.62-0.27c0-.23.31-0.27,0.58-0.31A19.2,19.2,0,0,0,338.92,76V81H339c1.55-4,4.27-5.49,8.15-5.49a10.35,10.35,0,0,1,10.08,10.67c0,5.52-4.69,10.69-10.05,10.7-4.2,0-5.83-1.59-7.82-3.53v4.08c0,2.49.2,5.6,1.64,6a1.58,1.58,0,0,1,.89.39V104a1.42,1.42,0,0,1-.7.08c-0.47,0-1.83-.08-3.81-0.07-0.82,0-1.48.08-3.11,0.08-0.82,0-1,0-1-.12v0c0-.16.12-0.16,0.43-0.23,1.44-.35,1.67-1.17,1.66-4.67ZM346,96c2.53,0,6.76-1.56,6.75-9.73s-4.25-9.71-6.78-9.71-6.8,1.56-6.79,9.73S343.41,96,346,96Z" transform="translate(0)"/><path class="cls-1" d="M358.85,57.12a2.41,2.41,0,0,1-1.69,4.11,2.3,2.3,0,0,1-1.7-.7,2.34,2.34,0,0,1-.7-1.71A2.39,2.39,0,0,1,358.85,57.12Zm0.28-.27a2.79,2.79,0,1,0,.82,2A2.7,2.7,0,0,0,359.13,56.85Zm-1.56,1.84a1.45,1.45,0,0,1-.51.07h-0.49V57.65H357a1.39,1.39,0,0,1,.65.11A0.55,0.55,0,0,1,357.57,58.69ZM356,60.34h0.54V59.13H357a1.3,1.3,0,0,1,.6.1,0.75,0.75,0,0,1,.29.7v0.41h0.51l0,0a0.46,0.46,0,0,1,0-.16c0-.08,0-0.16,0-0.23V59.69a0.85,0.85,0,0,0-.17-0.47,0.75,0.75,0,0,0-.53-0.3,1.16,1.16,0,0,0,.44-0.15,0.67,0.67,0,0,0,.3-0.6,0.76,0.76,0,0,0-.48-0.77,2.34,2.34,0,0,0-.84-0.11H356v3.06Z" transform="translate(0)"/></svg>