<svg id="Layer_1" data-name="Layer 1" xmlns="http://www.w3.org/2000/svg" viewBox="0 0 359.47 135.44"><defs><style>.cls-1{fill:#a90533;}.cls-2{fill:#3e3935;}.cls-3{fill:none;stroke:#3e3935;stroke-width:1px;}.cls-4{fill:#e1dedd;}.cls-5{fill:#68737a;}</style></defs><title>parkwest-medical-center</title><path class="cls-1" d="M89.34,40.78c0,3.24.59,5.16,3.7,6.41a9.05,9.05,0,0,1,1.72.59c0,0.2-.2.33-0.53,0.33-0.53,0-5-.2-8.72-0.2-6.34,0-7.53.2-7.93,0.2a0.41,0.41,0,0,1-.46-0.27,3.53,3.53,0,0,1,1-.46c3-1.45,3.57-3.37,3.57-8.79V13c0-2.91-.07-5.35-2.58-6.61-0.6-.26-0.86-0.26-0.86-0.46s0.33-.33.66-0.33h21.68c6.87,0,19.69,2.12,19.69,11.1S105.86,28.15,97.2,28.15a78.5,78.5,0,0,1-7.86-.33v13Zm0-14.87A23,23,0,0,0,96,26.5c9.91,0,15.4-4,15.4-10.18,0-6.94-7.47-9.05-13.61-9.05H89.34V25.91Z" transform="translate(-0.17)"/><path class="cls-1" d="M153.45,42.16c0,2.18.33,4.17,2.38,5.09a0.91,0.91,0,0,1,.66.4,0.82,0.82,0,0,1-.86.26h-7.14a19.73,19.73,0,0,1-1.58-6.74h-0.13c-2.58,5.35-6.41,7.73-12.23,7.73-6.87,0-13.94-3.17-13.94-11,0-10,15.33-11,22.27-11h3.77V24.65c0-6.35-3-10.84-9.65-10.84-6.08,0-9.65,1.78-12,7.6a3.38,3.38,0,0,1-.53,1.12,1.19,1.19,0,0,1-.33-0.73l-1.72-6c5.42-2.84,9.72-3.3,15.6-3.3,7.53,0,15.47,2.71,15.47,11V42.16Zm-6.81-14.08h-3.9c-7.14,0-14.47,2.12-14.47,10.84a8,8,0,0,0,8.2,8.33c7.8,0,10.18-8.19,10.18-14.54V28.09Z" transform="translate(-0.17)"/><path class="cls-1" d="M166.43,21.81h0.13c2.58-5.49,7.2-9.52,13.42-9.25l-2.78,6.81a6.81,6.81,0,0,0-4.1-1.06c-3.77,0-6.28,4.82-6.28,9.12V39.59c0,4.16.33,7.27,3.77,7.93a0.77,0.77,0,0,1,.66.4c0,0.2-.2.2-0.53,0.2s-3.7-.2-7.34-0.2-6.67.2-7.07,0.2a0.56,0.56,0,0,1-.6-0.2,0.79,0.79,0,0,1,.73-0.33c3.1-1.12,3.57-2.45,3.57-8V23.79c0-4.56-.27-6.94-2.58-7.47a1.46,1.46,0,0,1-1-.53c0.07-.27.92-0.2,1.39-0.33a50.83,50.83,0,0,0,8.59-2.18v8.53Z" transform="translate(-0.17)"/><path class="cls-1" d="M199.67,37.47c-1.39-2.31-4.3-8.13-7.86-8.13-2.31,0-2.31,2.64-2.31,5.49v4.76c0,4.16.33,6.68,3.57,7.8a0.61,0.61,0,0,1,.6.4,0.65,0.65,0,0,1-.73.33c-0.33,0-3.24-.2-6.87-0.2s-6.21.2-6.61,0.2a0.6,0.6,0,0,1-.66-0.33,0.58,0.58,0,0,1,.46-0.4c3.17-1,3.44-4.89,3.44-10.44V10.7c0-3.9-.26-6.94-2.45-7.27-0.73-.13-1.12-0.33-1.12-0.6a2.2,2.2,0,0,1,1.26-.53c3.17-.79,5.95-1.45,9.12-2.31V28.55l11.1-9.25C202.12,18,203,17,203,15.86a2.56,2.56,0,0,0-1.12-1.78,0.93,0.93,0,0,1-.66-0.53c0-.26.4-0.26,0.93-0.26s2.91,0.26,6.34.26c3.24,0,4-.26,6.15-0.26,0.59,0,.92,0,0.92.4s-1.12.4-2.18,0.66A30.82,30.82,0,0,0,202.71,20l-9.78,7.4v0.13c9,0.2,11,3.63,15.53,10.91,2.25,3.57,5,7.27,8.59,8.92a0.9,0.9,0,0,1,.66.46,0.65,0.65,0,0,1-.73.33c-0.33,0-3.3-.2-6.61-0.2-1.52,0-3,.2-4.36.2Z" transform="translate(-0.17)"/><path class="cls-1" d="M226.94,47.78a1.72,1.72,0,0,1-1,1.12h-0.13c-0.4,0-1-.79-1.65-2.18L210.95,19.17c-0.73-1.78-2.31-4.36-4.1-5.22-0.2-.13-0.33-0.13-0.33-0.33s0.4-.33.93-0.33c2.11,0,2.84.26,6.28,0.26,3.24,0,4-.26,6.08-0.26,0.59,0,.92,0,0.92.26s-0.59.46-1.19,0.66A2.46,2.46,0,0,0,218,16.46a10.29,10.29,0,0,0,1.45,4.63l9,18,10.18-24.39c0.66-1.52,1-2.11,1.52-2.11h0.13c0.46,0,1.32,1.39,1.65,2.11l11.23,24.39,7.34-16.39a14.6,14.6,0,0,0,1.12-3.9,4.58,4.58,0,0,0-3.3-4.76,0.29,0.29,0,0,1-.26-0.33c0-.4.33-0.4,0.73-0.4,1.65,0,2.25.26,5,.26,2.51,0,3.11-.26,4.76-0.26,0.46,0,.73,0,0.73.26a0.61,0.61,0,0,1-.2.59c-2.91,2.38-4.89,5.95-6.54,9.45L251.2,47.52a2.73,2.73,0,0,1-1.06,1.39H250c-0.4,0-.59-0.53-1-1.39L237.58,21.88Z" transform="translate(-0.17)"/><path class="cls-1" d="M272.72,26.11c-0.13,1.52-.2,2.91-0.2,4.29,0,12.29,6.34,16.85,12.75,16.85,7.6,0,13.22-5.22,15.46-13h1.39C300,43.42,293.41,48.9,284.42,48.9c-11.24,0-19.56-7.6-19.56-18.17s8.33-18.17,19.56-18.17c7.2,0,15.93,4.36,16.85,13.55H272.72Zm20.22-1.26c0-6.48-3.11-11-10-11-6,0-9.25,5.35-10,11h20Z" transform="translate(-0.17)"/><path class="cls-1" d="M332.19,20a1,1,0,0,1-.6.79,0.51,0.51,0,0,1-.46-0.53c-0.66-3.7-5.29-6.48-10.71-6.48-5.09,0-9.65,2.25-9.65,7.93,0,4.62,5.75,5.68,11.83,6.08,9.25,0.59,13.48,3,13.48,9.38,0,9.45-11,11.7-18.44,11.7A44.75,44.75,0,0,1,302,46.26l1.39-5.49c0.2-.79.4-1.26,0.6-1.26s0.33,0.27.4,0.6c1.06,5.22,9.05,7.53,13.61,7.53,5.09,0,11.43-1.85,11.43-7.93,0-5-4-5.68-11.7-6.35-5.88-.53-13.61-2.38-13.61-9.71,0-9.12,10.18-11.1,17.38-11.1a35.76,35.76,0,0,1,12.29,2.51Z" transform="translate(-0.17)"/><path class="cls-1" d="M337.85,17.32a0.61,0.61,0,0,1-.66-0.6c0-.33.53-0.59,1.32-0.92,3.77-1.32,6.94-4.36,9.38-9.39a0.88,0.88,0,0,1,.73-0.66c0.33,0,.33.46,0.33,0.93V15.2h7.33l-0.46,2.12H349V36.08c0,8.79,2.11,10.38,4.23,11.1a1,1,0,0,1,.79.46,1.1,1.1,0,0,1-1.06.26h-8c-1.85-.86-2.78-2.31-2.78-4.82V17.32h-4.3Z" transform="translate(-0.17)"/><path class="cls-2" d="M87,66.62l5.36-12.57h2.33a2.1,2.1,0,0,0-.24,1,6.58,6.58,0,0,0,.07.69l1.37,12.55a3.19,3.19,0,0,0,.47,1.33H94.05a2.08,2.08,0,0,0,.18-0.8l0-.24L92.85,56,86.85,70,80.73,56.4l-0.8,12.08,0,0.33a1.16,1.16,0,0,0,.27.75H78.31a2.27,2.27,0,0,0,.29-1.09l1-13.19a3.28,3.28,0,0,0,0-.47,1.89,1.89,0,0,0-.18-0.78h1.84Z" transform="translate(-0.17)"/><path class="cls-2" d="M109.81,54.05v1.46a4.87,4.87,0,0,0-2.64-.38l-3.17,0v5.3h5.81V61.9a5.08,5.08,0,0,0-2.64-.36l-3.17,0V68.3h5.16a5.17,5.17,0,0,0,2.24-.42l-0.49,1.68H102a1.2,1.2,0,0,0,.33-1V54.85a1.18,1.18,0,0,0-.33-0.8h7.8Z" transform="translate(-0.17)"/><path class="cls-2" d="M116.79,54.05l3.64,0c0.89,0,1.77,0,2.66.07,4.59,0.29,7.4,3.06,7.4,7.76,0,6.23-5,7.76-10.24,7.76-1.17,0-2.33,0-3.48,0a1.35,1.35,0,0,0,.35-1.11V55A2,2,0,0,0,116.79,54.05Zm2,1.22V68.44h1.69c4.43,0,8.31-1.31,8.31-6.56,0-4.34-2.86-6.78-7.07-6.78C120.72,55.09,119.74,55.18,118.77,55.27Z" transform="translate(-0.17)"/><path class="cls-2" d="M138.67,54.05a1.12,1.12,0,0,0-.33.89v13.9a0.92,0.92,0,0,0,.33.73h-2.33a1.35,1.35,0,0,0,.35-1V54.89a1.25,1.25,0,0,0-.35-0.84h2.33Z" transform="translate(-0.17)"/><path class="cls-2" d="M152.79,55c-4,0-6.78,2.62-6.78,6.69,0,4.5,3.17,6.85,7.43,6.85a8.51,8.51,0,0,0,4.21-1.2l-0.78,2a8.92,8.92,0,0,1-3.17.42c-5,0-9.42-2.5-9.42-8.07,0-4.86,4.1-7.71,8.64-7.71a14.33,14.33,0,0,1,3.77.53v1.62A6.71,6.71,0,0,0,152.79,55Z" transform="translate(-0.17)"/><path class="cls-2" d="M175.06,69.57a3.69,3.69,0,0,0,0-.49c0-.75-1.77-4.41-2.19-5.39h-6.36c-0.4.93-2.33,4.92-2.33,5.56a0.53,0.53,0,0,0,.11.31h-2.06a2.26,2.26,0,0,0,1-1.22l5.47-12.66a2.55,2.55,0,0,0,.18-1,3.44,3.44,0,0,0-.09-0.64h1.84l6,13.83a5.16,5.16,0,0,0,1.06,1.68h-2.62Zm-5.41-13.34L167,62.59h5.39Z" transform="translate(-0.17)"/><path class="cls-2" d="M183.15,54.05h2.33a1.16,1.16,0,0,0-.33,1V68.3H191a2.23,2.23,0,0,0,1.64-.58l-0.51,1.84h-9a1.25,1.25,0,0,0,.33-0.91V54.78A1.17,1.17,0,0,0,183.15,54.05Z" transform="translate(-0.17)"/><path class="cls-2" d="M214.76,55c-4,0-6.78,2.62-6.78,6.69,0,4.5,3.17,6.85,7.43,6.85a8.5,8.5,0,0,0,4.21-1.2l-0.78,2a8.92,8.92,0,0,1-3.17.42c-5,0-9.42-2.5-9.42-8.07,0-4.86,4.1-7.71,8.64-7.71a14.33,14.33,0,0,1,3.77.53v1.62A6.71,6.71,0,0,0,214.76,55Z" transform="translate(-0.17)"/><path class="cls-2" d="M233.2,54.05v1.46a4.87,4.87,0,0,0-2.64-.38l-3.17,0v5.3h5.81V61.9a5.08,5.08,0,0,0-2.64-.36l-3.17,0V68.3h5.16a5.17,5.17,0,0,0,2.24-.42l-0.49,1.68H225.4a1.21,1.21,0,0,0,.33-1V54.85a1.18,1.18,0,0,0-.33-0.8h7.8Z" transform="translate(-0.17)"/><path class="cls-2" d="M241.71,68.7v0.13a0.92,0.92,0,0,0,.33.73h-1.91a1.45,1.45,0,0,0,.36-1.15V55.67a2.36,2.36,0,0,0-.51-1.62h2L253,66.18c0-2.55.07-5.1,0.07-7.65,0-.93.16-3.86-0.4-4.48h1.91a1.41,1.41,0,0,0-.33,1.17V70.08L241.71,56.2V68.7Z" transform="translate(-0.17)"/><path class="cls-2" d="M264.66,69.57a1.12,1.12,0,0,0,.33-0.89V55.16h-3.72a2.69,2.69,0,0,0-1.37.33l0.29-1.44h11.3l0.29,1.44a4.91,4.91,0,0,0-2.46-.35l-2.66,0V68.84a0.92,0.92,0,0,0,.33.73h-2.33Z" transform="translate(-0.17)"/><path class="cls-2" d="M285.14,54.05v1.46a4.87,4.87,0,0,0-2.64-.38l-3.17,0v5.3h5.81V61.9a5.08,5.08,0,0,0-2.64-.36l-3.17,0V68.3h5.16a5.17,5.17,0,0,0,2.24-.42l-0.49,1.68h-8.91a1.2,1.2,0,0,0,.33-1V54.85a1.18,1.18,0,0,0-.33-0.8h7.8Z" transform="translate(-0.17)"/><path class="cls-2" d="M292.23,69.57a1.23,1.23,0,0,0,.33-1V54.85a1.18,1.18,0,0,0-.33-0.8h2.42c2.81,0,5.87,0,5.87,3.72a3.75,3.75,0,0,1-4.26,3.59,4.14,4.14,0,0,1,.91.84l5,6.16a5.2,5.2,0,0,0,1.22,1.2H301l-6.76-8.64c0,1.77,0,3.55,0,5.32,0,0.71-.16,2.9.38,3.33h-2.33Zm2-14.39v5.39a12.06,12.06,0,0,0,1.26.07c1.93,0,3.39-.64,3.39-2.82,0-2-1.37-2.73-3.19-2.73C295.2,55.09,294.71,55.14,294.22,55.18Z" transform="translate(-0.17)"/><path class="cls-2" d="M186.67,114.9c-4.74,3.83-11,5.13-17,5.13-11.05,0-21.32-6.2-21.32-19.17,0-11.62,10.26-19.17,21.32-19.17,5.19,0,11.56,1.35,16.18,4.29l-1.75,5.3a6.62,6.62,0,0,1-.79,1.92,3.3,3.3,0,0,1-.62-1.47c-1.18-4.91-4.68-8.84-13-9-10.26,0-14.9,9.74-14.9,18.14S159.82,119,171.89,119c5.53,0,9.7-3.37,12.18-9.06,0.28-.68.34-1.18,0.62-1.18s0.28,0.17.51,1Z" transform="translate(-0.17)"/><path class="cls-2" d="M228.08,113.17l6-11.61a13.45,13.45,0,0,0,1.59-4.89c0-1.58-1-2.14-2.15-2.52a0.43,0.43,0,0,1-.42-0.28c0-.14.19-0.19,0.47-0.19,1.21,0,1.63.19,3.54,0.19s2.24-.19,3.45-0.19c0.32,0,.61,0,0.61.14a0.76,0.76,0,0,1-.42.56c-1.54,1.07-3.17,3.54-4.75,6.39l-9.09,17.39a1.34,1.34,0,0,1-.56.65h-0.09a1.41,1.41,0,0,1-.47-0.7l-8.16-15.9c-1.77-3.54-3.26-6.57-5.22-7.88a1,1,0,0,1-.56-0.46c0-.19.28-0.19,0.61-0.19,0.75,0,1.91.19,4.15,0.19s3.82-.19,4.19-0.19a0.67,0.67,0,0,1,.61.19,0.58,0.58,0,0,1-.42.37,1.67,1.67,0,0,0-1.3,1.77,9.37,9.37,0,0,0,1.16,3.17Z" transform="translate(-0.17)"/><path class="cls-2" d="M243,102.73c-0.09,1.07-.14,2.05-0.14,3,0,8.67,4.48,11.89,9,11.89,5.36,0,9.32-3.68,10.91-9.14h1c-1.49,6.43-6.15,10.3-12.49,10.3-7.92,0-13.8-5.36-13.8-12.82s5.87-12.82,13.8-12.82c5.08,0,11.24,3.08,11.89,9.56H243Zm14.26-.89c0-4.57-2.19-7.79-7-7.79-4.24,0-6.53,3.78-7,7.79H257.3Z" transform="translate(-0.17)"/><path class="cls-2" d="M269.73,100.4h0.09c1.07-4,3.36-7.23,9.51-7.23,5.13,0,9.93,2.66,9.93,10.07v9c-0.09,4.43.51,5.08,1.86,5.55a1,1,0,0,1,.61.33c0,0.14-.23.14-0.7,0.14s-1.63-.14-4.2-0.14-4.2.14-4.8,0.14c-0.28,0-.51,0-0.51-0.14s0.09-.23.42-0.28c1.68-.19,2.52-1.45,2.52-5.6v-9c0-4.29-1.91-8.86-6.85-8.86-5.55,0-7.36,5.69-7.36,12.22v5.69c0,2.94.14,5.13,2.24,5.5,0.33,0,.51.14,0.51,0.28s-0.14.23-.42,0.23-2.24-.14-4.75-0.14-4.66.14-5,.14-0.42,0-.42-0.23,0.19-.23.51-0.28c2.33-.37,2.52-2.56,2.52-5.5V100.68c0-2.8-.33-4.38-1.63-4.94a2.09,2.09,0,0,1-.84-0.46,1.26,1.26,0,0,1,.89-0.23,40.79,40.79,0,0,0,5.87-1.35v6.71Z" transform="translate(-0.17)"/><path class="cls-2" d="M314.39,114.06c0,1.54.23,2.94,1.68,3.59a0.64,0.64,0,0,1,.47.28,0.57,0.57,0,0,1-.61.19h-5a13.88,13.88,0,0,1-1.12-4.75h-0.09c-1.82,3.77-4.52,5.45-8.62,5.45-4.85,0-9.84-2.24-9.84-7.79,0-7.08,10.81-7.79,15.71-7.79h2.66V101.7c0-4.48-2.1-7.65-6.81-7.65-4.29,0-6.81,1.26-8.48,5.36a2.42,2.42,0,0,1-.37.79,0.84,0.84,0,0,1-.23-0.51l-1.21-4.2c3.82-2,6.85-2.33,11-2.33,5.32,0,10.91,1.91,10.91,7.79v13.1Zm-4.8-9.93h-2.75c-5,0-10.21,1.49-10.21,7.64a5.66,5.66,0,0,0,5.78,5.87c5.5,0,7.18-5.78,7.18-10.26v-3.26Z" transform="translate(-0.17)"/><path class="cls-2" d="M323.29,100.4h0.09c1.07-4,3.36-7.23,9.51-7.23,5.13,0,9.93,2.66,9.93,10.07v9c-0.09,4.43.51,5.08,1.86,5.55a1,1,0,0,1,.61.33c0,0.14-.23.14-0.7,0.14s-1.63-.14-4.2-0.14-4.2.14-4.8,0.14c-0.28,0-.51,0-0.51-0.14s0.09-.23.42-0.28c1.68-.19,2.52-1.45,2.52-5.6v-9c0-4.29-1.91-8.86-6.85-8.86-5.55,0-7.36,5.69-7.36,12.22v5.69c0,2.94.14,5.13,2.24,5.5,0.33,0,.51.14,0.51,0.28s-0.14.23-.42,0.23-2.24-.14-4.75-0.14-4.66.14-5,.14-0.42,0-.42-0.23,0.19-.23.51-0.28c2.33-.37,2.52-2.56,2.52-5.5V100.68c0-2.8-.33-4.38-1.63-4.94a2.09,2.09,0,0,1-.84-0.46,1.26,1.26,0,0,1,.88-0.23,40.78,40.78,0,0,0,5.87-1.35v6.71Z" transform="translate(-0.17)"/><path class="cls-2" d="M343.92,96.53a0.43,0.43,0,0,1-.46-0.42,1.3,1.3,0,0,1,.93-0.65c2.66-.93,4.89-3.08,6.62-6.62a0.62,0.62,0,0,1,.51-0.46c0.23,0,.23.33,0.23,0.65v6h5.17l-0.33,1.49h-4.85v13.24c0,6.2,1.49,7.32,3,7.83a0.68,0.68,0,0,1,.56.33,0.77,0.77,0,0,1-.75.19h-5.64a3.31,3.31,0,0,1-2-3.4V96.53h-3Z" transform="translate(-0.17)"/><path class="cls-2" d="M271,127.34v-4.57c0-.93-0.25-1.67-1-1.85a0.54,0.54,0,0,1-.23-0.14c0-.07.13-0.09,0.34-0.09,0.36,0,1.45.09,2.17,0.09s1.81-.09,2.17-0.09c0.2,0,.34,0,0.34.09a0.56,0.56,0,0,1-.23.14c-0.73.18-1,.93-1,1.85v10a2.08,2.08,0,0,0,1.22,2.26,0.27,0.27,0,0,1,.2.18c0,0.07-.14.07-0.36,0.07-0.82,0-1.09-.07-2.37-0.07s-1.56.07-2.38,0.07c-0.23,0-.36,0-0.36-0.07a0.27,0.27,0,0,1,.2-0.18,2.08,2.08,0,0,0,1.22-2.26V127.9h-8.62v4.91a2.08,2.08,0,0,0,1.22,2.26,0.27,0.27,0,0,1,.2.18c0,0.07-.14.07-0.36,0.07-0.81,0-1.09-.07-2.38-0.07s-1.56.07-2.38,0.07c-0.23,0-.36,0-0.36-0.07a0.27,0.27,0,0,1,.2-0.18,2.08,2.08,0,0,0,1.22-2.26v-10c0-.93-0.25-1.67-1-1.85a0.54,0.54,0,0,1-.23-0.14c0-.07.13-0.09,0.34-0.09,0.36,0,1.45.09,2.17,0.09s1.81-.09,2.17-0.09c0.2,0,.34,0,0.34.09a0.55,0.55,0,0,1-.23.14c-0.72.18-1,.93-1,1.85v4.57H271Z" transform="translate(-0.17)"/><path class="cls-2" d="M280.4,127.34h4.19c1.65,0,3.1-.77,3.42-1.7a0.24,0.24,0,0,1,.18-0.2c0.07,0,.09.11,0.09,0.34v3.73c0,0.39,0,.48-0.09.48a0.45,0.45,0,0,1-.18-0.32c-0.65-1.68-2.51-1.77-4.09-1.77H280.4v4.78c0,1.65.57,2,2.11,2h2.56a9.62,9.62,0,0,0,5.91-2.47,3.16,3.16,0,0,1,.61-0.47,0.06,0.06,0,0,1,.07.07,0.87,0.87,0,0,1,0,.18l-1,3.26H276.83a0.83,0.83,0,0,1-.68-0.09c0-.07.48-0.2,0.63-0.34,0.84-.66,1-1.29,1-3.35v-7.69c0-1.47-.09-2.44-1-2.67a0.82,0.82,0,0,1-.38-0.2c0-.09.09-0.14,0.43-0.14h12.79l0.61,2.13a3.25,3.25,0,0,1,.2.84,0.16,0.16,0,0,1-.11.18,0.38,0.38,0,0,1-.27-0.2c-1-1.56-3.35-2.38-5.48-2.38H280.4v6Z" transform="translate(-0.17)"/><path class="cls-2" d="M297.45,128.65L296.23,131a5.74,5.74,0,0,0-.79,2.58,1.43,1.43,0,0,0,1.22,1.45c0.18,0,.25.09,0.25,0.16s-0.11.12-.27,0.12-1-.07-2.22-0.07c-0.91,0-1.49.07-1.77,0.07s-0.29,0-.29-0.12a0.8,0.8,0,0,1,.43-0.36,13.94,13.94,0,0,0,2.63-3.57L301,120.51a0.31,0.31,0,0,1,.16-0.18h0a0.28,0.28,0,0,1,.18.18L308,133a5.77,5.77,0,0,0,1.51,1.88,1.39,1.39,0,0,1,.52.38c0,0.07-.11.12-0.32,0.12s-1.22-.07-2.53-0.07c-1.86,0-2.6.07-2.74,0.07a0.23,0.23,0,0,1-.23-0.07c0-.09.11-0.13,0.29-0.18a1,1,0,0,0,.63-1.18,9.29,9.29,0,0,0-1-2.58l-1.29-2.67h-5.39Zm2.67-5.27-2.38,4.71h4.8Z" transform="translate(-0.17)"/><path class="cls-2" d="M314.93,132.25c0,2.26.86,2.44,2.78,2.44h1.2a8.71,8.71,0,0,0,6-2.63,1.72,1.72,0,0,1,.48-0.54,0.14,0.14,0,0,1,.14.16,2.46,2.46,0,0,1-.09.32l-0.93,3.26H311.15c-0.38,0-.5,0-0.5-0.11a1.64,1.64,0,0,1,.54-0.2c0.88-.39,1.11-1.22,1.11-3.24v-8.94a1.74,1.74,0,0,0-1-1.81,0.28,0.28,0,0,1-.23-0.18c0-.07.14-0.09,0.34-0.09,0.36,0,1.45.09,2.17,0.09s1.81-.09,2.17-0.09c0.2,0,.27,0,0.27.11a0.29,0.29,0,0,1-.2.13,1.73,1.73,0,0,0-.93,1.83v9.48Z" transform="translate(-0.17)"/><path class="cls-2" d="M328.85,122.39c0-.88-0.38-1-1.4-1a6.83,6.83,0,0,0-4.77,2.24,2.53,2.53,0,0,1-.41.39,0.13,0.13,0,0,1-.11-0.13,3.7,3.7,0,0,1,.16-0.52l0.72-2.53h14.26l0.72,2.53a3.7,3.7,0,0,1,.16.52,0.13,0.13,0,0,1-.11.13,2.49,2.49,0,0,1-.41-0.39,6.83,6.83,0,0,0-4.77-2.24c-1,0-1.4.16-1.4,1v10.43c0,1.11.29,2,1.36,2.2a0.36,0.36,0,0,1,.34.18,0.2,0.2,0,0,1-.18.14c-0.16,0-1.54-.07-2.83-0.07s-2.63.07-2.78,0.07-0.2,0-.2-0.12a0.78,0.78,0,0,1,.43-0.18c1-.45,1.24-1.11,1.24-3.21v-9.44Z" transform="translate(-0.17)"/><path class="cls-2" d="M351.82,127.34v-4.57c0-.93-0.25-1.67-1-1.85a0.56,0.56,0,0,1-.23-0.14c0-.07.14-0.09,0.34-0.09,0.36,0,1.45.09,2.17,0.09s1.81-.09,2.17-0.09c0.2,0,.34,0,0.34.09a0.55,0.55,0,0,1-.23.14c-0.72.18-1,.93-1,1.85v10a2.08,2.08,0,0,0,1.22,2.26,0.27,0.27,0,0,1,.2.18c0,0.07-.13.07-0.36,0.07-0.81,0-1.08-.07-2.38-0.07s-1.56.07-2.38,0.07c-0.23,0-.36,0-0.36-0.07a0.27,0.27,0,0,1,.2-0.18,2.08,2.08,0,0,0,1.22-2.26V127.9H343.2v4.91a2.08,2.08,0,0,0,1.22,2.26,0.27,0.27,0,0,1,.2.18c0,0.07-.14.07-0.36,0.07-0.81,0-1.09-.07-2.37-0.07s-1.56.07-2.38,0.07c-0.23,0-.36,0-0.36-0.07a0.27,0.27,0,0,1,.2-0.18,2.08,2.08,0,0,0,1.22-2.26v-10c0-.93-0.25-1.67-1-1.85a0.55,0.55,0,0,1-.23-0.14c0-.07.14-0.09,0.34-0.09,0.36,0,1.45.09,2.17,0.09s1.81-.09,2.17-0.09c0.2,0,.34,0,0.34.09a0.55,0.55,0,0,1-.23.14c-0.72.18-1,.93-1,1.85v4.57h8.62Z" transform="translate(-0.17)"/><path class="cls-2" d="M215.67,104c-0.18,3.56-.76,6.25-2.72,9a12,12,0,0,1-13.15,4.61c-5.12-1.44-10.9-8.21-7.55-15.87A10,10,0,0,1,199.68,96,10.69,10.69,0,0,0,191,100a12.7,12.7,0,0,0,4.16,19.21,14.56,14.56,0,0,0,18.91-5.92A15.69,15.69,0,0,0,215.67,104Z" transform="translate(-0.17)"/><path class="cls-2" d="M187,108.5c0.18-3.56.76-6.25,2.72-9a12,12,0,0,1,13.15-4.61c5.12,1.44,10.9,8.21,7.55,15.87a10,10,0,0,1-7.43,5.83,10.69,10.69,0,0,0,8.68-4.09,12.7,12.7,0,0,0-4.16-19.21,14.56,14.56,0,0,0-18.91,5.92A15.68,15.68,0,0,0,187,108.5Z" transform="translate(-0.17)"/><path class="cls-2" d="M359,132.81a1.42,1.42,0,0,1,0,2A1.41,1.41,0,1,1,359,132.81Zm0.16-.16a1.63,1.63,0,0,0-2.3,0,1.63,1.63,0,1,0,2.3,2.31A1.63,1.63,0,0,0,359.16,132.65Zm-0.91,1.08a0.84,0.84,0,0,1-.3,0h-0.28v-0.65h0.27a0.8,0.8,0,0,1,.38.07,0.27,0.27,0,0,1,.12.26A0.28,0.28,0,0,1,358.25,133.73Zm-0.9,1h0.32V134h0.25a0.74,0.74,0,0,1,.35.06,0.44,0.44,0,0,1,.17.41v0.24h0.3v0a0.27,0.27,0,0,1,0-.09s0-.09,0-0.13v-0.13a0.49,0.49,0,0,0-.1-0.28,0.44,0.44,0,0,0-.31-0.18,0.66,0.66,0,0,0,.26-0.09,0.39,0.39,0,0,0,.18-0.35,0.44,0.44,0,0,0-.28-0.45,1.36,1.36,0,0,0-.49-0.06h-0.63v1.79Z" transform="translate(-0.17)"/><line class="cls-3" x1="357.23" y1="75.35" x2="77.6" y2="75.35"/><polygon class="cls-4" points="12.19 57.62 0 57.62 5.37 18.01 17.56 18.01 19.21 5.82 58.82 5.82 57.16 18.01 69.36 18.01 63.99 57.62 51.81 57.62 50.15 69.81 10.54 69.81 12.19 57.62"/><path class="cls-1" d="M15.08,37.77C11.39,49.84,11.73,55.68,5.68,57.6c9.64,0,11.91-10.89,14.29-18.91,3.59-12.09,3.48-17.87,9.55-19.76C19.85,18.93,17.52,29.76,15.08,37.77Z" transform="translate(-0.17)"/><path class="cls-1" d="M21.44,37.77C17.75,49.84,18.1,55.68,12,57.6c9.64,0,11.91-10.89,14.29-18.91,3.59-12.09,3.48-17.87,9.55-19.76C26.22,18.93,23.89,29.76,21.44,37.77Z" transform="translate(-0.17)"/><path class="cls-1" d="M27.8,37.77c-3.69,12.07-3.34,17.91-9.39,19.83,9.64,0,11.91-10.89,14.29-18.91,3.59-12.09,3.48-17.87,9.55-19.76C32.58,18.93,30.25,29.76,27.8,37.77Z" transform="translate(-0.17)"/><path class="cls-1" d="M34.56,16.1c11.53,0,20.87,7.68,20.87,17.15S46.09,50.39,34.56,50.39a25.5,25.5,0,0,1-3.43-.22,29,29,0,0,0,6.3.69c13.11,0,23.73-8.6,23.73-19.21S50.54,12.45,37.43,12.45s-24.28,9-23.71,19.94C14.25,23.32,23.38,16.1,34.56,16.1Z" transform="translate(-0.17)"/><path class="cls-5" d="M6,64.52a3.06,3.06,0,0,1,0,4.3,2.9,2.9,0,0,1-2.14.89,2.9,2.9,0,0,1-2.14-.89,3,3,0,0,1-.88-2.16,2.92,2.92,0,0,1,.88-2.14,2.9,2.9,0,0,1,2.14-.89A2.91,2.91,0,0,1,6,64.52Zm0.35-.34a3.4,3.4,0,0,0-2.49-1,3.37,3.37,0,0,0-2.48,1,3.53,3.53,0,0,0,0,5,3.37,3.37,0,0,0,2.49,1,3.39,3.39,0,0,0,2.49-1,3.41,3.41,0,0,0,1-2.5A3.37,3.37,0,0,0,6.37,64.18Zm-2,2.32a1.84,1.84,0,0,1-.65.09H3.14v-1.4H3.72a1.76,1.76,0,0,1,.82.14A0.7,0.7,0,0,1,4.4,66.5ZM2.46,68.58H3.14V67.06H3.67a1.63,1.63,0,0,1,.76.12,1,1,0,0,1,.36.89v0.51H5.46l0,0a0.62,0.62,0,0,1,0-.2q0-.15,0-0.29V67.77a1.06,1.06,0,0,0-.21-0.6,0.94,0.94,0,0,0-.67-0.38,1.47,1.47,0,0,0,.56-0.19,0.84,0.84,0,0,0,.38-0.76,1,1,0,0,0-.6-1,3,3,0,0,0-1.05-.14H2.46v3.86Z" transform="translate(-0.17)"/></svg>