<svg id="Layer_1" data-name="Layer 1" xmlns="http://www.w3.org/2000/svg" viewBox="0 0 359.71 104.4"><defs><style>.cls-1{fill:#005a9c;}.cls-2{fill:#a90533;}</style></defs><title>covenant-medical-group</title><path class="cls-1" d="M65.8,56.74C57.71,63.29,47,65.51,36.7,65.51,17.82,65.51.29,54.91,0.29,32.75,0.29,12.91,17.82,0,36.7,0c8.86,0,19.75,2.31,27.65,7.32l-3,9.06C61,17.53,60.31,19.65,60,19.65s-0.77-1.45-1.06-2.5c-2-8.38-8-15.1-22.25-15.39-17.53,0-25.45,16.64-25.45,31s8.69,31,29.3,31C50,63.75,57.13,58,61.37,48.26c0.48-1.16.58-2,1.06-2s0.48,0.29.87,1.73Z" transform="translate(-0.29)"/><path class="cls-1" d="M136.55,53.79L146.74,34c1.43-3.11,2.71-6.05,2.71-8.36,0-2.71-1.75-3.66-3.66-4.3a0.74,0.74,0,0,1-.72-0.48c0-.24.32-0.32,0.8-0.32,2.07,0,2.79.32,6.05,0.32,3.11,0,3.82-.32,5.89-0.32,0.56,0,1,0,1,.24a1.28,1.28,0,0,1-.72,1c-2.63,1.83-5.42,6.05-8.12,10.91l-15.53,29.7a2.29,2.29,0,0,1-1,1.11h-0.16c-0.24,0-.32-0.4-0.8-1.19L118.63,35.08c-3-6.05-5.57-11.23-8.92-13.46a1.65,1.65,0,0,1-1-.8c0-.32.48-0.32,1-0.32,1.27,0,3.27.32,7.09,0.32,3.66,0,6.53-.32,7.17-0.32a1.15,1.15,0,0,1,1,.32,1,1,0,0,1-.72.64,2.85,2.85,0,0,0-2.23,3c0,1.59,1.27,3.9,2,5.42Z" transform="translate(-0.29)"/><path class="cls-1" d="M162.11,36c-0.16,1.83-.24,3.5-0.24,5.18,0,14.81,7.65,20.31,15.37,20.31,9.16,0,15.93-6.29,18.64-15.61h1.67c-2.55,11-10.51,17.6-21.34,17.6-13.54,0-23.57-9.16-23.57-21.9s10-21.9,23.57-21.9c8.68,0,19.19,5.26,20.31,16.33h-34.4Zm24.37-1.51c0-7.8-3.74-13.3-12-13.3-7.25,0-11.15,6.45-12,13.3h24.05Z" transform="translate(-0.29)"/><path class="cls-1" d="M207.71,32h0.16c1.83-6.77,5.73-12.34,16.25-12.34,8.76,0,17,4.54,17,17.2V52.2c-0.16,7.57.88,8.68,3.18,9.48a1.63,1.63,0,0,1,1,.56c0,0.24-.4.24-1.19,0.24s-2.79-.24-7.17-0.24-7.17.24-8.2,0.24c-0.48,0-.88,0-0.88-0.24s0.16-.4.72-0.48c2.87-.32,4.3-2.47,4.3-9.56V36.75c0-7.33-3.26-15.13-11.71-15.13-9.48,0-12.58,9.72-12.58,20.87V52.2c0,5,.24,8.76,3.82,9.4,0.56,0.08.88,0.24,0.88,0.48s-0.24.4-.72,0.4-3.82-.24-8.12-0.24-8,.24-8.52.24-0.72-.08-0.72-0.4,0.32-.4.88-0.48c4-.64,4.3-4.38,4.3-9.4V32.45c0-4.78-.56-7.49-2.79-8.44a3.51,3.51,0,0,1-1.43-.8c0-.24.56-0.24,1.51-0.4a69.61,69.61,0,0,0,10-2.31V32Z" transform="translate(-0.29)"/><path class="cls-1" d="M284,55.3c0,2.63.4,5,2.87,6.13,0.48,0.24.8,0.24,0.8,0.48a1,1,0,0,1-1,.32H278a23.78,23.78,0,0,1-1.91-8.12H276c-3.11,6.45-7.73,9.32-14.73,9.32-8.28,0-16.8-3.82-16.8-13.3,0-12.1,18.48-13.3,26.84-13.3h4.54V34.2c0-7.65-3.58-13.06-11.63-13.06-7.33,0-11.63,2.15-14.49,9.16a4.09,4.09,0,0,1-.64,1.35,1.42,1.42,0,0,1-.4-0.88l-2.07-7.17c6.53-3.42,11.71-4,18.79-4,9.08,0,18.64,3.27,18.64,13.3V55.3Zm-8.2-17h-4.7c-8.6,0-17.44,2.55-17.44,13.06a9.67,9.67,0,0,0,9.88,10c9.4,0,12.26-9.87,12.26-17.52V38.34Z" transform="translate(-0.29)"/><path class="cls-1" d="M299.2,32h0.16c1.83-6.77,5.73-12.34,16.25-12.34,8.76,0,17,4.54,17,17.2V52.2c-0.16,7.57.88,8.68,3.19,9.48a1.63,1.63,0,0,1,1,.56c0,0.24-.4.24-1.19,0.24s-2.79-.24-7.17-0.24-7.17.24-8.2,0.24c-0.48,0-.88,0-0.88-0.24s0.16-.4.72-0.48c2.87-.32,4.3-2.47,4.3-9.56V36.75c0-7.33-3.27-15.13-11.71-15.13-9.48,0-12.58,9.72-12.58,20.87V52.2c0,5,.24,8.76,3.82,9.4,0.56,0.08.88,0.24,0.88,0.48s-0.24.4-.72,0.4-3.82-.24-8.12-0.24-8,.24-8.52.24-0.72-.08-0.72-0.4,0.32-.4.88-0.48c4-.64,4.3-4.38,4.3-9.4V32.45c0-4.78-.56-7.49-2.79-8.44a3.52,3.52,0,0,1-1.43-.8c0-.24.56-0.24,1.51-0.4a69.64,69.64,0,0,0,10-2.31V32Z" transform="translate(-0.29)"/><path class="cls-1" d="M334.44,25.36a0.74,0.74,0,0,1-.8-0.72c0-.4.64-0.72,1.59-1.11,4.54-1.59,8.36-5.26,11.31-11.31a1.06,1.06,0,0,1,.88-0.8c0.4,0,.4.56,0.4,1.11V22.81h8.84l-0.56,2.55h-8.28V48c0,10.59,2.55,12.5,5.1,13.38,0.64,0.24,1,.32,1,0.56s-0.56.32-1.27,0.32H343c-2.23-1-3.35-2.79-3.35-5.81V25.36h-5.18Z" transform="translate(-0.29)"/><path class="cls-2" d="M115.35,38.18c-0.31,6.08-1.3,10.67-4.64,15.4a20.45,20.45,0,0,1-22.47,7.87c-8.75-2.46-18.61-14-12.89-27.12,1.49-3.41,5.76-9,12.68-10a18.28,18.28,0,0,0-14.83,7C64.81,41.59,67.89,58,80.31,64.18c10,4.94,25.17,2.6,32.31-10.11A26.79,26.79,0,0,0,115.35,38.18Z" transform="translate(-0.29)"/><path class="cls-1" d="M66.4,45.82c0.31-6.08,1.3-10.67,4.64-15.4a20.45,20.45,0,0,1,22.47-7.87c8.75,2.46,18.61,14,12.89,27.12-1.49,3.41-5.76,9-12.68,10a18.28,18.28,0,0,0,14.83-7c8.39-10.22,5.31-26.67-7.1-32.81-10-4.94-25.17-2.6-32.31,10.11A26.79,26.79,0,0,0,66.4,45.82Z" transform="translate(-0.29)"/><path class="cls-1" d="M103.54,90.88l8.58-19.19h6.1c0.47,0,.54.12,0.54,0.23a0.68,0.68,0,0,1-.54.31c-1.28.27-1.63,1.63-1.63,3.46V90.46c0,2.29.08,5.4,2.41,5.86a1.09,1.09,0,0,1,.62.31,0.68,0.68,0,0,1-.62.19c-0.19,0-1.24-.12-4.58-0.12-3,0-4,.12-4.43.12a0.44,0.44,0,0,1-.47-0.19,1.09,1.09,0,0,1,.62-0.27c2-.54,2.1-3.61,2.1-5.9V74.34h-0.08l-9.71,21.13c-0.08.23-.62,1.55-1,1.55h-0.08c-0.43,0-.82-1.17-1-1.59L90.8,74.34H90.72V89.06c0,2.72.35,6.14,2.56,7a2.13,2.13,0,0,1,.82.58,1.11,1.11,0,0,1-.5,0H86.88a0.65,0.65,0,0,1-.54-0.12,1.14,1.14,0,0,1,.54-0.35c2.14-1.17,2.87-4.7,2.87-7.19V76.24c0-1.44-.35-3.73-1.83-4a0.36,0.36,0,0,1-.27-0.35,0.24,0.24,0,0,1,.27-0.16h6.41Z" transform="translate(-0.29)"/><path class="cls-1" d="M124.4,83.89c-0.08.89-.12,1.71-0.12,2.52,0,7.23,3.73,9.91,7.5,9.91,4.47,0,7.77-3.07,9.09-7.61h0.82c-1.24,5.36-5.13,8.58-10.41,8.58-6.6,0-11.5-4.47-11.5-10.68s4.89-10.68,11.5-10.68c4.23,0,9.36,2.56,9.9,8H124.4Zm11.89-.74c0-3.81-1.83-6.49-5.87-6.49-3.53,0-5.44,3.15-5.87,6.49h11.73Z" transform="translate(-0.29)"/><path class="cls-1" d="M164.8,86.61c0,2.14,0,4.27.16,6.37,0.12,1.51.66,3,2.06,3.38a0.32,0.32,0,0,1,.27.19c0,0.12-.19.15-0.66,0.15H162a14.8,14.8,0,0,1-1.13-3.88h-0.08A8.48,8.48,0,0,1,153,97.29c-5.44,0-10-4.16-10-10.68,0-5.52,4.35-10.68,10-10.68,3.38,0,6.22,1.2,7.77,3.3h0.08v-6c0-1.4,0-2.68-1.51-3a0.66,0.66,0,0,1-.51-0.23,0.91,0.91,0,0,1,.7-0.23c1.83-.35,3.46-0.74,5.32-1.24V86.61Zm-10.57,9.71c2.53,0,6.76-2.49,6.76-9.71,0-8.16-4.23-9.71-6.76-9.71s-6.8,1.55-6.8,9.71S151.68,96.32,154.24,96.32Z" transform="translate(-0.29)"/><path class="cls-1" d="M169.58,80.51c0-1.94-.74-2.18-1.36-2.53a2,2,0,0,1-.66-0.23,1.65,1.65,0,0,1,.7-0.16c1.83-.35,3.46-0.74,5.32-1.24V91.82c0,2.45.23,4.19,2,4.54a0.36,0.36,0,0,1,.39.35c0,0.12-.19.12-0.54,0.12s-1.79-.12-3.88-0.12-3.5.12-3.88,0.12-0.54,0-.54-0.12a0.36,0.36,0,0,1,.39-0.35c1.79-.35,2.06-2.1,2.06-4.54V80.51Zm-0.62-9a2.31,2.31,0,1,1,4.62,0A2.31,2.31,0,0,1,169,71.54Z" transform="translate(-0.29)"/><path class="cls-1" d="M196.15,81.29a2.1,2.1,0,0,1-.47,1,0.63,0.63,0,0,1-.23-0.47,7.1,7.1,0,0,0-7.11-5.21c-5.09,0-6.91,5.21-7,9.94,0,7,3.92,9.71,7.5,9.71a9.13,9.13,0,0,0,7.81-5.13l0.62,0.62c-2.1,3.57-4.74,5.48-8.93,5.48-6.6,0-11.5-4.47-11.5-10.68s4.89-10.68,11.5-10.68c2.21,0,6.76.93,8.66,2.33Z" transform="translate(-0.29)"/><path class="cls-1" d="M217.91,93.33c0,1.28.19,2.45,1.4,3a0.54,0.54,0,0,1,.39.23,0.48,0.48,0,0,1-.5.15H215a11.59,11.59,0,0,1-.93-4H214a7.24,7.24,0,0,1-7.19,4.54c-4,0-8.2-1.86-8.2-6.49,0-5.9,9-6.49,13.09-6.49h2.21V83c0-3.73-1.75-6.37-5.67-6.37-3.57,0-5.67,1-7.07,4.47a2,2,0,0,1-.31.66,0.69,0.69,0,0,1-.19-0.43l-1-3.5a17.63,17.63,0,0,1,9.17-1.94c4.43,0,9.09,1.59,9.09,6.49V93.33Zm-4-8.27h-2.29c-4.19,0-8.51,1.24-8.51,6.37a4.72,4.72,0,0,0,4.82,4.89c4.58,0,6-4.82,6-8.55V85.06Z" transform="translate(-0.29)"/><path class="cls-1" d="M227.08,91.82c0,2.45.12,3.92,2.21,4.66a0.33,0.33,0,0,1,.23.23,0.37,0.37,0,0,1-.35.12c-0.19,0-1.2-.12-4.12-0.12-2.1,0-3.77.12-4,.12s-0.39,0-.39-0.12a0.33,0.33,0,0,1,.23-0.23c2.14-.89,2.21-2.21,2.21-4.66V73.25c0-1.9-.35-2.68-1.32-2.87a0.71,0.71,0,0,1-.58-0.31c0-.19.31-0.23,0.58-0.27,1.83-.35,3.46-0.74,5.32-1.24V91.82Z" transform="translate(-0.29)"/><path class="cls-1" d="M268.21,94c-2.72,2.41-7.26,3.46-11.65,3.46-7.22,0-14.68-4.27-14.68-13.21,0-8,7.07-13.21,14.68-13.21,5.13,0,9.09,1.17,12.2,3.26l-1.36,3.38a3.77,3.77,0,0,1-.47,1,1.79,1.79,0,0,1-.27-0.7c-0.82-4-5-5.94-9.09-5.94-7.3,0-10.49,6.45-10.49,12.86,0,6.21,4,11.61,9.48,11.61,5.32,0,7.15-1.9,7.15-5.94V87.7c0-2.41-1.28-2.76-3.34-3.22a1.67,1.67,0,0,1-1-.39c0-.12.19-0.15,0.54-0.15s3.73,0.15,5.4.15,4.19-.15,4.74-0.15,0.78,0.12.78,0.27a1.4,1.4,0,0,1-.7.31c-1.86.54-1.86,1.32-1.86,3.11V94Z" transform="translate(-0.29)"/><path class="cls-1" d="M277.73,81.37h0.08c1.51-3.22,4.23-5.59,7.89-5.44l-1.63,4a4,4,0,0,0-2.41-.62c-2.21,0-3.69,2.84-3.69,5.36v7.15c0,2.45.19,4.27,2.21,4.66a0.45,0.45,0,0,1,.39.23c0,0.12-.12.12-0.31,0.12s-2.18-.12-4.31-0.12-3.92.12-4.16,0.12a0.33,0.33,0,0,1-.35-0.12,0.47,0.47,0,0,1,.43-0.19c1.83-.66,2.1-1.44,2.1-4.7V82.53c0-2.68-.15-4.08-1.51-4.39a0.85,0.85,0,0,1-.58-0.31,1.77,1.77,0,0,1,.82-0.19,30,30,0,0,0,5-1.28v5Z" transform="translate(-0.29)"/><path class="cls-1" d="M297.31,75.93c6.64,0,11.54,4.47,11.54,10.68S304,97.29,297.31,97.29s-11.5-4.47-11.5-10.68S290.71,75.93,297.31,75.93Zm0,20.63c5.83,0,7-5.36,7-9.94s-1.2-9.94-7-9.94-7,5.36-7,9.94S291.52,96.55,297.31,96.55Z" transform="translate(-0.29)"/><path class="cls-1" d="M331.26,91.78c0,3.22.47,4.23,2.14,4.66a0.29,0.29,0,0,1,.23.12,0.48,0.48,0,0,1-.51.15h-4.62a11.49,11.49,0,0,1-1-4.47h-0.08c-1.28,3.46-3.57,5-7.57,5-5.56,0-8.27-2.14-8.27-8.39V81.06c0-2.25-.16-2.72-1.24-3.11a0.77,0.77,0,0,1-.58-0.31,0.66,0.66,0,0,1,.58-0.16,39.82,39.82,0,0,0,5.24-1.13V88.94c0,3.57,1.59,7.38,5.71,7.38s6-3.85,6-7.46V81.06c0-2.37-.43-2.87-1.13-3.22a2.8,2.8,0,0,1-.5-0.27,1,1,0,0,1,.62-0.23c1.51-.23,3.07-0.51,5-1V91.78Z" transform="translate(-0.29)"/><path class="cls-1" d="M335.38,81.06c0.08-1.67-.27-2.56-1.28-2.87a1,1,0,0,1-.62-0.27c0-.23.31-0.27,0.58-0.31A19.19,19.19,0,0,0,339,76.36v5H339c1.55-4,4.27-5.48,8.16-5.48a10.35,10.35,0,0,1,10.06,10.68c0,5.52-4.7,10.68-10.06,10.68-4.2,0-5.83-1.59-7.81-3.53v4.08c0,2.49.19,5.59,1.63,6a1.58,1.58,0,0,1,.89.39v0.08a1.42,1.42,0,0,1-.7.08c-0.47,0-1.83-.08-3.81-0.08-0.82,0-1.48.08-3.11,0.08-0.82,0-1,0-1-.12v0c0-.16.12-0.16,0.43-0.23,1.44-.35,1.67-1.17,1.67-4.66V81.06ZM346,96.32c2.53,0,6.76-1.55,6.76-9.71S348.51,76.9,346,76.9s-6.8,1.55-6.8,9.71S343.42,96.32,346,96.32Z" transform="translate(-0.29)"/><path class="cls-1" d="M358.91,57.53a2.41,2.41,0,0,1-1.7,4.11,2.3,2.3,0,0,1-1.7-.71,2.34,2.34,0,0,1-.69-1.71A2.39,2.39,0,0,1,358.91,57.53Zm0.28-.27a2.79,2.79,0,1,0,.82,2A2.69,2.69,0,0,0,359.18,57.26Zm-1.56,1.84a1.45,1.45,0,0,1-.51.07h-0.49V58.05h0.46a1.39,1.39,0,0,1,.65.11A0.55,0.55,0,0,1,357.62,59.09Zm-1.54,1.65h0.54V59.54h0.43a1.3,1.3,0,0,1,.6.1,0.75,0.75,0,0,1,.29.7v0.41h0.5l0,0a0.46,0.46,0,0,1,0-.16c0-.08,0-0.16,0-0.23V60.09a0.85,0.85,0,0,0-.17-0.47,0.75,0.75,0,0,0-.53-0.3,1.16,1.16,0,0,0,.44-0.15,0.67,0.67,0,0,0,.3-0.6,0.76,0.76,0,0,0-.47-0.77,2.34,2.34,0,0,0-.83-0.11h-1.07v3.06Z" transform="translate(-0.29)"/></svg>