<svg id="Layer_1" data-name="Layer 1" xmlns="http://www.w3.org/2000/svg" viewBox="0 0 360 115.28"><defs><style>.cls-1{fill:#a90533;}.cls-2{fill:#c9d0d5;}.cls-3{stroke:#000;stroke-width:0.49px;}.cls-4{fill:#68737a;}</style></defs><title>tcsc</title><polygon class="cls-1" points="46.98 51.97 52.79 51.97 52.79 46.25 70.22 46.25 70.22 40.53 52.79 40.53 52.79 34.81 46.98 34.81 46.98 51.97"/><path class="cls-2" d="M53.28,52.47h-6.8V34.32h6.8V40H70.71v6.71H53.28v5.72Zm-5.81-1h4.82V45.76H69.73V41H52.29V35.31H47.47V51.48Z"/><polygon class="cls-1" points="46.98 11.93 46.98 17.65 52.79 17.65 52.79 34.81 58.6 34.81 58.6 17.65 64.41 17.65 64.41 11.93 46.98 11.93"/><path class="cls-2" d="M59.09,35.31h-6.8V18.15H46.48V11.44H64.9v6.71H59.09V35.31Zm-5.81-1h4.82V17.16h5.81V12.43H47.47v4.73h5.81V34.32Z"/><polygon class="cls-1" points="23.74 57.69 23.74 51.97 17.93 51.97 17.93 34.81 12.12 34.81 12.12 51.97 6.3 51.97 6.3 57.69 23.74 57.69"/><path class="cls-2" d="M24.23,58.19H5.81V51.48h5.81V34.32h6.8V51.48h5.81v6.71ZM6.8,57.2H23.24V52.47H17.43V35.31H12.61V52.47H6.8V57.2Z"/><polygon class="cls-1" points="29.55 69.13 35.36 69.13 35.36 63.41 52.79 63.41 52.79 57.69 35.36 57.69 35.36 51.97 29.55 51.97 29.55 69.13"/><path class="cls-2" d="M35.85,69.63h-6.8V51.48h6.8V57.2H53.28v6.71H35.85v5.72Zm-5.81-1h4.82V62.92H52.29V58.19H34.86V52.47H30V68.64Z"/><polygon class="cls-1" points="58.6 46.25 52.79 46.25 52.79 51.97 35.36 51.97 35.36 57.69 52.79 57.69 52.79 63.41 58.6 63.41 58.6 46.25"/><path class="cls-2" d="M59.09,63.91h-6.8V58.19H34.86V51.48H52.29V45.76h6.8V63.91Zm-5.81-1h4.82V46.75H53.28v5.72H35.85V57.2H53.28v5.72Z"/><polygon class="cls-1" points="70.22 40.53 70.22 34.81 64.41 34.81 64.41 17.65 58.6 17.65 58.6 34.81 52.79 34.81 52.79 40.53 70.22 40.53"/><path class="cls-2" d="M70.71,41H52.29V34.32h5.81V17.16h6.8V34.32h5.81V41ZM53.28,40H69.73V35.31H63.92V18.15H59.09V35.31H53.28V40Z"/><polygon class="cls-1" points="17.93 46.25 17.93 51.97 23.74 51.97 23.74 69.13 29.55 69.13 29.55 51.97 35.36 51.97 35.36 46.25 17.93 46.25"/><path class="cls-2" d="M30,69.63h-6.8V52.47H17.43V45.76H35.85v6.71H30V69.63Zm-5.81-1h4.82V51.48h5.81V46.75H18.42v4.73h5.81V68.64Z"/><polygon class="cls-1" points="0.49 29.09 0.49 34.81 6.3 34.81 6.3 51.97 12.12 51.97 12.12 34.81 17.93 34.81 17.93 29.09 0.49 29.09"/><path class="cls-2" d="M12.61,52.47H5.81V35.31H0V28.6H18.42v6.71H12.61V52.47Zm-5.81-1h4.82V34.32h5.81V29.59H1v4.73H6.8V51.48Z"/><polygon class="cls-1" points="12.12 23.37 17.93 23.37 17.93 17.65 35.36 17.65 35.36 11.93 17.93 11.93 17.93 6.21 12.12 6.21 12.12 23.37"/><path class="cls-2" d="M18.42,23.87h-6.8V5.72h6.8v5.72H35.85v6.71H18.42v5.72Zm-5.81-1h4.82V17.16H34.86V12.43H17.43V6.71H12.61V22.88Z"/><polygon class="cls-1" points="41.17 0.49 35.36 0.49 35.36 6.21 17.93 6.21 17.93 11.93 35.36 11.93 35.36 17.65 41.17 17.65 41.17 0.49"/><path class="cls-2" d="M41.66,18.15h-6.8V12.43H17.43V5.72H34.86V0h6.8V18.15Zm-5.81-1h4.82V1H35.85V6.71H18.42v4.73H35.85v5.72Z"/><polygon class="cls-1" points="52.79 23.37 52.79 17.65 46.98 17.65 46.98 0.49 41.17 0.49 41.17 17.65 35.36 17.65 35.36 23.37 52.79 23.37"/><path class="cls-2" d="M53.28,23.87H34.86V17.16h5.81V0h6.8V17.16h5.81v6.71Zm-17.43-1H52.29V18.15H46.48V1H41.66V18.15H35.85v4.73Z"/><polygon class="cls-1" points="23.74 17.65 17.93 17.65 17.93 23.37 0.49 23.37 0.49 29.09 17.93 29.09 17.93 34.81 23.74 34.81 23.74 17.65"/><path class="cls-2" d="M24.23,35.31h-6.8V29.59H0V22.88H17.43V17.16h6.8V35.31Zm-5.81-1h4.82V18.15H18.42v5.72H1V28.6H18.42v5.72Z"/><path class="cls-3" d="M35.36,34.81"/><rect class="cls-4" x="75.27" y="64.34" width="282.77" height="0.99"/><path class="cls-4" d="M215.43,98.11c-4,3.2-9.19,4.29-14.23,4.29-9.24,0-17.82-5.18-17.82-16,0-9.71,8.58-16,17.82-16a26.68,26.68,0,0,1,13.53,3.58l-1.46,4.43a5.57,5.57,0,0,1-.66,1.6,2.75,2.75,0,0,1-.52-1.23c-1-4.1-3.91-7.39-10.89-7.53-8.58,0-12.45,8.14-12.45,15.16s4.25,15.16,14.34,15.16c4.62,0,8.11-2.81,10.18-7.58,0.24-.57.28-1,0.52-1s0.24,0.14.42,0.85Z"/><path class="cls-4" d="M250,96.67l5-9.7a11.24,11.24,0,0,0,1.32-4.09,2.11,2.11,0,0,0-1.79-2.1,0.36,0.36,0,0,1-.35-0.23c0-.12.16-0.16,0.39-0.16,1,0,1.36.16,3,.16s1.87-.16,2.88-0.16c0.27,0,.51,0,0.51.12a0.63,0.63,0,0,1-.35.47c-1.29.9-2.65,3-4,5.34L249,100.84a1.12,1.12,0,0,1-.47.55h-0.08a1.17,1.17,0,0,1-.39-0.58l-6.82-13.29c-1.48-3-2.73-5.49-4.36-6.58a0.81,0.81,0,0,1-.47-0.39c0-.16.23-0.16,0.51-0.16,0.62,0,1.6.16,3.47,0.16s3.19-.16,3.51-0.16a0.56,0.56,0,0,1,.51.16,0.48,0.48,0,0,1-.35.31A1.39,1.39,0,0,0,243,82.33,7.82,7.82,0,0,0,244,85Z"/><path class="cls-4" d="M262.55,87.94c-0.08.9-.12,1.71-0.12,2.53,0,7.25,3.74,9.94,7.52,9.94,4.48,0,7.79-3.08,9.12-7.64h0.82c-1.25,5.38-5.14,8.61-10.44,8.61-6.62,0-11.53-4.48-11.53-10.71S262.82,80,269.44,80c4.25,0,9.39,2.57,9.94,8H262.55Zm11.92-.74c0-3.82-1.83-6.51-5.88-6.51-3.55,0-5.45,3.16-5.88,6.51h11.77Z"/><path class="cls-4" d="M284.86,86h0.08c0.9-3.31,2.81-6,7.95-6,4.29,0,8.3,2.22,8.3,8.42v7.52c-0.08,3.7.43,4.25,1.56,4.64a0.8,0.8,0,0,1,.51.27c0,0.12-.19.12-0.58,0.12s-1.36-.12-3.51-0.12-3.51.12-4,.12c-0.23,0-.43,0-0.43-0.12s0.08-.19.35-0.23c1.4-.16,2.1-1.21,2.1-4.68V88.33c0-3.58-1.6-7.4-5.73-7.4-4.64,0-6.16,4.75-6.16,10.21v4.75c0,2.46.12,4.29,1.87,4.6,0.27,0,.43.12,0.43,0.23s-0.12.19-.35,0.19-1.87-.12-4-0.12-3.9.12-4.17,0.12-0.35,0-.35-0.19,0.16-.19.43-0.23c1.95-.31,2.1-2.14,2.1-4.6V86.23c0-2.34-.27-3.66-1.36-4.13a1.72,1.72,0,0,1-.7-0.39,1.06,1.06,0,0,1,.74-0.19,34,34,0,0,0,4.91-1.13V86Z"/><path class="cls-4" d="M322.18,97.41c0,1.29.19,2.45,1.4,3a0.54,0.54,0,0,1,.39.23,0.48,0.48,0,0,1-.51.16h-4.21a11.62,11.62,0,0,1-.94-4h-0.08a7.27,7.27,0,0,1-7.21,4.56c-4.05,0-8.22-1.87-8.22-6.51,0-5.92,9-6.51,13.13-6.51h2.22V87.08c0-3.74-1.75-6.39-5.69-6.39-3.58,0-5.69,1.05-7.09,4.48a2,2,0,0,1-.31.66,0.7,0.7,0,0,1-.19-0.43l-1-3.51a17.69,17.69,0,0,1,9.2-1.95c4.44,0,9.12,1.6,9.12,6.51V97.41Zm-4-8.3h-2.3c-4.21,0-8.53,1.25-8.53,6.39a4.73,4.73,0,0,0,4.83,4.91c4.6,0,6-4.83,6-8.57V89.11Z"/><path class="cls-4" d="M329.62,86h0.08c0.9-3.31,2.81-6,7.95-6,4.29,0,8.3,2.22,8.3,8.42v7.52c-0.08,3.7.43,4.25,1.56,4.64a0.8,0.8,0,0,1,.51.27c0,0.12-.19.12-0.58,0.12s-1.36-.12-3.51-0.12-3.51.12-4,.12c-0.23,0-.43,0-0.43-0.12s0.08-.19.35-0.23c1.4-.16,2.1-1.21,2.1-4.68V88.33c0-3.58-1.6-7.4-5.73-7.4-4.64,0-6.16,4.75-6.16,10.21v4.75c0,2.46.12,4.29,1.87,4.6,0.27,0,.43.12,0.43,0.23s-0.12.19-.35,0.19-1.87-.12-4-0.12-3.9.12-4.17,0.12-0.35,0-.35-0.19,0.16-.19.43-0.23c1.95-.31,2.1-2.14,2.1-4.6V86.23c0-2.34-.27-3.66-1.36-4.13a1.72,1.72,0,0,1-.7-0.39,1.06,1.06,0,0,1,.74-0.19,34,34,0,0,0,4.91-1.13V86Z"/><path class="cls-4" d="M346.86,82.76a0.36,0.36,0,0,1-.39-0.35,1.08,1.08,0,0,1,.78-0.55c2.22-.78,4.09-2.57,5.53-5.53a0.52,0.52,0,0,1,.43-0.39c0.2,0,.2.27,0.2,0.55v5h4.32l-0.27,1.25h-4.05V93.82c0,5.18,1.25,6.12,2.49,6.55a0.57,0.57,0,0,1,.47.27,0.65,0.65,0,0,1-.62.16H351A2.77,2.77,0,0,1,349.39,98V82.76h-2.53Z"/><path class="cls-4" d="M285.88,108.51v-3.82a1.38,1.38,0,0,0-.81-1.55,0.46,0.46,0,0,1-.19-0.11c0-.06.11-0.08,0.28-0.08s1.21,0.08,1.82.08,1.51-.08,1.82-0.08,0.28,0,.28.08a0.46,0.46,0,0,1-.19.11,1.38,1.38,0,0,0-.81,1.55v8.4a1.74,1.74,0,0,0,1,1.89,0.23,0.23,0,0,1,.17.15c0,0.06-.11.06-0.3,0.06-0.68,0-.91-0.06-2-0.06s-1.31.06-2,.06c-0.19,0-.3,0-0.3-0.06a0.23,0.23,0,0,1,.17-0.15,1.74,1.74,0,0,0,1-1.89V109h-7.21v4.1a1.74,1.74,0,0,0,1,1.89,0.23,0.23,0,0,1,.17.15c0,0.06-.11.06-0.3,0.06-0.68,0-.91-0.06-2-0.06s-1.3.06-2,.06c-0.19,0-.3,0-0.3-0.06a0.23,0.23,0,0,1,.17-0.15,1.74,1.74,0,0,0,1-1.89v-8.4a1.38,1.38,0,0,0-.81-1.55,0.46,0.46,0,0,1-.19-0.11c0-.06.11-0.08,0.28-0.08s1.21,0.08,1.82.08,1.51-.08,1.82-0.08,0.28,0,.28.08a0.46,0.46,0,0,1-.19.11,1.38,1.38,0,0,0-.81,1.55v3.82h7.21Z"/><path class="cls-4" d="M293.78,108.51h3.5c1.38,0,2.59-.64,2.86-1.42a0.2,0.2,0,0,1,.15-0.17c0.06,0,.08.09,0.08,0.28v3.12c0,0.32,0,.4-0.08.4a0.37,0.37,0,0,1-.15-0.26c-0.55-1.4-2.1-1.48-3.42-1.48h-2.93v4c0,1.38.47,1.68,1.76,1.68h2.14a8,8,0,0,0,4.94-2.06,2.61,2.61,0,0,1,.51-0.4,0.05,0.05,0,0,1,.06.06,0.81,0.81,0,0,1,0,.15l-0.83,2.72H290.79a0.71,0.71,0,0,1-.57-0.08c0-.06.4-0.17,0.53-0.28,0.7-.55.83-1.08,0.83-2.8v-6.43c0-1.23-.08-2-0.83-2.23a0.68,0.68,0,0,1-.32-0.17c0-.08.08-0.11,0.36-0.11h10.69l0.51,1.78a2.72,2.72,0,0,1,.17.7,0.14,0.14,0,0,1-.09.15,0.32,0.32,0,0,1-.23-0.17c-0.79-1.3-2.8-2-4.58-2h-3.48v5Z"/><path class="cls-4" d="M308,109.61l-1,2a4.79,4.79,0,0,0-.66,2.16,1.2,1.2,0,0,0,1,1.21c0.15,0,.21.08,0.21,0.13s-0.09.09-.23,0.09-0.81-.06-1.85-0.06c-0.76,0-1.25.06-1.47,0.06s-0.25,0-.25-0.09a0.66,0.66,0,0,1,.36-0.3,11.61,11.61,0,0,0,2.19-3l4.63-9a0.27,0.27,0,0,1,.13-0.15h0a0.24,0.24,0,0,1,.15.15l5.56,10.4a4.79,4.79,0,0,0,1.27,1.57,1.17,1.17,0,0,1,.43.32c0,0.06-.09.09-0.26,0.09s-1-.06-2.12-0.06c-1.55,0-2.17.06-2.29,0.06a0.2,0.2,0,0,1-.19-0.06c0-.08.09-0.11,0.25-0.15a0.88,0.88,0,0,0,.53-1,7.75,7.75,0,0,0-.85-2.16l-1.08-2.23H308Zm2.23-4.41-2,3.93h4Z"/><path class="cls-4" d="M322.63,112.62c0,1.89.72,2,2.33,2h1a7.28,7.28,0,0,0,5-2.19,1.45,1.45,0,0,1,.4-0.45,0.12,0.12,0,0,1,.11.13,2,2,0,0,1-.08.26l-0.78,2.72H319.47c-0.32,0-.42,0-0.42-0.09a1.4,1.4,0,0,1,.45-0.17c0.74-.32.93-1,0.93-2.7v-7.47a1.46,1.46,0,0,0-.81-1.51,0.23,0.23,0,0,1-.19-0.15c0-.06.11-0.08,0.28-0.08s1.21,0.08,1.82.08S323,103,323.35,103s0.23,0,.23.09a0.24,0.24,0,0,1-.17.11,1.45,1.45,0,0,0-.78,1.53v7.92Z"/><path class="cls-4" d="M334.27,104.37c0-.74-0.32-0.87-1.17-0.87a5.71,5.71,0,0,0-4,1.87,2.2,2.2,0,0,1-.34.32,0.11,0.11,0,0,1-.09-0.11,3.06,3.06,0,0,1,.13-0.43l0.61-2.12h11.92l0.61,2.12a3.17,3.17,0,0,1,.13.43,0.11,0.11,0,0,1-.09.11,2.19,2.19,0,0,1-.34-0.32,5.71,5.71,0,0,0-4-1.87c-0.85,0-1.17.13-1.17,0.87v8.72c0,0.93.25,1.66,1.13,1.84a0.3,0.3,0,0,1,.28.15,0.17,0.17,0,0,1-.15.11c-0.13,0-1.29-.06-2.36-0.06s-2.19.06-2.33,0.06-0.17,0-.17-0.09a0.63,0.63,0,0,1,.36-0.15c0.87-.38,1-0.93,1-2.69v-7.89Z"/><path class="cls-4" d="M353.47,108.51v-3.82a1.38,1.38,0,0,0-.81-1.55,0.46,0.46,0,0,1-.19-0.11c0-.06.11-0.08,0.28-0.08s1.21,0.08,1.82.08,1.51-.08,1.82-0.08,0.28,0,.28.08a0.45,0.45,0,0,1-.19.11,1.38,1.38,0,0,0-.81,1.55v8.4a1.74,1.74,0,0,0,1,1.89,0.23,0.23,0,0,1,.17.15c0,0.06-.11.06-0.3,0.06-0.68,0-.91-0.06-2-0.06s-1.31.06-2,.06c-0.19,0-.3,0-0.3-0.06a0.23,0.23,0,0,1,.17-0.15,1.74,1.74,0,0,0,1-1.89V109h-7.21v4.1a1.74,1.74,0,0,0,1,1.89,0.23,0.23,0,0,1,.17.15c0,0.06-.11.06-0.3,0.06-0.68,0-.91-0.06-2-0.06s-1.3.06-2,.06c-0.19,0-.3,0-0.3-0.06A0.23,0.23,0,0,1,343,115a1.74,1.74,0,0,0,1-1.89v-8.4a1.38,1.38,0,0,0-.81-1.55,0.46,0.46,0,0,1-.19-0.11c0-.06.11-0.08,0.28-0.08s1.21,0.08,1.82.08S346.68,103,347,103s0.28,0,.28.08a0.46,0.46,0,0,1-.19.11,1.38,1.38,0,0,0-.81,1.55v3.82h7.21Z"/><path class="cls-4" d="M239.67,89a13.13,13.13,0,0,1-2.27,7.53,10,10,0,0,1-11,3.85c-4.28-1.2-9.11-6.86-6.31-13.27a8.36,8.36,0,0,1,6.21-4.87,8.94,8.94,0,0,0-7.26,3.42,10.61,10.61,0,0,0,3.47,16.05,12.16,12.16,0,0,0,15.81-4.95A13.11,13.11,0,0,0,239.67,89Z"/><path class="cls-4" d="M215.72,92.77A13.12,13.12,0,0,1,218,85.23a10,10,0,0,1,11-3.85c4.28,1.2,9.11,6.86,6.31,13.27a8.36,8.36,0,0,1-6.21,4.87,8.94,8.94,0,0,0,7.26-3.42A10.61,10.61,0,0,0,232.87,80,12.17,12.17,0,0,0,217.06,85,13.1,13.1,0,0,0,215.72,92.77Z"/><path class="cls-4" d="M359.46,113.08a1.18,1.18,0,1,1-1.66,1.67,1.15,1.15,0,0,1-.34-0.84A1.17,1.17,0,0,1,359.46,113.08Zm0.14-.13a1.36,1.36,0,1,0,.4,1A1.32,1.32,0,0,0,359.6,113Zm-0.76.9a0.73,0.73,0,0,1-.25,0h-0.24v-0.54h0.22a0.69,0.69,0,0,1,.32.06,0.23,0.23,0,0,1,.1.22A0.23,0.23,0,0,1,358.84,113.85Zm-0.75.81h0.26v-0.59h0.21a0.63,0.63,0,0,1,.29,0,0.37,0.37,0,0,1,.14.34v0.2h0.25v0a0.23,0.23,0,0,1,0-.08s0-.08,0-0.11v-0.11a0.41,0.41,0,0,0-.08-0.23,0.37,0.37,0,0,0-.26-0.15,0.58,0.58,0,0,0,.22-0.07,0.33,0.33,0,0,0,.15-0.3,0.37,0.37,0,0,0-.23-0.38,1.15,1.15,0,0,0-.41-0.05h-0.52v1.5Z"/><path class="cls-4" d="M84.55,28.54c0,1.8,0,3,1.64,4v0.09H79.94V32.56c1.58-.6,1.39-2.91,1.39-4.33V14.14H78.55a5.48,5.48,0,0,0-3.76,1.26H74.7l1.11-3.76H75.9a5,5,0,0,0,1.2.22H89.67a3.52,3.52,0,0,0,1.45-.22h0.09l-1,3.76H90.11c-0.41-1.11-1.67-1.26-2.72-1.26H84.55v14.4Z"/><path class="cls-4" d="M94.94,22.51v5.72c0,1.42-.19,3.73,1.39,4.33v0.09h-6V32.56c1.58-.6,1.39-2.91,1.39-4.33V16.29c0-1.42.22-3.73-1.39-4.33V11.87h6V12c-1.58.6-1.39,2.91-1.39,4.36v3.92h11.4V16.32c0-1.45.22-3.76-1.39-4.36V11.87h6V12c-1.61.6-1.42,2.91-1.42,4.33V28.23c0,1.42-.19,3.73,1.42,4.33v0.09h-6V32.56c1.61-.6,1.39-2.91,1.39-4.33V22.51H94.94Z"/><path class="cls-4" d="M134.8,22c0,6.44-5.34,11.12-11.62,11.12s-11.53-4.48-11.53-11c0-6,5.21-11,11.84-10.86A10.9,10.9,0,0,1,134.8,22Zm-19.55-.13c0,4.42,3.13,9,8.08,9,4.8,0,7.86-3.51,7.86-8.21s-2.94-9.06-7.93-9.06S115.25,17.14,115.25,21.91Z"/><path class="cls-4" d="M154.26,13.86a5.56,5.56,0,0,0,.47-2v0h5.46V12a1.8,1.8,0,0,0-1,1.86l2.08,15.51c0.19,1.48.35,2.34,1.61,3.22v0.09h-6.1V32.56c1.11-.35,1.29-1.29,1.29-2.37L156.31,15l-7.07,18.1a7.64,7.64,0,0,1-2.78-3.82l-6-14.24-1.8,13.58c-0.25,1.93-.47,3.32,1,4v0.09h-5.15V32.56c1.33-1.17,1.52-2.72,1.77-4.42l1.8-13.23c0.13-.88.47-2.15-1-2.94V11.87h5.53v0a3.74,3.74,0,0,0,.44,1.42L149,27.25Z"/><path class="cls-4" d="M170.87,11.87c4.11,0,7.23,2,7.23,5.53s-3.38,5.94-6.95,5.94a5.27,5.27,0,0,1-2.31-.44c2.72-.16,5.65-1.83,5.65-4.86,0-2.78-2-3.88-4.48-3.88a12.78,12.78,0,0,0-2.21.19V28.58c0,1.77,0,3,1.64,4v0.09h-6.28V32.56c1.61-.57,1.42-2.91,1.42-4.33V16.32c0-1.42.19-3.73-1.39-4.36V11.87h7.67Z"/><path class="cls-4" d="M190.61,15.63a7.19,7.19,0,0,0-5-2c-1.8,0-4.07.69-4.07,2.87,0,4.33,10.86,4.26,10.86,10.11,0,3.38-3.54,6.54-8.46,6.54a16.35,16.35,0,0,1-5.65-.95l-0.92-3.95a10.93,10.93,0,0,0,6.92,2.62c1.8,0,4.52-1.07,4.52-3.28,0-4.93-10.86-4-10.86-10.74,0-4,4.07-5.5,7.93-5.5a15.87,15.87,0,0,1,4.71.69v3.57Z"/><path class="cls-4" d="M216.28,22c0,6.44-5.34,11.12-11.62,11.12s-11.53-4.48-11.53-11c0-6,5.21-11,11.84-10.86A10.9,10.9,0,0,1,216.28,22Zm-19.55-.13c0,4.42,3.13,9,8.08,9,4.8,0,7.86-3.51,7.86-8.21s-2.94-9.06-7.93-9.06S196.74,17.14,196.74,21.91Z"/><path class="cls-4" d="M220.93,28.54c0,1.77,0,3,1.64,4v0.09H217V32.56c1.67-1,1.67-2.24,1.67-4V15.94c0-1.77,0-3-1.64-4V11.87h4.61v0a2,2,0,0,0,.47.79l0.44,0.63L234.1,27.91v-12c0-1.77,0-3-1.64-4V11.87H238V12c-1.64.95-1.64,2.21-1.64,4V33.66a8.73,8.73,0,0,1-4.61-3.6L220.93,16.32V28.54Z"/><path class="cls-4" d="M262.78,15.79a11,11,0,0,0-5.84-1.8c-4.36,0-7.39,3.19-7.39,7.77s3.16,8.78,8,8.78a13.92,13.92,0,0,0,6.73-2h0.1l-1.61,3.66a11.2,11.2,0,0,1-4.77.95c-7.45,0-12.06-4.17-12.06-10.93,0-6.54,4.61-10.86,11.08-10.86a25.23,25.23,0,0,1,5.75.79v3.63Z"/><path class="cls-4" d="M270.13,24.85l-1.64,4.45c-0.66,1.77-.88,2.68.63,3.25v0.09h-5.81V32.56c1.83-.92,2.37-2.68,3.06-4.48l5.27-13.17c0.44-1.14,1-2.46-.47-2.94V11.87h5l6.57,16.2c0.73,1.8,1.3,3.57,3.09,4.48v0.09h-6.47V32.56c1.55-.69,1.29-1,0.44-3.25l-1.71-4.45h-8Zm3.95-10.3-3.13,8h6.22Z"/><path class="cls-4" d="M289.78,28.54c0,1.77,0,3,1.64,4v0.09h-5.59V32.56c1.67-1,1.67-2.24,1.67-4V15.94c0-1.77,0-3-1.64-4V11.87h4.61v0a2,2,0,0,0,.47.79l0.44,0.63,11.56,14.59v-12c0-1.77,0-3-1.64-4V11.87h5.56V12c-1.64.95-1.64,2.21-1.64,4V33.66a8.73,8.73,0,0,1-4.61-3.6L289.78,16.32V28.54Z"/><path class="cls-4" d="M323.89,15.79A11,11,0,0,0,318,14c-4.36,0-7.39,3.19-7.39,7.77s3.16,8.78,8,8.78a13.92,13.92,0,0,0,6.73-2h0.1l-1.61,3.66a11.2,11.2,0,0,1-4.77.95c-7.45,0-12.06-4.17-12.06-10.93,0-6.54,4.61-10.86,11.08-10.86a25.23,25.23,0,0,1,5.75.79v3.63Z"/><path class="cls-4" d="M330.24,30l4,0.38a7.87,7.87,0,0,0,5.84-1.86h0.1l-1.42,4.14H325.59V32.56c1.61-.57,1.42-2.91,1.42-4.33V16.32c0-1.45.19-3.76-1.42-4.36V11.87H335.7a3.22,3.22,0,0,0,1.48-.16h0.09v3.69h-0.09c-1-1.14-2.27-1.26-3.73-1.26a17.8,17.8,0,0,0-3.22.22v5.87H334a3.23,3.23,0,0,0,1.39-.19h0.1V23.4h-0.1c-0.51-.92-1.83-0.88-2.81-0.88h-2.34V30Z"/><path class="cls-4" d="M348.33,11.87c4.23,0,6.54,2.21,6.54,5.08s-2.43,5-5,5.56l4.55,5.72a22.14,22.14,0,0,0,5.12,4.42h-2.91a4.15,4.15,0,0,1-3.66-1.58l-3.85-4.77-2.91-4.45c2.53-.38,5.46-1.55,5.46-4.52a3.63,3.63,0,0,0-4.07-3.51,16.61,16.61,0,0,0-2.15.25V28.23c0,1.45-.19,3.76,1.42,4.33v0.09h-6V32.56c1.61-.57,1.39-2.91,1.39-4.33V16.32c0-1.45.22-3.76-1.39-4.36V11.87h7.52Z"/><path class="cls-4" d="M89.39,40.3a7.19,7.19,0,0,0-5-2c-1.8,0-4.07.69-4.07,2.87,0,4.33,10.86,4.26,10.86,10.11,0,3.38-3.54,6.54-8.46,6.54a16.35,16.35,0,0,1-5.65-.95l-0.92-3.95a10.93,10.93,0,0,0,6.92,2.62c1.8,0,4.52-1.07,4.52-3.28,0-4.93-10.86-4-10.86-10.74,0-4,4.07-5.5,7.93-5.5a15.87,15.87,0,0,1,4.71.69V40.3Z"/><path class="cls-4" d="M106.85,55.24c-1.39,1.83-4,2.59-6.19,2.59a7.76,7.76,0,0,1-5.72-2.21c-1.67-1.83-1.61-3.95-1.61-6.22V41c0-1.42.22-3.73-1.39-4.33V36.54h6v0.09c-1.58.6-1.39,2.91-1.39,4.33V49.4c0,4.2,1.77,6.16,5,6.16a5.58,5.58,0,0,0,4.61-2.21,4.16,4.16,0,0,0,.66-2.87V41c0-1.42.19-3.73-1.39-4.33V36.54h6l0,0.09c-1.61.6-1.42,2.91-1.42,4.36V52.9c0,1.42-.19,3.73,1.42,4.33v0.09h-4.64V55.24Z"/><path class="cls-4" d="M120.31,36.54c4.23,0,6.54,2.21,6.54,5.08s-2.43,5-5,5.56l4.55,5.72a22.13,22.13,0,0,0,5.12,4.42h-2.91a4.15,4.15,0,0,1-3.66-1.58L121.06,51l-2.91-4.45c2.53-.38,5.46-1.55,5.46-4.52a3.63,3.63,0,0,0-4.07-3.51,16.63,16.63,0,0,0-2.15.25V52.9c0,1.45-.19,3.76,1.42,4.33v0.09h-6V57.23c1.61-.57,1.39-2.91,1.39-4.33V41c0-1.45.22-3.76-1.39-4.36V36.54h7.52Z"/><path class="cls-4" d="M142.48,42.26c0.85-2.24,1.93-4.83,0-5.62V36.54h4.71l-8.34,21.73c-2.21-1.45-2.94-1.71-3.85-4.2l-4.77-12.92c-0.6-1.61-1.07-3.44-2.46-4.52V36.54h4.61l0,0.38a12.9,12.9,0,0,0,.85,2.94l5,13.74Z"/><path class="cls-4" d="M148.63,41c0-1.45.22-3.76-1.39-4.36V36.54h6v0.09c-1.58.6-1.39,2.94-1.39,4.36V52.9c0,1.42-.19,3.73,1.39,4.33v0.09h-6V57.23c1.58-.57,1.39-2.91,1.39-4.33V41Z"/><path class="cls-4" d="M167.43,42.26c0.85-2.24,1.93-4.83,0-5.62V36.54h4.71l-8.34,21.73c-2.21-1.45-2.94-1.71-3.85-4.2l-4.77-12.92c-0.6-1.61-1.07-3.44-2.46-4.52V36.54h4.61l0,0.38a12.9,12.9,0,0,0,.85,2.94l5,13.74Z"/><path class="cls-4" d="M174.57,49.52L172.92,54c-0.66,1.77-.88,2.68.63,3.25v0.09h-5.81V57.23c1.83-.92,2.37-2.68,3.06-4.48l5.27-13.17c0.44-1.14,1-2.46-.47-2.94V36.54h5l6.57,16.2c0.73,1.8,1.3,3.57,3.09,4.48v0.09h-6.47V57.23c1.55-.69,1.29-1,0.44-3.25l-1.71-4.45h-8Zm3.95-10.3-3.13,8h6.22Z"/><path class="cls-4" d="M199.52,55.05a7.77,7.77,0,0,0,5.59-1.93h0.09l-1.64,4.2h-13V57.23c1.61-.57,1.42-2.91,1.42-4.33V41c0-1.45.19-3.76-1.42-4.36V36.54h6v0.09c-1.61.6-1.39,2.94-1.39,4.36V54.77Z"/><path class="cls-4" d="M229.74,40.46a11,11,0,0,0-5.84-1.8c-4.36,0-7.39,3.19-7.39,7.77s3.16,8.78,8,8.78a13.93,13.93,0,0,0,6.73-2h0.09l-1.61,3.66a11.19,11.19,0,0,1-4.77.95c-7.45,0-12.06-4.17-12.06-10.93C212.91,40.37,217.52,36,224,36a25.25,25.25,0,0,1,5.75.79v3.63Z"/><path class="cls-4" d="M236.09,54.67l4,0.38a7.87,7.87,0,0,0,5.84-1.86H246l-1.42,4.14H231.45V57.23c1.61-.57,1.42-2.91,1.42-4.33V41c0-1.45.19-3.76-1.42-4.36V36.54h10.11a3.23,3.23,0,0,0,1.48-.16h0.1v3.69H243c-1-1.14-2.27-1.26-3.73-1.26a17.76,17.76,0,0,0-3.22.22v5.87h3.76a3.24,3.24,0,0,0,1.39-.19h0.09v3.35h-0.09c-0.51-.92-1.83-0.88-2.81-0.88h-2.34v7.48Z"/><path class="cls-4" d="M250.43,53.22c0,1.77,0,3,1.64,4v0.09h-5.59V57.23c1.67-1,1.67-2.24,1.67-4V40.62c0-1.77,0-3-1.64-4V36.54h4.61v0a2,2,0,0,0,.47.79L252,38,263.6,52.59v-12c0-1.77,0-3-1.64-4V36.54h5.56v0.09c-1.64.95-1.64,2.21-1.64,4V58.34a8.73,8.73,0,0,1-4.61-3.6L250.43,41V53.22Z"/><path class="cls-4" d="M275.76,53.22c0,1.8,0,3,1.64,4v0.09h-6.25V57.23c1.58-.6,1.39-2.91,1.39-4.33V38.82h-2.78A5.48,5.48,0,0,0,266,40.08H265.9L267,36.32h0.09a5,5,0,0,0,1.2.22h12.57a3.51,3.51,0,0,0,1.45-.22h0.09l-1,3.76h-0.09c-0.41-1.11-1.67-1.26-2.72-1.26h-2.84v14.4Z"/><path class="cls-4" d="M286.46,54.67l4,0.38a7.87,7.87,0,0,0,5.84-1.86h0.09L295,57.32H281.82V57.23c1.61-.57,1.42-2.91,1.42-4.33V41c0-1.45.19-3.76-1.42-4.36V36.54h10.11a3.23,3.23,0,0,0,1.48-.16h0.1v3.69h-0.1c-1-1.14-2.27-1.26-3.73-1.26a17.76,17.76,0,0,0-3.22.22v5.87h3.76a3.24,3.24,0,0,0,1.39-.19h0.09v3.35h-0.09c-0.51-.92-1.83-0.88-2.81-0.88h-2.34v7.48Z"/><path class="cls-4" d="M304.56,36.54c4.23,0,6.54,2.21,6.54,5.08s-2.43,5-5,5.56l4.55,5.72a22.14,22.14,0,0,0,5.12,4.42h-2.91a4.15,4.15,0,0,1-3.66-1.58L305.32,51l-2.91-4.45c2.53-.38,5.46-1.55,5.46-4.52a3.63,3.63,0,0,0-4.07-3.51,16.61,16.61,0,0,0-2.15.25V52.9c0,1.45-.19,3.76,1.42,4.33v0.09h-6V57.23c1.61-.57,1.39-2.91,1.39-4.33V41c0-1.45.22-3.76-1.39-4.36V36.54h7.52Z"/></svg>