<svg id="Layer_1" data-name="Layer 1" xmlns="http://www.w3.org/2000/svg" viewBox="0 0 350 94.51"><defs><style>.cls-1{fill:#005a9c;}.cls-2{fill:#a90533;}</style></defs><title>logo</title><path class="cls-1" d="M63.51,55c-7.85,6.35-18.21,8.5-28.21,8.5C17,63.51,0,53.24,0,31.76,0,12.52,17,0,35.31,0,43.9,0,54.45,2.24,62.11,7.1l-2.9,8.78c-0.37,1.12-1,3.18-1.31,3.18s-0.75-1.4-1-2.43C54.92,8.5,49.13,2,35.31,1.71c-17,0-24.67,16.13-24.67,30s8.42,30,28.41,30c9.15,0,16.06-5.58,20.17-15,0.47-1.12.56-2,1-2s0.47,0.28.84,1.68Z"/><path class="cls-1" d="M132.11,52.15L142,32.93c1.39-3,2.63-5.87,2.63-8.11,0-2.63-1.7-3.55-3.55-4.17a0.72,0.72,0,0,1-.69-0.46c0-.23.31-0.31,0.77-0.31,2,0,2.7.31,5.87,0.31,3,0,3.71-.31,5.71-0.31,0.54,0,1,0,1,.23A1.24,1.24,0,0,1,153,21c-2.55,1.78-5.25,5.87-7.88,10.58L130.1,60.41a2.23,2.23,0,0,1-.93,1.08H129c-0.23,0-.31-0.39-0.77-1.16L114.73,34c-2.93-5.87-5.4-10.89-8.65-13a1.6,1.6,0,0,1-.93-0.77c0-.31.46-0.31,1-0.31,1.24,0,3.17.31,6.87,0.31,3.55,0,6.33-.31,6.95-0.31a1.12,1.12,0,0,1,1,.31,1,1,0,0,1-.69.62,2.76,2.76,0,0,0-2.16,2.93c0,1.54,1.24,3.78,1.93,5.25Z"/><path class="cls-1" d="M156.88,34.86c-0.15,1.78-.23,3.4-0.23,5,0,14.36,7.41,19.69,14.9,19.69,8.88,0,15.44-6.1,18.07-15.13h1.62c-2.47,10.65-10.19,17.06-20.69,17.06-13.13,0-22.85-8.88-22.85-21.23S157.43,19,170.55,19c8.42,0,18.61,5.1,19.69,15.83H156.88Zm23.63-1.47c0-7.57-3.63-12.89-11.66-12.89-7,0-10.81,6.25-11.66,12.89h23.32Z"/><path class="cls-1" d="M201.1,31h0.15C203,24.43,206.81,19,217,19c8.49,0,16.45,4.4,16.45,16.68v14.9c-0.15,7.33.85,8.42,3.09,9.19a1.58,1.58,0,0,1,1,.54c0,0.23-.39.23-1.16,0.23s-2.7-.23-6.95-0.23-6.95.23-8,.23c-0.46,0-.85,0-0.85-0.23s0.15-.39.69-0.46c2.78-.31,4.17-2.39,4.17-9.27v-15c0-7.1-3.17-14.67-11.35-14.67-9.19,0-12.2,9.42-12.2,20.23v9.42c0,4.86.23,8.49,3.71,9.11,0.54,0.08.85,0.23,0.85,0.46s-0.23.39-.69,0.39-3.71-.23-7.88-0.23-7.72.23-8.26,0.23-0.7-.08-0.7-0.39,0.31-.39.85-0.46c3.86-.62,4.17-4.25,4.17-9.11V31.46c0-4.63-.54-7.26-2.7-8.18a3.41,3.41,0,0,1-1.39-.77c0-.23.54-0.23,1.47-0.39a67.5,67.5,0,0,0,9.73-2.24V31Z"/><path class="cls-1" d="M275.06,53.62c0,2.55.39,4.86,2.78,5.95,0.46,0.23.77,0.23,0.77,0.46a1,1,0,0,1-1,.31h-8.34a23,23,0,0,1-1.85-7.88h-0.15c-3,6.25-7.49,9-14.28,9-8,0-16.29-3.71-16.29-12.89,0-11.74,17.91-12.89,26-12.89h4.4V33.16c0-7.41-3.47-12.66-11.27-12.66-7.1,0-11.27,2.08-14.05,8.88a4,4,0,0,1-.62,1.31,1.38,1.38,0,0,1-.39-0.85l-2-6.95C245.1,19.57,250.12,19,257,19c8.8,0,18.07,3.17,18.07,12.89v21.7Zm-8-16.45h-4.56c-8.34,0-16.91,2.47-16.91,12.66a9.37,9.37,0,0,0,9.57,9.73c9.11,0,11.89-9.57,11.89-17v-5.4Z"/><path class="cls-1" d="M289.8,31H290c1.78-6.56,5.56-12,15.75-12,8.49,0,16.45,4.4,16.45,16.68v14.9C322,57.94,323,59,325.24,59.8a1.58,1.58,0,0,1,1,.54c0,0.23-.39.23-1.16,0.23s-2.7-.23-6.95-0.23-6.95.23-8,.23c-0.46,0-.85,0-0.85-0.23s0.15-.39.69-0.46c2.78-.31,4.17-2.39,4.17-9.27v-15c0-7.1-3.17-14.67-11.35-14.67-9.19,0-12.2,9.42-12.2,20.23v9.42c0,4.86.23,8.49,3.71,9.11,0.54,0.08.85,0.23,0.85,0.46s-0.23.39-.69,0.39-3.71-.23-7.88-0.23-7.72.23-8.26,0.23-0.7-.08-0.7-0.39,0.31-.39.85-0.46c3.86-.62,4.17-4.25,4.17-9.11V31.46c0-4.63-.54-7.26-2.7-8.18a3.41,3.41,0,0,1-1.39-.77c0-.23.54-0.23,1.47-0.39a67.49,67.49,0,0,0,9.73-2.24V31Z"/><path class="cls-1" d="M324,24.59a0.71,0.71,0,0,1-.77-0.69c0-.39.62-0.69,1.54-1.08,4.4-1.54,8.11-5.1,11-11a1,1,0,0,1,.85-0.77c0.39,0,.39.54,0.39,1.08v10h8.57L345,24.59h-8V46.52c0,10.27,2.47,12.12,4.94,13,0.62,0.23.93,0.31,0.93,0.54s-0.54.31-1.24,0.31h-9.34c-2.16-1-3.24-2.7-3.24-5.64V24.59h-5Z"/><path class="cls-2" d="M111.55,37c-0.3,5.9-1.26,10.35-4.5,14.93a19.83,19.83,0,0,1-21.78,7.63c-8.48-2.39-18-13.6-12.5-26.29,1.45-3.31,5.59-8.75,12.3-9.65a17.72,17.72,0,0,0-14.38,6.78c-8.14,9.91-5.15,25.86,6.88,31.81,9.68,4.79,24.4,2.52,31.33-9.8A26,26,0,0,0,111.55,37Z"/><path class="cls-1" d="M64.1,44.42c0.3-5.9,1.26-10.35,4.5-14.93a19.83,19.83,0,0,1,21.78-7.63c8.48,2.39,18,13.6,12.5,26.29-1.45,3.31-5.59,8.75-12.3,9.65A17.72,17.72,0,0,0,105,51c8.14-9.91,5.15-25.86-6.88-31.81-9.68-4.79-24.4-2.52-31.33,9.8A26,26,0,0,0,64.1,44.42Z"/><path class="cls-1" d="M171.12,80.58V73c0-1.54-.41-2.79-1.62-3.09a0.91,0.91,0,0,1-.38-0.23c0-.11.23-0.15,0.56-0.15,0.6,0,2.41.15,3.62,0.15s3-.15,3.62-0.15c0.34,0,.56,0,0.56.15a0.91,0.91,0,0,1-.38.23c-1.2.3-1.62,1.54-1.62,3.09V89.69c0,1.85.34,2.94,2,3.77a0.45,0.45,0,0,1,.34.3c0,0.11-.23.11-0.6,0.11-1.36,0-1.81-.11-4-0.11s-2.6.11-4,.11c-0.38,0-.6,0-0.6-0.11a0.45,0.45,0,0,1,.34-0.3c1.69-.83,2-1.92,2-3.77V81.52H156.77v8.17c0,1.85.34,2.94,2,3.77a0.45,0.45,0,0,1,.34.3c0,0.11-.23.11-0.6,0.11-1.36,0-1.81-.11-4-0.11s-2.6.11-4,.11c-0.38,0-.6,0-0.6-0.11a0.45,0.45,0,0,1,.34-0.3c1.69-.83,2-1.92,2-3.77V73c0-1.54-.41-2.79-1.62-3.09a0.91,0.91,0,0,1-.38-0.23c0-.11.23-0.15,0.56-0.15,0.6,0,2.41.15,3.62,0.15s3-.15,3.62-0.15c0.34,0,.56,0,0.56.15a0.91,0.91,0,0,1-.38.23c-1.21.3-1.62,1.54-1.62,3.09v7.61h14.35Z"/><path class="cls-1" d="M189.54,73.61c6.44,0,11.19,4.33,11.19,10.36S196,94.33,189.54,94.33,178.4,90,178.4,84,183.14,73.61,189.54,73.61Zm0,20c5.65,0,6.82-5.2,6.82-9.64s-1.17-9.64-6.82-9.64-6.78,5.2-6.78,9.64S183.93,93.61,189.54,93.61Z"/><path class="cls-1" d="M207.06,78.85h0.08c1.24-3.58,3.92-5.24,7.57-5.24,3.5,0,6.18,1.88,6.78,5.24h0.08c1.05-3.58,3.73-5.24,7.38-5.24,3.43,0,7,1.54,7,8.55v8c0,2.26.3,2.94,1.47,3.31a0.62,0.62,0,0,1,.49.3,0.76,0.76,0,0,1-.53.11c-0.23,0-1.32-.11-3.39-0.11s-3.58.11-3.77,0.11-0.3-.11-0.3-0.19a0.33,0.33,0,0,1,.26-0.23c1.69-.49,1.88-2.07,1.88-5.31V80.54c0-3-1.21-6-4.67-6-4.56,0-5.69,5.57-5.69,9.15v6.4c0,1.88.23,3.05,1.58,3.28a0.29,0.29,0,1,1,0,.49c-0.26,0-1.51-.11-3.58-0.11s-3.28.11-3.69,0.11a0.32,0.32,0,0,1-.3-0.11,0.27,0.27,0,0,1,.23-0.23c1.51-.45,1.85-2.15,1.85-4.52V80.54c0-3-1.21-6-4.67-6-4.56,0-5.69,5.57-5.69,9.15V89c0,2.37.26,4.1,1.77,4.44a0.32,0.32,0,0,1,.23.3c0,0.11-.19.11-0.53,0.11s-1.36-.11-3.43-0.11-2.64.11-2.94,0.11-0.41,0-.41-0.11a0.36,0.36,0,0,1,.26-0.3c1.13-.41,1.17-2.86,1.17-5.72V78.58c0-1.05,0-2.6-1.24-2.86a0.85,0.85,0,0,1-.6-0.19c0-.23.3-0.26,0.57-0.3a33.42,33.42,0,0,0,4.75-1.2v4.82Z"/><path class="cls-1" d="M242.87,81.33c-0.08.87-.11,1.66-0.11,2.45,0,7,3.62,9.6,7.27,9.6,4.33,0,7.53-3,8.81-7.38h0.79c-1.21,5.2-5,8.32-10.09,8.32-6.4,0-11.15-4.33-11.15-10.36s4.75-10.36,11.15-10.36c4.1,0,9.08,2.49,9.6,7.72H242.87Zm11.52-.72c0-3.69-1.77-6.29-5.69-6.29-3.43,0-5.27,3.05-5.69,6.29H254.4Z"/><path class="cls-1" d="M287.37,91.09c-3.16,2.56-7.34,3.43-11.37,3.43-7.38,0-14.24-4.14-14.24-12.81,0-7.76,6.85-12.81,14.24-12.81a21.32,21.32,0,0,1,10.81,2.86l-1.17,3.54a4.42,4.42,0,0,1-.53,1.28,2.2,2.2,0,0,1-.41-1c-0.79-3.28-3.13-5.65-8.7-5.76-6.85,0-9.19,6.25-9.19,11.86s2.64,11.86,10.7,11.86c3.69,0,6.48-2,8.13-5.8a1.17,1.17,0,0,1,.41-0.79c0.15,0,.19.11,0.34,0.68Z"/><path class="cls-1" d="M307.44,90.48c0,1.24.19,2.37,1.36,2.9a0.52,0.52,0,0,1,.38.23,0.47,0.47,0,0,1-.49.15h-4.07a11.22,11.22,0,0,1-.9-3.84h-0.08a7,7,0,0,1-7,4.41c-3.92,0-7.95-1.81-7.95-6.29,0-5.72,8.74-6.29,12.69-6.29h2.15V80.5c0-3.62-1.69-6.18-5.5-6.18-3.46,0-5.5,1-6.85,4.33a1.92,1.92,0,0,1-.3.64,0.68,0.68,0,0,1-.19-0.41l-1-3.39a17.09,17.09,0,0,1,8.89-1.88c4.29,0,8.81,1.54,8.81,6.29V90.48Zm-3.88-8h-2.22c-4.07,0-8.25,1.21-8.25,6.18a4.57,4.57,0,0,0,4.67,4.75c4.44,0,5.8-4.67,5.8-8.29V82.46Z"/><path class="cls-1" d="M316,78.89h0.08c1.47-3.13,4.11-5.42,7.65-5.27l-1.58,3.88a3.88,3.88,0,0,0-2.33-.6c-2.15,0-3.58,2.75-3.58,5.2V89c0,2.37.19,4.14,2.15,4.52a0.44,0.44,0,0,1,.38.23c0,0.11-.11.11-0.3,0.11s-2.11-.11-4.18-0.11-3.8.11-4,.11a0.32,0.32,0,0,1-.34-0.11,0.45,0.45,0,0,1,.41-0.19c1.77-.64,2-1.39,2-4.56V80c0-2.6-.15-4-1.47-4.26a0.83,0.83,0,0,1-.56-0.3,1.72,1.72,0,0,1,.79-0.19A29.15,29.15,0,0,0,316,74v4.86Z"/><path class="cls-1" d="M327.56,81.33c-0.08.87-.11,1.66-0.11,2.45,0,7,3.62,9.6,7.27,9.6,4.33,0,7.53-3,8.81-7.38h0.79c-1.21,5.2-5,8.32-10.09,8.32-6.4,0-11.15-4.33-11.15-10.36s4.75-10.36,11.15-10.36c4.11,0,9.08,2.49,9.6,7.72H327.56Zm11.52-.72c0-3.69-1.77-6.29-5.69-6.29-3.43,0-5.27,3.05-5.69,6.29h11.37Z"/><path class="cls-1" d="M348.94,55.77a2.33,2.33,0,1,1-3.29,3.3,2.27,2.27,0,0,1-.67-1.66A2.32,2.32,0,0,1,348.94,55.77Zm0.27-.26a2.7,2.7,0,1,0,.79,1.91A2.61,2.61,0,0,0,349.21,55.51Zm-1.51,1.78a1.41,1.41,0,0,1-.5.07h-0.47V56.28h0.45a1.35,1.35,0,0,1,.63.11A0.53,0.53,0,0,1,347.7,57.29Zm-1.49,1.6h0.52V57.72h0.41a1.26,1.26,0,0,1,.58.1,0.73,0.73,0,0,1,.28.68v0.39h0.49l0,0a0.48,0.48,0,0,1,0-.15q0-.12,0-0.22V58.26a0.81,0.81,0,0,0-.16-0.46,0.72,0.72,0,0,0-.51-0.29,1.13,1.13,0,0,0,.43-0.14,0.65,0.65,0,0,0,.29-0.58,0.74,0.74,0,0,0-.46-0.75,2.27,2.27,0,0,0-.81-0.11h-1v3Z"/></svg>