<svg id="Layer_1" data-name="Layer 1" xmlns="http://www.w3.org/2000/svg" viewBox="0 0 359.54 135.47"><defs><style>.cls-1{fill:#a90533;}.cls-2{fill:#3e3935;}.cls-3{fill:none;stroke:#3e3935;stroke-width:1px;}.cls-4{fill:#e1dedd;}.cls-5{fill:#68737a;}</style></defs><title>parkwest</title><path class="cls-1" d="M89.26,40.78c0,3.24.59,5.16,3.7,6.41a9.05,9.05,0,0,1,1.72.59c0,0.2-.2.33-0.53,0.33-0.53,0-5-.2-8.73-0.2-6.35,0-7.54.2-7.93,0.2A0.41,0.41,0,0,1,77,47.86a3.53,3.53,0,0,1,1-.46c3-1.45,3.57-3.37,3.57-8.79V13c0-2.91-.07-5.35-2.58-6.61-0.6-.26-0.86-0.26-0.86-0.46s0.33-.33.66-0.33H100.5c6.88,0,19.7,2.12,19.7,11.11S105.79,28.16,97.13,28.16a78.51,78.51,0,0,1-7.87-.33v13Zm0-14.87a23,23,0,0,0,6.68.59c9.92,0,15.4-4,15.4-10.18,0-6.94-7.47-9.06-13.62-9.06H89.26V25.91Z" transform="translate(-0.07)"/><path class="cls-1" d="M153.38,42.17c0,2.18.33,4.17,2.38,5.09a0.91,0.91,0,0,1,.66.4,0.82,0.82,0,0,1-.86.26h-7.14a19.73,19.73,0,0,1-1.59-6.74h-0.13c-2.58,5.36-6.41,7.73-12.23,7.73-6.88,0-13.95-3.17-13.95-11,0-10,15.34-11,22.28-11h3.77V24.66c0-6.35-3-10.84-9.65-10.84-6.08,0-9.65,1.79-12,7.6a3.38,3.38,0,0,1-.53,1.12,1.19,1.19,0,0,1-.33-0.73l-1.72-6c5.42-2.84,9.72-3.3,15.6-3.3,7.54,0,15.47,2.71,15.47,11V42.17Zm-6.81-14.08h-3.9c-7.14,0-14.48,2.12-14.48,10.84a8,8,0,0,0,8.2,8.33c7.8,0,10.18-8.2,10.18-14.54V28.09Z" transform="translate(-0.07)"/><path class="cls-1" d="M166.37,21.82h0.13c2.58-5.49,7.2-9.52,13.42-9.26l-2.78,6.81a6.81,6.81,0,0,0-4.1-1.06c-3.77,0-6.28,4.82-6.28,9.12V39.6c0,4.16.33,7.27,3.77,7.93a0.77,0.77,0,0,1,.66.4c0,0.2-.2.2-0.53,0.2s-3.7-.2-7.34-0.2-6.68.2-7.07,0.2a0.56,0.56,0,0,1-.6-0.2,0.79,0.79,0,0,1,.73-0.33c3.11-1.12,3.57-2.45,3.57-8V23.8c0-4.56-.27-6.94-2.58-7.47a1.46,1.46,0,0,1-1-.53c0.07-.27.92-0.2,1.39-0.33a50.84,50.84,0,0,0,8.59-2.18v8.53Z" transform="translate(-0.07)"/><path class="cls-1" d="M199.62,37.48c-1.39-2.31-4.3-8.13-7.87-8.13-2.31,0-2.31,2.64-2.31,5.49V39.6c0,4.16.33,6.68,3.57,7.8a0.61,0.61,0,0,1,.6.4,0.65,0.65,0,0,1-.73.33c-0.33,0-3.24-.2-6.87-0.2s-6.21.2-6.61,0.2a0.6,0.6,0,0,1-.66-0.33,0.58,0.58,0,0,1,.46-0.4c3.17-1,3.44-4.89,3.44-10.44V10.71c0-3.9-.26-6.94-2.45-7.27-0.73-.13-1.12-0.33-1.12-0.6a2.2,2.2,0,0,1,1.26-.53c3.17-.79,5.95-1.46,9.12-2.31V28.56l11.1-9.25C202.06,18,203,17,203,15.86a2.56,2.56,0,0,0-1.12-1.78,0.93,0.93,0,0,1-.66-0.53c0-.26.4-0.26,0.93-0.26s2.91,0.26,6.34.26c3.24,0,4-.26,6.15-0.26,0.59,0,.92,0,0.92.4s-1.12.4-2.18,0.66A30.83,30.83,0,0,0,202.66,20l-9.78,7.4V27.5c9,0.2,11,3.64,15.53,10.91,2.25,3.57,5,7.27,8.59,8.92a0.9,0.9,0,0,1,.66.46,0.65,0.65,0,0,1-.73.33c-0.33,0-3.3-.2-6.61-0.2-1.52,0-3,.2-4.36.2Z" transform="translate(-0.07)"/><path class="cls-1" d="M226.9,47.79a1.72,1.72,0,0,1-1,1.12h-0.13c-0.4,0-1-.79-1.65-2.18L210.9,19.17c-0.73-1.79-2.31-4.36-4.1-5.22-0.2-.13-0.33-0.13-0.33-0.33s0.4-.33.93-0.33c2.12,0,2.84.26,6.28,0.26,3.24,0,4-.26,6.08-0.26,0.59,0,.92,0,0.92.26s-0.59.46-1.19,0.66a2.46,2.46,0,0,0-1.59,2.25,10.29,10.29,0,0,0,1.46,4.63l9,18,10.18-24.39c0.66-1.52,1-2.11,1.52-2.11h0.13c0.46,0,1.32,1.39,1.65,2.11l11.24,24.39,7.34-16.4a14.6,14.6,0,0,0,1.12-3.9,4.58,4.58,0,0,0-3.3-4.76,0.29,0.29,0,0,1-.26-0.33c0-.4.33-0.4,0.73-0.4,1.65,0,2.25.26,5,.26,2.51,0,3.11-.26,4.76-0.26,0.46,0,.73,0,0.73.26a0.61,0.61,0,0,1-.2.59c-2.91,2.38-4.89,5.95-6.55,9.45L251.15,47.53a2.73,2.73,0,0,1-1.06,1.39H250c-0.4,0-.59-0.53-1-1.39L237.54,21.88Z" transform="translate(-0.07)"/><path class="cls-1" d="M272.68,26.11c-0.13,1.52-.2,2.91-0.2,4.3,0,12.29,6.34,16.86,12.76,16.86,7.6,0,13.22-5.22,15.47-13h1.39c-2.12,9.12-8.72,14.61-17.72,14.61-11.24,0-19.57-7.6-19.57-18.18s8.33-18.18,19.57-18.18c7.21,0,15.93,4.36,16.86,13.55H272.68Zm20.23-1.26c0-6.48-3.11-11-10-11-6,0-9.25,5.36-10,11h20Z" transform="translate(-0.07)"/><path class="cls-1" d="M332.16,20a1,1,0,0,1-.6.79,0.51,0.51,0,0,1-.46-0.53c-0.66-3.7-5.29-6.48-10.71-6.48-5.09,0-9.65,2.25-9.65,7.94,0,4.63,5.75,5.68,11.83,6.08,9.25,0.59,13.48,3,13.48,9.39,0,9.45-11,11.7-18.44,11.7A44.75,44.75,0,0,1,302,46.27l1.39-5.49c0.2-.79.4-1.26,0.6-1.26s0.33,0.27.4,0.6c1.06,5.22,9.06,7.54,13.62,7.54,5.09,0,11.43-1.85,11.43-7.93,0-5-4-5.68-11.7-6.35-5.88-.53-13.62-2.38-13.62-9.72,0-9.12,10.18-11.11,17.39-11.11a35.76,35.76,0,0,1,12.29,2.51Z" transform="translate(-0.07)"/><path class="cls-1" d="M337.82,17.32a0.61,0.61,0,0,1-.66-0.6c0-.33.53-0.59,1.32-0.92,3.77-1.32,6.94-4.36,9.39-9.39a0.88,0.88,0,0,1,.73-0.66c0.33,0,.33.46,0.33,0.93V15.2h7.34l-0.46,2.12h-6.87V36.09c0,8.79,2.11,10.38,4.23,11.1a1,1,0,0,1,.79.46,1.11,1.11,0,0,1-1.06.26h-8c-1.85-.86-2.78-2.31-2.78-4.83V17.32h-4.3Z" transform="translate(-0.07)"/><path class="cls-2" d="M86.9,66.63l5.37-12.57H94.6a2.1,2.1,0,0,0-.24,1,6.58,6.58,0,0,0,.07.69l1.37,12.55a3.19,3.19,0,0,0,.47,1.33H94a2.08,2.08,0,0,0,.18-0.8l0-.24L92.78,56,86.77,70,80.65,56.41,79.85,68.5l0,0.33a1.16,1.16,0,0,0,.27.75H78.23a2.27,2.27,0,0,0,.29-1.09l1-13.19a3.28,3.28,0,0,0,0-.47,1.89,1.89,0,0,0-.18-0.78h1.84Z" transform="translate(-0.07)"/><path class="cls-2" d="M109.74,54.06v1.46a4.87,4.87,0,0,0-2.64-.38l-3.17,0v5.3h5.81v1.44a5.08,5.08,0,0,0-2.64-.36l-3.17,0v6.74h5.17a5.17,5.17,0,0,0,2.24-.42l-0.49,1.68h-8.91a1.21,1.21,0,0,0,.33-1V54.86a1.18,1.18,0,0,0-.33-0.8h7.8Z" transform="translate(-0.07)"/><path class="cls-2" d="M116.72,54.06l3.64,0c0.89,0,1.77,0,2.66.07,4.59,0.29,7.4,3.06,7.4,7.76,0,6.23-5,7.76-10.24,7.76-1.17,0-2.33,0-3.48,0a1.35,1.35,0,0,0,.35-1.11V55.06A2,2,0,0,0,116.72,54.06Zm2,1.22V68.45h1.69c4.43,0,8.31-1.31,8.31-6.56,0-4.35-2.86-6.78-7.07-6.78C120.65,55.1,119.67,55.19,118.69,55.28Z" transform="translate(-0.07)"/><path class="cls-2" d="M138.6,54.06a1.12,1.12,0,0,0-.33.89v13.9a0.92,0.92,0,0,0,.33.73h-2.33a1.35,1.35,0,0,0,.35-1V54.9a1.25,1.25,0,0,0-.35-0.84h2.33Z" transform="translate(-0.07)"/><path class="cls-2" d="M152.73,55c-4,0-6.78,2.62-6.78,6.69,0,4.5,3.17,6.85,7.43,6.85a8.51,8.51,0,0,0,4.21-1.2l-0.78,2a8.92,8.92,0,0,1-3.17.42c-5,0-9.42-2.51-9.42-8.07,0-4.86,4.1-7.72,8.65-7.72a14.33,14.33,0,0,1,3.77.53V56.1A6.71,6.71,0,0,0,152.73,55Z" transform="translate(-0.07)"/><path class="cls-2" d="M175,69.58a3.69,3.69,0,0,0,0-.49c0-.75-1.77-4.41-2.19-5.39h-6.36c-0.4.93-2.33,4.92-2.33,5.57a0.53,0.53,0,0,0,.11.31h-2.06a2.26,2.26,0,0,0,1-1.22l5.48-12.66a2.55,2.55,0,0,0,.18-1,3.44,3.44,0,0,0-.09-0.64h1.84l6,13.83a5.16,5.16,0,0,0,1.06,1.68H175ZM169.6,56.23L167,62.6h5.39Z" transform="translate(-0.07)"/><path class="cls-2" d="M183.1,54.06h2.33a1.16,1.16,0,0,0-.33,1v13.3H191a2.24,2.24,0,0,0,1.64-.58l-0.51,1.84h-9a1.25,1.25,0,0,0,.33-0.91V54.79A1.17,1.17,0,0,0,183.1,54.06Z" transform="translate(-0.07)"/><path class="cls-2" d="M214.71,55c-4,0-6.78,2.62-6.78,6.69,0,4.5,3.17,6.85,7.43,6.85a8.51,8.51,0,0,0,4.21-1.2l-0.78,2a8.92,8.92,0,0,1-3.17.42c-5,0-9.42-2.51-9.42-8.07,0-4.86,4.1-7.72,8.65-7.72a14.33,14.33,0,0,1,3.77.53V56.1A6.71,6.71,0,0,0,214.71,55Z" transform="translate(-0.07)"/><path class="cls-2" d="M233.16,54.06v1.46a4.87,4.87,0,0,0-2.64-.38l-3.17,0v5.3h5.81v1.44a5.08,5.08,0,0,0-2.64-.36l-3.17,0v6.74h5.17a5.17,5.17,0,0,0,2.24-.42l-0.49,1.68h-8.91a1.21,1.21,0,0,0,.33-1V54.86a1.18,1.18,0,0,0-.33-0.8h7.8Z" transform="translate(-0.07)"/><path class="cls-2" d="M241.67,68.72v0.13a0.92,0.92,0,0,0,.33.73H240.1a1.45,1.45,0,0,0,.36-1.15V55.68a2.36,2.36,0,0,0-.51-1.62h2l10.93,12.13c0-2.55.07-5.1,0.07-7.65,0-.93.16-3.86-0.4-4.48h1.91a1.41,1.41,0,0,0-.33,1.17V70.09L241.67,56.21v12.5Z" transform="translate(-0.07)"/><path class="cls-2" d="M264.62,69.58a1.12,1.12,0,0,0,.33-0.89V55.17h-3.72a2.69,2.69,0,0,0-1.38.33l0.29-1.44h11.31l0.29,1.44a4.91,4.91,0,0,0-2.46-.35l-2.66,0V68.85a0.92,0.92,0,0,0,.33.73h-2.33Z" transform="translate(-0.07)"/><path class="cls-2" d="M285.1,54.06v1.46a4.87,4.87,0,0,0-2.64-.38l-3.17,0v5.3h5.81v1.44a5.08,5.08,0,0,0-2.64-.36l-3.17,0v6.74h5.17a5.17,5.17,0,0,0,2.24-.42l-0.49,1.68H277.3a1.21,1.21,0,0,0,.33-1V54.86a1.18,1.18,0,0,0-.33-0.8h7.8Z" transform="translate(-0.07)"/><path class="cls-2" d="M292.19,69.58a1.23,1.23,0,0,0,.33-1V54.86a1.18,1.18,0,0,0-.33-0.8h2.42c2.82,0,5.88,0,5.88,3.72a3.75,3.75,0,0,1-4.26,3.59,4.14,4.14,0,0,1,.91.84l5,6.16a5.2,5.2,0,0,0,1.22,1.2H301l-6.76-8.65c0,1.77,0,3.55,0,5.32,0,0.71-.16,2.9.38,3.33h-2.33Zm2-14.39v5.39a12.07,12.07,0,0,0,1.26.07c1.93,0,3.39-.64,3.39-2.82,0-2-1.37-2.73-3.19-2.73C295.17,55.1,294.68,55.15,294.19,55.19Z" transform="translate(-0.07)"/><path class="cls-2" d="M186.61,114.92c-4.74,3.83-11,5.13-17,5.13-11.06,0-21.32-6.2-21.32-19.18,0-11.62,10.26-19.18,21.32-19.18,5.19,0,11.56,1.35,16.19,4.29L184,91.29a6.62,6.62,0,0,1-.79,1.92,3.3,3.3,0,0,1-.62-1.47c-1.18-4.91-4.68-8.84-13-9-10.27,0-14.9,9.74-14.9,18.15S159.76,119,171.83,119c5.53,0,9.7-3.37,12.18-9.07,0.28-.68.34-1.18,0.62-1.18s0.28,0.17.51,1Z" transform="translate(-0.07)"/><path class="cls-2" d="M228,113.19l6-11.61a13.45,13.45,0,0,0,1.59-4.9c0-1.58-1-2.14-2.15-2.52a0.43,0.43,0,0,1-.42-0.28c0-.14.19-0.19,0.47-0.19,1.21,0,1.63.19,3.54,0.19s2.24-.19,3.45-0.19c0.32,0,.61,0,0.61.14a0.76,0.76,0,0,1-.42.56c-1.54,1.07-3.17,3.54-4.76,6.39l-9.09,17.39a1.34,1.34,0,0,1-.56.65h-0.09a1.41,1.41,0,0,1-.47-0.7l-8.16-15.9c-1.77-3.54-3.26-6.57-5.22-7.88a1,1,0,0,1-.56-0.47c0-.19.28-0.19,0.61-0.19,0.75,0,1.91.19,4.15,0.19s3.82-.19,4.19-0.19a0.67,0.67,0,0,1,.61.19,0.58,0.58,0,0,1-.42.37,1.67,1.67,0,0,0-1.3,1.77,9.37,9.37,0,0,0,1.16,3.17Z" transform="translate(-0.07)"/><path class="cls-2" d="M243,102.75c-0.09,1.07-.14,2.05-0.14,3,0,8.67,4.48,11.89,9,11.89,5.36,0,9.32-3.68,10.91-9.14h1c-1.49,6.43-6.15,10.3-12.5,10.3-7.93,0-13.8-5.36-13.8-12.82s5.88-12.82,13.8-12.82c5.08,0,11.24,3.08,11.89,9.56H243Zm14.27-.89c0-4.57-2.19-7.79-7-7.79-4.24,0-6.53,3.78-7,7.79h14.08Z" transform="translate(-0.07)"/><path class="cls-2" d="M269.69,100.42h0.09c1.07-4,3.36-7.23,9.51-7.23,5.13,0,9.93,2.66,9.93,10.07v9c-0.09,4.43.51,5.08,1.86,5.55a1,1,0,0,1,.61.33c0,0.14-.23.14-0.7,0.14s-1.63-.14-4.2-0.14-4.2.14-4.8,0.14c-0.28,0-.51,0-0.51-0.14s0.09-.23.42-0.28c1.68-.19,2.52-1.45,2.52-5.6v-9c0-4.29-1.91-8.86-6.85-8.86-5.55,0-7.37,5.69-7.37,12.22v5.69c0,2.94.14,5.13,2.24,5.5,0.33,0,.51.14,0.51,0.28s-0.14.23-.42,0.23-2.24-.14-4.76-0.14-4.66.14-5,.14-0.42,0-.42-0.23,0.19-.23.51-0.28c2.33-.37,2.52-2.56,2.52-5.5V100.7c0-2.8-.33-4.38-1.63-4.94a2.09,2.09,0,0,1-.84-0.47,1.26,1.26,0,0,1,.89-0.23,40.79,40.79,0,0,0,5.88-1.35v6.72Z" transform="translate(-0.07)"/><path class="cls-2" d="M314.36,114.08c0,1.54.23,2.94,1.68,3.59a0.64,0.64,0,0,1,.47.28,0.57,0.57,0,0,1-.61.19h-5a13.88,13.88,0,0,1-1.12-4.76h-0.09c-1.82,3.78-4.52,5.45-8.63,5.45-4.85,0-9.84-2.24-9.84-7.79,0-7.09,10.82-7.79,15.71-7.79h2.66v-1.54c0-4.48-2.1-7.65-6.81-7.65-4.29,0-6.81,1.26-8.49,5.36a2.42,2.42,0,0,1-.37.79,0.84,0.84,0,0,1-.23-0.51l-1.21-4.2c3.82-2,6.85-2.33,11-2.33,5.32,0,10.91,1.91,10.91,7.79v13.1Zm-4.8-9.93h-2.75c-5,0-10.21,1.49-10.21,7.65a5.66,5.66,0,0,0,5.78,5.88c5.5,0,7.18-5.78,7.18-10.26v-3.26Z" transform="translate(-0.07)"/><path class="cls-2" d="M323.26,100.42h0.09c1.07-4,3.36-7.23,9.51-7.23,5.13,0,9.93,2.66,9.93,10.07v9c-0.09,4.43.51,5.08,1.86,5.55a1,1,0,0,1,.61.33c0,0.14-.23.14-0.7,0.14s-1.63-.14-4.2-0.14-4.2.14-4.8,0.14c-0.28,0-.51,0-0.51-0.14s0.09-.23.42-0.28c1.68-.19,2.52-1.45,2.52-5.6v-9c0-4.29-1.91-8.86-6.86-8.86-5.55,0-7.37,5.69-7.37,12.22v5.69c0,2.94.14,5.13,2.24,5.5,0.33,0,.51.14,0.51,0.28s-0.14.23-.42,0.23-2.24-.14-4.76-0.14-4.66.14-5,.14-0.42,0-.42-0.23,0.19-.23.51-0.28c2.33-.37,2.52-2.56,2.52-5.5V100.7c0-2.8-.33-4.38-1.63-4.94a2.09,2.09,0,0,1-.84-0.47,1.26,1.26,0,0,1,.88-0.23,40.79,40.79,0,0,0,5.88-1.35v6.72Z" transform="translate(-0.07)"/><path class="cls-2" d="M343.89,96.55a0.43,0.43,0,0,1-.47-0.42,1.3,1.3,0,0,1,.93-0.66c2.66-.93,4.9-3.08,6.62-6.62a0.62,0.62,0,0,1,.51-0.47c0.23,0,.23.33,0.23,0.65v6h5.18l-0.33,1.49h-4.85v13.24c0,6.2,1.49,7.32,3,7.83a0.68,0.68,0,0,1,.56.33,0.77,0.77,0,0,1-.75.19h-5.64a3.31,3.31,0,0,1-2-3.4V96.55h-3Z" transform="translate(-0.07)"/><path class="cls-2" d="M270.92,127.37v-4.57c0-.93-0.25-1.67-1-1.85a0.54,0.54,0,0,1-.23-0.14c0-.07.13-0.09,0.34-0.09,0.36,0,1.45.09,2.17,0.09s1.81-.09,2.17-0.09c0.2,0,.34,0,0.34.09a0.56,0.56,0,0,1-.23.14c-0.73.18-1,.93-1,1.85v10a2.08,2.08,0,0,0,1.22,2.26,0.27,0.27,0,0,1,.2.18c0,0.07-.14.07-0.36,0.07-0.82,0-1.09-.07-2.38-0.07s-1.56.07-2.38,0.07c-0.23,0-.36,0-0.36-0.07a0.27,0.27,0,0,1,.2-0.18,2.08,2.08,0,0,0,1.22-2.26v-4.91H262.3v4.91a2.08,2.08,0,0,0,1.22,2.26,0.27,0.27,0,0,1,.2.18c0,0.07-.14.07-0.36,0.07-0.81,0-1.09-.07-2.38-0.07s-1.56.07-2.38,0.07c-0.23,0-.36,0-0.36-0.07a0.27,0.27,0,0,1,.2-0.18,2.08,2.08,0,0,0,1.22-2.26v-10c0-.93-0.25-1.67-1-1.85a0.54,0.54,0,0,1-.23-0.14c0-.07.13-0.09,0.34-0.09,0.36,0,1.45.09,2.17,0.09s1.81-.09,2.17-0.09c0.2,0,.34,0,0.34.09a0.55,0.55,0,0,1-.23.14c-0.72.18-1,.93-1,1.85v4.57h8.62Z" transform="translate(-0.07)"/><path class="cls-2" d="M280.37,127.37h4.19c1.65,0,3.1-.77,3.42-1.7a0.24,0.24,0,0,1,.18-0.2c0.07,0,.09.11,0.09,0.34v3.73c0,0.39,0,.48-0.09.48a0.45,0.45,0,0,1-.18-0.32c-0.66-1.68-2.51-1.77-4.09-1.77h-3.51v4.78c0,1.65.57,2,2.11,2H285a9.62,9.62,0,0,0,5.91-2.47,3.16,3.16,0,0,1,.61-0.47,0.06,0.06,0,0,1,.07.07,0.87,0.87,0,0,1,0,.18l-1,3.26H276.79a0.83,0.83,0,0,1-.68-0.09c0-.07.48-0.2,0.63-0.34,0.84-.66,1-1.29,1-3.35v-7.69c0-1.47-.09-2.45-1-2.67a0.82,0.82,0,0,1-.38-0.2c0-.09.09-0.14,0.43-0.14h12.79l0.61,2.13a3.25,3.25,0,0,1,.2.84,0.16,0.16,0,0,1-.11.18,0.38,0.38,0,0,1-.27-0.2c-1-1.56-3.35-2.38-5.48-2.38h-4.16v6Z" transform="translate(-0.07)"/><path class="cls-2" d="M297.42,128.68l-1.22,2.38a5.74,5.74,0,0,0-.79,2.58,1.43,1.43,0,0,0,1.22,1.45c0.18,0,.25.09,0.25,0.16s-0.11.12-.27,0.12-1-.07-2.22-0.07c-0.91,0-1.49.07-1.77,0.07s-0.29,0-.29-0.12a0.8,0.8,0,0,1,.43-0.36,13.94,13.94,0,0,0,2.63-3.57l5.55-10.77a0.31,0.31,0,0,1,.16-0.18h0a0.28,0.28,0,0,1,.18.18L308,133a5.77,5.77,0,0,0,1.52,1.88,1.39,1.39,0,0,1,.52.38c0,0.07-.11.12-0.32,0.12s-1.22-.07-2.54-0.07c-1.86,0-2.6.07-2.74,0.07a0.23,0.23,0,0,1-.23-0.07c0-.09.11-0.13,0.29-0.18a1,1,0,0,0,.63-1.18,9.29,9.29,0,0,0-1-2.58l-1.29-2.67h-5.39Zm2.67-5.28-2.38,4.71h4.8Z" transform="translate(-0.07)"/><path class="cls-2" d="M314.9,132.28c0,2.26.86,2.45,2.78,2.45h1.2a8.71,8.71,0,0,0,6-2.63,1.72,1.72,0,0,1,.48-0.54,0.14,0.14,0,0,1,.14.16,2.46,2.46,0,0,1-.09.32l-0.93,3.26H311.12c-0.38,0-.5,0-0.5-0.11a1.64,1.64,0,0,1,.54-0.2c0.88-.39,1.11-1.22,1.11-3.24v-8.94a1.74,1.74,0,0,0-1-1.81,0.28,0.28,0,0,1-.23-0.18c0-.07.14-0.09,0.34-0.09,0.36,0,1.45.09,2.17,0.09s1.81-.09,2.17-0.09c0.2,0,.27,0,0.27.11a0.29,0.29,0,0,1-.2.13,1.73,1.73,0,0,0-.93,1.83v9.48Z" transform="translate(-0.07)"/><path class="cls-2" d="M328.82,122.41c0-.88-0.38-1-1.4-1a6.83,6.83,0,0,0-4.77,2.24,2.53,2.53,0,0,1-.41.39,0.13,0.13,0,0,1-.11-0.13,3.7,3.7,0,0,1,.16-0.52L323,120.8h14.26l0.72,2.53a3.71,3.71,0,0,1,.16.52,0.13,0.13,0,0,1-.11.13,2.49,2.49,0,0,1-.41-0.39,6.83,6.83,0,0,0-4.78-2.24c-1,0-1.4.16-1.4,1v10.43c0,1.11.29,2,1.36,2.2a0.36,0.36,0,0,1,.34.18,0.2,0.2,0,0,1-.18.14c-0.16,0-1.54-.07-2.83-0.07s-2.63.07-2.78,0.07-0.2,0-.2-0.12a0.78,0.78,0,0,1,.43-0.18c1-.45,1.24-1.11,1.24-3.21v-9.44Z" transform="translate(-0.07)"/><path class="cls-2" d="M351.8,127.37v-4.57c0-.93-0.25-1.67-1-1.85a0.56,0.56,0,0,1-.23-0.14c0-.07.14-0.09,0.34-0.09,0.36,0,1.45.09,2.17,0.09s1.81-.09,2.17-0.09c0.2,0,.34,0,0.34.09a0.55,0.55,0,0,1-.23.14c-0.72.18-1,.93-1,1.85v10a2.08,2.08,0,0,0,1.22,2.26,0.27,0.27,0,0,1,.2.18c0,0.07-.13.07-0.36,0.07-0.81,0-1.09-.07-2.38-0.07s-1.56.07-2.38,0.07c-0.23,0-.36,0-0.36-0.07a0.27,0.27,0,0,1,.2-0.18,2.08,2.08,0,0,0,1.22-2.26v-4.91h-8.62v4.91a2.08,2.08,0,0,0,1.22,2.26,0.27,0.27,0,0,1,.2.18c0,0.07-.14.07-0.36,0.07-0.81,0-1.09-.07-2.38-0.07s-1.56.07-2.38,0.07c-0.23,0-.36,0-0.36-0.07a0.27,0.27,0,0,1,.2-0.18,2.08,2.08,0,0,0,1.22-2.26v-10c0-.93-0.25-1.67-1-1.85a0.55,0.55,0,0,1-.23-0.14c0-.07.14-0.09,0.34-0.09,0.36,0,1.45.09,2.17,0.09s1.81-.09,2.17-0.09c0.2,0,.34,0,0.34.09a0.55,0.55,0,0,1-.23.14c-0.72.18-1,.93-1,1.85v4.57h8.62Z" transform="translate(-0.07)"/><path class="cls-2" d="M215.62,104.06c-0.18,3.56-.76,6.25-2.72,9a12,12,0,0,1-13.15,4.61c-5.12-1.44-10.9-8.21-7.55-15.88A10,10,0,0,1,199.63,96a10.69,10.69,0,0,0-8.68,4.09,12.7,12.7,0,0,0,4.16,19.21A14.56,14.56,0,0,0,214,113.36,15.69,15.69,0,0,0,215.62,104.06Z" transform="translate(-0.07)"/><path class="cls-2" d="M187,108.52c0.18-3.56.76-6.25,2.72-9a12,12,0,0,1,13.15-4.61c5.12,1.44,10.9,8.21,7.55,15.88a10,10,0,0,1-7.43,5.83,10.69,10.69,0,0,0,8.68-4.09,12.7,12.7,0,0,0-4.16-19.21,14.56,14.56,0,0,0-18.92,5.92A15.68,15.68,0,0,0,187,108.52Z" transform="translate(-0.07)"/><path class="cls-2" d="M359,132.83a1.42,1.42,0,0,1,0,2A1.41,1.41,0,1,1,359,132.83Zm0.16-.16a1.63,1.63,0,0,0-2.3,0,1.63,1.63,0,1,0,2.3,2.31A1.63,1.63,0,0,0,359.14,132.68Zm-0.91,1.08a0.84,0.84,0,0,1-.3,0h-0.28v-0.65h0.27a0.8,0.8,0,0,1,.38.07,0.27,0.27,0,0,1,.12.26A0.28,0.28,0,0,1,358.22,133.75Zm-0.9,1h0.32V134h0.25a0.74,0.74,0,0,1,.35.06,0.44,0.44,0,0,1,.17.41v0.24h0.3v0a0.27,0.27,0,0,1,0-.09s0-.09,0-0.13v-0.13a0.49,0.49,0,0,0-.1-0.28,0.44,0.44,0,0,0-.31-0.18,0.66,0.66,0,0,0,.26-0.09,0.39,0.39,0,0,0,.18-0.35,0.44,0.44,0,0,0-.28-0.45,1.36,1.36,0,0,0-.49-0.06h-0.63v1.79Z" transform="translate(-0.07)"/><line class="cls-3" x1="357.3" y1="75.36" x2="77.61" y2="75.36"/><polygon class="cls-4" points="12.19 57.63 0 57.63 5.37 18.01 17.57 18.01 19.21 5.82 58.83 5.82 57.18 18.01 69.37 18.01 64 57.63 51.82 57.63 50.16 69.82 10.54 69.82 12.19 57.63"/><path class="cls-1" d="M15,37.78c-3.69,12.07-3.34,17.91-9.4,19.84,9.64,0,11.91-10.89,14.3-18.91,3.59-12.09,3.48-17.87,9.55-19.77C19.76,18.93,17.43,29.77,15,37.78Z" transform="translate(-0.07)"/><path class="cls-1" d="M21.35,37.78C17.66,49.85,18,55.69,12,57.61c9.64,0,11.91-10.89,14.3-18.91,3.59-12.09,3.48-17.87,9.55-19.77C26.13,18.93,23.8,29.77,21.35,37.78Z" transform="translate(-0.07)"/><path class="cls-1" d="M27.71,37.78C24,49.85,24.37,55.69,18.32,57.61c9.64,0,11.91-10.89,14.3-18.91,3.59-12.09,3.48-17.87,9.55-19.77C32.49,18.93,30.16,29.77,27.71,37.78Z" transform="translate(-0.07)"/><path class="cls-1" d="M34.47,16.1c11.53,0,20.88,7.68,20.88,17.15S46,50.4,34.47,50.4A25.51,25.51,0,0,1,31,50.18a29,29,0,0,0,6.3.69c13.11,0,23.74-8.6,23.74-19.21S50.45,12.46,37.34,12.46s-24.29,9-23.72,19.95C14.16,23.32,23.29,16.1,34.47,16.1Z" transform="translate(-0.07)"/><path class="cls-5" d="M5.92,64.54a3.06,3.06,0,0,1,0,4.3,2.9,2.9,0,0,1-2.14.89,2.9,2.9,0,0,1-2.14-.89,3,3,0,0,1-.88-2.16,2.93,2.93,0,0,1,.88-2.14,2.9,2.9,0,0,1,2.14-.89A2.91,2.91,0,0,1,5.92,64.54Zm0.35-.34a3.4,3.4,0,0,0-2.49-1,3.38,3.38,0,0,0-2.48,1,3.53,3.53,0,0,0,0,5,3.37,3.37,0,0,0,2.49,1,3.39,3.39,0,0,0,2.49-1,3.41,3.41,0,0,0,1-2.5A3.37,3.37,0,0,0,6.27,64.2Zm-2,2.32a1.84,1.84,0,0,1-.65.09H3V65.2H3.62a1.76,1.76,0,0,1,.82.14A0.7,0.7,0,0,1,4.3,66.51ZM2.36,68.6H3V67.08H3.58a1.63,1.63,0,0,1,.76.12,1,1,0,0,1,.36.89V68.6H5.37l0,0a0.62,0.62,0,0,1,0-.2q0-.15,0-0.29V67.78a1.06,1.06,0,0,0-.21-0.6,0.94,0.94,0,0,0-.67-0.38A1.47,1.47,0,0,0,5,66.62a0.84,0.84,0,0,0,.38-0.76,1,1,0,0,0-.6-1,3,3,0,0,0-1.05-.14H2.36V68.6Z" transform="translate(-0.07)"/></svg>