<svg id="Layer_1" data-name="Layer 1" xmlns="http://www.w3.org/2000/svg" viewBox="0 0 359.97 146.21"><defs><style>.cls-1{fill:#77777a;}.cls-2{fill:#002e6d;}.cls-3{fill:#4e9d2d;}</style></defs><title>roane-medical-center</title><path class="cls-1" d="M253.66,47.74c3.21-.56,3.95-1.61,3.95-4.92V28.58c0-1.71-1-2.9-3.95-3V24.81h8l7.26,18.92h0.17l7.05-18.92h7.68v0.77c-3,.1-3.77.73-3.77,2V45.68c0,1.29.77,1.88,3.77,2v0.8h-10.4v-0.8c3-.11,3.32-0.63,3.32-2V27h-0.18l-8.17,21.47h-0.94L258.9,27h-0.17V42.82c0,3.32.56,4.36,3.87,4.92v0.73h-8.94V47.74Z"/><path class="cls-1" d="M282.11,40.62c0-4.78,3.25-8.45,7.54-8.45,4.57,0,6.74,3.63,6.46,7.47H285.33v0.63c0,3.87,1.88,6.88,5.48,6.88,2.09,0,3.53-1.22,5-3l0.52,0.45c-1.29,2.16-3.11,4.15-6.63,4.15C284.94,48.76,282.11,45.23,282.11,40.62Zm3.25-1.78,7.54-.1c0.31-3.35-.8-5.73-3.49-5.73C287.21,33,285.64,34.79,285.36,38.84Z"/><path class="cls-1" d="M297.06,40.66c0-4.85,3.25-8.48,7.85-8.48a6.66,6.66,0,0,1,3.73.94v-6.7c0-1.15-.52-1.68-2.83-1.75V23.94l5.76-.14V46.49c0,0.84.52,1.22,2.55,1.26v0.73l-5.41.14V46.77a6.64,6.64,0,0,1-4.82,2C299.61,48.76,297.06,45.16,297.06,40.66Zm11.59,5.1V35A4,4,0,0,0,305,33c-2.69,0-4.71,2.83-4.71,7.57,0,3.84,1.81,6.7,5,6.7A4.73,4.73,0,0,0,308.65,45.76Z"/><path class="cls-1" d="M314,47.71c2,0,2.55-.28,2.55-1.29V35c0-1-.49-1.71-2.51-1.75V32.52l5.45-.14v14c0,1,.49,1.26,2.62,1.29v0.77H314V47.71Zm1.92-21a2,2,0,0,1,2-2.09,1.89,1.89,0,0,1,2,2,1.9,1.9,0,0,1-2,2.06A1.86,1.86,0,0,1,315.91,26.73Z"/><path class="cls-1" d="M322.37,40.69c0-4.92,3.49-8.52,8-8.52,3.67,0,5.55,2.06,5.55,3.7a1.8,1.8,0,0,1-1.75,2,1.74,1.74,0,0,1-1.88-1.82,2.18,2.18,0,0,1,1-1.89A3.93,3.93,0,0,0,330.4,33c-2.72,0-4.85,2.41-4.85,6.91,0,4.15,2,7.16,5.52,7.16,2,0,3.32-1,4.68-2.55L336.26,45c-1.43,2.09-3.25,3.77-6.6,3.77C325.23,48.76,322.37,45.27,322.37,40.69Z"/><path class="cls-1" d="M336.68,45a3.92,3.92,0,0,1,2.09-3.56c2.65-1.47,6.81-2,7.33-2.37V37.48c0-3.11-.91-4.36-3.14-4.36a3.55,3.55,0,0,0-2.72,1,3.19,3.19,0,0,1,.66,1.71,1.77,1.77,0,0,1-1.85,1.89,1.74,1.74,0,0,1-1.74-1.89c0-2,2.69-3.6,6-3.6,3.63,0,5.69,1.54,5.69,4.89v8.2c0,1.71.49,2.37,2.69,1.82l0.14,0.59a7.08,7.08,0,0,1-3.18.84c-1.82,0-2.3-.8-2.44-2.69h-0.14a7,7,0,0,1-5.17,2.76C338,48.69,336.68,46.91,336.68,45Zm9.43-.14V40c-5.1,1.12-6.18,2-6.18,4.29a2.49,2.49,0,0,0,2.69,2.79A4.77,4.77,0,0,0,346.11,44.88Z"/><path class="cls-1" d="M351.14,47.71c2,0,2.55-.28,2.55-1.29v-20c0-1.15-.52-1.68-2.83-1.75V23.94l5.76-.14V46.42c0,1,.49,1.26,2.55,1.29v0.77h-8V47.71Z"/><path class="cls-1" d="M253.66,66c0-7.23,5.34-12.67,12.15-12.67a12.26,12.26,0,0,1,5.93,1.47L273,53.26h0.73V61H273c-1.61-4.33-4-6.77-7.54-6.77-4.12,0-8,3.63-8,11.59,0,7.58,4.61,10.72,8.62,10.72s6.63-2.65,8-5.69L275,71.35c-1.47,3.32-4.54,6.81-9.81,6.81C258.41,78.15,253.66,73.3,253.66,66Z"/><path class="cls-1" d="M275.66,69.7c0-4.78,3.25-8.45,7.54-8.45,4.57,0,6.74,3.63,6.46,7.47H278.87v0.63c0,3.87,1.88,6.88,5.48,6.88,2.09,0,3.53-1.22,5-3l0.52,0.45c-1.29,2.16-3.11,4.15-6.63,4.15C278.48,77.84,275.66,74.31,275.66,69.7Zm3.25-1.78,7.54-.1c0.31-3.35-.8-5.73-3.49-5.73C280.75,62.09,279.18,63.87,278.9,67.92Z"/><path class="cls-1" d="M290.35,76.79c2,0,2.55-.28,2.55-1.29V64.08c0-1-.52-1.71-2.55-1.75V61.61l5.41-.14v3.18a8.32,8.32,0,0,1,6.18-3.28c2.48,0,4.08,1.64,4.08,4.78V75.5c0,1,.49,1.26,2.55,1.29v0.77h-7.72V76.79c1.78,0,2.23-.28,2.23-1.29V67.23c0-2.93-1-4-3.21-4a5.13,5.13,0,0,0-4.05,2.44V75.5c0,1,.45,1.26,2.2,1.29v0.77h-7.68V76.79Z"/><path class="cls-1" d="M310,73.47V62.9h-3.14V62.23L310,61.5V57.07l2.9-1.26v5.79h5v1.26h-5V73.44c0,2,.66,2.86,2.1,2.86,1,0,1.92-.73,2.83-2.13l0.59,0.42c-1.22,2.23-2.62,3.32-4.71,3.32C311.2,77.91,310,76.41,310,73.47Z"/><path class="cls-1" d="M318.11,69.7c0-4.78,3.25-8.45,7.54-8.45,4.57,0,6.74,3.63,6.46,7.47H321.32v0.63c0,3.87,1.88,6.88,5.48,6.88,2.09,0,3.53-1.22,5-3l0.52,0.45c-1.29,2.16-3.11,4.15-6.63,4.15C320.94,77.84,318.11,74.31,318.11,69.7Zm3.25-1.78,7.54-.1c0.31-3.35-.8-5.73-3.49-5.73C323.21,62.09,321.64,63.87,321.36,67.92Z"/><path class="cls-1" d="M332.46,76.79c2,0,2.55-.28,2.55-1.29V64.08c0-1-.52-1.71-2.55-1.75V61.61l5.41-.14v3.14c1.26-1.92,2.86-3.28,4.64-3.28a2.29,2.29,0,0,1,2.55,2.34,1.82,1.82,0,0,1-1.82,2,1.79,1.79,0,0,1-1.92-1.85,3,3,0,0,1,.14-0.77c-1.57.11-2.62,1.15-3.53,2.62V75.5c0,1,.66,1.26,2.93,1.29v0.77h-8.41V76.79Z"/><path class="cls-2" d="M178.64,124.68c-5,4-11.53,5.38-17.86,5.38-11.58,0-22.35-6.5-22.35-20.1,0-12.18,10.76-20.1,22.35-20.1,5.44,0,12.12,1.42,17,4.49l-1.83,5.56a6.79,6.79,0,0,1-.83,2,3.43,3.43,0,0,1-.65-1.54c-1.24-5.14-4.91-9.27-13.66-9.44-10.76,0-15.61,10.21-15.61,19s5.33,19,18,19c5.8,0,10.17-3.53,12.77-9.5,0.3-.71.36-1.24,0.65-1.24s0.3,0.18.54,1.07Z"/><path class="cls-2" d="M222.06,122.87l6.25-12.17a14.11,14.11,0,0,0,1.66-5.13c0-1.66-1.07-2.25-2.25-2.64a0.46,0.46,0,0,1-.44-0.29c0-.15.19-0.2,0.49-0.2,1.27,0,1.71.2,3.72,0.2s2.34-.2,3.61-0.2c0.34,0,.64,0,0.64.15a0.79,0.79,0,0,1-.44.58c-1.61,1.13-3.32,3.72-5,6.69l-9.53,18.23a1.42,1.42,0,0,1-.59.68h-0.1a1.48,1.48,0,0,1-.49-0.73l-8.55-16.67c-1.86-3.71-3.42-6.89-5.47-8.26a1,1,0,0,1-.59-0.49c0-.2.29-0.2,0.64-0.2,0.78,0,2,.2,4.35.2s4-.2,4.4-0.2a0.71,0.71,0,0,1,.64.2,0.6,0.6,0,0,1-.44.39,1.75,1.75,0,0,0-1.37,1.86,9.86,9.86,0,0,0,1.22,3.32Z"/><path class="cls-2" d="M237.74,111.92c-0.1,1.12-.15,2.15-0.15,3.18,0,9.09,4.7,12.46,9.43,12.46,5.62,0,9.78-3.86,11.44-9.58h1c-1.56,6.74-6.45,10.8-13.1,10.8-8.3,0-14.47-5.62-14.47-13.44s6.16-13.44,14.47-13.44c5.33,0,11.78,3.23,12.46,10H237.74Zm15-.93c0-4.79-2.3-8.16-7.38-8.16-4.44,0-6.84,4-7.38,8.16h14.76Z"/><path class="cls-2" d="M265.72,109.47h0.1c1.12-4.16,3.52-7.58,10-7.58,5.38,0,10.41,2.79,10.41,10.56v9.43c-0.1,4.64.54,5.32,2,5.81a1,1,0,0,1,.64.35c0,0.14-.24.14-0.73,0.14s-1.71-.14-4.4-0.14-4.4.14-5,.14c-0.29,0-.54,0-0.54-0.14s0.1-.24.44-0.29c1.76-.2,2.64-1.52,2.64-5.87V112.4c0-4.5-2-9.28-7.19-9.28-5.82,0-7.72,6-7.72,12.8v6c0,3.08.15,5.37,2.35,5.76,0.34,0,.54.15,0.54,0.29s-0.15.24-.44,0.24-2.35-.14-5-0.14-4.89.14-5.23,0.14-0.44,0-.44-0.24,0.2-.24.54-0.29c2.44-.39,2.64-2.69,2.64-5.76V109.77c0-2.94-.34-4.59-1.71-5.18a2.17,2.17,0,0,1-.88-0.49,1.33,1.33,0,0,1,.93-0.25,42.34,42.34,0,0,0,6.16-1.41v7Z"/><path class="cls-2" d="M312.54,123.79c0,1.61.24,3.08,1.76,3.76a0.67,0.67,0,0,1,.49.29c0,0.15-.29.2-0.63,0.2h-5.28a14.59,14.59,0,0,1-1.17-5h-0.1c-1.91,4-4.74,5.72-9,5.72-5.08,0-10.31-2.35-10.31-8.16,0-7.43,11.34-8.16,16.47-8.16h2.79v-1.61c0-4.69-2.2-8-7.14-8-4.5,0-7.13,1.32-8.89,5.62a2.65,2.65,0,0,1-.39.83,0.86,0.86,0,0,1-.24-0.54l-1.27-4.4c4-2.1,7.18-2.45,11.53-2.45,5.57,0,11.44,2,11.44,8.16v13.73Zm-5-10.41h-2.89c-5.28,0-10.7,1.57-10.7,8a5.93,5.93,0,0,0,6.06,6.16c5.76,0,7.52-6.06,7.52-10.75v-3.42Z"/><path class="cls-2" d="M321.86,109.47H322c1.12-4.16,3.52-7.58,10-7.58,5.38,0,10.41,2.79,10.41,10.56v9.43c-0.1,4.64.54,5.32,2,5.81a1,1,0,0,1,.63.35c0,0.14-.24.14-0.73,0.14s-1.71-.14-4.4-0.14-4.4.14-5,.14c-0.29,0-.54,0-0.54-0.14s0.1-.24.44-0.29c1.76-.2,2.64-1.52,2.64-5.87V112.4c0-4.5-2-9.28-7.19-9.28-5.81,0-7.72,6-7.72,12.8v6c0,3.08.15,5.37,2.34,5.76,0.34,0,.54.15,0.54,0.29s-0.15.24-.44,0.24-2.35-.14-5-0.14-4.89.14-5.23,0.14-0.44,0-.44-0.24,0.19-.24.54-0.29c2.44-.39,2.64-2.69,2.64-5.76V109.77c0-2.94-.34-4.59-1.71-5.18a2.18,2.18,0,0,1-.88-0.49,1.33,1.33,0,0,1,.93-0.25,42.21,42.21,0,0,0,6.16-1.41v7Z"/><path class="cls-2" d="M343.5,105.42A0.45,0.45,0,0,1,343,105a1.37,1.37,0,0,1,1-.68c2.78-1,5.13-3.23,6.94-6.94a0.64,0.64,0,0,1,.54-0.49c0.24,0,.24.34,0.24,0.68v6.3h5.42l-0.34,1.57H351.7V119.3c0,6.5,1.56,7.67,3.13,8.21a0.73,0.73,0,0,1,.59.34,0.81,0.81,0,0,1-.79.2h-5.91a3.48,3.48,0,0,1-2-3.57V105.42H343.5Z"/><path class="cls-2" d="M267,137.72v-4.79c0-1-.26-1.76-1-1.95a0.53,0.53,0,0,1-.24-0.14c0-.07.14-0.1,0.35-0.1,0.38,0,1.52.1,2.28,0.1s1.9-.1,2.28-0.1c0.21,0,.35,0,0.35.1a0.55,0.55,0,0,1-.24.14c-0.76.19-1,1-1,1.95v10.53a2.18,2.18,0,0,0,1.28,2.38,0.29,0.29,0,0,1,.21.19c0,0.07-.14.07-0.38,0.07-0.86,0-1.14-.07-2.49-0.07s-1.64.07-2.49,0.07c-0.24,0-.38,0-0.38-0.07a0.29,0.29,0,0,1,.21-0.19,2.18,2.18,0,0,0,1.28-2.38v-5.15h-9v5.15a2.18,2.18,0,0,0,1.28,2.38,0.29,0.29,0,0,1,.21.19c0,0.07-.14.07-0.38,0.07-0.86,0-1.14-.07-2.49-0.07s-1.63.07-2.49,0.07c-0.24,0-.38,0-0.38-0.07a0.29,0.29,0,0,1,.21-0.19,2.18,2.18,0,0,0,1.28-2.38V132.93c0-1-.26-1.76-1-1.95a0.57,0.57,0,0,1-.24-0.14c0-.07.14-0.1,0.35-0.1,0.38,0,1.52.1,2.28,0.1s1.9-.1,2.28-0.1c0.21,0,.36,0,0.36.1a0.56,0.56,0,0,1-.24.14c-0.76.19-1,1-1,1.95v4.79h9Z"/><path class="cls-2" d="M276.91,137.72h4.39c1.73,0,3.25-.8,3.58-1.78a0.25,0.25,0,0,1,.19-0.21c0.07,0,.09.12,0.09,0.36V140c0,0.4,0,.5-0.09.5a0.46,0.46,0,0,1-.19-0.33c-0.69-1.76-2.63-1.85-4.3-1.85h-3.67v5c0,1.73.59,2.11,2.21,2.11h2.68a10.12,10.12,0,0,0,6.19-2.58,3.15,3.15,0,0,1,.64-0.5,0.06,0.06,0,0,1,.07.07,0.94,0.94,0,0,1,0,.19l-1,3.42H273.16a0.86,0.86,0,0,1-.71-0.1c0-.07.5-0.21,0.66-0.36,0.88-.69,1-1.35,1-3.51V134c0-1.54-.09-2.56-1-2.8a0.86,0.86,0,0,1-.4-0.21c0-.09.09-0.14,0.45-0.14h13.4l0.64,2.23a3.48,3.48,0,0,1,.21.88,0.17,0.17,0,0,1-.12.19,0.4,0.4,0,0,1-.29-0.21c-1-1.64-3.51-2.49-5.74-2.49h-4.37v6.29Z"/><path class="cls-2" d="M294.78,139.1l-1.28,2.49a6,6,0,0,0-.83,2.71,1.51,1.51,0,0,0,1.28,1.52c0.19,0,.26.09,0.26,0.16s-0.12.12-.29,0.12-1-.07-2.32-0.07c-1,0-1.57.07-1.85,0.07s-0.31,0-.31-0.12a0.84,0.84,0,0,1,.45-0.38,14.41,14.41,0,0,0,2.75-3.75l5.81-11.29a0.33,0.33,0,0,1,.17-0.19h0a0.28,0.28,0,0,1,.19.19l7,13a6.06,6.06,0,0,0,1.59,2,1.47,1.47,0,0,1,.55.4c0,0.07-.12.12-0.33,0.12S306.36,146,305,146c-1.94,0-2.73.07-2.87,0.07a0.26,0.26,0,0,1-.24-0.07c0-.1.12-0.14,0.31-0.19a1.1,1.1,0,0,0,.66-1.23,9.8,9.8,0,0,0-1.07-2.7l-1.35-2.8h-5.65Zm2.8-5.53-2.49,4.94h5Z"/><path class="cls-2" d="M313.1,142.87c0,2.37.9,2.56,2.92,2.56h1.26a9.13,9.13,0,0,0,6.24-2.75,1.76,1.76,0,0,1,.5-0.57,0.14,0.14,0,0,1,.14.16,2.81,2.81,0,0,1-.09.33l-1,3.42H309.14c-0.4,0-.52,0-0.52-0.12a1.65,1.65,0,0,1,.57-0.21c0.92-.4,1.16-1.28,1.16-3.39v-9.37a1.83,1.83,0,0,0-1-1.9,0.29,0.29,0,0,1-.24-0.19c0-.07.14-0.1,0.35-0.1,0.38,0,1.52.1,2.28,0.1s1.9-.1,2.28-0.1c0.21,0,.29,0,0.29.12a0.31,0.31,0,0,1-.21.14,1.81,1.81,0,0,0-1,1.92v9.94Z"/><path class="cls-2" d="M327.7,132.53c0-.93-0.4-1.09-1.47-1.09a7.16,7.16,0,0,0-5,2.35,2.59,2.59,0,0,1-.43.4,0.13,0.13,0,0,1-.12-0.14,4.25,4.25,0,0,1,.16-0.55l0.76-2.66h14.94l0.76,2.66a4.14,4.14,0,0,1,.17.55,0.13,0.13,0,0,1-.12.14,2.52,2.52,0,0,1-.43-0.4,7.15,7.15,0,0,0-5-2.35c-1.07,0-1.47.17-1.47,1.09v10.93c0,1.17.31,2.09,1.42,2.3a0.38,0.38,0,0,1,.36.19,0.21,0.21,0,0,1-.19.14c-0.17,0-1.62-.07-3-0.07s-2.75.07-2.92,0.07-0.21,0-.21-0.12a0.81,0.81,0,0,1,.45-0.19c1.09-.48,1.31-1.16,1.31-3.37v-9.89Z"/><path class="cls-2" d="M351.78,137.72v-4.79c0-1-.26-1.76-1-1.95a0.56,0.56,0,0,1-.24-0.14c0-.07.14-0.1,0.36-0.1,0.38,0,1.52.1,2.27,0.1s1.9-.1,2.28-0.1c0.22,0,.36,0,0.36.1a0.54,0.54,0,0,1-.24.14c-0.76.19-1,1-1,1.95v10.53a2.18,2.18,0,0,0,1.28,2.38,0.29,0.29,0,0,1,.21.19c0,0.07-.14.07-0.38,0.07-0.86,0-1.14-.07-2.49-0.07s-1.64.07-2.49,0.07c-0.24,0-.38,0-0.38-0.07a0.29,0.29,0,0,1,.21-0.19,2.18,2.18,0,0,0,1.28-2.38v-5.15h-9v5.15a2.18,2.18,0,0,0,1.28,2.38,0.29,0.29,0,0,1,.21.19c0,0.07-.14.07-0.38,0.07-0.86,0-1.14-.07-2.49-0.07s-1.64.07-2.49,0.07c-0.23,0-.38,0-0.38-0.07a0.29,0.29,0,0,1,.22-0.19,2.18,2.18,0,0,0,1.28-2.38V132.93c0-1-.26-1.76-1-1.95a0.55,0.55,0,0,1-.24-0.14c0-.07.14-0.1,0.36-0.1,0.38,0,1.52.1,2.28,0.1s1.9-.1,2.28-0.1c0.21,0,.35,0,0.35.1a0.56,0.56,0,0,1-.24.14c-0.76.19-1,1-1,1.95v4.79h9Z"/><path class="cls-2" d="M209,113.29c-0.19,3.73-.8,6.55-2.84,9.45a12.56,12.56,0,0,1-13.79,4.83C187,126.06,181,119,184.5,110.92a10.48,10.48,0,0,1,7.79-6.11,11.22,11.22,0,0,0-9.1,4.29,13.31,13.31,0,0,0,4.36,20.13,15.26,15.26,0,0,0,19.83-6.2A16.44,16.44,0,0,0,209,113.29Z"/><path class="cls-2" d="M179,118c0.19-3.73.8-6.55,2.85-9.45a12.55,12.55,0,0,1,13.79-4.83c5.37,1.51,11.42,8.61,7.91,16.64a10.49,10.49,0,0,1-7.78,6.11,11.2,11.2,0,0,0,9.1-4.29A13.31,13.31,0,0,0,200.51,102a15.26,15.26,0,0,0-19.83,6.21A16.46,16.46,0,0,0,179,118Z"/><path class="cls-2" d="M359.3,143.45a1.42,1.42,0,0,1,.43,1,1.44,1.44,0,0,1-.43,1,1.47,1.47,0,0,1-2.08,0,1.49,1.49,0,0,1,0-2.09,1.41,1.41,0,0,1,1-.43A1.42,1.42,0,0,1,359.3,143.45Zm0.17-.17a1.71,1.71,0,1,0,.5,1.21A1.65,1.65,0,0,0,359.47,143.29Zm-1,1.13a0.9,0.9,0,0,1-.31,0H357.9v-0.68h0.28a0.85,0.85,0,0,1,.4.07A0.33,0.33,0,0,1,358.51,144.41Zm-0.94,1h0.33v-0.74h0.26a0.85,0.85,0,0,1,.37.06,0.47,0.47,0,0,1,.18.43v0.25H359v0a0.22,0.22,0,0,1,0-.1s0-.1,0-0.14V145a0.52,0.52,0,0,0-.1-0.29,0.46,0.46,0,0,0-.32-0.18,0.78,0.78,0,0,0,.27-0.09,0.42,0.42,0,0,0,.18-0.37,0.47,0.47,0,0,0-.29-0.48,1.49,1.49,0,0,0-.51-0.07h-0.66v1.88Z"/><rect class="cls-2" x="0.66" y="84.76" width="358.01" height="0.6"/><path class="cls-2" d="M21.79,68.39c0,4.46,1.6,6.18,11.32,6.52v2.63H0V74.91c9.29-.34,11.64-2.29,11.64-6.52V9.15C11.64,4.92,9.29,2.86,0,2.52V0H30.55C52.12,0,59.6,8.58,59.6,18.87c0,9.49-5.55,16.81-20.19,19.56v0.34c14.31,1.14,16.88,7.55,18.37,17.84l1.07,7.78c1.39,8.69,3.52,10.29,12,10.52v2.52a30,30,0,0,1-7.16.92c-12.5,0-14.85-3.89-15.81-14.3L47,54.21c-1.07-11.32-4.7-13.84-16.56-13.84H21.79v28ZM31,37.17c14.31,0,17.41-7,17.41-18,0-10.29-4.59-16-18.58-16h-8v34H31Z"/><path class="cls-2" d="M143.64,65.76v-16c-15.59,3.66-18.9,6.52-18.9,14.07C124.73,69,127.08,73,133,73,137.23,73,141.29,69.31,143.64,65.76ZM163,71.44v-38c0-3.43-1.6-5.6-7.8-5.72v-2.4l16.56-.46V35.23c5.23-6.52,11.75-10.75,18.9-10.75,7.58,0,12.5,5.38,12.5,15.67V70.79c0,3.32,1.5,4.12,7.8,4.23v2.52H187.4V75c5.45-.11,6.84-0.91,6.84-4.23V43.69c0-9.61-3.1-13.27-9.83-13.27-5,0-9.4,3.43-12.39,8V70.79c0,3.32,1.39,4.12,6.73,4.23v2.52H156.63c-1.88.07-2.8,0.46-5.09,0.46-5.55,0-7-2.63-7.48-8.81h-0.43c-4.27,5.15-9.51,9-15.81,9-9,0-13-5.83-13-12a13,13,0,0,1,6.41-11.66c8.12-4.8,20.83-6.41,22.43-7.78V41.52c0-10.18-2.78-14.3-9.61-14.3-3.63,0-6.52,1.26-8.33,3.43a10.89,10.89,0,0,1,2,5.6c0,3.43-2,6.18-5.66,6.18-3.42,0-5.34-2.86-5.34-6.18,0-6.63,8.22-11.78,18.48-11.78,11.11,0,17.41,5,17.41,16V71C152.61,76.16,163,76.16,163,71.44Z"/><path class="cls-2" d="M206.08,51.81c0-15.67,9.93-27.68,23.07-27.68,14,0,20.61,11.89,19.76,24.47h-33v2.06c0,12.7,5.77,22.53,16.77,22.53,6.41,0,10.79-4,15.17-9.84l1.6,1.49c-4,7.09-9.51,13.61-20.29,13.61C214.73,78.46,206.08,66.91,206.08,51.81ZM216,46l23.07-.34c1-11-2.46-18.76-10.68-18.76C221.68,26.88,216.87,32.71,216,46Z"/><path class="cls-2" d="M112.39,42a26.43,26.43,0,0,0-7.73-10.09,27.71,27.71,0,0,0-15.92,1,27.76,27.76,0,0,1,12.42,42.87A26.63,26.63,0,0,0,112.39,42Z"/><path class="cls-2" d="M66.63,36.9a26.42,26.42,0,0,0-4.88,11.74,27.7,27.7,0,0,0,8.81,13.3,27.76,27.76,0,0,1,30.92-32.19A26.63,26.63,0,0,0,66.63,36.9Z"/><path class="cls-3" d="M85.13,79.05a26.43,26.43,0,0,0,12.6-1.64,27.7,27.7,0,0,0,7.11-14.28A27.76,27.76,0,0,1,61.51,52.45,26.63,26.63,0,0,0,85.13,79.05Z"/></svg>