<svg id="Layer_1" data-name="Layer 1" xmlns="http://www.w3.org/2000/svg" viewBox="0 0 349.56 175.93"><defs><style>.cls-1{fill:#005a9c;}.cls-2{fill:#a90533;}</style></defs><title>logo</title><path class="cls-1" d="M209.57,153.16c-3.87,3.13-9,4.19-13.91,4.19-9,0-17.4-5.06-17.4-15.65,0-9.49,8.38-15.65,17.4-15.65a26.06,26.06,0,0,1,13.21,3.5l-1.43,4.33a5.41,5.41,0,0,1-.64,1.57,2.69,2.69,0,0,1-.51-1.2c-1-4-3.82-7.22-10.64-7.35-8.38,0-12.16,8-12.16,14.81s4.15,14.81,14,14.81c4.51,0,7.92-2.75,9.95-7.4,0.23-.55.28-1,0.51-1s0.23,0.14.41,0.83Z" transform="translate(-0.62)"/><path class="cls-1" d="M243.38,151.75l4.87-9.48a11,11,0,0,0,1.29-4,2.07,2.07,0,0,0-1.75-2.06,0.35,0.35,0,0,1-.34-0.23c0-.11.15-0.15,0.38-0.15,1,0,1.33.15,2.89,0.15s1.83-.15,2.82-0.15c0.27,0,.49,0,0.49.11a0.61,0.61,0,0,1-.34.46c-1.26.88-2.59,2.89-3.88,5.21l-7.42,14.2a1.1,1.1,0,0,1-.46.53h-0.08a1.15,1.15,0,0,1-.38-0.57l-6.66-13c-1.45-2.89-2.66-5.37-4.26-6.43a0.79,0.79,0,0,1-.46-0.38c0-.15.23-0.15,0.49-0.15,0.61,0,1.56.15,3.39,0.15s3.12-.15,3.43-0.15a0.55,0.55,0,0,1,.49.15,0.47,0.47,0,0,1-.34.3,1.36,1.36,0,0,0-1.07,1.45,7.63,7.63,0,0,0,1,2.59Z" transform="translate(-0.62)"/><path class="cls-1" d="M255.6,143.22c-0.08.88-.11,1.67-0.11,2.47,0,7.08,3.65,9.71,7.35,9.71,4.38,0,7.61-3,8.91-7.46h0.8c-1.22,5.25-5,8.41-10.2,8.41-6.47,0-11.27-4.38-11.27-10.47s4.8-10.47,11.27-10.47c4.15,0,9.17,2.51,9.71,7.8H255.6Zm11.65-.72c0-3.73-1.79-6.36-5.75-6.36-3.46,0-5.33,3.08-5.75,6.36h11.49Z" transform="translate(-0.62)"/><path class="cls-1" d="M277.39,141.32h0.08c0.88-3.24,2.74-5.9,7.77-5.9,4.19,0,8.11,2.17,8.11,8.22V151c-0.08,3.62.42,4.15,1.52,4.53a0.78,0.78,0,0,1,.49.27c0,0.11-.19.11-0.57,0.11s-1.33-.11-3.43-0.11-3.43.11-3.92,0.11c-0.23,0-.42,0-0.42-0.11s0.08-.19.34-0.23c1.37-.15,2.06-1.18,2.06-4.57V143.6c0-3.5-1.56-7.23-5.6-7.23-4.53,0-6,4.64-6,10V151c0,2.4.11,4.19,1.83,4.49,0.27,0,.42.11,0.42,0.23s-0.11.19-.34,0.19-1.83-.11-3.88-0.11-3.81.11-4.07,0.11-0.34,0-.34-0.19,0.15-.19.42-0.23c1.9-.3,2.06-2.09,2.06-4.49v-9.44c0-2.28-.27-3.58-1.33-4a1.68,1.68,0,0,1-.69-0.38,1,1,0,0,1,.72-0.19,33.27,33.27,0,0,0,4.8-1.1v5.48Z" transform="translate(-0.62)"/><path class="cls-1" d="M313.86,152.47c0,1.26.19,2.4,1.37,2.93a0.53,0.53,0,0,1,.38.23,0.47,0.47,0,0,1-.5.15H311a11.37,11.37,0,0,1-.91-3.88H310a7.1,7.1,0,0,1-7,4.45c-4,0-8-1.83-8-6.36,0-5.79,8.83-6.36,12.83-6.36h2.17v-1.26c0-3.65-1.71-6.24-5.56-6.24-3.5,0-5.56,1-6.93,4.38a2,2,0,0,1-.3.65,0.68,0.68,0,0,1-.19-0.42l-1-3.43a17.28,17.28,0,0,1,9-1.9c4.34,0,8.91,1.56,8.91,6.36v10.7Zm-3.92-8.11h-2.25c-4.11,0-8.34,1.22-8.34,6.24a4.62,4.62,0,0,0,4.72,4.8c4.49,0,5.86-4.72,5.86-8.37v-2.66Z" transform="translate(-0.62)"/><path class="cls-1" d="M321.12,141.32h0.08c0.88-3.24,2.74-5.9,7.76-5.9,4.19,0,8.11,2.17,8.11,8.22V151c-0.08,3.62.42,4.15,1.52,4.53a0.78,0.78,0,0,1,.49.27c0,0.11-.19.11-0.57,0.11s-1.33-.11-3.43-0.11-3.43.11-3.92,0.11c-0.23,0-.42,0-0.42-0.11s0.08-.19.34-0.23c1.37-.15,2.06-1.18,2.06-4.57V143.6c0-3.5-1.56-7.23-5.6-7.23-4.53,0-6,4.64-6,10V151c0,2.4.11,4.19,1.83,4.49,0.27,0,.42.11,0.42,0.23s-0.11.19-.34,0.19-1.83-.11-3.88-0.11-3.81.11-4.07,0.11-0.34,0-.34-0.19,0.15-.19.42-0.23c1.9-.3,2.06-2.09,2.06-4.49v-9.44c0-2.28-.27-3.58-1.33-4a1.68,1.68,0,0,1-.69-0.38,1,1,0,0,1,.72-0.19,33.28,33.28,0,0,0,4.8-1.1v5.48Z" transform="translate(-0.62)"/><path class="cls-1" d="M338,138.16a0.35,0.35,0,0,1-.38-0.34,1.06,1.06,0,0,1,.76-0.53c2.17-.76,4-2.51,5.4-5.4a0.5,0.5,0,0,1,.42-0.38c0.19,0,.19.27,0.19,0.53v4.91h4.22l-0.27,1.22h-4V149c0,5.06,1.22,6,2.44,6.39a0.56,0.56,0,0,1,.46.27,0.63,0.63,0,0,1-.61.15H342a2.7,2.7,0,0,1-1.6-2.78V138.16H338Z" transform="translate(-0.62)"/><path class="cls-2" d="M233.25,144.29a12.83,12.83,0,0,1-2.22,7.36,9.78,9.78,0,0,1-10.74,3.76c-4.18-1.18-8.9-6.71-6.16-13a8.17,8.17,0,0,1,6.06-4.76,8.74,8.74,0,0,0-7.09,3.34,10.37,10.37,0,0,0,3.39,15.68,11.88,11.88,0,0,0,15.44-4.83A12.8,12.8,0,0,0,233.25,144.29Z" transform="translate(-0.62)"/><path class="cls-1" d="M209.86,147.93a12.83,12.83,0,0,1,2.22-7.36,9.78,9.78,0,0,1,10.74-3.76c4.18,1.18,8.9,6.71,6.16,13a8.17,8.17,0,0,1-6.06,4.76,8.74,8.74,0,0,0,7.09-3.34,10.37,10.37,0,0,0-3.39-15.68,11.88,11.88,0,0,0-15.44,4.83A12.8,12.8,0,0,0,209.86,147.93Z" transform="translate(-0.62)"/><path class="cls-1" d="M227.61,169.47l4.1-9.17h2.91c0.22,0,.26.06,0.26,0.11a0.32,0.32,0,0,1-.26.15c-0.61.13-.78,0.78-0.78,1.65v7.05c0,1.1,0,2.58,1.15,2.8a0.52,0.52,0,0,1,.3.15,0.32,0.32,0,0,1-.3.09c-0.09,0-.59-0.06-2.19-0.06-1.43,0-1.93.06-2.12,0.06a0.21,0.21,0,0,1-.22-0.09,0.52,0.52,0,0,1,.3-0.13c0.95-.26,1-1.73,1-2.82v-7.7h0l-4.64,10.1a1.54,1.54,0,0,1-.46.74h0a1.36,1.36,0,0,1-.48-0.76l-4.59-10.08h0v7c0,1.3.17,2.93,1.23,3.36a1,1,0,0,1,.39.28,0.53,0.53,0,0,1-.24,0h-3.21a0.31,0.31,0,0,1-.26-0.06,0.55,0.55,0,0,1,.26-0.17c1-.56,1.37-2.25,1.37-3.43v-6.13c0-.69-0.17-1.78-0.87-1.93a0.17,0.17,0,0,1-.13-0.17,0.12,0.12,0,0,1,.13-0.07h3.06Z" transform="translate(-0.62)"/><path class="cls-1" d="M237.58,166.13c0,0.43-.06.82-0.06,1.21,0,3.45,1.78,4.73,3.58,4.73a4.56,4.56,0,0,0,4.34-3.64h0.39a4.93,4.93,0,0,1-5,4.1c-3.16,0-5.5-2.14-5.5-5.11s2.34-5.11,5.5-5.11c2,0,4.47,1.23,4.73,3.81h-8Zm5.68-.35c0-1.82-.87-3.1-2.8-3.1-1.69,0-2.6,1.5-2.8,3.1h5.61Z" transform="translate(-0.62)"/><path class="cls-1" d="M256.89,167.43c0,1,0,2,.07,3a1.63,1.63,0,0,0,1,1.61,0.15,0.15,0,0,1,.13.09c0,0.06-.09.07-0.32,0.07h-2.19a7.07,7.07,0,0,1-.54-1.86h0a4.05,4.05,0,0,1-3.77,2.14,4.8,4.8,0,0,1-4.79-5.11,5,5,0,0,1,4.79-5.11,4.51,4.51,0,0,1,3.71,1.58h0V161c0-.67,0-1.28-0.72-1.43a0.31,0.31,0,0,1-.24-0.11,0.44,0.44,0,0,1,.33-0.11c0.87-.17,1.65-0.35,2.54-0.59v8.63Zm-5,4.64c1.21,0,3.23-1.19,3.23-4.64,0-3.9-2-4.64-3.23-4.64s-3.25.74-3.25,4.64S250.61,172.07,251.84,172.07Z" transform="translate(-0.62)"/><path class="cls-1" d="M259.17,164.52a1.06,1.06,0,0,0-.65-1.21,1,1,0,0,1-.32-0.11,0.79,0.79,0,0,1,.33-0.07c0.87-.17,1.65-0.35,2.54-0.59v7.39c0,1.17.11,2,1,2.17a0.17,0.17,0,0,1,.19.17c0,0.06-.09.06-0.26,0.06s-0.85-.06-1.86-0.06-1.67.06-1.86,0.06-0.26,0-.26-0.06a0.17,0.17,0,0,1,.19-0.17c0.85-.17,1-1,1-2.17v-5.4Zm-0.3-4.29a1.1,1.1,0,1,1,2.21,0A1.1,1.1,0,0,1,258.88,160.23Z" transform="translate(-0.62)"/><path class="cls-1" d="M271.87,164.89a1,1,0,0,1-.22.5,0.3,0.3,0,0,1-.11-0.22,3.39,3.39,0,0,0-3.4-2.49c-2.43,0-3.3,2.49-3.32,4.75,0,3.36,1.88,4.64,3.58,4.64a4.36,4.36,0,0,0,3.73-2.45l0.3,0.3a4.59,4.59,0,0,1-4.27,2.62c-3.16,0-5.5-2.14-5.5-5.11s2.34-5.11,5.5-5.11a9.09,9.09,0,0,1,4.14,1.11Z" transform="translate(-0.62)"/><path class="cls-1" d="M282.27,170.64a1.36,1.36,0,0,0,.67,1.43,0.26,0.26,0,0,1,.19.11,0.23,0.23,0,0,1-.24.07h-2a5.54,5.54,0,0,1-.45-1.89h0a3.46,3.46,0,0,1-3.43,2.17c-1.93,0-3.92-.89-3.92-3.1,0-2.82,4.31-3.1,6.26-3.1h1.06v-0.61c0-1.78-.84-3-2.71-3a3.11,3.11,0,0,0-3.38,2.14,0.94,0.94,0,0,1-.15.32,0.33,0.33,0,0,1-.09-0.2l-0.48-1.67a8.43,8.43,0,0,1,4.38-.93c2.12,0,4.34.76,4.34,3.1v5.22Zm-1.91-4h-1.1c-2,0-4.07.59-4.07,3a2.25,2.25,0,0,0,2.3,2.34c2.19,0,2.86-2.3,2.86-4.08v-1.3Z" transform="translate(-0.62)"/><path class="cls-1" d="M286.65,169.92c0,1.17.06,1.87,1.06,2.23a0.16,0.16,0,0,1,.11.11,0.18,0.18,0,0,1-.17.06c-0.09,0-.58-0.06-2-0.06-1,0-1.8.06-1.93,0.06s-0.19,0-.19-0.06a0.16,0.16,0,0,1,.11-0.11c1-.43,1.06-1.06,1.06-2.23V161c0-.91-0.17-1.28-0.63-1.37a0.34,0.34,0,0,1-.28-0.15c0-.09.15-0.11,0.28-0.13,0.87-.17,1.65-0.35,2.54-0.59v11.12Z" transform="translate(-0.62)"/><path class="cls-1" d="M306.31,171a8.68,8.68,0,0,1-5.57,1.65c-3.45,0-7-2-7-6.31,0-3.82,3.38-6.31,7-6.31a10.13,10.13,0,0,1,5.83,1.56l-0.65,1.62a1.8,1.8,0,0,1-.22.46,0.86,0.86,0,0,1-.13-0.33c-0.39-1.89-2.41-2.84-4.34-2.84-3.49,0-5,3.08-5,6.15s1.89,5.55,4.53,5.55,3.42-.91,3.42-2.84V168c0-1.15-.61-1.32-1.6-1.54a0.8,0.8,0,0,1-.5-0.19c0-.06.09-0.07,0.26-0.07s1.78,0.07,2.58.07,2-.07,2.26-0.07,0.37,0.06.37,0.13a0.67,0.67,0,0,1-.33.15c-0.89.26-.89,0.63-0.89,1.48V171Z" transform="translate(-0.62)"/><path class="cls-1" d="M310.86,164.92h0a4,4,0,0,1,3.77-2.6l-0.78,1.91a1.91,1.91,0,0,0-1.15-.3c-1.06,0-1.76,1.36-1.76,2.56v3.42c0,1.17.09,2,1.06,2.23a0.22,0.22,0,0,1,.19.11c0,0.06-.06.06-0.15,0.06s-1-.06-2.06-0.06-1.88.06-2,.06a0.16,0.16,0,0,1-.17-0.06,0.22,0.22,0,0,1,.2-0.09c0.87-.32,1-0.69,1-2.25v-4.44c0-1.28-.07-1.95-0.72-2.1a0.41,0.41,0,0,1-.28-0.15,0.84,0.84,0,0,1,.39-0.09,14.35,14.35,0,0,0,2.41-.61v2.4Z" transform="translate(-0.62)"/><path class="cls-1" d="M320.22,162.33c3.17,0,5.51,2.13,5.51,5.11s-2.34,5.11-5.51,5.11-5.5-2.14-5.5-5.11S317.06,162.33,320.22,162.33Zm0,9.86c2.78,0,3.36-2.56,3.36-4.75s-0.58-4.75-3.36-4.75-3.34,2.56-3.34,4.75S317.45,172.18,320.22,172.18Z" transform="translate(-0.62)"/><path class="cls-1" d="M336.45,169.9c0,1.54.22,2,1,2.23a0.14,0.14,0,0,1,.11.06,0.23,0.23,0,0,1-.24.07h-2.21a5.49,5.49,0,0,1-.48-2.13h0a3.4,3.4,0,0,1-3.62,2.41c-2.65,0-4-1-4-4v-3.75c0-1.08-.07-1.3-0.59-1.49a0.37,0.37,0,0,1-.28-0.15,0.32,0.32,0,0,1,.28-0.07,19,19,0,0,0,2.51-.54v6c0,1.71.76,3.53,2.73,3.53s2.86-1.84,2.86-3.56v-3.73c0-1.13-.2-1.37-0.54-1.54a1.34,1.34,0,0,1-.24-0.13,0.49,0.49,0,0,1,.3-0.11c0.72-.11,1.47-0.24,2.39-0.46v7.37Z" transform="translate(-0.62)"/><path class="cls-1" d="M338.41,164.78c0-.8-0.13-1.23-0.61-1.37a0.49,0.49,0,0,1-.3-0.13c0-.11.15-0.13,0.28-0.15a9.17,9.17,0,0,0,2.34-.59v2.41h0a3.76,3.76,0,0,1,3.9-2.62,5,5,0,0,1,4.81,5.11,5.15,5.15,0,0,1-4.81,5.11,4.56,4.56,0,0,1-3.73-1.69v1.95c0,1.19.09,2.67,0.78,2.88a0.76,0.76,0,0,1,.43.19v0a0.68,0.68,0,0,1-.33,0c-0.22,0-.87,0-1.82,0-0.39,0-.71,0-1.49,0a0.66,0.66,0,0,1-.48-0.06v0c0-.07.06-0.07,0.2-0.11,0.69-.17.8-0.56,0.8-2.23v-8.74Zm5.07,7.3c1.21,0,3.23-.74,3.23-4.64s-2-4.64-3.23-4.64-3.25.74-3.25,4.64S342.26,172.07,343.48,172.07Z" transform="translate(-0.62)"/><path class="cls-1" d="M349.66,153.53a1.15,1.15,0,0,1-.81,2,1.1,1.1,0,0,1-.81-0.34,1.12,1.12,0,0,1-.33-0.82A1.14,1.14,0,0,1,349.66,153.53Zm0.13-.13a1.33,1.33,0,1,0,.39.94A1.29,1.29,0,0,0,349.79,153.4Zm-0.75.88a0.69,0.69,0,0,1-.24,0h-0.23v-0.53h0.22a0.67,0.67,0,0,1,.31.05A0.26,0.26,0,0,1,349,154.28Zm-0.73.79h0.26v-0.58h0.2a0.62,0.62,0,0,1,.29,0,0.36,0.36,0,0,1,.14.34v0.18h0.24v0a0.22,0.22,0,0,1,0-.08s0-.07,0-0.11v-0.11a0.4,0.4,0,0,0-.08-0.23,0.36,0.36,0,0,0-.25-0.14,0.56,0.56,0,0,0,.21-0.07,0.32,0.32,0,0,0,.14-0.29,0.36,0.36,0,0,0-.23-0.37,1.12,1.12,0,0,0-.4-0.05h-0.51v1.46Z" transform="translate(-0.62)"/><path class="cls-1" d="M348.14,117.81H0.62l0.12,1.13h347.4A0.58,0.58,0,1,0,348.14,117.81Z" transform="translate(-0.62)"/><path class="cls-2" d="M36.08,65.3c5.76-13.17,22.23-34.85,49-38.43-19.8-.65-41.13,7.36-57.24,27A81.5,81.5,0,0,0,9.71,109.56H30.94C28.18,95.94,29.26,80.9,36.08,65.3Z" transform="translate(-0.62)"/><path class="cls-1" d="M136.79,9.28c-38.54-19.06-97.15-10-124.71,39C2.74,64.92-1.37,88.85,1.54,109.61c1.21-23.47,5-41.19,17.91-59.44,23-32.57,59.94-37.91,86.71-30.38C119.6,23.58,133.71,32.94,144.44,46h29A80.66,80.66,0,0,0,136.79,9.28Z" transform="translate(-0.62)"/><path class="cls-1" d="M153.23,76.21V54.87H145.1V52h19.47v2.86h-8.13V76.21h-3.22Z" transform="translate(-0.62)"/><path class="cls-1" d="M180.17,76.21h-3.06V65.87a20.87,20.87,0,0,0-.12-2.33,5,5,0,0,0-.46-1.73,2.38,2.38,0,0,0-1-1,4.13,4.13,0,0,0-1.82-.33,5.21,5.21,0,0,0-2.35.61,12.11,12.11,0,0,0-2.37,1.58V76.21h-3.06V50.92h3.06v9.15a12,12,0,0,1,2.7-1.87,6.34,6.34,0,0,1,2.81-.65,5.23,5.23,0,0,1,4.19,1.76,7.65,7.65,0,0,1,1.51,5.11V76.21Z" transform="translate(-0.62)"/><path class="cls-1" d="M191.3,76.63a9,9,0,0,1-6.74-2.45q-2.4-2.45-2.4-6.95a10.27,10.27,0,0,1,2.32-7.06,7.73,7.73,0,0,1,6.08-2.63,8.49,8.49,0,0,1,3,.49,6,6,0,0,1,2.28,1.53,7,7,0,0,1,1.5,2.54,11.35,11.35,0,0,1,.52,3.68v1.66H185.27a6.76,6.76,0,0,0,1.59,4.84A5.79,5.79,0,0,0,191.27,74a8.58,8.58,0,0,0,2-.23,9.32,9.32,0,0,0,1.75-.59,12.6,12.6,0,0,0,1.4-.72,8.44,8.44,0,0,0,.94-0.66h0.18v3.33l-1.33.53a14.77,14.77,0,0,1-1.43.5q-0.89.24-1.62,0.37A10.63,10.63,0,0,1,191.3,76.63Zm3.58-11.52a8.54,8.54,0,0,0-.29-2.13,4.39,4.39,0,0,0-.75-1.51,3.42,3.42,0,0,0-1.37-1,6.12,6.12,0,0,0-4.15,0,4.94,4.94,0,0,0-1.55,1.06,5.09,5.09,0,0,0-1,1.58,6.82,6.82,0,0,0-.46,2h9.61Z" transform="translate(-0.62)"/><path class="cls-1" d="M220.38,76.65a11.65,11.65,0,0,1-4.36-.8,9.29,9.29,0,0,1-3.44-2.37,10.88,10.88,0,0,1-2.24-3.93,16.88,16.88,0,0,1-.8-5.41,16.41,16.41,0,0,1,.77-5.3,11.47,11.47,0,0,1,2.25-3.93A9.65,9.65,0,0,1,216,52.42a11.12,11.12,0,0,1,4.44-.85,13.8,13.8,0,0,1,2.28.18,15.88,15.88,0,0,1,2,.46,14.76,14.76,0,0,1,1.6.61q0.82,0.37,1.62.8V57.5h-0.26q-0.42-.39-1.09-0.94a10.86,10.86,0,0,0-1.63-1.09,10.51,10.51,0,0,0-2-.83,8.83,8.83,0,0,0-2.52-.33,6.87,6.87,0,0,0-5.35,2.5,8.83,8.83,0,0,0-1.59,3.1,14.44,14.44,0,0,0-.57,4.21,13.54,13.54,0,0,0,.6,4.28,9.16,9.16,0,0,0,1.64,3,6.56,6.56,0,0,0,2.37,1.81,7,7,0,0,0,2.89.61,9.32,9.32,0,0,0,2.58-.34,9.88,9.88,0,0,0,2.11-.86,11,11,0,0,0,1.54-1q0.65-.53,1-0.9h0.24v3.84l-1.5.72a13.58,13.58,0,0,1-1.71.67,17.52,17.52,0,0,1-2,.52A12.5,12.5,0,0,1,220.38,76.65Z" transform="translate(-0.62)"/><path class="cls-1" d="M237.86,76.63a9,9,0,0,1-6.74-2.45q-2.4-2.45-2.4-6.95a10.27,10.27,0,0,1,2.32-7.06,7.73,7.73,0,0,1,6.08-2.63,8.49,8.49,0,0,1,3,.49,6,6,0,0,1,2.28,1.53,7,7,0,0,1,1.5,2.54,11.35,11.35,0,0,1,.52,3.68v1.66H231.83a6.76,6.76,0,0,0,1.59,4.84,5.79,5.79,0,0,0,4.4,1.67,8.58,8.58,0,0,0,2-.23,9.31,9.31,0,0,0,1.75-.59,12.55,12.55,0,0,0,1.4-.72,8.39,8.39,0,0,0,.94-0.66h0.18v3.33l-1.33.53a14.77,14.77,0,0,1-1.43.5q-0.89.24-1.62,0.37A10.63,10.63,0,0,1,237.86,76.63Zm3.58-11.52a8.49,8.49,0,0,0-.29-2.13,4.39,4.39,0,0,0-.75-1.51,3.42,3.42,0,0,0-1.37-1,6.12,6.12,0,0,0-4.14,0,4.94,4.94,0,0,0-1.55,1.06,5.09,5.09,0,0,0-1,1.58,6.82,6.82,0,0,0-.46,2h9.61Z" transform="translate(-0.62)"/><path class="cls-1" d="M260.94,76.21h-3.06V65.87a20.87,20.87,0,0,0-.12-2.33,5,5,0,0,0-.46-1.73,2.38,2.38,0,0,0-1-1,4.13,4.13,0,0,0-1.82-.33,5.21,5.21,0,0,0-2.35.61,12.11,12.11,0,0,0-2.37,1.58V76.21h-3.06V58.05h3.06v2a12,12,0,0,1,2.7-1.87,6.34,6.34,0,0,1,2.81-.65,5.23,5.23,0,0,1,4.19,1.76,7.65,7.65,0,0,1,1.51,5.11V76.21Z" transform="translate(-0.62)"/><path class="cls-1" d="M269.41,76.57a5.22,5.22,0,0,1-3.9-1.42,6.21,6.21,0,0,1-1.4-4.49V60.59H262V58.05h2.06V52.84h3.06v5.22h5.62v2.54h-5.62v8.63q0,1.38,0,2.13a3.62,3.62,0,0,0,.37,1.4,1.78,1.78,0,0,0,.89.85,4.07,4.07,0,0,0,1.67.28,4.8,4.8,0,0,0,1.45-.22,8.65,8.65,0,0,0,1-.37h0.18V76a14.77,14.77,0,0,1-1.75.38A10.69,10.69,0,0,1,269.41,76.57Z" transform="translate(-0.62)"/><path class="cls-1" d="M281.88,76.63a9,9,0,0,1-6.74-2.45q-2.4-2.45-2.4-6.95a10.27,10.27,0,0,1,2.32-7.06,7.73,7.73,0,0,1,6.08-2.63,8.49,8.49,0,0,1,3,.49,6,6,0,0,1,2.28,1.53,7,7,0,0,1,1.5,2.54,11.35,11.35,0,0,1,.52,3.68v1.66H275.85a6.76,6.76,0,0,0,1.59,4.84,5.79,5.79,0,0,0,4.4,1.67,8.58,8.58,0,0,0,2-.23,9.32,9.32,0,0,0,1.75-.59,12.6,12.6,0,0,0,1.4-.72,8.44,8.44,0,0,0,.94-0.66h0.18v3.33l-1.33.53a14.77,14.77,0,0,1-1.43.5q-0.89.24-1.62,0.37A10.63,10.63,0,0,1,281.88,76.63Zm3.58-11.52a8.54,8.54,0,0,0-.29-2.13,4.39,4.39,0,0,0-.75-1.51,3.42,3.42,0,0,0-1.37-1,6.12,6.12,0,0,0-4.14,0,4.93,4.93,0,0,0-1.55,1.06,5.08,5.08,0,0,0-1,1.58,6.82,6.82,0,0,0-.46,2h9.61Z" transform="translate(-0.62)"/><path class="cls-1" d="M300.31,61.34h-0.16a3.43,3.43,0,0,0-.72-0.12l-0.92,0a6,6,0,0,0-2.45.54,7.88,7.88,0,0,0-2.31,1.59V76.21h-3.06V58.05h3.06v2.7a14,14,0,0,1,2.92-2.09,5.47,5.47,0,0,1,2.41-.61q0.47,0,.71,0l0.53,0.07v3.19Z" transform="translate(-0.62)"/><path class="cls-1" d="M322,53.84h-0.16a7.7,7.7,0,0,0-1.17-.28,7.79,7.79,0,0,0-1.37-.14,3.67,3.67,0,0,0-2.76.87,4.6,4.6,0,0,0-.82,3.15v0.62h5.06v2.54h-5V76.21h-3.06V60.59h-2.06V58.05h2.06v-0.6a7.11,7.11,0,0,1,1.58-5,5.85,5.85,0,0,1,4.52-1.71,15.22,15.22,0,0,1,1.66.09q0.81,0.09,1.48.2v2.8Z" transform="translate(-0.62)"/><path class="cls-1" d="M336.91,67.14q0,4.58-2.21,7.08a7.47,7.47,0,0,1-5.88,2.5,7.37,7.37,0,0,1-6-2.58,10.52,10.52,0,0,1-2.17-7q0-4.55,2.23-7.07a8.15,8.15,0,0,1,11.78,0Q336.91,62.57,336.91,67.14Zm-3.15,0a8.74,8.74,0,0,0-1.28-5.24,4.78,4.78,0,0,0-7.34,0,8.7,8.7,0,0,0-1.29,5.24,8.7,8.7,0,0,0,1.29,5.18,4.72,4.72,0,0,0,7.33,0A8.67,8.67,0,0,0,333.76,67.14Z" transform="translate(-0.62)"/><path class="cls-1" d="M348.69,61.34h-0.16a3.42,3.42,0,0,0-.72-0.12l-0.92,0a6,6,0,0,0-2.45.54,7.89,7.89,0,0,0-2.31,1.59V76.21h-3.06V58.05h3.06v2.7A14,14,0,0,1,345,58.66a5.47,5.47,0,0,1,2.41-.61q0.47,0,.71,0l0.53,0.07v3.19Z" transform="translate(-0.62)"/><path class="cls-1" d="M58.72,109.5H54.55l-7.67-9.62H43.2v9.62H40V85.3h6.24a22.36,22.36,0,0,1,3.49.23,6.85,6.85,0,0,1,2.67,1.06,6,6,0,0,1,2,2.1,6.3,6.3,0,0,1,.74,3.19,7.18,7.18,0,0,1-1.35,4.45A7.92,7.92,0,0,1,50.11,99Zm-7-17.39a4.48,4.48,0,0,0-.37-1.88,3.17,3.17,0,0,0-1.15-1.34,4.46,4.46,0,0,0-1.59-.64,11.5,11.5,0,0,0-2.26-.19H43.2V97.2H46A11.59,11.59,0,0,0,48.51,97a3.81,3.81,0,0,0,1.89-1,4.2,4.2,0,0,0,1-1.63A6.64,6.64,0,0,0,51.77,92.11Z" transform="translate(-0.62)"/><path class="cls-1" d="M66.48,109.92a9,9,0,0,1-6.74-2.45q-2.4-2.45-2.4-6.95a10.27,10.27,0,0,1,2.32-7.06,7.73,7.73,0,0,1,6.08-2.63,8.49,8.49,0,0,1,3,.49A6,6,0,0,1,71,92.86a7,7,0,0,1,1.5,2.54A11.35,11.35,0,0,1,73,99.08v1.66H60.45A6.76,6.76,0,0,0,62,105.58a5.79,5.79,0,0,0,4.4,1.67,8.59,8.59,0,0,0,2-.23,9.31,9.31,0,0,0,1.75-.59,12.62,12.62,0,0,0,1.4-.72,8.42,8.42,0,0,0,.94-0.66h0.18v3.33l-1.33.53a14.77,14.77,0,0,1-1.43.5q-0.89.24-1.62,0.37A10.63,10.63,0,0,1,66.48,109.92ZM70.06,98.4a8.51,8.51,0,0,0-.29-2.13A4.4,4.4,0,0,0,69,94.76a3.42,3.42,0,0,0-1.37-1,6.12,6.12,0,0,0-4.14,0,4.94,4.94,0,0,0-1.55,1.06,5.09,5.09,0,0,0-1,1.58,6.82,6.82,0,0,0-.46,2h9.61Z" transform="translate(-0.62)"/><path class="cls-1" d="M90.52,99.94a11.17,11.17,0,0,1-2.17,7.23,6.76,6.76,0,0,1-5.49,2.69,8.41,8.41,0,0,1-2.39-.31,9.38,9.38,0,0,1-2.13-1v7.61H75.29V91.34h3.06v1.9a11.24,11.24,0,0,1,2.53-1.71,6.71,6.71,0,0,1,3-.69,5.63,5.63,0,0,1,4.87,2.47A11.28,11.28,0,0,1,90.52,99.94Zm-3.15.34a9.7,9.7,0,0,0-1-4.82,3.43,3.43,0,0,0-3.22-1.71,5.77,5.77,0,0,0-2.51.58,10.88,10.88,0,0,0-2.3,1.49V106.1a10.84,10.84,0,0,0,2.06.8,8.18,8.18,0,0,0,2,.21,4.36,4.36,0,0,0,3.69-1.74A8.33,8.33,0,0,0,87.37,100.28Z" transform="translate(-0.62)"/><path class="cls-1" d="M102.35,94.63h-0.16a3.42,3.42,0,0,0-.72-0.12l-0.92,0a6,6,0,0,0-2.45.54,7.88,7.88,0,0,0-2.31,1.59V109.5H92.73V91.34h3.06V94A14,14,0,0,1,98.7,92a5.47,5.47,0,0,1,2.41-.61q0.47,0,.71,0l0.53,0.07v3.19Z" transform="translate(-0.62)"/><path class="cls-1" d="M118.76,100.43q0,4.58-2.21,7.08a7.47,7.47,0,0,1-5.88,2.5,7.37,7.37,0,0,1-6-2.58,10.52,10.52,0,0,1-2.17-7q0-4.55,2.23-7.07a8.15,8.15,0,0,1,11.78,0Q118.76,95.86,118.76,100.43Zm-3.15,0a8.74,8.74,0,0,0-1.28-5.24,4.78,4.78,0,0,0-7.34,0,8.7,8.7,0,0,0-1.29,5.24,8.7,8.7,0,0,0,1.29,5.18,4.72,4.72,0,0,0,7.33,0A8.67,8.67,0,0,0,115.61,100.43Z" transform="translate(-0.62)"/><path class="cls-1" d="M135.18,109.5h-3.06v-1.85q-0.72.6-1.24,1a6.84,6.84,0,0,1-1.22.72,7,7,0,0,1-1.35.48,6.9,6.9,0,0,1-1.63.17,6.14,6.14,0,0,1-2.74-.62,5.83,5.83,0,0,1-2.14-1.8,8.9,8.9,0,0,1-1.38-3,15.26,15.26,0,0,1-.49-4.06,12.42,12.42,0,0,1,.62-4.14,9.77,9.77,0,0,1,1.71-3,7.08,7.08,0,0,1,2.4-1.86,6.74,6.74,0,0,1,3-.67,8.34,8.34,0,0,1,2.37.3,10.44,10.44,0,0,1,2.13.93V84.21h3.06V109.5Zm-3.06-4.42V94.61a10,10,0,0,0-2-.76,8.6,8.6,0,0,0-2-.21,4.37,4.37,0,0,0-3.69,1.76,8.34,8.34,0,0,0-1.33,5.1,9.58,9.58,0,0,0,1,4.9,3.55,3.55,0,0,0,3.28,1.7,5.9,5.9,0,0,0,2.42-.54A9.31,9.31,0,0,0,132.13,105.08Z" transform="translate(-0.62)"/><path class="cls-1" d="M152.51,109.5h-3.06v-2a13.31,13.31,0,0,1-2.68,1.88,6.17,6.17,0,0,1-2.83.64,6.36,6.36,0,0,1-2.23-.39,4.68,4.68,0,0,1-1.83-1.24,5.81,5.81,0,0,1-1.21-2.13,9.88,9.88,0,0,1-.43-3.12V91.34h3.06v10.34a22.31,22.31,0,0,0,.11,2.4,4.68,4.68,0,0,0,.48,1.67,2.35,2.35,0,0,0,1,1,4.18,4.18,0,0,0,1.84.33,5.36,5.36,0,0,0,2.39-.63,10.92,10.92,0,0,0,2.32-1.56V91.34h3.06V109.5Z" transform="translate(-0.62)"/><path class="cls-1" d="M163.15,109.91a9.82,9.82,0,0,1-3.43-.58,7,7,0,0,1-2.68-1.75,8,8,0,0,1-1.74-3,12.77,12.77,0,0,1-.62-4.19,11.92,11.92,0,0,1,.64-4.13A8.9,8.9,0,0,1,157,93.39a7.11,7.11,0,0,1,2.67-1.83,9.15,9.15,0,0,1,3.44-.64,9.86,9.86,0,0,1,2.89.42,15.4,15.4,0,0,1,2.48,1v3.43h-0.18q-0.33-.28-0.84-0.63a10.82,10.82,0,0,0-1.24-.73,8.15,8.15,0,0,0-1.5-.57,6.09,6.09,0,0,0-1.66-.24,4.64,4.64,0,0,0-3.81,1.8,9.71,9.71,0,0,0,0,10.09,4.61,4.61,0,0,0,3.86,1.8,6.76,6.76,0,0,0,2.84-.62,8.85,8.85,0,0,0,2.39-1.59h0.18v3.43l-1.14.51a8.53,8.53,0,0,1-1.24.45q-0.78.23-1.4,0.35A8.49,8.49,0,0,1,163.15,109.91Z" transform="translate(-0.62)"/><path class="cls-1" d="M176.53,109.86a5.22,5.22,0,0,1-3.9-1.42,6.21,6.21,0,0,1-1.4-4.49V93.88h-2.06V91.34h2.06V86.13h3.06v5.22h5.62v2.54h-5.62v8.63q0,1.38,0,2.13a3.62,3.62,0,0,0,.37,1.4,1.78,1.78,0,0,0,.89.85,4.07,4.07,0,0,0,1.67.28,4.8,4.8,0,0,0,1.45-.22,8.66,8.66,0,0,0,1-.37h0.18v2.75a14.78,14.78,0,0,1-1.75.38A10.66,10.66,0,0,1,176.53,109.86Z" transform="translate(-0.62)"/><path class="cls-1" d="M184.49,88.3H181V85.13h3.48V88.3Zm-0.21,21.2h-3.06V91.34h3.06V109.5Z" transform="translate(-0.62)"/><path class="cls-1" d="M202,91.34l-6.84,18.16h-2.75l-6.79-18.16h3.3l5,14,4.93-14H202Z" transform="translate(-0.62)"/><path class="cls-1" d="M210.64,109.92a9,9,0,0,1-6.74-2.45q-2.4-2.45-2.4-6.95a10.27,10.27,0,0,1,2.32-7.06,7.73,7.73,0,0,1,6.08-2.63,8.49,8.49,0,0,1,3,.49,6,6,0,0,1,2.28,1.53,7,7,0,0,1,1.5,2.54,11.35,11.35,0,0,1,.52,3.68v1.66H204.61a6.76,6.76,0,0,0,1.59,4.84,5.79,5.79,0,0,0,4.4,1.67,8.59,8.59,0,0,0,2-.23,9.32,9.32,0,0,0,1.75-.59,12.64,12.64,0,0,0,1.4-.72,8.44,8.44,0,0,0,.94-0.66h0.18v3.33l-1.33.53a14.77,14.77,0,0,1-1.43.5q-0.89.24-1.62,0.37A10.63,10.63,0,0,1,210.64,109.92Zm3.58-11.52a8.54,8.54,0,0,0-.29-2.13,4.4,4.4,0,0,0-.75-1.51,3.42,3.42,0,0,0-1.37-1,6.12,6.12,0,0,0-4.14,0,4.94,4.94,0,0,0-1.55,1.06,5.09,5.09,0,0,0-1,1.58,6.82,6.82,0,0,0-.46,2h9.61Z" transform="translate(-0.62)"/><path class="cls-1" d="M251,109.5h-3.22V88.65l-6.31,14.19h-2l-6.26-14.19V109.5h-3V85.3h4.39l6,13.47,5.84-13.47H251v24.2Z" transform="translate(-0.62)"/><path class="cls-1" d="M262.55,109.92a9,9,0,0,1-6.74-2.45q-2.4-2.45-2.4-6.95a10.27,10.27,0,0,1,2.32-7.06,7.73,7.73,0,0,1,6.08-2.63,8.49,8.49,0,0,1,3,.49,6,6,0,0,1,2.28,1.53,7,7,0,0,1,1.5,2.54,11.35,11.35,0,0,1,.52,3.68v1.66H256.52a6.76,6.76,0,0,0,1.59,4.84,5.79,5.79,0,0,0,4.4,1.67,8.59,8.59,0,0,0,2-.23,9.32,9.32,0,0,0,1.75-.59,12.64,12.64,0,0,0,1.4-.72,8.44,8.44,0,0,0,.94-0.66h0.18v3.33l-1.33.53a14.77,14.77,0,0,1-1.43.5q-0.89.24-1.62,0.37A10.63,10.63,0,0,1,262.55,109.92Zm3.58-11.52a8.54,8.54,0,0,0-.29-2.13,4.4,4.4,0,0,0-.75-1.51,3.42,3.42,0,0,0-1.37-1,6.12,6.12,0,0,0-4.14,0A4.94,4.94,0,0,0,258,94.79a5.09,5.09,0,0,0-1,1.58,6.82,6.82,0,0,0-.46,2h9.61Z" transform="translate(-0.62)"/><path class="cls-1" d="M285.55,109.5H282.5v-1.85q-0.72.6-1.24,1a6.82,6.82,0,0,1-1.22.72,7,7,0,0,1-1.35.48,6.9,6.9,0,0,1-1.63.17,6.14,6.14,0,0,1-2.74-.62,5.83,5.83,0,0,1-2.14-1.8,8.9,8.9,0,0,1-1.38-3,15.26,15.26,0,0,1-.49-4.06,12.43,12.43,0,0,1,.62-4.14,9.77,9.77,0,0,1,1.71-3,7.08,7.08,0,0,1,2.4-1.86,6.74,6.74,0,0,1,3-.67,8.34,8.34,0,0,1,2.37.3,10.44,10.44,0,0,1,2.13.93V84.21h3.06V109.5Zm-3.06-4.42V94.61a10,10,0,0,0-2-.76,8.6,8.6,0,0,0-2-.21,4.37,4.37,0,0,0-3.69,1.76,8.34,8.34,0,0,0-1.33,5.1,9.58,9.58,0,0,0,1,4.9,3.55,3.55,0,0,0,3.28,1.7,5.9,5.9,0,0,0,2.42-.54A9.31,9.31,0,0,0,282.5,105.08Z" transform="translate(-0.62)"/><path class="cls-1" d="M292,88.3h-3.48V85.13H292V88.3Zm-0.21,21.2h-3.06V91.34h3.06V109.5Z" transform="translate(-0.62)"/><path class="cls-1" d="M302.4,109.91a9.82,9.82,0,0,1-3.43-.58,7,7,0,0,1-2.68-1.75,8,8,0,0,1-1.74-3,12.77,12.77,0,0,1-.62-4.19,11.92,11.92,0,0,1,.64-4.13,8.9,8.9,0,0,1,1.71-2.93A7.11,7.11,0,0,1,299,91.56a9.15,9.15,0,0,1,3.44-.64,9.86,9.86,0,0,1,2.89.42,15.4,15.4,0,0,1,2.48,1v3.43h-0.18q-0.33-.28-0.84-0.63a10.82,10.82,0,0,0-1.24-.73,8.15,8.15,0,0,0-1.5-.57,6.09,6.09,0,0,0-1.66-.24,4.64,4.64,0,0,0-3.81,1.8,9.71,9.71,0,0,0,0,10.09,4.61,4.61,0,0,0,3.86,1.8,6.76,6.76,0,0,0,2.84-.62,8.85,8.85,0,0,0,2.39-1.59h0.18v3.43l-1.14.51a8.55,8.55,0,0,1-1.24.45q-0.78.23-1.4,0.35A8.5,8.5,0,0,1,302.4,109.91Z" transform="translate(-0.62)"/><path class="cls-1" d="M313,88.3h-3.48V85.13H313V88.3Zm-0.21,21.2h-3.06V91.34h3.06V109.5Z" transform="translate(-0.62)"/><path class="cls-1" d="M330.29,109.5h-3.06V99.16a20.88,20.88,0,0,0-.12-2.33,5,5,0,0,0-.46-1.73,2.38,2.38,0,0,0-1-1,4.13,4.13,0,0,0-1.82-.33,5.21,5.21,0,0,0-2.35.61,12.11,12.11,0,0,0-2.37,1.58V109.5H316V91.34h3.06v2a12,12,0,0,1,2.7-1.87,6.34,6.34,0,0,1,2.81-.65,5.23,5.23,0,0,1,4.19,1.76,7.65,7.65,0,0,1,1.51,5.11V109.5Z" transform="translate(-0.62)"/><path class="cls-1" d="M341.42,109.92a9,9,0,0,1-6.74-2.45q-2.4-2.45-2.4-6.95a10.27,10.27,0,0,1,2.32-7.06,7.73,7.73,0,0,1,6.08-2.63,8.49,8.49,0,0,1,3,.49A6,6,0,0,1,346,92.86a7,7,0,0,1,1.5,2.54,11.35,11.35,0,0,1,.52,3.68v1.66H335.39a6.76,6.76,0,0,0,1.59,4.84,5.79,5.79,0,0,0,4.4,1.67,8.59,8.59,0,0,0,2-.23,9.31,9.31,0,0,0,1.75-.59,12.59,12.59,0,0,0,1.4-.72,8.39,8.39,0,0,0,.94-0.66h0.18v3.33l-1.33.53a14.77,14.77,0,0,1-1.43.5q-0.89.24-1.62,0.37A10.63,10.63,0,0,1,341.42,109.92ZM345,98.4a8.49,8.49,0,0,0-.29-2.13,4.4,4.4,0,0,0-.75-1.51,3.42,3.42,0,0,0-1.37-1,6.12,6.12,0,0,0-4.14,0,5,5,0,0,0-1.55,1.06,5.1,5.1,0,0,0-1,1.58,6.82,6.82,0,0,0-.46,2H345Z" transform="translate(-0.62)"/></svg>