<?xml version="1.0" encoding="utf-8"?>
<!-- Generator: Adobe Illustrator 19.2.0, SVG Export Plug-In . SVG Version: 6.00 Build 0)  -->
<!DOCTYPE svg PUBLIC "-//W3C//DTD SVG 1.1//EN" "http://www.w3.org/Graphics/SVG/1.1/DTD/svg11.dtd">
<svg version="1.1" id="Layer_1" xmlns="http://www.w3.org/2000/svg" xmlns:xlink="http://www.w3.org/1999/xlink" x="0px" y="0px"
	 viewBox="0 0 599.4 243.5" enable-background="new 0 0 599.4 243.5" xml:space="preserve">
<g>
	<polygon fill="#68737A" points="144.8,87.6 86.7,145.7 29.6,145.7 29.6,117.2 0,117.2 0,59.3 58.2,1.1 58.2,29.7 29.7,29.7 
		29.7,87.6 58.3,87.6 58.3,116.2 116.2,116.2 116.2,87.6 	"/>
	<g>
		<path fill="#A90533" d="M89.4,0.2C88.2,16.1,81.2,28.7,69,40.1c-10.2,9.5-22.2,16.7-16.8,34.1c2.9,9.2,10.4,11.5,16.9,13.9
			c-4.8-9.3-7.4-18.1,8.1-33.2C92.7,39.7,104,19.6,89.4,0.2z"/>
		<path fill="#A90533" d="M100.1,18.8c-1.4,13.9-7,26.3-19.3,37.7c-12.3,11.4-20.3,23.9,6.6,45.7c-1-15.6,1.3-24.3,11.5-35.7
			C111,53,108.1,27.2,100.1,18.8z"/>
		<path fill="#A90533" d="M110.6,40.3c0,12.7-2.8,21.9-9.9,30.2c-7.1,8.3-11.8,16-9.5,34.5c6-9.4,10.3-12.8,21.3-18.4
			C127.8,78.9,127.1,59.9,110.6,40.3z"/>
	</g>
	<g>
		<path fill="#68737A" d="M314.1,209.8c-7.8,6.3-18.1,8.5-28.1,8.5c-18.2,0-35.2-10.2-35.2-31.6c0-19.2,16.9-31.6,35.2-31.6
			c8.6,0,19.1,2.2,26.7,7.1l-2.9,8.7c-0.4,1.1-1,3.2-1.3,3.2s-0.7-1.4-1-2.4c-2-8.1-7.7-14.6-21.5-14.9c-16.9,0-24.6,16.1-24.6,29.9
			c0,13.9,8.4,29.9,28.3,29.9c9.1,0,16-5.6,20.1-15c0.5-1.1,0.6-2,1-2c0.4,0,0.5,0.3,0.8,1.7L314.1,209.8z"/>
		<path fill="#68737A" d="M382.4,206.9l9.8-19.1c1.4-3,2.6-5.8,2.6-8.1c0-2.6-1.7-3.5-3.5-4.2c-0.4-0.1-0.7-0.2-0.7-0.5
			c0-0.2,0.3-0.3,0.8-0.3c2,0,2.7,0.3,5.8,0.3c3,0,3.7-0.3,5.7-0.3c0.5,0,1,0,1,0.2c0,0.3-0.2,0.6-0.7,0.9
			c-2.5,1.8-5.2,5.8-7.8,10.5l-15,28.7c-0.2,0.5-0.7,1.1-0.9,1.1h-0.2c-0.2,0-0.3-0.4-0.8-1.2l-13.5-26.2c-2.9-5.8-5.4-10.8-8.6-13
			c-0.6-0.4-0.9-0.5-0.9-0.8c0-0.3,0.5-0.3,1-0.3c1.2,0,3.2,0.3,6.8,0.3c3.5,0,6.3-0.3,6.9-0.3c0.4,0,1,0.1,1,0.3
			c0,0.2-0.3,0.5-0.7,0.6c-1.2,0.3-2.2,1.2-2.2,2.9c0,1.5,1.2,3.8,1.9,5.2L382.4,206.9z"/>
		<path fill="#68737A" d="M407.1,189.7c-0.2,1.8-0.2,3.4-0.2,5c0,14.3,7.4,19.6,14.8,19.6c8.8,0,15.4-6.1,18-15.1h1.6
			c-2.5,10.6-10.1,17-20.6,17c-13.1,0-22.8-8.8-22.8-21.1c0-12.3,9.7-21.1,22.8-21.1c8.4,0,18.5,5.1,19.6,15.8H407.1z M430.6,188.2
			c0-7.5-3.6-12.8-11.6-12.8c-7,0-10.8,6.2-11.6,12.8H430.6z"/>
		<path fill="#68737A" d="M451.1,185.9h0.2c1.8-6.5,5.5-11.9,15.7-11.9c8.5,0,16.4,4.4,16.4,16.6v14.8c-0.2,7.3,0.8,8.4,3.1,9.2
			c0.5,0.2,1,0.4,1,0.5c0,0.2-0.4,0.2-1.2,0.2c-0.7,0-2.7-0.2-6.9-0.2c-4.2,0-6.9,0.2-7.9,0.2c-0.5,0-0.8,0-0.8-0.2
			c0-0.2,0.2-0.4,0.7-0.5c2.8-0.3,4.2-2.4,4.2-9.2v-14.9c0-7.1-3.2-14.6-11.3-14.6c-9.1,0-12.1,9.4-12.1,20.1v9.4
			c0,4.8,0.2,8.5,3.7,9.1c0.5,0.1,0.8,0.2,0.8,0.5c0,0.3-0.2,0.4-0.7,0.4c-0.5,0-3.7-0.2-7.8-0.2c-4.2,0-7.7,0.2-8.2,0.2
			c-0.5,0-0.7-0.1-0.7-0.4c0-0.2,0.3-0.4,0.8-0.5c3.8-0.6,4.2-4.2,4.2-9.1v-19.1c0-4.6-0.5-7.2-2.7-8.2c-0.8-0.4-1.4-0.6-1.4-0.8
			c0-0.2,0.5-0.2,1.5-0.4c3.7-0.7,6.8-1.2,9.7-2.2V185.9z"/>
		<path fill="#68737A" d="M524.7,208.4c0,2.5,0.4,4.8,2.8,5.9c0.5,0.2,0.8,0.2,0.8,0.5c0,0.2-0.5,0.3-1,0.3H519
			c-1.1-2.5-1.7-5.2-1.8-7.8H517c-3,6.2-7.5,9-14.2,9c-8,0-16.2-3.7-16.2-12.8c0-11.7,17.8-12.8,25.9-12.8h4.4V188
			c0-7.4-3.5-12.6-11.2-12.6c-7.1,0-11.2,2.1-14,8.8c-0.3,0.7-0.5,1.3-0.6,1.3c-0.2,0-0.2-0.4-0.4-0.8l-2-6.9
			c6.3-3.3,11.3-3.8,18.1-3.8c8.8,0,18,3.2,18,12.8V208.4z M516.8,192h-4.5c-8.3,0-16.8,2.5-16.8,12.6c0,5.6,4.1,9.7,9.5,9.7
			c9.1,0,11.8-9.5,11.8-16.9V192z"/>
		<path fill="#68737A" d="M539.4,185.9h0.2c1.8-6.5,5.5-11.9,15.7-11.9c8.5,0,16.4,4.4,16.4,16.6v14.8c-0.2,7.3,0.8,8.4,3.1,9.2
			c0.5,0.2,1,0.4,1,0.5c0,0.2-0.4,0.2-1.2,0.2c-0.7,0-2.7-0.2-6.9-0.2c-4.1,0-6.9,0.2-7.9,0.2c-0.5,0-0.8,0-0.8-0.2
			c0-0.2,0.2-0.4,0.7-0.5c2.8-0.3,4.2-2.4,4.2-9.2v-14.9c0-7.1-3.2-14.6-11.3-14.6c-9.2,0-12.1,9.4-12.1,20.1v9.4
			c0,4.8,0.2,8.5,3.7,9.1c0.5,0.1,0.8,0.2,0.8,0.5c0,0.3-0.2,0.4-0.7,0.4c-0.5,0-3.7-0.2-7.8-0.2c-4.2,0-7.7,0.2-8.2,0.2
			c-0.5,0-0.7-0.1-0.7-0.4c0-0.2,0.3-0.4,0.8-0.5c3.8-0.6,4.2-4.2,4.2-9.1v-19.1c0-4.6-0.5-7.2-2.7-8.2c-0.8-0.4-1.4-0.6-1.4-0.8
			c0-0.2,0.5-0.2,1.5-0.4c3.7-0.7,6.8-1.2,9.7-2.2V185.9z"/>
		<path fill="#68737A" d="M573.4,179.5c-0.5,0-0.8-0.3-0.8-0.7c0-0.4,0.6-0.7,1.5-1.1c4.4-1.5,8.1-5.1,10.9-10.9
			c0.2-0.5,0.5-0.8,0.8-0.8c0.4,0,0.4,0.5,0.4,1.1v9.9h8.5l-0.5,2.5h-8v21.8c0,10.2,2.5,12.1,4.9,12.9c0.6,0.2,0.9,0.3,0.9,0.5
			c0,0.2-0.5,0.3-1.2,0.3h-9.3c-2.2-1-3.2-2.7-3.2-5.6v-30H573.4z"/>
		<path fill="#68737A" d="M453.1,230.3v-7.5c0-1.5-0.4-2.8-1.6-3.1c-0.2-0.1-0.4-0.2-0.4-0.2c0-0.1,0.2-0.2,0.6-0.2
			c0.6,0,2.4,0.2,3.6,0.2c1.2,0,3-0.2,3.6-0.2c0.3,0,0.6,0,0.6,0.2c0,0-0.2,0.2-0.4,0.2c-1.2,0.3-1.6,1.5-1.6,3.1v16.6
			c0,1.8,0.3,2.9,2,3.7c0.2,0.1,0.3,0.2,0.3,0.3c0,0.1-0.2,0.1-0.6,0.1c-1.3,0-1.8-0.1-3.9-0.1c-2.1,0-2.6,0.1-3.9,0.1
			c-0.4,0-0.6,0-0.6-0.1c0-0.1,0.1-0.2,0.3-0.3c1.7-0.8,2-1.9,2-3.7v-8.1h-14.2v8.1c0,1.8,0.3,2.9,2,3.7c0.2,0.1,0.3,0.2,0.3,0.3
			c0,0.1-0.2,0.1-0.6,0.1c-1.3,0-1.8-0.1-3.9-0.1c-2.1,0-2.6,0.1-3.9,0.1c-0.4,0-0.6,0-0.6-0.1c0-0.1,0.1-0.2,0.3-0.3
			c1.7-0.8,2-1.9,2-3.7v-16.6c0-1.5-0.4-2.8-1.6-3.1c-0.2-0.1-0.4-0.2-0.4-0.2c0-0.1,0.2-0.2,0.6-0.2c0.6,0,2.4,0.2,3.6,0.2
			c1.2,0,3-0.2,3.6-0.2c0.3,0,0.6,0,0.6,0.2c0,0-0.2,0.2-0.4,0.2c-1.2,0.3-1.6,1.5-1.6,3.1v7.5H453.1z"/>
		<path fill="#68737A" d="M468.7,230.3h6.9c2.7,0,5.1-1.3,5.6-2.8c0.1-0.2,0.2-0.3,0.3-0.3c0.1,0,0.1,0.2,0.1,0.6v6.2
			c0,0.6,0,0.8-0.1,0.8c-0.2,0-0.2-0.3-0.3-0.5c-1.1-2.8-4.1-2.9-6.8-2.9h-5.8v7.9c0,2.7,0.9,3.3,3.5,3.3h4.2c3.1,0,7.3-1.8,9.7-4.1
			c0.4-0.4,0.9-0.8,1-0.8c0.1,0,0.1,0,0.1,0.1c0,0.1,0,0.2-0.1,0.3l-1.6,5.4h-22.7c-0.9,0-1.1,0-1.1-0.1c0-0.1,0.8-0.3,1-0.6
			c1.4-1.1,1.6-2.1,1.6-5.5v-12.7c0-2.4-0.1-4-1.6-4.4c-0.3-0.1-0.6-0.2-0.6-0.3c0-0.2,0.1-0.2,0.7-0.2h21.1l1,3.5
			c0.1,0.4,0.3,0.9,0.3,1.4c0,0.1-0.1,0.3-0.2,0.3c-0.1,0-0.3-0.2-0.4-0.3c-1.6-2.6-5.5-3.9-9-3.9h-6.9V230.3z"/>
		<path fill="#68737A" d="M496.8,232.5l-2,3.9c-0.7,1.3-1.3,2.7-1.3,4.3c0,1.6,1,2,2,2.4c0.3,0.1,0.4,0.1,0.4,0.3
			c0,0.1-0.2,0.2-0.4,0.2c-0.3,0-1.6-0.1-3.7-0.1c-1.5,0-2.5,0.1-2.9,0.1c-0.4,0-0.5-0.1-0.5-0.2c0-0.3,0.4-0.4,0.7-0.6
			c1.5-1.2,3.5-4.3,4.3-5.9l9.1-17.8c0.1-0.2,0.2-0.3,0.3-0.3h0.1c0.1,0,0.2,0.2,0.3,0.3l11,20.5c0.6,1.2,1.4,2.2,2.5,3.1
			c0.4,0.3,0.9,0.4,0.9,0.6c0,0.1-0.2,0.2-0.5,0.2c-0.3,0-2-0.1-4.2-0.1c-3.1,0-4.3,0.1-4.5,0.1c-0.2,0-0.4,0-0.4-0.1
			c0-0.1,0.2-0.2,0.5-0.3c0.9-0.3,1-1,1-1.9c0-0.7-0.8-2.5-1.7-4.3l-2.1-4.4H496.8z M501.2,223.8l-3.9,7.8h7.9L501.2,223.8z"/>
		<path fill="#68737A" d="M525.6,238.4c0,3.7,1.4,4,4.6,4h2c3.1,0,7.5-1.7,9.8-4.3c0.4-0.5,0.6-0.9,0.8-0.9c0.1,0,0.2,0.1,0.2,0.3
			c0,0.1-0.1,0.3-0.1,0.5l-1.5,5.4h-21.9c-0.6,0-0.8-0.1-0.8-0.2c0-0.1,0.3-0.1,0.9-0.3c1.5-0.6,1.8-2,1.8-5.3v-14.7
			c0-1.5-0.6-2.7-1.6-3c-0.3-0.1-0.4-0.2-0.4-0.3c0-0.1,0.2-0.2,0.6-0.2c0.6,0,2.4,0.2,3.6,0.2c1.2,0,3-0.2,3.6-0.2
			c0.3,0,0.4,0,0.4,0.2c0,0.1-0.2,0.2-0.3,0.2c-1.1,0.5-1.5,1.5-1.5,3V238.4z"/>
		<path fill="#68737A" d="M548.6,222.1c0-1.5-0.6-1.7-2.3-1.7c-3.7,0-6.2,2.1-7.9,3.7c-0.3,0.3-0.6,0.6-0.7,0.6
			c-0.1,0-0.2-0.1-0.2-0.2c0-0.1,0.1-0.5,0.3-0.9l1.2-4.2h23.5l1.2,4.2c0.1,0.4,0.3,0.7,0.3,0.9c0,0.1-0.1,0.2-0.2,0.2
			c-0.1,0-0.4-0.4-0.7-0.6c-1.7-1.6-4.2-3.7-7.9-3.7c-1.7,0-2.3,0.3-2.3,1.7v17.2c0,1.8,0.5,3.3,2.2,3.6c0.3,0,0.6,0.2,0.6,0.3
			c0,0.1-0.2,0.2-0.3,0.2c-0.3,0-2.5-0.1-4.7-0.1c-2.1,0-4.3,0.1-4.6,0.1c-0.2,0-0.3-0.1-0.3-0.2c0-0.1,0.3-0.1,0.7-0.3
			c1.7-0.7,2.1-1.8,2.1-5.3V222.1z"/>
		<path fill="#68737A" d="M586.5,230.3v-7.5c0-1.5-0.4-2.8-1.6-3.1c-0.2-0.1-0.4-0.2-0.4-0.2c0-0.1,0.2-0.2,0.6-0.2
			c0.6,0,2.4,0.2,3.6,0.2c1.2,0,3-0.2,3.6-0.2c0.3,0,0.6,0,0.6,0.2c0,0-0.2,0.2-0.4,0.2c-1.2,0.3-1.6,1.5-1.6,3.1v16.6
			c0,1.8,0.3,2.9,2,3.7c0.2,0.1,0.3,0.2,0.3,0.3c0,0.1-0.2,0.1-0.6,0.1c-1.3,0-1.8-0.1-3.9-0.1c-2.1,0-2.6,0.1-3.9,0.1
			c-0.4,0-0.6,0-0.6-0.1c0-0.1,0.1-0.2,0.3-0.3c1.7-0.8,2-1.9,2-3.7v-8.1h-14.2v8.1c0,1.8,0.3,2.9,2,3.7c0.2,0.1,0.3,0.2,0.3,0.3
			c0,0.1-0.2,0.1-0.6,0.1c-1.3,0-1.8-0.1-3.9-0.1c-2.1,0-2.6,0.1-3.9,0.1c-0.4,0-0.6,0-0.6-0.1c0-0.1,0.1-0.2,0.3-0.3
			c1.7-0.8,2-1.9,2-3.7v-16.6c0-1.5-0.4-2.8-1.6-3.1c-0.2-0.1-0.4-0.2-0.4-0.2c0-0.1,0.2-0.2,0.6-0.2c0.6,0,2.4,0.2,3.6,0.2
			c1.2,0,3-0.2,3.6-0.2c0.3,0,0.6,0,0.6,0.2c0,0-0.2,0.2-0.4,0.2c-1.2,0.3-1.6,1.5-1.6,3.1v7.5H586.5z"/>
		<path fill="#68737A" d="M361.9,191.9c-0.3,5.9-1.3,10.3-4.5,14.9c-5.8,8.1-15,9.5-21.7,7.6c-8.4-2.4-18-13.5-12.4-26.2
			c1.4-3.3,5.6-8.7,12.2-9.6c-5-0.2-10.3,1.8-14.3,6.7c-8.1,9.9-5.1,25.7,6.9,31.7c9.6,4.8,24.3,2.5,31.2-9.8
			C361.6,203,362.6,197.1,361.9,191.9z"/>
		<path fill="#68737A" d="M314.7,199.2c0.3-5.9,1.3-10.3,4.5-14.9c5.8-8.1,15-9.5,21.7-7.6c8.4,2.4,18,13.5,12.4,26.2
			c-1.4,3.3-5.6,8.7-12.2,9.6c5,0.2,10.3-1.8,14.3-6.7c8.1-9.9,5.1-25.7-6.9-31.7c-9.6-4.8-24.3-2.5-31.2,9.8
			C315,188,313.9,194,314.7,199.2z"/>
		<path fill="#68737A" d="M598.3,239.3c0.4,0.5,0.7,1,0.7,1.6c0,0.6-0.2,1.2-0.7,1.6c-0.5,0.5-1,0.7-1.6,0.7c-0.6,0-1.2-0.2-1.6-0.7
			c-0.4-0.5-0.7-1-0.7-1.6c0-0.6,0.2-1.2,0.7-1.6c0.5-0.5,1-0.7,1.6-0.7C597.3,238.6,597.9,238.9,598.3,239.3z M598.6,239.1
			c-0.5-0.5-1.2-0.8-1.9-0.8c-0.7,0-1.4,0.3-1.9,0.8c-0.5,0.5-0.8,1.2-0.8,1.9c0,0.7,0.3,1.4,0.8,1.9c0.5,0.5,1.2,0.8,1.9,0.8
			c0.7,0,1.4-0.3,1.9-0.8c0.5-0.5,0.8-1.2,0.8-1.9C599.4,240.2,599.1,239.6,598.6,239.1z M597.1,240.8c-0.1,0-0.3,0.1-0.5,0.1h-0.5
			v-1.1h0.4c0.3,0,0.5,0,0.6,0.1c0.1,0.1,0.2,0.2,0.2,0.4C597.4,240.6,597.3,240.8,597.1,240.8z M595.6,242.4h0.5v-1.2h0.4
			c0.3,0,0.5,0,0.6,0.1c0.2,0.1,0.3,0.3,0.3,0.7v0.2l0,0.1c0,0,0,0,0,0c0,0,0,0,0,0h0.5l0,0c0,0,0-0.1,0-0.2c0-0.1,0-0.2,0-0.2v-0.2
			c0-0.1-0.1-0.3-0.2-0.5c-0.1-0.2-0.3-0.3-0.5-0.3c0.2,0,0.3-0.1,0.4-0.1c0.2-0.1,0.3-0.3,0.3-0.6c0-0.4-0.2-0.6-0.5-0.7
			c-0.2-0.1-0.4-0.1-0.8-0.1h-1V242.4z"/>
	</g>
	<rect x="150.1" y="143.7" fill="#68737A" width="445.4" height="2.1"/>
	<g>
		<path fill="#68737A" d="M164.4,32.5c0,3.3,0.1,5.8,2.5,8v0.2h-15.2v-0.2c2.8-1.7,2.4-4.9,2.4-7.9v-21c0-2.9,0.4-6.1-2.4-7.8V3.7
			h19.7c0.8,0,1.7,0,2.4-0.3h0.2v8.1h-0.2c-1.5-2.6-4.7-2.3-7.5-2.3h-1.8v9.1h4.1c0.8,0,1.6-0.1,2.1-0.3h0.3v7.9h-0.3
			c-0.7-2.1-3-2-5.1-2l-1.1-0.1V32.5z"/>
		<path fill="#68737A" d="M196.5,2.8c11.8,0,20.4,6.9,20.4,19.2c0,12.2-9.7,19.4-21.1,19.4c-11.5,0-20.4-7.5-20.4-19.3
			C175.4,10.1,185.1,2.8,196.5,2.8z M188.9,31c1.6,2.7,4.4,4.8,7.6,4.8c3,0,5.7-1.5,7.5-3.9c1.7-2.2,2.1-5.1,2.1-7.9
			c0-6.4-2.5-15.6-10.2-15.6c-6.6,0-9.5,6.3-9.5,12.1C186.3,23.8,187.3,28.2,188.9,31z"/>
		<path fill="#68737A" d="M230.8,32.6c0,2.9-0.4,6.1,2.4,7.9v0.2h-15.1v-0.2c2.8-1.7,2.4-4.9,2.4-7.9V11.8c0-2.9,0.4-6.1-2.4-7.9
			V3.7h16.6c2.8,0,5-0.1,7.5,1.3c3.3,1.8,5,4.8,5,8.5c0,4.2-3,7.3-6.7,8.9l6.7,11.2c1.5,2.5,3.1,4.9,5.4,6.7l-7.8,0.5
			c-3.8,0.2-5.6-0.3-7.5-3.8l-6.5-12.2V32.6z M230.8,9.2v12.7c3.5-0.6,6.1-3.6,6.1-7.1c0-1.8-0.7-3.7-2.2-4.8
			c-1-0.7-2.1-0.8-3.3-0.8H230.8z"/>
		<path fill="#68737A" d="M270.6,32.5c0,3.2,0.1,5.7,2.5,8v0.2h-15.2v-0.2c2.8-1.7,2.4-4.9,2.4-7.9V10.1c-1-0.2-1.8-0.2-2.8-0.2
			c-2.6,0-4.2,0.6-6.3,2.1l-0.4,0.3l2.2-8.7l1.1,0.2H280l-1.9,8.5c-0.8-1.9-2.6-2.5-4.6-2.5c-1,0-1.9,0.1-2.9,0.3V32.5z"/>
		<path fill="#68737A" d="M296.3,31.3c3.1,2.6,7.8,4.4,11.8,4.4c2.5,0,6-0.8,6-4c0-6.9-17.1-5.4-17.1-18c0-3.2,1.6-6.3,4.2-8.1
			c2.9-2,6.3-2.7,9.8-2.7c3.1,0,6.5,0.6,9.4,1.7v6.6c-2.4-1.5-5.1-2.6-7.9-2.6c-2.2,0-4.9,1-4.9,3.6c0,2.7,3.3,3.8,5.3,4.7
			c2.7,1.2,5.2,2.2,7.5,4.2c2.7,2.4,4.2,4.9,4.2,8.5c0,3.7-1.5,6.9-4.5,9.1c-3.3,2.4-6.9,2.9-10.9,2.9c-3.7,0-7.4-0.7-10.9-2
			L296.3,31.3z"/>
		<path fill="#68737A" d="M336.7,29.5l-1.3,3.8c-0.4,1.1-1,2.9-1,4c0,1.6,1,2.3,2,3.1v0.2h-11.5v-0.2c2.1-2,2.9-3.6,3.9-6.5
			l7.8-22.4c0.3-1.1,1.2-3.3,1.2-4.5c0-1.5-1-2.5-2.1-3.3V3.7h13.8l10.6,28.9c1.3,3.6,1.6,4.9,4.8,7.9v0.1v0.1h-17v-0.2
			c1.3-0.8,2.3-1.6,2.3-3.4c0-1-0.1-1.2-0.4-2.1l-1.9-5.4H336.7z M342.1,13.2L342.1,13.2l-3.8,11.1h7.6L342.1,13.2z"/>
		<path fill="#68737A" d="M400.1,41.9c-2,0-5.1-1.4-6.7-2.2c-4.2-2.1-5.2-4-8-7.6l-10.8-14.4h-0.2v14.8c0,3.3,0.1,5.7,2.5,8v0.2H366
			v-0.2c2.5-2.3,2.5-4.8,2.5-8V13.1c0-4.3-0.2-5.8-3.3-9.2V3.7H377v0.2l17.2,22.6V11.9c0-3.3-0.1-5.7-2.5-8V3.7h10.8v0.2
			c-2.4,2.3-2.5,4.8-2.5,8V41.9z"/>
		<path fill="#68737A" d="M406.6,15.4c0-1.9,0-7-0.3-8.7c-0.2-1.1-1.1-2.4-2.1-2.9V3.7h11.9c6.1,0,11.7-0.3,16.8,3.3
			c5.1,3.5,7.6,9.3,7.6,15.4c0,5.4-2.3,11.1-6.6,14.5c-5.1,4.1-10.7,3.8-17,3.8h-12.6v-0.2c2.8-1.7,2.4-4.9,2.4-7.9V15.4z M417,34.7
			c1,0.3,2,0.4,3,0.4c3.5,0,5.8-1.1,7.6-4.2c1.5-2.6,2-5.6,2-8.6c0-5.8-2-12.7-8.9-12.7c-1.2,0-2.5,0.2-3.7,0.4V34.7z"/>
		<path fill="#68737A" d="M454.6,34.4c1.9,0.7,3.9,0.8,5.9,0.8c3.1,0,6.1-0.5,8.2-3.1h0.3l-2.2,8.5h-24.9v-0.2
			c2.8-1.7,2.4-4.9,2.4-7.8v-21c0-2.9,0.4-6.1-2.4-7.8V3.7h19.7c0.8,0,1.7,0,2.4-0.3h0.2v8.1h-0.2c-1.5-2.6-4.7-2.4-7.5-2.4h-1.8
			v9.1h5.2c0.8,0,1.6-0.1,2.1-0.3h0.3v7.9h-0.3c-0.8-2.2-3.4-2-5.4-2h-1.9V34.4z"/>
		<path fill="#68737A" d="M482.2,32.6c0,2.9-0.4,6.1,2.4,7.9v0.2h-15.1v-0.2c2.8-1.7,2.4-4.9,2.4-7.9V11.8c0-2.9,0.4-6.1-2.4-7.9
			V3.7h16.6c2.8,0,5-0.1,7.5,1.3c3.3,1.8,5,4.8,5,8.5c0,4.2-3,7.3-6.7,8.9l6.7,11.2c1.5,2.5,3.1,4.9,5.4,6.7l-7.8,0.5
			c-3.8,0.2-5.6-0.3-7.5-3.8l-6.5-12.2V32.6z M482.2,9.2v12.7c3.5-0.6,6.1-3.6,6.1-7.1c0-1.8-0.7-3.7-2.2-4.8
			c-1-0.7-2.1-0.8-3.3-0.8H482.2z"/>
		<path fill="#68737A" d="M503.7,31.3c3.1,2.6,7.8,4.4,11.8,4.4c2.5,0,6-0.8,6-4c0-6.9-17.1-5.4-17.1-18c0-3.2,1.6-6.3,4.2-8.1
			c2.9-2,6.3-2.7,9.8-2.7c3.1,0,6.5,0.6,9.4,1.7v6.6c-2.4-1.5-5.1-2.6-7.9-2.6c-2.2,0-4.9,1-4.9,3.6c0,2.7,3.3,3.8,5.3,4.7
			c2.7,1.2,5.2,2.2,7.5,4.2c2.7,2.4,4.2,4.9,4.2,8.5c0,3.7-1.5,6.9-4.5,9.1c-3.3,2.4-6.9,2.9-10.9,2.9c-3.7,0-7.4-0.7-10.9-2
			L503.7,31.3z"/>
		<path fill="#68737A" d="M164.3,78.9c0,2.9-0.4,6.1,2.4,7.9V87h-15.1v-0.2c2.8-1.7,2.4-4.9,2.4-7.9V58c0-2.9,0.4-6.1-2.4-7.9V50
			h16.6c2.8,0,5-0.1,7.5,1.3c3.3,1.8,5,4.8,5,8.5c0,4.2-3,7.3-6.7,8.9l6.7,11.2c1.5,2.5,3.1,4.9,5.4,6.7l-7.8,0.5
			c-3.8,0.2-5.6-0.3-7.5-3.8l-6.5-12.2V78.9z M164.3,55.5v12.7c3.5-0.6,6.1-3.6,6.1-7.1c0-1.8-0.7-3.7-2.2-4.8
			c-1-0.7-2.1-0.8-3.3-0.8H164.3z"/>
		<path fill="#68737A" d="M198.7,80.7c1.9,0.7,3.9,0.8,5.9,0.8c3.1,0,6.1-0.5,8.2-3.1h0.3l-2.2,8.5h-24.9v-0.2
			c2.8-1.7,2.4-4.9,2.4-7.8V58c0-2.9,0.4-6.1-2.4-7.8V50h19.7c0.8,0,1.7,0,2.4-0.3h0.2v8.1h-0.2c-1.5-2.6-4.7-2.4-7.5-2.4h-1.8v9.1
			h5.2c0.8,0,1.6-0.1,2.1-0.3h0.3v7.9H206c-0.8-2.2-3.4-2-5.4-2h-1.9V80.7z"/>
		<path fill="#68737A" d="M246.9,86c-3.9,1.1-7.9,1.7-12,1.7c-11.7,0-21.1-6.6-21.1-19.1c0-12.1,9.3-19.5,20.9-19.5
			c2.9,0,5.9,0.3,8.7,1.1V58h-0.3c-1.9-1.8-5.4-3-8.3-3c-7.3,0-10.4,5.1-10.4,11.9c0,6.9,2.4,14.9,10.6,14.9c0.7,0,1.5,0,2.2-0.2
			v-8.3c0-2.5-0.1-3.9-2.1-5.4v-0.2h11.8V86z"/>
		<path fill="#68737A" d="M260.8,79c0,2.9-0.4,6.1,2.4,7.8V87H248v-0.2c2.8-1.7,2.4-4.9,2.4-7.8V58c0-2.9,0.4-6.1-2.4-7.9V50h15.1
			v0.2c-2.8,1.7-2.4,4.9-2.4,7.9V79z"/>
		<path fill="#68737A" d="M286.1,49.1c11.8,0,20.4,6.9,20.4,19.2c0,12.2-9.7,19.4-21.1,19.4c-11.5,0-20.4-7.5-20.4-19.3
			C265,56.4,274.7,49.1,286.1,49.1z M278.6,77.3c1.6,2.7,4.4,4.8,7.6,4.8c3,0,5.7-1.5,7.5-3.9c1.7-2.2,2.1-5.1,2.1-7.9
			c0-6.4-2.5-15.6-10.2-15.6c-6.6,0-9.5,6.3-9.5,12.1C275.9,70.1,277,74.4,278.6,77.3z"/>
		<path fill="#68737A" d="M342.5,88.2c-2,0-5.1-1.4-6.7-2.2c-4.2-2.1-5.2-4-8-7.6L317,63.9h-0.2v14.8c0,3.3,0.1,5.7,2.5,8V87h-10.8
			v-0.2c2.5-2.3,2.5-4.8,2.5-8V59.4c0-4.3-0.2-5.8-3.3-9.2V50h11.7v0.2l17.2,22.6V58.2c0-3.3-0.1-5.7-2.5-8V50H345v0.2
			c-2.4,2.3-2.5,4.8-2.5,8V88.2z"/>
		<path fill="#68737A" d="M358,75.8l-1.3,3.8c-0.4,1.1-1,2.9-1,4c0,1.6,1,2.3,2,3.1V87h-11.5v-0.2c2.1-2,2.9-3.6,3.9-6.5l7.8-22.4
			c0.3-1.1,1.2-3.3,1.2-4.5c0-1.5-1-2.5-2.1-3.3V50h13.8l10.6,28.9c1.3,3.6,1.6,4.9,4.8,7.9v0.1V87h-17v-0.2
			c1.3-0.8,2.3-1.6,2.3-3.4c0-1-0.1-1.2-0.5-2.1l-1.9-5.4H358z M363.4,59.5L363.4,59.5l-3.8,11.1h7.6L363.4,59.5z"/>
		<path fill="#68737A" d="M399.5,80.6c1.8,0.8,3.9,1,5.9,1c3.1,0,5.5-0.6,8-2.5l-2.1,7.9h-24.5v-0.2c2.8-1.7,2.4-4.9,2.4-7.8V58
			c0-2.9,0.4-6.1-2.4-7.9V50h15.1v0.2c-2.8,1.7-2.4,4.9-2.4,7.9V80.6z"/>
		<path fill="#68737A" d="M182.3,96.5v-0.2h13.4v0.2c-1.3,1.2-2.2,1.8-2,3.8l2.6,24.3c0.3,3.1,0.6,6.3,3.1,8.5v0.2h-14.8v-0.2
			c1-1,2-2.5,1.8-4l-2-19.7h-0.2l-7.3,24.5c-1.9-0.5-3.7-1.5-5.3-2.6c-2.6-1.7-3.3-4.1-4.4-7l-5.5-14.9h-0.2l-1.9,19.4
			c-0.2,1.9,0.8,3.5,2.5,4.3v0.2h-11.1v-0.2c2.5-2,2.6-4.8,2.9-7.9l2.7-23.6c0.2-2.1-0.6-3.8-2.1-5.2v-0.2h12.9v0.2l8.3,21.5
			L182.3,96.5z"/>
		<path fill="#68737A" d="M213.3,127c1.9,0.7,3.9,0.8,5.9,0.8c3.1,0,6.1-0.5,8.2-3.1h0.3l-2.2,8.5h-24.9v-0.2
			c2.8-1.7,2.4-4.9,2.4-7.8v-21c0-2.9,0.4-6.1-2.4-7.8v-0.2h19.7c0.8,0,1.7,0,2.4-0.3h0.2v8.1h-0.2c-1.5-2.6-4.7-2.4-7.5-2.4h-1.8
			v9.1h5.2c0.8,0,1.6-0.1,2.1-0.3h0.3v7.9h-0.3c-0.8-2.2-3.4-2-5.4-2h-1.9V127z"/>
		<path fill="#68737A" d="M230.7,108c0-1.9,0-7-0.3-8.7c-0.2-1.1-1.1-2.4-2.1-2.9v-0.2h11.9c6.1,0,11.7-0.3,16.8,3.3
			c5.1,3.5,7.6,9.3,7.6,15.4c0,5.4-2.3,11.1-6.6,14.5c-5.1,4.1-10.7,3.8-17,3.8h-12.6v-0.2c2.8-1.7,2.4-4.9,2.4-7.9V108z
			 M241.1,127.3c1,0.3,2,0.4,3,0.4c3.5,0,5.8-1.1,7.6-4.2c1.5-2.6,2-5.6,2-8.6c0-5.8-2-12.7-8.9-12.7c-1.2,0-2.5,0.2-3.7,0.4V127.3z
			"/>
		<path fill="#68737A" d="M278.8,125.3c0,2.9-0.4,6.1,2.4,7.8v0.2H266v-0.2c2.8-1.7,2.4-4.9,2.4-7.8v-21c0-2.9,0.4-6.1-2.4-7.9v-0.2
			h15.1v0.2c-2.8,1.7-2.4,4.9-2.4,7.9V125.3z"/>
		<path fill="#68737A" d="M313.3,104c-2.8-1.9-6-2.9-9.4-2.9c-7.7,0-9.9,6.2-9.9,13c0,7.8,3.8,14,12.1,14c4.4,0,8.4-1.6,12.1-3.7
			l-2.8,8.2c-3.7,1-7.4,1.3-11.2,1.3c-5.7,0-10.6-1-15.1-4.8c-4.3-3.7-6.6-8.9-6.6-14.7c0-5.2,2.2-10.6,6.1-14.1
			c4.3-3.7,10.2-5,15.7-5l8.5,0.7L313.3,104z"/>
		<path fill="#68737A" d="M330.4,122.1l-1.3,3.8c-0.4,1.1-1,2.9-1,4c0,1.6,1,2.3,2,3.1v0.2h-11.5v-0.2c2.1-2,2.9-3.6,3.9-6.5
			l7.8-22.4c0.3-1.1,1.2-3.3,1.2-4.5c0-1.5-1-2.5-2.1-3.3v-0.2H343l10.6,28.9c1.3,3.6,1.6,4.9,4.8,7.9v0.1v0.1h-17v-0.2
			c1.3-0.8,2.3-1.6,2.3-3.4c0-1-0.1-1.2-0.4-2.1l-1.9-5.4H330.4z M335.8,105.8L335.8,105.8l-3.8,11.1h7.6L335.8,105.8z"/>
		<path fill="#68737A" d="M371.9,126.9c1.8,0.8,3.9,1,5.9,1c3.1,0,5.5-0.6,8-2.5l-2.1,7.9h-24.5v-0.2c2.8-1.7,2.4-4.9,2.4-7.8v-21
			c0-2.9,0.4-6.1-2.4-7.9v-0.2h15.1v0.2c-2.8,1.7-2.4,4.9-2.4,7.9V126.9z"/>
		<path fill="#68737A" d="M434,104c-2.8-1.9-6-2.9-9.4-2.9c-7.7,0-9.9,6.2-9.9,13c0,7.8,3.8,14,12.1,14c4.4,0,8.4-1.6,12.1-3.7
			l-2.8,8.2c-3.7,1-7.4,1.3-11.2,1.3c-5.7,0-10.6-1-15.1-4.8c-4.3-3.7-6.6-8.9-6.6-14.7c0-5.2,2.2-10.6,6.1-14.1
			c4.3-3.7,10.2-5,15.7-5l8.5,0.7L434,104z"/>
		<path fill="#68737A" d="M452.4,127c1.9,0.7,3.9,0.8,5.9,0.8c3.1,0,6.1-0.5,8.2-3.1h0.3l-2.2,8.5h-24.9v-0.2
			c2.8-1.7,2.4-4.9,2.4-7.8v-21c0-2.9,0.4-6.1-2.4-7.8v-0.2h19.7c0.8,0,1.7,0,2.4-0.3h0.2v8.1h-0.2c-1.5-2.6-4.7-2.4-7.5-2.4h-1.8
			v9.1h5.2c0.8,0,1.6-0.1,2.1-0.3h0.3v7.9h-0.3c-0.8-2.2-3.4-2-5.4-2h-1.9V127z"/>
		<path fill="#68737A" d="M502.1,134.4c-2,0-5.1-1.4-6.7-2.2c-4.2-2.1-5.2-4-8-7.6l-10.8-14.4h-0.2v14.8c0,3.3,0.1,5.7,2.5,8v0.2
			H468v-0.2c2.5-2.3,2.5-4.8,2.5-8v-19.4c0-4.3-0.2-5.8-3.3-9.2v-0.2H479v0.2l17.2,22.6v-14.5c0-3.3-0.1-5.7-2.5-8v-0.2h10.8v0.2
			c-2.4,2.3-2.5,4.8-2.5,8V134.4z"/>
		<path fill="#68737A" d="M524.3,125.1c0,3.2,0.1,5.7,2.5,8v0.2h-15.2v-0.2c2.8-1.7,2.4-4.9,2.4-7.9v-22.6c-1-0.2-1.8-0.2-2.8-0.2
			c-2.6,0-4.2,0.6-6.3,2.1l-0.4,0.3l2.2-8.7l1.1,0.2h26.1l-1.9,8.5c-0.8-1.9-2.6-2.5-4.6-2.5c-1,0-1.9,0.1-2.9,0.3V125.1z"/>
		<path fill="#68737A" d="M546.5,127c1.9,0.7,3.9,0.8,5.9,0.8c3.1,0,6.1-0.5,8.2-3.1h0.3l-2.2,8.5h-24.9v-0.2
			c2.8-1.7,2.4-4.9,2.4-7.8v-21c0-2.9,0.4-6.1-2.4-7.8v-0.2h19.7c0.8,0,1.7,0,2.4-0.3h0.2v8.1h-0.2c-1.5-2.6-4.7-2.4-7.5-2.4h-1.8
			v9.1h5.2c0.8,0,1.6-0.1,2.1-0.3h0.3v7.9h-0.3c-0.8-2.2-3.4-2-5.4-2h-1.9V127z"/>
		<path fill="#68737A" d="M574.1,125.2c0,2.9-0.4,6.1,2.4,7.9v0.2h-15.1v-0.2c2.8-1.7,2.4-4.9,2.4-7.9v-20.9c0-2.9,0.4-6.1-2.4-7.9
			v-0.2H578c2.8,0,5-0.1,7.5,1.3c3.3,1.8,5,4.8,5,8.5c0,4.2-3,7.3-6.7,8.9l6.7,11.2c1.5,2.5,3.1,4.9,5.4,6.7l-7.8,0.5
			c-3.8,0.2-5.6-0.3-7.5-3.8l-6.5-12.2V125.2z M574.1,101.7v12.7c3.5-0.6,6.1-3.6,6.1-7.1c0-1.8-0.7-3.7-2.2-4.8
			c-1-0.7-2.1-0.8-3.3-0.8H574.1z"/>
	</g>
	<path fill="#68737A" d="M10.2,136.4c1,1,1.5,2.2,1.5,3.5c0,1.4-0.5,2.6-1.5,3.6c-1,1-2.1,1.5-3.5,1.5c-1.4,0-2.6-0.5-3.5-1.5
		c-1-1-1.4-2.2-1.4-3.6c0-1.4,0.5-2.6,1.5-3.5c1-1,2.1-1.5,3.5-1.5C8,135,9.2,135.5,10.2,136.4z M10.8,135.9
		c-1.1-1.1-2.5-1.7-4.1-1.7c-1.6,0-3,0.6-4.1,1.7c-1.1,1.1-1.7,2.5-1.7,4.1c0,1.6,0.6,3,1.7,4.1c1.1,1.1,2.5,1.7,4.1,1.7
		c1.6,0,3-0.6,4.1-1.7c1.1-1.1,1.7-2.5,1.7-4.1C12.5,138.4,11.9,137,10.8,135.9z M7.5,139.7c-0.2,0.1-0.6,0.1-1.1,0.1h-1v-2.3h1
		c0.6,0,1.1,0.1,1.4,0.2c0.3,0.2,0.4,0.5,0.4,0.9C8.2,139.2,7.9,139.5,7.5,139.7z M4.3,143.1h1.1v-2.5h0.9c0.6,0,1,0.1,1.2,0.2
		c0.4,0.2,0.6,0.7,0.6,1.5v0.5l0,0.2c0,0,0,0.1,0,0.1c0,0,0,0,0,0.1h1.1l0-0.1c0-0.1,0-0.2-0.1-0.3c0-0.2,0-0.3,0-0.5v-0.5
		c0-0.3-0.1-0.7-0.3-1c-0.2-0.3-0.6-0.5-1.1-0.6c0.4-0.1,0.7-0.2,0.9-0.3c0.4-0.3,0.6-0.7,0.6-1.3c0-0.8-0.3-1.3-1-1.6
		c-0.4-0.2-0.9-0.2-1.7-0.2H4.3V143.1z"/>
</g>
</svg>
