<svg id="Layer_1" data-name="Layer 1" xmlns="http://www.w3.org/2000/svg" viewBox="0 0 359.3 289.33"><defs><style>.cls-1{fill:#005a9c;}</style></defs><title>cumberland-medical-center</title><path class="cls-1" d="M49.66,155a4.17,4.17,0,0,0,.78.54c5.81,1.41,10.35,4.93,14.8,8.69a33,33,0,0,0,6.06,4.13c6.1,3.16,12.3,4.19,19.23,2.13A23.74,23.74,0,0,1,107.76,172c3.28,1.58,6.61,3,9.92,4.54l1.89,0.89a4,4,0,0,1-2.14.42,78,78,0,0,0-23.05,3.05c-3.3.92-6.64,1.72-10,2.5a24.74,24.74,0,0,1-3.16.34l-0.08.52c1.43,0.73,2.84,1.5,4.28,2.19,8.22,3.92,16.65,7.12,26,6.69,6-.28,11.09-2.53,14.7-7.56,1.89-2.64,3-3.16,6.12-2.3,5.5,1.49,11,3.14,16.44,4.74,2.91,0.85,5.82,1.73,8.7,2.58,0.63-1.47,0-2-1.08-2.45-4-1.56-8-3.2-11.08-6.25a4.73,4.73,0,0,1-1.13-2.74c-0.22-2.12,0-4.29-.3-6.38-1.21-7.61-5.56-13.37-11.34-18.12-4-3.26-8.15-6.23-12.57-9.58a17.93,17.93,0,0,0-1.6,3.87,13.63,13.63,0,0,0,.16,4.49c0.45,2.72,1.31,5.37,1.61,8.1,0.89,8.08,4.79,13.88,12.36,17.06,2,0.85,4.11,1.52,6.15,2.33,1.34,0.53,2.64,1.14,4,1.72,0.6,0.27,1.19.56,1.78,0.84a3.58,3.58,0,0,1-.83.74C130,181.68,118,176,106.81,168.28c-4.06-2.8-5-6.43-4-11,0.57-2.66,1-5.37,1.45-8.27H90.65a23.49,23.49,0,0,0,7,10.91,4.32,4.32,0,0,1,1.74,4.25,13,13,0,0,1-1.74-1c-4.72-3.95-9.57-7.75-14-12-1.81-1.7-3.43-2.44-6-1.81,6.28,6.51,13.6,11.62,20.43,17.48-1.57,0-3.77,0-4.24-.87-2.51-4.74-6.56-7.44-11.34-9.1-9.73-3.38-19.76-3.91-29.93-2.57C51.7,154.47,50.84,154.72,49.66,155Z" transform="translate(-0.7)"/><path class="cls-1" d="M308.06,156.24a3.32,3.32,0,0,0-.66-0.24c-11.61-1.73-23.06-1.42-34.06,3.13a16.73,16.73,0,0,0-8.28,6.89c-1.31,2.22-2.54,2.64-5.16,1.65,7.62-5.87,15.52-11.35,22-18.61-2.74-.77-4.49.18-6.18,2.18a71.89,71.89,0,0,1-15.21,13.18c-0.54.36-1.13,0.66-1.86,1.09a4.72,4.72,0,0,1,1.55-4.1,55.25,55.25,0,0,0,5.21-6.41c1.14-1.76,1.7-3.9,2.6-6.05H253.67c0.5,3,.86,5.82,1.47,8.62,1,4.74.74,8.85-3.77,12-11,7.59-22.91,13.23-36.1,15.9a2.69,2.69,0,0,1-.83-0.1l-0.23-.6c1.63-.81,3.22-1.71,4.89-2.4,2.14-.88,4.41-1.47,6.52-2.41,5.7-2.55,10.1-6.38,11.53-12.79,1-4.4,2-8.81,2.71-13.26,0.44-2.72.39-5.54-1.92-7.34-3.18,2.41-6.23,4.7-9.25,7-1.59,1.23-3.22,2.43-4.68,3.8-6.67,6.2-10.78,13.54-9.87,23a2.94,2.94,0,0,1-1.43,3q-5.26,3.07-10.65,5.91c-1.08.57-2.06,1-1.31,2.5,0.46-.11.89-0.19,1.3-0.31,7.63-2.25,15.25-4.58,22.91-6.72,2-.55,4.4-1.15,6.1.43,4,3.71,8.75,5,13.94,5.31,8.69,0.49,17.12-1.15,25.48-3.28,2.13-.54,4.25-1.14,6.38-1.71l-0.06-.58c-0.9-.09-1.81-0.13-2.7-0.27a37,37,0,0,1-6.26-1.12,75.16,75.16,0,0,0-20.38-4.19l-9.28-.5c1-.49,1.6-0.79,2.2-1.05,2.87-1.27,5.8-2.42,8.59-3.83,2.42-1.22,4.78-2.54,7.58-2.55,3.62,0,7.46-.7,10.81.27a25,25,0,0,0,19-1.82,26.13,26.13,0,0,0,5.09-3.2C296.45,162.46,301.43,158.14,308.06,156.24Z" transform="translate(-0.7)"/><path class="cls-1" d="M108.62,41l-0.21-.63c-4.35,1.1-8.79,1.95-13,3.35C88.53,46,82.95,49.9,79.52,56.54c-0.54,1-2.18,1.5-3.31,2.24l-0.48-.57a17.06,17.06,0,0,1,1-1.67c3.11-4,6-8.3,9.43-12,4.37-4.67,9.23-8.89,13.89-13.28,1.43-1.35,2.85-1.52,4.86-.7,9.21,3.76,18.3,3.43,26.87-1.87a22.1,22.1,0,0,1,7.75-3.18c0.49-.09,1-0.27,1.73-0.49A56.29,56.29,0,0,0,109,24.64a24.19,24.19,0,0,1,5.16-3c5.21-2.16,10.73-2.78,16.32-3.32a23.51,23.51,0,0,0,15.89-7.74,56.7,56.7,0,0,0,4.23-6.25L150,3.69c-4,.92-8.06,1.69-12,2.79A59.6,59.6,0,0,0,115.1,18.31c-3.63,3.08-7.63,5.71-11.5,8.5a9,9,0,0,1-1.93.8l-0.42-.44c7.84-6.83,14.35-14.4,14.56-25.65-0.64.12-1.3,0.23-1.95,0.37C103.43,4.16,98.31,11,99.7,21.51c0.63,4.79-.62,8.36-4.15,11.51-8.29,7.39-15.91,15.39-21.64,25a6.78,6.78,0,0,1-1.47,1.23c-0.29-2.83-.5-5.09,1.84-6.85a16.68,16.68,0,0,0,3.07-3.56c3.91-5.29,5.32-11.1,2.2-17.11-1.84-3.55-4.62-6.6-7-9.88l-0.47.27c0,0.29,0,.59,0,0.88,0.2,2.73-.26,5.16-2.37,7.24a8.43,8.43,0,0,0-1.8,3.66c-1.35,4.76-1,9.59-.12,14.37,0.79,4.24,2.17,8.38,1.65,12.8-0.29,2.48-.45,5-0.67,7.54,1.55,0.39,1.8-1,2.4-1.82,2.67-3.67,5.58-6.54,10.78-6.29,2.89,0.14,5.94-.81,8.76-1.74C99.59,55.84,103.72,48,108.62,41Z" transform="translate(-0.7)"/><path class="cls-1" d="M288.62,68.83l0.47-.52c-0.07-1.12-.14-2.23-0.21-3.35-0.26-3.88-.61-7.74.56-11.58a40,40,0,0,0,1.45-14.54C290.68,36,290,33.17,288,31a6.79,6.79,0,0,1-2-5.46c0-.77,0-1.55,0-2.48-1.87,2.12-3.64,4-5.25,6-4.45,5.54-5.17,12.5-1.65,18.45a55,55,0,0,0,5.53,7.11,5.14,5.14,0,0,1,.64,5.65,1.22,1.22,0,0,1-.5-0.2,20.15,20.15,0,0,1-1.36-1.8c-4.3-6.68-9-13-15-18.37a73.79,73.79,0,0,1-7.9-7.83,9.8,9.8,0,0,1-2.38-5.88c0.24-7.51-2.55-13.59-7.72-18.75A29.89,29.89,0,0,0,238.26,0a60.26,60.26,0,0,0,18.33,28.55,3.14,3.14,0,0,1-1.93-.33c-3.23-2.18-6.75-4.06-9.56-6.7A59.24,59.24,0,0,0,219,7.5c-3.66-1-7.38-1.67-11.23-2.52a5.85,5.85,0,0,0,.14.77c4,9.3,11.75,13.15,21.13,14a58.78,58.78,0,0,1,15.72,3.46,30.27,30.27,0,0,1,4.3,2.45l-0.17.55a51.62,51.62,0,0,0-31.52.13c0.74,0.34,1.53.47,2.27,0.73a21.09,21.09,0,0,1,4.86,1.88c9,6.06,18.54,6.91,28.5,3a4.59,4.59,0,0,1,5.24.82,115.73,115.73,0,0,1,22.41,24.09c0.59,0.85,1.14,1.73,2,3.06-2.06-.48-3.53-0.64-4.36-2.32A22.91,22.91,0,0,0,269,47.88a45.32,45.32,0,0,0-14.85-5.17c-1.6-.3-3.22-0.52-5-0.81,2.47,3.56,4.49,7,7,10A26.76,26.76,0,0,0,278.29,62a6.51,6.51,0,0,1,3.85,1.18,60.62,60.62,0,0,1,4.63,4.63A7.68,7.68,0,0,0,288.62,68.83Z" transform="translate(-0.7)"/><path class="cls-1" d="M49.66,155c1.18-.26,2-0.51,2.92-0.62,10.16-1.33,20.19-.8,29.93,2.57,4.79,1.66,8.83,4.35,11.34,9.1,0.47,0.89,2.67.86,4.24,0.87-6.83-5.86-14.15-11-20.43-17.48,2.54-.63,4.16.11,6,1.81,4.48,4.21,9.33,8,14,12a13,13,0,0,0,1.74,1A4.32,4.32,0,0,0,97.67,160a23.49,23.49,0,0,1-7-10.91h13.57c-0.5,2.9-.89,5.6-1.45,8.27-1,4.54,0,8.17,4,11C118,176,130,181.68,143.47,184.21a3.58,3.58,0,0,0,.83-0.74c-0.59-.28-1.18-0.57-1.78-0.84-1.32-.58-2.62-1.19-4-1.72-2-.8-4.13-1.48-6.15-2.33-7.57-3.17-11.47-9-12.36-17.06-0.3-2.73-1.16-5.39-1.61-8.1a13.63,13.63,0,0,1-.16-4.49,17.93,17.93,0,0,1,1.6-3.87c4.42,3.36,8.61,6.33,12.57,9.58,5.77,4.75,10.12,10.51,11.34,18.12,0.33,2.09.08,4.27,0.3,6.38a4.73,4.73,0,0,0,1.13,2.74c3.12,3,7.1,4.68,11.08,6.25,1.12,0.44,1.71,1,1.08,2.45-2.88-.86-5.79-1.73-8.7-2.58-5.48-1.6-10.94-3.24-16.44-4.74-3.15-.86-4.23-0.34-6.12,2.3-3.6,5-8.69,7.29-14.7,7.56-9.32.43-17.75-2.77-26-6.69-1.45-.69-2.86-1.46-4.28-2.19l0.08-.52a24.74,24.74,0,0,0,3.16-.34c3.34-.78,6.68-1.57,10-2.5a78,78,0,0,1,23.05-3.05,4,4,0,0,0,2.14-.42l-1.89-.89c-3.31-1.51-6.65-3-9.92-4.54a23.74,23.74,0,0,0-17.24-1.55c-6.93,2.06-13.13,1-19.23-2.13a33,33,0,0,1-6.06-4.13c-4.44-3.76-9-7.27-14.8-8.69A4.17,4.17,0,0,1,49.66,155Z" transform="translate(-0.7)"/><path class="cls-1" d="M308.06,156.24c-6.64,1.9-11.61,6.22-16.67,10.45a26.13,26.13,0,0,1-5.09,3.2,25,25,0,0,1-19,1.82c-3.35-1-7.19-.28-10.81-0.27-2.79,0-5.15,1.33-7.58,2.55-2.8,1.41-5.73,2.56-8.59,3.83-0.6.26-1.18,0.56-2.2,1.05l9.28,0.5a75.16,75.16,0,0,1,20.38,4.19,37,37,0,0,0,6.26,1.12c0.89,0.14,1.8.18,2.7,0.27l0.06,0.58c-2.13.57-4.25,1.17-6.38,1.71-8.36,2.13-16.79,3.76-25.48,3.28-5.18-.29-10-1.59-13.94-5.31-1.69-1.58-4.11-1-6.1-.43-7.67,2.14-15.28,4.47-22.91,6.72-0.42.12-.85,0.2-1.3,0.31-0.75-1.52.23-1.93,1.31-2.5q5.38-2.85,10.65-5.91a2.94,2.94,0,0,0,1.43-3c-0.91-9.45,3.21-16.79,9.87-23,1.47-1.37,3.09-2.57,4.68-3.8,3-2.33,6.07-4.62,9.25-7,2.31,1.79,2.35,4.62,1.92,7.34-0.71,4.45-1.72,8.85-2.71,13.26-1.43,6.41-5.83,10.23-11.53,12.79-2.11.95-4.38,1.53-6.52,2.41-1.68.69-3.27,1.59-4.89,2.4l0.23,0.6a2.69,2.69,0,0,0,.83.1c13.19-2.67,25.06-8.3,36.1-15.9,4.51-3.1,4.8-7.21,3.77-12-0.61-2.8-1-5.65-1.47-8.62H268c-0.89,2.15-1.46,4.29-2.6,6.05a55.25,55.25,0,0,1-5.21,6.41,4.72,4.72,0,0,0-1.55,4.1c0.73-.42,1.32-0.73,1.86-1.09a71.89,71.89,0,0,0,15.21-13.18c1.69-2,3.44-2.95,6.18-2.18-6.45,7.26-14.35,12.74-22,18.61,2.62,1,3.84.57,5.16-1.65a16.73,16.73,0,0,1,8.28-6.89c11-4.55,22.45-4.86,34.06-3.13A3.32,3.32,0,0,1,308.06,156.24Z" transform="translate(-0.7)"/><path class="cls-1" d="M108.62,41c-4.9,7-9,14.84-17.9,17.77-2.82.93-5.87,1.88-8.76,1.74-5.2-.25-8.1,2.62-10.78,6.29-0.6.83-.85,2.21-2.4,1.82,0.22-2.58.38-5.07,0.67-7.54,0.52-4.42-.85-8.56-1.65-12.8-0.89-4.78-1.23-9.61.12-14.37a8.43,8.43,0,0,1,1.8-3.66c2.11-2.07,2.57-4.5,2.37-7.24,0-.29,0-0.59,0-0.88l0.47-.27c2.36,3.28,5.14,6.34,7,9.88,3.13,6,1.71,11.83-2.2,17.11a16.68,16.68,0,0,1-3.07,3.56c-2.33,1.75-2.13,4-1.84,6.85A6.78,6.78,0,0,0,73.91,58c5.73-9.62,13.35-17.62,21.64-25,3.53-3.15,4.78-6.72,4.15-11.51C98.31,11,103.43,4.16,113.86,1.9c0.65-.14,1.31-0.25,1.95-0.37-0.21,11.24-6.72,18.82-14.56,25.65l0.42,0.44a9,9,0,0,0,1.93-.8c3.87-2.79,7.87-5.43,11.5-8.5A59.6,59.6,0,0,1,138,6.49c4-1.1,8-1.87,12-2.79l0.53,0.59a56.7,56.7,0,0,1-4.23,6.25,23.51,23.51,0,0,1-15.89,7.74c-5.58.54-11.1,1.16-16.32,3.32a24.19,24.19,0,0,0-5.16,3,56.29,56.29,0,0,1,32.31.38c-0.78.22-1.25,0.4-1.73,0.49a22.1,22.1,0,0,0-7.75,3.18c-8.57,5.3-17.67,5.63-26.87,1.87-2-.82-3.43-0.65-4.86.7-4.67,4.39-9.52,8.61-13.89,13.28-3.46,3.7-6.32,8-9.43,12a17.06,17.06,0,0,0-1,1.67l0.48,0.57c1.13-.73,2.78-1.2,3.31-2.24,3.43-6.64,9-10.58,15.85-12.83,4.25-1.4,8.69-2.25,13-3.35Z" transform="translate(-0.7)"/><path class="cls-1" d="M288.62,68.83a7.68,7.68,0,0,1-1.85-1,60.62,60.62,0,0,0-4.63-4.63A6.51,6.51,0,0,0,278.29,62a26.76,26.76,0,0,1-22.12-10.14c-2.51-3-4.53-6.43-7-10,1.81,0.29,3.43.51,5,.81A45.32,45.32,0,0,1,269,47.88a22.91,22.91,0,0,1,9.26,9.66c0.83,1.68,2.3,1.84,4.36,2.32-0.88-1.33-1.43-2.21-2-3.06a115.73,115.73,0,0,0-22.41-24.09,4.59,4.59,0,0,0-5.24-.82c-10,4-19.49,3.11-28.5-3a21.09,21.09,0,0,0-4.86-1.88c-0.74-.26-1.53-0.39-2.27-0.73a51.62,51.62,0,0,1,31.52-.13l0.17-.55a30.27,30.27,0,0,0-4.3-2.45A58.78,58.78,0,0,0,229,19.73c-9.38-.83-17.16-4.69-21.13-14A5.85,5.85,0,0,1,207.77,5c3.85,0.86,7.58,1.56,11.23,2.52a59.24,59.24,0,0,1,26.09,14c2.81,2.64,6.33,4.52,9.56,6.7a3.14,3.14,0,0,0,1.93.33A60.26,60.26,0,0,1,238.26,0a29.89,29.89,0,0,1,12.21,7.49c5.17,5.16,8,11.24,7.72,18.75a9.8,9.8,0,0,0,2.38,5.88,73.79,73.79,0,0,0,7.9,7.83c6,5.34,10.67,11.68,15,18.37a20.15,20.15,0,0,0,1.36,1.8,1.22,1.22,0,0,0,.5.2,5.14,5.14,0,0,0-.64-5.65,55,55,0,0,1-5.53-7.11c-3.52-6-2.8-12.92,1.65-18.45,1.61-2,3.38-3.86,5.25-6,0,0.93,0,1.71,0,2.48A6.79,6.79,0,0,0,288,31c2.05,2.13,2.69,4.95,2.89,7.8a40,40,0,0,1-1.45,14.54c-1.17,3.84-.82,7.7-0.56,11.58,0.07,1.12.14,2.23,0.21,3.35Z" transform="translate(-0.7)"/><path class="cls-1" d="M43.14,100.81l0.81,0.74a32.08,32.08,0,0,0-1.49,3.3,31,31,0,0,1-7.24,2.8,34.91,34.91,0,0,1-8,.83,31.38,31.38,0,0,1-14.34-3,21.39,21.39,0,0,1-9-8.38A24.13,24.13,0,0,1,.7,84.72,21.19,21.19,0,0,1,7.84,68.23Q15,61.8,27.54,61.8a46.15,46.15,0,0,1,8.27.74,47.13,47.13,0,0,1,8.14,2.27l0.23,0.49a18.59,18.59,0,0,0-.83,3.37q-0.43,2.82-.66,7H40A41.5,41.5,0,0,0,39.58,70a6.19,6.19,0,0,0-1.78-1.72,12.67,12.67,0,0,0-4.28-2,22,22,0,0,0-6-.76q-7.76,0-12.34,4.79T10.64,83.72q0,9.26,5.5,15,5.08,5.31,14,5.31a27.68,27.68,0,0,0,6.43-.71A32.1,32.1,0,0,0,43.14,100.81Z" transform="translate(-0.7)"/><path class="cls-1" d="M45.06,81.58V79.09a49.36,49.36,0,0,0,9.68-1.85l3.2-1.13a0.6,0.6,0,0,1,.58.75L58.4,78.77q-0.55,7.46-.55,14.39a24.63,24.63,0,0,0,.45,5.95,4.15,4.15,0,0,0,1.63,2.28,5.49,5.49,0,0,0,3.16.81,6.65,6.65,0,0,0,4-1.26,5.22,5.22,0,0,0,2.14-2.79q0.4-1.52.4-8.69a59.51,59.51,0,0,0-.19-6.71A1.1,1.1,0,0,0,69,82a20.2,20.2,0,0,0-4.4-.45V79.09a54.08,54.08,0,0,0,9.72-1.75l3.42-1.23a0.55,0.55,0,0,1,.55.68l-0.06.88q-0.52,5.65-.52,20.47a36.58,36.58,0,0,0,.26,5.71,1.31,1.31,0,0,0,.51.78,16.55,16.55,0,0,0,4.05.55v2.65q-3.7-.19-7.34-0.19-3,0-5.51.19l-0.29-.58q0.14-1.62.26-5.08a63.69,63.69,0,0,0-5.83,5.34,11.28,11.28,0,0,1-4.53,1,10.67,10.67,0,0,1-5.18-1.2,7.85,7.85,0,0,1-3.25-3.13,11.48,11.48,0,0,1-1.05-5.43l0.06-3.53Q50,92,50,89.91a56.11,56.11,0,0,0-.23-6.9A1.53,1.53,0,0,0,49.08,82,13.7,13.7,0,0,0,45.06,81.58Z" transform="translate(-0.7)"/><path class="cls-1" d="M84.11,107.83v-2.65a12.63,12.63,0,0,0,3.81-.44,1.56,1.56,0,0,0,.59-1.12,63.6,63.6,0,0,0,.26-7.52q0-12.48-.32-13.52-0.26-.88-2.25-0.91l-2.09-.06V79.12a60.12,60.12,0,0,0,6.78-1.06A33,33,0,0,0,96,76.5a2.23,2.23,0,0,1,.68-0.16q0.45,0,.45.81,0,0.62-.08,1.65Q97,79.25,97,80.41v1.17l5.3-4a8.47,8.47,0,0,1,5.11-1.26,9.86,9.86,0,0,1,5.49,1.34A8.3,8.3,0,0,1,116,82l5.5-4.37a7,7,0,0,1,4.43-1.26q5.08,0,7.48,2.5t2.4,8.11l-0.06,2.69q-0.13,4.48-.13,8a37.32,37.32,0,0,0,.29,6,1.71,1.71,0,0,0,.66,1.05,12.25,12.25,0,0,0,3.64.5v2.65q-4-.19-7-0.19t-6,.19l-0.39-.62a113.54,113.54,0,0,0,.84-13.61q0-7.87-1.22-9.84t-4.3-2a6.28,6.28,0,0,0-3.54,1,4.9,4.9,0,0,0-2,2.3,26.41,26.41,0,0,0-.32,5.68q0,8.57.23,11.85a2.68,2.68,0,0,0,.6,1.87q0.5,0.41,4.13.67v2.65q-4.24-.19-8.32-0.19-5.08,0-9.13.19v-2.65q3.2,0,3.75-.93T108,96.12a91.48,91.48,0,0,0-.32-10.22,4.79,4.79,0,0,0-1.57-3.05,5.23,5.23,0,0,0-3.45-1,5.91,5.91,0,0,0-2.95.75,6.49,6.49,0,0,0-2.23,2.11A4.08,4.08,0,0,0,97,87l0,1.23q0.1,0.91.1,5.1l0,3.83a57.1,57.1,0,0,0,.19,6.53,1.3,1.3,0,0,0,.53.94,12.93,12.93,0,0,0,3.54.58v2.65q-3.88-.19-8.5-0.19Q91.22,107.64,84.11,107.83Z" transform="translate(-0.7)"/><path class="cls-1" d="M146.65,108.51l-1.54-.62q0.58-7.84.58-21.67,0-6.25-.1-9.65l-0.19-8.33a6.39,6.39,0,0,0-.32-2.53,1.24,1.24,0,0,0-.81-0.58,30.55,30.55,0,0,0-3.8-.26V62.55a33.12,33.12,0,0,0,5.65-.76,32.13,32.13,0,0,0,5.81-1.57l1.42-.55a0.63,0.63,0,0,1,.61.78l-0.1,3.4q-0.06,1.75-.23,18.35l3.92-3.27a11.16,11.16,0,0,1,3.32-2.07,10.73,10.73,0,0,1,3.54-.52,11.46,11.46,0,0,1,8.72,3.47,12.65,12.65,0,0,1,3.29,9.07,19.22,19.22,0,0,1-.91,5.69,16.54,16.54,0,0,1-2.25,4.8,13.38,13.38,0,0,1-3.48,3.29q-2.69,1.72-4.56,3.14a14.49,14.49,0,0,1-3.76,2.2,11.63,11.63,0,0,1-3.72.52,14.31,14.31,0,0,1-4-.55,17.9,17.9,0,0,1-4.24-2Q148.71,106.54,146.65,108.51Zm7-22.92v14.86a8.1,8.1,0,0,0,2.88,2.69,7.93,7.93,0,0,0,3.82.91,6.74,6.74,0,0,0,5.6-2.77q2.14-2.77,2.14-8.4,0-5.31-2.19-8a7,7,0,0,0-5.71-2.7,7.45,7.45,0,0,0-3.51.86A9.81,9.81,0,0,0,153.66,85.59Z" transform="translate(-0.7)"/><path class="cls-1" d="M206.08,101.58l0.93,0.94-1.45,3.1a18.7,18.7,0,0,1-5,2.17,21.64,21.64,0,0,1-5.68.72q-7.06,0-11.12-4.1T179.7,92.89a21.64,21.64,0,0,1,1.2-7.78A9.3,9.3,0,0,1,184.08,81a36.51,36.51,0,0,1,5.11-3.14,13.71,13.71,0,0,1,6.36-1.49,13,13,0,0,1,8.77,3q3.46,3,3.46,9.55,0,0.81-.13,2.47l-5.3,1q-2.45.16-7.11,0.16h-7q0.48,5.58,3.33,8.41a9.87,9.87,0,0,0,7.25,2.82,12.85,12.85,0,0,0,3.66-.54A16.32,16.32,0,0,0,206.08,101.58ZM188,89q2.91,0.26,5.83.26,2.56,0,5.37-.26l0-1.53q0-4-1.46-5.83a4.77,4.77,0,0,0-3.95-1.84,5.22,5.22,0,0,0-3,.86A5.11,5.11,0,0,0,189,83.11,23.55,23.55,0,0,0,188,89Z" transform="translate(-0.7)"/><path class="cls-1" d="M208.81,107.83v-2.65a17.57,17.57,0,0,0,3.75-.39,1.42,1.42,0,0,0,.62-0.62,10.87,10.87,0,0,0,.42-3.44q0.13-4.73.13-8.62,0-7.49-.2-8.88a1.54,1.54,0,0,0-.58-1.15q-0.49-.34-4.14-0.47V79.12a48.33,48.33,0,0,0,9.33-1.54l3.33-1.25c0.3,0,.45.21,0.45,0.62l0,0.45q-0.11,2-.1,5.86a48.34,48.34,0,0,0,3.66-4A9,9,0,0,1,228,76.89a7.31,7.31,0,0,1,5-.19q-0.29,3.24-.39,8.81l-1.46.52a4,4,0,0,0-3.95-2.27,5.53,5.53,0,0,0-3.33,1,4.46,4.46,0,0,0-1.78,2.3,43.5,43.5,0,0,0-.26,6.62q0,8.21.23,9.58a1.68,1.68,0,0,0,.61,1.23q0.74,0.49,4.89.68v2.65l-3.62-.1q-3.46-.1-6-0.1t-5.57.1Z" transform="translate(-0.7)"/><path class="cls-1" d="M233.59,64.42V62.55a72.73,72.73,0,0,0,7.25-1.26,45.72,45.72,0,0,0,5.73-1.84l0.84,0.71q-0.49,11.57-.49,32.32,0,4.18.13,8.46a11.16,11.16,0,0,0,.31,3.16,1.69,1.69,0,0,0,.77.7,16,16,0,0,0,3.84.39v2.65l-3.39-.1q-3.17-.1-5.33-0.1l-9.66.19v-2.65L236,105a3,3,0,0,0,2.09-.6q0.47-.53.57-4.07,0.16-4.9.16-13.91l0-13.84q0-6.32-.36-7.13a1,1,0,0,0-.49-0.58Q237.34,64.55,233.59,64.42Z" transform="translate(-0.7)"/><path class="cls-1" d="M283.32,105.18v2.65l-2.5-.1q-2-.1-4-0.1-3.05,0-5.78.19l-0.33-.35,0.32-4.44-6.75,5.05a14.41,14.41,0,0,1-3.2.42,6.83,6.83,0,0,1-5.3-2,8.51,8.51,0,0,1-1.87-6q0-4.82,2.55-6.8,3.3-2.59,14.57-4.63-0.06-3.83-1.32-5.56a6.41,6.41,0,0,0-5.49-2.37,8.05,8.05,0,0,0-1.79.21,8.76,8.76,0,0,0-1.86.66l-1.45,3.46-2.23-.55L257,83.49l0-1.42,0-1.29a44.84,44.84,0,0,1,7.12-3.85,13.2,13.2,0,0,1,4.4-.58,14.4,14.4,0,0,1,6.21,1.15,7.62,7.62,0,0,1,3.5,3.13,12.12,12.12,0,0,1,1.1,5.78q0,1.59-.13,5.68T279,98.85a29.24,29.24,0,0,0,.23,4.93,1.27,1.27,0,0,0,.63.81A13.24,13.24,0,0,0,283.32,105.18Zm-12.24-13.3q-5.68,1.23-7.39,2.68A4.82,4.82,0,0,0,262,98.43a4.3,4.3,0,0,0,1.1,3.12,3.69,3.69,0,0,0,2.77,1.14q2.55,0,5.23-2.89V91.87Z" transform="translate(-0.7)"/><path class="cls-1" d="M284.43,107.83v-2.65q3.53-.19,4-0.57a2.43,2.43,0,0,0,.55-1.67q0.19-3.27.19-11.54,0-4.09-.13-7a6.81,6.81,0,0,0-.26-2.14,1,1,0,0,0-.51-0.39,28.1,28.1,0,0,0-3.82-.23V79.12a30.85,30.85,0,0,0,5.47-.75,38.84,38.84,0,0,0,6.25-1.74l0.88-.3c0.3,0,.45.25,0.45,0.74l0,0.29q-0.1.91-.1,4.66l5-4.21a5.2,5.2,0,0,1,1.94-1.1,13.29,13.29,0,0,1,3.46-.39,11.7,11.7,0,0,1,5.61,1.18,7.33,7.33,0,0,1,3.2,3.28,15.66,15.66,0,0,1,1,6.5q0,1.95-.1,4.51-0.16,5.26-.16,9.08a8.75,8.75,0,0,0,.35,3,1.41,1.41,0,0,0,.73.78,21.59,21.59,0,0,0,3.54.49v2.65l-4-.13-2.56-.06-6.67.19-0.36-.42a93.3,93.3,0,0,0,.84-12.64q0-8.23-1-10.14-1.3-2.46-4.73-2.46a6.54,6.54,0,0,0-3.82,1.12,5.41,5.41,0,0,0-2.11,2.39,12.68,12.68,0,0,0-.23,3.28q0,11.75.1,13.46a3.29,3.29,0,0,0,.55,2.09q0.58,0.49,4.34.68v2.65q-5.63-.19-9.52-0.19Q290.52,107.64,284.43,107.83Z" transform="translate(-0.7)"/><path class="cls-1" d="M347.21,77.73V72.14a41.31,41.31,0,0,0-.22-6,1.26,1.26,0,0,0-.63-0.86,19.8,19.8,0,0,0-4.36-.34V62.58a44.92,44.92,0,0,0,12.92-3.11l0.84,0.78q-0.31,5.22-.37,9.88l-0.21,25.43a73.3,73.3,0,0,0,.23,7.77,1.68,1.68,0,0,0,.63,1.22,13.74,13.74,0,0,0,4,.63v2.65q-4-.19-7.72-0.19-2.73,0-5.1.19l-0.55-.39q0.41-3.27.58-5.28-2.2,1.65-7,5.66a10,10,0,0,1-3.46.68,11.51,11.51,0,0,1-9-4q-3.58-4-3.58-10.64a22.11,22.11,0,0,1,.73-5.88,12.21,12.21,0,0,1,1.72-4,18.08,18.08,0,0,1,4-3.4,34,34,0,0,1,5.91-3.55,11,11,0,0,1,4.06-.73,16,16,0,0,1,3.24.34A19.41,19.41,0,0,1,347.21,77.73Zm0,6.93a10.41,10.41,0,0,0-3.46-3.24,8.77,8.77,0,0,0-4.3-1.07,6,6,0,0,0-5.12,2.38q-1.78,2.38-1.78,8,0,5.77,2.18,8.62a6.74,6.74,0,0,0,5.58,2.85,7.44,7.44,0,0,0,4.26-1.33,5.42,5.42,0,0,0,2.3-2.43q0.34-1.1.34-8.36V84.66Z" transform="translate(-0.7)"/><path class="cls-1" d="M43.3,132.85l5.37-13.05h8.06v0.54H56.08a2.77,2.77,0,0,0-1.4.31,1.43,1.43,0,0,0-.58.69,5.92,5.92,0,0,0-.16,1.82v13.05a6.48,6.48,0,0,0,.16,1.9,1.45,1.45,0,0,0,.66.66,2.65,2.65,0,0,0,1.33.29h0.64v0.54H46.39v-0.54H47a2.77,2.77,0,0,0,1.4-.31,1.42,1.42,0,0,0,.58-0.7,6,6,0,0,0,.16-1.84V121.54L41.59,139.6H41.24l-7.71-17.93v13.94a12.21,12.21,0,0,0,.07,1.79,2.07,2.07,0,0,0,.83,1.19,3.42,3.42,0,0,0,2,.46v0.54H29.65v-0.54h0.2a3.11,3.11,0,0,0,1.23-.21,2,2,0,0,0,.86-0.61,2.8,2.8,0,0,0,.45-1.07q0-.16,0-1.49V123.16a6.36,6.36,0,0,0-.16-1.88,1.47,1.47,0,0,0-.66-0.66,2.66,2.66,0,0,0-1.33-.29H29.65V119.8h8.09Z" transform="translate(-0.7)"/><path class="cls-1" d="M67.2,120.94V129H67.6a3.13,3.13,0,0,0,2.73-1.18,7.28,7.28,0,0,0,1.08-3.49H72v10.36H71.41a7.76,7.76,0,0,0-.74-2.77,3.17,3.17,0,0,0-1.31-1.45,5,5,0,0,0-2.16-.37v5.58a8.06,8.06,0,0,0,.14,2,1.2,1.2,0,0,0,.52.6,2.44,2.44,0,0,0,1.23.23h1.18a6.38,6.38,0,0,0,6.85-5.2h0.54l-0.89,6.29H59.66v-0.54h0.66a2.74,2.74,0,0,0,1.39-.31,1.33,1.33,0,0,0,.58-0.7,6,6,0,0,0,.16-1.84v-13a10.41,10.41,0,0,0-.07-1.65,1.4,1.4,0,0,0-.54-0.79,2.51,2.51,0,0,0-1.52-.41H59.66V119.8H76.23v5.85H75.67a7.16,7.16,0,0,0-1.19-3.08,4.43,4.43,0,0,0-2.17-1.37,11.74,11.74,0,0,0-3.07-.26h-2Z" transform="translate(-0.7)"/><path class="cls-1" d="M81.19,139.6v-0.54h0.66a2.64,2.64,0,0,0,1.32-.27,1.66,1.66,0,0,0,.68-0.74,7,7,0,0,0,.13-1.84v-13a6.52,6.52,0,0,0-.16-1.9,1.46,1.46,0,0,0-.65-0.66,2.62,2.62,0,0,0-1.32-.29H81.19V119.8H90a14.18,14.18,0,0,1,5.71,1,8.44,8.44,0,0,1,4,3.58,11.39,11.39,0,0,1,.69,9.26,8.84,8.84,0,0,1-1.74,2.91,8.52,8.52,0,0,1-2.46,1.84,13.09,13.09,0,0,1-3.41,1.07,16,16,0,0,1-2.8.18H81.19Zm7.55-18.67v15.45a5.41,5.41,0,0,0,.12,1.5,0.83,0.83,0,0,0,.39.42,2.39,2.39,0,0,0,1.14.22,4.42,4.42,0,0,0,3.72-1.66q1.75-2.25,1.75-7a13.15,13.15,0,0,0-1.2-6.09,5.11,5.11,0,0,0-2.44-2.42A9.48,9.48,0,0,0,88.73,120.93Z" transform="translate(-0.7)"/><path class="cls-1" d="M115.12,139.06v0.54H104.78v-0.54h0.66a2.74,2.74,0,0,0,1.39-.31,1.33,1.33,0,0,0,.58-0.7,6,6,0,0,0,.16-1.84v-13a6.52,6.52,0,0,0-.16-1.9,1.46,1.46,0,0,0-.65-0.66,2.62,2.62,0,0,0-1.32-.29h-0.66V119.8h10.35v0.54h-0.66a2.74,2.74,0,0,0-1.39.31,1.4,1.4,0,0,0-.6.7,6,6,0,0,0-.16,1.84v13a6.25,6.25,0,0,0,.17,1.9,1.5,1.5,0,0,0,.66.66,2.61,2.61,0,0,0,1.32.29h0.66Z" transform="translate(-0.7)"/><path class="cls-1" d="M137.56,119.35v6.86H137a7.32,7.32,0,0,0-2.39-4.12,6.11,6.11,0,0,0-4-1.43,5.87,5.87,0,0,0-3.4,1.07,6.21,6.21,0,0,0-2.26,2.79,12.62,12.62,0,0,0-.92,4.9,16.4,16.4,0,0,0,.67,4.84,6.43,6.43,0,0,0,2.1,3.3,5.86,5.86,0,0,0,3.71,1.12,7.23,7.23,0,0,0,3.42-.82,11.83,11.83,0,0,0,3.28-2.82v1.71a10.78,10.78,0,0,1-3.47,2.52,10.52,10.52,0,0,1-4.21.78,12.09,12.09,0,0,1-5.63-1.27,9,9,0,0,1-3.8-3.65,10.18,10.18,0,0,1-1.34-5.06,10.81,10.81,0,0,1,5.48-9.31,10.83,10.83,0,0,1,5.35-1.4,12.15,12.15,0,0,1,4.41.91,6.77,6.77,0,0,0,1.71.53,1.11,1.11,0,0,0,.81-0.34,1.86,1.86,0,0,0,.45-1.09h0.57Z" transform="translate(-0.7)"/><path class="cls-1" d="M153.43,134h-7l-0.83,1.93a4.29,4.29,0,0,0-.41,1.59,1.32,1.32,0,0,0,.67,1.23,5.67,5.67,0,0,0,1.94.35v0.54h-6.58v-0.54a3,3,0,0,0,1.75-.88,11.76,11.76,0,0,0,1.69-3l7.08-15.79H152l7.14,16.23a9.88,9.88,0,0,0,1.68,2.91,2.3,2.3,0,0,0,1.4.53v0.54h-9.58v-0.54h0.39a3,3,0,0,0,1.62-.32,0.78,0.78,0,0,0,.32-0.67,1.8,1.8,0,0,0-.09-0.54q0-.13-0.44-1.09Zm-0.5-1.08L150,126.07l-3,6.82h6Z" transform="translate(-0.7)"/><path class="cls-1" d="M183.25,132.65l-0.75,6.95H164.93v-0.54h0.66a2.74,2.74,0,0,0,1.39-.31,1.33,1.33,0,0,0,.58-0.7,6,6,0,0,0,.16-1.84v-13a6.52,6.52,0,0,0-.16-1.9,1.46,1.46,0,0,0-.65-0.66,2.61,2.61,0,0,0-1.32-.29h-0.66V119.8h10.55v0.54h-0.86a2.74,2.74,0,0,0-1.39.31,1.4,1.4,0,0,0-.6.7,6,6,0,0,0-.16,1.84V135.8a6.4,6.4,0,0,0,.18,1.93,1.17,1.17,0,0,0,.69.62,7,7,0,0,0,1.77.13h1.65a5.58,5.58,0,0,0,2.63-.55,4.89,4.89,0,0,0,1.82-1.75,14.21,14.21,0,0,0,1.45-3.53h0.6Z" transform="translate(-0.7)"/><path class="cls-1" d="M213.68,119.35v6.86h-0.57a7.32,7.32,0,0,0-2.39-4.12,6.11,6.11,0,0,0-4-1.43,5.87,5.87,0,0,0-3.4,1.07,6.21,6.21,0,0,0-2.26,2.79,12.62,12.62,0,0,0-.92,4.9,16.42,16.42,0,0,0,.67,4.84,6.43,6.43,0,0,0,2.1,3.3,5.86,5.86,0,0,0,3.71,1.12,7.23,7.23,0,0,0,3.42-.82,11.84,11.84,0,0,0,3.28-2.82v1.71a10.78,10.78,0,0,1-3.47,2.52,10.53,10.53,0,0,1-4.21.78,12.09,12.09,0,0,1-5.63-1.27,9,9,0,0,1-3.8-3.65,10.18,10.18,0,0,1-1.34-5.06,10.81,10.81,0,0,1,5.48-9.31,10.83,10.83,0,0,1,5.35-1.4,12.15,12.15,0,0,1,4.41.91,6.78,6.78,0,0,0,1.71.53,1.11,1.11,0,0,0,.81-0.34,1.87,1.87,0,0,0,.45-1.09h0.57Z" transform="translate(-0.7)"/><path class="cls-1" d="M225.25,120.94V129h0.39a3.12,3.12,0,0,0,2.73-1.18,7.28,7.28,0,0,0,1.08-3.49H230v10.36h-0.55a7.76,7.76,0,0,0-.74-2.77,3.17,3.17,0,0,0-1.31-1.45,5,5,0,0,0-2.16-.37v5.58a8.06,8.06,0,0,0,.14,2,1.2,1.2,0,0,0,.52.6,2.43,2.43,0,0,0,1.23.23h1.18a6.38,6.38,0,0,0,6.85-5.2h0.54l-0.89,6.29H217.71v-0.54h0.66a2.74,2.74,0,0,0,1.39-.31,1.33,1.33,0,0,0,.58-0.7,6.06,6.06,0,0,0,.16-1.84v-13a10.56,10.56,0,0,0-.07-1.65,1.4,1.4,0,0,0-.54-0.79,2.51,2.51,0,0,0-1.52-.41h-0.66V119.8h16.57v5.85h-0.55a7.16,7.16,0,0,0-1.19-3.08,4.43,4.43,0,0,0-2.17-1.37,11.74,11.74,0,0,0-3.07-.26h-2Z" transform="translate(-0.7)"/><path class="cls-1" d="M246.29,119.8l9.77,12.28v-8.51a4,4,0,0,0-.51-2.41,2.83,2.83,0,0,0-2.35-.82V119.8h6.54v0.54a5,5,0,0,0-1.69.42,1.68,1.68,0,0,0-.67.83,5.69,5.69,0,0,0-.24,2v16.48h-0.5l-13.39-16.48v12.58a2.78,2.78,0,0,0,.78,2.31,2.86,2.86,0,0,0,1.79.6h0.47v0.54h-7v-0.54a3.18,3.18,0,0,0,2.28-.67,3.14,3.14,0,0,0,.64-2.23v-14l-0.42-.53a3.87,3.87,0,0,0-1.11-1,3.35,3.35,0,0,0-1.39-.28V119.8h7Z" transform="translate(-0.7)"/><path class="cls-1" d="M281.09,119.8v5.36h-0.53a8.47,8.47,0,0,0-1-2.66,4,4,0,0,0-1.56-1.29,5,5,0,0,0-1.94-.26h-1.47v15.27a6.23,6.23,0,0,0,.17,1.9,1.5,1.5,0,0,0,.66.66,2.64,2.64,0,0,0,1.34.29h0.66v0.54H267v-0.54h0.66a2.74,2.74,0,0,0,1.39-.31,1.39,1.39,0,0,0,.6-0.7,6.06,6.06,0,0,0,.16-1.84V120.94h-1.43a4.16,4.16,0,0,0-2.9.85,5.59,5.59,0,0,0-1.61,3.37h-0.55V119.8h17.78Z" transform="translate(-0.7)"/><path class="cls-1" d="M292.11,120.94V129h0.39a3.12,3.12,0,0,0,2.73-1.18,7.28,7.28,0,0,0,1.08-3.49h0.55v10.36h-0.55a7.76,7.76,0,0,0-.74-2.77,3.17,3.17,0,0,0-1.31-1.45,5,5,0,0,0-2.16-.37v5.58a8.06,8.06,0,0,0,.14,2,1.2,1.2,0,0,0,.52.6,2.43,2.43,0,0,0,1.23.23h1.18a6.38,6.38,0,0,0,6.85-5.2h0.54l-0.89,6.29H284.56v-0.54h0.66a2.74,2.74,0,0,0,1.39-.31,1.33,1.33,0,0,0,.58-0.7,6.06,6.06,0,0,0,.16-1.84v-13a10.56,10.56,0,0,0-.07-1.65,1.4,1.4,0,0,0-.54-0.79,2.51,2.51,0,0,0-1.52-.41h-0.66V119.8h16.57v5.85h-0.55a7.16,7.16,0,0,0-1.19-3.08,4.43,4.43,0,0,0-2.17-1.37,11.74,11.74,0,0,0-3.07-.26h-2Z" transform="translate(-0.7)"/><path class="cls-1" d="M313.63,130.58v5.55a6.15,6.15,0,0,0,.2,2,1.44,1.44,0,0,0,.69.66,4.65,4.65,0,0,0,1.85.25v0.54H306.25v-0.54a4.53,4.53,0,0,0,1.86-.26,1.48,1.48,0,0,0,.69-0.66,6.07,6.07,0,0,0,.2-2V123.28a6.16,6.16,0,0,0-.2-2,1.45,1.45,0,0,0-.69-0.66,4.68,4.68,0,0,0-1.85-.25V119.8h9.2a20.09,20.09,0,0,1,5.26.5,5.3,5.3,0,0,1,2.72,1.83,4.92,4.92,0,0,1,1.05,3.13,4.68,4.68,0,0,1-1.58,3.62,6.51,6.51,0,0,1-2.82,1.36l4.76,6.7a10.08,10.08,0,0,0,1.33,1.62,2.48,2.48,0,0,0,1.39.5v0.54h-6.23l-6.38-9h-1.3Zm0-9.71v8.67h0.83a9.28,9.28,0,0,0,3-.37,3,3,0,0,0,1.58-1.34,4.9,4.9,0,0,0,.58-2.53,3.84,3.84,0,0,0-4.47-4.42h-1.56Z" transform="translate(-0.7)"/><path class="cls-1" d="M85,260.23c-6.71,5.43-15.58,7.27-24.12,7.27-15.66,0-30.2-8.79-30.2-27.16,0-16.46,14.54-27.16,30.2-27.16,7.35,0,16.38,1.92,22.93,6.07l-2.48,7.51c-0.32,1-.88,2.71-1.12,2.71s-0.64-1.2-.88-2.08c-1.68-6.95-6.63-12.52-18.45-12.76-14.54,0-21.1,13.8-21.1,25.7S47,266,64.09,266c7.83,0,13.74-4.77,17.26-12.84,0.4-1,.48-1.68.88-1.68s0.4,0.24.72,1.44Z" transform="translate(-0.7)"/><path class="cls-1" d="M143.69,257.78l8.45-16.45c1.19-2.57,2.25-5,2.25-6.94,0-2.24-1.45-3-3-3.56a0.61,0.61,0,0,1-.59-0.4c0-.2.26-0.26,0.66-0.26,1.72,0,2.31.26,5,.26s3.17-.26,4.89-0.26c0.46,0,.86,0,0.86.2a1.07,1.07,0,0,1-.59.79c-2.18,1.52-4.49,5-6.74,9L142,264.85a1.91,1.91,0,0,1-.79.92h-0.13c-0.2,0-.27-0.33-0.66-1l-11.56-22.52c-2.51-5-4.62-9.31-7.4-11.16a1.35,1.35,0,0,1-.79-0.66c0-.26.39-0.26,0.86-0.26,1.05,0,2.71.26,5.88,0.26s5.42-.26,5.94-0.26a1,1,0,0,1,.86.26,0.81,0.81,0,0,1-.59.53,2.36,2.36,0,0,0-1.85,2.51c0,1.32,1.06,3.24,1.65,4.49Z" transform="translate(-0.7)"/><path class="cls-1" d="M164.88,243c-0.13,1.52-.2,2.91-0.2,4.3,0,12.28,6.34,16.84,12.75,16.84,7.59,0,13.21-5.22,15.46-12.95h1.38c-2.11,9.11-8.72,14.59-17.7,14.59-11.22,0-19.55-7.59-19.55-18.16s8.32-18.16,19.55-18.16c7.2,0,15.92,4.36,16.84,13.54H164.88Zm20.21-1.25c0-6.47-3.1-11-10-11-6,0-9.25,5.35-10,11h19.94Z" transform="translate(-0.7)"/><path class="cls-1" d="M202.7,239.69h0.13c1.52-5.62,4.76-10.24,13.47-10.24,7.27,0,14.06,3.77,14.06,14.27v12.75c-0.13,6.28.73,7.2,2.64,7.86a1.34,1.34,0,0,1,.86.47c0,0.2-.33.2-1,0.2s-2.31-.2-5.94-0.2-5.94.2-6.8,0.2c-0.4,0-.73,0-0.73-0.2s0.13-.33.59-0.4c2.38-.26,3.57-2.05,3.57-7.93V243.64c0-6.07-2.71-12.55-9.71-12.55-7.86,0-10.44,8.06-10.44,17.31v8.06c0,4.16.2,7.26,3.17,7.79,0.46,0.06.73,0.2,0.73,0.4s-0.2.33-.59,0.33-3.17-.2-6.74-0.2-6.6.2-7.06,0.2-0.59-.07-0.59-0.33,0.26-.33.73-0.4c3.3-.53,3.56-3.63,3.56-7.79V240.08c0-4-.46-6.21-2.31-7a2.87,2.87,0,0,1-1.19-.66c0-.2.46-0.2,1.25-0.33a57.91,57.91,0,0,0,8.32-1.91v9.51Z" transform="translate(-0.7)"/><path class="cls-1" d="M266,259c0,2.18.33,4.16,2.38,5.09a0.91,0.91,0,0,1,.66.39,0.81,0.81,0,0,1-.86.27H261a19.61,19.61,0,0,1-1.59-6.74h-0.13c-2.57,5.35-6.41,7.72-12.22,7.72-6.87,0-13.94-3.17-13.94-11,0-10,15.32-11,22.25-11h3.77v-2.18c0-6.34-3-10.83-9.64-10.83-6.08,0-9.64,1.78-12,7.59a3.4,3.4,0,0,1-.53,1.12,1.19,1.19,0,0,1-.33-0.73l-1.72-5.94c5.41-2.84,9.71-3.31,15.58-3.31,7.53,0,15.46,2.71,15.46,11V259ZM259.16,245h-3.9c-7.13,0-14.46,2.11-14.46,10.83a8,8,0,0,0,8.19,8.32c7.79,0,10.17-8.19,10.17-14.53V245Z" transform="translate(-0.7)"/><path class="cls-1" d="M278.57,239.69h0.13c1.52-5.62,4.75-10.24,13.47-10.24,7.26,0,14.06,3.77,14.06,14.27v12.75c-0.13,6.28.73,7.2,2.64,7.86a1.35,1.35,0,0,1,.86.47c0,0.2-.33.2-1,0.2s-2.31-.2-5.95-0.2-5.94.2-6.8,0.2c-0.4,0-.72,0-0.72-0.2s0.13-.33.59-0.4c2.38-.26,3.56-2.05,3.56-7.93V243.64c0-6.07-2.71-12.55-9.71-12.55-7.86,0-10.44,8.06-10.44,17.31v8.06c0,4.16.2,7.26,3.17,7.79,0.46,0.06.73,0.2,0.73,0.4s-0.2.33-.59,0.33-3.17-.2-6.73-0.2-6.61.2-7.07,0.2-0.59-.07-0.59-0.33,0.26-.33.73-0.4c3.3-.53,3.56-3.63,3.56-7.79V240.08c0-4-.46-6.21-2.31-7a2.87,2.87,0,0,1-1.19-.66c0-.2.46-0.2,1.25-0.33a57.91,57.91,0,0,0,8.32-1.91v9.51Z" transform="translate(-0.7)"/><path class="cls-1" d="M307.8,234.2a0.61,0.61,0,0,1-.66-0.59c0-.33.53-0.59,1.32-0.93,3.76-1.32,6.94-4.36,9.38-9.38a0.88,0.88,0,0,1,.72-0.66c0.33,0,.33.47,0.33,0.93v8.52h7.33l-0.46,2.12h-6.87V253c0,8.78,2.11,10.37,4.23,11.09a1,1,0,0,1,.79.46,1.1,1.1,0,0,1-1.06.27h-8c-1.85-.86-2.77-2.31-2.77-4.82V234.2H307.8Z" transform="translate(-0.7)"/><path class="cls-1" d="M204.44,277.85v-6.48c0-1.31-.35-2.37-1.38-2.63a0.77,0.77,0,0,1-.32-0.19c0-.1.19-0.13,0.48-0.13,0.52,0,2.05.13,3.08,0.13s2.56-.13,3.08-0.13c0.29,0,.48,0,0.48.13a0.77,0.77,0,0,1-.32.19c-1,.26-1.38,1.32-1.38,2.63v14.23c0,1.57.29,2.5,1.73,3.2a0.39,0.39,0,0,1,.29.26c0,0.1-.19.1-0.51,0.1-1.15,0-1.54-.1-3.37-0.1s-2.21.1-3.37,0.1c-0.32,0-.51,0-0.51-0.1a0.39,0.39,0,0,1,.29-0.26c1.44-.7,1.73-1.63,1.73-3.2v-7H192.22v7c0,1.57.29,2.5,1.73,3.2a0.39,0.39,0,0,1,.29.26c0,0.1-.19.1-0.51,0.1-1.15,0-1.54-.1-3.37-0.1s-2.21.1-3.37,0.1c-0.32,0-.51,0-0.51-0.1a0.39,0.39,0,0,1,.29-0.26c1.44-.7,1.73-1.63,1.73-3.2V271.38c0-1.31-.35-2.37-1.38-2.63a0.77,0.77,0,0,1-.32-0.19c0-.1.19-0.13,0.48-0.13,0.51,0,2.05.13,3.08,0.13s2.57-.13,3.08-0.13c0.29,0,.48,0,0.48.13a0.77,0.77,0,0,1-.32.19c-1,.26-1.38,1.32-1.38,2.63v6.48h12.21Z" transform="translate(-0.7)"/><path class="cls-1" d="M217.82,277.85h5.93c2.34,0,4.39-1.09,4.84-2.4a0.35,0.35,0,0,1,.26-0.29c0.1,0,.13.16,0.13,0.48v5.29c0,0.55,0,.67-0.13.67a0.63,0.63,0,0,1-.26-0.45c-0.93-2.38-3.56-2.5-5.8-2.5h-5v6.77c0,2.34.8,2.85,3,2.85h3.62a13.64,13.64,0,0,0,8.37-3.49,4.55,4.55,0,0,1,.86-0.67,0.09,0.09,0,0,1,.1.1,1.52,1.52,0,0,1-.06.26l-1.41,4.61H212.75c-0.74,0-1,0-1-.13s0.67-.29.9-0.48c1.19-.93,1.41-1.83,1.41-4.74v-10.9c0-2.08-.13-3.46-1.41-3.78a1.16,1.16,0,0,1-.54-0.29c0-.13.13-0.19,0.61-0.19h18.11l0.87,3a4.75,4.75,0,0,1,.29,1.19,0.23,0.23,0,0,1-.16.26,0.53,0.53,0,0,1-.38-0.29c-1.35-2.21-4.75-3.37-7.76-3.37h-5.9v8.5Z" transform="translate(-0.7)"/><path class="cls-1" d="M242,279.71l-1.73,3.36a8.15,8.15,0,0,0-1.12,3.66c0,1.38.86,1.73,1.73,2.05,0.26,0.06.35,0.13,0.35,0.22s-0.16.16-.38,0.16-1.38-.1-3.14-0.1c-1.29,0-2.12.1-2.5,0.1s-0.42-.06-0.42-0.16a1.11,1.11,0,0,1,.61-0.51,19.78,19.78,0,0,0,3.72-5.06l7.85-15.26a0.44,0.44,0,0,1,.22-0.26h0.06a0.41,0.41,0,0,1,.26.26l9.43,17.63a8.18,8.18,0,0,0,2.14,2.66,2,2,0,0,1,.74.54c0,0.09-.16.16-0.45,0.16s-1.73-.1-3.59-0.1c-2.63,0-3.68.1-3.88,0.1a0.34,0.34,0,0,1-.32-0.1,0.44,0.44,0,0,1,.42-0.26,1.48,1.48,0,0,0,.9-1.67,13.21,13.21,0,0,0-1.44-3.66l-1.83-3.78H242Zm3.78-7.47-3.36,6.67h6.79Z" transform="translate(-0.7)"/><path class="cls-1" d="M266.73,284.81c0,3.21,1.21,3.46,3.94,3.46h1.7a12.32,12.32,0,0,0,8.43-3.72,2.48,2.48,0,0,1,.67-0.77,0.2,0.2,0,0,1,.19.22,3.29,3.29,0,0,1-.13.45l-1.31,4.61H261.37c-0.54,0-.71-0.06-0.71-0.16a2.35,2.35,0,0,1,.77-0.29c1.25-.54,1.57-1.73,1.57-4.58V271.38a2.46,2.46,0,0,0-1.38-2.56,0.4,0.4,0,0,1-.32-0.26c0-.1.19-0.13,0.48-0.13,0.51,0,2.05.13,3.07,0.13s2.57-.13,3.08-0.13c0.29,0,.39,0,0.39.16a0.42,0.42,0,0,1-.29.19c-1,.41-1.31,1.28-1.31,2.6v13.43Z" transform="translate(-0.7)"/><path class="cls-1" d="M286.45,270.83c0-1.25-.54-1.47-2-1.47a9.67,9.67,0,0,0-6.76,3.17,3.7,3.7,0,0,1-.58.55,0.18,0.18,0,0,1-.16-0.19,5,5,0,0,1,.22-0.74l1-3.59h20.2l1,3.59a5,5,0,0,1,.22.74,0.18,0.18,0,0,1-.16.19,3.57,3.57,0,0,1-.58-0.55,9.67,9.67,0,0,0-6.76-3.17c-1.45,0-2,.22-2,1.47v14.78c0,1.57.42,2.82,1.92,3.11a0.51,0.51,0,0,1,.48.26,0.29,0.29,0,0,1-.26.19c-0.23,0-2.18-.1-4-0.1s-3.72.1-3.94,0.1-0.29-.06-0.29-0.16a1,1,0,0,1,.61-0.26c1.47-.64,1.76-1.57,1.76-4.55V270.83Z" transform="translate(-0.7)"/><path class="cls-1" d="M319,277.85v-6.48c0-1.31-.35-2.37-1.38-2.63a0.8,0.8,0,0,1-.32-0.19c0-.1.19-0.13,0.48-0.13,0.51,0,2.05.13,3.07,0.13s2.57-.13,3.08-0.13c0.29,0,.48,0,0.48.13a0.8,0.8,0,0,1-.32.19c-1,.26-1.38,1.32-1.38,2.63v14.23c0,1.57.29,2.5,1.73,3.2a0.39,0.39,0,0,1,.29.26c0,0.1-.19.1-0.51,0.1-1.15,0-1.54-.1-3.37-0.1s-2.21.1-3.36,0.1c-0.32,0-.52,0-0.52-0.1a0.39,0.39,0,0,1,.29-0.26c1.45-.7,1.73-1.63,1.73-3.2v-7H306.78v7c0,1.57.29,2.5,1.73,3.2a0.39,0.39,0,0,1,.28.26c0,0.1-.19.1-0.51,0.1-1.15,0-1.54-.1-3.36-0.1s-2.21.1-3.37,0.1c-0.32,0-.52,0-0.52-0.1a0.39,0.39,0,0,1,.29-0.26c1.45-.7,1.73-1.63,1.73-3.2V271.38c0-1.31-.35-2.37-1.38-2.63a0.8,0.8,0,0,1-.32-0.19c0-.1.19-0.13,0.48-0.13,0.51,0,2.05.13,3.08,0.13s2.56-.13,3.07-0.13c0.29,0,.48,0,0.48.13a0.8,0.8,0,0,1-.32.19c-1,.26-1.38,1.32-1.38,2.63v6.48H319Z" transform="translate(-0.7)"/><path class="cls-1" d="M126.11,244.84c-0.26,5-1.08,8.85-3.85,12.77a17,17,0,0,1-18.63,6.52c-7.25-2-15.43-11.63-10.69-22.49,1.24-2.83,4.78-7.49,10.52-8.25a15.15,15.15,0,0,0-12.3,5.8,18,18,0,0,0,5.89,27.21c8.28,4.09,20.87,2.15,26.8-8.38A22.24,22.24,0,0,0,126.11,244.84Z" transform="translate(-0.7)"/><path class="cls-1" d="M85.52,251.17c0.26-5,1.08-8.85,3.85-12.77A17,17,0,0,1,108,231.87c7.25,2,15.43,11.64,10.69,22.49-1.24,2.83-4.78,7.49-10.52,8.25a15.13,15.13,0,0,0,12.3-5.79,18,18,0,0,0-5.89-27.21c-8.28-4.09-20.88-2.16-26.8,8.38A22.21,22.21,0,0,0,85.52,251.17Z" transform="translate(-0.7)"/><path class="cls-1" d="M329.16,285.6a2,2,0,0,1-1.41,3.41,1.9,1.9,0,0,1-1.41-.59,1.94,1.94,0,0,1-.57-1.41,2,2,0,0,1,2-2A1.93,1.93,0,0,1,329.16,285.6Zm0.23-.22a2.31,2.31,0,1,0,.68,1.63A2.24,2.24,0,0,0,329.39,285.38Zm-1.29,1.52a1.25,1.25,0,0,1-.42.05h-0.4V286h0.38a1.18,1.18,0,0,1,.54.09A0.46,0.46,0,0,1,328.09,286.9Zm-1.27,1.37h0.45v-1h0.35a1.11,1.11,0,0,1,.5.08,0.62,0.62,0,0,1,.24.58v0.28s0,0,0,0v0h0.42l0,0a0.47,0.47,0,0,1,0-.13c0-.07,0-0.13,0-0.19v-0.19a0.69,0.69,0,0,0-.14-0.39,0.6,0.6,0,0,0-.44-0.25,1,1,0,0,0,.37-0.12,0.55,0.55,0,0,0,.25-0.5,0.63,0.63,0,0,0-.39-0.64,1.94,1.94,0,0,0-.69-0.09h-0.89v2.53Z" transform="translate(-0.7)"/><line class="cls-1" x1="325.82" y1="204.15" x2="30.09" y2="204.15"/><polygon class="cls-1" points="325.82 204.85 30.09 204.85 30.09 203.44 325.82 203.44 325.82 204.85 325.82 204.85"/></svg>