<svg id="Layer_1" data-name="Layer 1" xmlns="http://www.w3.org/2000/svg" viewBox="0 0 359.84 146.16"><defs><style>.cls-1{fill:#77777a;}.cls-2{fill:#002e6d;}.cls-3{fill:#4e9d2d;}</style></defs><title>roane-medical-center</title><path class="cls-1" d="M253.57,47.73c3.21-.56,3.94-1.61,3.94-4.92V28.57c0-1.71-1-2.9-3.94-3V24.8h8l7.26,18.91H269l7-18.91h7.68v0.77c-3,.1-3.77.73-3.77,2V45.67c0,1.29.77,1.88,3.77,2v0.8h-10.4v-0.8c3-.11,3.32-0.63,3.32-2V27h-0.18L268.3,48.5h-0.94L258.81,27h-0.17V42.81c0,3.32.56,4.36,3.87,4.92v0.73h-8.93V47.73Z"/><path class="cls-1" d="M282,40.61c0-4.78,3.25-8.44,7.54-8.44,4.57,0,6.73,3.63,6.46,7.47H285.23v0.63c0,3.87,1.88,6.87,5.48,6.87,2.09,0,3.52-1.22,5-3l0.52,0.45c-1.29,2.16-3.11,4.15-6.63,4.15C284.84,48.74,282,45.21,282,40.61Zm3.25-1.78,7.54-.1c0.31-3.35-.8-5.72-3.49-5.72C287.11,33,285.54,34.78,285.26,38.83Z"/><path class="cls-1" d="M297,40.64c0-4.85,3.25-8.48,7.85-8.48a6.65,6.65,0,0,1,3.73.94v-6.7c0-1.15-.52-1.68-2.83-1.75V23.93l5.76-.14V46.47c0,0.84.52,1.22,2.55,1.26v0.73l-5.41.14V46.75a6.64,6.64,0,0,1-4.82,2C299.5,48.74,297,45.15,297,40.64Zm11.59,5.1V35a4,4,0,0,0-3.63-2c-2.69,0-4.71,2.83-4.71,7.57,0,3.84,1.81,6.7,5,6.7A4.73,4.73,0,0,0,308.54,45.74Z"/><path class="cls-1" d="M313.88,47.69c2,0,2.55-.28,2.55-1.29V35c0-1-.49-1.71-2.51-1.74V32.51l5.44-.14v14c0,1,.49,1.26,2.62,1.29v0.77h-8.1V47.69Zm1.92-21a2,2,0,0,1,2-2.09,1.89,1.89,0,0,1,2,2,1.9,1.9,0,0,1-2,2.06A1.86,1.86,0,0,1,315.8,26.72Z"/><path class="cls-1" d="M322.25,40.68c0-4.92,3.49-8.51,8-8.51,3.66,0,5.55,2.06,5.55,3.7a1.8,1.8,0,0,1-1.75,2A1.74,1.74,0,0,1,332.13,36a2.18,2.18,0,0,1,1-1.88,3.92,3.92,0,0,0-2.9-1.15c-2.72,0-4.85,2.41-4.85,6.91,0,4.15,2,7.15,5.51,7.15,2,0,3.32-1,4.68-2.55L336.14,45c-1.43,2.09-3.25,3.77-6.6,3.77C325.12,48.74,322.25,45.25,322.25,40.68Z"/><path class="cls-1" d="M336.56,45a3.92,3.92,0,0,1,2.09-3.56c2.65-1.47,6.8-2,7.33-2.37V37.47c0-3.11-.91-4.36-3.14-4.36a3.54,3.54,0,0,0-2.72,1,3.19,3.19,0,0,1,.66,1.71,1.77,1.77,0,0,1-1.85,1.88,1.74,1.74,0,0,1-1.74-1.88c0-2,2.69-3.59,6-3.59,3.63,0,5.69,1.54,5.69,4.89v8.2c0,1.71.49,2.37,2.69,1.81l0.14,0.59a7.08,7.08,0,0,1-3.18.84c-1.81,0-2.3-.8-2.44-2.69H346a7,7,0,0,1-5.16,2.76C337.89,48.67,336.56,46.89,336.56,45Zm9.42-.14V40c-5.1,1.12-6.18,2-6.18,4.29a2.49,2.49,0,0,0,2.69,2.79A4.77,4.77,0,0,0,346,44.87Z"/><path class="cls-1" d="M351,47.69c2,0,2.55-.28,2.55-1.29v-20c0-1.15-.52-1.68-2.83-1.75V23.93l5.76-.14V46.4c0,1,.49,1.26,2.55,1.29v0.77h-8V47.69Z"/><path class="cls-1" d="M253.57,66c0-7.22,5.34-12.67,12.14-12.67a12.26,12.26,0,0,1,5.93,1.47l1.22-1.54h0.73V61h-0.73c-1.61-4.33-4-6.77-7.54-6.77-4.12,0-8,3.63-8,11.59,0,7.57,4.61,10.71,8.62,10.71s6.63-2.65,8-5.69l0.84,0.45c-1.47,3.31-4.54,6.8-9.81,6.8C258.32,78.12,253.57,73.27,253.57,66Z"/><path class="cls-1" d="M275.56,69.68c0-4.78,3.25-8.44,7.54-8.44,4.57,0,6.74,3.63,6.46,7.47H278.77v0.63c0,3.87,1.88,6.87,5.48,6.87,2.09,0,3.52-1.22,5-3l0.52,0.45c-1.29,2.16-3.11,4.15-6.63,4.15C278.39,77.81,275.56,74.29,275.56,69.68Zm3.25-1.78,7.54-.1c0.31-3.35-.8-5.72-3.49-5.72C280.65,62.07,279.08,63.85,278.8,67.9Z"/><path class="cls-1" d="M290.25,76.76c2,0,2.55-.28,2.55-1.29V64.06c0-1-.52-1.71-2.55-1.75V61.58l5.41-.14v3.18a8.32,8.32,0,0,1,6.18-3.28c2.48,0,4.08,1.64,4.08,4.78v9.35c0,1,.49,1.26,2.55,1.29v0.77h-7.71V76.76c1.78,0,2.23-.28,2.23-1.29V67.2c0-2.93-1-4-3.21-4a5.13,5.13,0,0,0-4,2.44v9.88c0,1,.45,1.26,2.2,1.29v0.77h-7.68V76.76Z"/><path class="cls-1" d="M309.87,73.45V62.88h-3.14V62.21l3.18-.73V57l2.9-1.26v5.79h5v1.26h-5V73.41c0,2,.66,2.86,2.09,2.86,1,0,1.92-.73,2.83-2.13l0.59,0.42c-1.22,2.23-2.62,3.32-4.71,3.32C311.09,77.88,309.87,76.38,309.87,73.45Z"/><path class="cls-1" d="M318,69.68c0-4.78,3.25-8.44,7.54-8.44,4.57,0,6.74,3.63,6.46,7.47H321.21v0.63c0,3.87,1.88,6.87,5.48,6.87,2.09,0,3.53-1.22,5-3l0.52,0.45c-1.29,2.16-3.11,4.15-6.63,4.15C320.82,77.81,318,74.29,318,69.68Zm3.25-1.78,7.54-.1c0.31-3.35-.8-5.72-3.49-5.72C323.09,62.07,321.52,63.85,321.24,67.9Z"/><path class="cls-1" d="M332.34,76.76c2,0,2.55-.28,2.55-1.29V64.06c0-1-.52-1.71-2.55-1.75V61.58l5.41-.14v3.14c1.26-1.92,2.86-3.28,4.64-3.28a2.29,2.29,0,0,1,2.55,2.34,1.82,1.82,0,0,1-1.81,2,1.79,1.79,0,0,1-1.92-1.85,3,3,0,0,1,.14-0.77c-1.57.11-2.62,1.15-3.52,2.62v9.88c0,1,.66,1.26,2.93,1.29v0.77h-8.41V76.76Z"/><path class="cls-2" d="M178.58,124.63c-5,4-11.53,5.37-17.85,5.37-11.58,0-22.34-6.5-22.34-20.09,0-12.18,10.76-20.09,22.34-20.09,5.44,0,12.12,1.42,17,4.49l-1.83,5.56a6.78,6.78,0,0,1-.83,2,3.43,3.43,0,0,1-.65-1.54c-1.24-5.14-4.91-9.26-13.65-9.44-10.75,0-15.61,10.21-15.61,19s5.33,19,18,19c5.79,0,10.17-3.53,12.76-9.5,0.3-.71.36-1.24,0.65-1.24s0.3,0.18.54,1.07Z"/><path class="cls-2" d="M222,122.82l6.25-12.16a14.1,14.1,0,0,0,1.66-5.13c0-1.66-1.07-2.25-2.25-2.64a0.45,0.45,0,0,1-.44-0.29c0-.15.19-0.2,0.49-0.2,1.27,0,1.71.2,3.71,0.2s2.34-.2,3.61-0.2c0.34,0,.64,0,0.64.15a0.79,0.79,0,0,1-.44.58c-1.61,1.12-3.32,3.71-5,6.69L220.71,128a1.42,1.42,0,0,1-.59.68H220a1.47,1.47,0,0,1-.49-0.73L211,111.34c-1.86-3.71-3.42-6.89-5.47-8.25a1,1,0,0,1-.59-0.49c0-.2.29-0.2,0.64-0.2,0.78,0,2,.2,4.35.2s4-.2,4.39-0.2a0.7,0.7,0,0,1,.64.2,0.6,0.6,0,0,1-.44.39,1.75,1.75,0,0,0-1.37,1.86,9.86,9.86,0,0,0,1.22,3.32Z"/><path class="cls-2" d="M237.65,111.88c-0.1,1.12-.15,2.15-0.15,3.18,0,9.09,4.69,12.45,9.43,12.45,5.62,0,9.77-3.86,11.43-9.57h1c-1.56,6.74-6.45,10.8-13.09,10.8-8.3,0-14.46-5.62-14.46-13.44s6.16-13.44,14.46-13.44c5.32,0,11.78,3.23,12.46,10h-21.1ZM252.6,111c0-4.79-2.3-8.16-7.38-8.16-4.44,0-6.84,4-7.37,8.16H252.6Z"/><path class="cls-2" d="M265.63,109.44h0.1c1.12-4.15,3.52-7.58,10-7.58,5.38,0,10.41,2.78,10.41,10.55v9.43c-0.1,4.64.54,5.32,2,5.81a1,1,0,0,1,.64.35c0,0.14-.24.14-0.73,0.14s-1.71-.14-4.4-0.14-4.4.14-5,.14c-0.29,0-.54,0-0.54-0.14s0.1-.24.44-0.29c1.76-.2,2.64-1.52,2.64-5.86v-9.48c0-4.49-2-9.28-7.18-9.28-5.81,0-7.72,6-7.72,12.8v6c0,3.08.15,5.37,2.35,5.76,0.34,0,.54.15,0.54,0.29s-0.15.24-.44,0.24-2.35-.14-5-0.14-4.89.14-5.23,0.14-0.44,0-.44-0.24,0.2-.24.54-0.29c2.44-.39,2.64-2.68,2.64-5.76V109.73c0-2.93-.34-4.59-1.71-5.18a2.17,2.17,0,0,1-.88-0.49,1.33,1.33,0,0,1,.93-0.25,42.32,42.32,0,0,0,6.16-1.41v7Z"/><path class="cls-2" d="M312.43,123.75c0,1.61.24,3.08,1.76,3.76a0.67,0.67,0,0,1,.49.29c0,0.15-.29.2-0.63,0.2h-5.28a14.59,14.59,0,0,1-1.17-5h-0.1c-1.91,4-4.74,5.72-9,5.72-5.08,0-10.31-2.34-10.31-8.16,0-7.43,11.34-8.16,16.47-8.16h2.79V110.8c0-4.69-2.2-8-7.13-8-4.49,0-7.13,1.32-8.89,5.62a2.65,2.65,0,0,1-.39.83,0.86,0.86,0,0,1-.24-0.54l-1.27-4.4c4-2.1,7.18-2.45,11.53-2.45,5.57,0,11.43,2,11.43,8.16v13.73Zm-5-10.41h-2.88c-5.28,0-10.7,1.57-10.7,8a5.93,5.93,0,0,0,6.06,6.15c5.76,0,7.52-6.06,7.52-10.75v-3.42Z"/><path class="cls-2" d="M321.75,109.44h0.1c1.12-4.15,3.52-7.58,10-7.58,5.37,0,10.41,2.78,10.41,10.55v9.43c-0.1,4.64.54,5.32,2,5.81a1,1,0,0,1,.63.35c0,0.14-.24.14-0.73,0.14s-1.71-.14-4.39-0.14-4.4.14-5,.14c-0.29,0-.54,0-0.54-0.14s0.1-.24.44-0.29c1.76-.2,2.64-1.52,2.64-5.86v-9.48c0-4.49-2-9.28-7.18-9.28-5.81,0-7.72,6-7.72,12.8v6c0,3.08.15,5.37,2.34,5.76,0.34,0,.54.15,0.54,0.29s-0.15.24-.44,0.24-2.35-.14-5-0.14-4.89.14-5.23,0.14-0.44,0-.44-0.24,0.19-.24.54-0.29c2.44-.39,2.64-2.68,2.64-5.76V109.73c0-2.93-.34-4.59-1.71-5.18a2.18,2.18,0,0,1-.88-0.49,1.33,1.33,0,0,1,.93-0.25,42.2,42.2,0,0,0,6.16-1.41v7Z"/><path class="cls-2" d="M343.37,105.38a0.45,0.45,0,0,1-.49-0.44,1.36,1.36,0,0,1,1-.68c2.78-1,5.13-3.23,6.94-6.94a0.64,0.64,0,0,1,.54-0.49c0.24,0,.24.34,0.24,0.68v6.3H357l-0.34,1.57h-5.08v13.87c0,6.5,1.56,7.67,3.13,8.21a0.73,0.73,0,0,1,.59.34,0.81,0.81,0,0,1-.79.2H348.6a3.47,3.47,0,0,1-2-3.57v-19h-3.18Z"/><path class="cls-2" d="M266.91,137.67v-4.79c0-1-.26-1.76-1-1.95a0.53,0.53,0,0,1-.24-0.14c0-.07.14-0.1,0.35-0.1,0.38,0,1.52.1,2.28,0.1s1.9-.1,2.28-0.1c0.21,0,.35,0,0.35.1a0.55,0.55,0,0,1-.24.14c-0.76.19-1,1-1,1.95v10.53a2.18,2.18,0,0,0,1.28,2.37,0.29,0.29,0,0,1,.21.19c0,0.07-.14.07-0.38,0.07-0.86,0-1.14-.07-2.49-0.07s-1.64.07-2.49,0.07c-0.24,0-.38,0-0.38-0.07a0.29,0.29,0,0,1,.21-0.19,2.18,2.18,0,0,0,1.28-2.37v-5.14h-9v5.14a2.18,2.18,0,0,0,1.28,2.37,0.29,0.29,0,0,1,.21.19c0,0.07-.14.07-0.38,0.07-0.86,0-1.14-.07-2.49-0.07S254.87,146,254,146c-0.24,0-.38,0-0.38-0.07a0.29,0.29,0,0,1,.21-0.19,2.18,2.18,0,0,0,1.28-2.37V132.88c0-1-.26-1.76-1-1.95a0.57,0.57,0,0,1-.24-0.14c0-.07.14-0.1,0.35-0.1,0.38,0,1.52.1,2.28,0.1s1.9-.1,2.28-0.1c0.21,0,.36,0,0.36.1a0.56,0.56,0,0,1-.24.14c-0.76.19-1,1-1,1.95v4.79h9Z"/><path class="cls-2" d="M276.81,137.67h4.39c1.73,0,3.25-.8,3.58-1.78a0.25,0.25,0,0,1,.19-0.21c0.07,0,.09.12,0.09,0.36v3.91c0,0.4,0,.5-0.09.5a0.46,0.46,0,0,1-.19-0.33c-0.69-1.76-2.63-1.85-4.29-1.85h-3.67v5c0,1.73.59,2.11,2.2,2.11h2.68a10.11,10.11,0,0,0,6.19-2.58,3.15,3.15,0,0,1,.64-0.5,0.06,0.06,0,0,1,.07.07,0.94,0.94,0,0,1,0,.19l-1,3.42H273.06a0.86,0.86,0,0,1-.71-0.1c0-.07.5-0.21,0.66-0.36,0.88-.69,1-1.35,1-3.51v-8.06c0-1.54-.09-2.56-1-2.8a0.86,0.86,0,0,1-.4-0.21c0-.09.09-0.14,0.45-0.14h13.4L287.1,133a3.48,3.48,0,0,1,.21.88,0.17,0.17,0,0,1-.12.19,0.4,0.4,0,0,1-.29-0.21c-1-1.64-3.51-2.49-5.74-2.49h-4.36v6.28Z"/><path class="cls-2" d="M294.68,139l-1.28,2.49a6,6,0,0,0-.83,2.71,1.51,1.51,0,0,0,1.28,1.52c0.19,0,.26.09,0.26,0.16s-0.12.12-.29,0.12-1-.07-2.32-0.07c-1,0-1.57.07-1.85,0.07s-0.31,0-.31-0.12a0.84,0.84,0,0,1,.45-0.38,14.41,14.41,0,0,0,2.75-3.75l5.81-11.29a0.33,0.33,0,0,1,.17-0.19h0a0.28,0.28,0,0,1,.19.19l7,13a6.06,6.06,0,0,0,1.59,2,1.47,1.47,0,0,1,.55.4c0,0.07-.12.12-0.33,0.12s-1.28-.07-2.66-0.07c-1.94,0-2.73.07-2.87,0.07a0.26,0.26,0,0,1-.24-0.07c0-.1.12-0.14,0.31-0.19a1.1,1.1,0,0,0,.66-1.23,9.8,9.8,0,0,0-1.07-2.7l-1.35-2.8h-5.64Zm2.8-5.53L295,138.45h5Z"/><path class="cls-2" d="M313,142.82c0,2.37.9,2.56,2.92,2.56h1.26a9.12,9.12,0,0,0,6.24-2.75,1.76,1.76,0,0,1,.5-0.57,0.14,0.14,0,0,1,.14.16,2.81,2.81,0,0,1-.09.33L323,146H309c-0.4,0-.52,0-0.52-0.12a1.65,1.65,0,0,1,.57-0.21c0.92-.4,1.16-1.28,1.16-3.39v-9.37a1.82,1.82,0,0,0-1-1.9,0.29,0.29,0,0,1-.24-0.19c0-.07.14-0.1,0.35-0.1,0.38,0,1.52.1,2.28,0.1s1.9-.1,2.28-0.1c0.21,0,.29,0,0.29.12a0.31,0.31,0,0,1-.21.14,1.81,1.81,0,0,0-1,1.92v9.94Z"/><path class="cls-2" d="M327.58,132.48c0-.93-0.4-1.09-1.47-1.09a7.16,7.16,0,0,0-5,2.35,2.59,2.59,0,0,1-.43.4,0.13,0.13,0,0,1-.12-0.14,4.25,4.25,0,0,1,.16-0.55l0.76-2.65h14.94l0.76,2.65a4.13,4.13,0,0,1,.17.55,0.13,0.13,0,0,1-.12.14,2.52,2.52,0,0,1-.43-0.4,7.15,7.15,0,0,0-5-2.35c-1.07,0-1.47.17-1.47,1.09v10.93c0,1.17.31,2.09,1.42,2.3a0.38,0.38,0,0,1,.36.19,0.21,0.21,0,0,1-.19.14c-0.17,0-1.62-.07-3-0.07S326.2,146,326,146s-0.21,0-.21-0.12a0.81,0.81,0,0,1,.45-0.19c1.09-.48,1.31-1.16,1.31-3.37v-9.89Z"/><path class="cls-2" d="M351.66,137.67v-4.79c0-1-.26-1.76-1-1.95a0.56,0.56,0,0,1-.24-0.14c0-.07.14-0.1,0.36-0.1,0.38,0,1.52.1,2.27,0.1s1.9-.1,2.27-0.1c0.22,0,.36,0,0.36.1a0.54,0.54,0,0,1-.24.14c-0.76.19-1,1-1,1.95v10.53a2.18,2.18,0,0,0,1.28,2.37,0.29,0.29,0,0,1,.21.19c0,0.07-.14.07-0.38,0.07-0.86,0-1.14-.07-2.49-0.07s-1.64.07-2.49,0.07c-0.23,0-.38,0-0.38-0.07a0.29,0.29,0,0,1,.21-0.19,2.18,2.18,0,0,0,1.28-2.37v-5.14h-9v5.14a2.18,2.18,0,0,0,1.28,2.37,0.29,0.29,0,0,1,.21.19c0,0.07-.14.07-0.38,0.07-0.86,0-1.14-.07-2.49-0.07s-1.64.07-2.49,0.07c-0.23,0-.38,0-0.38-0.07a0.29,0.29,0,0,1,.22-0.19,2.18,2.18,0,0,0,1.28-2.37V132.88c0-1-.26-1.76-1-1.95a0.55,0.55,0,0,1-.24-0.14c0-.07.14-0.1,0.36-0.1,0.38,0,1.52.1,2.27,0.1s1.9-.1,2.28-0.1c0.21,0,.35,0,0.35.1a0.56,0.56,0,0,1-.24.14c-0.76.19-1,1-1,1.95v4.79h9Z"/><path class="cls-2" d="M209,113.25c-0.19,3.73-.8,6.55-2.84,9.45a12.56,12.56,0,0,1-13.78,4.83c-5.37-1.51-11.42-8.61-7.91-16.64a10.48,10.48,0,0,1,7.78-6.11,11.22,11.22,0,0,0-9.1,4.29,13.31,13.31,0,0,0,4.36,20.13A15.25,15.25,0,0,0,207.3,123,16.43,16.43,0,0,0,209,113.25Z"/><path class="cls-2" d="M178.94,117.93c0.19-3.73.8-6.55,2.85-9.45a12.54,12.54,0,0,1,13.78-4.83c5.37,1.51,11.42,8.6,7.91,16.63a10.48,10.48,0,0,1-7.78,6.11,11.19,11.19,0,0,0,9.1-4.29A13.31,13.31,0,0,0,200.44,102a15.26,15.26,0,0,0-19.82,6.2A16.46,16.46,0,0,0,178.94,117.93Z"/><path class="cls-2" d="M359.17,143.4a1.42,1.42,0,0,1,.43,1,1.44,1.44,0,0,1-.43,1,1.47,1.47,0,0,1-2.08,0,1.49,1.49,0,0,1,0-2.09,1.41,1.41,0,0,1,1-.43A1.42,1.42,0,0,1,359.17,143.4Zm0.17-.17a1.71,1.71,0,1,0,.5,1.21A1.65,1.65,0,0,0,359.34,143.24Zm-1,1.13a0.9,0.9,0,0,1-.31,0h-0.29v-0.68h0.28a0.85,0.85,0,0,1,.4.07A0.33,0.33,0,0,1,358.38,144.36Zm-0.94,1h0.33v-0.74H358a0.85,0.85,0,0,1,.37.06,0.47,0.47,0,0,1,.18.43v0.25h0.31v0a0.22,0.22,0,0,1,0-.1s0-.1,0-0.14V145a0.52,0.52,0,0,0-.1-0.29,0.46,0.46,0,0,0-.32-0.18,0.78,0.78,0,0,0,.27-0.09,0.41,0.41,0,0,0,.18-0.37,0.47,0.47,0,0,0-.29-0.48,1.49,1.49,0,0,0-.51-0.07h-0.65v1.87Z"/><rect class="cls-2" x="0.66" y="84.73" width="357.88" height="0.6"/><path class="cls-2" d="M21.78,68.37c0,4.46,1.6,6.17,11.32,6.52v2.63H0V74.88c9.29-.34,11.64-2.29,11.64-6.52V9.15C11.64,4.92,9.29,2.86,0,2.51V0H30.54c21.57,0,29,8.57,29,18.86,0,9.49-5.55,16.81-20.18,19.55v0.34C53.7,39.9,56.27,46.3,57.76,56.59l1.07,7.77c1.39,8.69,3.52,10.29,12,10.52V77.4a30,30,0,0,1-7.15.92c-12.49,0-14.84-3.89-15.8-14.29L47,54.19c-1.07-11.32-4.7-13.83-16.55-13.83H21.78v28ZM31,37.16c14.31,0,17.4-7,17.4-17.95,0-10.29-4.59-16-18.58-16h-8v34H31Z"/><path class="cls-2" d="M143.58,65.74v-16c-15.59,3.66-18.9,6.52-18.9,14.06,0,5.14,2.35,9.15,8.22,9.15C137.18,72.94,141.24,69.28,143.58,65.74ZM163,71.41v-38c0-3.43-1.6-5.6-7.79-5.72v-2.4l16.55-.46v10.4c5.23-6.52,11.74-10.75,18.9-10.75,7.58,0,12.49,5.37,12.49,15.66V70.77c0,3.32,1.5,4.11,7.79,4.23v2.52H187.33V75c5.45-.11,6.83-0.91,6.83-4.23V43.67c0-9.6-3.1-13.26-9.82-13.26-5,0-9.4,3.43-12.38,8V70.77c0,3.32,1.39,4.11,6.73,4.23v2.52H156.57c-1.88.07-2.8,0.46-5.09,0.46-5.55,0-7-2.63-7.47-8.8h-0.43c-4.27,5.14-9.5,9-15.8,9-9,0-13-5.83-13-12a13,13,0,0,1,6.41-11.66c8.11-4.8,20.82-6.4,22.42-7.77V41.5c0-10.18-2.78-14.29-9.61-14.29-3.63,0-6.51,1.26-8.33,3.43a10.89,10.89,0,0,1,2,5.6c0,3.43-2,6.17-5.66,6.17-3.42,0-5.34-2.86-5.34-6.17,0-6.63,8.22-11.78,18.47-11.78,11.1,0,17.4,5,17.4,16V71C152.55,76.13,163,76.13,163,71.41Z"/><path class="cls-2" d="M206,51.79c0-15.66,9.93-27.67,23.06-27.67,14,0,20.61,11.89,19.75,24.47h-33v2.06c0,12.69,5.76,22.52,16.76,22.52,6.41,0,10.78-4,15.16-9.83l1.6,1.49c-4,7.09-9.5,13.61-20.29,13.61C214.66,78.43,206,66.88,206,51.79ZM215.94,46L239,45.62c1-11-2.46-18.75-10.68-18.75C221.6,26.87,216.79,32.7,215.94,46Z"/><path class="cls-2" d="M112.35,41.94a26.42,26.42,0,0,0-7.72-10.09,27.7,27.7,0,0,0-15.91,1,27.75,27.75,0,0,1,12.42,42.86A26.62,26.62,0,0,0,112.35,41.94Z"/><path class="cls-2" d="M66.61,36.89a26.41,26.41,0,0,0-4.88,11.73,27.69,27.69,0,0,0,8.81,13.29,27.75,27.75,0,0,1,30.91-32.18A26.62,26.62,0,0,0,66.61,36.89Z"/><path class="cls-3" d="M85.1,79a26.42,26.42,0,0,0,12.6-1.64,27.69,27.69,0,0,0,7.11-14.27A27.75,27.75,0,0,1,61.49,52.43,26.62,26.62,0,0,0,85.1,79Z"/></svg>