<svg id="Layer_1" data-name="Layer 1" xmlns="http://www.w3.org/2000/svg" viewBox="0 0 359.43 180.11"><defs><style>.cls-1{fill:#0e553f;}</style></defs><title>peninsula</title><path class="cls-1" d="M5,65.44c0-2-.37-4.46-2.38-5.37A0.83,0.83,0,0,1,2,59.58c0-.24.24-0.37,0.85-0.37H20.71c13.43,0,20,4.4,20,10.13,0,10-16.91,10.87-23.56,10.87-2.32,0-4.64-.12-7-0.12V87.6c0,6,.67,9.4,3.11,10.07,1.22,0.37,1.53.37,1.53,0.79,0,0.12-.12.24-0.67,0.24s-4.82-.18-6.53-0.18c-3.85,0-6,.18-6.47.18S0.57,98.59.57,98.41c0-.37.92-0.43,1.77-0.92C3.93,96.51,5,93.58,5,86.62V65.44Zm5.25,12.82a34.29,34.29,0,0,0,5.62.43c6.53,0,18.37-.25,18.37-9.34C34.2,63,29,61.41,23,61c-2.14-.12-4.27-0.24-6.59-0.24-2,0-4.21.06-6.16,0.12v17.4Z" transform="translate(-0.57)"/><path class="cls-1" d="M44.94,78.38a16,16,0,0,0-.37,3c0,9,3.36,16.3,13,16.3,9.22,0,13.61-8.85,14-10.86A0.91,0.91,0,0,1,72.35,86a0.47,0.47,0,0,1,.49.55A4.53,4.53,0,0,1,72.53,88c-2.26,7.2-9.16,11.41-17.34,11.41-9.46,0-16.48-7.94-16.48-17.21,0-8,6.53-16.36,17.21-16.36,7.94,0,15.57,4.27,16.3,12.51H44.94Zm21.42-1.53c0-5.92-4.33-9.46-10.07-9.46-6.47,0-9.89,3.54-11.23,9.46h21.3Z" transform="translate(-0.57)"/><path class="cls-1" d="M78.89,66.79v7h0.18c1.71-5.19,7.08-7.94,12.57-7.94,6.41,0,13.31,3,13.31,11.78v12c0,6.71.43,7.39,2,8.06a2.32,2.32,0,0,1,1.1.73,0.59,0.59,0,0,1-.61.24c-0.67,0-2.93-.12-4.88-0.12s-4.21.12-5.07,0.12a1,1,0,0,1-.85-0.18c0-.37.92-0.61,1.22-0.79,2-1.1,2.26-4.39,2.26-8.91v-8.3c0-10.38-4.46-13.06-9.64-13.06-6.53,0-11,6-11,13.19V90c0,4.46.3,6.53,2.2,7.75a3.77,3.77,0,0,1,1.1.73c0,0.18-.18.18-0.49,0.18-1,0-3.3-.12-5.07-0.12s-4,.12-5.07.12c-0.3,0-.55-0.06-0.55-0.3a3.28,3.28,0,0,1,1.16-.73c1.89-1.1,2.2-5.31,2.2-8.73V75.21c0-4.64-1-5.49-2.08-5.86A1,1,0,0,1,72,68.74a0.86,0.86,0,0,1,.73-0.37Z" transform="translate(-0.57)"/><path class="cls-1" d="M115.22,87.66c0,6.77,1.1,9.83,2.56,10.25,0.55,0.12,1,.18,1,0.49a0.75,0.75,0,0,1-.73.24c-1,0-3.3-.12-5.07-0.12-3.11,0-4.39.12-5.07,0.12-0.31,0-.49,0-0.49-0.24a1.33,1.33,0,0,1,1-.73c2.08-1,2.26-3.24,2.26-8.67V71.18c0-1.22-1-1.4-2-2a0.67,0.67,0,0,1-.55-0.37c0-.18.18-0.24,0.43-0.31l6.65-1.77V87.66Zm0.61-28.32A2.87,2.87,0,1,1,113,56.41,2.91,2.91,0,0,1,115.83,59.34Z" transform="translate(-0.57)"/><path class="cls-1" d="M125.74,66.79v7h0.18c1.71-5.19,7.08-7.94,12.57-7.94,6.41,0,13.31,3,13.31,11.78v12c0,6.71.43,7.39,2,8.06a2.32,2.32,0,0,1,1.1.73,0.58,0.58,0,0,1-.61.24c-0.67,0-2.93-.12-4.88-0.12s-4.21.12-5.07,0.12a1,1,0,0,1-.85-0.18c0-.37.92-0.61,1.22-0.79,2-1.1,2.26-4.39,2.26-8.91v-8.3c0-10.38-4.45-13.06-9.64-13.06-6.53,0-11,6-11,13.19V90c0,4.46.31,6.53,2.2,7.75a3.77,3.77,0,0,1,1.1.73c0,0.18-.18.18-0.49,0.18-1,0-3.3-.12-5.07-0.12s-4,.12-5.07.12c-0.3,0-.55-0.06-0.55-0.3a3.28,3.28,0,0,1,1.16-.73c1.89-1.1,2.2-5.31,2.2-8.73V75.21c0-4.64-1-5.49-2.08-5.86a1,1,0,0,1-.79-0.61,0.85,0.85,0,0,1,.73-0.37Z" transform="translate(-0.57)"/><path class="cls-1" d="M182,73.32a0.94,0.94,0,0,1-.55.79c-0.31,0-.43-0.43-0.73-1.4-1.1-3.72-6.35-5.31-10.32-5.31-4.21,0-8.79,1.89-8.79,6.35,0,6,7,6.23,11.47,6.59,5.13,0.49,12,1.16,12,7.94,0,7.87-8.73,11.17-15.32,11.17-5.37,0-10.92-.55-15.69-3.24l1.28-4c0.49-1.59.73-2.07,1.1-2.07s0.43,0.49.73,1.28c1.71,5.07,7.75,6.47,12.45,6.47,4.52,0,10.56-1.4,10.56-7,0-6-6.84-6-11.72-6.35-5-.49-11.78-2.75-11.78-8.85,0-7.45,8.55-9.83,14.59-9.83a31.36,31.36,0,0,1,12.27,2.56Z" transform="translate(-0.57)"/><path class="cls-1" d="M193.11,66.79V87.24c0,5.62,2.56,10.68,9.58,10.68,7.57,0,10.93-7.39,10.93-16v-6c0-4.52-.49-5.55-2-6.29a1.24,1.24,0,0,1-1-.67c0-.12.12-0.18,0.55-0.31l6.9-1.89V87.24c0,2.93.18,8.61,2.14,10.32a2,2,0,0,1,.67.73c0,0.18-.3.24-1,0.24h-4.46l-1.83-6.35c-3.24,5.13-6.53,7.27-13.06,7.27-7.81,0-12.39-4.7-12.39-11.41V74.23c0-3.54-.55-4.27-1.77-4.52-0.73-.18-1.1-0.31-1.1-0.67a0.71,0.71,0,0,1,.67-0.37Z" transform="translate(-0.57)"/><path class="cls-1" d="M228.53,89.68c0,3.54.31,7.14,2.26,7.94,0.61,0.24,1.28.49,1.28,0.79a1.53,1.53,0,0,1-1,.24c-0.73,0-3-.12-4.76-0.12s-4,.12-5.07.12-1.34-.06-1.34-0.24,0.79-.55,1.65-0.92c2.2-1,2.5-6.29,2.5-12.64V63.19c0-4.58-.49-5.92-2.14-6.53a0.71,0.71,0,0,1-.61-0.37,0.64,0.64,0,0,1,.55-0.37l6.71-1.65v35.4Z" transform="translate(-0.57)"/><path class="cls-1" d="M261.31,89.37c0,3.85.49,7.81,2.13,8.36a0.64,0.64,0,0,1,.49.49,0.49,0.49,0,0,1-.55.43c-0.24,0-1.71-.12-2.38-0.12s-1.59.12-2.26,0.12a0.66,0.66,0,0,1-.73-0.49c0-1.53-.85-4-1-5.74h-0.12c-2.63,5.25-7.26,7-12.88,7-5.92,0-13-3.11-13-9.77,0-9.34,13.92-10.74,20.82-10.74h4.64c0-7.14-2-11.54-9.77-11.54-4.27,0-11.17,2.32-11.72,7.14a0.24,0.24,0,0,1-.3.24,0.2,0.2,0,0,1-.25-0.18l-1.65-5.8a35.44,35.44,0,0,1,13.73-2.93c11.11,0,14.83,4.82,14.83,11.9v11.6Zm-9.4-8.91c-6.47,0-15.08,1.22-15.08,9.34,0,5.37,4.15,8.12,9.1,8.12,9.16,0,10.5-7.33,10.5-14.77V80.46h-4.52Z" transform="translate(-0.57)"/><path class="cls-1" d="M176.46,162.26c-4.11,3.33-9.55,4.46-14.8,4.46-9.6,0-18.52-5.39-18.52-16.66,0-10.09,8.92-16.66,18.52-16.66a27.74,27.74,0,0,1,14.06,3.72l-1.52,4.61a5.75,5.75,0,0,1-.69,1.67,2.86,2.86,0,0,1-.54-1.27c-1-4.26-4.07-7.68-11.32-7.83-8.91,0-12.94,8.46-12.94,15.76s4.42,15.76,14.9,15.76c4.8,0,8.43-2.93,10.58-7.88,0.24-.59.29-1,0.54-1s0.25,0.15.44,0.88Z" transform="translate(-0.57)"/><path class="cls-1" d="M212.44,160.76l5.19-10.08a11.7,11.7,0,0,0,1.38-4.25,2.2,2.2,0,0,0-1.86-2.19,0.38,0.38,0,0,1-.36-0.25c0-.12.16-0.16,0.41-0.16,1.05,0,1.42.16,3.08,0.16s1.94-.16,3-0.16c0.28,0,.53,0,0.53.12a0.65,0.65,0,0,1-.36.49c-1.34.93-2.75,3.08-4.13,5.55l-7.9,15.11a1.17,1.17,0,0,1-.49.57h-0.08a1.26,1.26,0,0,1-.4-0.61l-7.09-13.81c-1.54-3.08-2.83-5.71-4.54-6.84a0.84,0.84,0,0,1-.49-0.41c0-.16.24-0.16,0.53-0.16,0.65,0,1.66.16,3.6,0.16s3.32-.16,3.64-0.16a0.59,0.59,0,0,1,.53.16,0.5,0.5,0,0,1-.36.33,1.45,1.45,0,0,0-1.14,1.54,8.13,8.13,0,0,0,1,2.76Z" transform="translate(-0.57)"/><path class="cls-1" d="M225.44,151.69c-0.08.93-.12,1.78-0.12,2.63,0,7.53,3.89,10.33,7.82,10.33,4.66,0,8.1-3.2,9.48-7.94h0.85c-1.3,5.59-5.35,9-10.85,9-6.89,0-12-4.66-12-11.14s5.1-11.14,12-11.14c4.42,0,9.76,2.67,10.33,8.3h-17.5Zm12.39-.77c0-4-1.9-6.76-6.12-6.76-3.69,0-5.67,3.28-6.12,6.76h12.23Z" transform="translate(-0.57)"/><path class="cls-1" d="M248.63,149.66h0.08c0.93-3.44,2.92-6.28,8.26-6.28,4.45,0,8.63,2.31,8.63,8.75V160c-0.08,3.85.45,4.41,1.62,4.82a0.85,0.85,0,0,1,.53.28c0,0.12-.2.12-0.61,0.12s-1.42-.12-3.64-0.12-3.65.12-4.17,0.12c-0.24,0-.45,0-0.45-0.12s0.08-.2.37-0.24c1.46-.16,2.19-1.25,2.19-4.86v-7.86c0-3.72-1.66-7.69-6-7.69-4.82,0-6.4,4.94-6.4,10.61V160c0,2.55.12,4.45,1.94,4.78,0.28,0,.45.12,0.45,0.24s-0.12.2-.36,0.2-1.94-.12-4.13-0.12-4.05.12-4.33,0.12-0.36,0-.36-0.2,0.16-.2.44-0.24c2-.32,2.19-2.22,2.19-4.78v-10c0-2.43-.28-3.81-1.42-4.29a1.76,1.76,0,0,1-.73-0.4,1.07,1.07,0,0,1,.77-0.2,35.31,35.31,0,0,0,5.1-1.17v5.83Z" transform="translate(-0.57)"/><path class="cls-1" d="M287.43,161.53c0,1.33.2,2.55,1.46,3.12a0.56,0.56,0,0,1,.41.24,0.5,0.5,0,0,1-.53.16H284.4a12.08,12.08,0,0,1-1-4.13h-0.08a7.56,7.56,0,0,1-7.49,4.74c-4.21,0-8.55-1.95-8.55-6.77,0-6.16,9.4-6.76,13.65-6.76h2.31V150.8c0-3.89-1.82-6.64-5.91-6.64-3.73,0-5.91,1.09-7.37,4.66a2.06,2.06,0,0,1-.32.69,0.73,0.73,0,0,1-.2-0.44l-1.05-3.64c3.32-1.74,6-2,9.56-2,4.62,0,9.48,1.66,9.48,6.76v11.38Zm-4.17-8.63h-2.39c-4.37,0-8.87,1.3-8.87,6.64a4.92,4.92,0,0,0,5,5.1c4.78,0,6.24-5,6.24-8.91v-2.83Z" transform="translate(-0.57)"/><path class="cls-1" d="M295.16,149.66h0.08c0.93-3.44,2.92-6.28,8.26-6.28,4.45,0,8.63,2.31,8.63,8.75V160c-0.08,3.85.45,4.41,1.62,4.82a0.85,0.85,0,0,1,.53.28c0,0.12-.2.12-0.61,0.12s-1.42-.12-3.64-0.12-3.64.12-4.17,0.12c-0.25,0-.45,0-0.45-0.12s0.08-.2.36-0.24c1.46-.16,2.19-1.25,2.19-4.86v-7.86c0-3.72-1.66-7.69-6-7.69-4.82,0-6.4,4.94-6.4,10.61V160c0,2.55.12,4.45,1.94,4.78,0.28,0,.45.12,0.45,0.24s-0.12.2-.36,0.2-1.94-.12-4.13-0.12-4,.12-4.33.12-0.36,0-.36-0.2,0.16-.2.45-0.24c2-.32,2.19-2.22,2.19-4.78v-10c0-2.43-.28-3.81-1.42-4.29a1.78,1.78,0,0,1-.73-0.4,1.08,1.08,0,0,1,.77-0.2,35.36,35.36,0,0,0,5.1-1.17v5.83Z" transform="translate(-0.57)"/><path class="cls-1" d="M313.09,146.3a0.37,0.37,0,0,1-.41-0.36,1.13,1.13,0,0,1,.81-0.57c2.31-.81,4.25-2.67,5.75-5.75a0.54,0.54,0,0,1,.45-0.41c0.2,0,.2.29,0.2,0.57V145h4.5l-0.28,1.3h-4.21v11.5c0,5.39,1.3,6.36,2.59,6.81a0.6,0.6,0,0,1,.49.28,0.67,0.67,0,0,1-.65.16h-4.9a2.88,2.88,0,0,1-1.7-3V146.3h-2.63Z" transform="translate(-0.57)"/><path class="cls-1" d="M249.7,173.07v-4a1.43,1.43,0,0,0-.85-1.61,0.48,0.48,0,0,1-.2-0.12c0-.06.12-0.08,0.29-0.08s1.26,0.08,1.89.08,1.57-.08,1.89-0.08,0.3,0,.3.08a0.48,0.48,0,0,1-.2.12,1.43,1.43,0,0,0-.84,1.61v8.73a1.81,1.81,0,0,0,1.06,2,0.24,0.24,0,0,1,.18.16c0,0.06-.12.06-0.31,0.06-0.71,0-.94-0.06-2.06-0.06s-1.36.06-2.06,0.06c-0.2,0-.31,0-0.31-0.06a0.24,0.24,0,0,1,.18-0.16,1.81,1.81,0,0,0,1.06-2v-4.27h-7.49v4.27a1.81,1.81,0,0,0,1.06,2,0.25,0.25,0,0,1,.18.16c0,0.06-.12.06-0.31,0.06-0.71,0-.94-0.06-2.06-0.06S239.71,180,239,180c-0.2,0-.31,0-0.31-0.06a0.24,0.24,0,0,1,.18-0.16,1.81,1.81,0,0,0,1.06-2V169.1a1.43,1.43,0,0,0-.84-1.61,0.47,0.47,0,0,1-.2-0.12c0-.06.12-0.08,0.29-0.08s1.26,0.08,1.89.08,1.57-.08,1.89-0.08,0.29,0,.29.08a0.48,0.48,0,0,1-.2.12,1.43,1.43,0,0,0-.85,1.61v4h7.49Z" transform="translate(-0.57)"/><path class="cls-1" d="M257.91,173.07h3.64c1.44,0,2.69-.67,3-1.47a0.21,0.21,0,0,1,.16-0.18c0.06,0,.08.1,0.08,0.29V175c0,0.34,0,.41-0.08.41a0.39,0.39,0,0,1-.16-0.27c-0.57-1.46-2.18-1.53-3.56-1.53h-3v4.15c0,1.44.49,1.75,1.83,1.75H262a8.37,8.37,0,0,0,5.13-2.14,2.7,2.7,0,0,1,.53-0.41,0.05,0.05,0,0,1,.06.06,0.86,0.86,0,0,1,0,.16L266.77,180h-12a0.73,0.73,0,0,1-.59-0.08c0-.06.41-0.18,0.55-0.29,0.73-.57.87-1.12,0.87-2.91V170c0-1.28-.08-2.12-0.87-2.32a0.71,0.71,0,0,1-.33-0.18c0-.08.08-0.12,0.37-0.12h11.11l0.53,1.85a2.79,2.79,0,0,1,.18.73,0.14,0.14,0,0,1-.1.16,0.33,0.33,0,0,1-.24-0.18c-0.82-1.36-2.91-2.06-4.76-2.06h-3.62v5.21Z" transform="translate(-0.57)"/><path class="cls-1" d="M272.71,174.21l-1.06,2.06a5,5,0,0,0-.69,2.24,1.25,1.25,0,0,0,1.06,1.26c0.16,0,.22.08,0.22,0.14s-0.1.1-.24,0.1-0.85-.06-1.93-0.06c-0.79,0-1.3.06-1.53,0.06s-0.26,0-.26-0.1a0.69,0.69,0,0,1,.37-0.32,12,12,0,0,0,2.28-3.1l4.82-9.36a0.26,0.26,0,0,1,.14-0.15h0a0.24,0.24,0,0,1,.16.15L281.88,178a5,5,0,0,0,1.32,1.63,1.2,1.2,0,0,1,.45.33c0,0.06-.1.1-0.27,0.1s-1.06-.06-2.2-0.06c-1.61,0-2.26.06-2.38,0.06a0.2,0.2,0,0,1-.2-0.06c0-.08.1-0.12,0.25-0.16a0.91,0.91,0,0,0,.55-1,8.07,8.07,0,0,0-.88-2.24l-1.12-2.32h-4.68Zm2.32-4.58L273,173.72h4.17Z" transform="translate(-0.57)"/><path class="cls-1" d="M287.9,177.34c0,2,.75,2.12,2.42,2.12h1a7.58,7.58,0,0,0,5.17-2.28,1.49,1.49,0,0,1,.41-0.47,0.12,0.12,0,0,1,.12.14,2,2,0,0,1-.08.27L296.18,180H284.62c-0.34,0-.43,0-0.43-0.1a1.38,1.38,0,0,1,.47-0.18c0.77-.33,1-1.06,1-2.81V169.1a1.52,1.52,0,0,0-.85-1.57,0.24,0.24,0,0,1-.2-0.16c0-.06.12-0.08,0.3-0.08s1.26,0.08,1.89.08,1.57-.08,1.89-0.08,0.24,0,.24.1a0.25,0.25,0,0,1-.18.12,1.51,1.51,0,0,0-.8,1.6v8.24Z" transform="translate(-0.57)"/><path class="cls-1" d="M300,168.77c0-.77-0.34-0.9-1.22-0.9a5.93,5.93,0,0,0-4.15,1.95,2.32,2.32,0,0,1-.35.34,0.11,0.11,0,0,1-.1-0.12,3.26,3.26,0,0,1,.14-0.45l0.63-2.2h12.39l0.63,2.2a3.26,3.26,0,0,1,.14.45,0.11,0.11,0,0,1-.1.12,2.42,2.42,0,0,1-.35-0.34,5.93,5.93,0,0,0-4.15-1.95c-0.89,0-1.22.14-1.22,0.9v9.06c0,1,.25,1.73,1.18,1.91a0.31,0.31,0,0,1,.3.15,0.18,0.18,0,0,1-.16.12c-0.14,0-1.34-.06-2.46-0.06s-2.28.06-2.42,0.06-0.18,0-.18-0.1a0.66,0.66,0,0,1,.37-0.16c0.9-.39,1.08-1,1.08-2.79v-8.2Z" transform="translate(-0.57)"/><path class="cls-1" d="M320,173.07v-4a1.43,1.43,0,0,0-.85-1.61,0.48,0.48,0,0,1-.2-0.12c0-.06.12-0.08,0.29-0.08s1.26,0.08,1.89.08,1.57-.08,1.89-0.08,0.3,0,.3.08a0.49,0.49,0,0,1-.2.12,1.43,1.43,0,0,0-.84,1.61v8.73a1.81,1.81,0,0,0,1.06,2,0.24,0.24,0,0,1,.18.16c0,0.06-.12.06-0.32,0.06-0.71,0-.94-0.06-2.06-0.06S319.74,180,319,180c-0.2,0-.32,0-0.32-0.06a0.25,0.25,0,0,1,.18-0.16,1.81,1.81,0,0,0,1.06-2v-4.27h-7.49v4.27a1.81,1.81,0,0,0,1.06,2,0.24,0.24,0,0,1,.18.16c0,0.06-.12.06-0.31,0.06-0.71,0-.94-0.06-2.06-0.06S310,180,309.26,180c-0.2,0-.31,0-0.31-0.06a0.24,0.24,0,0,1,.18-0.16,1.8,1.8,0,0,0,1.06-2V169.1a1.43,1.43,0,0,0-.84-1.61,0.47,0.47,0,0,1-.2-0.12c0-.06.12-0.08,0.29-0.08s1.26,0.08,1.89.08,1.57-.08,1.89-0.08,0.29,0,.29.08a0.48,0.48,0,0,1-.2.12,1.43,1.43,0,0,0-.85,1.61v4H320Z" transform="translate(-0.57)"/><path class="cls-1" d="M201.66,152.82a13.65,13.65,0,0,1-2.36,7.83,10.4,10.4,0,0,1-11.43,4c-4.45-1.25-9.47-7.13-6.55-13.79a8.69,8.69,0,0,1,6.45-5.06,9.3,9.3,0,0,0-7.54,3.55A11,11,0,0,0,183.84,166a12.65,12.65,0,0,0,16.43-5.14A13.63,13.63,0,0,0,201.66,152.82Z" transform="translate(-0.57)"/><path class="cls-1" d="M176.77,156.71a13.64,13.64,0,0,1,2.36-7.83,10.4,10.4,0,0,1,11.43-4c4.45,1.25,9.47,7.13,6.56,13.79a8.69,8.69,0,0,1-6.45,5.06,9.3,9.3,0,0,0,7.54-3.56,11,11,0,0,0-3.61-16.69,12.65,12.65,0,0,0-16.43,5.14A13.61,13.61,0,0,0,176.77,156.71Z" transform="translate(-0.57)"/><path class="cls-1" d="M326.19,177.83a1.17,1.17,0,0,1,.35.86,1.19,1.19,0,0,1-.35.87,1.21,1.21,0,0,1-1.73,0,1.2,1.2,0,0,1-.35-0.87,1.17,1.17,0,0,1,.36-0.86A1.21,1.21,0,0,1,326.19,177.83Zm0.14-.14a1.41,1.41,0,0,0-2.41,1,1.38,1.38,0,0,0,.41,1A1.42,1.42,0,1,0,326.33,177.69Zm-0.79.93a0.77,0.77,0,0,1-.26,0H325v-0.56h0.23a0.71,0.71,0,0,1,.33.06,0.24,0.24,0,0,1,.1.23A0.24,0.24,0,0,1,325.54,178.62Zm-0.78.84H325v-0.61h0.22a0.69,0.69,0,0,1,.3,0,0.39,0.39,0,0,1,.15.36v0.19H326v0a0.27,0.27,0,0,1,0-.08s0-.08,0-0.11v-0.11a0.43,0.43,0,0,0-.09-0.24,0.37,0.37,0,0,0-.27-0.15,0.59,0.59,0,0,0,.23-0.08,0.34,0.34,0,0,0,.15-0.31,0.38,0.38,0,0,0-.24-0.39,1.21,1.21,0,0,0-.43-0.06h-0.54v1.55Z" transform="translate(-0.57)"/><polygon class="cls-1" points="325.45 127.67 70.87 127.67 70.87 126.92 325.45 126.92 325.45 127.67 325.45 127.67"/><path class="cls-1" d="M82.1,119.05a2.76,2.76,0,0,0,0-.38,28.52,28.52,0,0,0-1.7-4.18H75.48a36.6,36.6,0,0,0-1.81,4.32,0.41,0.41,0,0,0,.09.24h-1.6a1.76,1.76,0,0,0,.74-0.95l4.25-9.82a2,2,0,0,0,.14-0.77,2.69,2.69,0,0,0-.07-0.5h1.43l4.66,10.73a4,4,0,0,0,.83,1.31h-2ZM77.9,108.7l-2,4.94H80Z" transform="translate(-0.57)"/><path class="cls-1" d="M88.94,107l2.82,0c0.69,0,1.38,0,2.06.05,3.56,0.22,5.74,2.37,5.74,6,0,4.83-3.87,6-7.95,6-0.91,0-1.81,0-2.7,0a1.05,1.05,0,0,0,.28-0.86V107.79A1.54,1.54,0,0,0,88.94,107ZM90.47,108v10.22h1.31c3.44,0,6.45-1,6.45-5.09,0-3.37-2.22-5.26-5.49-5.26C92,107.82,91.23,107.89,90.47,108Z" transform="translate(-0.57)"/><path class="cls-1" d="M101.22,119.05a0.94,0.94,0,0,0,.26-0.76c0-1.36,0-2.72,0-4.08a6.26,6.26,0,0,0-.28-2.79l1.46-.12c0,1.62,0,3.22,0,4.83,0,0.59-.14,2.56.29,2.91h-1.72Zm0.07-9.13v-1.46h1.39v1.46h-1.39Z" transform="translate(-0.57)"/><path class="cls-1" d="M109.89,113.16a3.24,3.24,0,0,0,.33-1.26,2.48,2.48,0,0,0-.07-0.5h1.69a2.63,2.63,0,0,0-.53.83l-3.35,7.14-3.41-7.12a3.27,3.27,0,0,0-.52-0.84h1.89a0.93,0.93,0,0,0-.17.52c0,0.6,2,4.64,2.29,5.35Z" transform="translate(-0.57)"/><path class="cls-1" d="M113.12,119.05a0.94,0.94,0,0,0,.26-0.76c0-1.36,0-2.72,0-4.08a6.26,6.26,0,0,0-.28-2.79l1.46-.12c0,1.62,0,3.22,0,4.83,0,0.59-.14,2.56.29,2.91h-1.72Zm0.07-9.13v-1.46h1.39v1.46h-1.39Z" transform="translate(-0.57)"/><path class="cls-1" d="M119.07,112a1.31,1.31,0,0,0-1.48,1.22c0,1.67,3.66,1.12,3.66,3.65,0,1.82-1.46,2.3-3,2.3a8.85,8.85,0,0,1-1.91-.19l-0.17-1.17a4.26,4.26,0,0,0,2.13.62A1.49,1.49,0,0,0,120,117c0-1.89-3.66-1.29-3.66-3.72,0-1.53,1.29-2,2.63-2a6.23,6.23,0,0,1,1.77.26v1A3.48,3.48,0,0,0,119.07,112Z" transform="translate(-0.57)"/><path class="cls-1" d="M122.8,119.05a0.94,0.94,0,0,0,.26-0.76c0-1.36,0-2.72,0-4.08a6.26,6.26,0,0,0-.28-2.79l1.46-.12c0,1.62,0,3.22,0,4.83,0,0.59-.14,2.56.29,2.91H122.8Zm0.07-9.13v-1.46h1.39v1.46h-1.39Z" transform="translate(-0.57)"/><path class="cls-1" d="M129.87,119.17a4,4,0,1,1,4-3.82A3.84,3.84,0,0,1,129.87,119.17Zm2.77-4a2.78,2.78,0,0,0-2.85-3,2.72,2.72,0,0,0-2.68,3A2.79,2.79,0,1,0,132.64,115.22Z" transform="translate(-0.57)"/><path class="cls-1" d="M140.5,119.05a0.93,0.93,0,0,0,.26-0.76c0-1,0-2,0-3,0-1.48.14-3.34-1.89-3.34a2.24,2.24,0,0,0-1.15.33c-1.08.67-1,1.46-1,2.61,0,0.81,0,1.6,0,2.41a2.56,2.56,0,0,0,.28,1.7h-1.72a0.89,0.89,0,0,0,.28-0.76V112a0.8,0.8,0,0,0-.28-0.6l1.46-.12v0.81a4.09,4.09,0,0,1,2.61-.86c3.46,0,2.65,3.9,2.65,6.24a2.15,2.15,0,0,0,.28,1.55H140.5Z" transform="translate(-0.57)"/><path class="cls-1" d="M151.16,119.17a4,4,0,1,1,4-3.82A3.84,3.84,0,0,1,151.16,119.17Zm2.77-4a2.78,2.78,0,0,0-2.85-3,2.72,2.72,0,0,0-2.68,3A2.79,2.79,0,1,0,153.93,115.22Z" transform="translate(-0.57)"/><path class="cls-1" d="M155.87,111.4H157l0-1.2c0-1.55.43-3.11,2.29-3.11a4.69,4.69,0,0,1,.86.09v0.69a3.37,3.37,0,0,0-.58-0.07c-1.26,0-1.39,1.19-1.39,2.17,0,0.48.05,1,.05,1.44h1.94v0.67h-1.94c0,1.44,0,2.89,0,4.32,0,0.58-.14,2.32.29,2.67H156.7a0.93,0.93,0,0,0,.26-0.76v-6.22h-1.08V111.4Z" transform="translate(-0.57)"/><path class="cls-1" d="M163.56,119.05a1.12,1.12,0,0,0,.28-0.89V107.67a1,1,0,0,0-.28-0.65l2.39,0c2.3,0,4.45.34,4.45,3.22a3,3,0,0,1-3.13,3.15,5,5,0,0,1-2.17-.5c0,1.27,0,2.53,0,3.8,0,0.53-.12,2.06.29,2.39h-1.81Zm1.55-11.18v4.56a5,5,0,0,0,1.51.24,2.36,2.36,0,0,0,2.61-2.48c0-1.79-1.15-2.39-2.79-2.39C166,107.81,165.56,107.84,165.11,107.88Z" transform="translate(-0.57)"/><path class="cls-1" d="M173.28,119.19a2.42,2.42,0,0,1-2.61-2.31c0-3.32,4.92-1.53,4.92-3.44,0-1.07-1.22-1.43-2.08-1.43a3.87,3.87,0,0,0-2.13.62v-1a5.6,5.6,0,0,1,2.18-.41c2.6,0,3.22,1,3.22,3.44,0,0.93,0,1.87,0,2.8a2.13,2.13,0,0,0,.28,1.55h-1.46v-0.74A3.39,3.39,0,0,1,173.28,119.19Zm0.22-.84a1.91,1.91,0,0,0,2.08-2.17c0-.4,0-0.77,0-1.17-1,.31-3.78.22-3.78,1.79A1.63,1.63,0,0,0,173.5,118.35Z" transform="translate(-0.57)"/><path class="cls-1" d="M178.54,119.05a0.94,0.94,0,0,0,.26-0.76c0-1.36,0-2.72,0-4.08a6.26,6.26,0,0,0-.28-2.79l1.46-.12v1a2.08,2.08,0,0,1,1.81-1.07,4.23,4.23,0,0,1,.48,0v1a2.16,2.16,0,0,0-.57-0.07c-2.18,0-1.74,3.71-1.74,5.19a2.32,2.32,0,0,0,.28,1.62h-1.72Z" transform="translate(-0.57)"/><path class="cls-1" d="M187.34,111.4h1.72l-3,3.47,3.61,3.59a2.63,2.63,0,0,0,.79.58h-1.74l-3.63-3.65,0,2.1a2.15,2.15,0,0,0,.28,1.55h-1.72a1,1,0,0,0,.26-0.7v-10a1.65,1.65,0,0,0-.26-1l1.46-.1v7.31c0.26-.31,2.27-2.39,2.27-2.86A0.81,0.81,0,0,0,187.34,111.4Z" transform="translate(-0.57)"/><path class="cls-1" d="M194.68,112.49a1.9,1.9,0,0,0-.4-1.08h1.38l1.91,5.45c0.26-.76,1.55-4,1.55-4.88a1.62,1.62,0,0,0-.14-0.57h1.56a2.82,2.82,0,0,0-.58,1.07l-2.48,6.88-2.18-5.62-2.2,5.62-2.65-7.15a2.05,2.05,0,0,0-.46-0.79h1.41l1.84,5.43A22.21,22.21,0,0,0,194.68,112.49Z" transform="translate(-0.57)"/><path class="cls-1" d="M202.24,115.19c0,2,1,3.22,3.06,3.22a4.79,4.79,0,0,0,2.44-.58l-0.24,1a5.52,5.52,0,0,1-2.3.4c-2.56,0-4.2-1.43-4.2-4.06a3.62,3.62,0,0,1,3.56-3.87,3.29,3.29,0,0,1,3.34,3.3H202.3A3.81,3.81,0,0,0,202.24,115.19Zm4.52-1.38a2.1,2.1,0,0,0-2.18-1.79,2.24,2.24,0,0,0-2.15,1.79h4.33Z" transform="translate(-0.57)"/><path class="cls-1" d="M212.12,112a1.31,1.31,0,0,0-1.48,1.22c0,1.67,3.66,1.12,3.66,3.65,0,1.82-1.46,2.3-3,2.3a8.85,8.85,0,0,1-1.91-.19l-0.17-1.17a4.26,4.26,0,0,0,2.13.62,1.49,1.49,0,0,0,1.75-1.41c0-1.89-3.66-1.29-3.66-3.72,0-1.53,1.29-2,2.63-2a6.23,6.23,0,0,1,1.77.26v1A3.48,3.48,0,0,0,212.12,112Z" transform="translate(-0.57)"/><path class="cls-1" d="M219.17,111.4v0.81h-1.7c0,1.07,0,2.12,0,3.18,0,1.25-.28,3.46,1.74,3v0.79a3.74,3.74,0,0,1-.62.05c-1.51,0-2.22-.52-2.29-2.08s0-3.27,0-4.9h-1.08V111.4h1.08v-0.53A0.93,0.93,0,0,0,216,110l1.46-.74v2.15h1.7Z" transform="translate(-0.57)"/><path class="cls-1" d="M230.43,116.77l4.16-9.75h1.81a1.64,1.64,0,0,0-.19.74,5.09,5.09,0,0,0,.05.53l1.07,9.73a2.48,2.48,0,0,0,.36,1h-1.77a1.62,1.62,0,0,0,.14-0.62l0-.19-1-9.73-4.66,10.9-4.75-10.58L225,118.21l0,0.26a0.9,0.9,0,0,0,.21.58h-1.44a1.76,1.76,0,0,0,.22-0.84L224.72,108a2.43,2.43,0,0,0,0-.36,1.46,1.46,0,0,0-.14-0.6H226Z" transform="translate(-0.57)"/><path class="cls-1" d="M240.37,115.19c0,2,1,3.22,3.06,3.22a4.79,4.79,0,0,0,2.44-.58l-0.24,1a5.52,5.52,0,0,1-2.3.4c-2.56,0-4.2-1.43-4.2-4.06a3.62,3.62,0,0,1,3.56-3.87,3.29,3.29,0,0,1,3.34,3.3h-5.61A3.88,3.88,0,0,0,240.37,115.19Zm4.52-1.38a2.1,2.1,0,0,0-2.18-1.79,2.24,2.24,0,0,0-2.15,1.79h4.33Z" transform="translate(-0.57)"/><path class="cls-1" d="M253.42,119.05v-0.72a3.41,3.41,0,0,1-2.29.86c-2.3,0-3.58-1.87-3.58-4s1.07-3.9,3.32-3.9a3.8,3.8,0,0,1,2.55.88c0-.91,0-1.82,0-2.73a4.28,4.28,0,0,0-.27-2.18l1.44-.1v11.32a0.86,0.86,0,0,0,.28.62h-1.46Zm0.05-3.78c0-1.65-.29-3.15-2.29-3.15-1.72,0-2.42,1.63-2.42,3.13s0.76,3,2.44,3C253,118.26,253.48,116.8,253.48,115.27Z" transform="translate(-0.57)"/><path class="cls-1" d="M256.3,119.05a0.94,0.94,0,0,0,.26-0.76c0-1.36,0-2.72,0-4.08a6.26,6.26,0,0,0-.28-2.79l1.46-.12c0,1.62,0,3.22,0,4.83,0,0.59-.14,2.56.29,2.91H256.3Zm0.07-9.13v-1.46h1.39v1.46h-1.39Z" transform="translate(-0.57)"/><path class="cls-1" d="M263.69,112a3,3,0,0,0-3,3.15,2.93,2.93,0,0,0,3.13,3.13,5.33,5.33,0,0,0,2.41-.57l-0.22,1a3.59,3.59,0,0,1-2,.43c-2.41,0-4.52-1.34-4.52-4s1.93-3.94,4.35-3.94a6.84,6.84,0,0,1,2,.28l0.07,1.08A4.23,4.23,0,0,0,263.69,112Z" transform="translate(-0.57)"/><path class="cls-1" d="M270,119.19a2.42,2.42,0,0,1-2.61-2.31c0-3.32,4.92-1.53,4.92-3.44,0-1.07-1.22-1.43-2.08-1.43a3.87,3.87,0,0,0-2.13.62v-1a5.61,5.61,0,0,1,2.18-.41c2.6,0,3.22,1,3.22,3.44,0,0.93,0,1.87,0,2.8a2.13,2.13,0,0,0,.28,1.55h-1.46v-0.74A3.39,3.39,0,0,1,270,119.19Zm0.22-.84a1.91,1.91,0,0,0,2.08-2.17c0-.4,0-0.77,0-1.17-1,.31-3.78.22-3.78,1.79A1.63,1.63,0,0,0,270.23,118.35Z" transform="translate(-0.57)"/><path class="cls-1" d="M275.21,119.05a1,1,0,0,0,.28-0.77v-10a1.61,1.61,0,0,0-.28-1l1.46-.1,0,11.18a0.78,0.78,0,0,0,.28.64h-1.72Z" transform="translate(-0.57)"/><path class="cls-1" d="M288.51,107.76a4.93,4.93,0,0,0-5.26,5.19c0,3.49,2.46,5.31,5.76,5.31a6.6,6.6,0,0,0,3.27-.93l-0.6,1.51a6.92,6.92,0,0,1-2.46.33c-3.9,0-7.31-1.94-7.31-6.26,0-3.77,3.18-6,6.71-6a11.11,11.11,0,0,1,2.92.41v1.26A5.2,5.2,0,0,0,288.51,107.76Z" transform="translate(-0.57)"/><path class="cls-1" d="M294.51,115.19c0,2,1,3.22,3.06,3.22a4.79,4.79,0,0,0,2.44-.58l-0.24,1a5.52,5.52,0,0,1-2.3.4c-2.56,0-4.2-1.43-4.2-4.06a3.62,3.62,0,0,1,3.56-3.87,3.29,3.29,0,0,1,3.34,3.3h-5.61A3.8,3.8,0,0,0,294.51,115.19Zm4.52-1.38a2.1,2.1,0,0,0-2.18-1.79,2.24,2.24,0,0,0-2.15,1.79H299Z" transform="translate(-0.57)"/><path class="cls-1" d="M306.79,119.05a0.94,0.94,0,0,0,.26-0.76c0-1,0-2,0-3,0-1.48.14-3.34-1.89-3.34a2.24,2.24,0,0,0-1.15.33c-1.08.67-1,1.46-1,2.61,0,0.81,0,1.6,0,2.41a2.56,2.56,0,0,0,.28,1.7h-1.72a0.89,0.89,0,0,0,.28-0.76V112a0.8,0.8,0,0,0-.28-0.6l1.46-.12v0.81a4.09,4.09,0,0,1,2.61-.86c3.46,0,2.65,3.9,2.65,6.24a2.15,2.15,0,0,0,.28,1.55h-1.72Z" transform="translate(-0.57)"/><path class="cls-1" d="M313.34,111.4v0.81h-1.7c0,1.07,0,2.12,0,3.18,0,1.25-.28,3.46,1.74,3v0.79a3.75,3.75,0,0,1-.62.05c-1.51,0-2.22-.52-2.29-2.08s0-3.27,0-4.9h-1.08V111.4h1.08v-0.53a0.93,0.93,0,0,0-.26-0.88l1.46-.74v2.15h1.7Z" transform="translate(-0.57)"/><path class="cls-1" d="M315.08,115.19c0,2,1,3.22,3.06,3.22a4.79,4.79,0,0,0,2.44-.58l-0.24,1a5.52,5.52,0,0,1-2.3.4c-2.56,0-4.2-1.43-4.2-4.06a3.62,3.62,0,0,1,3.56-3.87,3.29,3.29,0,0,1,3.34,3.3h-5.61A3.81,3.81,0,0,0,315.08,115.19Zm4.52-1.38a2.1,2.1,0,0,0-2.18-1.79,2.24,2.24,0,0,0-2.15,1.79h4.33Z" transform="translate(-0.57)"/><path class="cls-1" d="M322.18,119.05a0.94,0.94,0,0,0,.26-0.76c0-1.36,0-2.72,0-4.08a6.26,6.26,0,0,0-.28-2.79l1.46-.12v1a2.08,2.08,0,0,1,1.81-1.07,4.21,4.21,0,0,1,.48,0v1a2.16,2.16,0,0,0-.57-0.07c-2.18,0-1.74,3.71-1.74,5.19a2.32,2.32,0,0,0,.28,1.62h-1.72Z" transform="translate(-0.57)"/><path class="cls-1" d="M259.16,64.83a2.35,2.35,0,0,0,.83,0c0.35-.15.54-0.51,0.89-0.65a5.65,5.65,0,0,0,.78-0.07c1.07-.93.84-0.31,1.82-1.22a1,1,0,0,0,0-1.27c-1.69-1.18-2.74-2.75-4.58-3.69-0.72.56-1.86,0.22-2.49,0.76-1.11,1-1.3,2.3-1.88,3.5-0.48,1-1.82.07-2.93,0.54-1.84.78-2.63,0.57-3.86-.39-0.39-.31-1.31-1.72-2-1.59s-0.31,1.1-1.29,1.09a0.62,0.62,0,0,0-.48.65,0.76,0.76,0,0,1-.79.41,1.13,1.13,0,0,0-.52.59c-1.68,1.33-3.05-.58-3.53-1.78-0.35-.86,1.64.24,1.73-0.57,0.25-2.19.15-4.78-2.79-5.73-0.28-1.13-1-2.37.46-3.19a1.13,1.13,0,0,1,.81,0c0.73,0.24.7,1,1.31,1.38a0.49,0.49,0,0,0,.74-0.32c-0.36-2.26,1.92-3.42,3.91-4.32,0.3-1.33.66-2.59,2.17-3.14a14.69,14.69,0,0,1,2.49-.13c0.34-.05.65-0.4,0.39-0.63-0.88-.77-1.49-1.47-1.23-2.55a1.29,1.29,0,0,0,1.23-.75c0.14-.14,0-0.48.1-0.66a6.87,6.87,0,0,1,3-2.41c1.09-.36,2.38.29,3.42,0.84a3.54,3.54,0,0,0,2.43,0c0.7-.22,1-1.21,1.74-1.25,1.5-.09,2.94-0.18,3.67-1.25,0.28-.41.57-1.49-0.31-1.59-2.13-.25-4.29,1.64-6.27.49a1.06,1.06,0,0,0-.5-0.55c-0.94.06-1.66-.53-2.55-0.42,0.06-.53-0.21-0.78-0.85-0.72,0.27-.89-0.87-1.7-0.33-2.46,0.68-1,2.06-.69,3.29-0.84a2.14,2.14,0,0,0,.86-0.65c-1.34-.67-2.87,0-3.69-1.14-0.39-.54.15-1.49-0.27-2a11.69,11.69,0,0,1-2.42-4.74c-0.14-.59-1.36-0.26-1.13-0.66a13,13,0,0,1,1.1-1.52c0.24-.3-0.06-0.57-0.4-0.67s-0.57,0-.83-0.05a0.52,0.52,0,0,1-.43-0.69c0.83-2.15,3.69-1.7,5.94-1.44,1.85-1.44,2.72-3.72,5.14-4.58a2.41,2.41,0,0,1,2.56.59,3.35,3.35,0,0,0,.71.06c0.31,0.94,1.35,1,2.19,1.15A4,4,0,0,1,269,16.29c0.83,1.1.27,2.34,0.58,3.54a3,3,0,0,0,2.08,2,2.48,2.48,0,0,0,2.37-1c0.66-1.07-.53-2.08-0.55-3.18,0-.35.89-0.57,1.52-0.74a0.53,0.53,0,0,0,.44-0.69,3.06,3.06,0,0,0,.84,0c0.33-.1.66-0.43,0.38-0.65a0.82,0.82,0,0,1-.3-1.09,3.48,3.48,0,0,1,2-1.15,6.56,6.56,0,0,1,.87-0.6c0.54,0,.72-0.49,1.27-0.51a1,1,0,0,0,.78-0.65c0.24-1.2-.13-2.37.18-3.56,0.23-.88,2-0.7,2-1.81,1.59-.2,3.22.57,4.61,0.2,1.57-.42,3-1.46,4.74-1.63-0.22.81,1,.55,1.24,1.08a2.47,2.47,0,0,0,.08.68c0.84,0.9,2.19.57,3.31,0.87a4.43,4.43,0,0,1,2,1.06c0.39,0.47.27,1.59,1,1.53s1.75-.09,2.11-0.92a3.48,3.48,0,0,1,.08-0.68c0.4-.52.75-1,1.11-1.52,1.22-1.7.06-3.59,1.37-5.34,0.38-.51,1.51-0.24,1.3-1.07,1.82-.48,3.9-0.81,5.38.16a15,15,0,0,1,5.25,5.22c1.32-.07,2.39-1,3.45-1.26,2.62-.54,5.33-0.18,8-0.18a41.41,41.41,0,0,0,5.83,4.46,3.08,3.08,0,0,1,1.34,1.66,0.88,0.88,0,0,1-.37.35,8.76,8.76,0,0,1,2.14,1.43c1.31,1.22.7,2.73,1.46,4,1.2,2.09-.58,4.27-2.75,5.65,0.7,0.54,1.67.28,2.13,1.08,0.95-.77,2.44-1.11,3.24-0.55a5,5,0,0,1,1.8,1.65c0.43,0.94-.66,2.08-0.15,2.73,0.86,1.1,2.9,1.3,4.42,1.67a6.11,6.11,0,0,1,3.72,2.82c0.39,0.66,0,1.67,1,2.06a1,1,0,0,0,.77,0c1.33-1.57,3.13-2.33,4.61-.94,1.17,1.1.22,2.84,1,4.21a1.92,1.92,0,0,0-.25,2.45c0.58,1.08.34,2.27,0.84,3.24a10.17,10.17,0,0,1,.49,1.18c0.93,2.81-2.61,4.69-5.74,5a5.06,5.06,0,0,0-.88.62c-0.23.1-.59,0-0.8,0.07a17.26,17.26,0,0,1-4.69,1.79c-0.34.08-.61,0.36-0.41,0.67,0.56,0.88,1.32,2.21-.05,2.39s-2.79.42-2.35,1.52a2.74,2.74,0,0,0,1.55,1.66,11.07,11.07,0,0,1,5.84,2.41c0.34,0.28-.25,1.1.53,1.31,1.43,0.38,3.16.29,3.68,1.53,0.34,0.81,1.12,1.69.82,2.43a2.37,2.37,0,0,1-.34,1c-1.13.64-1.28,1.87-2.5,2.19-1,.25-1.53.95-2.5,1.21s-1.2,1.52-2.19,2c-0.21.11-.65,0-0.76,0.08-0.73.77-1.38,1.91-2.54,1.31-1.91-1-3.39-2-5.59-1.35-1.62-.92-3-2.25-2.55-3.95-1.42-1.1-3.38-2.13-3-3.95-1-.66-1.62-1.38-2.61-2.09a1.37,1.37,0,0,0-1.17,0c-0.86.45-1.49,1.56-2.15,1.53-2-.1-2.43-2.23-3.49-3.7a1.65,1.65,0,0,0-.78,0,0.53,0.53,0,0,0-.44-0.69c-1.54-.45-2.18.42-2.93,1.43-0.23.31,0.07,0.58,0.4,0.67,0.82,0.23,2-.42,2.42.42a19.74,19.74,0,0,1,.71,2.44c0.31,1,2.14,1.22,2.73,2.22a1.25,1.25,0,0,1,0,1.34c-1.19,1.28-2.42,2.53-4.19,2.75-0.93.12-1.63-1.16-2.58-1.48s-2.35.68-3.25,1.4c-0.29.23,0.06,1.12-.17,1.22-1.57.68-4.11,1.84-5.45,0.49a3.43,3.43,0,0,1-5.61-.31,3,3,0,0,0-2.08.32c-0.09.22-1.32,0.48-1.42,0.69-2.42,4.95-.9,5.12-1.32,9.68a1.09,1.09,0,0,0-.22.58c0.61,2.85-.08,5.62.69,8.31,0.22,0.76.45,2.77,1,3.47,0.07,0.09.36-.05,0.5,0a9.5,9.5,0,0,1,1.21.71,9.32,9.32,0,0,0,.77,1,5.66,5.66,0,0,0,2.55.73c0.19,0,.37.39,0.59,0.43a20.25,20.25,0,0,0,3.35.56c2.54,0,4.41.87,6.94,0.52,0.85,0.76.53-.23,2.82,0.67H275.53c2.22-.86,2.23-0.24,3.3-0.43,2.78-.5,3.69-1,6.5-1.23,0.21,0,.41-0.43.59-0.41,2.45,0.25,4.45-1.25,6.26-2.82,0.1-.09,0-0.42.1-0.5,0.95-.75.29-3.22,1-4.12,0.12-3.66-.37-7.2-0.48-11.19,0-.38.43-0.54-0.13-1-0.14-.12-0.54-2.29-0.68-2.45a6.91,6.91,0,0,1-1.35-1.67c-1-1.66-5.28-.19-7-0.86-1.08.64-2.14,1.61-3.29,0.95-1.34-.78-3-0.91-3.93-2-1.52.34-4.32,0.26-3.83,2.15-1-.18-0.65,1-1.28,1a14.83,14.83,0,0,1-2.24.42c-1-.07-1.08-0.82-1.27-1.6a3,3,0,0,1-.17-1.48,2.49,2.49,0,0,1,.91-1c0.18-.18.31,0,0.27-0.46a0.51,0.51,0,0,0-.46-0.54c-0.66-.16-1.47.13-2.15,0a2.24,2.24,0,0,1-1.66-1.92c-0.56-.05-1.66-0.43-1.64-1.21a4.82,4.82,0,0,0-1.6-.3c-0.67.12,0.35-.49-0.34-0.46a1.58,1.58,0,0,1-1.47-.42c-0.35-.33-1-0.23-1.11-0.8m14.6-36.13a1.21,1.21,0,0,0-.79-0.64c-0.77.09-.46,0.86-0.38,1.34a0.56,0.56,0,0,0,.79.35A0.67,0.67,0,0,0,272.88,28.48Zm7.27,4c0.42-.07.86,0,1.26-0.06s0.65-.41.39-0.65c-0.78-.71-2.4-1.4-3.25-0.34C277.89,32.22,279.27,32.59,280.16,32.44ZM275,31.67a0.49,0.49,0,0,0,.41-0.69,0.6,0.6,0,0,0-.81-0.34,1.28,1.28,0,0,0-.77.69C273.88,31.78,274.56,31.82,275,31.67Zm20-7.88a1.11,1.11,0,0,0-2,0,1.58,1.58,0,0,0,.28,2.11c0.43-.6,1.16-0.2,1.68-0.4C295.76,25.26,295.55,24.57,295,23.79Zm2.57,0.35a5.94,5.94,0,0,0-.07-0.69,2,2,0,0,0-.83-0.71c-0.37-.18-0.81.12-0.74,0.31,0.37,1,.32,2,1.63,2.49a0.6,0.6,0,0,0,.37-0.32A1.44,1.44,0,0,0,297.6,24.15Zm15.7,1.09c0.82-.61,1.65-1.23,1.22-2.14a2.8,2.8,0,0,0-2.51-1.3,2.69,2.69,0,0,0-2.07,1.31,0.57,0.57,0,0,0,0,.64c0.87,0.55.44,1.43,1.28,1.76A2.21,2.21,0,0,0,313.3,25.24Zm7.2-2.53c0.39-.5,1.38-0.23,1.37-1.06a0.73,0.73,0,0,1,.77-0.41,0.47,0.47,0,0,0,.42-0.67,1,1,0,0,0-1.25-.33,0.51,0.51,0,0,0-.44.68,1.59,1.59,0,0,0-.78,0c-0.51.63-1.23,0.89-1.69,1.45a0.6,0.6,0,0,0,.35,1A1.14,1.14,0,0,0,320.49,22.71Zm2.15,0.39c-1.21.15-1.65,1.32-3,1.46-0.32,0-.64.36-0.39,0.64a6.8,6.8,0,0,0,6.27,2,2.43,2.43,0,0,0,1.51-1.61C327,24.11,324.56,22.86,322.65,23.1Zm-8.5,4.66c-1.32.34-1.71,1.31-2.51,2.17-0.25.27,0.22,0.67,0.31,0.61,1.63-1.09,3.3-.94,5.17-1,0.31,0,.65-0.39.38-0.62-0.57-.49-0.15-1-0.44-1.44C316.29,26.38,315.09,27.53,314.15,27.76Zm0,5a2.68,2.68,0,0,0-.39,3.62c2.18,0.18,5.59-1,4.58-3.2a1.81,1.81,0,0,0-1.19-1.39A3.92,3.92,0,0,0,314.11,32.74Zm7.25,8.2c-1.08.07-.92,1.32-2.13,1.23-0.28,0-.64.39-0.37,0.6,1.67,1.28,3.59-.34,5.47,0,1-1.11.08-2.52-.43-3.59C323.09,39.85,322.51,40.86,321.36,40.94Zm-14,10.53a22.23,22.23,0,0,0-3.86,4.27,43.68,43.68,0,0,0,4.67,1.08c0.67-1,2.06-1.51,2.42-2.54,0.29-.82-0.54-1.56.59-2.06,0.45-.2,1.21.09,1.59-0.15,1-.61,2.3-0.91,2.62-2.07-1.82-1.21-3.58.77-5.52,0.36C309.34,51.23,308.17,50.83,307.39,51.47ZM303.95,45a2.12,2.12,0,0,0-.82,0c-1.43.89-1.2,2.9-.46,4.27a4.12,4.12,0,0,0,3.69-1.5C307.1,46.55,305.86,44.84,303.95,45ZM293.2,46.78a2.25,2.25,0,0,0-1.61-1.71,0.93,0.93,0,0,0-.7.6,9.31,9.31,0,0,0,2,4C293.82,48.76,293.34,47.71,293.2,46.78Zm-5.43,1.47a1.75,1.75,0,0,0-2.32,1.05c-0.05.43,0.84,1,1.52,1.38a1,1,0,0,0,.8,0,1.36,1.36,0,0,0,.79-0.7A1.14,1.14,0,0,0,287.78,48.25Zm-1.25-2.2c-0.45-.21-0.63-1-1.23-0.66-0.39.21-1.14,0.44-.85,1a1.16,1.16,0,0,0,.78.64A3.31,3.31,0,0,0,286.52,46.05ZM284,52.2a0.88,0.88,0,0,0,.81-0.42,0.94,0.94,0,0,0,0-.7,0.56,0.56,0,0,0-.79-0.34c-0.61.35-1.39,0.45-1.71,1.05a0.49,0.49,0,0,0,.42.69A2.82,2.82,0,0,0,284,52.2ZM282.26,50c0.33-.11.65-0.42,0.39-0.66a28.77,28.77,0,0,0-3-1.79c-0.31-.22-0.79.14-0.72,0.28,0.38,0.72.26,1.5,0.76,2.19,0.2,0.27.53,0.55,0.79,0.32C281.11,49.81,281.72,50.16,282.26,50ZM278,47.49a0.51,0.51,0,0,0-.44-0.66,6.18,6.18,0,0,0-3,.65c0.77,0.93,1.12,2.38,2.2,2.67C278.45,50.58,277.88,48.51,278,47.49Zm-3.4,4.72a0.92,0.92,0,0,0,.79-0.43,1.17,1.17,0,0,0,0-1,9.68,9.68,0,0,1-1.26-1.82,1.21,1.21,0,0,0-.81-0.66,2,2,0,0,0-2,1,4.34,4.34,0,0,0,.32,3.55,0.57,0.57,0,0,0,.78.32A4.56,4.56,0,0,1,274.64,52.21Z" transform="translate(-0.57)"/></svg>