<svg id="Layer_1" data-name="Layer 1" xmlns="http://www.w3.org/2000/svg" viewBox="0 0 350.01 72.73"><defs><style>.cls-1,.cls-4{fill:#454e69;}.cls-1{stroke:#454e69;stroke-width:0.51px;}.cls-1,.cls-2,.cls-3{stroke-miterlimit:2.61;}.cls-1,.cls-2{fill-rule:evenodd;}.cls-2,.cls-3{fill:none;}.cls-2{stroke:#fff;stroke-width:2.73px;}.cls-3{stroke:#231f20;stroke-width:1.36px;}</style></defs><title>knoxville-heart-group</title><polygon class="cls-1" points="68.72 70.61 68.94 70.37 69 69.82 69 1.59 68.94 0.71 68.66 0.32 68.02 0.25 1.09 0.25 0.53 0.31 0.31 0.53 0.25 1.09 0.25 69.82 0.31 70.37 0.55 70.61 1.13 70.66 68.16 70.66 68.72 70.61"/><path class="cls-2" d="M35.7,17.65c6-4.57,17.57-11.39,23.34,0C65.82,31,43.78,49.86,34,61" transform="translate(0.01 0.6)"/><path class="cls-2" d="M33.35,18.42c-7.24-6-17.72-14.3-25.25,0-8.35,15.85,13.75,28.11,24.8,40.1" transform="translate(0.01 0.6)"/><line class="cls-3" x1="3.78" y1="27.63" x2="9.33" y2="27.63"/><line class="cls-3" x1="57.23" y1="27.39" x2="62.79" y2="27.39"/><path class="cls-4" d="M75.43,0H85V12.65L95.08,0h12.76L96.51,12.64l11.84,20.85H96.53L90,19.71l-5,5.6v8.17h-9.6V0Z" transform="translate(0.01 0.6)"/><path class="cls-4" d="M111.59,0h9l11.69,18.53V0h9V33.48h-9L120.62,15.1V33.48h-9V0Z" transform="translate(0.01 0.6)"/><path class="cls-4" d="M146.47,16.77q0-8.2,4.24-12.77T162.5-.57q7.75,0,11.95,4.49t4.19,12.57a22,22,0,0,1-1.83,9.63,13.66,13.66,0,0,1-5.3,5.85,16.46,16.46,0,0,1-8.63,2.09,18.63,18.63,0,0,1-8.7-1.8,13.57,13.57,0,0,1-5.58-5.71A20.16,20.16,0,0,1,146.47,16.77Zm9.6,0q0,5.07,1.75,7.29a6.29,6.29,0,0,0,9.54,0q1.7-2.17,1.7-7.79,0-4.73-1.77-6.91a5.85,5.85,0,0,0-4.8-2.18,5.66,5.66,0,0,0-4.66,2.22Q156.06,11.69,156.06,16.81Z" transform="translate(0.01 0.6)"/><path class="cls-4" d="M179.45,0H190l5.5,10.3L200.87,0h10.47l-9.67,16.22,10.58,17.27H201.46l-6.13-10.76L189.2,33.48H178.48L189.19,16Z" transform="translate(0.01 0.6)"/><path class="cls-4" d="M212.27,0h10l7,24.1L236.19,0h9.74L234.4,33.48H224Z" transform="translate(0.01 0.6)"/><path class="cls-4" d="M249.45,0h9.62V33.48h-9.62V0Z" transform="translate(0.01 0.6)"/><path class="cls-4" d="M266,0h9.6V25.24h15v8.25H266V0Z" transform="translate(0.01 0.6)"/><path class="cls-4" d="M294.89,0h9.6V25.24h15v8.25H294.89V0Z" transform="translate(0.01 0.6)"/><path class="cls-4" d="M323.81,0h25.72V7.15h-16.1v5.32h14.94V19.3H333.43v6.6H350v7.58H323.81V0Z" transform="translate(0.01 0.6)"/><path class="cls-4" d="M75.94,71.56V38.08h3.57V51.83h14V38.08h3.57V71.56H93.55V55.78h-14V71.56H75.94Z" transform="translate(0.01 0.6)"/><path class="cls-4" d="M103.14,71.56V38.08h19.52v4H106.71V52.29h14.93v3.93H106.71v11.4h16.57v4H103.14Z" transform="translate(0.01 0.6)"/><path class="cls-4" d="M125.25,71.56l10.37-33.48h3.85l11,33.48h-4.07L143.3,61.42H132l-3,10.14h-3.79ZM133,57.81h9.15l-2.82-9.27q-1.29-4.23-1.91-6.94A51,51,0,0,1,136,48Z" transform="translate(0.01 0.6)"/><path class="cls-4" d="M153.42,71.56V38.08h12a13.08,13.08,0,0,1,5.49.9,6.57,6.57,0,0,1,3,3.19,11.28,11.28,0,0,1,1.12,5,9.63,9.63,0,0,1-1.86,6,8.71,8.71,0,0,1-5.74,3.11A9.25,9.25,0,0,1,169.55,58a22.69,22.69,0,0,1,3,4.45l4.69,9.11h-4.49l-3.57-7q-1.56-3-2.58-4.61a9.29,9.29,0,0,0-1.81-2.24,4.9,4.9,0,0,0-1.63-.89,8.7,8.7,0,0,0-2-.16H157V71.56h-3.57ZM157,52.86h7.68a9.46,9.46,0,0,0,3.83-.63,4.34,4.34,0,0,0,2.1-2,6.42,6.42,0,0,0,.72-3,5.59,5.59,0,0,0-1.39-3.91,5.66,5.66,0,0,0-4.39-1.53H157V52.86Z" transform="translate(0.01 0.6)"/><path class="cls-4" d="M186.78,71.56V42h-8.89v-4h21.39v4h-8.93V71.56h-3.57Z" transform="translate(0.01 0.6)"/><path class="cls-4" d="M225.37,58.43V54.5l11.43,0V66.9a19.7,19.7,0,0,1-5.43,3.92,13.39,13.39,0,0,1-5.74,1.31,12.8,12.8,0,0,1-12.13-8.22A23.11,23.11,0,0,1,211.84,55a25,25,0,0,1,1.65-9.12,12.85,12.85,0,0,1,4.74-6.29,12.57,12.57,0,0,1,7.13-2.06,11.73,11.73,0,0,1,5.29,1.18A9.12,9.12,0,0,1,234.36,42a16.32,16.32,0,0,1,2,5.48l-3.22,1.1a13.88,13.88,0,0,0-1.51-4,6.49,6.49,0,0,0-2.58-2.34,7.88,7.88,0,0,0-3.72-.88,9.09,9.09,0,0,0-4.23.92,8.08,8.08,0,0,0-2.88,2.43,12.23,12.23,0,0,0-1.7,3.31,21.26,21.26,0,0,0-1,6.74,19.73,19.73,0,0,0,1.24,7.49,9.14,9.14,0,0,0,3.62,4.48,9.47,9.47,0,0,0,5,1.46A10,10,0,0,0,230,67a11.4,11.4,0,0,0,3.35-2.36V58.43h-7.94Z" transform="translate(0.01 0.6)"/><path class="cls-4" d="M242.13,71.56V38.08h12a13.08,13.08,0,0,1,5.49.9,6.57,6.57,0,0,1,3,3.19,11.28,11.28,0,0,1,1.12,5,9.63,9.63,0,0,1-1.86,6,8.71,8.71,0,0,1-5.74,3.11A9.25,9.25,0,0,1,258.26,58a22.69,22.69,0,0,1,3,4.45l4.69,9.11h-4.49l-3.57-7q-1.56-3-2.58-4.61a9.29,9.29,0,0,0-1.81-2.24,4.9,4.9,0,0,0-1.63-.89,8.7,8.7,0,0,0-2-.16H245.7V71.56h-3.57Zm3.57-18.71h7.68a9.46,9.46,0,0,0,3.83-.63,4.34,4.34,0,0,0,2.1-2,6.42,6.42,0,0,0,.72-3,5.59,5.59,0,0,0-1.39-3.91,5.66,5.66,0,0,0-4.39-1.53H245.7V52.86Z" transform="translate(0.01 0.6)"/><path class="cls-4" d="M268.22,55.26q0-8.34,3.61-13.05a11.22,11.22,0,0,1,9.32-4.72,11.07,11.07,0,0,1,6.74,2.22,13.77,13.77,0,0,1,4.57,6.18,24.18,24.18,0,0,1,1.57,9A23.72,23.72,0,0,1,292.38,64a13.18,13.18,0,0,1-4.69,6.09,11.43,11.43,0,0,1-6.55,2.07,11,11,0,0,1-6.81-2.28,14.06,14.06,0,0,1-4.55-6.24A22.74,22.74,0,0,1,268.22,55.26Zm3.68,0.07q0,6.05,2.62,9.54a8,8,0,0,0,13.22,0q2.61-3.52,2.61-10a20.79,20.79,0,0,0-1.11-7.14A10.32,10.32,0,0,0,286,43a7.61,7.61,0,0,0-4.81-1.68,8.29,8.29,0,0,0-6.53,3.23Q271.9,47.76,271.9,55.32Z" transform="translate(0.01 0.6)"/><path class="cls-4" d="M316.35,38.08h3.57V57.43a28,28,0,0,1-.92,8,9.52,9.52,0,0,1-3.32,4.83,10,10,0,0,1-6.31,1.86,10.91,10.91,0,0,1-6.2-1.62,8.83,8.83,0,0,1-3.44-4.69,27.28,27.28,0,0,1-1-8.39V38.08h3.57V57.4a23.07,23.07,0,0,0,.65,6.43A5.94,5.94,0,0,0,305.16,67a6.6,6.6,0,0,0,3.89,1.12q3.94,0,5.62-2.22t1.68-8.52V38.08Z" transform="translate(0.01 0.6)"/><path class="cls-4" d="M325.87,71.56V38.08H336a19.94,19.94,0,0,1,4.11.32A7.29,7.29,0,0,1,343.49,40a8.05,8.05,0,0,1,2.16,3.23,12.35,12.35,0,0,1,.82,4.57A11.8,11.8,0,0,1,344.28,55q-2.19,3-7.92,3h-6.92V71.56h-3.57ZM329.44,54h7q3.46,0,4.92-1.6a6.45,6.45,0,0,0,1.45-4.5,7.13,7.13,0,0,0-.86-3.6,4.14,4.14,0,0,0-2.26-2,12.39,12.39,0,0,0-3.33-.3h-6.9V54Z" transform="translate(0.01 0.6)"/></svg>