<svg id="Layer_1" data-name="Layer 1" xmlns="http://www.w3.org/2000/svg" viewBox="0 0 350.85 108.03"><defs><style>.cls-1{fill:#001689;}</style></defs><title>logo</title><path class="cls-1" d="M35,35.29a92,92,0,0,1-3.29,10.87A44.45,44.45,0,0,1,21.12,48C6.74,48,.45,35.85.45,24.63,0.45,9.74,9.8,0,22.68,0c4.68,0,8.6,1.55,10.22,1.91,0.46,4,.81,6.85,1.15,10.59l-1.67.56c-1.56-7.48-5-10.52-11.26-10.52-9.64,0-14.78,10-14.78,20.68,0,13.2,6.35,22.23,15.13,22.23,5.89,0,9-3.88,11.89-10.87Z" transform="translate(-0.15)"/><path class="cls-1" d="M55.72,39.31c-0.24,1.51-1.07,6.12-1.43,7.63h-18V45.57c3.34-.29,3.66-0.63,3.66-4.76V21.38c0-4.13-.24-4.37-3.5-4.66V15.36H46.82v1.36c-3.14.29-3.5,0.49-3.5,4.66V40.57c0,2.62.2,3.59,0.91,4.08a7.4,7.4,0,0,0,3.81.63c2.19,0,3.54-.24,4.45-1.51a14.5,14.5,0,0,0,2-4.76Z" transform="translate(-0.15)"/><path class="cls-1" d="M54.57,47.28H35.95v-2l0.31,0c3.1-.27,3.34-0.39,3.34-4.42V21.38c0-4-.18-4.05-3.18-4.32l-0.31,0V15H47.17v2l-0.31,0c-2.94.27-3.18,0.3-3.18,4.32V40.57c0,2.48.19,3.4,0.76,3.79a7.42,7.42,0,0,0,3.62.57c2.06,0,3.34-.22,4.17-1.36a14.38,14.38,0,0,0,2-4.65l0.09-.33L56.11,39l0,0.31C55.82,40.91,55,45.52,54.63,47Zm-17.93-.69H54c0.35-1.59,1-5.35,1.31-7l-0.56-.14a14.52,14.52,0,0,1-2,4.55c-1,1.38-2.49,1.65-4.73,1.65-1.79,0-3.16-.12-4-0.69S43,43.09,43,40.57V21.38c0-4.22.45-4.67,3.5-5v-0.7H36.8v0.7c3.2,0.31,3.5.84,3.5,5V40.81c0,4.14-.38,4.76-3.66,5.07v0.7Z" transform="translate(-0.15)"/><path class="cls-1" d="M58.74,46.93V45.57c3.26-.29,3.58-0.58,3.58-4.71V21.43c0-4.13-.32-4.42-3.58-4.71V15.36H69.27v1.36C66,17,65.7,17.3,65.7,21.43V40.86c0,4.18.32,4.42,3.58,4.71v1.36H58.74Z" transform="translate(-0.15)"/><path class="cls-1" d="M69.62,47.28H58.4v-2l0.31,0c3-.27,3.26-0.39,3.26-4.37V21.43c0-4-.23-4.1-3.26-4.37L58.4,17V15H69.62v2l-0.31,0c-3,.27-3.26.39-3.26,4.37V40.86c0,4.08.25,4.1,3.26,4.37l0.31,0v2Zm-10.53-.69h9.84v-0.7c-3.23-.32-3.58-0.89-3.58-5V21.43c0-4.09.38-4.71,3.58-5v-0.7H59.09v0.7c3.2,0.32,3.58.93,3.58,5V40.86c0,4.09-.38,4.71-3.58,5v0.7Z" transform="translate(-0.15)"/><path class="cls-1" d="M100.35,16.72c-2.23.15-3.18,0.78-3.34,2.87-0.16,1.51-.24,3.69-0.24,8.21V47.37H95.54L78.61,21.92H78.53V34.11c0,4.47.12,6.8,0.24,8.21,0.2,2.48,1.11,3.06,3.81,3.25v1.36H73.17V45.57c2.26-.15,3.3-0.78,3.5-3.16,0.12-1.51.24-3.89,0.24-8.31V23.42c0-3.55-.08-3.79-0.79-4.91s-1.67-1.6-3.54-1.8V15.36h5.84L95,39.74h0.12V27.8a74.15,74.15,0,0,0-.28-8.06c-0.2-2.23-1.11-2.87-3.89-3V15.36h9.38v1.36Z" transform="translate(-0.15)"/><path class="cls-1" d="M97.11,47.71H95.35L78.88,22.94V34.11c0,3.62.08,6.29,0.24,8.18,0.18,2.2.83,2.75,3.5,2.94l0.32,0v2H72.82v-2l0.32,0c2.29-.15,3-0.78,3.17-2.84s0.24-4.72.24-8.28V23.42c0-3.56-.08-3.69-0.74-4.72s-1.46-1.45-3.28-1.64l-0.31,0V15H78.6L94.8,38.8v-11a76.13,76.13,0,0,0-.28-8c-0.18-2-.91-2.57-3.57-2.71l-0.33,0V15h10.07v2l-0.32,0c-2.17.14-2.88,0.74-3,2.55-0.17,1.6-.24,4-0.24,8.18V47.71ZM95.72,47h0.7V27.8c0-4.24.07-6.63,0.24-8.24,0.18-2.33,1.4-3,3.34-3.15v-0.7H91.31V16.4c2.73,0.2,3.69,1,3.89,3.31a76.82,76.82,0,0,1,.28,8.09V40.09H94.84L78.23,15.71H72.92v0.71a4.17,4.17,0,0,1,3.48,1.91c0.79,1.24.85,1.62,0.85,5.1V34.11c0,3.62-.08,6.27-0.24,8.33-0.22,2.58-1.44,3.26-3.5,3.45v0.7h8.73v-0.7c-2.45-.22-3.6-0.84-3.81-3.54-0.16-1.9-.24-4.6-0.24-8.24V21.57h0.53l0.18,0.15Z" transform="translate(-0.15)"/><path class="cls-1" d="M124.62,22.89a13.72,13.72,0,0,0-1.23-4.32c-0.68-1.17-1.31-1.55-4.33-1.55h-2.78V41c0,3.84.32,4.32,4.05,4.61v1.36H109V45.57c3.62-.29,3.93-0.78,3.93-4.61V17h-2.46c-3.3,0-4.09.44-4.61,1.51a18.12,18.12,0,0,0-1.27,4.37h-1.15c0.2-2.91.4-6.07,0.48-8.74h0.79a1.9,1.9,0,0,0,2.19,1.21h15.7a1.94,1.94,0,0,0,2-1.21h0.83c0,2.23.2,5.78,0.44,8.6Z" transform="translate(-0.15)"/><path class="cls-1" d="M120.68,47.28H108.62v-2l0.32,0c3.38-.27,3.62-0.55,3.62-4.27V17.36h-2.12c-3.42,0-3.9.5-4.3,1.31a18.28,18.28,0,0,0-1.25,4.3l-0.06.27H103l0-.37c0.19-2.79.4-6,.48-8.73V13.8h1.34L105,14c0.49,1,.86,1,1.88,1h15.7a1.62,1.62,0,0,0,1.7-1.06l0.1-.16h1.36v0.34c0,2.09.19,5.67,0.44,8.57l0,0.33-1.85.23-0.06-.32a13.72,13.72,0,0,0-1.19-4.21c-0.58-1-1.08-1.38-4-1.38h-2.44V41c0,3.72.24,4,3.73,4.27l0.32,0v2Zm-11.36-.69H120v-0.7c-3.55-.31-4.05-1-4.05-4.93V16.67h3.13c3.1,0,3.88.43,4.63,1.73a13.48,13.48,0,0,1,1.22,4.11l0.54-.07c-0.22-2.7-.36-5.9-0.4-7.95h-0.31a2.18,2.18,0,0,1-2.17,1.21h-15.7a2.22,2.22,0,0,1-2.39-1.21h-0.25C104.13,17,104,20,103.77,22.55h0.51a16.8,16.8,0,0,1,1.25-4.2c0.63-1.3,1.73-1.68,4.91-1.68h2.81V41c0,3.94-.49,4.62-3.93,4.93v0.7Z" transform="translate(-0.15)"/><path class="cls-1" d="M154.43,30.76c0,10.49-6,16.9-13.27,16.9s-12.91-6.8-12.91-16.17c0-8.74,5-16.85,13.39-16.85C148.35,14.63,154.43,21,154.43,30.76Zm-22.13-.63c0,9.13,4.09,15.79,9.7,15.79,4.45,0,8.38-4.52,8.38-13.84,0-10.25-4.37-15.69-9.62-15.69C136.35,16.38,132.29,21,132.29,30.13Z" transform="translate(-0.15)"/><path class="cls-1" d="M141.15,48c-7.56,0-13.26-7.1-13.26-16.52,0-8.34,4.81-17.2,13.74-17.2,6.37,0,13.14,5.77,13.14,16.47C154.77,40.91,149.17,48,141.15,48Zm0.48-33c-8.47,0-13,8.51-13,16.51,0,9,5.4,15.83,12.57,15.83,7.61,0,12.93-6.81,12.93-16.56C154.08,20.51,147.67,15,141.63,15ZM142,46.26c-5.82,0-10-6.78-10-16.13,0-9.73,4.42-14.09,8.81-14.09,6.88,0,10,8.05,10,16C150.72,42.54,146,46.26,142,46.26Zm-1.23-29.53c-4,0-8.12,4.14-8.12,13.4,0,8.95,3.93,15.44,9.35,15.44,3.71,0,8-3.54,8-13.5C150,24.43,147.16,16.73,140.76,16.73Z" transform="translate(-0.15)"/><path class="cls-1" d="M184.39,16.72c-2.23.15-3.18,0.78-3.34,2.87-0.16,1.51-.24,3.69-0.24,8.21V47.37h-1.23L162.65,21.92h-0.08V34.11c0,4.47.12,6.8,0.24,8.21,0.2,2.48,1.11,3.06,3.81,3.25v1.36h-9.42V45.57c2.26-.15,3.3-0.78,3.5-3.16,0.12-1.51.24-3.89,0.24-8.31V23.42c0-3.55-.08-3.79-0.79-4.91s-1.67-1.6-3.54-1.8V15.36h5.84l16.61,24.38h0.12V27.8a74.09,74.09,0,0,0-.28-8.06c-0.2-2.23-1.11-2.87-3.89-3V15.36h9.38v1.36Z" transform="translate(-0.15)"/><path class="cls-1" d="M181.16,47.71h-1.76L162.92,22.94V34.11c0,3.62.08,6.29,0.24,8.18,0.18,2.2.83,2.75,3.5,2.94l0.32,0v2H156.86v-2l0.32,0c2.29-.15,3-0.78,3.18-2.84s0.24-4.72.24-8.28V23.42c0-3.56-.08-3.69-0.74-4.72s-1.46-1.45-3.28-1.64l-0.31,0V15h6.37l16.2,23.78v-11a77,77,0,0,0-.28-8c-0.18-2-.91-2.57-3.57-2.71l-0.33,0V15h10.07v2l-0.32,0c-2.17.14-2.88,0.74-3,2.55-0.17,1.61-.24,4-0.24,8.18V47.71ZM179.76,47h0.7V27.8c0-4.23.07-6.62,0.24-8.24,0.18-2.33,1.4-3,3.34-3.15v-0.7h-8.69V16.4c2.73,0.2,3.69,1,3.89,3.31a76.74,76.74,0,0,1,.28,8.09V40.09h-0.65L162.27,15.71H157v0.71a4.16,4.16,0,0,1,3.48,1.91c0.79,1.24.86,1.62,0.86,5.1V34.11c0,3.62-.08,6.27-0.24,8.33-0.22,2.58-1.44,3.26-3.5,3.45v0.7h8.73v-0.7c-2.45-.22-3.6-0.84-3.81-3.54-0.16-1.9-.24-4.6-0.24-8.24V21.57h0.53l0.18,0.15Z" transform="translate(-0.15)"/><path class="cls-1" d="M224.79,11.72a18.43,18.43,0,0,0-1.62-5.65c-1-2-2.19-2.61-6.58-2.61H212.2c-1.73,0-1.91.21-1.91,2.26v16.8h5.95c5.25,0,5.54-.64,6.24-5.22h1.67V30.91h-1.67c-0.69-4.87-1-5.65-6.24-5.65H210.3V38c0,6.07.46,6.49,5.72,6.92v2H200.31V45c4.62-.42,5.08-0.85,5.08-6.92V9.88c0-6.07-.46-6.42-4.91-6.85v-2h25.41c0.06,2.54.35,7,.58,10.37Z" transform="translate(-0.15)"/><path class="cls-1" d="M241.22,46.93V45.57c2.5-.39,2.86-0.78,2.34-2.67s-1.31-4.52-2.19-7.48h-8.46c-0.64,2.19-1.23,4.23-1.75,6.27-0.83,3.06-.52,3.55,2.5,3.89v1.36H225V45.57c2.54-.44,3.1-0.73,4.45-5.05l8.23-25.45,1.23-.44c2.46,8.31,5.13,17.58,7.67,26,1.23,4.18,1.79,4.61,4.37,4.91v1.36h-9.74Zm-3.89-26h-0.08c-1.27,4.13-2.5,8.4-3.74,12.39h7.31Z" transform="translate(-0.15)"/><path class="cls-1" d="M251.3,47.28H240.87v-2l0.29,0a3.57,3.57,0,0,0,2.15-.73,2,2,0,0,0-.09-1.51c-0.38-1.4-.91-3.17-1.52-5.23l-0.59-2h-7.95c-0.61,2.08-1.18,4-1.67,6-0.37,1.34-.53,2.26-0.23,2.71s1.15,0.61,2.44.75l0.31,0v2h-9.35v-2l0.29,0c2.34-.4,2.83-0.49,4.18-4.81l8.28-25.62,1.74-.62,0.1,0.35c1,3.38,2,6.93,3.09,10.52,1.51,5.17,3.07,10.51,4.58,15.52,1.19,4.05,1.67,4.39,4.08,4.66l0.31,0v2Zm-9.74-.69h9V45.88c-2.57-.34-3.18-1.11-4.36-5.11-1.51-5-3.07-10.35-4.58-15.52-1-3.46-2-6.89-3-10.16l-0.73.26-8.17,25.29c-1.32,4.22-1.92,4.78-4.43,5.23v0.73h8V45.88c-1.37-.17-2.21-0.4-2.62-1s-0.3-1.67.13-3.27c0.5-2,1.08-4,1.7-6.09l0.13-.43h9l0.74,2.49c0.61,2.06,1.14,3.84,1.52,5.24a2.54,2.54,0,0,1,0,2.07c-0.35.54-1.1,0.78-2.33,1v0.72Zm-0.29-12.91H233l0.14-.45c0.63-2,1.26-4.14,1.89-6.26s1.22-4.1,1.84-6.12L237,20.6h0.52l0.15,0.25ZM234,33h6.39l-3.09-11c-0.52,1.7-1,3.42-1.54,5.13C235.14,29.14,234.56,31.09,234,33Z" transform="translate(-0.15)"/><path class="cls-1" d="M276.42,46.93V45.57c3.26-.34,3.38-0.63,3.38-5.78L279.64,20h-0.16l-9.7,26.62H269l-8.9-25.94H260l-0.6,13.84c-0.16,4-.16,6.12-0.12,8.06,0.08,2.33,1,2.67,3.66,3v1.36H253.7V45.57c2.34-.29,3.1-0.87,3.38-2.91,0.24-1.7.48-3.79,0.75-8.89l0.56-10.1c0.36-6.31.16-6.51-3.46-6.95V15.36h6.52L270.5,39.7l9.22-24.33h6.76v1.36c-3.54.39-3.77,0.49-3.66,5.49l0.36,17.58c0.12,5.15.24,5.44,3.7,5.78v1.36H276.42Z" transform="translate(-0.15)"/><path class="cls-1" d="M287.22,47.28H276.08v-2l0.31,0c3-.31,3.07-0.32,3.07-5.44l-0.15-18.33L270,46.94h-1.28l-8.46-24.65-0.53,12.22c-0.16,3.93-.16,6.06-0.12,8s0.7,2.34,3.35,2.68l0.3,0v2h-9.95v-2l0.3,0c2.25-.28,2.83-0.77,3.08-2.62,0.22-1.59.46-3.58,0.75-8.86L258,23.65c0.35-6.16.22-6.18-3.15-6.58l-0.3,0V15h7.1l8.82,23.7,9-23.7h7.34v2l-0.31,0c-3.4.37-3.46,0.38-3.35,5.14l0.36,17.58c0.12,5.12.24,5.13,3.38,5.44l0.31,0v2Zm-10.45-.69h9.76v-0.7c-3.45-.37-3.58-1.06-3.7-6.08l-0.36-17.58c-0.12-4.9.12-5.39,3.66-5.8V15.71H280l-9.46,25-9.3-25h-5.93v0.71c3.58,0.46,3.81,1.08,3.46,7.27l-0.56,10.1c-0.29,5.31-.53,7.31-0.76,8.92-0.28,2.08-1.05,2.83-3.37,3.17v0.71h8.57V45.87c-2.52-.34-3.57-0.81-3.66-3.3,0-2,0-4.14.12-8.09l0.61-14.17h0.58l0.16,0.23,8.82,25.7h0.31l9.7-26.62H280l0.16,20.16c0,5-.11,5.71-3.38,6.09v0.71Z" transform="translate(-0.15)"/><path class="cls-1" d="M290.57,46.93V45.57c3.26-.29,3.58-0.58,3.58-4.71V21.43c0-4.13-.32-4.42-3.58-4.71V15.36H301.1v1.36c-3.26.29-3.58,0.58-3.58,4.71V40.86c0,4.18.32,4.42,3.58,4.71v1.36H290.57Z" transform="translate(-0.15)"/><path class="cls-1" d="M301.45,47.28H290.23v-2l0.31,0c3-.27,3.26-0.39,3.26-4.37V21.43c0-4-.23-4.1-3.26-4.37l-0.31,0V15h11.22v2l-0.31,0c-3,.27-3.26.39-3.26,4.37V40.86c0,4.08.25,4.1,3.26,4.37l0.31,0v2Zm-10.53-.69h9.84v-0.7c-3.24-.32-3.58-0.89-3.58-5V21.43c0-4.09.38-4.71,3.58-5v-0.7h-9.84v0.7c3.2,0.32,3.58.93,3.58,5V40.86c0,4.09-.37,4.71-3.58,5v0.7Z" transform="translate(-0.15)"/><path class="cls-1" d="M324.46,39.31c-0.24,1.51-1.07,6.12-1.43,7.63H305V45.57c3.34-.29,3.66-0.63,3.66-4.76V21.38c0-4.13-.24-4.37-3.5-4.66V15.36h10.37v1.36c-3.14.29-3.5,0.49-3.5,4.66V40.57c0,2.62.2,3.59,0.91,4.08a7.4,7.4,0,0,0,3.81.63c2.19,0,3.54-.24,4.45-1.51a14.5,14.5,0,0,0,2-4.76Z" transform="translate(-0.15)"/><path class="cls-1" d="M323.31,47.28H304.69v-2l0.31,0c3.11-.27,3.34-0.39,3.34-4.42V21.38c0-4-.18-4.05-3.18-4.32l-0.31,0V15h11.06v2l-0.31,0c-2.94.27-3.18,0.3-3.18,4.32V40.57c0,2.51.18,3.4,0.76,3.79a7.41,7.41,0,0,0,3.62.57c2.07,0,3.34-.22,4.17-1.36a14.38,14.38,0,0,0,2-4.65L323,38.6,324.85,39l0,0.31c-0.24,1.54-1.08,6.15-1.44,7.65Zm-17.93-.69h17.38c0.35-1.59,1-5.35,1.31-7l-0.56-.14a14.51,14.51,0,0,1-2,4.55c-1,1.38-2.49,1.65-4.73,1.65-1.79,0-3.16-.12-4-0.69s-1.07-1.85-1.07-4.37V21.38c0-4.22.45-4.67,3.5-5v-0.7h-9.68v0.7c3.2,0.31,3.5.84,3.5,5V40.81c0,4.14-.38,4.76-3.66,5.07v0.7Z" transform="translate(-0.15)"/><path class="cls-1" d="M348,16.72c-2.74.39-3.22,0.87-4.73,3.84-1.79,3.55-3.14,6.36-5,10.64a6.12,6.12,0,0,0-.68,3.06v6.61c0,4.08.32,4.42,4,4.71v1.36H330.35V45.57c3.54-.29,3.85-0.58,3.85-4.71V34.4a6,6,0,0,0-.83-2.91c-1.39-3-2.86-6.17-5-10.64-1.59-3.35-2-3.89-4.41-4.13V15.36h9.5v1.36c-2.86.44-2.74,1-2,2.62,1.71,3.89,3.66,7.87,5.36,11.51,1.47-3.21,3.62-8,4.73-10.93,0.91-2.43.79-2.82-2.3-3.21V15.36H348v1.36Z" transform="translate(-0.15)"/><path class="cls-1" d="M341.9,47.28H330v-2l0.32,0c3.27-.27,3.54-0.29,3.54-4.37V34.4a5.66,5.66,0,0,0-.8-2.77l-1.19-2.54c-1.07-2.29-2.27-4.86-3.82-8.09s-2-3.71-4.13-3.94l-0.31,0V15h10.19v2l-0.29,0c-0.81.12-1.9,0.33-2.12,0.72a2.13,2.13,0,0,0,.35,1.42c1.21,2.76,2.54,5.56,3.83,8.27L336.78,30c2.12-4.63,3.6-8.07,4.41-10.23,0.41-1.08.59-1.72,0.4-2s-1.09-.54-2.43-0.71l-0.3,0V15h9.47v2l-0.3,0c-2.64.37-3,.81-4.47,3.65-1.7,3.37-3.07,6.19-5,10.62a5.8,5.8,0,0,0-.65,2.92v6.61c0,3.89.17,4.09,3.66,4.37l0.32,0v2Zm-11.21-.69h10.52v-0.7c-3.56-.31-4-0.92-4-5V34.26a6.41,6.41,0,0,1,.71-3.2c1.94-4.44,3.31-7.27,5-10.65,1.47-2.88,2-3.56,4.69-4V15.71h-8.09v0.71c1.46,0.2,2.28.42,2.63,1s0.1,1.44-.35,2.63c-0.85,2.28-2.45,6-4.74,11l-0.31.68L336.47,31c-0.49-1.05-1-2.13-1.53-3.23-1.29-2.72-2.62-5.52-3.84-8.29a2.36,2.36,0,0,1-.33-2c0.27-.49.93-0.79,2.33-1V15.71h-8.81v0.71c2.29,0.29,2.84,1.05,4.38,4.29s2.75,5.8,3.82,8.09l1.19,2.54a6.29,6.29,0,0,1,.87,3.06v6.46c0,4.15-.37,4.71-3.85,5v0.7Z" transform="translate(-0.15)"/><path class="cls-1" d="M14.83,55.14c4.1,0,7.45.85,9.76,2.89s3.7,5.36,3.7,10c0,9.17-5.6,13.62-11.26,14.47a11,11,0,0,1-2.6.07l-4.27-1.34V92.27c0,6,.52,6.35,5.72,6.78v2H0.22V99c4.62-.42,5.08-1,5.08-6.85V64c0-6.21-.46-6.49-4.73-6.85v-2H14.83ZM10.15,78.86a10.49,10.49,0,0,0,4.21.85c3.75,0,8.37-2.47,8.37-11.43,0-7.62-4-10.87-8.72-10.87-1.62,0-2.83.35-3.23,0.85s-0.64,1.27-.64,3.32V78.86Z" transform="translate(-0.15)"/><path class="cls-1" d="M57.94,70.81c-3.26.34-3.58,0.58-3.58,4.61V95c0,4.08.32,4.32,3.54,4.61V101H47.25V99.66C50.67,99.37,51,99.12,51,95V85.38H37.44V95c0,4,.32,4.32,3.58,4.61V101H30.56V99.66c3.18-.29,3.5-0.53,3.5-4.61V75.42c0-4.08-.32-4.32-3.58-4.61V69.45H40.77v1.36c-3,.29-3.34.58-3.34,4.61v7.87H51V75.42c0-4-.32-4.27-3.42-4.61V69.45H57.94v1.36Z" transform="translate(-0.15)"/><path class="cls-1" d="M58.24,101.36H46.91v-2l0.32,0C50.38,99,50.64,99,50.64,95V85.72H37.78V95c0,3.89.23,4,3.26,4.27l0.31,0v2H30.22v-2l0.31,0C33.47,99,33.71,99,33.71,95V75.42c0-4-.25-4-3.26-4.27l-0.31,0v-2h11v2l-0.31,0c-2.74.26-3,.29-3,4.27v7.52H50.64V75.42c0-3.93-.23-4-3.11-4.27l-0.31,0v-2H58.28v2l-0.31,0c-3,.32-3.27.34-3.27,4.27V95c0,4,.24,4,3.22,4.27l0.31,0v2Zm-10.65-.69h10V100C54.36,99.65,54,99.09,54,95V75.42c0-4,.34-4.56,3.58-4.92V69.79H47.91V70.5c3.09,0.37,3.42.93,3.42,4.92v8.21H37.09V75.42c0-4,.35-4.61,3.34-4.93v-0.7h-9.6v0.7c3.23,0.32,3.58.88,3.58,4.93V95c0,4-.33,4.61-3.5,4.93v0.7h9.76V100c-3.2-.32-3.58-0.92-3.58-4.93V85H51.33V95c0,4.06-.36,4.61-3.74,4.93v0.7Z" transform="translate(-0.15)"/><path class="cls-1" d="M85,70.81c-2.74.39-3.22,0.87-4.73,3.84-1.79,3.55-3.14,6.36-5,10.64a6.12,6.12,0,0,0-.68,3.06v6.61c0,4.08.32,4.42,4,4.71V101H67.4V99.66c3.54-.29,3.85-0.58,3.85-4.71V88.49a6,6,0,0,0-.83-2.91c-1.39-3-2.86-6.17-5-10.64-1.59-3.35-2-3.89-4.41-4.13V69.45h9.5v1.36c-2.86.44-2.74,1-2,2.62,1.71,3.88,3.66,7.87,5.36,11.51,1.47-3.21,3.62-8,4.73-10.93,0.91-2.43.79-2.82-2.3-3.21V69.45H85v1.36Z" transform="translate(-0.15)"/><path class="cls-1" d="M78.95,101.36H67.05v-2l0.32,0c3.27-.27,3.54-0.29,3.54-4.37V88.49a5.66,5.66,0,0,0-.8-2.77l-1.21-2.58c-1.06-2.28-2.26-4.84-3.8-8s-2-3.71-4.13-3.94l-0.31,0v-2H70.84v2l-0.29,0c-0.81.12-1.9,0.33-2.12,0.72a2.13,2.13,0,0,0,.35,1.42c1.22,2.77,2.56,5.59,3.85,8.31l1.19,2.52c2.12-4.64,3.6-8.08,4.41-10.23,0.41-1.08.59-1.72,0.4-2s-1.09-.54-2.43-0.71l-0.3,0v-2h9.47v2l-0.3,0c-2.64.37-3,.81-4.47,3.65-1.7,3.37-3.06,6.18-5,10.62A5.8,5.8,0,0,0,75,88.34v6.61c0,3.89.17,4.09,3.66,4.37l0.32,0v2Zm-11.21-.69H78.26V100c-3.56-.31-4-0.92-4-5V88.34a6.41,6.41,0,0,1,.7-3.2c1.94-4.45,3.31-7.28,5-10.65,1.47-2.88,2-3.56,4.69-4V69.79H76.6V70.5c1.46,0.2,2.28.42,2.63,1s0.1,1.44-.35,2.63c-0.85,2.27-2.45,6-4.74,11l-0.31.68-0.32-.67L72,81.9c-1.3-2.73-2.64-5.55-3.86-8.33a2.36,2.36,0,0,1-.33-2c0.27-.5.93-0.79,2.33-1V69.79H61.34V70.5c2.29,0.29,2.84,1.05,4.38,4.29s2.73,5.76,3.8,8l1.21,2.59a6.3,6.3,0,0,1,.87,3.06v6.46c0,4.15-.37,4.71-3.85,5v0.7Z" transform="translate(-0.15)"/><path class="cls-1" d="M100.54,76.78c-0.68-3.06-1.75-6.41-5.21-6.41-3.06,0-4.41,2.67-4.41,5.29,0,3.55,1.91,5.25,5,7.19s6.87,4.23,6.87,9.71c0,5.1-3.54,9.18-8.82,9.18a11.35,11.35,0,0,1-3.89-.73,11.23,11.23,0,0,1-2-1c-0.28-1-.79-5.2-1.07-7.53l1.19-.34c0.6,3,2.38,7.87,6.52,7.87,3,0,4.77-2.28,4.77-5.83s-2.19-5.29-5.17-7.24c-2.54-1.7-6.56-4.08-6.56-9.57,0-4.66,3.06-8.65,8.19-8.65a13.85,13.85,0,0,1,5,1.12c0.16,1.7.36,3.64,0.68,6.7Z" transform="translate(-0.15)"/><path class="cls-1" d="M94,102.09a11.64,11.64,0,0,1-4-.75,11.27,11.27,0,0,1-1.95-1l-0.22-.14,0-.13c-0.21-.77-0.57-3.32-1.08-7.58l0-.29,1.83-.52,0.07,0.37c0.36,1.78,1.86,7.59,6.18,7.59,2.77,0,4.42-2,4.42-5.48s-2.08-5-5-6.95L93.81,87c-2.52-1.67-6.33-4.2-6.33-9.6,0-5.21,3.59-9,8.53-9a14.27,14.27,0,0,1,5.13,1.14l0.2,0.08,0,0.21c0.16,1.7.36,3.64,0.68,6.7l0,0.31-1.79.38-0.07-.33c-0.81-3.69-2-6.14-4.87-6.14s-4.07,2.49-4.07,4.95c0,3.27,1.64,4.89,4.88,6.9l0.22,0.14c3,1.92,6.81,4.32,6.81,9.87S99.33,102.09,94,102.09Zm-5.58-2.31a10.38,10.38,0,0,0,1.81.92,11,11,0,0,0,3.77.71c4.91,0,8.48-3.72,8.48-8.83S99,85.21,96,83.28l-0.22-.14c-3.38-2.09-5.21-3.9-5.21-7.48C90.58,72.86,92,70,95.33,70c3.46,0,4.7,3,5.47,6.35l0.52-.11c-0.29-2.76-.47-4.59-0.62-6.18a13.31,13.31,0,0,0-4.68-1c-4.62,0-7.84,3.41-7.84,8.3s3.48,7.34,6,9l0.38,0.25c3,2,5.32,3.77,5.32,7.52s-2,6.17-5.11,6.17c-4.57,0-6.27-5.55-6.78-7.78l-0.55.16C88,97.38,88.29,99.15,88.44,99.78Z" transform="translate(-0.15)"/><path class="cls-1" d="M106.3,101V99.66c3.26-.29,3.58-0.58,3.58-4.71V75.52c0-4.13-.32-4.42-3.58-4.71V69.45h10.53v1.36c-3.26.29-3.58,0.58-3.58,4.71V94.95c0,4.18.32,4.42,3.58,4.71V101H106.3Z" transform="translate(-0.15)"/><path class="cls-1" d="M117.17,101.36H106v-2l0.31,0c3-.27,3.26-0.39,3.26-4.37V75.52c0-4-.23-4.1-3.26-4.37l-0.31,0v-2h11.22v2l-0.31,0c-3,.27-3.26.39-3.26,4.37V94.95c0,4.08.25,4.1,3.26,4.37l0.31,0v2Zm-10.53-.69h9.84V100c-3.23-.32-3.58-0.89-3.58-5V75.52c0-4.09.38-4.71,3.58-5v-0.7h-9.84v0.7c3.2,0.32,3.58.93,3.58,5V94.95c0,4.09-.38,4.71-3.58,5v0.7Z" transform="translate(-0.15)"/><path class="cls-1" d="M144.4,93a63.32,63.32,0,0,1-2.26,7.48,30.62,30.62,0,0,1-7.31,1.26c-9.89,0-14.23-8.35-14.23-16.08,0-10.25,6.44-17,15.3-17a26.2,26.2,0,0,1,7,1.31c0.32,2.72.56,4.71,0.79,7.29l-1.15.39c-1.07-5.15-3.46-7.24-7.75-7.24-6.64,0-10.17,6.85-10.17,14.23,0,9.08,4.37,15.3,10.41,15.3,4.05,0,6.2-2.67,8.19-7.48Z" transform="translate(-0.15)"/><path class="cls-1" d="M134.83,102.09c-10,0-14.57-8.51-14.57-16.42,0-10.18,6.43-17.29,15.64-17.29A21.68,21.68,0,0,1,142,69.42c0.4,0.12.73,0.21,1,.27l0.24,0.05,0.1,0.87c0.28,2.4.5,4.29,0.72,6.67l0,0.27-1.78.6-0.08-.38c-1-4.88-3.23-7-7.41-7-6.75,0-9.83,7.2-9.83,13.89,0,8.8,4.14,15,10.07,15,4,0,6.06-2.91,7.87-7.27l0.13-.32,1.74,0.74-0.07.29a64.76,64.76,0,0,1-2.28,7.53l-0.07.15-0.51.14A29.08,29.08,0,0,1,134.83,102.09Zm1.07-33c-8.8,0-15,6.83-15,16.61,0,10.87,7,15.73,13.88,15.73a28.9,28.9,0,0,0,6.87-1.16l0.19-.05a65,65,0,0,0,2.11-7L143.44,93c-1.88,4.44-4.05,7.37-8.37,7.37-6.33,0-10.76-6.43-10.76-15.64,0-7,3.29-14.58,10.52-14.58,4.4,0,6.88,2.2,8,7.13l0.53-.18c-0.21-2.24-.43-4.08-0.7-6.38l0-.39-0.78-.22A20.75,20.75,0,0,0,135.9,69.06Z" transform="translate(-0.15)"/><path class="cls-1" d="M147.78,101V99.66c3.26-.29,3.58-0.58,3.58-4.71V75.52c0-4.13-.32-4.42-3.58-4.71V69.45h10.53v1.36c-3.26.29-3.58,0.58-3.58,4.71V94.95c0,4.18.32,4.42,3.58,4.71V101H147.78Z" transform="translate(-0.15)"/><path class="cls-1" d="M158.66,101.36H147.44v-2l0.31,0c3-.27,3.26-0.39,3.26-4.37V75.52c0-4-.23-4.1-3.26-4.37l-0.31,0v-2h11.22v2l-0.31,0c-3,.27-3.26.39-3.26,4.37V94.95c0,4.08.25,4.1,3.26,4.37l0.31,0v2Zm-10.53-.69H158V100c-3.23-.32-3.58-0.89-3.58-5V75.52c0-4.09.38-4.71,3.58-5v-0.7h-9.84v0.7c3.2,0.32,3.58.93,3.58,5V94.95c0,4.09-.38,4.71-3.58,5v0.7Z" transform="translate(-0.15)"/><path class="cls-1" d="M176.35,101V99.66c2.5-.39,2.86-0.78,2.34-2.67s-1.31-4.52-2.19-7.48H168c-0.64,2.19-1.23,4.23-1.75,6.27-0.83,3.06-.52,3.55,2.5,3.89V101h-8.66V99.66c2.54-.44,3.1-0.73,4.45-5.05l8.23-25.45,1.23-.44c2.46,8.31,5.13,17.58,7.67,26,1.23,4.18,1.79,4.61,4.37,4.91V101h-9.74Zm-3.89-26h-0.08c-1.27,4.13-2.5,8.4-3.74,12.39H176Z" transform="translate(-0.15)"/><path class="cls-1" d="M186.43,101.36H176v-2l0.29,0a3.57,3.57,0,0,0,2.15-.73,2,2,0,0,0-.09-1.51c-0.38-1.4-.91-3.19-1.53-5.26l-0.58-2h-7.95c-0.61,2.08-1.18,4-1.67,6-0.37,1.34-.53,2.26-0.23,2.71s1.15,0.61,2.44.75l0.31,0v2h-9.35v-2l0.29,0c2.34-.4,2.83-0.49,4.18-4.81l8.28-25.62,1.74-.61,0.1,0.35c1,3.42,2.06,7,3.12,10.63,1.5,5.13,3.05,10.43,4.55,15.41,1.2,4.05,1.67,4.39,4.08,4.66l0.31,0v2Zm-9.74-.69h9V100c-2.57-.34-3.18-1.11-4.36-5.11-1.5-5-3-10.28-4.55-15.41-1-3.5-2-7-3-10.28l-0.73.26-8.17,25.29c-1.32,4.22-1.92,4.78-4.43,5.23v0.73h8V100c-1.37-.17-2.21-0.4-2.62-1s-0.3-1.67.13-3.27c0.5-2,1.08-4,1.69-6l0.14-.47h9l0.73,2.46c0.62,2.07,1.15,3.86,1.53,5.27A2.54,2.54,0,0,1,179,99c-0.35.54-1.1,0.78-2.33,1v0.72Zm-0.29-12.91h-8.23l0.14-.45c0.63-2,1.26-4.15,1.89-6.28s1.22-4.09,1.84-6.11l0.07-.24h0.52l0.15,0.25Zm-7.3-.69h6.39l-3.09-11c-0.52,1.7-1,3.41-1.54,5.12C170.28,83.21,169.69,85.17,169.11,87.07Z" transform="translate(-0.15)"/><path class="cls-1" d="M216.37,70.81c-2.23.15-3.18,0.78-3.34,2.87-0.16,1.51-.24,3.69-0.24,8.21v19.57h-1.23L194.63,76h-0.08V88.19c0,4.47.12,6.8,0.24,8.21,0.2,2.48,1.11,3.06,3.81,3.25V101h-9.42V99.66c2.26-.15,3.3-0.78,3.5-3.16,0.12-1.51.24-3.89,0.24-8.31V77.51c0-3.55-.08-3.79-0.79-4.91s-1.67-1.6-3.54-1.8V69.45h5.84L211,93.83h0.12V81.88a74.15,74.15,0,0,0-.28-8.06c-0.2-2.23-1.11-2.87-3.89-3V69.45h9.38v1.36Z" transform="translate(-0.15)"/><path class="cls-1" d="M213.13,101.8h-1.76l-0.1-.15L194.9,77V88.19c0,3.62.08,6.29,0.24,8.18,0.18,2.2.83,2.75,3.5,2.94l0.32,0v2H188.84v-2l0.32,0c2.29-.15,3-0.79,3.18-2.84s0.24-4.72.24-8.28V77.51c0-3.56-.08-3.69-0.74-4.72s-1.46-1.45-3.28-1.64l-0.31,0v-2h6.37l16.2,23.78v-11a76,76,0,0,0-.28-8c-0.18-2-.91-2.57-3.57-2.71l-0.33,0v-2h10.07v2l-0.32,0c-2.17.14-2.88,0.74-3,2.55-0.17,1.61-.24,4-0.24,8.18V101.8Zm-1.39-.69h0.7V81.88c0-4.23.07-6.62,0.24-8.24,0.18-2.33,1.4-3,3.34-3.15v-0.7h-8.69v0.69c2.4,0.17,3.67.78,3.89,3.31a76.68,76.68,0,0,1,.28,8.09V94.17h-0.65L194.25,69.79h-5.31V70.5a4.16,4.16,0,0,1,3.48,1.91c0.79,1.24.86,1.62,0.86,5.1V88.19c0,3.62-.08,6.27-0.24,8.33-0.22,2.58-1.44,3.26-3.5,3.45v0.7h8.73V100c-2.46-.22-3.6-0.84-3.81-3.54-0.16-1.9-.24-4.6-0.24-8.24V75.66h0.53l0.18,0.15Z" transform="translate(-0.15)"/><path class="cls-1" d="M233.41,76.78c-0.68-3.06-1.75-6.41-5.21-6.41-3.06,0-4.41,2.67-4.41,5.29,0,3.55,1.91,5.25,5,7.19s6.87,4.23,6.87,9.71c0,5.1-3.54,9.18-8.82,9.18A11.35,11.35,0,0,1,223,101a11.23,11.23,0,0,1-2-1c-0.28-1-.79-5.2-1.07-7.53l1.19-.34c0.6,3,2.38,7.87,6.52,7.87,3,0,4.77-2.28,4.77-5.83s-2.19-5.29-5.17-7.24c-2.54-1.7-6.56-4.08-6.56-9.57,0-4.66,3.06-8.65,8.19-8.65a13.85,13.85,0,0,1,5,1.12c0.16,1.7.36,3.64,0.68,6.7Z" transform="translate(-0.15)"/><path class="cls-1" d="M226.9,102.09a11.63,11.63,0,0,1-4-.75,11.26,11.26,0,0,1-1.95-1l-0.22-.14,0-.13c-0.21-.77-0.57-3.32-1.08-7.58l0-.29,1.83-.52,0.07,0.37c0.36,1.78,1.86,7.59,6.18,7.59,2.77,0,4.42-2,4.42-5.48s-2.08-5-5-6.95L226.68,87c-2.52-1.67-6.33-4.2-6.33-9.6,0-5.21,3.59-9,8.53-9A14.25,14.25,0,0,1,234,69.51l0.2,0.08,0,0.21c0.16,1.7.36,3.64,0.67,6.7l0,0.31-1.79.38-0.07-.33c-0.81-3.69-2-6.14-4.87-6.14s-4.07,2.49-4.07,4.95c0,3.27,1.64,4.89,4.88,6.9l0.22,0.14c3,1.92,6.81,4.32,6.81,9.87S232.21,102.09,226.9,102.09Zm-5.58-2.31a10.43,10.43,0,0,0,1.81.92,11,11,0,0,0,3.77.71c4.91,0,8.48-3.72,8.48-8.83s-3.45-7.36-6.49-9.28l-0.22-.14c-3.37-2.09-5.21-3.9-5.21-7.48,0-2.81,1.47-5.64,4.75-5.64,3.46,0,4.7,3,5.47,6.35l0.52-.11c-0.29-2.76-.47-4.59-0.62-6.18a13.3,13.3,0,0,0-4.68-1c-4.62,0-7.84,3.41-7.84,8.3s3.48,7.34,6,9l0.38,0.25c3,2,5.32,3.77,5.32,7.52s-2,6.17-5.11,6.17c-4.57,0-6.28-5.55-6.78-7.78l-0.55.16C220.88,97.38,221.17,99.15,221.32,99.78Z" transform="translate(-0.15)"/><path class="cls-1" d="M276.29,108H0.15v-2H274.29v-3.78a5.49,5.49,0,0,1,2.81-4.8A7.6,7.6,0,1,1,288.95,88V83.65a8.6,8.6,0,0,1,6.5-8.33,12.08,12.08,0,1,1,13.77,0,8.6,8.6,0,0,1,6.5,8.2A7.73,7.73,0,0,1,318.39,82a10.73,10.73,0,1,1,13.15,0,7.69,7.69,0,0,1,5.11,5.6,7.6,7.6,0,1,1,11.55,9.86,5.49,5.49,0,0,1,2.81,4.8V107h-2v-4.78a3.5,3.5,0,0,0-2.93-3.46l-2.52-.42,2.14-1.4a5.6,5.6,0,1,0-6.12,0l2.14,1.4-2.52.43a3.51,3.51,0,0,0-2.48,1.75l-1.87,3.33V89.28a5.66,5.66,0,0,0-5.65-5.66h-0.76l-0.36-1.94a8.72,8.72,0,1,0-6.19,0l-0.36,1.94h-0.76a5.68,5.68,0,0,0-5.12,3.27l-1.91-.42V83.65a6.59,6.59,0,0,0-6.58-6.58h-1.81l-0.27-2a10.08,10.08,0,1,0-5.45,0l-0.27,2h-1.81a6.59,6.59,0,0,0-6.58,6.58v17.69l-2,.2a3.53,3.53,0,0,0-2.85-2.75l-2.52-.42,2.14-1.4a5.6,5.6,0,1,0-6.12,0l2.14,1.4-2.52.42a3.5,3.5,0,0,0-2.93,3.46V108Zm11.94-10.57a5.62,5.62,0,0,1,.71.48V96.58A7.57,7.57,0,0,1,288.24,97.46Zm48.59-.25v0.38l0.22-.13Z" transform="translate(-0.15)"/></svg>