<svg id="Layer_1" data-name="Layer 1" xmlns="http://www.w3.org/2000/svg" viewBox="0 0 350.39 142.17"><defs><style>.cls-1{fill:#005a9c;}</style></defs><title>familycare-specialists</title><path class="cls-1" d="M104.44,35.94l0.15-.16c2.48,0.11,4.86.27,7.25,0.27,8,0,14.29-.16,17.52-0.27l0.3,0.27c-0.25,2.85-.45,5.76-0.6,8.45l-0.15.16h-1.44l-0.15-.16c0-1.1,0-4.55-.45-5s-4.67-.88-7.25-0.88c-2,0-3.82.16-4.81,0.22-0.25,4.83-.25,9.55-0.25,14.26,1.89,0.05,3.92.11,5.21,0.11,2.13,0,3.82-.17,4.12-0.77a11.24,11.24,0,0,0,.65-3.79l0.15-.16H126l0.15,0.16c0,2.14-.1,4.33-0.1,6.53,0,1.48.1,3.68,0.1,5.6L126,61h-1.29l-0.15-.16a17.14,17.14,0,0,0-.7-4c-0.25-.71-1.89-1-4.91-1-1.69,0-3,.05-4.37.11,0,14.48.15,15,.7,15.52s1.93,0.71,3.82.71l0.15,0.16V74l-0.15.16c-2.48-.11-4.86-0.27-7.24-0.27s-4.76.16-7.25,0.27L104.44,74V72.36l0.15-.16c1.89,0,3.37-.27,3.82-0.71s0.7-1,.7-13.77V52.18c0-12.73-.15-13.22-0.7-13.77s-1.93-.71-3.82-0.71l-0.15-.16V35.94Z" transform="translate(0)"/><path class="cls-1" d="M132.28,52c4.76-3.4,6-4,8.14-4,4.42,0,8.73,2,8.73,7.9,0,3.68,0,6.36,0,8.45,0,5,0,6.64.15,7,0.3,0.71,1,.82,2.73.82l0.15,0.16V74l-0.15.16a28.76,28.76,0,0,0-3.87-.27,29.84,29.84,0,0,0-3.82.27l-0.3-.27c0.05-1.48.2-2.91,0.2-4.22-1.59,1.21-4.56,4-5,4.33a4.82,4.82,0,0,1-3.23.88c-4,0-6-2.74-6-6.69,0-5.1,1.34-6.36,14.24-9.38,0-2.63-.55-6.8-5.61-6.8a7.83,7.83,0,0,0-3.92,1,14.37,14.37,0,0,0-1.09,2.85l-0.25.11-1.09-.39-0.15-.22Zm11.91,8.72c-8.43,2.08-9.08,3.57-9.08,6.09,0,2.74,1.49,4.11,3.52,4.11,1.74,0,3.32-1.21,5.56-3.73V60.68Z" transform="translate(0)"/><path class="cls-1" d="M166.91,48.66a8,8,0,0,1,3.57-.66,6.74,6.74,0,0,1,6.85,5.43l4.86-5a9.63,9.63,0,0,1,2.93-.38c5.56,0,7.79,3.84,7.79,8.78,0,3.13-.15,8.06-0.15,13.27,0,2,.4,2.14,3.08,2.14l0.25,0.27v1.37l-0.25.27c-1.34-.11-2.63-0.27-4-0.27s-2.63.16-4,.27l-0.55-.49a103.23,103.23,0,0,0,.45-12.07c0-5.43-.05-9.27-4.86-9.27-2.33,0-5.26,2-5.26,4.11v8.39c0,4.5,0,6.36.4,6.86,0.25,0.33,1.34.55,3.22,0.55l0.15,0.16V74l-0.15.16c-1.88-.11-3.92-0.27-6.25-0.27-2,0-4.07.16-6,.27L168.95,74V72.36l0.15-.16c1.89,0,3-.22,3.23-0.55,0.4-.49.4-2.36,0.4-6.86V57.66c0-3.29-1.44-5.37-4.42-5.37-2.63,0-5.71,1.81-5.71,4.11v8.39c0,4.5,0,6.36.4,6.86,0.25,0.33,1.34.55,3.23,0.55l0.15,0.16V74l-0.15.16c-1.89-.11-3.92-0.27-6.25-0.27-2,0-4.07.16-6,.27L153.86,74V72.36L154,72.2c1.88,0,3-.22,3.22-0.55,0.4-.49.4-2.36,0.4-6.86V58.32c0-4.77,0-5.65-.5-5.92a15,15,0,0,0-3.13-.22L153.86,52V50.42l0.15-.16A25.47,25.47,0,0,0,162.15,48l0.5,0.38c-0.1,1.26-.2,2.8-0.2,4.66Z" transform="translate(0)"/><path class="cls-1" d="M197.32,50.42l0.15-.16A25.48,25.48,0,0,0,205.61,48l0.69,0.49c-0.2,2-.25,5.38-0.25,7.46v8.83c0,4.5,0,6.36.4,6.86,0.25,0.33,1.34.55,3.22,0.55l0.15,0.16V74l-0.15.16c-1.89-.11-3.92-0.27-6.25-0.27-2,0-4.07.16-6,.27L197.32,74V72.36l0.15-.16c1.89,0,3-.22,3.22-0.55,0.4-.49.4-2.36,0.4-6.86V58.32c0-4.77,0-5.65-.5-5.92a15,15,0,0,0-3.13-.22L197.32,52V50.42Zm6.05-14.7a3.53,3.53,0,1,1-3.18,3.51A3.38,3.38,0,0,1,203.38,35.72Z" transform="translate(0)"/><path class="cls-1" d="M210.77,36.21l0.15-.16a25.48,25.48,0,0,0,8.14-2.25l0.69,0.49c-0.2,2-.25,5.38-0.25,7.46v23c0,4.5,0,6.36.4,6.86,0.25,0.33,1.34.55,3.22,0.55l0.15,0.16V74l-0.15.16c-1.89-.11-3.92-0.27-6.25-0.27-2,0-4.07.16-6,.27L210.77,74V72.36l0.15-.16c1.89,0,3-.22,3.22-0.55,0.4-.49.4-2.36,0.4-6.86V44.11c0-4.77,0-5.65-.5-5.92a15,15,0,0,0-3.13-.22l-0.15-.16V36.21Z" transform="translate(0)"/><path class="cls-1" d="M239.6,48.88l0.15-.16c1.39,0.11,2.88.27,4.42,0.27s3.13-.16,4.57-0.27l0.15,0.16v1.59l-0.15.16c-1.19,0-2.08.33-2.88,2.14-1.89,4.28-6.4,15.25-9.63,23.81-4,10.59-5.71,12.62-9.13,12.62a8.67,8.67,0,0,1-3.32-.71,35.6,35.6,0,0,0,1-4.28l0.7-.33c1,1.26,1.59,1.59,2.53,1.59,2.28,0,4-2.69,6.5-10.26L225.36,52c-0.3-.82-0.7-1.15-2.63-1.37l-0.15-.16V48.88l0.15-.16c1.84,0.11,3.82.27,5.81,0.27s3.77-.16,5.51-0.27l0.15,0.16v1.59l-0.15.16c-2.13.27-3,.39-3,1.48,0,0.49.25,1.15,6.05,16.24,5.46-14.48,5.81-15.69,5.81-16.56s-0.64-1.15-3.18-1.15l-0.15-.16V48.88Z" transform="translate(0)"/><path class="cls-1" d="M281.82,69c-0.4,1-.74,2.08-1.09,3.13a24,24,0,0,1-11.46,2.74c-9.78,0-19.15-6.58-19.15-19.53,0-12.29,7.49-20.24,19.9-20.24a39.14,39.14,0,0,1,11.51,2l0.3,0.39a32.19,32.19,0,0,0-.94,7.73l-0.15.16h-1.59L279,45.21a38.3,38.3,0,0,0-.3-4.11c-1.19-1.59-4.91-3.4-9.33-3.4-9.28,0-13.4,8.12-13.4,15.69,0,10,5.21,18.16,15.88,18.16a16.22,16.22,0,0,0,9.38-3Z" transform="translate(0)"/><path class="cls-1" d="M287.77,52c4.76-3.4,6-4,8.14-4,4.42,0,8.73,2,8.73,7.9,0,3.68,0,6.36,0,8.45,0,5,0,6.64.15,7,0.3,0.71,1,.82,2.73.82l0.15,0.16V74l-0.15.16a28.76,28.76,0,0,0-3.87-.27,29.84,29.84,0,0,0-3.82.27l-0.3-.27c0.05-1.48.2-2.91,0.2-4.22-1.59,1.21-4.56,4-5,4.33a4.82,4.82,0,0,1-3.23.88c-4,0-6-2.74-6-6.69,0-5.1,1.34-6.36,14.24-9.38,0-2.63-.55-6.8-5.61-6.8a7.83,7.83,0,0,0-3.92,1,14.37,14.37,0,0,0-1.09,2.85l-0.25.11-1.09-.39-0.15-.22Zm11.91,8.72c-8.43,2.08-9.08,3.57-9.08,6.09,0,2.74,1.49,4.11,3.52,4.11,1.74,0,3.32-1.21,5.56-3.73V60.68Z" transform="translate(0)"/><path class="cls-1" d="M309.05,50.42l0.15-.16A23.46,23.46,0,0,0,317.49,48l0.7,0.49c-0.15,1.65-.3,4.17-0.3,5.48a24.17,24.17,0,0,0,1.84-2.25c1.74-2.3,3.18-3.73,5.61-3.73a6.14,6.14,0,0,1,2.18.38l0.25,0.33a45.07,45.07,0,0,0-.55,6.91h-0.89c-0.59-1.54-1.24-2.25-3.47-2.25-2.68,0-4.76,1.86-4.76,5.32v6.09c0,4.5,0,6.36.4,6.86,0.25,0.33,1.64.55,4.12,0.55l0.15,0.16V74l-0.15.16c-2.18-.11-4.51-0.27-7.14-0.27-2,0-4.07.16-6.25,0.27L309.05,74V72.36l0.15-.16c2.18,0,3.28-.22,3.52-0.55,0.4-.49.4-2.36,0.4-6.86V58.32c0-4.77,0-5.65-.5-5.92a16.52,16.52,0,0,0-3.42-.22L309.05,52V50.42Z" transform="translate(0)"/><path class="cls-1" d="M349.94,69.62c-0.4.88-.79,1.81-1.09,2.69a14.82,14.82,0,0,1-8.29,2.52c-7,0-11.36-5.16-11.36-12.78,0-5.32,1.14-8.5,3.23-10.09,3.47-2.63,6-4,8.39-4,9.58,0,9.58,8.34,9.58,11.85l-0.15.27a23.86,23.86,0,0,1-8.19,1h-7.39c0.25,5.87,2.73,10.42,8.68,10.42,1.44,0,3.42-.55,6-2.41ZM334.51,58.81C337.09,59,339,59,340.86,59a29.38,29.38,0,0,0,4.37-.22c0-4.55-1-8.72-5.26-8.72C335.2,50.09,334.51,56.34,334.51,58.81Z" transform="translate(0)"/><path class="cls-1" d="M107.87,117.6l0.15,0.16a22.51,22.51,0,0,0,.15,3.68c0.1,0.82,2.43,4,8,4s8.93-3.18,8.93-8.39c0-11-19.5-1.32-19.5-16.29,0-7.51,4.91-12.23,13.25-12.23,2.78,0,6.95.77,9.38,2.25l0.15,0.38a41.17,41.17,0,0,0-.84,7.41l-0.15.16-1.59-.16-0.15-.16c0-3.29,0-3.9-.3-4.28a9.26,9.26,0,0,0-7-2.74c-5.36,0-7.79,3.35-7.79,7.24,0,4.94,2.38,5.81,10.52,7.19,5.76,0.93,9,3.24,9,8.94,0,6-4.22,13.55-15.09,13.55a19.67,19.67,0,0,1-9.23-2.3l-0.15-.33a60.07,60.07,0,0,0,.55-7.84l0.15-.16h1.59Z" transform="translate(0)"/><path class="cls-1" d="M132.67,103.83l0.15-.16a25.47,25.47,0,0,0,8.14-2.25l0.55,0.49a42.38,42.38,0,0,0-.25,5l3.72-3.79c1.24-1.26,3.47-1.76,5.31-1.76,4.22,0,8.73,3.4,8.73,11.35,0,4.28-1.84,8.39-3.57,9.93-0.74.66-2.13,1.54-3.18,2.36s-2.08,1.76-2.93,2.36a7.07,7.07,0,0,1-3.47.82c-1.59,0-3.57-.44-4.47-1.48v6.09c0,4.5,0,6.36.4,6.86,0.25,0.33,1.34.55,3.23,0.55l0.15,0.16V142l-0.15.16c-1.89-.11-3.92-0.27-6.25-0.27-2,0-4.07.16-6.25,0.27l-0.15-.16v-1.59l0.15-.16c2.18,0,3.28-.22,3.52-0.55,0.4-.49.4-2.36,0.4-6.86V111.73c0-4.77,0-5.65-.5-5.92a15,15,0,0,0-3.13-.22l-0.15-.16v-1.59Zm14.89,1.87c-3.18,0-5.86,2.8-6.15,4.22-0.1.44-.2,4.39-0.2,8.56,0,3,.15,3.35.79,4.17a6.1,6.1,0,0,0,5.36,2.52c3.57,0,6.7-3.46,6.7-10.7C154.06,109.7,152.27,105.7,147.56,105.7Z" transform="translate(0)"/><path class="cls-1" d="M183.38,123c-0.4.88-.79,1.81-1.09,2.69a14.82,14.82,0,0,1-8.29,2.52c-7,0-11.36-5.16-11.36-12.78,0-5.32,1.14-8.5,3.22-10.09,3.47-2.63,6-4,8.39-4,9.58,0,9.58,8.34,9.58,11.85l-0.15.27a23.86,23.86,0,0,1-8.19,1H168.1c0.25,5.87,2.73,10.42,8.68,10.42,1.44,0,3.42-.55,6-2.41ZM168,112.22c2.58,0.16,4.47.22,6.35,0.22a29.4,29.4,0,0,0,4.37-.22c0-4.55-1-8.72-5.26-8.72C168.65,103.5,168,109.76,168,112.22Z" transform="translate(0)"/><path class="cls-1" d="M206.26,123.58c-0.35.93-.7,1.86-0.94,2.74a13.92,13.92,0,0,1-7.49,1.92c-6.05,0-11-4.17-11-12.4,0-5.81,1.84-8.83,4.56-10.59,5.61-3.62,6.05-3.84,8.68-3.84,2.33,0,5.31.71,5.81,1.32l0.15,0.33a58.08,58.08,0,0,0-.89,7.24l-0.25.16h-1.09l-0.25-.16a18.23,18.23,0,0,0-.45-3.24c-0.4-.77-3.13-2.36-5.26-2.36-3.57,0-5.86,2.42-5.86,7.24,0,8.12,3.18,13,8.49,13a9.85,9.85,0,0,0,5.36-1.76Z" transform="translate(0)"/><path class="cls-1" d="M207.69,103.83l0.15-.16a25.48,25.48,0,0,0,8.14-2.25l0.69,0.49c-0.2,2-.25,5.38-0.25,7.46v8.83c0,4.5,0,6.36.4,6.86,0.25,0.33,1.34.55,3.22,0.55l0.15,0.16v1.59l-0.15.16c-1.89-.11-3.92-0.27-6.25-0.27-2,0-4.07.16-6,.27l-0.15-.16v-1.59l0.15-.16c1.89,0,3-.22,3.22-0.55,0.4-.49.4-2.36,0.4-6.86v-6.47c0-4.77,0-5.65-.5-5.92a15,15,0,0,0-3.13-.22l-0.15-.16v-1.59Zm6.05-14.7a3.53,3.53,0,1,1-3.18,3.51A3.38,3.38,0,0,1,213.75,89.13Z" transform="translate(0)"/><path class="cls-1" d="M224.36,105.37c4.76-3.4,6-4,8.14-4,4.42,0,8.73,2,8.73,7.9,0,3.68,0,6.36,0,8.45,0,5,0,6.64.15,7,0.3,0.71,1,.82,2.73.82l0.15,0.16v1.59l-0.15.16a28.76,28.76,0,0,0-3.87-.27,29.84,29.84,0,0,0-3.82.27l-0.3-.27c0.05-1.48.2-2.91,0.2-4.22-1.59,1.21-4.56,4-5,4.33a4.82,4.82,0,0,1-3.23.88c-4,0-6-2.74-6-6.69,0-5.1,1.34-6.36,14.24-9.38,0-2.63-.55-6.8-5.61-6.8a7.83,7.83,0,0,0-3.92,1,14.37,14.37,0,0,0-1.09,2.85l-0.25.11-1.09-.39-0.15-.22Zm11.91,8.72c-8.43,2.08-9.08,3.57-9.08,6.09,0,2.74,1.49,4.11,3.52,4.11,1.74,0,3.32-1.21,5.56-3.73v-6.47Z" transform="translate(0)"/><path class="cls-1" d="M245.65,89.62l0.15-.16a25.48,25.48,0,0,0,8.14-2.25l0.69,0.49c-0.2,2-.25,5.38-0.25,7.46v23c0,4.5,0,6.36.4,6.86,0.25,0.33,1.34.55,3.22,0.55l0.15,0.16v1.59l-0.15.16c-1.89-.11-3.92-0.27-6.25-0.27-2,0-4.07.16-6,.27l-0.15-.16v-1.59l0.15-.16c1.89,0,3-.22,3.22-0.55,0.4-.49.4-2.36,0.4-6.86V97.52c0-4.77,0-5.65-.5-5.92a15,15,0,0,0-3.13-.22l-0.15-.16V89.62Z" transform="translate(0)"/><path class="cls-1" d="M259.09,103.83l0.15-.16a25.48,25.48,0,0,0,8.14-2.25l0.69,0.49c-0.2,2-.25,5.38-0.25,7.46v8.83c0,4.5,0,6.36.4,6.86,0.25,0.33,1.34.55,3.22,0.55l0.15,0.16v1.59l-0.15.16c-1.89-.11-3.92-0.27-6.25-0.27-2,0-4.07.16-6,.27l-0.15-.16v-1.59l0.15-.16c1.89,0,3-.22,3.22-0.55,0.4-.49.4-2.36,0.4-6.86v-6.47c0-4.77,0-5.65-.5-5.92a15,15,0,0,0-3.13-.22l-0.15-.16v-1.59Zm6.05-14.7A3.53,3.53,0,1,1,262,92.64,3.38,3.38,0,0,1,265.15,89.13Z" transform="translate(0)"/><path class="cls-1" d="M273.38,126.54a63.64,63.64,0,0,0,.5-7.08l0.15-.16h1.59l0.15,0.16c0,1.87,0,3.46.45,4.22a9.11,9.11,0,0,0,5.91,2.47,4.77,4.77,0,0,0,5.11-5.16c0-6.91-13.65-.88-13.65-11.41,0-4,2.93-8.17,9.13-8.17a22.93,22.93,0,0,1,6.95,1.26l0.4,0.66a31.32,31.32,0,0,0-.3,5.65l-0.15.16H288l-0.15-.16a10.73,10.73,0,0,0-.4-3.35c-0.3-.6-2.68-2.14-5.31-2.14a4,4,0,0,0-4.27,4.22c0,2.8,1.54,3.35,6.8,4.39,4.42,0.88,6.85,2.74,6.85,6.8,0,6-4.81,9.32-10.47,9.32a28.52,28.52,0,0,1-7.44-1.21Z" transform="translate(0)"/><path class="cls-1" d="M292.93,105.59l0.15-.22q1.71-.82,3.72-2c0-2.8,0-5.65-.15-8.45a19,19,0,0,0,5-2.63L302.31,93a68.14,68.14,0,0,0-.55,10.53,51.31,51.31,0,0,0,6.3-.22l0.25,0.27-0.4,2.91-0.2.17c-0.84,0-1.84-.06-2.88-0.06s-2.08.06-3.13,0.06c0,4.33-.05,8.06-0.05,12.95,0,3.68,1.24,4.72,3.42,4.72a5.09,5.09,0,0,0,2.83-.82l0.5,0.77a30.64,30.64,0,0,0-3,3.51,12,12,0,0,1-3.08.49c-3.67,0-5.86-1.87-5.86-6.86,0-5.87.3-10.92,0.3-14.87-0.64,0-2.23.16-3.72,0.27l-0.15-.16v-1Z" transform="translate(0)"/><path class="cls-1" d="M309.45,126.54a63.64,63.64,0,0,0,.5-7.08l0.15-.16h1.59l0.15,0.16c0,1.87,0,3.46.45,4.22a9.11,9.11,0,0,0,5.91,2.47,4.77,4.77,0,0,0,5.11-5.16c0-6.91-13.65-.88-13.65-11.41,0-4,2.93-8.17,9.13-8.17a22.93,22.93,0,0,1,6.95,1.26l0.4,0.66a31.42,31.42,0,0,0-.3,5.65l-0.15.16h-1.59l-0.15-.16a10.73,10.73,0,0,0-.4-3.35c-0.3-.6-2.68-2.14-5.31-2.14a4,4,0,0,0-4.27,4.22c0,2.8,1.54,3.35,6.8,4.39,4.42,0.88,6.85,2.74,6.85,6.8,0,6-4.81,9.32-10.47,9.32A28.52,28.52,0,0,1,309.7,127Z" transform="translate(0)"/><path class="cls-1" d="M330.59,126c0.75,0,1.11,0,1.11-.88v-7.89h-1.95c-0.57,0-.57.7-0.57,1.5h-0.54v-2.25h7.88v2.25H336c0-.8,0-1.5-0.57-1.5h-1.95v7.89c0,0.88.36,0.88,1.11,0.88v0.6h-4V126Zm15.12,0c0.75,0,1.11,0,1.11-.88V119.5h0l-3.28,7.11h-0.38l-3.26-7.36h0v5.89c0,0.88.29,0.88,1,.88v0.6H337.9V126c0.75,0,1,0,1-.88v-6.84c0-1.2-.59-1.2-1.38-1.2v-0.6h3l3.15,7.26,3.46-7.26h2.65v0.6c-0.88,0-1.24,0-1.24.88v7.16c0,0.88.36,0.88,1.11,0.88v0.6h-4V126Z" transform="translate(0)"/><path class="cls-1" d="M8.71,38.87h2.17v-28H23.06A25.41,25.41,0,0,1,25.74,6H6V39.19A11.92,11.92,0,0,1,8.71,38.87Z" transform="translate(0)"/><polygon class="cls-1" points="80.75 89.21 80.75 123.94 63.21 123.94 60.73 128.84 85.65 128.84 85.65 79.5 80.75 89.21"/><path class="cls-1" d="M70.11,10.88H80.74v28h3.71a11.93,11.93,0,0,1,1.2.07V6H67.42A25.41,25.41,0,0,1,70.11,10.88Z" transform="translate(0)"/><polygon class="cls-1" points="29.96 123.94 10.89 123.94 10.89 86.17 5.98 76.46 5.98 128.84 32.43 128.84 29.96 123.94"/><circle class="cls-1" cx="45.82" cy="20.53" r="20.53"/><path class="cls-1" d="M45.39,50.24h0a19.5,19.5,0,0,0,14.71-6.47H31.52A19,19,0,0,0,45.39,50.24Z" transform="translate(0)"/><path class="cls-1" d="M83.68,43.77H64.79a22.59,22.59,0,0,1-17.44,10V67.41c0,2.59,3,4.55,4.76,5.72l0.39,0.26c0.14,0.09.39,0.22,0.7,0.38C55.62,75,62,78.38,62.77,84.61c0.43,3.63-1.16,7.54-4.73,11.66a6.93,6.93,0,1,1-2.52-2.71c2.66-3.15,3.89-6,3.6-8.51-0.51-4.31-5.48-6.91-7.61-8-0.48-.25-0.84-0.44-1-0.57-2.46-1.62-6.79-4.47-6.79-9V53.73a22.68,22.68,0,0,1-16.82-10H7.95c-6.11,0-9.93,7.56-6.87,13.61L37.73,130a9.06,9.06,0,0,0,16.18,0L90.56,57.38C93.61,51.33,89.79,43.77,83.68,43.77Z" transform="translate(0)"/></svg>