<svg id="Layer_1" data-name="Layer 1" xmlns="http://www.w3.org/2000/svg" viewBox="0 0 360 201.94"><defs><style>.cls-1{fill:#005a9c;}.cls-2{fill:#a90533;}</style></defs><title>claiborne</title><path class="cls-1" d="M165.66,178.86c-5.32,4.31-12.35,5.77-19.13,5.77-12.42,0-23.95-7-23.95-21.54,0-13.05,11.53-21.54,23.95-21.54,5.83,0,13,1.52,18.18,4.82l-2,6a7.45,7.45,0,0,1-.89,2.15,3.7,3.7,0,0,1-.7-1.65c-1.33-5.51-5.26-9.93-14.64-10.12-11.53,0-16.74,10.94-16.74,20.38s5.71,20.38,19.27,20.38c6.21,0,10.9-3.78,13.69-10.18,0.32-.76.38-1.33,0.7-1.33s0.32,0.19.57,1.14Z"/><path class="cls-1" d="M212.19,176.92l6.7-13c0.94-2,1.78-4,1.78-5.5,0-1.78-1.15-2.41-2.41-2.83a0.49,0.49,0,0,1-.47-0.31c0-.16.21-0.21,0.52-0.21,1.36,0,1.83.21,4,.21s2.51-.21,3.88-0.21c0.37,0,.68,0,0.68.16a0.84,0.84,0,0,1-.47.63c-1.73,1.2-3.56,4-5.34,7.18l-10.21,19.54a1.51,1.51,0,0,1-.63.73h-0.1a1.58,1.58,0,0,1-.52-0.79l-9.17-17.86c-2-4-3.67-7.38-5.87-8.85a1.08,1.08,0,0,1-.63-0.52c0-.21.31-0.21,0.68-0.21,0.84,0,2.15.21,4.66,0.21S203.55,155,204,155a0.76,0.76,0,0,1,.68.21,0.64,0.64,0,0,1-.47.42,1.87,1.87,0,0,0-1.47,2,10.5,10.5,0,0,0,1.31,3.56Z"/><path class="cls-1" d="M229,165.19c-0.1,1.2-.16,2.3-0.16,3.4,0,9.74,5,13.36,10.11,13.36,6,0,10.48-4.14,12.26-10.27h1.1c-1.68,7.23-6.91,11.58-14,11.58-8.9,0-15.5-6-15.5-14.4s6.6-14.4,15.5-14.4c5.71,0,12.62,3.46,13.36,10.74H229Zm16-1c0-5.13-2.46-8.75-7.91-8.75-4.77,0-7.33,4.24-7.91,8.75H245Z"/><path class="cls-1" d="M259,162.57h0.1c1.2-4.45,3.77-8.12,10.68-8.12,5.76,0,11.16,3,11.16,11.31v10.11c-0.1,5,.58,5.71,2.1,6.23a1.07,1.07,0,0,1,.68.37c0,0.16-.26.16-0.79,0.16s-1.83-.16-4.71-0.16-4.71.16-5.39,0.16c-0.31,0-.58,0-0.58-0.16s0.1-.26.47-0.31c1.89-.21,2.83-1.62,2.83-6.29V165.71c0-4.82-2.15-10-7.7-10-6.23,0-8.28,6.39-8.28,13.72v6.39c0,3.3.16,5.76,2.51,6.18,0.37,0.05.58,0.16,0.58,0.31s-0.16.26-.47,0.26-2.51-.16-5.34-0.16-5.24.16-5.6,0.16-0.47-.05-0.47-0.26,0.21-.26.58-0.31c2.62-.42,2.83-2.88,2.83-6.18v-13c0-3.14-.37-4.92-1.83-5.55a2.32,2.32,0,0,1-.94-0.52,1.42,1.42,0,0,1,1-.26A45.79,45.79,0,0,0,259,155v7.54Z"/><path class="cls-1" d="M309.16,177.92c0,1.73.26,3.3,1.89,4a0.72,0.72,0,0,1,.52.31,0.65,0.65,0,0,1-.68.21h-5.66a15.63,15.63,0,0,1-1.26-5.34h-0.1c-2,4.24-5.08,6.13-9.69,6.13-5.45,0-11.05-2.51-11.05-8.75,0-8,12.15-8.75,17.65-8.75h3V164c0-5-2.36-8.59-7.65-8.59-4.82,0-7.65,1.41-9.53,6a2.69,2.69,0,0,1-.42.89,0.94,0.94,0,0,1-.26-0.58l-1.36-4.71c4.29-2.25,7.7-2.62,12.36-2.62,6,0,12.26,2.15,12.26,8.75v14.72Zm-5.39-11.16h-3.09c-5.66,0-11.47,1.68-11.47,8.59a6.36,6.36,0,0,0,6.49,6.6c6.18,0,8.07-6.49,8.07-11.52v-3.67Z"/><path class="cls-1" d="M319.16,162.57h0.1c1.2-4.45,3.77-8.12,10.68-8.12,5.76,0,11.16,3,11.16,11.31v10.11c-0.1,5,.58,5.71,2.09,6.23a1.07,1.07,0,0,1,.68.37c0,0.16-.26.16-0.79,0.16s-1.83-.16-4.71-0.16-4.71.16-5.39,0.16c-0.31,0-.58,0-0.58-0.16s0.1-.26.47-0.31c1.89-.21,2.83-1.62,2.83-6.29V165.71c0-4.82-2.15-10-7.7-10-6.23,0-8.28,6.39-8.28,13.72v6.39c0,3.3.16,5.76,2.51,6.18,0.37,0.05.58,0.16,0.58,0.31s-0.16.26-.47,0.26-2.51-.16-5.34-0.16-5.24.16-5.6,0.16-0.47-.05-0.47-0.26,0.21-.26.58-0.31c2.62-.42,2.83-2.88,2.83-6.18v-13c0-3.14-.37-4.92-1.83-5.55a2.32,2.32,0,0,1-.94-0.52,1.42,1.42,0,0,1,1-.26,45.78,45.78,0,0,0,6.6-1.52v7.54Z"/><path class="cls-1" d="M342.34,158.22a0.48,0.48,0,0,1-.52-0.47,1.45,1.45,0,0,1,1-.73c3-1,5.5-3.46,7.44-7.44a0.69,0.69,0,0,1,.58-0.52c0.26,0,.26.37,0.26,0.73v6.76H357l-0.37,1.68h-5.45V173.1c0,7,1.68,8.22,3.35,8.8a0.77,0.77,0,0,1,.63.37,0.87,0.87,0,0,1-.84.21h-6.34a3.72,3.72,0,0,1-2.2-3.82V158.22h-3.4Z"/><path class="cls-1" d="M260.37,192.84v-5.14c0-1-.28-1.88-1.09-2.08a0.62,0.62,0,0,1-.25-0.15c0-.08.15-0.1,0.38-0.1,0.41,0,1.63.1,2.44,0.1s2-.1,2.44-0.1c0.23,0,.38,0,0.38.1a0.62,0.62,0,0,1-.25.15c-0.81.2-1.09,1-1.09,2.08V199a2.34,2.34,0,0,0,1.37,2.54,0.31,0.31,0,0,1,.23.2c0,0.08-.15.08-0.41,0.08-0.92,0-1.22-.08-2.67-0.08s-1.75.08-2.67,0.08c-0.25,0-.41,0-0.41-0.08a0.31,0.31,0,0,1,.23-0.2,2.34,2.34,0,0,0,1.37-2.54v-5.52h-9.69V199a2.34,2.34,0,0,0,1.37,2.54,0.31,0.31,0,0,1,.23.2c0,0.08-.15.08-0.41,0.08-0.92,0-1.22-.08-2.67-0.08s-1.75.08-2.67,0.08c-0.25,0-.41,0-0.41-0.08a0.31,0.31,0,0,1,.23-0.2,2.34,2.34,0,0,0,1.37-2.54V187.71c0-1-.28-1.88-1.09-2.08a0.62,0.62,0,0,1-.25-0.15c0-.08.15-0.1,0.38-0.1,0.41,0,1.63.1,2.44,0.1s2-.1,2.44-0.1c0.23,0,.38,0,0.38.1a0.62,0.62,0,0,1-.25.15c-0.81.2-1.09,1-1.09,2.08v5.14h9.69Z"/><path class="cls-1" d="M271,192.84h4.7c1.86,0,3.48-.86,3.84-1.91a0.27,0.27,0,0,1,.2-0.23c0.08,0,.1.13,0.1,0.38v4.19c0,0.43,0,.53-0.1.53a0.5,0.5,0,0,1-.2-0.36c-0.74-1.88-2.82-2-4.6-2H271v5.36c0,1.86.64,2.26,2.36,2.26h2.87a10.81,10.81,0,0,0,6.64-2.77,3.51,3.51,0,0,1,.69-0.53,0.07,0.07,0,0,1,.08.08,1.14,1.14,0,0,1-.05.2l-1.12,3.66H267a1,1,0,0,1-.76-0.1c0-.08.53-0.23,0.71-0.38,0.94-.74,1.12-1.45,1.12-3.76v-8.64c0-1.65-.1-2.75-1.12-3a0.92,0.92,0,0,1-.43-0.23c0-.1.1-0.15,0.48-0.15h14.36l0.69,2.39a3.64,3.64,0,0,1,.23.94,0.18,0.18,0,0,1-.13.2,0.43,0.43,0,0,1-.31-0.23c-1.07-1.75-3.76-2.67-6.15-2.67H271v6.74Z"/><path class="cls-1" d="M290.13,194.32L288.76,197a6.44,6.44,0,0,0-.89,2.9,1.61,1.61,0,0,0,1.37,1.63c0.2,0.05.28,0.1,0.28,0.18s-0.13.13-.31,0.13-1.09-.08-2.49-0.08c-1,0-1.68.08-2,.08s-0.33-.05-0.33-0.13a0.88,0.88,0,0,1,.48-0.41,15.59,15.59,0,0,0,2.95-4l6.23-12.1a0.35,0.35,0,0,1,.18-0.2h0.05a0.32,0.32,0,0,1,.2.2l7.47,14a6.44,6.44,0,0,0,1.7,2.11,1.57,1.57,0,0,1,.58.43c0,0.08-.13.13-0.36,0.13s-1.37-.08-2.85-0.08c-2.08,0-2.92.08-3.08,0.08a0.27,0.27,0,0,1-.25-0.08c0-.1.13-0.15,0.33-0.2a1.18,1.18,0,0,0,.71-1.32,10.44,10.44,0,0,0-1.14-2.9l-1.45-3h-6.05Zm3-5.92-2.67,5.29h5.39Z"/><path class="cls-1" d="M309.77,198.36c0,2.54,1,2.75,3.13,2.75h1.35a9.78,9.78,0,0,0,6.69-2.95,1.93,1.93,0,0,1,.53-0.61,0.15,0.15,0,0,1,.15.18,2.58,2.58,0,0,1-.1.36l-1,3.66H305.52c-0.43,0-.56-0.05-0.56-0.13a1.89,1.89,0,0,1,.61-0.23c1-.43,1.25-1.37,1.25-3.64v-10a2,2,0,0,0-1.09-2,0.31,0.31,0,0,1-.25-0.2c0-.08.15-0.1,0.38-0.1,0.41,0,1.63.1,2.44,0.1s2-.1,2.44-0.1c0.23,0,.31,0,0.31.13a0.33,0.33,0,0,1-.23.15,2,2,0,0,0-1,2.06v10.65Z"/><path class="cls-1" d="M325.41,187.28c0-1-.43-1.17-1.58-1.17a7.67,7.67,0,0,0-5.36,2.52,2.94,2.94,0,0,1-.46.43,0.14,0.14,0,0,1-.13-0.15,4.17,4.17,0,0,1,.18-0.58l0.81-2.85h16l0.81,2.85a4.17,4.17,0,0,1,.18.58,0.14,0.14,0,0,1-.13.15,2.94,2.94,0,0,1-.46-0.43,7.67,7.67,0,0,0-5.36-2.52c-1.14,0-1.58.18-1.58,1.17V199c0,1.25.33,2.24,1.53,2.47a0.4,0.4,0,0,1,.38.2,0.23,0.23,0,0,1-.2.15c-0.18,0-1.73-.08-3.18-0.08s-2.95.08-3.13,0.08-0.23-.05-0.23-0.13a0.85,0.85,0,0,1,.48-0.2c1.17-.51,1.4-1.25,1.4-3.61v-10.6Z"/><path class="cls-1" d="M351.22,192.84v-5.14c0-1-.28-1.88-1.09-2.08a0.62,0.62,0,0,1-.25-0.15c0-.08.15-0.1,0.38-0.1,0.41,0,1.63.1,2.44,0.1s2-.1,2.44-0.1c0.23,0,.38,0,0.38.1a0.62,0.62,0,0,1-.25.15c-0.81.2-1.09,1-1.09,2.08V199a2.34,2.34,0,0,0,1.37,2.54,0.31,0.31,0,0,1,.23.2c0,0.08-.15.08-0.41,0.08-0.92,0-1.22-.08-2.67-0.08s-1.75.08-2.67,0.08c-0.25,0-.41,0-0.41-0.08a0.31,0.31,0,0,1,.23-0.2,2.34,2.34,0,0,0,1.37-2.54v-5.52h-9.69V199a2.34,2.34,0,0,0,1.37,2.54,0.31,0.31,0,0,1,.23.2c0,0.08-.15.08-0.41,0.08-0.92,0-1.22-.08-2.67-0.08s-1.75.08-2.67,0.08c-0.25,0-.41,0-0.41-0.08a0.31,0.31,0,0,1,.23-0.2,2.34,2.34,0,0,0,1.37-2.54V187.71c0-1-.28-1.88-1.09-2.08a0.62,0.62,0,0,1-.25-0.15c0-.08.15-0.1,0.38-0.1,0.41,0,1.63.1,2.44,0.1s2-.1,2.44-0.1c0.23,0,.38,0,0.38.1a0.62,0.62,0,0,1-.25.15c-0.81.2-1.09,1-1.09,2.08v5.14h9.69Z"/><path class="cls-2" d="M198.25,166.66c-0.21,4-.86,7-3.05,10.13A13.45,13.45,0,0,1,180.42,182c-5.75-1.62-12.24-9.23-8.48-17.84,1-2.24,3.79-5.94,8.34-6.55a12,12,0,0,0-9.75,4.6,14.27,14.27,0,0,0,4.67,21.58,16.35,16.35,0,0,0,21.25-6.65A17.62,17.62,0,0,0,198.25,166.66Z"/><path class="cls-1" d="M166.06,171.68c0.21-4,.86-7,3.05-10.13a13.45,13.45,0,0,1,14.78-5.18c5.75,1.62,12.24,9.23,8.48,17.83-1,2.24-3.79,5.94-8.34,6.55a12,12,0,0,0,9.75-4.6,14.27,14.27,0,0,0-4.67-21.58,16.35,16.35,0,0,0-21.25,6.65A17.62,17.62,0,0,0,166.06,171.68Z"/><path class="cls-1" d="M359.28,199a1.58,1.58,0,1,1-2.23,2.24,1.54,1.54,0,0,1-.46-1.12A1.57,1.57,0,0,1,359.28,199Zm0.18-.18a1.83,1.83,0,1,0,.54,1.29A1.77,1.77,0,0,0,359.46,198.81Zm-1,1.21a1,1,0,0,1-.34,0h-0.32v-0.73h0.3a0.92,0.92,0,0,1,.43.07A0.36,0.36,0,0,1,358.44,200Zm-1,1.09h0.35v-0.79h0.28a0.85,0.85,0,0,1,.39.06,0.49,0.49,0,0,1,.19.46v0.27H359v0a0.33,0.33,0,0,1,0-.1q0-.08,0-0.15v-0.15a0.55,0.55,0,0,0-.11-0.31,0.49,0.49,0,0,0-.35-0.2,0.77,0.77,0,0,0,.29-0.1,0.44,0.44,0,0,0,.2-0.4,0.5,0.5,0,0,0-.31-0.51,1.53,1.53,0,0,0-.55-0.07h-0.7v2Z"/><path class="cls-1" d="M51.5,126.29a10.09,10.09,0,0,1-3.78-.69,8.05,8.05,0,0,1-3-2.06,9.42,9.42,0,0,1-1.94-3.41,14.61,14.61,0,0,1-.69-4.69,14.2,14.2,0,0,1,.67-4.59,9.93,9.93,0,0,1,2-3.41,8.35,8.35,0,0,1,3-2.15,9.63,9.63,0,0,1,3.84-.74,12,12,0,0,1,2,.15,13.71,13.71,0,0,1,1.71.39,12.82,12.82,0,0,1,1.39.53q0.71,0.32,1.4.7v3.37H57.79q-0.37-.34-0.94-0.82a9.39,9.39,0,0,0-1.41-.94,9.06,9.06,0,0,0-1.75-.72,7.65,7.65,0,0,0-2.18-.28,6,6,0,0,0-4.63,2.17,7.65,7.65,0,0,0-1.38,2.69,12.49,12.49,0,0,0-.49,3.65,11.73,11.73,0,0,0,.52,3.71,7.94,7.94,0,0,0,1.42,2.63A5.68,5.68,0,0,0,49,123.36a6.08,6.08,0,0,0,2.51.53,8.07,8.07,0,0,0,2.24-.3,8.59,8.59,0,0,0,1.83-.75,9.59,9.59,0,0,0,1.34-.89q0.56-.46.89-0.78H58v3.32l-1.3.62a11.79,11.79,0,0,1-1.49.58,15.14,15.14,0,0,1-1.7.45A10.84,10.84,0,0,1,51.5,126.29Z"/><path class="cls-1" d="M63.11,125.91H60.47V104h2.65v21.91Z"/><path class="cls-1" d="M75.79,124.24l-0.87.67a6.08,6.08,0,0,1-1,.68,7.9,7.9,0,0,1-1.36.56,6.68,6.68,0,0,1-1.84.2A4.76,4.76,0,0,1,67.3,125a4.82,4.82,0,0,1-1-1.6,5.36,5.36,0,0,1-.38-2,5.3,5.3,0,0,1,.69-2.78,4.71,4.71,0,0,1,2.18-1.82,10.83,10.83,0,0,1,3.13-.84q1.8-.23,3.89-0.35v-0.51a3.41,3.41,0,0,0-.28-1.5,2.09,2.09,0,0,0-.79-0.88,3.09,3.09,0,0,0-1.24-.43,10.5,10.5,0,0,0-1.51-.11,10.13,10.13,0,0,0-2.15.27,14.44,14.44,0,0,0-2.48.8H67.18v-2.69q0.73-.21,2.1-0.46a14.79,14.79,0,0,1,2.7-.25,12.52,12.52,0,0,1,2.73.25,5.26,5.26,0,0,1,2,.92A3.92,3.92,0,0,1,78,112.65a6.6,6.6,0,0,1,.42,2.51v10.76H75.79v-1.68Zm0-2.2v-4.37l-2.39.23a12.86,12.86,0,0,0-2.33.42,4.25,4.25,0,0,0-1.75,1,2.48,2.48,0,0,0-.69,1.87,2.62,2.62,0,0,0,.76,2,3.21,3.21,0,0,0,2.23.69,4.73,4.73,0,0,0,2.27-.54A9.84,9.84,0,0,0,75.79,122Z"/><path class="cls-1" d="M85,107.55H82V104.8h3v2.75Zm-0.18,18.36H82.2V110.18h2.65v15.73Z"/><path class="cls-1" d="M101.92,117.79a9.68,9.68,0,0,1-1.87,6.21,5.76,5.76,0,0,1-4.69,2.35,6.67,6.67,0,0,1-2.19-.32,9.57,9.57,0,0,1-1.8-.85l-0.17.73H88.73V104h2.65v7.83a9.92,9.92,0,0,1,2.17-1.49,5.78,5.78,0,0,1,2.65-.59,4.89,4.89,0,0,1,4.2,2.13A10,10,0,0,1,101.92,117.79Zm-2.73.21a8.55,8.55,0,0,0-.86-4.27,3,3,0,0,0-2.76-1.46,5.22,5.22,0,0,0-2.19.51,8.5,8.5,0,0,0-2,1.28v9a9.71,9.71,0,0,0,1.77.7,6.68,6.68,0,0,0,1.7.2A3.86,3.86,0,0,0,98,122.53,7.21,7.21,0,0,0,99.19,118Z"/><path class="cls-1" d="M117.61,118.06a9,9,0,0,1-1.92,6.13,6.48,6.48,0,0,1-5.1,2.16,6.39,6.39,0,0,1-5.16-2.23,9.11,9.11,0,0,1-1.88-6.06,8.92,8.92,0,0,1,1.94-6.13,7.06,7.06,0,0,1,10.2,0A9,9,0,0,1,117.61,118.06Zm-2.73,0a7.57,7.57,0,0,0-1.11-4.54,4.14,4.14,0,0,0-6.36,0,9.66,9.66,0,0,0,0,9,4.09,4.09,0,0,0,6.35,0A7.52,7.52,0,0,0,114.88,118.06Z"/><path class="cls-1" d="M128.67,113h-0.14a2.94,2.94,0,0,0-.63-0.11l-0.8,0a5.24,5.24,0,0,0-2.13.46,6.83,6.83,0,0,0-2,1.38v11.17h-2.65V110.18H123v2.34a12.1,12.1,0,0,1,2.53-1.81,4.74,4.74,0,0,1,2.09-.53l0.61,0,0.46,0.06V113Z"/><path class="cls-1" d="M143.09,125.91h-2.65v-9a18,18,0,0,0-.11-2,4.29,4.29,0,0,0-.4-1.5,2.06,2.06,0,0,0-.9-0.88,3.57,3.57,0,0,0-1.58-.29,4.52,4.52,0,0,0-2,.53,10.5,10.5,0,0,0-2,1.37v11.74h-2.65V110.18h2.65v1.75a10.41,10.41,0,0,1,2.34-1.62,5.49,5.49,0,0,1,2.44-.56,4.53,4.53,0,0,1,3.63,1.53,6.62,6.62,0,0,1,1.31,4.43v10.21Z"/><path class="cls-1" d="M153.64,126.28a7.8,7.8,0,0,1-5.84-2.12,8.24,8.24,0,0,1-2.08-6,8.9,8.9,0,0,1,2-6.12,6.7,6.7,0,0,1,5.27-2.27,7.35,7.35,0,0,1,2.59.42,5.15,5.15,0,0,1,2,1.32,6.08,6.08,0,0,1,1.3,2.2,9.83,9.83,0,0,1,.45,3.19v1.44h-10.9a5.86,5.86,0,0,0,1.38,4.2,5,5,0,0,0,3.82,1.45,7.44,7.44,0,0,0,1.71-.2,8.06,8.06,0,0,0,1.51-.51,10.91,10.91,0,0,0,1.21-.63,7.27,7.27,0,0,0,.82-0.57H159V125l-1.16.46a12.66,12.66,0,0,1-1.24.43q-0.77.21-1.4,0.32A9.21,9.21,0,0,1,153.64,126.28Zm3.1-10a7.38,7.38,0,0,0-.25-1.84,3.81,3.81,0,0,0-.65-1.31,3,3,0,0,0-1.19-.9,5.3,5.3,0,0,0-3.59,0,4.27,4.27,0,0,0-1.35.92,4.41,4.41,0,0,0-.9,1.37,5.92,5.92,0,0,0-.39,1.75h8.32Z"/><path class="cls-1" d="M189.18,125.91h-2.79V107.85l-5.46,12.29h-1.69l-5.42-12.29v18.07h-2.6v-21H175l5.24,11.67,5.06-11.67h3.87v21Z"/><path class="cls-1" d="M200.05,126.28a7.8,7.8,0,0,1-5.84-2.12,8.24,8.24,0,0,1-2.08-6,8.9,8.9,0,0,1,2-6.12,6.7,6.7,0,0,1,5.27-2.27,7.35,7.35,0,0,1,2.59.42,5.15,5.15,0,0,1,2,1.32,6.08,6.08,0,0,1,1.3,2.2,9.83,9.83,0,0,1,.45,3.19v1.44h-10.9a5.86,5.86,0,0,0,1.38,4.2A5,5,0,0,0,200,124a7.44,7.44,0,0,0,1.71-.2,8.06,8.06,0,0,0,1.51-.51,10.91,10.91,0,0,0,1.21-.63,7.27,7.27,0,0,0,.82-0.57h0.16V125l-1.16.46a12.66,12.66,0,0,1-1.24.43q-0.77.21-1.4,0.32A9.21,9.21,0,0,1,200.05,126.28Zm3.1-10a7.38,7.38,0,0,0-.25-1.84,3.81,3.81,0,0,0-.65-1.31,3,3,0,0,0-1.19-.9,5.3,5.3,0,0,0-3.59,0,4.27,4.27,0,0,0-1.35.92,4.41,4.41,0,0,0-.9,1.37,5.92,5.92,0,0,0-.39,1.75h8.32Z"/><path class="cls-1" d="M220.51,125.91h-2.65v-1.61q-0.62.52-1.07,0.86a5.91,5.91,0,0,1-1.06.62,6.05,6.05,0,0,1-1.17.42,6,6,0,0,1-1.41.15,5.31,5.31,0,0,1-2.37-.54,5,5,0,0,1-1.85-1.56,7.71,7.71,0,0,1-1.2-2.57,13.23,13.23,0,0,1-.42-3.51,10.77,10.77,0,0,1,.53-3.58,8.46,8.46,0,0,1,1.48-2.64,6.13,6.13,0,0,1,2.08-1.61,5.84,5.84,0,0,1,2.56-.58A7.23,7.23,0,0,1,216,110a9.06,9.06,0,0,1,1.85.81V104h2.65v21.91Zm-2.65-3.83V113a8.64,8.64,0,0,0-1.77-.66,7.43,7.43,0,0,0-1.7-.18,3.78,3.78,0,0,0-3.2,1.53,7.22,7.22,0,0,0-1.16,4.42,8.3,8.3,0,0,0,.89,4.25,3.07,3.07,0,0,0,2.84,1.47,5.11,5.11,0,0,0,2.1-.47A8.06,8.06,0,0,0,217.87,122.08Z"/><path class="cls-1" d="M227.23,107.55h-3V104.8h3v2.75ZM227,125.91H224.4V110.18H227v15.73Z"/><path class="cls-1" d="M237.19,126.27a8.52,8.52,0,0,1-3-.5,6.1,6.1,0,0,1-2.32-1.51,6.9,6.9,0,0,1-1.51-2.56,11.07,11.07,0,0,1-.53-3.63,10.34,10.34,0,0,1,.56-3.58,7.72,7.72,0,0,1,1.49-2.53,6.16,6.16,0,0,1,2.32-1.58,7.94,7.94,0,0,1,3-.56,8.55,8.55,0,0,1,2.5.37,13.31,13.31,0,0,1,2.15.84v3h-0.15q-0.28-.24-0.73-0.55a9.31,9.31,0,0,0-1.08-.63,7.1,7.1,0,0,0-1.3-.49,5.28,5.28,0,0,0-1.44-.21,4,4,0,0,0-3.3,1.56,8.42,8.42,0,0,0,0,8.75,4,4,0,0,0,3.34,1.56,5.85,5.85,0,0,0,2.46-.54,7.68,7.68,0,0,0,2.07-1.38h0.15v3l-1,.44a7.35,7.35,0,0,1-1.07.39q-0.68.2-1.21,0.3A7.39,7.39,0,0,1,237.19,126.27Z"/><path class="cls-1" d="M253,124.24l-0.87.67a6.08,6.08,0,0,1-1,.68,7.9,7.9,0,0,1-1.36.56,6.68,6.68,0,0,1-1.84.2,4.76,4.76,0,0,1-3.38-1.39,4.82,4.82,0,0,1-1-1.6,5.36,5.36,0,0,1-.38-2,5.3,5.3,0,0,1,.69-2.78,4.71,4.71,0,0,1,2.18-1.82,10.83,10.83,0,0,1,3.13-.84q1.8-.23,3.89-0.35v-0.51a3.41,3.41,0,0,0-.28-1.5,2.09,2.09,0,0,0-.79-0.88,3.09,3.09,0,0,0-1.24-.43,10.5,10.5,0,0,0-1.51-.11,10.13,10.13,0,0,0-2.15.27,14.44,14.44,0,0,0-2.48.8h-0.16v-2.69q0.73-.21,2.1-0.46a14.79,14.79,0,0,1,2.7-.25,12.52,12.52,0,0,1,2.73.25,5.26,5.26,0,0,1,2,.92,3.92,3.92,0,0,1,1.28,1.68,6.6,6.6,0,0,1,.42,2.51v10.76H253v-1.68Zm0-2.2v-4.37l-2.39.23a12.86,12.86,0,0,0-2.33.42,4.25,4.25,0,0,0-1.75,1,2.48,2.48,0,0,0-.69,1.87,2.62,2.62,0,0,0,.76,2,3.21,3.21,0,0,0,2.23.69,4.73,4.73,0,0,0,2.27-.54A9.84,9.84,0,0,0,253,122Z"/><path class="cls-1" d="M262.09,125.91h-2.65V104h2.65v21.91Z"/><path class="cls-1" d="M283.39,126.29a10.09,10.09,0,0,1-3.78-.69,8.05,8.05,0,0,1-3-2.06,9.42,9.42,0,0,1-1.94-3.41,14.61,14.61,0,0,1-.69-4.69,14.2,14.2,0,0,1,.67-4.59,9.93,9.93,0,0,1,2-3.41,8.35,8.35,0,0,1,3-2.15,9.63,9.63,0,0,1,3.84-.74,12,12,0,0,1,2,.15,13.71,13.71,0,0,1,1.71.39,12.82,12.82,0,0,1,1.39.53q0.71,0.32,1.4.7v3.37h-0.23q-0.37-.34-0.94-0.82a9.39,9.39,0,0,0-1.41-.94,9.06,9.06,0,0,0-1.75-.72,7.65,7.65,0,0,0-2.18-.28,6,6,0,0,0-4.63,2.17,7.65,7.65,0,0,0-1.38,2.69,12.49,12.49,0,0,0-.49,3.65,11.73,11.73,0,0,0,.52,3.71,7.94,7.94,0,0,0,1.42,2.63,5.68,5.68,0,0,0,2.06,1.57,6.08,6.08,0,0,0,2.51.53,8.07,8.07,0,0,0,2.24-.3,8.59,8.59,0,0,0,1.83-.75,9.59,9.59,0,0,0,1.34-.89q0.56-.46.89-0.78h0.21v3.32l-1.3.62a11.79,11.79,0,0,1-1.49.58,15.14,15.14,0,0,1-1.7.45A10.84,10.84,0,0,1,283.39,126.29Z"/><path class="cls-1" d="M299.14,126.28a7.8,7.8,0,0,1-5.84-2.12,8.24,8.24,0,0,1-2.08-6,8.9,8.9,0,0,1,2-6.12,6.7,6.7,0,0,1,5.27-2.27,7.35,7.35,0,0,1,2.59.42,5.15,5.15,0,0,1,2,1.32,6.08,6.08,0,0,1,1.3,2.2,9.83,9.83,0,0,1,.45,3.19v1.44h-10.9a5.86,5.86,0,0,0,1.38,4.2,5,5,0,0,0,3.82,1.45,7.44,7.44,0,0,0,1.71-.2,8.06,8.06,0,0,0,1.51-.51,10.91,10.91,0,0,0,1.21-.63,7.27,7.27,0,0,0,.82-0.57h0.16V125l-1.16.46a12.66,12.66,0,0,1-1.24.43q-0.77.21-1.4,0.32A9.21,9.21,0,0,1,299.14,126.28Zm3.1-10a7.38,7.38,0,0,0-.25-1.84,3.81,3.81,0,0,0-.65-1.31,3,3,0,0,0-1.19-.9,5.3,5.3,0,0,0-3.59,0,4.27,4.27,0,0,0-1.35.92,4.41,4.41,0,0,0-.9,1.37,5.92,5.92,0,0,0-.39,1.75h8.32Z"/><path class="cls-1" d="M319.85,125.91h-2.65v-9a18,18,0,0,0-.11-2,4.29,4.29,0,0,0-.4-1.5,2.06,2.06,0,0,0-.9-0.88,3.57,3.57,0,0,0-1.58-.29,4.52,4.52,0,0,0-2,.53,10.5,10.5,0,0,0-2,1.37v11.74h-2.65V110.18h2.65v1.75a10.41,10.41,0,0,1,2.34-1.62,5.49,5.49,0,0,1,2.44-.56,4.53,4.53,0,0,1,3.63,1.53,6.62,6.62,0,0,1,1.31,4.43v10.21Z"/><path class="cls-1" d="M328.33,126.22A4.52,4.52,0,0,1,325,125a5.38,5.38,0,0,1-1.21-3.89v-8.72H322v-2.2h1.79v-4.52h2.65v4.52h4.87v2.2h-4.87v7.48q0,1.2,0,1.84a3.12,3.12,0,0,0,.32,1.21,1.55,1.55,0,0,0,.77.74,3.53,3.53,0,0,0,1.45.25,4.17,4.17,0,0,0,1.25-.19,7.61,7.61,0,0,0,.87-0.32h0.15v2.38a12.85,12.85,0,0,1-1.51.33A9.27,9.27,0,0,1,328.33,126.22Z"/><path class="cls-1" d="M340,126.28a7.8,7.8,0,0,1-5.84-2.12,8.24,8.24,0,0,1-2.08-6,8.9,8.9,0,0,1,2-6.12,6.7,6.7,0,0,1,5.27-2.27,7.35,7.35,0,0,1,2.59.42,5.15,5.15,0,0,1,2,1.32,6.08,6.08,0,0,1,1.3,2.2,9.83,9.83,0,0,1,.45,3.19v1.44h-10.9a5.86,5.86,0,0,0,1.38,4.2A5,5,0,0,0,340,124a7.44,7.44,0,0,0,1.71-.2,8.06,8.06,0,0,0,1.51-.51,10.91,10.91,0,0,0,1.21-.63,7.27,7.27,0,0,0,.82-0.57h0.16V125l-1.16.46a12.66,12.66,0,0,1-1.24.43q-0.77.21-1.4,0.32A9.21,9.21,0,0,1,340,126.28Zm3.1-10a7.38,7.38,0,0,0-.25-1.84,3.81,3.81,0,0,0-.65-1.31,3,3,0,0,0-1.19-.9,5.3,5.3,0,0,0-3.59,0,4.27,4.27,0,0,0-1.35.92,4.41,4.41,0,0,0-.9,1.37,5.92,5.92,0,0,0-.39,1.75h8.32Z"/><path class="cls-1" d="M356.74,113h-0.14a2.94,2.94,0,0,0-.63-0.11l-0.8,0a5.24,5.24,0,0,0-2.13.46,6.83,6.83,0,0,0-2,1.38v11.17H348.4V110.18H351v2.34a12.1,12.1,0,0,1,2.53-1.81,4.74,4.74,0,0,1,2.09-.53l0.61,0,0.46,0.06V113Z"/><path class="cls-1" d="M356.23,132H10.85L11,133.33H356.23A0.64,0.64,0,1,0,356.23,132Z"/><path class="cls-2" d="M34.74,126.11c-3.83-16-3-34,5.19-52.58C46.41,58.69,65,34.29,95,30.26c-22.29-.73-46.3,8.28-64.45,30.37C15.16,79.42,8.66,103.06,10.38,126.11H34.74Z"/><path class="cls-1" d="M118.83,22.29c28.39,8,59.48,38,63,76.45h22.69c1.46-35.21-16.45-71.08-51.25-88.29C109.92-11,43.93-.84,12.9,54.37,2.39,73.09-2.23,100,1,123.41,2.39,97,6.7,77,21.2,56.5,47.1,19.82,88.68,13.81,118.83,22.29Z"/></svg>