<svg id="Layer_1" data-name="Layer 1" xmlns="http://www.w3.org/2000/svg" viewBox="0 0 349.28 66.01"><defs><style>.cls-1{fill:#346094;}.cls-2{fill:#e2231a;}</style></defs><title>etcsv</title><path class="cls-1" d="M34.17,15.27C33.64,11.25,29.12-.49,23.87,0,17,0.67,13.47,14.36,8.66,28.79,1.89,49.1-3.12,56.66,2.64,62.16c3.16,3,11.54-.57,16.47-2.53,15-5.92,13.77-6.09,13.77-11.81,0-1.16-1.35-1.23-1.44-.06-0.14,1.72-.53,3.21-13,7.43C7.81,58.77,2.72,60.9,2.19,55.75c-0.71-6.91,6.21-14.17,9.4-24.33S15.45,4.82,23.94,5.27c3.87-.23,7.26,6.45,8.91,9.93C33.49,16.56,34.3,16.23,34.17,15.27Z" transform="translate(-0.12 0)"/><path class="cls-1" d="M67.82,50c2,5.31,2.65,8.72-1.21,12.18-3.25,2.91-11.54-.57-16.47-2.53-15-5.92-13.77-6.09-13.77-11.81,0-1.16,1.35-1.23,1.44-.06,0.14,1.72.6,3,13,7.43,11.6,4.12,15.39,5,16.22.56,0.44-2.33-.53-4.24-0.83-5.38C65.87,49,67.15,48.17,67.82,50Z" transform="translate(-0.12 0)"/><path class="cls-1" d="M57.75,20.08C54.36,9.22,50.82.54,45.39,0c-5.25-.51-9.78,11.23-10.31,15.26-0.13,1,.68,1.29,1.33-0.08C38,11.72,41.45,5,45.31,5.27c5.74-.31,8,7.3,10.84,15.16C57,22.7,58.2,21.54,57.75,20.08Z" transform="translate(-0.12 0)"/><path class="cls-1" d="M56,25.48c1.77,3.33,5,6.91,9.4,7.12,3.13,0.15,5.76-1,9-6,0.34-.52,1.15-0.4.94,0.66-0.91,4.45-4.85,9.3-9.78,9.51C59.89,37,55.7,30.43,54.6,25.89,54.31,24.72,55.3,24.26,56,25.48Z" transform="translate(-0.12 0)"/><path class="cls-1" d="M55.29,33.82c1.77,3.33,5,6.91,9.4,7.12,3.13,0.15,5.76-1,9-6,0.34-.52,1.15-0.4.94,0.66-0.91,4.45-4.85,9.3-9.78,9.51-5.63.24-9.82-6.32-10.92-10.87C53.66,33.06,54.65,32.6,55.29,33.82Z" transform="translate(-0.12 0)"/><path class="cls-1" d="M53.17,26a9.27,9.27,0,0,0-6.49-4.95,11.2,11.2,0,0,1,.84,3.44,9.1,9.1,0,0,1,4,2.22C52.85,28,53.61,27,53.17,26Z" transform="translate(-0.12 0)"/><path class="cls-1" d="M50.85,35.08c1.34,1.3,2.11.25,1.67-.71a9.18,9.18,0,0,0-5.29-4.62,16.36,16.36,0,0,1-1,3A9.17,9.17,0,0,1,50.85,35.08Z" transform="translate(-0.12 0)"/><path class="cls-2" d="M36.09,29.07c-0.31.44-1,.71-1-0.2,0.27-4.76,5.23-7.93,10.05-7.93a7.79,7.79,0,0,1,1.5.15C44,15,36.32,17.24,33.72,19.86c-3.1-3.13-13.66-4.66-13.87,5.67-0.25,12.22,15.23,16,14.8,20.66,1.14-2.59,8.54-6.32,11.61-13.48a8.5,8.5,0,0,0-1.63-.17c-3.13,0-6.06.4-9.2,4.85-0.31.44-1,.71-1-0.2,0.27-4.76,5.23-7.93,10.05-7.93a8.25,8.25,0,0,1,2.69.48,16.73,16.73,0,0,0,.37-4.21q0-.52-0.07-1a8.74,8.74,0,0,0-2.23-.31C42.16,24.22,39.23,24.62,36.09,29.07Z" transform="translate(-0.12 0)"/><path class="cls-1" d="M98.59,14.67c-0.14.76-.6,2.93-0.81,3.64H86.68V17.66c2.1-.16,2.28-0.35,2.28-2.23V6.26c0-2.05-.18-2.14-2-2.28V3.33H97.26c0,0.58.12,2.14,0.18,3.32l-0.67.09a5.6,5.6,0,0,0-.74-2c-0.32-.51-0.94-0.67-2.6-0.67H91.68c-0.71,0-.76.07-0.76,0.74v5.25h2.17c2.1,0,2.21-.18,2.49-1.73h0.67v4.4H95.57c-0.3-1.64-.46-1.77-2.46-1.77H90.92v4.35c0,1.08.14,1.59,0.55,1.87a4.9,4.9,0,0,0,2.4.3c1.75,0,2.4-.18,2.9-0.78a7.49,7.49,0,0,0,1.15-2.17Z" transform="translate(-0.12 0)"/><path class="cls-1" d="M106.84,18.58a1.77,1.77,0,0,1-1.08-.46,2.2,2.2,0,0,1-.55-1c-0.92.62-2,1.47-2.72,1.47a2.78,2.78,0,0,1-2.76-2.81,2.3,2.3,0,0,1,1.87-2.28,16.49,16.49,0,0,0,3.57-1.5V11.6c0-1.68-.78-2.6-2-2.6a1.35,1.35,0,0,0-1,.44A3.93,3.93,0,0,0,101.5,11a0.66,0.66,0,0,1-.67.53,1.08,1.08,0,0,1-1-1,1.34,1.34,0,0,1,.71-0.92A10.52,10.52,0,0,1,104,8a3,3,0,0,1,1.89.62,3.4,3.4,0,0,1,1,2.83v4.26c0,1,.41,1.38.81,1.38a1.75,1.75,0,0,0,.83-0.25l0.23,0.6Zm-1.68-5.81c-0.48.25-1.59,0.74-2.07,1a1.85,1.85,0,0,0-1.41,1.7,1.68,1.68,0,0,0,1.64,1.75,3,3,0,0,0,1.84-.83V12.78Z" transform="translate(-0.12 0)"/><path class="cls-1" d="M115.07,11c-0.46-1.38-1.24-2.28-2.37-2.28a1.48,1.48,0,0,0-1.5,1.59c0,1,.92,1.54,1.94,2,1.75,0.71,2.93,1.54,2.93,3.13,0,2.1-2,3.18-3.8,3.18a4.48,4.48,0,0,1-2.63-.78,10.7,10.7,0,0,1-.39-2.72l0.62-.12c0.39,1.52,1.43,2.86,2.81,2.86a1.59,1.59,0,0,0,1.64-1.61c0-1-.67-1.57-1.82-2.1-1.38-.62-2.88-1.41-2.88-3.16s1.38-3,3.5-3a4.69,4.69,0,0,1,2,.41,12.4,12.4,0,0,1,.51,2.44Z" transform="translate(-0.12 0)"/><path class="cls-1" d="M121.36,18.28a2.25,2.25,0,0,1-1,.3c-1.45,0-2.26-.92-2.26-2.74V9.16h-1.59l-0.09-.25,0.65-.67h1V6.58L119.63,5l0.32,0V8.24h2.6a0.64,0.64,0,0,1-.14.92H120v5.9c0,1.87.76,2.21,1.36,2.21a3.1,3.1,0,0,0,1.41-.39l0.21,0.6Z" transform="translate(-0.12 0)"/><path class="cls-1" d="M140.11,6.9a5.67,5.67,0,0,0-.71-2.05c-0.39-.55-0.76-0.74-2.51-0.74h-1.61V15.47c0,1.82.18,2.05,2.35,2.19v0.65H131V17.66c2.1-.14,2.28-0.37,2.28-2.19V4.12h-1.43c-1.91,0-2.37.21-2.67,0.71a7.49,7.49,0,0,0-.74,2.07h-0.67c0.12-1.38.23-2.88,0.28-4.15h0.46a1.16,1.16,0,0,0,1.27.58h9.1a1.17,1.17,0,0,0,1.15-.58h0.48c0,1.06.12,2.74,0.25,4.08Z" transform="translate(-0.12 0)"/><path class="cls-1" d="M146.45,16.37a5.26,5.26,0,0,1-3.75,2.21c-2.83,0-4.49-2.3-4.49-4.91a6,6,0,0,1,1.52-4A4.76,4.76,0,0,1,143.08,8h0a3.58,3.58,0,0,1,3.46,3.5,0.59,0.59,0,0,1-.53.74c-0.37.07-3.27,0.3-6,.39,0,3.13,1.84,4.42,3.46,4.42a3.81,3.81,0,0,0,2.65-1.15Zm-6.34-4.72c1.29,0,2.58,0,3.92-.07,0.41,0,.55-0.12.55-0.46a2.12,2.12,0,0,0-2.05-2.3C141.49,8.82,140.46,9.78,140.11,11.65Z" transform="translate(-0.12 0)"/><path class="cls-1" d="M153.82,18.31v-0.6c1.36-.14,1.52-0.32,1.52-1.91V11.95c0-1.59-.55-2.63-2.1-2.63a4.12,4.12,0,0,0-2.51,1.18v5.41c0,1.57.14,1.66,1.5,1.8v0.6h-5v-0.6c1.57-.16,1.68-0.28,1.68-1.8V11.16c0-1.47-.14-1.57-1.38-1.8V8.84a15,15,0,0,0,3.2-.92V9.74c0.46-.35,1-0.69,1.54-1.08A3.53,3.53,0,0,1,154.19,8c1.84,0,3,1.29,3,3.5v4.45c0,1.57.14,1.66,1.47,1.8v0.6h-4.81Z" transform="translate(-0.12 0)"/><path class="cls-1" d="M165.85,18.31v-0.6c1.36-.14,1.52-0.32,1.52-1.91V11.95c0-1.59-.55-2.63-2.1-2.63a4.12,4.12,0,0,0-2.51,1.18v5.41c0,1.57.14,1.66,1.5,1.8v0.6h-5v-0.6c1.57-.16,1.68-0.28,1.68-1.8V11.16c0-1.47-.14-1.57-1.38-1.8V8.84a15,15,0,0,0,3.2-.92V9.74c0.46-.35,1-0.69,1.54-1.08A3.53,3.53,0,0,1,166.21,8c1.84,0,3,1.29,3,3.5v4.45c0,1.57.14,1.66,1.47,1.8v0.6h-4.82Z" transform="translate(-0.12 0)"/><path class="cls-1" d="M179.62,16.37a5.26,5.26,0,0,1-3.76,2.21c-2.83,0-4.49-2.3-4.49-4.91a6,6,0,0,1,1.52-4A4.76,4.76,0,0,1,176.26,8h0a3.58,3.58,0,0,1,3.45,3.5,0.59,0.59,0,0,1-.53.74c-0.37.07-3.27,0.3-6,.39,0,3.13,1.84,4.42,3.46,4.42a3.81,3.81,0,0,0,2.65-1.15Zm-6.33-4.72c1.29,0,2.58,0,3.92-.07,0.41,0,.55-0.12.55-0.46a2.12,2.12,0,0,0-2.05-2.3C174.67,8.82,173.63,9.78,173.29,11.65Z" transform="translate(-0.12 0)"/><path class="cls-1" d="M186.51,11c-0.46-1.38-1.24-2.28-2.37-2.28a1.48,1.48,0,0,0-1.5,1.59c0,1,.92,1.54,1.94,2,1.75,0.71,2.93,1.54,2.93,3.13,0,2.1-2,3.18-3.8,3.18a4.48,4.48,0,0,1-2.63-.78,10.68,10.68,0,0,1-.39-2.72l0.62-.12c0.39,1.52,1.43,2.86,2.81,2.86a1.59,1.59,0,0,0,1.64-1.61c0-1-.67-1.57-1.82-2.1-1.38-.62-2.88-1.41-2.88-3.16s1.38-3,3.5-3a4.69,4.69,0,0,1,2,.41,12.43,12.43,0,0,1,.51,2.44Z" transform="translate(-0.12 0)"/><path class="cls-1" d="M194.28,11C193.82,9.6,193,8.7,191.9,8.7a1.48,1.48,0,0,0-1.5,1.59c0,1,.92,1.54,1.94,2,1.75,0.71,2.93,1.54,2.93,3.13,0,2.1-2,3.18-3.8,3.18a4.48,4.48,0,0,1-2.63-.78,10.68,10.68,0,0,1-.39-2.72l0.62-.12c0.39,1.52,1.43,2.86,2.81,2.86a1.59,1.59,0,0,0,1.64-1.61c0-1-.67-1.57-1.82-2.1-1.38-.62-2.88-1.41-2.88-3.16s1.38-3,3.5-3a4.69,4.69,0,0,1,2,.41,12.44,12.44,0,0,1,.51,2.44Z" transform="translate(-0.12 0)"/><path class="cls-1" d="M204.67,16.37a5.26,5.26,0,0,1-3.76,2.21c-2.83,0-4.49-2.3-4.49-4.91a6,6,0,0,1,1.52-4A4.76,4.76,0,0,1,201.3,8h0a3.58,3.58,0,0,1,3.45,3.5,0.59,0.59,0,0,1-.53.74c-0.37.07-3.27,0.3-6,.39,0,3.13,1.84,4.42,3.46,4.42a3.81,3.81,0,0,0,2.65-1.15Zm-6.33-4.72c1.29,0,2.58,0,3.92-.07,0.41,0,.55-0.12.55-0.46a2.12,2.12,0,0,0-2.05-2.3C199.71,8.82,198.68,9.78,198.33,11.65Z" transform="translate(-0.12 0)"/><path class="cls-1" d="M214,16.37a5.26,5.26,0,0,1-3.76,2.21c-2.83,0-4.49-2.3-4.49-4.91a6,6,0,0,1,1.52-4A4.76,4.76,0,0,1,210.64,8h0a3.58,3.58,0,0,1,3.46,3.5,0.59,0.59,0,0,1-.53.74c-0.37.07-3.27,0.3-6,.39,0,3.13,1.84,4.42,3.46,4.42a3.81,3.81,0,0,0,2.65-1.15Zm-6.34-4.72c1.29,0,2.58,0,3.92-.07,0.41,0,.55-0.12.55-0.46a2.12,2.12,0,0,0-2.05-2.3C209,8.82,208,9.78,207.66,11.65Z" transform="translate(-0.12 0)"/><path class="cls-1" d="M100.83,38.15a26.12,26.12,0,0,1-1.31,3.55,21.32,21.32,0,0,1-4.24.6c-5.74,0-8.25-4-8.25-7.63,0-4.86,3.73-8,8.87-8a18.2,18.2,0,0,1,4.08.62c0.18,1.29.32,2.23,0.46,3.46l-0.67.18c-0.62-2.44-2-3.43-4.49-3.43-3.85,0-5.9,3.25-5.9,6.75,0,4.31,2.53,7.26,6,7.26,2.35,0,3.59-1.27,4.75-3.55Z" transform="translate(-0.12 0)"/><path class="cls-1" d="M109,42.23a1.77,1.77,0,0,1-1.08-.46,2.2,2.2,0,0,1-.55-1c-0.92.62-2,1.47-2.72,1.47a2.78,2.78,0,0,1-2.76-2.81,2.3,2.3,0,0,1,1.87-2.28,16.49,16.49,0,0,0,3.57-1.5V35.25c0-1.68-.78-2.6-2-2.6a1.35,1.35,0,0,0-1,.44,3.93,3.93,0,0,0-.67,1.52,0.66,0.66,0,0,1-.67.53,1.08,1.08,0,0,1-1-1,1.34,1.34,0,0,1,.71-0.92,10.52,10.52,0,0,1,3.46-1.61,3,3,0,0,1,1.89.62,3.4,3.4,0,0,1,1,2.83v4.26c0,1,.41,1.38.81,1.38a1.75,1.75,0,0,0,.83-0.25l0.23,0.6Zm-1.68-5.81c-0.48.25-1.59,0.74-2.07,1a1.85,1.85,0,0,0-1.41,1.7,1.68,1.68,0,0,0,1.64,1.75A3,3,0,0,0,107.3,40V36.42Z" transform="translate(-0.12 0)"/><path class="cls-1" d="M114.51,34.07c0.69-1.17,1.68-2.46,2.79-2.46a1.19,1.19,0,0,1,.6,2.28,0.5,0.5,0,0,1-.6,0,1.37,1.37,0,0,0-1-.46c-0.6,0-1.34.67-1.84,2v4.22c0,1.52.12,1.66,1.89,1.8V42h-5.3v-0.6c1.43-.14,1.59-0.28,1.59-1.8V34.79c0-1.52-.09-1.61-1.43-1.77V32.48a14,14,0,0,0,3.25-.92v2.51h0Z" transform="translate(-0.12 0)"/><path class="cls-1" d="M129.88,41.35a23.84,23.84,0,0,0-3.57.88v-1.5l-1.41.83a4.24,4.24,0,0,1-1.8.67,4.62,4.62,0,0,1-4.26-4.91,5.88,5.88,0,0,1,5.92-5.71,4.86,4.86,0,0,1,1.54.28V28.59c0-1.5-.12-1.57-1.77-1.68V26.33a21.59,21.59,0,0,0,3.59-.78V39.3c0,1.2.16,1.31,1,1.41l0.74,0.07v0.58Zm-3.57-7.69a2.89,2.89,0,0,0-2.37-1.18c-1.08,0-3,.88-3,4.22,0,2.74,1.68,4.08,3.18,4.08a3.94,3.94,0,0,0,2.21-.78V33.66Z" transform="translate(-0.12 0)"/><path class="cls-1" d="M130.3,42v-0.6c1.45-.14,1.61-0.28,1.61-1.84V34.77c0-1.43-.07-1.54-1.45-1.75V32.46a14.2,14.2,0,0,0,3.27-.9v7.95c0,1.57.16,1.7,1.64,1.84V42H130.3Zm1.22-13.52a1.18,1.18,0,0,1,1.17-1.2,1.15,1.15,0,0,1,1.15,1.2,1.18,1.18,0,0,1-1.17,1.17A1.21,1.21,0,0,1,131.52,28.43Z" transform="translate(-0.12 0)"/><path class="cls-1" d="M146.05,36.75a5.13,5.13,0,0,1-5,5.48,5,5,0,0,1-5-5.09,5.25,5.25,0,0,1,5.07-5.53A5,5,0,0,1,146.05,36.75Zm-7.9-.35c0,2.9,1.24,5.07,3.16,5.07,1.43,0,2.6-1.06,2.6-4.22,0-2.67-1.08-4.88-3.13-4.88C139.4,32.37,138.15,33.8,138.15,36.4Z" transform="translate(-0.12 0)"/><path class="cls-1" d="M156.42,32.48c-1.22.16-1.41,0.37-2,1.73-0.78,1.73-2,4.56-3.27,8h-0.64c-1-2.76-2.07-5.37-3.18-8.06-0.53-1.31-.69-1.47-1.94-1.66v-0.6h4.72v0.6c-1.24.14-1.29,0.32-.92,1.31,0.58,1.61,1.52,4.05,2.19,5.69,0.81-1.91,1.54-4,2.05-5.48,0.37-1.11.23-1.36-1.08-1.52v-0.6h4.1v0.6Z" transform="translate(-0.12 0)"/><path class="cls-1" d="M162.6,42.23a1.77,1.77,0,0,1-1.08-.46,2.2,2.2,0,0,1-.55-1c-0.92.62-2,1.47-2.72,1.47a2.78,2.78,0,0,1-2.76-2.81,2.3,2.3,0,0,1,1.87-2.28,16.5,16.5,0,0,0,3.57-1.5V35.25c0-1.68-.78-2.6-2-2.6a1.35,1.35,0,0,0-1,.44,3.93,3.93,0,0,0-.67,1.52,0.66,0.66,0,0,1-.67.53,1.08,1.08,0,0,1-1-1,1.34,1.34,0,0,1,.71-0.92,10.52,10.52,0,0,1,3.46-1.61,3,3,0,0,1,1.89.62,3.4,3.4,0,0,1,1,2.83v4.26c0,1,.41,1.38.81,1.38a1.75,1.75,0,0,0,.83-0.25l0.23,0.6Zm-1.68-5.81c-0.48.25-1.59,0.74-2.07,1a1.85,1.85,0,0,0-1.41,1.7,1.68,1.68,0,0,0,1.64,1.75,3,3,0,0,0,1.84-.83V36.42Z" transform="translate(-0.12 0)"/><path class="cls-1" d="M170.82,34.63c-0.46-1.38-1.24-2.28-2.37-2.28a1.48,1.48,0,0,0-1.5,1.59c0,1,.92,1.54,1.94,2,1.75,0.71,2.93,1.54,2.93,3.13,0,2.1-2,3.18-3.8,3.18a4.48,4.48,0,0,1-2.63-.78,10.68,10.68,0,0,1-.39-2.72l0.62-.12c0.39,1.52,1.43,2.86,2.81,2.86a1.59,1.59,0,0,0,1.64-1.61c0-1-.67-1.57-1.82-2.1-1.38-.62-2.88-1.41-2.88-3.16s1.38-3,3.5-3a4.69,4.69,0,0,1,2,.41,12.44,12.44,0,0,1,.51,2.44Z" transform="translate(-0.12 0)"/><path class="cls-1" d="M181.49,39.88a5.44,5.44,0,0,1-3.89,2.35A4.62,4.62,0,0,1,173,37.41a5.49,5.49,0,0,1,2.33-4.49,6.14,6.14,0,0,1,3.43-1.31h0a3.3,3.3,0,0,1,2.07.62,0.81,0.81,0,0,1,.37.69,1.12,1.12,0,0,1-.76,1,0.63,0.63,0,0,1-.44-0.25,3.35,3.35,0,0,0-2.33-.94c-1.52,0-2.83,1.27-2.83,3.69,0,3.2,2.17,4.26,3.48,4.26a3.7,3.7,0,0,0,2.79-1.27Z" transform="translate(-0.12 0)"/><path class="cls-1" d="M193.38,41.4a16.37,16.37,0,0,0-1.77.37c-0.6.16-1.18,0.35-1.61,0.46l-0.14-.14V40.46a18.16,18.16,0,0,1-1.7,1.2,3.29,3.29,0,0,1-1.77.58c-1.54,0-2.86-.94-2.86-3.43V34.28c0-1.22-.18-1.34-0.76-1.47l-0.65-.14V32.14c0.48,0,1.06-.09,1.66-0.16s1.27-.18,1.64-0.25c-0.07.71-.07,1.8-0.07,3.34v3.11c0,2.05,1,2.6,2,2.6a3.58,3.58,0,0,0,2.49-1.11V34.28c0-1.22-.21-1.36-1-1.47l-0.83-.14V32.14c0.62,0,1.41-.09,2.07-0.18s1.2-.16,1.54-0.23v7.69c0,1.15.18,1.29,1.08,1.36l0.62,0v0.6Z" transform="translate(-0.12 0)"/><path class="cls-1" d="M193.56,42v-0.6c1.45-.14,1.66-0.28,1.66-1.8V28.66c0-1.57-.14-1.61-1.59-1.75V26.36a17.73,17.73,0,0,0,3.41-.81v14c0,1.52.18,1.66,1.66,1.8V42h-5.14Z" transform="translate(-0.12 0)"/><path class="cls-1" d="M206.55,42.23a1.77,1.77,0,0,1-1.08-.46,2.2,2.2,0,0,1-.55-1c-0.92.62-2,1.47-2.72,1.47a2.78,2.78,0,0,1-2.76-2.81,2.3,2.3,0,0,1,1.87-2.28,16.5,16.5,0,0,0,3.57-1.5V35.25c0-1.68-.78-2.6-2-2.6a1.35,1.35,0,0,0-1,.44,3.93,3.93,0,0,0-.67,1.52,0.66,0.66,0,0,1-.67.53,1.08,1.08,0,0,1-1-1,1.34,1.34,0,0,1,.71-0.92,10.52,10.52,0,0,1,3.46-1.61,3,3,0,0,1,1.89.62,3.4,3.4,0,0,1,1,2.83v4.26c0,1,.41,1.38.81,1.38a1.75,1.75,0,0,0,.83-0.25l0.23,0.6Zm-1.68-5.81c-0.48.25-1.59,0.74-2.07,1a1.85,1.85,0,0,0-1.41,1.7A1.68,1.68,0,0,0,203,40.85a3,3,0,0,0,1.84-.83V36.42Z" transform="translate(-0.12 0)"/><path class="cls-1" d="M212.09,34.07c0.69-1.17,1.68-2.46,2.79-2.46a1.19,1.19,0,0,1,.6,2.28,0.5,0.5,0,0,1-.6,0,1.36,1.36,0,0,0-1-.46c-0.6,0-1.34.67-1.84,2v4.22c0,1.52.12,1.66,1.89,1.8V42h-5.3v-0.6c1.43-.14,1.59-0.28,1.59-1.8V34.79c0-1.52-.09-1.61-1.43-1.77V32.48a14,14,0,0,0,3.25-.92v2.51h0Z" transform="translate(-0.12 0)"/><path class="cls-1" d="M229.25,30.46c-0.39-1.45-1-3-3-3a2.4,2.4,0,0,0-2.56,2.51c0,1.68,1.11,2.49,2.93,3.41s4,2,4,4.61c0,2.42-2.05,4.35-5.11,4.35a7.88,7.88,0,0,1-2.26-.35,7.09,7.09,0,0,1-1.15-.48C221.9,41,221.6,39,221.44,37.9l0.69-.16c0.35,1.41,1.38,3.73,3.78,3.73a2.55,2.55,0,0,0,2.76-2.76c0-1.7-1.27-2.51-3-3.43-1.47-.81-3.8-1.94-3.8-4.54,0-2.21,1.77-4.1,4.75-4.1a9.57,9.57,0,0,1,2.9.53c0.09,0.81.21,1.73,0.39,3.18Z" transform="translate(-0.12 0)"/><path class="cls-1" d="M242.45,41.4a16.37,16.37,0,0,0-1.77.37c-0.6.16-1.18,0.35-1.61,0.46l-0.14-.14V40.46a18.16,18.16,0,0,1-1.7,1.2,3.29,3.29,0,0,1-1.77.58c-1.54,0-2.86-.94-2.86-3.43V34.28c0-1.22-.18-1.34-0.76-1.47l-0.65-.14V32.14c0.48,0,1.06-.09,1.66-0.16s1.27-.18,1.64-0.25c-0.07.71-.07,1.8-0.07,3.34v3.11c0,2.05,1,2.6,2,2.6a3.58,3.58,0,0,0,2.49-1.11V34.28c0-1.22-.21-1.36-1-1.47l-0.83-.14V32.14c0.62,0,1.41-.09,2.07-0.18s1.2-.16,1.54-0.23v7.69c0,1.15.18,1.29,1.08,1.36l0.62,0v0.6Z" transform="translate(-0.12 0)"/><path class="cls-1" d="M246.39,34.07c0.69-1.17,1.68-2.46,2.79-2.46a1.19,1.19,0,0,1,.6,2.28,0.5,0.5,0,0,1-.6,0,1.36,1.36,0,0,0-1-.46c-0.6,0-1.34.67-1.84,2v4.22c0,1.52.12,1.66,1.89,1.8V42h-5.3v-0.6c1.43-.14,1.59-0.28,1.59-1.8V34.79c0-1.52-.09-1.61-1.43-1.77V32.48a14,14,0,0,0,3.25-.92v2.51h0Z" transform="translate(-0.12 0)"/><path class="cls-1" d="M260.74,32.07a3.63,3.63,0,0,1-1,1.18l-1.31-.07a3.16,3.16,0,0,1,.69,2,3.74,3.74,0,0,1-4,3.69,6.78,6.78,0,0,1-1.17-.12,1.57,1.57,0,0,0-.69,1c0,0.44.41,0.88,1.45,0.88l2.44,0c1.43,0,3.29.46,3.29,2.72s-2.67,4.56-5.74,4.56c-2.58,0-4-1.5-4-2.81a1.79,1.79,0,0,1,.55-1.29c0.46-.46,1.36-1.17,1.91-1.61a3.07,3.07,0,0,1-1.7-1.27,1.69,1.69,0,0,1-.25-1,5,5,0,0,0,2-1.41,3.32,3.32,0,0,1-2-3.09,4,4,0,0,1,4.12-3.82h0a4.29,4.29,0,0,1,2.21.62c1.11-.07,2.28-0.21,3.13-0.35Zm-7.23,10.62a2.57,2.57,0,0,0-1.06,1.8c0,1.27,1.34,2.21,3,2.21,2.19,0,3.32-1.13,3.32-2.56a1.68,1.68,0,0,0-1-1.64,6,6,0,0,0-2.26-.3A2.89,2.89,0,0,0,253.51,42.69Zm-0.39-7.63c0,1.8.9,3.09,2.17,3.09,1,0,1.91-.92,1.91-2.74s-0.85-3.09-2.19-3.09C254,32.32,253.12,33.29,253.12,35.06Z" transform="translate(-0.12 0)"/><path class="cls-1" d="M269.09,40a5.26,5.26,0,0,1-3.76,2.21c-2.83,0-4.49-2.3-4.49-4.91a6,6,0,0,1,1.52-4,4.76,4.76,0,0,1,3.36-1.68h0a3.58,3.58,0,0,1,3.45,3.5,0.59,0.59,0,0,1-.53.74c-0.37.07-3.27,0.3-6,.39,0,3.13,1.84,4.42,3.46,4.42a3.81,3.81,0,0,0,2.65-1.15Zm-6.34-4.72c1.29,0,2.58,0,3.92-.07,0.41,0,.55-0.12.55-0.46a2.12,2.12,0,0,0-2.05-2.3C264.13,32.46,263.1,33.43,262.75,35.3Z" transform="translate(-0.12 0)"/><path class="cls-1" d="M273.42,34.07c0.69-1.17,1.68-2.46,2.79-2.46a1.19,1.19,0,0,1,.6,2.28,0.5,0.5,0,0,1-.6,0,1.37,1.37,0,0,0-1-.46c-0.6,0-1.34.67-1.84,2v4.22c0,1.52.12,1.66,1.89,1.8V42H270v-0.6c1.43-.14,1.59-0.28,1.59-1.8V34.79c0-1.52-.09-1.61-1.43-1.77V32.48a14,14,0,0,0,3.25-.92v2.51h0Z" transform="translate(-0.12 0)"/><path class="cls-1" d="M288.85,32.48c-1.22.18-1.41,0.37-2,1.66s-1.31,3.13-2.9,6.93a51.13,51.13,0,0,0-2.37,6.22,0.68,0.68,0,0,1-.74.58,1.3,1.3,0,0,1-1.29-1.11,1,1,0,0,1,.58-0.85,4.67,4.67,0,0,0,1.73-2,14.57,14.57,0,0,0,.71-1.59,1.47,1.47,0,0,0,0-1c-0.92-2.63-2-5.41-2.63-7-0.51-1.27-.71-1.57-2-1.73v-0.6h4.65l0,0.6c-1.08.16-1.2,0.39-.88,1.27l2.07,5.76c0.64-1.57,1.66-4.28,2.12-5.74,0.28-.85.14-1.13-1.2-1.29v-0.6h4.17v0.6Z" transform="translate(-0.12 0)"/><path class="cls-1" d="M308.44,35.64c-1.38.18-1.47,0.3-1.47,1.66v2a10.74,10.74,0,0,0,.16,2.19,23.71,23.71,0,0,1-5.16.83c-5.07,0-8.45-3.16-8.45-7.74,0-5.32,4.28-7.92,8.8-7.92a19.53,19.53,0,0,1,4.45.67c0.07,0.81.18,2.07,0.35,3.59l-0.65.14c-0.55-2.83-2.28-3.59-4.49-3.59-3.52,0-6.1,2.6-6.1,6.84,0,3.34,2,7.21,6.4,7.21a4.63,4.63,0,0,0,2-.39,1.41,1.41,0,0,0,.74-1.52v-2c0-1.66-.14-1.82-2.42-2V35h5.85v0.64Z" transform="translate(-0.12 0)"/><path class="cls-1" d="M312.42,34.07c0.69-1.17,1.68-2.46,2.79-2.46a1.19,1.19,0,0,1,.6,2.28,0.5,0.5,0,0,1-.6,0,1.37,1.37,0,0,0-1-.46c-0.6,0-1.34.67-1.84,2v4.22c0,1.52.12,1.66,1.89,1.8V42H309v-0.6c1.43-.14,1.59-0.28,1.59-1.8V34.79c0-1.52-.09-1.61-1.43-1.77V32.48a14,14,0,0,0,3.25-.92v2.51h0Z" transform="translate(-0.12 0)"/><path class="cls-1" d="M326.78,36.75a5.13,5.13,0,0,1-5,5.48,5,5,0,0,1-5-5.09,5.25,5.25,0,0,1,5.07-5.53A5,5,0,0,1,326.78,36.75Zm-7.9-.35c0,2.9,1.24,5.07,3.16,5.07,1.43,0,2.6-1.06,2.6-4.22,0-2.67-1.08-4.88-3.13-4.88C320.12,32.37,318.88,33.8,318.88,36.4Z" transform="translate(-0.12 0)"/><path class="cls-1" d="M338.73,41.4a16.37,16.37,0,0,0-1.77.37c-0.6.16-1.18,0.35-1.61,0.46l-0.14-.14V40.46a18.17,18.17,0,0,1-1.7,1.2,3.29,3.29,0,0,1-1.77.58c-1.54,0-2.86-.94-2.86-3.43V34.28c0-1.22-.18-1.34-0.76-1.47l-0.65-.14V32.14c0.48,0,1.06-.09,1.66-0.16s1.27-.18,1.64-0.25c-0.07.71-.07,1.8-0.07,3.34v3.11c0,2.05,1,2.6,2,2.6a3.58,3.58,0,0,0,2.49-1.11V34.28c0-1.22-.21-1.36-1-1.47l-0.83-.14V32.14c0.62,0,1.41-.09,2.07-0.18s1.2-.16,1.54-0.23v7.69c0,1.15.18,1.29,1.08,1.36l0.62,0v0.6Z" transform="translate(-0.12 0)"/><path class="cls-1" d="M344.2,32a2.37,2.37,0,0,1,1.13-.37A4.12,4.12,0,0,1,349.4,36c0,3.48-2.74,5.71-5.74,6.27a3.82,3.82,0,0,1-1.59-.41v3c0,1.75.16,1.89,1.94,2v0.62h-5.44V46.86c1.47-.14,1.68-0.28,1.68-1.8V34.65c0-1.5-.09-1.54-1.52-1.73V32.37a17.44,17.44,0,0,0,3.34-1V33.2Zm-2.12,8.22a3.14,3.14,0,0,0,2.17.9c1.94,0,3.23-1.66,3.23-4.24S346,33,344.38,33a4.37,4.37,0,0,0-2.3,1V40.2Z" transform="translate(-0.12 0)"/><path class="cls-2" d="M96.15,59.36a17.88,17.88,0,0,1-.9,2.43,14.58,14.58,0,0,1-2.9.41c-3.93,0-5.64-2.71-5.64-5.22,0-3.33,2.55-5.5,6.07-5.5a12.47,12.47,0,0,1,2.79.43c0.13,0.88.22,1.53,0.32,2.36l-0.46.13A2.77,2.77,0,0,0,92.35,52c-2.63,0-4,2.22-4,4.62,0,2.95,1.73,5,4.13,5,1.61,0,2.46-.87,3.25-2.43Z" transform="translate(-0.12 0)"/><path class="cls-2" d="M101.73,62.15a1.21,1.21,0,0,1-.74-0.32,1.5,1.5,0,0,1-.38-0.69,5,5,0,0,1-1.86,1,1.9,1.9,0,0,1-1.89-1.92,1.57,1.57,0,0,1,1.28-1.56,11.31,11.31,0,0,0,2.44-1V57.37c0-1.15-.54-1.78-1.34-1.78a0.93,0.93,0,0,0-.71.3,2.69,2.69,0,0,0-.46,1,0.45,0.45,0,0,1-.46.36,0.74,0.74,0,0,1-.68-0.68A0.92,0.92,0,0,1,97.43,56a7.2,7.2,0,0,1,2.36-1.1,2.06,2.06,0,0,1,1.29.43,2.33,2.33,0,0,1,.71,1.94v2.92c0,0.71.28,0.95,0.55,0.95a1.2,1.2,0,0,0,.57-0.17l0.16,0.41Zm-1.15-4c-0.33.17-1.09,0.5-1.42,0.66a1.26,1.26,0,0,0-1,1.17,1.15,1.15,0,0,0,1.12,1.2,2.06,2.06,0,0,0,1.26-.57V58.18Z" transform="translate(-0.12 0)"/><path class="cls-2" d="M105.51,56.57c0.47-.8,1.15-1.69,1.91-1.69a0.81,0.81,0,0,1,.41,1.56,0.34,0.34,0,0,1-.41,0,0.93,0.93,0,0,0-.68-0.32,1.77,1.77,0,0,0-1.26,1.34v2.89c0,1,.08,1.14,1.29,1.23V62h-3.63V61.55c1-.09,1.09-0.19,1.09-1.23V57.06c0-1-.06-1.1-1-1.21V55.48a9.58,9.58,0,0,0,2.22-.63v1.72h0Z" transform="translate(-0.12 0)"/><path class="cls-2" d="M116,61.55a16.28,16.28,0,0,0-2.44.6v-1l-1,.57a2.9,2.9,0,0,1-1.23.46,3.16,3.16,0,0,1-2.92-3.36,4,4,0,0,1,4.05-3.91,3.32,3.32,0,0,1,1.06.19V52.82c0-1-.08-1.07-1.21-1.15V51.27a14.75,14.75,0,0,0,2.46-.54v9.41c0,0.82.11,0.9,0.69,1l0.5,0v0.39Zm-2.44-5.27a2,2,0,0,0-1.62-.8c-0.74,0-2.07.6-2.07,2.89,0,1.88,1.15,2.79,2.18,2.79a2.7,2.7,0,0,0,1.51-.54V56.29Z" transform="translate(-0.12 0)"/><path class="cls-2" d="M116.31,62V61.55c1-.09,1.1-0.19,1.1-1.26V57c0-1,0-1.06-1-1.2V55.47a9.7,9.7,0,0,0,2.24-.61v5.44c0,1.07.11,1.17,1.12,1.26V62h-3.47Zm0.84-9.25a0.81,0.81,0,0,1,.8-0.82,0.79,0.79,0,0,1,.79.82,0.81,0.81,0,0,1-.8.8A0.83,0.83,0,0,1,117.15,52.71Z" transform="translate(-0.12 0)"/><path class="cls-2" d="M125.46,62.15a1.21,1.21,0,0,1-.74-0.32,1.5,1.5,0,0,1-.38-0.69,5,5,0,0,1-1.86,1,1.9,1.9,0,0,1-1.89-1.92,1.57,1.57,0,0,1,1.28-1.56,11.31,11.31,0,0,0,2.44-1V57.37c0-1.15-.54-1.78-1.34-1.78a0.93,0.93,0,0,0-.71.3,2.69,2.69,0,0,0-.46,1,0.45,0.45,0,0,1-.46.36,0.74,0.74,0,0,1-.68-0.68,0.92,0.92,0,0,1,.49-0.63,7.2,7.2,0,0,1,2.36-1.1,2.06,2.06,0,0,1,1.29.43,2.33,2.33,0,0,1,.71,1.94v2.92c0,0.71.28,0.95,0.55,0.95a1.2,1.2,0,0,0,.57-0.17l0.16,0.41Zm-1.15-4c-0.33.17-1.09,0.5-1.42,0.66a1.26,1.26,0,0,0-1,1.17,1.15,1.15,0,0,0,1.12,1.2,2.06,2.06,0,0,0,1.26-.57V58.18Z" transform="translate(-0.12 0)"/><path class="cls-2" d="M132.93,60.54a3.72,3.72,0,0,1-2.66,1.61,3.16,3.16,0,0,1-3.17-3.29,3.76,3.76,0,0,1,1.59-3.07,4.2,4.2,0,0,1,2.35-.9h0a2.26,2.26,0,0,1,1.42.43,0.56,0.56,0,0,1,.25.47,0.77,0.77,0,0,1-.52.68,0.43,0.43,0,0,1-.3-0.17,2.29,2.29,0,0,0-1.59-.65c-1,0-1.94.87-1.94,2.52,0,2.19,1.48,2.92,2.38,2.92a2.53,2.53,0,0,0,1.91-.87Z" transform="translate(-0.12 0)"/><path class="cls-2" d="M141.77,62.15a1.21,1.21,0,0,1-.74-0.32,1.5,1.5,0,0,1-.38-0.69,5,5,0,0,1-1.86,1,1.9,1.9,0,0,1-1.89-1.92,1.57,1.57,0,0,1,1.28-1.56,11.32,11.32,0,0,0,2.44-1V57.37c0-1.15-.54-1.78-1.34-1.78a0.93,0.93,0,0,0-.71.3,2.69,2.69,0,0,0-.46,1,0.45,0.45,0,0,1-.46.36,0.74,0.74,0,0,1-.68-0.68,0.92,0.92,0,0,1,.49-0.63,7.2,7.2,0,0,1,2.36-1.1,2.06,2.06,0,0,1,1.29.43,2.33,2.33,0,0,1,.71,1.94v2.92c0,0.71.28,0.95,0.55,0.95a1.2,1.2,0,0,0,.57-0.17l0.16,0.41Zm-1.15-4c-0.33.17-1.09,0.5-1.42,0.66a1.26,1.26,0,0,0-1,1.17,1.15,1.15,0,0,0,1.12,1.2,2.06,2.06,0,0,0,1.26-.57V58.18Z" transform="translate(-0.12 0)"/><path class="cls-2" d="M147.63,62V61.55c0.93-.09,1-0.22,1-1.31V57.61c0-1.09-.38-1.8-1.43-1.8a2.82,2.82,0,0,0-1.72.8v3.7c0,1.07.09,1.14,1,1.23V62h-3.42V61.55c1.07-.11,1.15-0.19,1.15-1.23V57.07c0-1-.09-1.07-0.95-1.23V55.48a10.28,10.28,0,0,0,2.19-.63V56.1c0.32-.24.66-0.47,1.06-0.74a2.42,2.42,0,0,1,1.31-.47c1.26,0,2,.88,2,2.4v3c0,1.07.09,1.14,1,1.23V62h-3.29Z" transform="translate(-0.12 0)"/><path class="cls-2" d="M159,61.55a16.27,16.27,0,0,0-2.44.6v-1l-1,.57a2.9,2.9,0,0,1-1.23.46,3.16,3.16,0,0,1-2.92-3.36,4,4,0,0,1,4.05-3.91,3.32,3.32,0,0,1,1.06.19V52.82c0-1-.08-1.07-1.21-1.15V51.27a14.76,14.76,0,0,0,2.46-.54v9.41c0,0.82.11,0.9,0.69,1l0.5,0v0.39Zm-2.44-5.27a2,2,0,0,0-1.62-.8c-0.74,0-2.07.6-2.07,2.89,0,1.88,1.15,2.79,2.18,2.79a2.7,2.7,0,0,0,1.51-.54V56.29Z" transform="translate(-0.12 0)"/><path class="cls-2" d="M174.58,62V61.55c0.93-.09,1-0.21,1-1.23V57.74c0-1.31-.49-2-1.56-2a2.13,2.13,0,0,0-1.62.84v3.7c0,1,.08,1.14,1,1.23V62h-3.39V61.55c1-.09,1.1-0.21,1.1-1.25V52.38a27.42,27.42,0,0,0-3.07-.11H167V60c0,1.32.13,1.45,1.58,1.54V62h-4.45V61.54c1.4-.09,1.53-0.22,1.53-1.54V52.27h-1c-1.4,0-1.69.14-1.91,0.52a4.73,4.73,0,0,0-.52,1.39h-0.46c0.08-.93.16-2,0.19-2.85h0.3a0.82,0.82,0,0,0,.87.39h6.56c1.31,0,1.5-.09,1.5-0.41V51.07a7.9,7.9,0,0,0,1.25-.36V56a3.39,3.39,0,0,1,2.21-1.14c1.32,0,2.22.8,2.22,2.68v2.76c0,1.06.11,1.15,1.06,1.23V62h-3.34Z" transform="translate(-0.12 0)"/><path class="cls-2" d="M185.22,58.4a3.51,3.51,0,0,1-3.42,3.75,3.41,3.41,0,0,1-3.45-3.48,3.6,3.6,0,0,1,3.47-3.78A3.42,3.42,0,0,1,185.22,58.4Zm-5.41-.24c0,2,.85,3.47,2.16,3.47,1,0,1.78-.73,1.78-2.89,0-1.83-.74-3.34-2.14-3.34C180.67,55.4,179.82,56.38,179.82,58.16Z" transform="translate(-0.12 0)"/><path class="cls-2" d="M188.11,56.57c0.47-.8,1.15-1.69,1.91-1.69a0.81,0.81,0,0,1,.41,1.56,0.34,0.34,0,0,1-.41,0,0.93,0.93,0,0,0-.68-0.32,1.77,1.77,0,0,0-1.26,1.34v2.89c0,1,.08,1.14,1.29,1.23V62h-3.63V61.55c1-.09,1.09-0.19,1.09-1.23V57.06c0-1-.06-1.1-1-1.21V55.48a9.58,9.58,0,0,0,2.22-.63v1.72h0Z" transform="translate(-0.12 0)"/><path class="cls-2" d="M196.16,62.15a1.21,1.21,0,0,1-.74-0.32,1.5,1.5,0,0,1-.38-0.69,5,5,0,0,1-1.86,1,1.9,1.9,0,0,1-1.89-1.92,1.57,1.57,0,0,1,1.28-1.56,11.32,11.32,0,0,0,2.44-1V57.37c0-1.15-.54-1.78-1.34-1.78a0.93,0.93,0,0,0-.71.3,2.69,2.69,0,0,0-.46,1,0.45,0.45,0,0,1-.46.36,0.74,0.74,0,0,1-.68-0.68,0.92,0.92,0,0,1,.49-0.63,7.2,7.2,0,0,1,2.36-1.1,2.06,2.06,0,0,1,1.29.43,2.33,2.33,0,0,1,.71,1.94v2.92c0,0.71.28,0.95,0.55,0.95a1.2,1.2,0,0,0,.57-0.17l0.16,0.41Zm-1.15-4c-0.33.17-1.09,0.5-1.42,0.66a1.26,1.26,0,0,0-1,1.17,1.15,1.15,0,0,0,1.12,1.2,2.06,2.06,0,0,0,1.26-.57V58.18Z" transform="translate(-0.12 0)"/><path class="cls-2" d="M203.62,60.54A3.72,3.72,0,0,1,201,62.15a3.16,3.16,0,0,1-3.17-3.29,3.76,3.76,0,0,1,1.59-3.07,4.2,4.2,0,0,1,2.35-.9h0a2.26,2.26,0,0,1,1.42.43,0.56,0.56,0,0,1,.25.47,0.77,0.77,0,0,1-.52.68,0.43,0.43,0,0,1-.3-0.17,2.3,2.3,0,0,0-1.59-.65c-1,0-1.94.87-1.94,2.52,0,2.19,1.48,2.92,2.38,2.92a2.53,2.53,0,0,0,1.91-.87Z" transform="translate(-0.12 0)"/><path class="cls-2" d="M204,62V61.55c1-.09,1.1-0.19,1.1-1.26V57c0-1,0-1.06-1-1.2V55.47a9.71,9.71,0,0,0,2.24-.61v5.44c0,1.07.11,1.17,1.12,1.26V62H204Zm0.84-9.25a0.81,0.81,0,0,1,.8-0.82,0.79,0.79,0,0,1,.79.82,0.81,0.81,0,0,1-.8.8A0.83,0.83,0,0,1,204.82,52.71Z" transform="translate(-0.12 0)"/><path class="cls-2" d="M213.73,60.54a3.72,3.72,0,0,1-2.66,1.61,3.16,3.16,0,0,1-3.17-3.29,3.76,3.76,0,0,1,1.59-3.07,4.2,4.2,0,0,1,2.35-.9h0a2.26,2.26,0,0,1,1.42.43,0.56,0.56,0,0,1,.25.47,0.77,0.77,0,0,1-.52.68,0.43,0.43,0,0,1-.3-0.17,2.3,2.3,0,0,0-1.59-.65c-1,0-1.94.87-1.94,2.52,0,2.19,1.48,2.92,2.38,2.92a2.53,2.53,0,0,0,1.91-.87Z" transform="translate(-0.12 0)"/><path class="cls-2" d="M222.76,54.09c-0.27-1-.69-2.08-2.07-2.08a1.64,1.64,0,0,0-1.75,1.72c0,1.15.76,1.7,2,2.33s2.73,1.37,2.73,3.15-1.4,3-3.5,3a5.39,5.39,0,0,1-1.54-.24,4.9,4.9,0,0,1-.79-0.33c-0.11-.33-0.31-1.69-0.43-2.44l0.47-.11c0.24,1,.95,2.55,2.59,2.55a1.75,1.75,0,0,0,1.89-1.89c0-1.17-.87-1.72-2-2.35-1-.55-2.6-1.32-2.6-3.11,0-1.51,1.21-2.81,3.25-2.81a6.53,6.53,0,0,1,2,.36c0.06,0.55.14,1.18,0.27,2.18Z" transform="translate(-0.12 0)"/><path class="cls-2" d="M231.79,61.58a11.19,11.19,0,0,0-1.21.25l-1.1.32-0.09-.09V60.94a12.48,12.48,0,0,1-1.17.82,2.25,2.25,0,0,1-1.21.39c-1.06,0-2-.65-2-2.35V56.71c0-.84-0.13-0.91-0.52-1l-0.44-.09V55.25c0.33,0,.73-0.06,1.14-0.11l1.12-.17c0,0.49,0,1.23,0,2.29v2.13c0,1.4.68,1.78,1.39,1.78a2.45,2.45,0,0,0,1.7-.76V56.71c0-.84-0.14-0.93-0.66-1l-0.57-.09V55.25c0.43,0,1-.06,1.42-0.13s0.82-.11,1.06-0.16v5.27c0,0.79.13,0.88,0.74,0.93l0.43,0v0.41Z" transform="translate(-0.12 0)"/><path class="cls-2" d="M234.49,56.57c0.47-.8,1.15-1.69,1.91-1.69a0.81,0.81,0,0,1,.41,1.56,0.34,0.34,0,0,1-.41,0,0.93,0.93,0,0,0-.68-0.32,1.77,1.77,0,0,0-1.26,1.34v2.89c0,1,.08,1.14,1.29,1.23V62h-3.63V61.55c1-.09,1.09-0.19,1.09-1.23V57.06c0-1-.06-1.1-1-1.21V55.48a9.58,9.58,0,0,0,2.22-.63v1.72h0Z" transform="translate(-0.12 0)"/><path class="cls-2" d="M244.31,55.2a2.5,2.5,0,0,1-.71.8l-0.9,0a2.16,2.16,0,0,1,.47,1.39,2.56,2.56,0,0,1-2.76,2.52,4.66,4.66,0,0,1-.8-0.08,1.08,1.08,0,0,0-.47.66c0,0.3.28,0.6,1,.6l1.67,0c1,0,2.25.32,2.25,1.86S242.23,66,240.13,66c-1.77,0-2.73-1-2.74-1.92a1.23,1.23,0,0,1,.38-0.88c0.32-.32.93-0.8,1.31-1.1a2.1,2.1,0,0,1-1.17-.87,1.15,1.15,0,0,1-.17-0.66,3.4,3.4,0,0,0,1.39-1,2.27,2.27,0,0,1-1.39-2.11,2.71,2.71,0,0,1,2.82-2.62h0a2.93,2.93,0,0,1,1.51.43c0.76,0,1.56-.14,2.14-0.24Zm-5,7.27a1.76,1.76,0,0,0-.73,1.23c0,0.87.91,1.51,2.08,1.51,1.5,0,2.27-.77,2.27-1.75a1.15,1.15,0,0,0-.71-1.12,4.11,4.11,0,0,0-1.54-.2A2,2,0,0,0,239.36,62.47Zm-0.27-5.22c0,1.23.61,2.11,1.48,2.11,0.69,0,1.31-.63,1.31-1.88s-0.58-2.11-1.5-2.11C239.72,55.37,239.09,56,239.09,57.25Z" transform="translate(-0.12 0)"/><path class="cls-2" d="M250,60.64a3.6,3.6,0,0,1-2.57,1.51,3.12,3.12,0,0,1-3.07-3.36,4.09,4.09,0,0,1,1-2.76,3.26,3.26,0,0,1,2.3-1.15h0a2.45,2.45,0,0,1,2.36,2.4,0.4,0.4,0,0,1-.36.5c-0.25,0-2.24.2-4.13,0.27,0,2.14,1.26,3,2.36,3a2.61,2.61,0,0,0,1.81-.79Zm-4.34-3.23c0.88,0,1.77,0,2.68,0,0.28,0,.38-0.08.38-0.32a1.45,1.45,0,0,0-1.4-1.58C246.62,55.47,245.91,56.13,245.68,57.41Z" transform="translate(-0.12 0)"/><path class="cls-2" d="M253,56.57c0.47-.8,1.15-1.69,1.91-1.69a0.81,0.81,0,0,1,.41,1.56,0.34,0.34,0,0,1-.41,0,0.93,0.93,0,0,0-.68-0.32,1.77,1.77,0,0,0-1.26,1.34v2.89c0,1,.08,1.14,1.29,1.23V62h-3.63V61.55c1-.09,1.09-0.19,1.09-1.23V57.06c0-1-.06-1.1-1-1.21V55.48a9.58,9.58,0,0,0,2.22-.63v1.72h0Z" transform="translate(-0.12 0)"/><path class="cls-2" d="M263.54,55.48a1.42,1.42,0,0,0-1.39,1.14c-0.41.84-.9,2.14-2,4.75a34.82,34.82,0,0,0-1.62,4.26,0.47,0.47,0,0,1-.5.39,0.89,0.89,0,0,1-.88-0.76,0.68,0.68,0,0,1,.39-0.58,3.19,3.19,0,0,0,1.18-1.39,9.94,9.94,0,0,0,.49-1.09,1,1,0,0,0,0-.71c-0.63-1.8-1.34-3.7-1.8-4.82A1.35,1.35,0,0,0,256,55.48V55.07h3.18l0,0.41c-0.74.11-.82,0.27-0.6,0.87l1.42,3.94c0.44-1.07,1.14-2.93,1.45-3.93,0.19-.58.09-0.77-0.82-0.88V55.07h2.85v0.41Z" transform="translate(-0.12 0)"/></svg>