<svg id="Layer_1" data-name="Layer 1" xmlns="http://www.w3.org/2000/svg" viewBox="0 0 350 105.53"><defs><style>.cls-1{fill:#000100;}.cls-2{fill:#39499b;}</style></defs><title>tn-brain-and-spine</title><path class="cls-1" d="M8.73,64.12v-1.5l2.5-.29V36.41c-4.34,0-6.26,3.17-7.84,6.88l-1.17-.17,1.54-8.85a12.69,12.69,0,0,0,2.38.5A27.75,27.75,0,0,0,9,34.91h8.51a15.16,15.16,0,0,0,5.22-.63l1.54,8.85-1.17.17c-1.59-3.71-3.5-6.88-7.84-6.88V62.33l2.5,0.29v1.5h-9Z"/><path class="cls-1" d="M30.34,40.63H30.26V58.32c0,2,.67,4.3,3.46,4.3v1.5H25v-1.5a3.43,3.43,0,0,0,3.46-3.67V39.17c0-1.34-.67-2.75-3.46-2.75v-1.5h6.26l14.31,22h0.08V40.63c0-2.63-.25-4-3.13-4.21v-1.5h8.09v1.5c-2.88.21-3.13,2.34-3.13,4.67v23H45.87Z"/><path class="cls-1" d="M64,36.71l-2.5-.29v-1.5H72.32c8.76,0,9.81,4,9.81,6.76,0,4-3,5.88-6.26,6.51v0.08c4.13,0.92,7.43,3.42,7.43,8.05,0,5-3.34,7.8-9.93,7.8H61.52v-1.5l2.5-.29V36.71Zm4,25.66a14.54,14.54,0,0,0,2.8.25c5.09,0,8.05-1.59,8.05-6.8,0-4.59-3.25-6.84-8.05-6.84a19.32,19.32,0,0,0-2.8.13V62.37Zm0.08-14.9h1.42c4.13,0,8.6-.5,8.6-5.59,0-4.3-2.8-5.47-7.93-5.47-0.71,0-1.38.08-2.09,0.08v11Z"/><path class="cls-1" d="M86.76,64.12V62.87l2.09-.29V51.52c0-2.75-.75-5.09-1.84-5.09a6.53,6.53,0,0,0-.88.17V45.34l4.13-1.75a22.74,22.74,0,0,1,1.67,7.26H92c0.42-2.34,2.67-7.26,5.68-7.26A2.16,2.16,0,0,1,100,45.89a2.61,2.61,0,0,1-2.17,2.17c-1,0-1.5-.5-2.13-0.5-1.84,0-3.51,5.88-3.51,9v6.05l2.09,0.29v1.25H86.76Z"/><path class="cls-1" d="M114.89,61.16a1,1,0,0,0,1,1.17,1.85,1.85,0,0,0,1.34-.75l0.88,0.83a4.77,4.77,0,0,1-3.92,2.34A2.74,2.74,0,0,1,111.63,62a8.59,8.59,0,0,1-5.84,2.75,5,5,0,0,1-5.26-5c0-5.3,6.63-7.89,11-8.89,0-4.55-2.75-5.8-4.09-5.8-1.54,0-.83,2.8-3.63,2.8A1.77,1.77,0,0,1,102,46c0-1.79,1-2.38,3.76-2.38,2.55,0,9.1,1.38,9.1,7.22V61.16Zm-3.38-8.72c-2.8.5-7.34,2.29-7.34,6.43a3.2,3.2,0,0,0,3.38,3.46,5.16,5.16,0,0,0,4-2.21V52.44Z"/><path class="cls-1" d="M119.15,64.12V62.87l2.09-.29V50.23c0-2.88-.38-3.63-1.25-3.63a3.56,3.56,0,0,0-1,.17V45.51l5.76-1.92c0,0.88-.08,1.63-0.08,2.55V62.58l2.09,0.29v1.25h-7.55Zm6.09-27.62a2.3,2.3,0,1,1-2.29-2.21A2.15,2.15,0,0,1,125.24,36.5Z"/><path class="cls-1" d="M129.2,64.12V62.87l2.09-.29V49c0-2.21-.67-2.59-2.21-2.59V45.34l4.3-1.75a18.1,18.1,0,0,1,1.29,3.17c1.84-1.63,3-3.17,6.34-3.17,3.92,0,6.59,2.25,6.59,7.43V62.58l2.09,0.29v1.25h-7.55V62.87l2.09-.29V51.19c0-3.09-1.29-5.17-4.38-5.17-2.25,0-3.67,1.13-5.17,2.88V62.58l2.09,0.29v1.25H129.2Z"/><path class="cls-1" d="M174.48,61.16a1,1,0,0,0,1,1.17,1.85,1.85,0,0,0,1.33-.75l0.88,0.83a4.77,4.77,0,0,1-3.92,2.34A2.75,2.75,0,0,1,171.22,62a8.59,8.59,0,0,1-5.84,2.75,5,5,0,0,1-5.26-5c0-5.3,6.63-7.89,11-8.89,0-4.55-2.75-5.8-4.09-5.8-1.54,0-.83,2.8-3.63,2.8A1.77,1.77,0,0,1,161.63,46c0-1.79,1-2.38,3.76-2.38,2.55,0,9.1,1.38,9.1,7.22V61.16Zm-3.38-8.72c-2.8.5-7.34,2.29-7.34,6.43a3.2,3.2,0,0,0,3.38,3.46,5.16,5.16,0,0,0,4-2.21V52.44Z"/><path class="cls-1" d="M178.24,64.12V62.87l2.09-.29V49c0-2.21-.67-2.59-2.21-2.59V45.34l4.3-1.75a18.07,18.07,0,0,1,1.29,3.17c1.84-1.63,3-3.17,6.34-3.17,3.92,0,6.59,2.25,6.59,7.43V62.58l2.09,0.29v1.25h-7.55V62.87l2.09-.29V51.19c0-3.09-1.29-5.17-4.38-5.17-2.25,0-3.67,1.13-5.17,2.88V62.58l2.09,0.29v1.25h-7.55Z"/><path class="cls-1" d="M216.42,59.49c0,1.59.21,2.55,2.13,2.55v1.25l-4,1.46-1.17-3c-1.59,1.54-3.25,3-5.84,3-4.17,0-7.05-5-7.05-9.93,0-6.43,3.76-11.22,8.1-11.22a7.39,7.39,0,0,1,4.51,1.34V37c0-.75-0.21-1.08-0.67-1.08a5.89,5.89,0,0,0-1.63.17V34.79l5.72-1.88c0,0.88-.08,1.63-0.08,2.55v24ZM213,48.26c0-1.67-2.13-3.42-4-3.42-4.13,0-5.13,4.84-5.13,7.68,0,4.67,1.79,9.1,5.43,9.1A5.17,5.17,0,0,0,213,59.86V48.26Z"/><path class="cls-1" d="M229.81,55.15l1.34-.29c1.67,3.63,4.51,8.22,9.35,8.22,2.5,0,5.59-1.84,5.59-5.13,0-8.6-14.94-5.76-14.94-15.77a7.57,7.57,0,0,1,7.76-7.89,7.66,7.66,0,0,1,2.8.63,7.48,7.48,0,0,0,1.88.63,5.52,5.52,0,0,0,2.63-.92l1.67,8.47-1.46.21c-1.46-3.51-3.55-7.34-8-7.34a4.16,4.16,0,0,0-4.34,4.42c0,8.6,15.19,4.84,15.19,15.94,0,4.13-3.13,8.43-9.1,8.43-2.5,0-3.59-1.46-5.76-1.46a6.24,6.24,0,0,0-3,1Z"/><path class="cls-1" d="M251.39,71.17V69.92l2.09-.29V50.1c0-2.88-.38-3.63-1.25-3.63a3.58,3.58,0,0,0-1,.17V45.39l4.26-1.79a26.81,26.81,0,0,1,1.34,3.17c1.42-1.59,3.21-3.17,5.51-3.17,4.63,0,7.14,5,7.14,9.64,0,7.34-4.34,11.22-8.14,11.22a8.48,8.48,0,0,1-4.51-1v6.18l2.09,0.29v1.25h-7.47Zm5.47-10.77c0,1.13,2.21,2.8,4,2.8,3.92,0,5.17-4.13,5.17-8s-1.25-8.85-5.34-8.85a4.71,4.71,0,0,0-3.84,2.34V60.41Z"/><path class="cls-1" d="M272.09,64.12V62.87l2.09-.29V50.23c0-2.88-.38-3.63-1.25-3.63a3.56,3.56,0,0,0-1,.17V45.51l5.76-1.92c0,0.88-.08,1.63-0.08,2.55V62.58l2.09,0.29v1.25h-7.55Zm6.09-27.62a2.3,2.3,0,1,1-2.29-2.21A2.15,2.15,0,0,1,278.18,36.5Z"/><path class="cls-1" d="M282.14,64.12V62.87l2.09-.29V49c0-2.21-.67-2.59-2.21-2.59V45.34l4.3-1.75a18.08,18.08,0,0,1,1.29,3.17c1.84-1.63,3-3.17,6.34-3.17,3.92,0,6.59,2.25,6.59,7.43V62.58l2.09,0.29v1.25h-7.55V62.87l2.09-.29V51.19c0-3.09-1.29-5.17-4.38-5.17-2.25,0-3.67,1.13-5.17,2.88V62.58l2.09,0.29v1.25h-7.55Z"/><path class="cls-1" d="M308.06,55c0.13,2.88,2,7,5.8,7,2.34,0,3.76-1.34,5-3.34l1,0.71c-1.34,3-3.8,5.42-7.34,5.42-5.42,0-8.14-4.88-8.14-9.76,0-6.93,3.63-11.39,7.72-11.39,4.63,0,6.72,3.88,7.3,8Zm5.38-3.46c1.34-.38,2.21-0.79,2.21-2.67,0-1.59-.79-3.76-3.21-3.76-3.55,0-4.59,3.34-4.59,5.84,0,1.29,0,1.71,0,2.13Z"/><path class="cls-2" d="M163.63,0C153.9,0,144.35.21,135,.62q5.12,0,10.32.16C248.24,3.12,331.15,27,330.53,54.19S246,101.45,143.1,99.11C85.36,97.8,33.93,89.69,0,78c31.63,16.38,93,27.49,163.63,27.49C266.56,105.53,350,81.9,350,52.76S266.56,0,163.63,0Z"/></svg>