<svg id="Layer_1" data-name="Layer 1" xmlns="http://www.w3.org/2000/svg" viewBox="0 0 350 132.29"><defs><style>.cls-1{fill:#005a9c;}.cls-2{fill:#a90533;}</style></defs><title>logo</title><path class="cls-1" d="M88.46,110.22c0-1.34-.21-1.48-2.08-1.56v-1h14.21v4.88h-1c-0.82-2.61-1.29-3.66-4-3.66h-2c-0.74,0-.92.18-0.92,0.95v5.83h2.5c1.66,0,2-.45,2.43-2.37h1v6.12h-1c-0.42-1.92-.76-2.37-2.43-2.37h-2.5v5.75c0,1.69.82,1.92,3.24,1.92,3.11,0,3.56-1.45,4.51-4.27h1l-0.32,5.48H86.38v-1c1.87-.08,2.08-0.21,2.08-1.56V110.22Z"/><path class="cls-1" d="M108,123.8c0,0.87.29,1,.84,1.05l0.55,0.05v1h-7.09v-1c1.5-.08,1.71-0.18,1.71-1.29v-7.75c0-1.05-.21-1.29-0.63-1.34l-0.92-.13v-0.95l5.19-.76,0.34,1.82c1.45-.92,2.66-1.82,4.38-1.82a3.87,3.87,0,0,1,3.59,2c1.13-.71,2.77-2,4.59-2,2.79,0,4.09,1.58,4.11,4.09v6.85c0,1.11.21,1.21,1.71,1.29v1h-7.09v-1l0.55-.05c0.55-.05.84-0.18,0.84-1.05v-6.56c-0.05-1.66-.82-2.56-2.06-2.53a2.25,2.25,0,0,0-2.19,1.87,6.14,6.14,0,0,0-.11,1.27v6c0,0.87.29,1,.84,1.05l0.55,0.05v1h-6.78v-1l0.55-.05c0.55-.05.84-0.18,0.84-1.05v-6.56c0-1.5-.61-2.53-1.9-2.53a2.32,2.32,0,0,0-2.35,1.9,6,6,0,0,0-.11,1.24v6Z"/><path class="cls-1" d="M132.39,129.68c0,1.11.26,1.21,2.19,1.29v1h-7.88v-1c1.5-.08,1.71-0.18,1.71-1.29V115.87c0-1.05-.21-1.29-0.63-1.34l-0.92-.13v-0.95l5.06-.76,0.47,1.82a6.86,6.86,0,0,1,4.35-1.82c2.48,0,4.77,2,4.77,6.41,0,5.77-3.14,7.14-7,7.14a6.66,6.66,0,0,1-2.08-.32v3.77Zm0-7.78a7,7,0,0,0,.11,1.34,2,2,0,0,0,2.08,1.77c2,0,2.74-2.08,2.74-5.35,0-4.27-1.4-5-2.64-5a2.1,2.1,0,0,0-2.11,1.58,4.62,4.62,0,0,0-.18,1.45v4.17Z"/><path class="cls-1" d="M148.2,123.62c0,1.11.21,1.21,1.71,1.29v1h-7.41v-1c1.5-.08,1.71-0.18,1.71-1.29V109.54c0-1.05-.21-1.29-0.63-1.37l-0.92-.16v-0.95l5.35-.71,0.18,0.16v17.11Z"/><path class="cls-1" d="M164.29,119.45c0,4.22-2,6.78-6.8,6.78s-6.83-2.56-6.83-6.78,2-6.78,6.83-6.78S164.29,115.23,164.29,119.45Zm-6.8,5.56c1.85,0,2.61-2,2.61-5.56s-0.76-5.56-2.61-5.56-2.64,2-2.64,5.56S155.61,125,157.48,125Z"/><path class="cls-1" d="M178.82,113v1l-0.55.05c-0.74.08-1,.58-1.5,1.71-1.56,3.77-3.14,7.65-4.67,11.73-1.42,3.8-2.64,4.8-4.46,4.8a2,2,0,0,1-2.14-1.66,2.16,2.16,0,0,1,1.69-2.14,1.87,1.87,0,0,1,1.19.55,1.54,1.54,0,0,0,.95.4,1.35,1.35,0,0,0,1-1.29,3,3,0,0,0-.16-1.74c-1.4-3.64-3-7.54-4.51-11.2a1.47,1.47,0,0,0-1-1.08l-0.87-.13v-1h7.38v1l-1,.16c-0.42.05-.5,0.34-0.32,0.87,0.82,2.48,1.79,4.93,2.66,7.36h0.05c0.82-2.48,1.66-4.93,2.4-7.43,0.13-.5,0-0.74-0.4-0.79l-1.08-.16v-1h5.3Z"/><path class="cls-1" d="M183.93,123.8c0,0.87.29,1,.84,1.05l0.55,0.05v1h-7.09v-1c1.5-.08,1.71-0.18,1.71-1.29v-7.75c0-1.05-.21-1.29-0.63-1.34l-0.92-.13v-0.95l5.19-.76,0.34,1.82c1.45-.92,2.66-1.82,4.38-1.82a3.87,3.87,0,0,1,3.59,2c1.13-.71,2.77-2,4.59-2,2.79,0,4.09,1.58,4.11,4.09v6.85c0,1.11.21,1.21,1.71,1.29v1h-7.09v-1l0.55-.05c0.55-.05.84-0.18,0.84-1.05v-6.56c-0.05-1.66-.82-2.56-2.06-2.53a2.25,2.25,0,0,0-2.19,1.87,6.14,6.14,0,0,0-.11,1.27v6c0,0.87.29,1,.84,1.05l0.55,0.05v1h-6.78v-1l0.55-.05c0.55-.05.84-0.18,0.84-1.05v-6.56c0-1.5-.61-2.53-1.9-2.53a2.32,2.32,0,0,0-2.35,1.9,6,6,0,0,0-.11,1.24v6Z"/><path class="cls-1" d="M215.25,122.38a5.6,5.6,0,0,1-5.75,3.85c-4.9,0-6.46-3.19-6.46-6.78s1.77-6.78,6.51-6.78c5.09,0,5.91,3.32,5.91,5.48,0,0.84-.47,1.11-1.42,1.11h-6.8c0,2.77.9,4.93,3.53,4.93a3.84,3.84,0,0,0,3.53-2.35ZM210.5,118c0.61,0,.82-0.16.82-0.87,0-1.24-.26-3.24-1.87-3.24s-2.21,2.21-2.21,4.11h3.27Z"/><path class="cls-1" d="M230.3,123.62c0,1.11.21,1.21,1.71,1.29v1h-7.09v-1l0.55-.05c0.55-.05.84-0.18,0.84-1.05v-6.7c-0.05-1.58-.74-2.4-2.08-2.4a2.33,2.33,0,0,0-2.16,1.29,3.83,3.83,0,0,0-.26,1.56v6.25c0,0.87.29,1,.84,1.05l0.55,0.05v1h-7.09v-1c1.5-.08,1.71-0.18,1.71-1.29v-7.75c0-1.05-.21-1.29-0.63-1.34l-0.92-.13v-0.95l5.19-.76,0.34,1.82c1.74-1,3-1.82,4.51-1.82,2.72,0,4,1.58,4,4.06v6.88Z"/><path class="cls-1" d="M238.21,114.31v7.51c0,1.69.69,2.43,1.69,2.43a4,4,0,0,0,1.5-.26l0.29,0.82a8.78,8.78,0,0,1-4.19,1.42,3.21,3.21,0,0,1-3.27-3.4v-8.52H232.7V113h1.66l2.32-3.32h1.53V113H241v1.32h-2.74Z"/><path class="cls-1" d="M258.25,112.75c-0.74-3.08-2.32-4.27-4-4.27a2.59,2.59,0,0,0-2.74,2.69c0,2,2.19,3,3.93,3.66,2.4,1,5,2.35,5,5.83,0,2.74-1.58,5.59-6.85,5.64-1.74,0-4.35-.4-5.69-1.63l-0.4-4.72h1c1,3.3,3,5.14,5,5.14a2.72,2.72,0,0,0,3-2.87c0-1.69-1.11-2.87-3.51-3.88s-5.25-2.4-5.25-5.67c0-3.11,2.14-5.4,6.56-5.4a9.93,9.93,0,0,1,4.93,1.16v4.32h-0.95Z"/><path class="cls-1" d="M273.86,122.38a5.6,5.6,0,0,1-5.75,3.85c-4.9,0-6.46-3.19-6.46-6.78s1.77-6.78,6.51-6.78c5.09,0,5.91,3.32,5.91,5.48,0,0.84-.47,1.11-1.42,1.11h-6.8c0,2.77.9,4.93,3.53,4.93a3.84,3.84,0,0,0,3.53-2.35ZM269.11,118c0.61,0,.82-0.16.82-0.87,0-1.24-.26-3.24-1.87-3.24s-2.21,2.21-2.21,4.11h3.27Z"/><path class="cls-1" d="M280.42,123.62c0,1.11.24,1.19,2.27,1.29v1h-8v-1c1.5-.08,1.71-0.18,1.71-1.29v-7.75c0-1.05-.21-1.29-0.63-1.34l-0.92-.13v-0.95l5.14-.76,0.32,2.32c1.53-1.61,2.4-2.32,3.51-2.32a1.73,1.73,0,0,1,1.85,1.85,2.52,2.52,0,0,1-.42,1.5,1.74,1.74,0,0,1-1.34.69,2.23,2.23,0,0,1-1.21-.42,2.89,2.89,0,0,0-1.4-.55c-0.63,0-.9.61-0.9,2v5.91Z"/><path class="cls-1" d="M291.51,125.91l-2.06-5.67c-0.63-1.71-1.24-3.4-1.92-5.09a1.59,1.59,0,0,0-1.71-1.16v-1h7v1l-1,.13c-0.47.05-.53,0.26-0.37,0.76l2.58,7.54h0.11c0.9-2.66,1.74-5.06,2.37-7.43,0.13-.5.05-0.79-0.42-0.84L295,114v-1h5.46v1a1.65,1.65,0,0,0-1.82,1.13,47.87,47.87,0,0,0-1.9,4.56l-2.29,6.22h-2.9Z"/><path class="cls-1" d="M301.74,115.87c0-1.05-.21-1.29-0.63-1.34l-0.92-.13v-0.95l5.35-.76,0.18,0.16v10.78c0,1.11.21,1.21,1.71,1.29v1H300v-1c1.5-.08,1.71-0.18,1.71-1.29v-7.75Zm-0.55-6.64a2.42,2.42,0,0,1,4.82,0,2.32,2.32,0,0,1-2.43,2.32A2.28,2.28,0,0,1,301.19,109.22Z"/><path class="cls-1" d="M320,122.22a5.4,5.4,0,0,1-5.67,4c-3.72,0-6.2-2.24-6.2-6.67a7,7,0,0,1,1.79-5.11,6.6,6.6,0,0,1,4.88-1.77c2.4,0,5,1,5,2.9,0,1.16-1.27,1.63-2.19,1.63a1.19,1.19,0,0,1-1.27-.92c-0.45-1.58-.9-2.4-1.82-2.4-1.11,0-2.24,1.5-2.24,5,0,4.11,1.66,5.27,3.37,5.27,1.45,0,2.48-.61,3.37-2.4Z"/><path class="cls-1" d="M333,122.38a5.6,5.6,0,0,1-5.75,3.85c-4.9,0-6.46-3.19-6.46-6.78s1.77-6.78,6.51-6.78c5.09,0,5.91,3.32,5.91,5.48,0,0.84-.47,1.11-1.42,1.11H325c0,2.77.9,4.93,3.53,4.93a3.84,3.84,0,0,0,3.53-2.35ZM328.27,118c0.61,0,.82-0.16.82-0.87,0-1.24-.26-3.24-1.87-3.24S325,116.1,325,118h3.27Z"/><path class="cls-1" d="M334.2,121h1c0.69,2.16,2.08,4,3.82,4a1.58,1.58,0,0,0,1.82-1.61c0-1.27-1.29-2-2.64-2.5-2.32-.87-3.88-2.14-3.88-4.06,0-2.66,2-4.17,5.22-4.17a7.89,7.89,0,0,1,4,.92v3.51h-1c-0.5-2-1.63-3.22-3-3.22a1.52,1.52,0,0,0-1.66,1.53c0,1.05,1.13,1.69,2.66,2.24,2.43,0.92,3.85,2,3.85,4.27,0,2.85-2.21,4.3-5.43,4.3a7.21,7.21,0,0,1-4.46-1.27Z"/><path class="cls-1" d="M63.51,55c-7.85,6.35-18.21,8.5-28.21,8.5C17,63.51,0,53.24,0,31.76,0,12.52,17,0,35.31,0,43.9,0,54.45,2.24,62.11,7.1l-2.9,8.78c-0.37,1.12-1,3.18-1.31,3.18s-0.75-1.4-1-2.43C54.92,8.5,49.13,2,35.31,1.71c-17,0-24.67,16.13-24.67,30s8.42,30,28.41,30c9.15,0,16.06-5.58,20.17-15,0.47-1.12.56-2,1-2s0.47,0.28.84,1.68Z"/><path class="cls-1" d="M132.11,52.15L142,32.93c1.39-3,2.62-5.87,2.62-8.11,0-2.63-1.7-3.55-3.55-4.17a0.72,0.72,0,0,1-.69-0.46c0-.23.31-0.31,0.77-0.31,2,0,2.7.31,5.87,0.31,3,0,3.71-.31,5.71-0.31,0.54,0,1,0,1,.23A1.24,1.24,0,0,1,153,21c-2.55,1.78-5.25,5.87-7.88,10.58L130.1,60.41a2.22,2.22,0,0,1-.93,1.08H129c-0.23,0-.31-0.39-0.77-1.16L114.74,34c-2.93-5.87-5.4-10.89-8.65-13a1.59,1.59,0,0,1-.93-0.77c0-.31.46-0.31,1-0.31,1.24,0,3.17.31,6.87,0.31,3.55,0,6.33-.31,6.95-0.31a1.12,1.12,0,0,1,1,.31,1,1,0,0,1-.69.62,2.76,2.76,0,0,0-2.16,2.93c0,1.54,1.24,3.78,1.93,5.25Z"/><path class="cls-1" d="M156.88,34.86c-0.15,1.78-.23,3.4-0.23,5,0,14.36,7.41,19.69,14.9,19.69,8.88,0,15.44-6.1,18.07-15.13h1.62c-2.47,10.65-10.19,17.06-20.69,17.06-13.13,0-22.85-8.88-22.85-21.23S157.43,19,170.55,19c8.42,0,18.61,5.1,19.69,15.83H156.88Zm23.63-1.47c0-7.57-3.63-12.89-11.66-12.89-7,0-10.81,6.25-11.66,12.89h23.32Z"/><path class="cls-1" d="M201.1,31h0.15C203,24.43,206.81,19,217,19c8.49,0,16.45,4.4,16.45,16.68v14.9c-0.15,7.33.85,8.42,3.09,9.19a1.58,1.58,0,0,1,1,.54c0,0.23-.39.23-1.16,0.23s-2.7-.23-6.95-0.23-6.95.23-8,.23c-0.46,0-.85,0-0.85-0.23s0.15-.39.69-0.46c2.78-.31,4.17-2.39,4.17-9.27v-15c0-7.1-3.17-14.67-11.35-14.67-9.19,0-12.2,9.42-12.2,20.23v9.42c0,4.86.23,8.49,3.71,9.11,0.54,0.08.85,0.23,0.85,0.46s-0.23.39-.69,0.39-3.71-.23-7.88-0.23-7.72.23-8.26,0.23S189,60.49,189,60.18s0.31-.39.85-0.46c3.86-.62,4.17-4.25,4.17-9.11V31.46c0-4.63-.54-7.26-2.7-8.18a3.41,3.41,0,0,1-1.39-.77c0-.23.54-0.23,1.47-0.39a67.49,67.49,0,0,0,9.73-2.24V31Z"/><path class="cls-1" d="M275.06,53.62c0,2.55.39,4.86,2.78,5.94,0.46,0.23.77,0.23,0.77,0.46a1,1,0,0,1-1,.31h-8.34a23,23,0,0,1-1.85-7.88h-0.15c-3,6.25-7.49,9-14.28,9-8,0-16.29-3.71-16.29-12.89,0-11.74,17.91-12.89,26-12.89h4.4V33.16c0-7.41-3.47-12.66-11.27-12.66-7.1,0-11.27,2.08-14.05,8.88a3.94,3.94,0,0,1-.62,1.31,1.38,1.38,0,0,1-.39-0.85l-2-6.95C245.1,19.57,250.12,19,257,19c8.8,0,18.07,3.17,18.07,12.89v21.7Zm-8-16.45h-4.56c-8.34,0-16.91,2.47-16.91,12.66a9.37,9.37,0,0,0,9.57,9.73c9.11,0,11.89-9.57,11.89-17v-5.4Z"/><path class="cls-1" d="M289.8,31H290c1.78-6.56,5.56-12,15.75-12,8.49,0,16.45,4.4,16.45,16.68v14.9C322,57.94,323,59,325.24,59.8a1.58,1.58,0,0,1,1,.54c0,0.23-.39.23-1.16,0.23s-2.7-.23-6.95-0.23-6.95.23-8,.23c-0.46,0-.85,0-0.85-0.23s0.15-.39.69-0.46c2.78-.31,4.17-2.39,4.17-9.27v-15c0-7.1-3.17-14.67-11.35-14.67-9.19,0-12.2,9.42-12.2,20.23v9.42c0,4.86.23,8.49,3.71,9.11,0.54,0.08.85,0.23,0.85,0.46s-0.23.39-.7,0.39-3.71-.23-7.88-0.23-7.72.23-8.26,0.23-0.69-.08-0.69-0.39,0.31-.39.85-0.46c3.86-.62,4.17-4.25,4.17-9.11V31.46c0-4.63-.54-7.26-2.7-8.18a3.41,3.41,0,0,1-1.39-.77c0-.23.54-0.23,1.47-0.39a67.47,67.47,0,0,0,9.73-2.24V31Z"/><path class="cls-1" d="M324,24.59a0.71,0.71,0,0,1-.77-0.69c0-.39.62-0.69,1.54-1.08,4.4-1.54,8.11-5.1,11-11a1,1,0,0,1,.85-0.77c0.39,0,.39.54,0.39,1.08v10h8.57L345,24.59h-8V46.52c0,10.27,2.47,12.12,4.94,13,0.62,0.23.93,0.31,0.93,0.54s-0.54.31-1.24,0.31h-9.34c-2.16-1-3.24-2.7-3.24-5.64V24.59h-5Z"/><path class="cls-1" d="M203.13,75.62V68.05c0-1.54-.41-2.77-1.61-3.07a0.91,0.91,0,0,1-.37-0.22c0-.11.22-0.15,0.56-0.15,0.6,0,2.4.15,3.6,0.15s3-.15,3.6-0.15c0.34,0,.56,0,0.56.15a0.91,0.91,0,0,1-.37.22c-1.2.3-1.61,1.54-1.61,3.07V84.69c0,1.84.34,2.92,2,3.75a0.45,0.45,0,0,1,.34.3c0,0.11-.22.11-0.6,0.11-1.35,0-1.8-.11-3.94-0.11s-2.59.11-3.94,0.11c-0.37,0-.6,0-0.6-0.11a0.45,0.45,0,0,1,.34-0.3c1.69-.82,2-1.91,2-3.75V76.56H188.85v8.13c0,1.84.34,2.92,2,3.75a0.45,0.45,0,0,1,.34.3c0,0.11-.22.11-0.6,0.11-1.35,0-1.8-.11-3.94-0.11s-2.59.11-3.94,0.11c-0.37,0-.6,0-0.6-0.11a0.45,0.45,0,0,1,.34-0.3c1.69-.82,2-1.91,2-3.75V68.05c0-1.54-.41-2.77-1.61-3.07a0.91,0.91,0,0,1-.37-0.22c0-.11.22-0.15,0.56-0.15,0.6,0,2.4.15,3.6,0.15s3-.15,3.6-0.15c0.34,0,.56,0,0.56.15a0.91,0.91,0,0,1-.37.22c-1.2.3-1.61,1.54-1.61,3.07v7.57h14.28Z"/><path class="cls-1" d="M218.77,75.62h6.93c2.74,0,5.13-1.27,5.66-2.81a0.4,0.4,0,0,1,.3-0.34c0.11,0,.15.19,0.15,0.56v6.18c0,0.64,0,.79-0.15.79a0.73,0.73,0,0,1-.3-0.52c-1.09-2.77-4.16-2.92-6.78-2.92h-5.81v7.91c0,2.74.94,3.34,3.49,3.34h4.23a15.94,15.94,0,0,0,9.78-4.09,5.17,5.17,0,0,1,1-.79,0.1,0.1,0,0,1,.11.11,1.69,1.69,0,0,1-.08.3l-1.65,5.4H212.85c-0.86,0-1.12,0-1.12-.15s0.79-.34,1-0.56c1.39-1.09,1.65-2.14,1.65-5.55V69.74c0-2.44-.15-4-1.65-4.42a1.35,1.35,0,0,1-.64-0.34c0-.15.15-0.22,0.71-0.22H234l1,3.52a5.37,5.37,0,0,1,.34,1.39,0.27,0.27,0,0,1-.19.3,0.64,0.64,0,0,1-.45-0.34c-1.57-2.59-5.55-3.94-9.07-3.94h-6.9v9.93Z"/><path class="cls-1" d="M247,77.8l-2,3.94A9.49,9.49,0,0,0,243.67,86c0,1.61,1,2,2,2.4,0.3,0.07.41,0.15,0.41,0.26s-0.19.19-.45,0.19S244,88.74,242,88.74c-1.5,0-2.47.11-2.92,0.11s-0.49-.07-0.49-0.19a1.3,1.3,0,0,1,.71-0.6,23,23,0,0,0,4.35-5.92l9.18-17.84a0.52,0.52,0,0,1,.26-0.3h0.08a0.47,0.47,0,0,1,.3.3l11,20.61A9.49,9.49,0,0,0,267,88a2.31,2.31,0,0,1,.86.64c0,0.11-.19.19-0.52,0.19s-2-.11-4.2-0.11c-3.07,0-4.31.11-4.53,0.11a0.4,0.4,0,0,1-.37-0.11c0-.15.19-0.22,0.49-0.3a1.73,1.73,0,0,0,1-1.95,15.4,15.4,0,0,0-1.69-4.27l-2.14-4.42H247Zm4.42-8.73-3.94,7.8h7.95Z"/><path class="cls-1" d="M275.95,83.75c0,3.75,1.42,4,4.61,4h2a14.42,14.42,0,0,0,9.86-4.35,2.85,2.85,0,0,1,.79-0.9,0.23,0.23,0,0,1,.22.26,3.85,3.85,0,0,1-.15.53l-1.54,5.4h-22c-0.64,0-.82-0.07-0.82-0.19a2.76,2.76,0,0,1,.9-0.34c1.46-.64,1.84-2,1.84-5.36V68.05c0-1.54-.6-2.66-1.61-3a0.46,0.46,0,0,1-.37-0.3c0-.11.22-0.15,0.56-0.15,0.6,0,2.4.15,3.6,0.15s3-.15,3.6-0.15c0.34,0,.45,0,0.45.19a0.48,0.48,0,0,1-.34.22c-1.12.49-1.54,1.5-1.54,3v15.7Z"/><path class="cls-1" d="M299,67.41c0-1.46-.64-1.72-2.32-1.72-3.71,0-6.22,2.1-7.91,3.71a4.33,4.33,0,0,1-.67.64,0.21,0.21,0,0,1-.19-0.22,6.16,6.16,0,0,1,.26-0.86l1.2-4.2H313l1.2,4.2a6.19,6.19,0,0,1,.26.86,0.21,0.21,0,0,1-.19.22,4.34,4.34,0,0,1-.67-0.64c-1.69-1.61-4.2-3.71-7.91-3.71-1.69,0-2.32.26-2.32,1.72V84.69c0,1.84.49,3.3,2.25,3.64a0.59,0.59,0,0,1,.56.3,0.33,0.33,0,0,1-.3.22c-0.26,0-2.55-.11-4.68-0.11s-4.35.11-4.61,0.11-0.34-.07-0.34-0.19a1.25,1.25,0,0,1,.71-0.3c1.72-.75,2.06-1.84,2.06-5.32V67.41Z"/><path class="cls-1" d="M337.06,75.62V68.05c0-1.54-.41-2.77-1.61-3.07a0.91,0.91,0,0,1-.37-0.22c0-.11.22-0.15,0.56-0.15,0.6,0,2.4.15,3.6,0.15s3-.15,3.6-0.15c0.34,0,.56,0,0.56.15A0.91,0.91,0,0,1,343,65c-1.2.3-1.61,1.54-1.61,3.07V84.69c0,1.84.34,2.92,2,3.75a0.45,0.45,0,0,1,.34.3c0,0.11-.22.11-0.6,0.11-1.35,0-1.8-.11-3.94-0.11s-2.59.11-3.94,0.11c-0.37,0-.6,0-0.6-0.11a0.45,0.45,0,0,1,.34-0.3c1.69-.82,2-1.91,2-3.75V76.56H322.78v8.13c0,1.84.34,2.92,2,3.75a0.45,0.45,0,0,1,.34.3c0,0.11-.22.11-0.6,0.11-1.35,0-1.8-.11-3.94-0.11s-2.59.11-3.94,0.11c-0.37,0-.6,0-0.6-0.11a0.45,0.45,0,0,1,.34-0.3c1.69-.82,2-1.91,2-3.75V68.05c0-1.54-.41-2.77-1.61-3.07a0.91,0.91,0,0,1-.37-0.22c0-.11.22-0.15,0.56-0.15,0.6,0,2.4.15,3.6,0.15s3-.15,3.6-0.15c0.34,0,.56,0,0.56.15a0.91,0.91,0,0,1-.37.22c-1.2.3-1.61,1.54-1.61,3.07v7.57h14.28Z"/><path class="cls-2" d="M111.55,37c-0.3,5.9-1.26,10.35-4.5,14.93a19.83,19.83,0,0,1-21.78,7.63c-8.48-2.39-18-13.6-12.5-26.29,1.45-3.31,5.58-8.75,12.3-9.65a17.72,17.72,0,0,0-14.38,6.78c-8.14,9.91-5.15,25.86,6.88,31.81,9.68,4.79,24.4,2.52,31.33-9.8A26,26,0,0,0,111.55,37Z"/><path class="cls-1" d="M64.1,44.42c0.3-5.9,1.26-10.35,4.5-14.93a19.83,19.83,0,0,1,21.78-7.63c8.48,2.39,18,13.6,12.5,26.29-1.45,3.31-5.59,8.75-12.3,9.65A17.72,17.72,0,0,0,105,51c8.14-9.91,5.15-25.86-6.88-31.81-9.68-4.79-24.4-2.52-31.33,9.8A26,26,0,0,0,64.1,44.42Z"/><path class="cls-1" d="M348.94,84.68a2.33,2.33,0,1,1-3.29,3.3,2.27,2.27,0,0,1-.67-1.66A2.32,2.32,0,0,1,348.94,84.68Zm0.27-.26a2.7,2.7,0,1,0,.79,1.91A2.61,2.61,0,0,0,349.21,84.42ZM347.7,86.2a1.41,1.41,0,0,1-.5.07h-0.47V85.19h0.44a1.35,1.35,0,0,1,.63.11A0.53,0.53,0,0,1,347.7,86.2Zm-1.49,1.6h0.52V86.63h0.41a1.26,1.26,0,0,1,.58.1,0.73,0.73,0,0,1,.28.68V87.8h0.49l0,0a0.48,0.48,0,0,1,0-.15q0-.12,0-0.22V87.17a0.81,0.81,0,0,0-.16-0.46,0.72,0.72,0,0,0-.51-0.29,1.14,1.14,0,0,0,.43-0.14,0.65,0.65,0,0,0,.29-0.59,0.74,0.74,0,0,0-.46-0.75,2.27,2.27,0,0,0-.81-0.11h-1v3Z"/><line class="cls-1" x1="342.47" y1="97.24" x2="4.13" y2="97.24"/><rect class="cls-1" x="4.13" y="96.62" width="338.34" height="1.26"/></svg>