<svg id="Layer_1" data-name="Layer 1" xmlns="http://www.w3.org/2000/svg" viewBox="0 0 359.58 129.12"><defs><style>.cls-1,.cls-3{fill:#005a9c;}.cls-2{fill:#a90533;}.cls-3{stroke:#005a9c;stroke-width:1.29px;}</style></defs><title>covenant-careers</title><path class="cls-1" d="M91.83,122.54l-0.32,5.28c-1.63,1-4.44,1.3-6.34,1.3-7,0-9.91-3.79-9.91-9.59a10.51,10.51,0,0,1,2.33-7.12c1.6-1.79,4.17-2.84,8-2.84,1.35,0,4.2.22,5.82,1.19v4.85h-1c-0.62-1.95-1.57-4.79-5-4.79-4.9,0-5.28,6.31-5.28,8.29,0,3.06.68,8.78,5.5,8.78,3.06,0,4.23-2.36,5.25-5.34h1Z"/><path class="cls-1" d="M211.3,122.54L211,127.82c-1.63,1-4.44,1.3-6.34,1.3-7,0-9.91-3.79-9.91-9.59a10.51,10.51,0,0,1,2.33-7.12c1.6-1.79,4.17-2.84,8-2.84,1.35,0,4.2.22,5.82,1.19v4.85h-1c-0.62-1.95-1.57-4.79-5-4.79-4.9,0-5.28,6.31-5.28,8.29,0,3.06.68,8.78,5.5,8.78,3.06,0,4.23-2.36,5.25-5.34h1Z"/><path class="cls-1" d="M107.24,122.08c0,4.33-2.09,7-7,7s-7-2.63-7-7,2.09-7,7-7S107.24,117.74,107.24,122.08Zm-7,5.72c1.9,0,2.68-2.09,2.68-5.72s-0.79-5.72-2.68-5.72-2.71,2.09-2.71,5.72S98.33,127.79,100.25,127.79Z"/><path class="cls-1" d="M112.85,128.71l-2.11-5.82c-0.65-1.76-1.27-3.49-2-5.23a1.64,1.64,0,0,0-1.76-1.19v-1h7.18v1l-1,.14c-0.49.05-.54,0.27-0.38,0.79l2.65,7.75h0.11c0.92-2.74,1.79-5.2,2.44-7.64,0.14-.51.05-0.81-0.43-0.87l-1.16-.16v-1H122v1a1.7,1.7,0,0,0-1.87,1.17,49.29,49.29,0,0,0-2,4.69l-2.36,6.39h-3Z"/><path class="cls-1" d="M134.22,125.08a5.76,5.76,0,0,1-5.9,4c-5,0-6.64-3.28-6.64-7s1.81-7,6.69-7c5.23,0,6.07,3.41,6.07,5.63,0,0.87-.49,1.14-1.46,1.14h-7c0,2.84.92,5.06,3.63,5.06a3.94,3.94,0,0,0,3.63-2.41Zm-4.88-4.5c0.62,0,.84-0.16.84-0.89,0-1.27-.27-3.33-1.92-3.33s-2.28,2.28-2.28,4.23h3.36Z"/><path class="cls-1" d="M150,126.36c0,1.14.22,1.25,1.76,1.33v1h-7.29v-1l0.57-.05c0.57-.05.87-0.19,0.87-1.08v-6.88c-0.05-1.62-.76-2.46-2.14-2.46a2.39,2.39,0,0,0-2.22,1.33,3.94,3.94,0,0,0-.27,1.6v6.42c0,0.89.3,1,.87,1.08l0.57,0.05v1h-7.29v-1c1.54-.08,1.76-0.19,1.76-1.33v-8c0-1.08-.22-1.33-0.65-1.38l-0.95-.14v-1l5.34-.79,0.35,1.87c1.79-1.06,3.06-1.87,4.63-1.87,2.79,0,4.06,1.63,4.09,4.17v7.07Z"/><path class="cls-1" d="M167,128.23a12.48,12.48,0,0,1-4,.81,2.09,2.09,0,0,1-2.11-1.57A6.79,6.79,0,0,1,157,129a3.81,3.81,0,0,1-4.09-3.93c0-1.54.73-2.65,2.87-3.39a27.45,27.45,0,0,0,5-1.92v-1.44c0-1.54-.79-2-1.57-2s-1.63.41-2.38,2.71a1.23,1.23,0,0,1-1.11,1.08c-0.7,0-2.44-.49-2.44-1.71,0-1.76,2.44-3.33,6.42-3.33,4.79,0,5.07,2.11,5.07,3.79v6.26c0,1.6.51,1.92,0.87,2a3.67,3.67,0,0,0,1.3.14Zm-6.23-7.07c-0.65.3-1.6,0.68-2.44,1.14a2.35,2.35,0,0,0-1.25,2.36,2.08,2.08,0,0,0,2,2.27,1.64,1.64,0,0,0,1.68-1.84v-3.93Z"/><path class="cls-1" d="M181.71,126.36c0,1.14.22,1.25,1.76,1.33v1h-7.29v-1l0.57-.05c0.57-.05.87-0.19,0.87-1.08v-6.88c-0.05-1.62-.76-2.46-2.14-2.46a2.39,2.39,0,0,0-2.22,1.33,3.94,3.94,0,0,0-.27,1.6v6.42c0,0.89.3,1,.87,1.08l0.57,0.05v1h-7.29v-1c1.54-.08,1.76-0.19,1.76-1.33v-8c0-1.08-.22-1.33-0.65-1.38l-0.95-.14v-1l5.34-.79L173,117c1.79-1.06,3.06-1.87,4.63-1.87,2.79,0,4.06,1.63,4.09,4.17v7.07Z"/><path class="cls-1" d="M190.1,116.8v7.72c0,1.73.7,2.49,1.73,2.49a4.15,4.15,0,0,0,1.54-.27l0.3,0.84a9,9,0,0,1-4.31,1.46,3.3,3.3,0,0,1-3.36-3.49V116.8h-1.57v-1.35h1.71l2.38-3.41h1.57v3.41h2.82v1.35H190.1Z"/><path class="cls-1" d="M226.74,128.23a12.47,12.47,0,0,1-4,.81,2.09,2.09,0,0,1-2.11-1.57,6.79,6.79,0,0,1-3.87,1.57,3.81,3.81,0,0,1-4.09-3.93c0-1.54.73-2.65,2.87-3.39a27.45,27.45,0,0,0,5-1.92v-1.44c0-1.54-.79-2-1.57-2s-1.63.41-2.38,2.71a1.23,1.23,0,0,1-1.11,1.08c-0.7,0-2.44-.49-2.44-1.71,0-1.76,2.44-3.33,6.42-3.33,4.79,0,5.06,2.11,5.06,3.79v6.26c0,1.6.51,1.92,0.87,2a3.68,3.68,0,0,0,1.3.14Zm-6.23-7.07c-0.65.3-1.6,0.68-2.44,1.14a2.35,2.35,0,0,0-1.25,2.36,2.08,2.08,0,0,0,2,2.27,1.64,1.64,0,0,0,1.68-1.84v-3.93Z"/><path class="cls-1" d="M232.7,126.36c0,1.14.24,1.22,2.33,1.33v1h-8.18v-1c1.54-.08,1.76-0.19,1.76-1.33v-8c0-1.08-.22-1.33-0.65-1.38l-0.95-.14v-1l5.28-.79,0.32,2.38c1.57-1.65,2.46-2.38,3.6-2.38a1.78,1.78,0,0,1,1.9,1.9,2.59,2.59,0,0,1-.43,1.54,1.78,1.78,0,0,1-1.38.7,2.29,2.29,0,0,1-1.25-.43,3,3,0,0,0-1.44-.57c-0.65,0-.92.62-0.92,2v6.07Z"/><path class="cls-1" d="M250.85,125.08a5.76,5.76,0,0,1-5.9,4c-5,0-6.64-3.28-6.64-7s1.82-7,6.69-7c5.23,0,6.07,3.41,6.07,5.63,0,0.87-.49,1.14-1.46,1.14h-7c0,2.84.92,5.06,3.63,5.06a3.94,3.94,0,0,0,3.63-2.41Zm-4.88-4.5c0.62,0,.84-0.16.84-0.89,0-1.27-.27-3.33-1.92-3.33s-2.28,2.28-2.28,4.23H246Z"/><path class="cls-1" d="M264.77,125.08a5.76,5.76,0,0,1-5.9,4c-5,0-6.64-3.28-6.64-7s1.82-7,6.69-7c5.23,0,6.07,3.41,6.07,5.63,0,0.87-.49,1.14-1.46,1.14h-7c0,2.84.92,5.06,3.63,5.06a3.94,3.94,0,0,0,3.63-2.41Zm-4.88-4.5c0.62,0,.84-0.16.84-0.89,0-1.27-.27-3.33-1.92-3.33s-2.28,2.28-2.28,4.23h3.36Z"/><path class="cls-1" d="M271.79,126.36c0,1.14.24,1.22,2.33,1.33v1h-8.18v-1c1.54-.08,1.76-0.19,1.76-1.33v-8c0-1.08-.22-1.33-0.65-1.38l-0.95-.14v-1l5.28-.79,0.32,2.38c1.57-1.65,2.46-2.38,3.6-2.38a1.78,1.78,0,0,1,1.9,1.9,2.59,2.59,0,0,1-.43,1.54,1.78,1.78,0,0,1-1.38.7,2.29,2.29,0,0,1-1.25-.43,3,3,0,0,0-1.44-.57c-0.65,0-.92.62-0.92,2v6.07Z"/><path class="cls-1" d="M278,123.7h1c0.7,2.22,2.14,4.09,3.93,4.09a1.62,1.62,0,0,0,1.87-1.65c0-1.3-1.33-2.09-2.71-2.57-2.38-.89-4-2.19-4-4.17,0-2.74,2.06-4.28,5.36-4.28a8.11,8.11,0,0,1,4.06.95v3.6h-1c-0.51-2.06-1.68-3.3-3.06-3.3a1.56,1.56,0,0,0-1.71,1.57c0,1.08,1.16,1.73,2.74,2.3,2.49,0.95,4,2.06,4,4.39,0,2.93-2.28,4.41-5.58,4.41-1.52,0-3.55-.35-4.58-1.3Z"/><path class="cls-1" d="M290.26,126.52a2.49,2.49,0,1,1,2.49,2.52A2.4,2.4,0,0,1,290.26,126.52Z"/><path class="cls-1" d="M309.52,124.92a5.55,5.55,0,0,1-5.82,4.12c-3.82,0-6.36-2.3-6.36-6.85a7.2,7.2,0,0,1,1.84-5.25,6.78,6.78,0,0,1,5-1.82c2.46,0,5.17,1.06,5.17,3,0,1.19-1.3,1.68-2.25,1.68a1.22,1.22,0,0,1-1.3-.95c-0.46-1.62-.92-2.46-1.87-2.46-1.14,0-2.3,1.54-2.3,5.17,0,4.23,1.71,5.42,3.47,5.42,1.49,0,2.55-.62,3.47-2.46Z"/><path class="cls-1" d="M324.58,122.08c0,4.33-2.09,7-7,7s-7-2.63-7-7,2.09-7,7-7S324.58,117.74,324.58,122.08Zm-7,5.72c1.9,0,2.68-2.09,2.68-5.72s-0.79-5.72-2.68-5.72-2.71,2.09-2.71,5.72S315.67,127.79,317.59,127.79Z"/><path class="cls-1" d="M331.92,126.55c0,0.89.3,1,.87,1.08l0.57,0.05v1h-7.29v-1c1.54-.08,1.76-0.19,1.76-1.33v-8c0-1.08-.22-1.33-0.65-1.38l-0.95-.14v-1l5.34-.79,0.35,1.87c1.49-.95,2.74-1.87,4.5-1.87a4,4,0,0,1,3.68,2c1.17-.73,2.84-2,4.71-2,2.87,0,4.2,1.63,4.23,4.2v7c0,1.14.22,1.25,1.76,1.33v1h-7.29v-1l0.57-.05c0.57-.05.87-0.19,0.87-1.08V119.8c-0.05-1.71-.84-2.63-2.11-2.6a2.31,2.31,0,0,0-2.25,1.92,6.3,6.3,0,0,0-.11,1.3v6.12c0,0.89.3,1,.87,1.08l0.57,0.05v1h-7v-1l0.57-.05c0.57-.05.87-0.19,0.87-1.08V119.8c0-1.54-.62-2.6-1.95-2.6a2.38,2.38,0,0,0-2.41,1.95,6.2,6.2,0,0,0-.11,1.27v6.12Z"/><path class="cls-1" d="M65.25,56.52c-8.06,6.52-18.71,8.73-29,8.73C17.46,65.25,0,54.7,0,32.63,0,12.86,17.46,0,36.27,0,45.1,0,55.94,2.3,63.81,7.29l-3,9c-0.38,1.15-1.06,3.26-1.34,3.26s-0.77-1.44-1.06-2.49c-2-8.35-8-15-22.17-15.33-17.46,0-25.35,16.57-25.35,30.87S19.58,63.5,40.11,63.5c9.4,0,16.5-5.73,20.73-15.42,0.48-1.15.58-2,1.06-2s0.48,0.29.86,1.73Z"/><path class="cls-1" d="M135.72,53.58l10.15-19.75c1.43-3.09,2.7-6,2.7-8.33,0-2.7-1.74-3.65-3.65-4.28a0.74,0.74,0,0,1-.71-0.48c0-.24.32-0.32,0.79-0.32,2.06,0,2.78.32,6,.32,3.09,0,3.81-.32,5.87-0.32,0.56,0,1,0,1,.24a1.27,1.27,0,0,1-.71,1c-2.62,1.82-5.39,6-8.09,10.87L133.66,62.07a2.29,2.29,0,0,1-1,1.11h-0.16c-0.24,0-.32-0.4-0.79-1.19l-13.88-27c-3-6-5.55-11.18-8.88-13.41a1.64,1.64,0,0,1-1-.79c0-.32.48-0.32,1-0.32,1.27,0,3.25.32,7.06,0.32,3.65,0,6.5-.32,7.14-0.32a1.15,1.15,0,0,1,1,.32,1,1,0,0,1-.71.63,2.84,2.84,0,0,0-2.22,3c0,1.59,1.27,3.89,2,5.39Z"/><path class="cls-1" d="M161.18,35.81c-0.16,1.82-.24,3.49-0.24,5.16,0,14.75,7.62,20.23,15.31,20.23,9.12,0,15.87-6.27,18.56-15.55h1.67C193.94,56.59,186,63.18,175.22,63.18c-13.49,0-23.48-9.12-23.48-21.81s10-21.81,23.48-21.81c8.65,0,19.12,5.24,20.23,16.26H161.18Zm24.27-1.51c0-7.77-3.73-13.25-12-13.25-7.22,0-11.11,6.43-12,13.25h24Z"/><path class="cls-1" d="M206.6,31.84h0.16c1.82-6.74,5.71-12.3,16.18-12.3,8.73,0,16.9,4.52,16.9,17.13V52c-0.16,7.54.87,8.65,3.17,9.44a1.63,1.63,0,0,1,1,.56c0,0.24-.4.24-1.19,0.24S240.08,62,235.72,62s-7.14.24-8.17,0.24c-0.48,0-.87,0-0.87-0.24s0.16-.4.71-0.48c2.86-.32,4.28-2.46,4.28-9.52V36.6c0-7.3-3.25-15.07-11.66-15.07-9.44,0-12.53,9.68-12.53,20.78V52c0,5,.24,8.73,3.81,9.36,0.56,0.08.87,0.24,0.87,0.48s-0.24.4-.71,0.4S207.64,62,203.35,62s-7.93.24-8.49,0.24-0.71-.08-0.71-0.4,0.32-.4.87-0.48c4-.63,4.28-4.36,4.28-9.36V32.32c0-4.76-.56-7.46-2.78-8.41a3.51,3.51,0,0,1-1.43-.79c0-.24.56-0.24,1.51-0.4a69.34,69.34,0,0,0,10-2.3V31.84Z"/><path class="cls-1" d="M282.59,55.09c0,2.62.4,5,2.86,6.11,0.48,0.24.79,0.24,0.79,0.48a1,1,0,0,1-1,.32h-8.57a23.64,23.64,0,0,1-1.9-8.09h-0.16c-3.09,6.43-7.69,9.28-14.67,9.28-8.25,0-16.74-3.81-16.74-13.25,0-12.06,18.4-13.25,26.73-13.25h4.52V34.07c0-7.62-3.57-13-11.58-13-7.3,0-11.58,2.14-14.44,9.12a4,4,0,0,1-.63,1.35,1.42,1.42,0,0,1-.4-0.87l-2.06-7.14c6.5-3.41,11.66-4,18.72-4,9,0,18.56,3.25,18.56,13.25V55.09Zm-8.17-16.9h-4.68c-8.57,0-17.37,2.54-17.37,13a9.63,9.63,0,0,0,9.84,10c9.36,0,12.22-9.84,12.22-17.45V38.19Z"/><path class="cls-1" d="M297.73,31.84h0.16c1.82-6.74,5.71-12.3,16.18-12.3,8.73,0,16.9,4.52,16.9,17.13V52c-0.16,7.54.87,8.65,3.17,9.44a1.63,1.63,0,0,1,1,.56c0,0.24-.4.24-1.19,0.24S331.21,62,326.84,62s-7.14.24-8.17,0.24c-0.48,0-.87,0-0.87-0.24s0.16-.4.71-0.48c2.86-.32,4.28-2.46,4.28-9.52V36.6c0-7.3-3.25-15.07-11.66-15.07-9.44,0-12.53,9.68-12.53,20.78V52c0,5,.24,8.73,3.81,9.36,0.56,0.08.87,0.24,0.87,0.48s-0.24.4-.71,0.4S298.76,62,294.48,62s-7.93.24-8.49,0.24-0.71-.08-0.71-0.4,0.32-.4.87-0.48c4-.63,4.28-4.36,4.28-9.36V32.32c0-4.76-.56-7.46-2.78-8.41a3.51,3.51,0,0,1-1.43-.79c0-.24.56-0.24,1.51-0.4a69.32,69.32,0,0,0,10-2.3V31.84Z"/><path class="cls-1" d="M332.84,25.26a0.73,0.73,0,0,1-.79-0.71c0-.4.63-0.71,1.59-1.11,4.52-1.59,8.33-5.24,11.26-11.26a1.05,1.05,0,0,1,.87-0.79c0.4,0,.4.56,0.4,1.11V22.72H355l-0.55,2.54h-8.25V47.79c0,10.55,2.54,12.45,5.08,13.33,0.63,0.24,1,.32,1,0.56s-0.55.32-1.27,0.32h-9.6C339.1,61,338,59.21,338,56.2V25.26h-5.16Z"/><path class="cls-1" d="M208.69,77.69V69.92c0-1.58-.42-2.85-1.66-3.16a0.94,0.94,0,0,1-.39-0.23c0-.12.23-0.15,0.58-0.15,0.62,0,2.46.15,3.7,0.15s3.08-.15,3.7-0.15c0.35,0,.58,0,0.58.15a0.94,0.94,0,0,1-.38.23c-1.23.31-1.66,1.58-1.66,3.16V87c0,1.89.35,3,2.08,3.85a0.46,0.46,0,0,1,.35.31c0,0.12-.23.12-0.62,0.12-1.39,0-1.85-.12-4-0.12s-2.66.12-4,.12c-0.39,0-.62,0-0.62-0.12a0.46,0.46,0,0,1,.35-0.31c1.73-.85,2.08-2,2.08-3.85V78.66H194V87c0,1.89.35,3,2.08,3.85a0.46,0.46,0,0,1,.35.31c0,0.12-.23.12-0.62,0.12-1.39,0-1.85-.12-4-0.12s-2.66.12-4,.12c-0.38,0-.62,0-0.62-0.12a0.46,0.46,0,0,1,.35-0.31c1.73-.85,2.08-2,2.08-3.85V69.92c0-1.58-.42-2.85-1.66-3.16a0.94,0.94,0,0,1-.39-0.23c0-.12.23-0.15,0.58-0.15,0.62,0,2.46.15,3.7,0.15s3.08-.15,3.7-0.15c0.35,0,.58,0,0.58.15a0.94,0.94,0,0,1-.39.23c-1.23.31-1.66,1.58-1.66,3.16v7.78h14.67Z"/><path class="cls-1" d="M224.76,77.69h7.12c2.81,0,5.28-1.31,5.81-2.89a0.41,0.41,0,0,1,.31-0.35c0.12,0,.15.19,0.15,0.58v6.35c0,0.65,0,.81-0.15.81a0.75,0.75,0,0,1-.31-0.54c-1.12-2.85-4.27-3-7-3h-6v8.12c0,2.81,1,3.43,3.58,3.43h4.35a16.37,16.37,0,0,0,10-4.2,5.31,5.31,0,0,1,1-.81,0.1,0.1,0,0,1,.12.12,1.75,1.75,0,0,1-.08.31l-1.69,5.54H218.68c-0.89,0-1.16,0-1.16-.15s0.81-.35,1.08-0.58c1.42-1.12,1.69-2.2,1.69-5.7V71.65c0-2.5-.15-4.16-1.69-4.54a1.39,1.39,0,0,1-.65-0.35c0-.15.15-0.23,0.73-0.23h21.75l1,3.62a5.5,5.5,0,0,1,.35,1.42,0.28,0.28,0,0,1-.19.31,0.65,0.65,0,0,1-.46-0.35c-1.62-2.66-5.7-4-9.32-4h-7.09v10.2Z"/><path class="cls-1" d="M253.77,79.93l-2.08,4a9.76,9.76,0,0,0-1.35,4.39c0,1.66,1,2.08,2.08,2.46,0.31,0.08.42,0.15,0.42,0.27s-0.19.19-.46,0.19-1.66-.12-3.77-0.12c-1.54,0-2.54.12-3,.12s-0.5-.08-0.5-0.19a1.33,1.33,0,0,1,.73-0.62,23.62,23.62,0,0,0,4.47-6.08l9.43-18.33a0.54,0.54,0,0,1,.27-0.31h0.08a0.48,0.48,0,0,1,.31.31l11.32,21.18a9.75,9.75,0,0,0,2.58,3.2,2.37,2.37,0,0,1,.89.65c0,0.12-.19.19-0.54,0.19s-2.08-.12-4.31-0.12c-3.16,0-4.43.12-4.66,0.12a0.41,0.41,0,0,1-.39-0.12c0-.15.19-0.23,0.5-0.31,0.89-.31,1.08-1,1.08-2a15.83,15.83,0,0,0-1.73-4.39l-2.19-4.54h-9.16Zm4.54-9-4,8h8.16Z"/><path class="cls-1" d="M283.5,86c0,3.85,1.46,4.16,4.74,4.16h2a14.81,14.81,0,0,0,10.13-4.47,2.94,2.94,0,0,1,.81-0.92,0.23,0.23,0,0,1,.23.27,3.94,3.94,0,0,1-.15.54l-1.58,5.54H277.07c-0.65,0-.85-0.08-0.85-0.19a2.83,2.83,0,0,1,.92-0.35c1.5-.65,1.89-2.08,1.89-5.51V69.92c0-1.58-.62-2.73-1.66-3.08a0.47,0.47,0,0,1-.38-0.31c0-.12.23-0.15,0.58-0.15,0.62,0,2.46.15,3.7,0.15s3.08-.15,3.7-0.15c0.35,0,.46,0,0.46.19a0.5,0.5,0,0,1-.35.23c-1.16.5-1.58,1.54-1.58,3.12V86Z"/><path class="cls-1" d="M307.2,69.26c0-1.5-.65-1.77-2.39-1.77-3.81,0-6.39,2.16-8.12,3.81A4.46,4.46,0,0,1,296,72a0.22,0.22,0,0,1-.19-0.23,6.28,6.28,0,0,1,.27-0.88l1.23-4.31h24.26l1.23,4.31a6.35,6.35,0,0,1,.27.88,0.21,0.21,0,0,1-.19.23,4.46,4.46,0,0,1-.69-0.65c-1.73-1.66-4.31-3.81-8.13-3.81-1.73,0-2.39.27-2.39,1.77V87c0,1.89.5,3.39,2.31,3.74a0.61,0.61,0,0,1,.58.31,0.34,0.34,0,0,1-.31.23c-0.27,0-2.62-.12-4.81-0.12s-4.47.12-4.74,0.12-0.35-.08-0.35-0.19a1.29,1.29,0,0,1,.73-0.31c1.77-.77,2.12-1.89,2.12-5.47V69.26Z"/><path class="cls-1" d="M346.29,77.69V69.92c0-1.58-.42-2.85-1.66-3.16a0.93,0.93,0,0,1-.38-0.23c0-.12.23-0.15,0.58-0.15,0.62,0,2.46.15,3.7,0.15s3.08-.15,3.7-0.15c0.35,0,.58,0,0.58.15a0.94,0.94,0,0,1-.39.23c-1.23.31-1.66,1.58-1.66,3.16V87c0,1.89.35,3,2.08,3.85a0.46,0.46,0,0,1,.35.31c0,0.12-.23.12-0.62,0.12-1.39,0-1.85-.12-4-0.12s-2.66.12-4,.12c-0.38,0-.62,0-0.62-0.12a0.46,0.46,0,0,1,.35-0.31c1.73-.85,2.08-2,2.08-3.85V78.66H331.62V87c0,1.89.35,3,2.08,3.85a0.47,0.47,0,0,1,.35.31c0,0.12-.23.12-0.62,0.12-1.39,0-1.85-.12-4-0.12s-2.66.12-4,.12c-0.38,0-.62,0-0.62-0.12a0.47,0.47,0,0,1,.35-0.31c1.73-.85,2.08-2,2.08-3.85V69.92c0-1.58-.42-2.85-1.66-3.16a0.94,0.94,0,0,1-.39-0.23c0-.12.23-0.15,0.58-0.15,0.62,0,2.46.15,3.7,0.15s3.08-.15,3.7-0.15c0.35,0,.58,0,0.58.15a0.94,0.94,0,0,1-.38.23c-1.23.31-1.66,1.58-1.66,3.16v7.78h14.67Z"/><path class="cls-2" d="M114.61,38c-0.31,6.06-1.3,10.63-4.62,15.34a20.37,20.37,0,0,1-22.38,7.84c-8.71-2.45-18.54-14-12.84-27,1.49-3.4,5.74-9,12.63-9.92a18.21,18.21,0,0,0-14.77,7c-8.36,10.18-5.29,26.57,7.07,32.68,9.95,4.92,25.07,2.59,32.18-10.07A26.68,26.68,0,0,0,114.61,38Z"/><path class="cls-1" d="M65.85,45.64c0.31-6.06,1.3-10.63,4.62-15.34a20.37,20.37,0,0,1,22.38-7.84c8.71,2.45,18.54,14,12.84,27-1.49,3.4-5.74,9-12.63,9.92a18.21,18.21,0,0,0,14.77-7c8.36-10.18,5.29-26.57-7.07-32.68-9.95-4.92-25.07-2.59-32.18,10.07A26.68,26.68,0,0,0,65.85,45.64Z"/><path class="cls-1" d="M358.5,87a2.39,2.39,0,1,1-3.38,3.39,2.42,2.42,0,0,1,0-3.39A2.38,2.38,0,0,1,358.5,87Zm0.28-.27a2.78,2.78,0,0,0-3.93,3.93,2.77,2.77,0,0,0,3.93,0,2.69,2.69,0,0,0,.81-2A2.66,2.66,0,0,0,358.77,86.73Zm-1.55,1.83a1.45,1.45,0,0,1-.51.07h-0.48v-1.1h0.46a1.39,1.39,0,0,1,.65.11A0.55,0.55,0,0,1,357.22,88.56Zm-1.53,1.64h0.54V89h0.42a1.29,1.29,0,0,1,.6.1,0.75,0.75,0,0,1,.29.7v0.4h0.5l0,0a0.51,0.51,0,0,1,0-.16c0-.08,0-0.16,0-0.23V89.56a0.84,0.84,0,0,0-.17-0.47,0.74,0.74,0,0,0-.53-0.3,1.17,1.17,0,0,0,.44-0.15,0.66,0.66,0,0,0,.3-0.6,0.76,0.76,0,0,0-.47-0.77,2.33,2.33,0,0,0-.83-0.11h-1.07v3Z"/><line class="cls-3" x1="351.85" y1="99.91" x2="4.24" y2="99.91"/></svg>