<svg id="Layer_1" data-name="Layer 1" xmlns="http://www.w3.org/2000/svg" viewBox="0 0 349.48 82.59"><defs><style>.cls-1{fill:#002e6d;}</style></defs><title>logo</title><path class="cls-1" d="M22.48,5.58a10.53,10.53,0,0,0-4.87-1.06c-5.67,0-12.22,4.12-12.22,12.13,0,7,5.49,12.31,13,12.31a17.39,17.39,0,0,0,4.12-.58L21.6,33.25a27.25,27.25,0,0,1-3.76.22C6.76,33.47.52,26.08,0.52,16.82,0.52,7.31,7.07,0,17.12,0A14.52,14.52,0,0,1,21.6.62Z" transform="translate(-0.52)"/><path class="cls-1" d="M24.47,15.94l4.34-.35v9.78c0,2.3,1.06,3.5,2.74,3.5s2.79-1.59,2.79-3.85V15.94l4.34-.35V32.5l-4.34.35V30.68H34.26A4.51,4.51,0,0,1,30,33.21c-3,0-5.49-1.95-5.49-5.18V15.94Z" transform="translate(-0.52)"/><path class="cls-1" d="M60.91,22.85c0-2.48-1-3.28-2.52-3.28s-2.57,1.11-2.57,3.72V32.5l-4.34.35v-10c0-2.48-1-3.28-2.52-3.28s-2.57,1.11-2.57,3.72V32.5L42,32.85V15.94l4.16-.35v2.08H46.3a4.84,4.84,0,0,1,4.3-2.44,4.71,4.71,0,0,1,4.34,2.66,5.21,5.21,0,0,1,4.83-2.66c3.37,0,5.49,2.08,5.49,5.58V32.5l-4.34.35v-10Z" transform="translate(-0.52)"/><path class="cls-1" d="M68.61,1l4.34-.35V17.71a7,7,0,0,1,5.22-2.48c4.56,0,8.68,3.1,8.68,9s-4.12,9-8.68,9c-5.76,0-9.56-3.14-9.56-9.3V1Zm9,28.25a4.81,4.81,0,0,0,4.87-5,4.79,4.79,0,1,0-9.56,0A4.77,4.77,0,0,0,77.64,29.22Z" transform="translate(-0.52)"/><path class="cls-1" d="M94.29,27.76a4.38,4.38,0,0,0,3.54,1.73c1.86,0,3.28-.8,5-2.66l1.59,3.76a8.68,8.68,0,0,1-6.64,2.61c-5.18,0-9-3.5-9-9.3a8.63,8.63,0,0,1,8.72-8.68c3.9,0,6.33,1.82,8.19,5.22Zm6-7.88a5.3,5.3,0,0,0-3.1-.93,4.73,4.73,0,0,0-4.3,4.74,2.68,2.68,0,0,0,.18,1Z" transform="translate(-0.52)"/><path class="cls-1" d="M111.38,15.58v1.73h0.09a5.81,5.81,0,0,1,4.78-2.08v4.34h-1c-2.92,0-3.9,1.37-3.9,4.16V32.5l-4.34.35V15.94Z" transform="translate(-0.52)"/><path class="cls-1" d="M117.26,1l4.34-.35V32.5l-4.34.35V1Z" transform="translate(-0.52)"/><path class="cls-1" d="M134,21.25c0-1.28-.71-1.95-3.37-1.95a25.25,25.25,0,0,0-4.16.58l1.2-4a30.6,30.6,0,0,1,3.85-.31c4.65,0,6.64,1.15,6.64,4.3V32.5l-4,.35V31H134c-0.58,1.51-2.17,2.17-4.21,2.17-3.54,0-5.62-2.44-5.62-6.15A5.76,5.76,0,0,1,130,21a5.21,5.21,0,0,1,4,1.55V21.25Zm-2.7,8.24c1.64,0,2.7-.8,2.7-2.39,0-1.28-1.06-2.13-2.7-2.13s-2.7.84-2.7,2.13C128.55,28.69,129.62,29.49,131.25,29.49Z" transform="translate(-0.52)"/><path class="cls-1" d="M141.75,15.94l4.34-.35v2.17h0.09a4.51,4.51,0,0,1,4.29-2.52c3,0,5.49,1.95,5.49,5.18V32.5l-4.34.35V23.07c0-2.3-1.06-3.5-2.74-3.5s-2.79,1.59-2.79,3.85V32.5l-4.34.35V15.94Z" transform="translate(-0.52)"/><path class="cls-1" d="M173.31,1l4.34-.35V32.5l-4.34.35V31.17a7.25,7.25,0,0,1-5.67,2c-5,0-9.08-3.1-9.08-9s4.12-9,9.08-9a7.23,7.23,0,0,1,5.67,2.48V1Zm-5.14,18.24a5,5,0,1,0,0,10,4.87,4.87,0,0,0,5.14-5A4.87,4.87,0,0,0,168.18,19.22Z" transform="translate(-0.52)"/><path class="cls-1" d="M197.57,32.5l-4.69.35V0L214,21.74V1l4.69-.35V33.87L197.57,11.78V32.5Z" transform="translate(-0.52)"/><path class="cls-1" d="M227.63,27.76a4.38,4.38,0,0,0,3.54,1.73c1.86,0,3.28-.8,5-2.66l1.59,3.76a8.67,8.67,0,0,1-6.64,2.61c-5.18,0-9-3.5-9-9.3a8.63,8.63,0,0,1,8.72-8.68c3.9,0,6.33,1.82,8.19,5.22Zm6-7.88a5.3,5.3,0,0,0-3.1-.93,4.73,4.73,0,0,0-4.29,4.74,2.68,2.68,0,0,0,.18,1Z" transform="translate(-0.52)"/><path class="cls-1" d="M240.38,15.94l4.34-.35v9.78c0,2.3,1.06,3.5,2.75,3.5s2.79-1.59,2.79-3.85V15.94l4.34-.35V32.5l-4.34.35V30.68h-0.09a4.51,4.51,0,0,1-4.29,2.52c-3,0-5.49-1.95-5.49-5.18V15.94Z" transform="translate(-0.52)"/><path class="cls-1" d="M262.3,15.58v1.73h0.09a5.82,5.82,0,0,1,4.78-2.08v4.34h-1c-2.92,0-3.9,1.37-3.9,4.16V32.5l-4.34.35V15.94Z" transform="translate(-0.52)"/><path class="cls-1" d="M276.51,15.23a9,9,0,1,1,0,18,9.13,9.13,0,0,1-9.08-9A9.13,9.13,0,0,1,276.51,15.23Zm4.74,9a4.74,4.74,0,1,0-9.48,0A4.74,4.74,0,1,0,281.25,24.22Z" transform="translate(-0.52)"/><path class="cls-1" d="M288.2,1l4.34-.35V32.5l-4.34.35V1Z" transform="translate(-0.52)"/><path class="cls-1" d="M304.22,15.23a9,9,0,1,1,0,18,9.13,9.13,0,0,1-9.08-9A9.13,9.13,0,0,1,304.22,15.23Zm4.74,9a4.74,4.74,0,1,0-9.48,0A4.74,4.74,0,1,0,309,24.22Z" transform="translate(-0.52)"/><path class="cls-1" d="M317.9,33.38c1.11,2.08,2.7,3.06,4.34,3.06A3.44,3.44,0,0,0,325.83,33c0-2.26-2.13-3.59-4.16-3.59a7.75,7.75,0,0,0-4.43,1.77l1-3.14A6.12,6.12,0,0,1,315,22.58c0-5.14,3.94-7.35,7.66-7.35a16.28,16.28,0,0,1,2.57.27,16.84,16.84,0,0,0,2.57.27c1.11,0,2.21-.09,3.28-0.18l-0.58,2.83H329a6.31,6.31,0,0,1,1.55,4,6.23,6.23,0,0,1-2.83,5.36,6.89,6.89,0,0,1,2.48,5.14c0,4.47-3.63,7.26-8.19,7.26a7.91,7.91,0,0,1-6.69-3.54Zm4.78-7.7c2,0,3.5-1.15,3.5-3.28s-1.46-3.19-3.5-3.19-3.54,1.15-3.54,3.19S320.6,25.68,322.68,25.68Z" transform="translate(-0.52)"/><path class="cls-1" d="M331.18,16l4.38-.8,5,10.58,5-10.58L350,16,338.31,40.16l-4.6-.35L338,30.86Z" transform="translate(-0.52)"/><path class="cls-1" d="M151,50.57a13.24,13.24,0,0,0-9.12-3.63,12.22,12.22,0,0,0,0,24.44,14.08,14.08,0,0,0,8.28-2.75V61.33H143.3V57.17h11.6V71.34C151,74,147.15,75.9,141.79,75.9a16.74,16.74,0,1,1,12.44-28.47Z" transform="translate(-0.52)"/><path class="cls-1" d="M162.29,58v1.73h0.09a5.81,5.81,0,0,1,4.78-2.08V62h-1c-2.92,0-3.9,1.37-3.9,4.16v8.77l-4.34.35V58.37Z" transform="translate(-0.52)"/><path class="cls-1" d="M176.5,57.66a9,9,0,1,1-9.08,9A9.1,9.1,0,0,1,176.5,57.66Zm4.74,9a4.74,4.74,0,1,0-4.74,5A4.73,4.73,0,0,0,181.24,66.65Z" transform="translate(-0.52)"/><path class="cls-1" d="M188.19,58.37l4.34-.35V67.8c0,2.3,1.06,3.5,2.74,3.5s2.79-1.59,2.79-3.85V58.37L202.4,58V74.93l-4.34.35V73.11H198a4.51,4.51,0,0,1-4.29,2.52c-3,0-5.49-1.95-5.49-5.18V58.37Z" transform="translate(-0.52)"/><path class="cls-1" d="M205.76,58.37L210.1,58v2.13a7,7,0,0,1,5.23-2.48c4.56,0,8.68,3.1,8.68,9s-4.12,9-8.68,9a6.89,6.89,0,0,1-5.23-2v8.63l-4.34.35V58.37Zm9,13.28a5,5,0,1,0-4.69-5A4.81,4.81,0,0,0,214.8,71.65Z" transform="translate(-0.52)"/></svg>