<svg id="Layer_1" data-name="Layer 1" xmlns="http://www.w3.org/2000/svg" viewBox="0 0 360 289.89"><defs><style>.cls-1{fill:#005a9c;}</style></defs><title>cumberland</title><path class="cls-1" d="M49,155.28a4.18,4.18,0,0,0,.78.54c5.82,1.41,10.37,4.93,14.82,8.7a33,33,0,0,0,6.07,4.14c6.11,3.17,12.32,4.2,19.27,2.13a23.79,23.79,0,0,1,17.28,1.55c3.28,1.58,6.63,3,9.94,4.55l1.89,0.89a4,4,0,0,1-2.15.42,78.16,78.16,0,0,0-23.1,3.06c-3.31.93-6.65,1.72-10,2.5a24.79,24.79,0,0,1-3.17.34l-0.08.52c1.43,0.73,2.84,1.5,4.29,2.19,8.24,3.92,16.68,7.13,26,6.7,6-.28,11.12-2.53,14.73-7.58,1.89-2.65,3-3.16,6.14-2.31,5.51,1.5,11,3.15,16.47,4.75,2.92,0.85,5.83,1.73,8.72,2.59,0.63-1.47,0-2-1.09-2.46-4-1.57-8-3.21-11.1-6.26a4.74,4.74,0,0,1-1.13-2.75c-0.22-2.12,0-4.3-.3-6.39-1.22-7.62-5.58-13.4-11.36-18.16-4-3.26-8.16-6.24-12.59-9.6a18,18,0,0,0-1.6,3.88,13.66,13.66,0,0,0,.16,4.5c0.45,2.72,1.31,5.39,1.61,8.12,0.89,8.09,4.8,13.91,12.38,17.09,2,0.85,4.12,1.53,6.17,2.33,1.34,0.53,2.65,1.14,4,1.73,0.6,0.27,1.19.56,1.78,0.84a3.58,3.58,0,0,1-.83.75c-13.45-2.54-25.51-8.23-36.73-16-4.07-2.81-5-6.44-4.05-11,0.57-2.67,1-5.38,1.46-8.28H90.13a23.53,23.53,0,0,0,7,10.93,4.33,4.33,0,0,1,1.74,4.26,13,13,0,0,1-1.74-1c-4.73-4-9.59-7.77-14.07-12-1.82-1.71-3.44-2.44-6-1.82,6.29,6.52,13.63,11.64,20.47,17.52-1.57,0-3.78,0-4.25-.87-2.52-4.75-6.57-7.45-11.37-9.12-9.75-3.38-19.8-3.91-30-2.58C51.1,154.77,50.23,155,49,155.28Z"/><path class="cls-1" d="M308,156.55a3.33,3.33,0,0,0-.66-0.24c-11.63-1.73-23.1-1.42-34.13,3.14a16.77,16.77,0,0,0-8.29,6.9c-1.32,2.22-2.55,2.64-5.17,1.66,7.64-5.89,15.55-11.37,22-18.65-2.75-.77-4.5.18-6.19,2.18a72,72,0,0,1-15.24,13.21c-0.55.36-1.13,0.66-1.86,1.09a4.73,4.73,0,0,1,1.55-4.11,55.35,55.35,0,0,0,5.22-6.42c1.15-1.77,1.71-3.91,2.6-6.07H253.47c0.5,3,.86,5.83,1.47,8.63,1,4.75.75,8.87-3.78,12-11.07,7.61-23,13.26-36.17,15.93a2.7,2.7,0,0,1-.83-0.1l-0.23-.6c1.63-.81,3.22-1.71,4.9-2.4,2.14-.89,4.42-1.47,6.53-2.42,5.71-2.56,10.12-6.39,11.55-12.81,1-4.41,2-8.82,2.71-13.28,0.44-2.73.4-5.56-1.92-7.35-3.18,2.42-6.24,4.71-9.27,7-1.6,1.23-3.22,2.44-4.69,3.81-6.68,6.21-10.8,13.57-9.89,23a3,3,0,0,1-1.43,3.06q-5.27,3.08-10.68,5.92c-1.08.57-2.07,1-1.31,2.5,0.46-.11.89-0.19,1.31-0.31,7.65-2.26,15.28-4.59,23-6.73,2-.56,4.41-1.15,6.11.43,4,3.72,8.77,5,14,5.32,8.7,0.49,17.15-1.15,25.53-3.28,2.14-.54,4.26-1.14,6.39-1.72l-0.06-.58c-0.9-.09-1.81-0.13-2.71-0.27a37.1,37.1,0,0,1-6.27-1.13,75.3,75.3,0,0,0-20.42-4.2l-9.29-.5c1-.49,1.6-0.79,2.2-1.06,2.87-1.27,5.81-2.43,8.61-3.84,2.43-1.22,4.79-2.55,7.59-2.55,3.63,0,7.48-.71,10.83.27a25,25,0,0,0,19-1.82,26.18,26.18,0,0,0,5.1-3.21C296.33,162.78,301.31,158.45,308,156.55Z"/><path class="cls-1" d="M108.13,41.08l-0.21-.63c-4.36,1.1-8.8,2-13.07,3.35C88,46.05,82.41,50,79,56.65c-0.54,1-2.19,1.51-3.32,2.24l-0.48-.57a17.09,17.09,0,0,1,1-1.67c3.11-4,6-8.32,9.45-12,4.38-4.68,9.24-8.91,13.92-13.31,1.44-1.35,2.85-1.53,4.87-.7,9.22,3.76,18.34,3.43,26.93-1.88a22.15,22.15,0,0,1,7.76-3.18c0.49-.09,1-0.27,1.74-0.49a56.4,56.4,0,0,0-32.37-.38,24.24,24.24,0,0,1,5.17-3.05c5.22-2.16,10.75-2.78,16.35-3.33a23.56,23.56,0,0,0,15.92-7.76,56.81,56.81,0,0,0,4.23-6.26l-0.53-.59c-4,.92-8.07,1.69-12,2.8a59.71,59.71,0,0,0-23,11.84C111,21.42,107,24.06,103.1,26.86a9,9,0,0,1-1.93.81l-0.42-.44c7.86-6.84,14.38-14.43,14.59-25.7-0.65.12-1.3,0.23-2,.37C102.92,4.17,97.8,11,99.19,21.56c0.63,4.8-.62,8.38-4.16,11.53-8.31,7.4-15.94,15.42-21.68,25.06a6.79,6.79,0,0,1-1.47,1.23c-0.29-2.84-.5-5.1,1.84-6.86A16.71,16.71,0,0,0,76.8,49c3.92-5.3,5.33-11.12,2.2-17.15-1.85-3.55-4.63-6.62-7-9.9l-0.47.27c0,0.29,0,.59,0,0.88,0.2,2.74-.26,5.17-2.37,7.25A8.44,8.44,0,0,0,67.35,34c-1.35,4.77-1,9.61-.12,14.39,0.8,4.25,2.17,8.4,1.65,12.83-0.29,2.48-.45,5-0.67,7.56,1.56,0.39,1.8-1,2.41-1.82,2.68-3.67,5.59-6.55,10.8-6.3,2.9,0.14,6-.81,8.78-1.74C99.08,56,103.21,48.1,108.13,41.08Z"/><path class="cls-1" d="M288.48,69l0.47-.52c-0.07-1.12-.14-2.24-0.21-3.36-0.26-3.89-.61-7.76.56-11.6a40.12,40.12,0,0,0,1.46-14.57c-0.2-2.85-.84-5.68-2.89-7.81a6.8,6.8,0,0,1-2-5.47c0-.78,0-1.56,0-2.48-1.87,2.12-3.65,4-5.26,6-4.46,5.55-5.18,12.52-1.65,18.49a55.09,55.09,0,0,0,5.54,7.13,5.15,5.15,0,0,1,.65,5.66,1.22,1.22,0,0,1-.5-0.2,20.19,20.19,0,0,1-1.36-1.8c-4.31-6.7-9-13-15-18.4a73.93,73.93,0,0,1-7.91-7.84A9.82,9.82,0,0,1,258,26.29c0.24-7.53-2.56-13.62-7.74-18.79A30,30,0,0,0,238,0a60.38,60.38,0,0,0,18.36,28.61,3.14,3.14,0,0,1-1.93-.33c-3.24-2.18-6.77-4.07-9.58-6.71A59.35,59.35,0,0,0,218.73,7.51c-3.66-1-7.4-1.67-11.25-2.53a5.86,5.86,0,0,0,.14.77c4,9.32,11.77,13.18,21.18,14a58.9,58.9,0,0,1,15.75,3.46,30.33,30.33,0,0,1,4.31,2.46l-0.17.55a51.72,51.72,0,0,0-31.58.13c0.74,0.34,1.53.47,2.27,0.73A21.13,21.13,0,0,1,224.24,29c9,6.08,18.57,6.93,28.55,3a4.6,4.6,0,0,1,5.25.82A116,116,0,0,1,280.5,56.92c0.59,0.85,1.14,1.73,2,3.07-2.07-.48-3.54-0.64-4.37-2.33A23,23,0,0,0,268.87,48,45.41,45.41,0,0,0,254,42.79c-1.6-.3-3.23-0.52-5-0.81,2.47,3.56,4.5,7,7,10a26.82,26.82,0,0,0,22.17,10.16A6.52,6.52,0,0,1,282,63.33,60.74,60.74,0,0,1,286.62,68,7.69,7.69,0,0,0,288.48,69Z"/><path class="cls-1" d="M49,155.28c1.18-.26,2-0.51,2.93-0.62,10.18-1.34,20.23-.8,30,2.58,4.8,1.66,8.85,4.36,11.37,9.12,0.47,0.89,2.68.86,4.25,0.87-6.84-5.87-14.17-11-20.47-17.52,2.54-.63,4.16.11,6,1.82,4.48,4.21,9.34,8,14.07,12a13,13,0,0,0,1.74,1,4.33,4.33,0,0,0-1.74-4.26,23.53,23.53,0,0,1-7-10.93h13.6c-0.5,2.91-.89,5.61-1.46,8.28-1,4.55,0,8.19,4.05,11,11.21,7.74,23.27,13.43,36.73,16a3.58,3.58,0,0,0,.83-0.75c-0.59-.28-1.18-0.57-1.78-0.84-1.32-.59-2.63-1.2-4-1.73-2-.81-4.14-1.49-6.17-2.33-7.58-3.18-11.49-9-12.38-17.09-0.3-2.73-1.16-5.4-1.61-8.12a13.66,13.66,0,0,1-.16-4.5,18,18,0,0,1,1.6-3.88c4.43,3.36,8.63,6.34,12.59,9.6,5.78,4.76,10.14,10.53,11.36,18.16,0.33,2.09.08,4.27,0.3,6.39a4.74,4.74,0,0,0,1.13,2.75c3.13,3,7.11,4.69,11.1,6.26,1.13,0.44,1.71,1,1.09,2.46-2.89-.86-5.8-1.74-8.72-2.59-5.49-1.6-11-3.25-16.47-4.75-3.16-.86-4.24-0.34-6.14,2.31-3.61,5-8.7,7.3-14.73,7.58-9.34.43-17.79-2.78-26-6.7-1.45-.69-2.86-1.46-4.29-2.19l0.08-.52a24.79,24.79,0,0,0,3.17-.34c3.35-.78,6.69-1.58,10-2.5a78.16,78.16,0,0,1,23.1-3.06,4,4,0,0,0,2.15-.42l-1.89-.89c-3.32-1.51-6.66-3-9.94-4.55A23.79,23.79,0,0,0,90,170.79c-6.95,2.06-13.16,1-19.27-2.13a33,33,0,0,1-6.07-4.14c-4.45-3.77-9-7.29-14.82-8.7A4.18,4.18,0,0,1,49,155.28Z"/><path class="cls-1" d="M308,156.55c-6.65,1.9-11.64,6.23-16.71,10.47a26.18,26.18,0,0,1-5.1,3.21,25,25,0,0,1-19,1.82c-3.35-1-7.21-.28-10.83-0.27-2.8,0-5.16,1.33-7.59,2.55-2.8,1.41-5.74,2.57-8.61,3.84-0.6.26-1.18,0.56-2.2,1.06l9.29,0.5a75.3,75.3,0,0,1,20.42,4.2,37.1,37.1,0,0,0,6.27,1.13c0.89,0.14,1.81.18,2.71,0.27l0.06,0.58c-2.13.57-4.25,1.17-6.39,1.72-8.38,2.13-16.82,3.77-25.53,3.28-5.19-.29-10-1.6-14-5.32-1.7-1.58-4.12-1-6.11-.43-7.68,2.14-15.31,4.48-23,6.73-0.42.12-.85,0.2-1.31,0.31-0.75-1.53.23-1.93,1.31-2.5q5.39-2.86,10.68-5.92a3,3,0,0,0,1.43-3.06c-0.91-9.47,3.21-16.83,9.89-23,1.47-1.37,3.1-2.58,4.69-3.81,3-2.33,6.09-4.63,9.27-7,2.31,1.8,2.36,4.63,1.92,7.35-0.72,4.46-1.73,8.87-2.71,13.28-1.43,6.42-5.84,10.25-11.55,12.81-2.11.95-4.39,1.53-6.53,2.42-1.68.69-3.27,1.6-4.9,2.4l0.23,0.6a2.7,2.7,0,0,0,.83.1c13.22-2.67,25.11-8.32,36.17-15.93,4.52-3.11,4.81-7.23,3.78-12-0.61-2.8-1-5.66-1.47-8.63H267.8c-0.9,2.15-1.46,4.3-2.6,6.07a55.35,55.35,0,0,1-5.22,6.42,4.73,4.73,0,0,0-1.55,4.11c0.73-.43,1.32-0.73,1.86-1.09a72,72,0,0,0,15.24-13.21c1.69-2,3.45-3,6.19-2.18-6.46,7.28-14.38,12.76-22,18.65,2.62,1,3.85.57,5.17-1.66a16.77,16.77,0,0,1,8.29-6.9c11-4.56,22.5-4.87,34.13-3.14A3.33,3.33,0,0,1,308,156.55Z"/><path class="cls-1" d="M108.13,41.08c-4.91,7-9,14.87-17.93,17.8-2.83.93-5.88,1.88-8.78,1.74-5.21-.25-8.12,2.63-10.8,6.3-0.61.83-.85,2.21-2.41,1.82,0.23-2.58.38-5.08,0.67-7.56,0.52-4.42-.85-8.58-1.65-12.83-0.9-4.79-1.24-9.63.12-14.39a8.44,8.44,0,0,1,1.81-3.67c2.11-2.08,2.57-4.51,2.37-7.25,0-.29,0-0.59,0-0.88L72,21.91c2.36,3.28,5.15,6.35,7,9.9,3.13,6,1.72,11.85-2.2,17.15a16.71,16.71,0,0,1-3.08,3.56c-2.34,1.76-2.13,4-1.84,6.86a6.79,6.79,0,0,0,1.47-1.23C79.09,48.5,86.72,40.49,95,33.09c3.54-3.15,4.79-6.73,4.16-11.53C97.8,11,102.92,4.17,113.38,1.91c0.65-.14,1.31-0.25,2-0.37-0.21,11.26-6.73,18.85-14.59,25.7l0.42,0.44a9,9,0,0,0,1.93-.81c3.87-2.8,7.89-5.44,11.52-8.52a59.71,59.71,0,0,1,23-11.84c4-1.11,8-1.88,12-2.8l0.53,0.59a56.81,56.81,0,0,1-4.23,6.26A23.56,23.56,0,0,1,130,18.3c-5.6.54-11.12,1.16-16.35,3.33a24.24,24.24,0,0,0-5.17,3.05,56.4,56.4,0,0,1,32.37.38c-0.78.22-1.25,0.4-1.74,0.49a22.15,22.15,0,0,0-7.76,3.18c-8.59,5.31-17.7,5.64-26.93,1.88-2-.82-3.44-0.65-4.87.7-4.68,4.4-9.54,8.63-13.92,13.31-3.47,3.71-6.33,8-9.45,12a17.09,17.09,0,0,0-1,1.67l0.48,0.57c1.14-.73,2.78-1.2,3.32-2.24C82.41,50,88,46.05,94.85,43.8c4.26-1.4,8.7-2.25,13.07-3.35Z"/><path class="cls-1" d="M288.48,69a7.69,7.69,0,0,1-1.85-1A60.74,60.74,0,0,0,282,63.33a6.52,6.52,0,0,0-3.85-1.18A26.82,26.82,0,0,1,256,52c-2.51-3-4.54-6.45-7-10,1.82,0.29,3.44.51,5,.81A45.41,45.41,0,0,1,268.87,48a23,23,0,0,1,9.28,9.68c0.83,1.69,2.3,1.85,4.37,2.33-0.88-1.34-1.43-2.22-2-3.07A116,116,0,0,0,258,32.78a4.6,4.6,0,0,0-5.25-.82c-10,4-19.53,3.11-28.55-3a21.13,21.13,0,0,0-4.87-1.88c-0.74-.26-1.53-0.39-2.27-0.73a51.72,51.72,0,0,1,31.58-.13l0.17-.55a30.33,30.33,0,0,0-4.31-2.46,58.9,58.9,0,0,0-15.75-3.46c-9.4-.83-17.2-4.7-21.18-14A5.86,5.86,0,0,1,207.47,5c3.86,0.86,7.59,1.56,11.25,2.53a59.35,59.35,0,0,1,26.14,14.06c2.81,2.64,6.34,4.53,9.58,6.71a3.14,3.14,0,0,0,1.93.33A60.38,60.38,0,0,1,238,0a30,30,0,0,1,12.23,7.5c5.18,5.17,8,11.26,7.74,18.79a9.82,9.82,0,0,0,2.39,5.89A73.93,73.93,0,0,0,268.29,40c6,5.35,10.69,11.71,15,18.4a20.19,20.19,0,0,0,1.36,1.8,1.22,1.22,0,0,0,.5.2,5.15,5.15,0,0,0-.65-5.66A55.09,55.09,0,0,1,279,47.63c-3.53-6-2.81-12.94,1.65-18.49,1.61-2,3.39-3.87,5.26-6,0,0.93,0,1.71,0,2.48a6.8,6.8,0,0,0,2,5.47c2.05,2.13,2.69,5,2.89,7.81a40.12,40.12,0,0,1-1.46,14.57c-1.17,3.85-.82,7.71-0.56,11.6,0.07,1.12.14,2.24,0.21,3.36Z"/><path class="cls-1" d="M42.52,101l0.81,0.75a32.14,32.14,0,0,0-1.49,3.31,31.09,31.09,0,0,1-7.25,2.81,35,35,0,0,1-8,.83,31.44,31.44,0,0,1-14.37-3,21.43,21.43,0,0,1-9-8.4A24.18,24.18,0,0,1,0,84.89,21.23,21.23,0,0,1,7.15,68.36q7.15-6.44,19.74-6.44a46.24,46.24,0,0,1,8.29.75,47.22,47.22,0,0,1,8.16,2.27l0.23,0.49a18.63,18.63,0,0,0-.83,3.37q-0.43,2.82-.66,7H39.34A41.58,41.58,0,0,0,39,70.18a6.21,6.21,0,0,0-1.78-1.72,12.7,12.7,0,0,0-4.29-2,22,22,0,0,0-6-.76q-7.78,0-12.36,4.8T10,83.88q0,9.28,5.51,15,5.09,5.32,14,5.32a27.74,27.74,0,0,0,6.44-.71A32.17,32.17,0,0,0,42.52,101Z"/><path class="cls-1" d="M44.45,81.74v-2.5a49.46,49.46,0,0,0,9.7-1.85l3.21-1.13a0.6,0.6,0,0,1,.58.75l-0.13,1.92q-0.55,7.47-.55,14.42a24.68,24.68,0,0,0,.45,6,4.16,4.16,0,0,0,1.64,2.29,5.5,5.5,0,0,0,3.16.81,6.66,6.66,0,0,0,4-1.27,5.23,5.23,0,0,0,2.14-2.79q0.41-1.53.41-8.71a59.62,59.62,0,0,0-.19-6.72,1.1,1.1,0,0,0-.45-0.72A20.24,20.24,0,0,0,64,81.74v-2.5a54.19,54.19,0,0,0,9.74-1.75l3.43-1.23a0.55,0.55,0,0,1,.55.68l-0.06.88q-0.52,5.66-.52,20.51a36.65,36.65,0,0,0,.26,5.72,1.32,1.32,0,0,0,.52.78,16.59,16.59,0,0,0,4.06.55V108q-3.71-.2-7.36-0.19-3,0-5.52.19l-0.29-.58q0.14-1.62.26-5.09a63.82,63.82,0,0,0-5.84,5.35,11.3,11.3,0,0,1-4.54,1,10.69,10.69,0,0,1-5.19-1.2,7.86,7.86,0,0,1-3.26-3.13,11.5,11.5,0,0,1-1.05-5.44l0.06-3.54q0.1-3.28.1-5.32a56.22,56.22,0,0,0-.23-6.92,1.53,1.53,0,0,0-.68-1.06A13.73,13.73,0,0,0,44.45,81.74Z"/><path class="cls-1" d="M83.57,108v-2.66a12.65,12.65,0,0,0,3.82-.44,1.56,1.56,0,0,0,.6-1.12,63.73,63.73,0,0,0,.26-7.53q0-12.5-.32-13.54-0.26-.88-2.25-0.91l-2.09-.06v-2.5a60.24,60.24,0,0,0,6.79-1.07,33,33,0,0,0,5.08-1.56,2.24,2.24,0,0,1,.68-0.16q0.45,0,.45.81,0,0.62-.08,1.65-0.05.45-.05,1.62v1.17l5.31-4a8.49,8.49,0,0,1,5.12-1.27,9.88,9.88,0,0,1,5.5,1.35,8.32,8.32,0,0,1,3.11,4.3L121,77.75a7,7,0,0,1,4.44-1.27q5.09,0,7.49,2.5t2.4,8.13l-0.06,2.7q-0.13,4.49-.13,8a37.4,37.4,0,0,0,.29,6,1.72,1.72,0,0,0,.67,1.06,12.27,12.27,0,0,0,3.65.5V108q-4-.2-7-0.19t-6,.19l-0.39-.62a113.76,113.76,0,0,0,.84-13.64q0-7.89-1.22-9.86t-4.31-2a6.29,6.29,0,0,0-3.55,1,4.91,4.91,0,0,0-2,2.31,26.46,26.46,0,0,0-.33,5.69q0,8.59.23,11.87a2.68,2.68,0,0,0,.6,1.87q0.5,0.41,4.14.67V108q-4.25-.2-8.34-0.19-5.09,0-9.15.19v-2.66q3.21,0,3.76-.93t0.55-8.15a91.65,91.65,0,0,0-.32-10.24A4.8,4.8,0,0,0,105.61,83a5.24,5.24,0,0,0-3.45-1,5.92,5.92,0,0,0-3,.75A6.5,6.5,0,0,0,97,84.83a4.09,4.09,0,0,0-.52,2.31l0,1.24q0.1,0.91.1,5.11l0,3.84a57.21,57.21,0,0,0,.19,6.54,1.3,1.3,0,0,0,.54.94,13,13,0,0,0,3.55.59V108q-3.88-.2-8.51-0.19Q90.7,107.85,83.57,108Z"/><path class="cls-1" d="M146.24,108.72l-1.55-.62q0.58-7.85.58-21.71,0-6.26-.1-9.67L145,68.38a6.4,6.4,0,0,0-.32-2.53,1.24,1.24,0,0,0-.81-0.58,30.61,30.61,0,0,0-3.8-.26V62.67a33.19,33.19,0,0,0,5.66-.76,32.19,32.19,0,0,0,5.82-1.57l1.42-.55a0.63,0.63,0,0,1,.62.78l-0.1,3.4q-0.06,1.75-.23,18.39l3.92-3.28A11.18,11.18,0,0,1,160.5,77a10.75,10.75,0,0,1,3.55-.52A11.48,11.48,0,0,1,172.8,80,12.68,12.68,0,0,1,176.09,89a19.26,19.26,0,0,1-.91,5.7,16.57,16.57,0,0,1-2.25,4.81,13.41,13.41,0,0,1-3.49,3.29q-2.69,1.72-4.57,3.15a14.52,14.52,0,0,1-3.76,2.21,11.65,11.65,0,0,1-3.73.52,14.33,14.33,0,0,1-4.05-.55,17.94,17.94,0,0,1-4.25-2Q148.3,106.75,146.24,108.72Zm7-23v14.89a8.12,8.12,0,0,0,2.89,2.69,8,8,0,0,0,3.83.91,6.75,6.75,0,0,0,5.61-2.77q2.14-2.77,2.14-8.42,0-5.32-2.19-8a7,7,0,0,0-5.72-2.71,7.46,7.46,0,0,0-3.52.86A9.83,9.83,0,0,0,153.25,85.76Z"/><path class="cls-1" d="M205.78,101.78l0.94,0.94-1.45,3.1a18.73,18.73,0,0,1-5,2.17,21.68,21.68,0,0,1-5.69.73q-7.07,0-11.14-4.11t-4.07-11.54a21.68,21.68,0,0,1,1.2-7.79,9.32,9.32,0,0,1,3.19-4.15A36.58,36.58,0,0,1,188.86,78a13.74,13.74,0,0,1,6.37-1.49,13,13,0,0,1,8.79,3q3.47,3,3.47,9.57,0,0.81-.13,2.47l-5.31,1q-2.46.16-7.12,0.16h-7q0.48,5.59,3.34,8.42a9.89,9.89,0,0,0,7.27,2.83,12.87,12.87,0,0,0,3.67-.54A16.35,16.35,0,0,0,205.78,101.78ZM187.71,89.2q2.92,0.26,5.84.26,2.56,0,5.38-.26l0-1.53q0-4-1.46-5.84a4.78,4.78,0,0,0-4-1.84,5.23,5.23,0,0,0-3,.86,5.12,5.12,0,0,0-1.88,2.42A23.6,23.6,0,0,0,187.71,89.2Z"/><path class="cls-1" d="M208.52,108v-2.66a17.61,17.61,0,0,0,3.76-.39,1.42,1.42,0,0,0,.62-0.62,10.89,10.89,0,0,0,.42-3.44q0.13-4.74.13-8.64,0-7.5-.2-8.9a1.55,1.55,0,0,0-.58-1.15q-0.49-.34-4.15-0.47v-2.5a48.43,48.43,0,0,0,9.35-1.54l3.33-1.25c0.3,0,.45.21,0.45,0.62l0,0.45q-0.11,2-.1,5.87a48.44,48.44,0,0,0,3.67-4A9,9,0,0,1,227.78,77a7.32,7.32,0,0,1,5.06-.19q-0.29,3.25-.39,8.83l-1.46.52a4,4,0,0,0-4-2.28,5.54,5.54,0,0,0-3.34,1,4.47,4.47,0,0,0-1.78,2.31,43.58,43.58,0,0,0-.26,6.64q0,8.23.23,9.6a1.69,1.69,0,0,0,.62,1.24q0.75,0.49,4.9.68V108l-3.63-.1q-3.47-.1-6-0.1t-5.58.1Z"/><path class="cls-1" d="M233.34,64.55V62.67a72.88,72.88,0,0,0,7.26-1.26,45.81,45.81,0,0,0,5.74-1.85l0.84,0.71q-0.49,11.6-.49,32.38,0,4.19.13,8.48a11.18,11.18,0,0,0,.31,3.17,1.69,1.69,0,0,0,.77.7,16,16,0,0,0,3.85.39V108l-3.4-.1q-3.17-.1-5.34-0.1l-9.68.19v-2.66l2.4-.13a3,3,0,0,0,2.09-.6q0.47-.54.57-4.08,0.16-4.91.16-13.94l0-13.87q0-6.33-.36-7.15a1,1,0,0,0-.49-0.58Q237.1,64.68,233.34,64.55Z"/><path class="cls-1" d="M283.17,105.38V108l-2.5-.1q-2-.1-4-0.1-3.06,0-5.79.19l-0.33-.35,0.32-4.45-6.77,5.06a14.44,14.44,0,0,1-3.2.42,6.85,6.85,0,0,1-5.31-2,8.53,8.53,0,0,1-1.88-6q0-4.83,2.56-6.81,3.3-2.59,14.6-4.64-0.06-3.84-1.33-5.57a6.42,6.42,0,0,0-5.5-2.38,8.07,8.07,0,0,0-1.8.21,8.77,8.77,0,0,0-1.86.67L259,85.66l-2.24-.55,0.06-1.46,0-1.43,0-1.3a44.93,44.93,0,0,1,7.14-3.86,13.23,13.23,0,0,1,4.41-.58,14.43,14.43,0,0,1,6.23,1.15,7.63,7.63,0,0,1,3.5,3.14,12.14,12.14,0,0,1,1.1,5.79q0,1.59-.13,5.69T278.86,99a29.3,29.3,0,0,0,.23,4.94,1.27,1.27,0,0,0,.63.81A13.27,13.27,0,0,0,283.17,105.38ZM270.91,92.05q-5.69,1.24-7.4,2.68a4.83,4.83,0,0,0-1.71,3.89,4.31,4.31,0,0,0,1.1,3.12,3.7,3.7,0,0,0,2.78,1.14q2.55,0,5.24-2.9V92.05Z"/><path class="cls-1" d="M284.29,108v-2.66q3.53-.19,4-0.57a2.44,2.44,0,0,0,.55-1.67q0.19-3.28.19-11.56,0-4.09-.13-7a6.83,6.83,0,0,0-.26-2.14,1,1,0,0,0-.52-0.39,28.15,28.15,0,0,0-3.83-.23v-2.5a30.91,30.91,0,0,0,5.48-.75A38.92,38.92,0,0,0,296,76.78l0.88-.3c0.3,0,.45.25,0.45,0.75l0,0.29q-0.1.91-.1,4.67l5-4.22a5.21,5.21,0,0,1,1.94-1.1,13.31,13.31,0,0,1,3.46-.39,11.72,11.72,0,0,1,5.62,1.19A7.35,7.35,0,0,1,316.48,81a15.69,15.69,0,0,1,1,6.52q0,2-.1,4.52-0.16,5.27-.16,9.1a8.76,8.76,0,0,0,.36,3,1.41,1.41,0,0,0,.73.78,21.63,21.63,0,0,0,3.55.49V108l-4-.13-2.56-.06-6.68.19-0.36-.42A93.48,93.48,0,0,0,309.13,95q0-8.25-1-10.16-1.3-2.47-4.74-2.47a6.55,6.55,0,0,0-3.83,1.12,5.42,5.42,0,0,0-2.11,2.39,12.71,12.71,0,0,0-.23,3.29q0,11.77.1,13.48a3.3,3.3,0,0,0,.55,2.1q0.58,0.49,4.35.68V108q-5.64-.2-9.53-0.19Q290.38,107.85,284.29,108Z"/><path class="cls-1" d="M347.19,77.88v-5.6a41.39,41.39,0,0,0-.22-6,1.26,1.26,0,0,0-.63-0.86A19.83,19.83,0,0,0,342,65V62.7a45,45,0,0,0,12.94-3.11l0.84,0.78q-0.31,5.23-.37,9.9l-0.21,25.48a73.44,73.44,0,0,0,.23,7.79,1.68,1.68,0,0,0,.63,1.22,13.77,13.77,0,0,0,4,.63V108q-4-.2-7.74-0.19-2.73,0-5.11.19l-0.55-.39q0.41-3.27.58-5.29-2.21,1.65-7,5.68a10.06,10.06,0,0,1-3.47.68,11.53,11.53,0,0,1-9-4q-3.58-4-3.58-10.66a22.15,22.15,0,0,1,.73-5.89,12.23,12.23,0,0,1,1.72-4,18.12,18.12,0,0,1,4-3.41,34.06,34.06,0,0,1,5.92-3.55,11.06,11.06,0,0,1,4.07-.73,16,16,0,0,1,3.24.34A19.45,19.45,0,0,1,347.19,77.88Zm0,6.95a10.43,10.43,0,0,0-3.47-3.25,8.79,8.79,0,0,0-4.31-1.07,6,6,0,0,0-5.13,2.39q-1.78,2.39-1.78,8,0,5.78,2.19,8.64a6.76,6.76,0,0,0,5.59,2.86,7.45,7.45,0,0,0,4.27-1.33,5.43,5.43,0,0,0,2.3-2.44q0.34-1.1.34-8.38V84.83Z"/><path class="cls-1" d="M42.68,133.11L48.06,120h8.07v0.54H55.49a2.78,2.78,0,0,0-1.4.31,1.43,1.43,0,0,0-.59.69,5.93,5.93,0,0,0-.16,1.83v13.08a6.49,6.49,0,0,0,.16,1.9,1.45,1.45,0,0,0,.66.67,2.66,2.66,0,0,0,1.33.29h0.64v0.54H45.78v-0.54h0.64a2.78,2.78,0,0,0,1.4-.31,1.42,1.42,0,0,0,.59-0.7,6,6,0,0,0,.16-1.84v-14.7L41,139.87H40.61l-7.72-18v14a12.24,12.24,0,0,0,.07,1.8,2.07,2.07,0,0,0,.83,1.19,3.43,3.43,0,0,0,2,.46v0.54H29v-0.54h0.2a3.12,3.12,0,0,0,1.23-.21,2,2,0,0,0,.86-0.61,2.81,2.81,0,0,0,.45-1.07q0-.16,0-1.49V123.4a6.37,6.37,0,0,0-.16-1.88,1.47,1.47,0,0,0-.66-0.66,2.66,2.66,0,0,0-1.33-.29H29V120h8.1Z"/><path class="cls-1" d="M66.63,121.18v8.07H67a3.13,3.13,0,0,0,2.74-1.18,7.3,7.3,0,0,0,1.08-3.5H71.4V135H70.84a7.78,7.78,0,0,0-.74-2.78,3.18,3.18,0,0,0-1.31-1.45,5,5,0,0,0-2.16-.37v5.59a8.07,8.07,0,0,0,.14,2,1.2,1.2,0,0,0,.52.6,2.44,2.44,0,0,0,1.23.23H69.7a6.39,6.39,0,0,0,6.86-5.21H77.1l-0.89,6.3H59.07v-0.54h0.66a2.74,2.74,0,0,0,1.39-.31,1.33,1.33,0,0,0,.59-0.7,6,6,0,0,0,.16-1.84v-13a10.43,10.43,0,0,0-.07-1.65,1.4,1.4,0,0,0-.54-0.79,2.52,2.52,0,0,0-1.52-.41H59.07V120h16.6v5.87H75.11a7.17,7.17,0,0,0-1.19-3.09,4.44,4.44,0,0,0-2.17-1.37,11.77,11.77,0,0,0-3.07-.26h-2Z"/><path class="cls-1" d="M80.64,139.87v-0.54H81.3a2.65,2.65,0,0,0,1.32-.27,1.66,1.66,0,0,0,.68-0.74,7,7,0,0,0,.13-1.84v-13a6.53,6.53,0,0,0-.16-1.9,1.46,1.46,0,0,0-.65-0.67,2.62,2.62,0,0,0-1.32-.29H80.64V120h8.88a14.21,14.21,0,0,1,5.72,1,8.45,8.45,0,0,1,4,3.58,11.41,11.41,0,0,1,.7,9.28,8.85,8.85,0,0,1-1.74,2.91,8.53,8.53,0,0,1-2.46,1.84,13.11,13.11,0,0,1-3.41,1.07,16.06,16.06,0,0,1-2.81.18H80.64Zm7.56-18.71v15.48a5.42,5.42,0,0,0,.12,1.51,0.83,0.83,0,0,0,.39.42,2.39,2.39,0,0,0,1.14.22,4.43,4.43,0,0,0,3.73-1.67q1.76-2.25,1.76-7a13.17,13.17,0,0,0-1.2-6.1,5.12,5.12,0,0,0-2.44-2.43A9.5,9.5,0,0,0,88.2,121.16Z"/><path class="cls-1" d="M114.65,139.33v0.54H104.28v-0.54h0.66a2.74,2.74,0,0,0,1.39-.31,1.33,1.33,0,0,0,.59-0.7,6,6,0,0,0,.16-1.84v-13a6.53,6.53,0,0,0-.16-1.9,1.46,1.46,0,0,0-.65-0.67,2.62,2.62,0,0,0-1.32-.29h-0.66V120h10.37v0.54H114a2.74,2.74,0,0,0-1.39.31,1.4,1.4,0,0,0-.6.7,6,6,0,0,0-.16,1.84v13a6.26,6.26,0,0,0,.17,1.9,1.5,1.5,0,0,0,.66.67,2.62,2.62,0,0,0,1.32.29h0.66Z"/><path class="cls-1" d="M137.12,119.59v6.88h-0.57a7.33,7.33,0,0,0-2.4-4.13,6.12,6.12,0,0,0-4-1.43,5.88,5.88,0,0,0-3.41,1.07,6.22,6.22,0,0,0-2.27,2.79,12.64,12.64,0,0,0-.92,4.91,16.43,16.43,0,0,0,.67,4.85,6.44,6.44,0,0,0,2.11,3.31,5.87,5.87,0,0,0,3.72,1.12,7.25,7.25,0,0,0,3.43-.82,11.86,11.86,0,0,0,3.28-2.82V137a10.8,10.8,0,0,1-3.47,2.52,10.54,10.54,0,0,1-4.22.78,12.11,12.11,0,0,1-5.64-1.27,9,9,0,0,1-3.8-3.66,10.2,10.2,0,0,1-1.34-5.07,10.83,10.83,0,0,1,5.49-9.33,10.85,10.85,0,0,1,5.36-1.4,12.17,12.17,0,0,1,4.42.91,6.79,6.79,0,0,0,1.71.53,1.11,1.11,0,0,0,.81-0.34,1.86,1.86,0,0,0,.45-1.09h0.57Z"/><path class="cls-1" d="M153,134.23h-7l-0.83,1.93a4.3,4.3,0,0,0-.41,1.6,1.32,1.32,0,0,0,.67,1.23,5.68,5.68,0,0,0,1.95.35v0.54h-6.6v-0.54a3,3,0,0,0,1.76-.89,11.78,11.78,0,0,0,1.7-3l7.09-15.83h0.28l7.15,16.26a9.9,9.9,0,0,0,1.68,2.91,2.3,2.3,0,0,0,1.4.53v0.54h-9.59v-0.54h0.39a3,3,0,0,0,1.62-.32,0.78,0.78,0,0,0,.32-0.67,1.8,1.8,0,0,0-.09-0.54q0-.13-0.44-1.1Zm-0.5-1.08-3-6.83-3,6.83h6Z"/><path class="cls-1" d="M182.9,132.91l-0.75,7H164.54v-0.54h0.66a2.74,2.74,0,0,0,1.39-.31,1.33,1.33,0,0,0,.59-0.7,6,6,0,0,0,.16-1.84v-13a6.53,6.53,0,0,0-.16-1.9,1.46,1.46,0,0,0-.65-0.67,2.62,2.62,0,0,0-1.32-.29h-0.66V120h10.57v0.54h-0.86a2.74,2.74,0,0,0-1.39.31,1.4,1.4,0,0,0-.6.7,6,6,0,0,0-.16,1.84v12.64a6.41,6.41,0,0,0,.18,1.94,1.17,1.17,0,0,0,.69.62,7,7,0,0,0,1.77.13h1.65a5.59,5.59,0,0,0,2.63-.56,4.9,4.9,0,0,0,1.82-1.76,14.24,14.24,0,0,0,1.45-3.54h0.6Z"/><path class="cls-1" d="M213.39,119.59v6.88h-0.57a7.33,7.33,0,0,0-2.4-4.13,6.12,6.12,0,0,0-4-1.43A5.88,5.88,0,0,0,203,122a6.23,6.23,0,0,0-2.27,2.79,12.64,12.64,0,0,0-.92,4.91,16.45,16.45,0,0,0,.67,4.85,6.44,6.44,0,0,0,2.11,3.31,5.87,5.87,0,0,0,3.72,1.12,7.25,7.25,0,0,0,3.43-.82,11.87,11.87,0,0,0,3.28-2.82V137a10.8,10.8,0,0,1-3.47,2.52,10.55,10.55,0,0,1-4.22.78,12.11,12.11,0,0,1-5.64-1.27,9,9,0,0,1-3.8-3.66,10.2,10.2,0,0,1-1.34-5.07,10.83,10.83,0,0,1,5.49-9.33,10.85,10.85,0,0,1,5.36-1.4,12.17,12.17,0,0,1,4.42.91,6.79,6.79,0,0,0,1.71.53,1.11,1.11,0,0,0,.81-0.34,1.87,1.87,0,0,0,.45-1.09h0.57Z"/><path class="cls-1" d="M225,121.18v8.07h0.4a3.13,3.13,0,0,0,2.73-1.18,7.29,7.29,0,0,0,1.08-3.5h0.56V135H229.2a7.78,7.78,0,0,0-.74-2.78,3.18,3.18,0,0,0-1.31-1.45,5,5,0,0,0-2.16-.37v5.59a8.07,8.07,0,0,0,.14,2,1.2,1.2,0,0,0,.52.6,2.44,2.44,0,0,0,1.23.23h1.18a6.39,6.39,0,0,0,6.86-5.21h0.54l-0.89,6.3H217.43v-0.54h0.66a2.74,2.74,0,0,0,1.39-.31,1.33,1.33,0,0,0,.59-0.7,6.07,6.07,0,0,0,.16-1.84v-13a10.58,10.58,0,0,0-.07-1.65,1.41,1.41,0,0,0-.54-0.79,2.52,2.52,0,0,0-1.52-.41h-0.66V120H234v5.87h-0.56a7.17,7.17,0,0,0-1.19-3.09,4.44,4.44,0,0,0-2.17-1.37,11.77,11.77,0,0,0-3.07-.26h-2Z"/><path class="cls-1" d="M246.06,120l9.78,12.3v-8.53a4,4,0,0,0-.51-2.41,2.83,2.83,0,0,0-2.36-.82V120h6.55v0.54a5,5,0,0,0-1.69.42,1.68,1.68,0,0,0-.67.83,5.7,5.7,0,0,0-.24,2v16.51h-0.5L243,123.81v12.61a2.78,2.78,0,0,0,.78,2.31,2.87,2.87,0,0,0,1.79.6h0.47v0.54h-7v-0.54a3.18,3.18,0,0,0,2.28-.67,3.15,3.15,0,0,0,.64-2.24v-14l-0.42-.53a3.88,3.88,0,0,0-1.11-1,3.36,3.36,0,0,0-1.39-.28V120h7Z"/><path class="cls-1" d="M280.93,120v5.37h-0.53a8.48,8.48,0,0,0-1-2.67,4,4,0,0,0-1.56-1.29,5,5,0,0,0-1.95-.26h-1.48v15.3a6.24,6.24,0,0,0,.17,1.9,1.5,1.5,0,0,0,.66.67,2.65,2.65,0,0,0,1.34.29h0.66v0.54H266.82v-0.54h0.66a2.74,2.74,0,0,0,1.39-.31,1.39,1.39,0,0,0,.6-0.7,6.07,6.07,0,0,0,.16-1.84v-15.3h-1.43a4.17,4.17,0,0,0-2.91.85,5.6,5.6,0,0,0-1.61,3.38h-0.56V120h17.81Z"/><path class="cls-1" d="M292,121.18v8.07h0.4a3.13,3.13,0,0,0,2.73-1.18,7.29,7.29,0,0,0,1.08-3.5h0.56V135h-0.56a7.78,7.78,0,0,0-.74-2.78,3.18,3.18,0,0,0-1.31-1.45,5,5,0,0,0-2.16-.37v5.59a8.07,8.07,0,0,0,.14,2,1.2,1.2,0,0,0,.52.6,2.44,2.44,0,0,0,1.23.23H295a6.39,6.39,0,0,0,6.86-5.21h0.54l-0.89,6.3H284.41v-0.54h0.66a2.74,2.74,0,0,0,1.39-.31,1.33,1.33,0,0,0,.59-0.7,6.07,6.07,0,0,0,.16-1.84v-13a10.58,10.58,0,0,0-.07-1.65,1.41,1.41,0,0,0-.54-0.79,2.52,2.52,0,0,0-1.52-.41h-0.66V120H301v5.87h-0.56a7.17,7.17,0,0,0-1.19-3.09,4.44,4.44,0,0,0-2.17-1.37,11.77,11.77,0,0,0-3.07-.26h-2Z"/><path class="cls-1" d="M313.54,130.83v5.56a6.17,6.17,0,0,0,.2,2,1.44,1.44,0,0,0,.7.67,4.66,4.66,0,0,0,1.86.25v0.54H306.14v-0.54a4.54,4.54,0,0,0,1.86-.26,1.48,1.48,0,0,0,.69-0.67,6.08,6.08,0,0,0,.2-2V123.52a6.17,6.17,0,0,0-.2-2,1.45,1.45,0,0,0-.69-0.67,4.69,4.69,0,0,0-1.86-.25V120h9.21a20.13,20.13,0,0,1,5.27.5,5.31,5.31,0,0,1,2.72,1.84,4.93,4.93,0,0,1,1.05,3.14,4.68,4.68,0,0,1-1.58,3.63A6.52,6.52,0,0,1,320,130.5l4.77,6.71a10.1,10.1,0,0,0,1.33,1.62,2.49,2.49,0,0,0,1.39.5v0.54h-6.25l-6.39-9h-1.3Zm0-9.73v8.69h0.83a9.3,9.3,0,0,0,3-.37,3,3,0,0,0,1.59-1.35,4.91,4.91,0,0,0,.58-2.54,3.85,3.85,0,0,0-4.48-4.43h-1.57Z"/><path class="cls-1" d="M84.48,260.74C77.76,266.18,68.87,268,60.31,268c-15.69,0-30.26-8.81-30.26-27.21,0-16.49,14.57-27.22,30.26-27.22,7.36,0,16.41,1.92,23,6.09L80.8,227.2c-0.32,1-.88,2.72-1.12,2.72s-0.64-1.2-.88-2.08c-1.68-7-6.64-12.54-18.49-12.78-14.57,0-21.15,13.83-21.15,25.75s7.22,25.75,24.35,25.75c7.85,0,13.77-4.78,17.29-12.86,0.4-1,.48-1.68.88-1.68s0.4,0.24.72,1.44Z"/><path class="cls-1" d="M143.27,258.29l8.47-16.48c1.19-2.58,2.25-5,2.25-6.95,0-2.25-1.46-3-3-3.57a0.61,0.61,0,0,1-.6-0.4c0-.2.26-0.26,0.66-0.26,1.72,0,2.32.26,5,.26s3.17-.26,4.9-0.26c0.46,0,.86,0,0.86.2a1.07,1.07,0,0,1-.6.79c-2.19,1.52-4.5,5-6.75,9.07l-12.9,24.68a1.92,1.92,0,0,1-.79.92h-0.13c-0.2,0-.27-0.33-0.66-1l-11.58-22.57c-2.51-5-4.63-9.33-7.41-11.18a1.36,1.36,0,0,1-.79-0.66c0-.26.39-0.26,0.86-0.26,1.05,0,2.71.26,5.89,0.26s5.43-.26,6-0.26a1,1,0,0,1,.86.26,0.81,0.81,0,0,1-.6.53,2.37,2.37,0,0,0-1.85,2.51c0,1.33,1.06,3.24,1.65,4.5Z"/><path class="cls-1" d="M164.5,243.46c-0.13,1.52-.2,2.91-0.2,4.3,0,12.3,6.35,16.87,12.77,16.87,7.61,0,13.24-5.23,15.49-13h1.39c-2.12,9.13-8.73,14.62-17.73,14.62-11.25,0-19.59-7.61-19.59-18.19s8.34-18.2,19.59-18.2c7.21,0,15.95,4.37,16.87,13.56H164.5Zm20.25-1.25c0-6.49-3.11-11.05-10-11.05-6,0-9.26,5.36-10,11.05h20Z"/><path class="cls-1" d="M202.4,240.16h0.13c1.52-5.63,4.77-10.26,13.5-10.26,7.28,0,14.09,3.77,14.09,14.29V257c-0.13,6.29.73,7.21,2.65,7.87a1.34,1.34,0,0,1,.86.47c0,0.2-.33.2-1,0.2s-2.31-.2-6-0.2-6,.2-6.81.2c-0.4,0-.73,0-0.73-0.2s0.13-.33.6-0.4c2.38-.26,3.58-2.05,3.58-7.94V244.12c0-6.09-2.72-12.57-9.73-12.57-7.87,0-10.46,8.08-10.46,17.34V257c0,4.17.2,7.28,3.17,7.81,0.47,0.06.73,0.2,0.73,0.4s-0.2.33-.6,0.33-3.17-.2-6.75-0.2-6.62.2-7.08,0.2-0.6-.07-0.6-0.33,0.26-.33.73-0.4c3.31-.53,3.57-3.64,3.57-7.81V240.55c0-4-.46-6.22-2.31-7a2.88,2.88,0,0,1-1.19-.66c0-.2.46-0.2,1.26-0.33a58,58,0,0,0,8.34-1.92v9.53Z"/><path class="cls-1" d="M265.78,259.54c0,2.19.33,4.17,2.38,5.1a0.91,0.91,0,0,1,.66.39,0.82,0.82,0,0,1-.86.27h-7.15a19.65,19.65,0,0,1-1.59-6.75H259.1c-2.58,5.36-6.42,7.74-12.24,7.74-6.88,0-14-3.17-14-11.05,0-10.05,15.35-11,22.3-11H259V242c0-6.35-3-10.85-9.66-10.85-6.09,0-9.66,1.78-12,7.61a3.41,3.41,0,0,1-.53,1.12,1.19,1.19,0,0,1-.33-0.73l-1.72-6c5.42-2.85,9.73-3.31,15.61-3.31,7.54,0,15.49,2.72,15.49,11.05v18.59ZM259,245.45h-3.9c-7.15,0-14.49,2.12-14.49,10.85a8,8,0,0,0,8.2,8.34c7.81,0,10.19-8.21,10.19-14.56v-4.63Z"/><path class="cls-1" d="M278.41,240.16h0.13c1.52-5.63,4.76-10.26,13.5-10.26,7.28,0,14.09,3.77,14.09,14.29V257c-0.13,6.29.73,7.21,2.65,7.87a1.36,1.36,0,0,1,.86.47c0,0.2-.33.2-1,0.2s-2.32-.2-6-0.2-6,.2-6.81.2c-0.4,0-.73,0-0.73-0.2s0.13-.33.6-0.4c2.38-.26,3.57-2.05,3.57-7.94V244.12c0-6.09-2.71-12.57-9.73-12.57-7.88,0-10.46,8.08-10.46,17.34V257c0,4.17.2,7.28,3.17,7.81,0.47,0.06.73,0.2,0.73,0.4s-0.2.33-.6,0.33-3.17-.2-6.75-0.2-6.62.2-7.08,0.2-0.6-.07-0.6-0.33,0.26-.33.73-0.4c3.3-.53,3.57-3.64,3.57-7.81V240.55c0-4-.46-6.22-2.31-7a2.88,2.88,0,0,1-1.19-.66c0-.2.46-0.2,1.26-0.33a58,58,0,0,0,8.34-1.92v9.53Z"/><path class="cls-1" d="M307.69,234.66a0.61,0.61,0,0,1-.66-0.6c0-.33.53-0.6,1.32-0.93,3.77-1.32,6.95-4.37,9.4-9.4a0.88,0.88,0,0,1,.73-0.66c0.33,0,.33.47,0.33,0.93v8.53h7.35l-0.46,2.12h-6.88v18.79c0,8.8,2.12,10.39,4.24,11.12a1,1,0,0,1,.79.46,1.1,1.1,0,0,1-1.06.27h-8c-1.85-.86-2.78-2.32-2.78-4.83v-25.8h-4.3Z"/><path class="cls-1" d="M204.13,278.4v-6.49c0-1.31-.35-2.37-1.38-2.63a0.78,0.78,0,0,1-.32-0.19c0-.1.19-0.13,0.48-0.13,0.52,0,2.06.13,3.08,0.13s2.57-.13,3.08-0.13c0.29,0,.48,0,0.48.13a0.77,0.77,0,0,1-.32.19c-1,.26-1.38,1.32-1.38,2.63v14.26c0,1.57.29,2.51,1.73,3.21a0.39,0.39,0,0,1,.29.26c0,0.1-.19.1-0.51,0.1-1.16,0-1.54-.1-3.37-0.1s-2.22.1-3.37,0.1c-0.32,0-.51,0-0.51-0.1a0.39,0.39,0,0,1,.29-0.26c1.44-.7,1.73-1.64,1.73-3.21v-7H191.9v7c0,1.57.29,2.51,1.73,3.21a0.39,0.39,0,0,1,.29.26c0,0.1-.19.1-0.51,0.1-1.16,0-1.54-.1-3.37-0.1s-2.21.1-3.37,0.1c-0.32,0-.51,0-0.51-0.1a0.39,0.39,0,0,1,.29-0.26c1.44-.7,1.73-1.64,1.73-3.21V271.91c0-1.31-.35-2.37-1.38-2.63a0.78,0.78,0,0,1-.32-0.19c0-.1.19-0.13,0.48-0.13,0.51,0,2.06.13,3.08,0.13s2.57-.13,3.08-0.13c0.29,0,.48,0,0.48.13a0.77,0.77,0,0,1-.32.19c-1,.26-1.38,1.32-1.38,2.63v6.49h12.24Z"/><path class="cls-1" d="M217.54,278.4h5.94c2.35,0,4.4-1.09,4.85-2.41a0.35,0.35,0,0,1,.26-0.29c0.1,0,.13.16,0.13,0.48v5.3c0,0.55,0,.68-0.13.68a0.64,0.64,0,0,1-.26-0.45c-0.93-2.38-3.56-2.51-5.81-2.51h-5V286c0,2.34.8,2.86,3,2.86h3.63a13.66,13.66,0,0,0,8.38-3.5,4.56,4.56,0,0,1,.87-0.68,0.09,0.09,0,0,1,.1.1,1.52,1.52,0,0,1-.07.26L232,289.64H212.46c-0.74,0-1,0-1-.13s0.68-.29.9-0.48c1.19-.93,1.41-1.83,1.41-4.75V273.36c0-2.09-.13-3.47-1.41-3.79a1.16,1.16,0,0,1-.55-0.29c0-.13.13-0.19,0.61-0.19h18.14l0.87,3a4.76,4.76,0,0,1,.29,1.19,0.23,0.23,0,0,1-.16.26,0.54,0.54,0,0,1-.38-0.29c-1.35-2.22-4.76-3.37-7.78-3.37h-5.91v8.51Z"/><path class="cls-1" d="M241.74,280.26L240,283.63a8.17,8.17,0,0,0-1.12,3.66c0,1.38.87,1.74,1.73,2.06,0.26,0.06.35,0.13,0.35,0.22s-0.16.16-.38,0.16-1.38-.1-3.15-0.1c-1.29,0-2.12.1-2.51,0.1s-0.42-.07-0.42-0.16a1.11,1.11,0,0,1,.61-0.51,19.82,19.82,0,0,0,3.73-5.07l7.87-15.29a0.44,0.44,0,0,1,.22-0.26H247a0.41,0.41,0,0,1,.26.26l9.44,17.67a8.19,8.19,0,0,0,2.15,2.67,2,2,0,0,1,.74.55c0,0.09-.16.16-0.45,0.16s-1.73-.1-3.6-0.1c-2.63,0-3.69.1-3.89,0.1a0.34,0.34,0,0,1-.32-0.1,0.44,0.44,0,0,1,.42-0.26,1.49,1.49,0,0,0,.9-1.67,13.24,13.24,0,0,0-1.44-3.66l-1.83-3.79h-7.65Zm3.79-7.49-3.37,6.69H249Z"/><path class="cls-1" d="M266.54,285.37c0,3.21,1.22,3.47,3.95,3.47h1.7a12.35,12.35,0,0,0,8.44-3.73,2.48,2.48,0,0,1,.68-0.77,0.2,0.2,0,0,1,.2.22,3.29,3.29,0,0,1-.13.45l-1.31,4.62H261.18c-0.55,0-.71-0.06-0.71-0.16a2.36,2.36,0,0,1,.77-0.29c1.25-.55,1.57-1.73,1.57-4.59V271.91a2.47,2.47,0,0,0-1.38-2.57,0.4,0.4,0,0,1-.32-0.26c0-.1.2-0.13,0.48-0.13,0.51,0,2.06.13,3.08,0.13s2.57-.13,3.08-0.13c0.29,0,.39,0,0.39.16a0.42,0.42,0,0,1-.29.19c-1,.42-1.31,1.29-1.31,2.6v13.46Z"/><path class="cls-1" d="M286.3,271.36c0-1.25-.55-1.48-2-1.48a9.68,9.68,0,0,0-6.78,3.18,3.71,3.71,0,0,1-.58.55,0.18,0.18,0,0,1-.16-0.19,5.06,5.06,0,0,1,.22-0.74l1-3.6h20.24l1,3.6a5.06,5.06,0,0,1,.22.74,0.18,0.18,0,0,1-.16.19,3.58,3.58,0,0,1-.58-0.55,9.69,9.69,0,0,0-6.78-3.18c-1.45,0-2,.22-2,1.48v14.81c0,1.57.42,2.83,1.92,3.12a0.51,0.51,0,0,1,.48.26,0.29,0.29,0,0,1-.26.19c-0.23,0-2.18-.1-4-0.1s-3.73.1-4,.1-0.29-.07-0.29-0.16a1,1,0,0,1,.61-0.26c1.48-.64,1.77-1.57,1.77-4.56v-13.4Z"/><path class="cls-1" d="M318.91,278.4v-6.49c0-1.31-.35-2.37-1.38-2.63a0.8,0.8,0,0,1-.32-0.19c0-.1.19-0.13,0.48-0.13,0.51,0,2.05.13,3.08,0.13s2.57-.13,3.08-0.13c0.29,0,.48,0,0.48.13a0.8,0.8,0,0,1-.32.19c-1,.26-1.38,1.32-1.38,2.63v14.26c0,1.57.29,2.51,1.73,3.21a0.39,0.39,0,0,1,.29.26c0,0.1-.19.1-0.51,0.1-1.16,0-1.54-.1-3.37-0.1s-2.21.1-3.37,0.1c-0.32,0-.52,0-0.52-0.1a0.4,0.4,0,0,1,.29-0.26c1.45-.7,1.73-1.64,1.73-3.21v-7H306.68v7c0,1.57.29,2.51,1.74,3.21a0.39,0.39,0,0,1,.29.26c0,0.1-.19.1-0.51,0.1-1.16,0-1.54-.1-3.37-0.1s-2.22.1-3.37,0.1c-0.33,0-.52,0-0.52-0.1a0.39,0.39,0,0,1,.29-0.26c1.45-.7,1.73-1.64,1.73-3.21V271.91c0-1.31-.35-2.37-1.38-2.63a0.8,0.8,0,0,1-.32-0.19c0-.1.2-0.13,0.48-0.13,0.51,0,2.05.13,3.08,0.13s2.57-.13,3.08-0.13c0.29,0,.48,0,0.48.13a0.8,0.8,0,0,1-.32.19c-1,.26-1.38,1.32-1.38,2.63v6.49h12.24Z"/><path class="cls-1" d="M125.66,245.32c-0.26,5.05-1.09,8.87-3.86,12.8a17,17,0,0,1-18.67,6.54c-7.27-2-15.46-11.65-10.71-22.53,1.24-2.84,4.79-7.5,10.54-8.27a15.18,15.18,0,0,0-12.33,5.81,18,18,0,0,0,5.9,27.26c8.3,4.1,20.91,2.16,26.85-8.4A22.28,22.28,0,0,0,125.66,245.32Z"/><path class="cls-1" d="M85,251.66c0.26-5.05,1.08-8.87,3.86-12.8a17,17,0,0,1,18.67-6.54c7.27,2,15.46,11.66,10.71,22.53-1.24,2.84-4.79,7.5-10.54,8.27a15.16,15.16,0,0,0,12.32-5.8,18,18,0,0,0-5.9-27.26c-8.3-4.1-20.92-2.16-26.85,8.4A22.25,22.25,0,0,0,85,251.66Z"/><path class="cls-1" d="M329.1,286.16a2,2,0,0,1-1.41,3.41,1.9,1.9,0,0,1-1.41-.59,1.94,1.94,0,0,1-.57-1.42,2,2,0,0,1,2-2A1.94,1.94,0,0,1,329.1,286.16Zm0.23-.22a2.31,2.31,0,1,0,.68,1.63A2.24,2.24,0,0,0,329.33,285.94Zm-1.3,1.53a1.25,1.25,0,0,1-.42.05h-0.4V286.6h0.38a1.18,1.18,0,0,1,.54.09A0.46,0.46,0,0,1,328,287.46Zm-1.27,1.37h0.45v-1h0.35a1.11,1.11,0,0,1,.5.08,0.62,0.62,0,0,1,.24.58v0.29s0,0,0,0v0h0.42l0,0a0.47,0.47,0,0,1,0-.13c0-.07,0-0.13,0-0.19v-0.19a0.69,0.69,0,0,0-.14-0.39,0.6,0.6,0,0,0-.44-0.25,1,1,0,0,0,.37-0.12,0.56,0.56,0,0,0,.25-0.5,0.63,0.63,0,0,0-.39-0.64,1.94,1.94,0,0,0-.69-0.09h-0.89v2.54Z"/><line class="cls-1" x1="326.46" y1="204.55" x2="30.15" y2="204.55"/><polygon class="cls-1" points="326.46 205.26 30.15 205.26 30.15 203.84 326.46 203.84 326.46 205.26 326.46 205.26"/></svg>