<svg id="Layer_1" data-name="Layer 1" xmlns="http://www.w3.org/2000/svg" viewBox="0 0 349.8 102.12"><defs><style>.cls-1{fill:#008c9a;}</style></defs><title>advanced-family-surgery-center</title><path class="cls-1" d="M149.13,63.6c-8.51-7.22-22.55-5.32-40,3.61C91.4,76.26,79.74,89.36,74.66,102.12c2.73-12.39,16-28.4,33.71-37.46C125.84,55.73,142.25,56.35,149.13,63.6Z" transform="translate(-0.2)"/><path class="cls-1" d="M113.18,27.65c7.22,8.51,5.32,22.55-3.61,40C100.52,85.38,87.42,97,74.66,102.12c12.39-2.73,28.4-16,37.45-33.71C121,50.94,120.43,34.53,113.18,27.65Z" transform="translate(-0.2)"/><path class="cls-1" d="M123.3,46.08c2.85-2.51,6.75-2.74,8.72-.51s1.25,6.08-1.6,8.59-6.75,2.74-8.72.51S120.45,48.59,123.3,46.08Zm-1.55,8.59c1.5,1.72,4.76.61,7.49-1.82s4.23-5.56,2.73-7.27-4.76-.61-7.49,1.82S120.25,52.95,121.75,54.66Z" transform="translate(-0.2)"/><path class="cls-1" d="M125.83,22.27c-12.42-2.26-25.1,7.54-37.16,26.17-12.23,18.88-16.24,38.31-14,53.68-4.34-13.68-.39-36.88,11.84-55.76C98.57,27.73,115,19.06,125.83,22.27Z" transform="translate(-0.2)"/><path class="cls-1" d="M70.28,7.39c11.89,4.25,18,19.08,19.1,41.24,1.15,22.47-5.09,41.3-14.71,53.49,10.6-9.68,18.77-31.74,17.62-54.21C91.16,25.75,81.27,10,70.28,7.39Z" transform="translate(-0.2)"/><path class="cls-1" d="M90.62,19.7c1.37-4.07,5.07-6.5,8.26-5.43s4.66,5.25,3.29,9.32S97.1,30.09,93.91,29,89.25,23.78,90.62,19.7ZM94,29c2.44,0.83,5-2.09,6.31-6s1-7.84-1.44-8.67-5,2.09-6.31,6S91.52,28.16,94,29Z" transform="translate(-0.2)"/><path class="cls-1" d="M79.39,0C66.58,4.59,60,20.57,58.81,44.46,57.57,68.68,64.29,89,74.66,102.12c-11.42-10.43-20.24-34.22-19-58.44C56.89,19.79,67.54,2.84,79.39,0Z" transform="translate(-0.2)"/><path class="cls-1" d="M19.51,16c13.39-2.44,27.05,8.13,40.05,28.21,13.18,20.36,17.51,41.3,15.1,57.86C79.34,87.37,75.08,62.36,61.9,42,48.9,21.93,31.19,12.58,19.51,16Z" transform="translate(-0.2)"/><path class="cls-1" d="M45.14,16.58c-0.91-4.54,1.23-8.8,4.78-9.52S57.1,9.45,58,14s-1.23,8.8-4.78,9.52S46.06,21.12,45.14,16.58Zm8.12,6.87c2.73-.54,3.55-4.65,2.65-9s-3.29-7.85-6-7.32-3.55,4.65-2.65,9S50.54,24,53.26,23.46Z" transform="translate(-0.2)"/><path class="cls-1" d="M36.15,27.66c-7.22,8.51-5.32,22.55,3.61,40C48.81,85.38,61.91,97,74.66,102.12c-12.39-2.73-28.4-16-37.45-33.71C28.28,50.94,28.9,34.53,36.15,27.66Z" transform="translate(-0.2)"/><path class="cls-1" d="M0.2,63.6c8.51-7.22,22.55-5.32,40,3.61,17.71,9.05,29.37,22.15,34.45,34.9-2.73-12.39-16-28.4-33.71-37.45C23.49,55.73,7.08,56.35.2,63.6Z" transform="translate(-0.2)"/><path class="cls-1" d="M18.63,53.48c-2.51-2.85-2.74-6.75-.5-8.72s6.08-1.25,8.59,1.6,2.74,6.75.5,8.72S21.14,56.32,18.63,53.48ZM27.21,55c1.72-1.5.61-4.76-1.82-7.49s-5.55-4.23-7.27-2.73-0.61,4.76,1.82,7.49S25.5,56.53,27.21,55Z" transform="translate(-0.2)"/><path d="M165.7,8.56h0.05l1.1,8.53H161ZM158.8,25.3L157,25l3.08-6.29H167l0.71,6.3-1.81.29-0.22,1c0.85,0,2.39-.09,3.65-0.09s2.47,0.06,3.82.09l0.22-1-1.79-.3c-0.85-3.22-2.53-14.36-3-18.43l-0.93-.33a17.74,17.74,0,0,1-3,.6c-2.17,4-6.84,12.19-10.46,18.15l-1.7.3-0.22,1c0.6,0,1.79-.09,3.1-0.09,1.07,0,2.11.06,3.19,0.09Z" transform="translate(-0.2)"/><path d="M178.09,24.32c-1,0-2.28-.49-2.28-3.27,0-4.95,3.57-8.74,6.13-8.74a4.94,4.94,0,0,1,2.47.77,50.66,50.66,0,0,1-1.76,6.73C181.85,21.65,180.1,24.32,178.09,24.32Zm8.9,1-1.68-.3c0.85-7,2.77-13.83,4.31-20.61h-1.37a13.73,13.73,0,0,1-4.39.74l-0.22,1,2.09,0.35L184.79,11a6.89,6.89,0,0,0-2-.3c-5.68,0-10.43,6.24-10.43,10.91,0,3,1.92,5,4.41,5s4.31-2.14,6.37-5.3h0.05l-1.15,5c0.69,0,1.59-.09,2.25-0.09,1.7,0.05.8,0,2.42,0.09Z" transform="translate(-0.2)"/><path d="M188.36,11.43a21.63,21.63,0,0,0,4.81-.74l1.32,13.16h0.05a81.38,81.38,0,0,0,5.93-11.55l-1.79-.3,0.22-1c1.79,0.08.47,0.06,2.47,0.09,0.69,0,1.73,0,2.2-.09a128.74,128.74,0,0,1-9,15.31l-2.66.33c-0.25-2.2-.05-0.8-0.36-3.22l-1.43-10.64-2-.36Z" transform="translate(-0.2)"/><path d="M204.14,21.43c0-3.27,2.77-9.12,6.45-9.12a4.48,4.48,0,0,1,2,.44,33.81,33.81,0,0,1-2.2,7.47c-1.21,2.64-2.88,4.09-4.23,4.09S204.14,23.14,204.14,21.43Zm0.58,5.19c2.91,0,4.78-2.88,6.37-5.36h0.05a41.07,41.07,0,0,0-1.26,5.06c0.58,0,1.24-.09,2-0.09s1.7,0.06,2.75.09l0.22-1L213.29,25a44.57,44.57,0,0,1,2.77-12.86l1-.63-0.22-.68c-0.55,0-1.07.15-1.62,0.15a14.19,14.19,0,0,1-1.68-.16c-0.63-.05-1.35-0.13-2.17-0.13-4.53,0-10.59,5.83-10.59,11.19C200.75,25.58,203.18,26.63,204.72,26.63Z" transform="translate(-0.2)"/><path d="M217.87,11.43a13.32,13.32,0,0,0,4.23-.74h1.37c-0.36.91-.8,2.61-1,3.49h0.05c3.1-3.08,4.39-3.49,6-3.49a3.57,3.57,0,0,1,3.71,3.74c0,1.84-1.59,8-1.81,10.58l1.7,0.3-0.22,1c-1.54-.06-2.33-0.09-2.94-0.09-0.8,0-1.59.06-2.33,0.09,0.58-1.9,2.36-9.13,2.36-11.16A2.06,2.06,0,0,0,226.77,13c-1.81,0-4.06,1.87-4.92,5.31-0.52,2.2-1,4.81-1.26,6.7l1.73,0.3-0.22,1c-1.18,0-2.33-.09-3.52-0.09s-2.33.06-3.49,0.09l0.22-1,1.87-.3c0.44-1.68,2.25-10,2.55-12.19l-2.09-.36Z" transform="translate(-0.2)"/><path d="M245.48,23.3a10.12,10.12,0,0,1-6.87,3.32A5.44,5.44,0,0,1,233,21.16c0-5.58,5.07-10.47,10.95-10.47a6.84,6.84,0,0,1,3.3.68,18.7,18.7,0,0,0-1.65,3.42l-0.93-.25,0.22-1.62a4.68,4.68,0,0,0-2.44-.61c-3.9,0-6,4.7-6,7.67,0,2.53,1.21,4.34,3.85,4.34,2,0,3.24-1,4.45-2.09Z" transform="translate(-0.2)"/><path d="M250.66,15.91c0.85-1.84,2.88-3.74,5-3.74a1.92,1.92,0,0,1,2.12,2.26,10.26,10.26,0,0,1-.14,1.32c-1.43.08-2.86,0.17-3.6,0.17h-3.35ZM258.6,22a6.83,6.83,0,0,1-5,2.33,3.66,3.66,0,0,1-3.9-3.92,8.94,8.94,0,0,1,.47-3.18h10.18a6.85,6.85,0,0,0,.27-2.23c0-3.71-2.88-4.31-4.44-4.31-5.44,0-9.88,5.47-9.88,9.88,0,3.51,2.22,6.06,5.87,6.06,2.86,0,5.33-1.7,7.27-3.65Z" transform="translate(-0.2)"/><path d="M266.19,24.32c-1,0-2.28-.49-2.28-3.27,0-4.95,3.57-8.74,6.12-8.74a4.93,4.93,0,0,1,2.47.77,50.5,50.5,0,0,1-1.76,6.73C270,21.65,268.19,24.32,266.19,24.32Zm8.9,1-1.68-.3c0.85-7,2.77-13.83,4.31-20.61h-1.37a13.73,13.73,0,0,1-4.39.74l-0.22,1,2.09,0.35L272.89,11a6.88,6.88,0,0,0-1.95-.3c-5.69,0-10.43,6.24-10.43,10.91,0,3,1.92,5,4.41,5s4.31-2.14,6.37-5.3h0.06l-1.15,5c0.69,0,1.59-.09,2.25-0.09,1.7,0.05.8,0,2.42,0.09Z" transform="translate(-0.2)"/><path d="M156.27,34.23c2.47,0.05,4.94.08,7.2,0.08H171a18.15,18.15,0,0,0-.09,1.84c0,0.8,0,1.46.09,2.18l-1,.16-0.49-2a38.52,38.52,0,0,0-6-.36h-1.76c-0.47,1.24-1.43,5.59-1.65,6.58l6.46-.16,0.72-1.32h1a38.29,38.29,0,0,0-1.06,4.8h-1V44.33l-6.37-.16c-0.38,1.57-1.1,5.36-1.62,8.29l2.53,0.3-0.22,1c-1.92,0-3.21-.09-4.48-0.09s-2.58.06-3.87,0.09l0.22-1c0.63-.11,1.29-0.19,1.92-0.3,0.74-2.8,1.37-5.63,2-8.46s1.18-5.63,1.62-8.47l-1.87-.3Z" transform="translate(-0.2)"/><path d="M170.88,48.9c0-3.27,2.77-9.12,6.45-9.12a4.48,4.48,0,0,1,2,.44,33.94,33.94,0,0,1-2.2,7.47c-1.21,2.64-2.88,4.09-4.23,4.09S170.88,50.6,170.88,48.9Zm0.58,5.19c2.91,0,4.78-2.88,6.37-5.36h0.05a41,41,0,0,0-1.26,5.06c0.58,0,1.23-.09,2-0.09s1.7,0.06,2.75.09l0.22-1L180,52.47a44.59,44.59,0,0,1,2.77-12.86l1-.63-0.22-.68c-0.55,0-1.07.15-1.62,0.15a14.32,14.32,0,0,1-1.68-.16c-0.63-.05-1.35-0.13-2.17-0.13-4.53,0-10.59,5.83-10.59,11.19C167.49,53,169.92,54.09,171.46,54.09Z" transform="translate(-0.2)"/><path d="M182.06,52.77l1.87-.3c0.44-1.67,2.25-10,2.55-12.19l-2.09-.36,0.22-1a13.3,13.3,0,0,0,4.23-.74h1.37c-0.36.91-.8,2.61-1,3.38v0.05l0.05-.05h0l0.06,0.05c2.09-2.47,3.93-3.43,5.41-3.43a3.53,3.53,0,0,1,3.71,3.27c2.07-2.31,3.92-3.27,5.49-3.27a3.57,3.57,0,0,1,3.71,3.74c0,1.84-1.59,8-1.81,10.58l1.7,0.3-0.22,1c-1.54-.06-2.33-0.09-2.94-0.09-0.8,0-1.6.06-2.35,0.09,0.58-1.9,2.37-9.13,2.37-11.16a2.06,2.06,0,0,0-2.18-2.17c-2.29,0-3.75,2.8-4.28,4.89-0.66,2.64-1.18,5.66-1.37,7.11l1.73,0.3-0.22,1c-1.18,0-2.33-.09-3.51-0.09s-2.33.06-3.51,0.09l0.22-1,1.89-.3c1.07-5.16,1.95-8.16,2-9.83A2.06,2.06,0,0,0,193,40.46c-2.28,0-3.73,2.8-4.26,4.89-0.66,2.64-1.18,5.66-1.37,7.11l1.73,0.3-0.22,1c-1.18,0-2.33-.09-3.51-0.09s-2.34.06-3.49,0.09Z" transform="translate(-0.2)"/><path d="M207.77,52.77l1.86-.3c0.44-1.67,2.25-10,2.55-12.19l-2.09-.36,0.22-1a13.27,13.27,0,0,0,4.22-.74h1.54a122.47,122.47,0,0,0-3,14.31l1.73,0.3-0.22,1c-1.18,0-2.33-.09-3.51-0.09s-2.33.06-3.48,0.09Zm9.32-19.36A2.43,2.43,0,0,1,215,35.84a1.57,1.57,0,0,1-1.54-1.66,2.45,2.45,0,0,1,2.2-2.32A1.51,1.51,0,0,1,217.09,33.41Z" transform="translate(-0.2)"/><path d="M215.19,52.77l1.86-.3c0.55-2,3.34-15,3.92-18.49l-2.08-.36,0.22-1a13.26,13.26,0,0,0,4.22-.74h1.53c-0.85,3.24-3,13.17-4.41,20.61l1.75,0.3-0.22,1c-1.2,0-2.41-.09-3.62-0.09s-2.25.06-3.4,0.09Z" transform="translate(-0.2)"/><path d="M223.81,38.89a21.62,21.62,0,0,0,4.8-.74c0.11,4.29,1,9.73,1.43,14h0.05a70.51,70.51,0,0,0,5.82-12.35l-1.78-.3,0.22-1c1.78,0.08.47,0.06,2.47,0.09,0.68,0,1.73,0,2.2-.09-0.41.88-3.87,7.71-5,9.92-3.87,7.74-8.62,13.2-13.37,13.2a14.41,14.41,0,0,1-2.77-.39l1-2.53a9.42,9.42,0,0,0,2.61.46c2.91,0,5.43-2.32,7.41-5.31l-1.59.3c-0.25-2.2-.05-0.8-0.36-3.19l-1.43-10.66-2-.36Z" transform="translate(-0.2)"/><path d="M246.85,48.37l-0.55,1.76a9.76,9.76,0,0,0,5.74,2c2.41,0,4.8-1.1,4.8-3.81,0-2-1.21-2.47-5.13-3.92-2.44-.91-5.05-2.08-5.05-4.88s3-5.59,8.79-5.59a16.54,16.54,0,0,1,7.24,1.53,22.22,22.22,0,0,0-1.84,3.95l-1-.3,0.33-1.67a11.76,11.76,0,0,0-5.65-1.54c-3,0-4.31,1.45-4.31,2.77,0,1.86,2.64,2.5,5.24,3.48s5.24,2.19,5.24,5.29c0,3.32-3.65,6.66-9.27,6.66a14.47,14.47,0,0,1-8-2.16,41,41,0,0,0,2.5-3.95Z" transform="translate(-0.2)"/><path d="M261.53,38.89a13.34,13.34,0,0,0,4.23-.74h1.46L266.09,43a44.09,44.09,0,0,0-1.26,6.25,2.28,2.28,0,0,0,2.12,2.52c2.33,0,3.76-2.19,4.72-4.71a38.81,38.81,0,0,0,1.59-6.79l-2.09-.36,0.22-1a13.3,13.3,0,0,0,4.23-.74h1.51a120.08,120.08,0,0,0-2.94,14.31l1.62,0.3-0.22,1c-0.69,0-1.51-.09-2.33-0.09s-1.62.06-2.36,0.09l1-4.39h-0.05c-2.06,2.85-4,4.69-6.34,4.69A3.81,3.81,0,0,1,261.58,50c0-1.32,1.67-9,1.81-9.75l-2.09-.36Z" transform="translate(-0.2)"/><path d="M278.72,38.9a15.86,15.86,0,0,0,4.34-.75h1.4c-0.41,1.35-.8,2.59-1.46,4.84h0.05c1.26-2.41,2.75-4.84,5.79-4.84a2.76,2.76,0,0,1,1.81.52,13.14,13.14,0,0,0-1.95,3.56l-0.77-.33,0.22-1.35a1.09,1.09,0,0,0-.8-0.25c-1.65,0-3.43,2.39-4.39,5.08a32.82,32.82,0,0,0-1.43,7.08c0.8,0.11,1.59.19,2.36,0.29l-0.22,1c-1.32,0-2.66-.09-4-0.09s-2.44.06-3.65,0.09l0.22-1c0.61-.11,1.24-0.19,1.87-0.29,0.88-3.3,2.61-11.54,2.61-12.2l-2.23-.36Z" transform="translate(-0.2)"/><path d="M296.79,39.63A3.13,3.13,0,0,1,300,43.08c0,1.68-1.07,4.67-4,4.67a3.27,3.27,0,0,1-3.46-3.59A4.35,4.35,0,0,1,296.79,39.63Zm-9,15.48a3.08,3.08,0,0,0-2,2.72c0,1.85,2.57,3.74,6.84,3.74s8.65-2,8.65-5.45c0-2.7-2.69-4.38-6.86-4.38a16.34,16.34,0,0,0-3.8.44,17.05,17.05,0,0,0,2-3.46,7.61,7.61,0,0,0,3.39.65c4.65,0,7.23-3,7.23-5.82a4.08,4.08,0,0,0-1.59-3.23,20.45,20.45,0,0,0,3.71-.55l0.22-1c-0.61,0-1.35.08-2.28,0.08-2.14,0-4.23-.69-6.37-0.69-5,0-7.6,3-7.6,6.17a4.25,4.25,0,0,0,1.92,3.7,17.83,17.83,0,0,1-2.93,5A8.52,8.52,0,0,1,290,55a10.17,10.17,0,0,1,3.27-.54c1.93,0,4.8.41,4.8,2.5,0,1.9-2,2.77-4.39,2.77-1.54,0-5.21-.6-5.21-2.72a1.45,1.45,0,0,1,.46-1Z" transform="translate(-0.2)"/><path d="M307.86,43.37c0.85-1.84,2.88-3.74,5-3.74a1.92,1.92,0,0,1,2.12,2.26,10.29,10.29,0,0,1-.14,1.32c-1.43.08-2.86,0.17-3.6,0.17h-3.35Zm7.94,6.08a6.83,6.83,0,0,1-5,2.33,3.66,3.66,0,0,1-3.9-3.92,8.92,8.92,0,0,1,.47-3.18h10.18a6.85,6.85,0,0,0,.27-2.23c0-3.71-2.88-4.31-4.44-4.31-5.44,0-9.88,5.47-9.88,9.88,0,3.51,2.22,6.06,5.87,6.06,2.85,0,5.33-1.7,7.27-3.65Z" transform="translate(-0.2)"/><path d="M319.2,38.9a15.84,15.84,0,0,0,4.34-.75h1.4c-0.41,1.35-.8,2.59-1.46,4.84h0.05c1.26-2.41,2.75-4.84,5.79-4.84a2.76,2.76,0,0,1,1.81.52,13.17,13.17,0,0,0-1.95,3.56l-0.77-.33,0.22-1.35a1.1,1.1,0,0,0-.8-0.25c-1.65,0-3.43,2.39-4.39,5.08A32.58,32.58,0,0,0,322,52.47c0.8,0.11,1.59.19,2.36,0.29l-0.22,1c-1.32,0-2.66-.09-4-0.09s-2.44.06-3.65,0.09l0.22-1c0.6-.11,1.24-0.19,1.87-0.29,0.88-3.3,2.61-11.54,2.61-12.2L319,39.92Z" transform="translate(-0.2)"/><path d="M328.77,38.89a21.61,21.61,0,0,0,4.8-.74c0.11,4.29,1,9.73,1.43,14h0.06a70.42,70.42,0,0,0,5.82-12.35l-1.78-.3,0.22-1c1.78,0.08.47,0.06,2.47,0.09,0.69,0,1.73,0,2.2-.09-0.41.88-3.87,7.71-5,9.92-3.87,7.74-8.62,13.2-13.37,13.2a14.38,14.38,0,0,1-2.77-.39l1-2.53a9.41,9.41,0,0,0,2.61.46c2.91,0,5.43-2.32,7.41-5.31l-1.59.3c-0.25-2.2-.05-0.8-0.36-3.19l-1.43-10.66-2-.36Z" transform="translate(-0.2)"/><path d="M170,78.42a12.7,12.7,0,0,1-8.18,3.13c-5.71,0-9.19-3.76-9.19-8.5,0-7,6.94-11.67,13.15-11.67a14,14,0,0,1,6,1.39,34.53,34.53,0,0,0-1.73,4.06l-1-.3,0.3-1.86a8,8,0,0,0-4.67-1.32A8.42,8.42,0,0,0,156.5,72c0,5.95,4.23,7.23,6.87,7.23a10.19,10.19,0,0,0,5.79-2.08Z" transform="translate(-0.2)"/><path d="M174.65,70.83c0.85-1.84,2.88-3.74,5-3.74a1.92,1.92,0,0,1,2.11,2.26,10.08,10.08,0,0,1-.14,1.32c-1.43.08-2.85,0.16-3.6,0.16h-3.35Zm7.93,6.08a6.83,6.83,0,0,1-5,2.33,3.66,3.66,0,0,1-3.9-3.92,8.93,8.93,0,0,1,.47-3.18h10.18a6.86,6.86,0,0,0,.27-2.23c0-3.71-2.87-4.31-4.44-4.31-5.44,0-9.88,5.47-9.88,9.88,0,3.51,2.22,6.06,5.87,6.06,2.86,0,5.33-1.7,7.27-3.65Z" transform="translate(-0.2)"/><path d="M185.94,66.36a13.33,13.33,0,0,0,4.23-.74h1.37c-0.36.91-.8,2.61-1,3.49h0.05c3.1-3.08,4.39-3.49,6-3.49a3.57,3.57,0,0,1,3.71,3.74c0,1.84-1.59,8-1.81,10.58l1.7,0.3-0.22,1c-1.54-.06-2.33-0.09-2.94-0.09-0.8,0-1.59.06-2.33,0.09,0.58-1.9,2.36-9.13,2.36-11.16a2.06,2.06,0,0,0-2.17-2.17c-1.81,0-4.06,1.87-4.92,5.31-0.52,2.2-1,4.8-1.26,6.7l1.73,0.3-0.22,1c-1.18,0-2.34-.09-3.51-0.09s-2.34.06-3.49,0.09l0.22-1,1.87-.3c0.44-1.67,2.25-10,2.55-12.19l-2.09-.36Z" transform="translate(-0.2)"/><path d="M207.28,67.48L205.38,76a12.71,12.71,0,0,0-.22,1.7,1.39,1.39,0,0,0,1.35,1.54,3.18,3.18,0,0,0,2-1.07l0.69,1-0.27.28c-1.57,1.56-2.58,2.11-4,2.11a2.89,2.89,0,0,1-3-3.16,17.84,17.84,0,0,1,.63-4l1.59-7.09h-1.51l0.22-1,1.57-.33,0.52-3a18.9,18.9,0,0,0,3.46-.74L207.55,66h3.6l-0.8,1.48h-3.08Z" transform="translate(-0.2)"/><path d="M214.14,70.83c0.85-1.84,2.88-3.74,5-3.74a1.92,1.92,0,0,1,2.11,2.26,10.27,10.27,0,0,1-.14,1.32c-1.43.08-2.86,0.16-3.6,0.16h-3.35Zm7.94,6.08a6.83,6.83,0,0,1-5,2.33,3.66,3.66,0,0,1-3.9-3.92,8.91,8.91,0,0,1,.47-3.18h10.18a6.84,6.84,0,0,0,.28-2.23c0-3.71-2.88-4.31-4.44-4.31-5.44,0-9.88,5.47-9.88,9.88,0,3.51,2.22,6.06,5.87,6.06,2.86,0,5.33-1.7,7.27-3.65Z" transform="translate(-0.2)"/><path d="M225.48,66.36a15.84,15.84,0,0,0,4.34-.75h1.4c-0.41,1.35-.8,2.59-1.45,4.84h0.05c1.26-2.41,2.75-4.84,5.79-4.84a2.76,2.76,0,0,1,1.81.52,13.09,13.09,0,0,0-1.95,3.56l-0.77-.33L234.92,68a1.09,1.09,0,0,0-.8-0.25c-1.65,0-3.43,2.39-4.39,5.08a32.8,32.8,0,0,0-1.43,7.08c0.8,0.11,1.59.19,2.36,0.29l-0.22,1c-1.32,0-2.66-.09-4-0.09s-2.44.06-3.65,0.09l0.22-1c0.6-.11,1.24-0.19,1.87-0.29,0.88-3.3,2.61-11.54,2.61-12.2l-2.23-.36Z" transform="translate(-0.2)"/><path d="M153.3,94.93l0,0.78a5.15,5.15,0,0,0,2.44.75,1.46,1.46,0,0,0,1.7-1.31c0-2-5-1.07-5-3.76,0-1.23,1.21-2.38,3.43-2.38a9.23,9.23,0,0,1,2.85.49,13.85,13.85,0,0,0-.64,1.71l-0.42-.11,0-.62a4.16,4.16,0,0,0-2.1-.6c-0.78,0-1.66.3-1.66,1.09,0,1.82,5,.81,5,3.68,0,1.34-1.17,2.67-3.67,2.67a6.48,6.48,0,0,1-3.17-.74,11,11,0,0,0,.72-1.78Z" transform="translate(-0.2)"/><path d="M159.63,91.08a11.8,11.8,0,0,0,1.79-.3h0.53c-0.06.64-.11,1.86-0.11,3.37,0,1.26.19,2.14,1.07,2.14s1.52-.91,1.52-2.36V93.41a12.47,12.47,0,0,0-.11-1.76l-0.75-.15V91.08a11.8,11.8,0,0,0,1.79-.3h0.53c-0.06.64-.06,1.48-0.06,2.49v0.87a15.93,15.93,0,0,0,.11,2.49l0.65,0.12v0.42c-0.36,0-.72,0-1.08,0s-0.68,0-1,0V96h0a2.58,2.58,0,0,1-2.2,1.3,1.83,1.83,0,0,1-1.87-1.95c0-.57,0-1.17,0-1.64V93.41a12.34,12.34,0,0,0-.11-1.76l-0.75-.15V91.08h0.06Z" transform="translate(-0.2)"/><path d="M167.24,96.76l0.65-.12a16,16,0,0,0,.11-2.49V93.41a14.21,14.21,0,0,0-.11-1.76l-0.75-.15V91.08a12.29,12.29,0,0,0,1.79-.3h0.42c-0.06.5-.08,1.06-0.12,1.64l0,0a2.42,2.42,0,0,1,2-1.66A1.63,1.63,0,0,1,172,91a8.87,8.87,0,0,0-.55,1.57L171,92.46V91.93a0.5,0.5,0,0,0-.26-0.07c-0.41,0-1.39.42-1.39,2.58,0,0.74,0,1.49.09,2.19l0.83,0.12v0.42c-0.57,0-1.14,0-1.71,0s-1.12,0-1.37,0V96.76Z" transform="translate(-0.2)"/><path d="M173.84,93.14a1.44,1.44,0,1,1,2.85,0A1.44,1.44,0,1,1,173.84,93.14Zm4.83-2.05H178a8.5,8.5,0,0,1-1.4-.16,10.9,10.9,0,0,0-1.42-.14,2.57,2.57,0,0,0-2.78,2.47,2.08,2.08,0,0,0,1.14,1.85,5.51,5.51,0,0,1-.74,1.82,3.77,3.77,0,0,1,.75.84,3.89,3.89,0,0,1,1.43-.23c1.82,0,2,.7,2,1s-0.39,1-1.65,1-2-.65-2-1.17a0.43,0.43,0,0,1,.07-0.21l-0.69-.42a1.37,1.37,0,0,0-.51,1c0,0.64.81,1.63,2.74,1.63,2.12,0,3.49-1.09,3.49-2.27,0-.46-0.27-1.77-3.06-1.77a6,6,0,0,0-1.55.22,9.24,9.24,0,0,0,.4-1.19,2.26,2.26,0,0,0,.85.14c2.13,0,3-1.3,3-2.37a1.64,1.64,0,0,0-.66-1.41v0a3.31,3.31,0,0,0,1.2-.19V91.08Z" transform="translate(-0.2)"/><path d="M181,93a1.62,1.62,0,0,1,1.69-1.52,1.1,1.1,0,0,1,1.11,1.38Zm4,2.27a3,3,0,0,1-2,1c-1.34,0-2-.93-2-2.7h4.38V93.24a2.41,2.41,0,0,0-2.58-2.45,3.33,3.33,0,0,0-3.37,3.52,2.92,2.92,0,0,0,3.17,3,3.86,3.86,0,0,0,2.9-1.63Z" transform="translate(-0.2)"/><path d="M186.19,96.76l0.65-.12a15.92,15.92,0,0,0,.11-2.49V93.41a14.18,14.18,0,0,0-.11-1.76l-0.75-.15V91.08a12.29,12.29,0,0,0,1.79-.3h0.42c-0.06.5-.08,1.06-0.12,1.64l0,0a2.42,2.42,0,0,1,2-1.66A1.63,1.63,0,0,1,191,91a8.87,8.87,0,0,0-.55,1.57L190,92.46V91.93a0.5,0.5,0,0,0-.26-0.07c-0.41,0-1.38.42-1.38,2.58,0,0.74,0,1.49.09,2.19l0.83,0.12v0.42c-0.57,0-1.14,0-1.71,0s-1.12,0-1.37,0V96.76Z" transform="translate(-0.2)"/><path d="M197.47,91.34l-0.34.12c-0.92,1.93-1.82,4.82-2.5,6.46a3.47,3.47,0,0,1-3.13,2.45,3.26,3.26,0,0,1-1-.17,9.3,9.3,0,0,0,.43-1.63l0.42,0,0.06,0.57a1.68,1.68,0,0,0,.58.1,2.61,2.61,0,0,0,2.11-2.11h-0.54c-0.63-1.86-1.48-4.06-2.22-5.72l-0.49-.12V90.91c0.46,0,.92,0,1.38,0s0.9,0,1.35,0v0.42l-0.57.12c0.34,1.36,1,3.14,1.5,4.72h0c0.5-1.55,1-3.18,1.36-4.72l-0.55-.12V90.91c0.39,0,.77,0,1.16,0s0.64,0,1,0v0.42Z" transform="translate(-0.2)"/><path d="M209.36,95.71a4.68,4.68,0,0,1-3.59,1.62,3.9,3.9,0,0,1-4.07-4.1c0-2.2,1.72-4.21,4.72-4.21a7.06,7.06,0,0,1,2.61.48,8.17,8.17,0,0,0-.38,1.76l-0.42,0-0.14-.75a3.65,3.65,0,0,0-2-.52,2.72,2.72,0,0,0-2.8,3,3,3,0,0,0,3.06,3.28,3.67,3.67,0,0,0,2.51-1.06Z" transform="translate(-0.2)"/><path d="M211.66,93a1.62,1.62,0,0,1,1.69-1.52,1.1,1.1,0,0,1,1.11,1.38Zm4,2.27a3,3,0,0,1-2,1c-1.34,0-2-.93-2-2.7H216V93.24a2.41,2.41,0,0,0-2.58-2.45A3.33,3.33,0,0,0,210,94.31a2.92,2.92,0,0,0,3.17,3,3.86,3.86,0,0,0,2.9-1.63Z" transform="translate(-0.2)"/><path d="M216.81,96.76l0.65-.12a16,16,0,0,0,.11-2.49V93.41a14.09,14.09,0,0,0-.11-1.76l-0.75-.15V91.08a12.3,12.3,0,0,0,1.79-.3H219l-0.08,1.08h0a2.75,2.75,0,0,1,2.08-1.1,1.74,1.74,0,0,1,1.86,2v1.36a15.84,15.84,0,0,0,.11,2.49l0.65,0.12v0.42c-0.21,0-.77,0-1.2,0s-0.73,0-1,0c0-.5.06-1,0.06-1.77V94c0-1.65-.26-2.23-1.1-2.23-1.15,0-1.43,1.1-1.43,2.34a15.91,15.91,0,0,0,.11,2.49l0.65,0.12v0.42c-0.48,0-1,0-1.46,0s-1,0-1.46,0V96.76Z" transform="translate(-0.2)"/><path d="M224.26,91.22l0.81-.26c0-.45,0-0.9,0-1.35l1.49-.31c0,0.55,0,1.1,0,1.65,0.39,0,1.09,0,1.64-.06l-0.33.77-1.32,0c0,0.44,0,.92,0,1.39v1.8c0,1.14.2,1.47,0.75,1.47a1.29,1.29,0,0,0,.82-0.37l0.37,0.4a2.25,2.25,0,0,1-1.77,1,1.51,1.51,0,0,1-1.65-1.6c0-.82.07-1.42,0.07-3V91.63h-0.81V91.22Z" transform="translate(-0.2)"/><path d="M230.6,93a1.63,1.63,0,0,1,1.69-1.52,1.1,1.1,0,0,1,1.11,1.38Zm4,2.27a3,3,0,0,1-2,1c-1.34,0-2-.93-2-2.7h4.38V93.24a2.41,2.41,0,0,0-2.58-2.45A3.33,3.33,0,0,0,229,94.31a2.92,2.92,0,0,0,3.17,3,3.86,3.86,0,0,0,2.9-1.63Z" transform="translate(-0.2)"/><path d="M235.75,96.76l0.65-.12a16,16,0,0,0,.11-2.49V93.41a14.41,14.41,0,0,0-.11-1.76l-0.75-.15V91.08a12.33,12.33,0,0,0,1.79-.3h0.42c-0.06.5-.08,1.06-0.12,1.64l0,0a2.42,2.42,0,0,1,2-1.66,1.63,1.63,0,0,1,.73.17,9,9,0,0,0-.55,1.57l-0.42-.07V91.93a0.5,0.5,0,0,0-.26-0.07c-0.41,0-1.38.42-1.38,2.58,0,0.74,0,1.49.09,2.19l0.83,0.12v0.42c-0.58,0-1.14,0-1.71,0s-1.12,0-1.38,0V96.76Z" transform="translate(-0.2)"/><path d="M247.93,96.57c-1.2,0-1.84-1.1-1.84-2.53s0.47-2.51,1.84-2.51c1.11,0,1.84,1,1.84,2.51C249.77,95.75,249,96.57,247.93,96.57Zm0,0.74A3.17,3.17,0,0,0,251.28,94a3.08,3.08,0,0,0-3.35-3.26A3.22,3.22,0,0,0,244.58,94,3.05,3.05,0,0,0,247.93,97.31Z" transform="translate(-0.2)"/><path d="M252.78,91v-0.5c0-1.41,1.55-2.27,2.7-2.27a3,3,0,0,1,1.33.24,7.11,7.11,0,0,0-.57,1.49l-0.44-.11,0-.59a1.26,1.26,0,0,0-.69-0.22c-0.74,0-1,.48-1,1.61V91h0.45c0.26,0,.54,0,0.85,0l-0.29.73a5.51,5.51,0,0,0-.61,0h-0.4v2.51a16,16,0,0,0,.11,2.49l0.86,0.12v0.42c-0.69,0-1.18,0-1.67,0s-1,0-1.46,0V96.76l0.65-.12a15.91,15.91,0,0,0,.11-2.49V91.63h-0.26l-0.46,0V91.24Z" transform="translate(-0.2)"/><path d="M261.66,93.18c0-2,1.17-3.35,2.74-3.35,1.75,0,2.74,1.65,2.74,3.35,0,2.21-1.34,3.35-2.74,3.35S261.66,95.27,261.66,93.18Zm-1.64,0a4,4,0,0,0,4.38,4.16,4.09,4.09,0,0,0,4.38-4.16A4,4,0,0,0,264.4,89,4.16,4.16,0,0,0,260,93.18Z" transform="translate(-0.2)"/><path d="M274,93.93c-0.06,1.46-.72,2.36-1.76,2.36a0.94,0.94,0,0,1-1.07-.9c0-1.14,1.68-1.46,2.5-1.46H274Zm2.15,2.83-0.62-.33c0-1.2-.14-3-0.14-3.41,0-1.28-.32-2.24-2.49-2.24a8.49,8.49,0,0,0-2.85.53,7,7,0,0,1,.6,1.36l0.42-.11V91.94a3.82,3.82,0,0,1,1.65-.35c1,0,1.27.33,1.27,1v0.63c-1.89,0-4.34.46-4.34,2.36a1.81,1.81,0,0,0,2,1.7,2.57,2.57,0,0,0,2.44-1.51h0l0.11,1.38c0.3,0,.61,0,0.91,0s0.64,0,1,0V96.76Z" transform="translate(-0.2)"/><path d="M276.8,96.76l0.65-.12a15.71,15.71,0,0,0,.11-2.49V91.56a15.9,15.9,0,0,0-.11-2.5l-0.75-.15V88.49a12.19,12.19,0,0,0,1.79-.3h0.58a16.07,16.07,0,0,0-.11,2.5v2.7l2.15-1.93-0.45-.12V90.91c0.44,0,.89,0,1.32,0s0.71,0,1.06,0v0.42l-0.55.12a26.48,26.48,0,0,0-2.41,1.89c0.75,0.83,2.34,2.57,3.11,3.29l0.45,0.12v0.42a9.41,9.41,0,0,0-1.81.13l-0.85-1-1-1.17L279,94v0.16a15.71,15.71,0,0,0,.11,2.49l0.65,0.12v0.42c-0.48,0-1,0-1.46,0s-1,0-1.46,0V96.76Z" transform="translate(-0.2)"/><path d="M290.06,91.62c0-.54,0-1.06.06-1.6a4.62,4.62,0,0,1,1.17-.14c0.58,0,1.77.19,1.77,1.3,0,0.87-.76,1.55-2.16,1.55a5.13,5.13,0,0,1-.84-0.07v-1Zm5.7,5.14-0.48-.12c-1-1.13-2.31-2.74-2.87-3.37,1.37-.24,2.3-0.91,2.3-2.17,0-1.52-1.31-1.95-2.62-1.95-0.66,0-1.22,0-1.7,0l-1.21,0c-0.48,0-1,0-1.44,0v0.41l0.74,0.13a19.55,19.55,0,0,1,.09,2.49v1.93a19.79,19.79,0,0,1-.09,2.5l-0.74.12v0.42c0.53,0,1.06,0,1.58,0s1.08,0,1.58,0V96.76l-0.74-.12a20,20,0,0,1-.09-2.5V93.48h0.82c0.89,1.17,2,2.6,2.83,3.85a9.74,9.74,0,0,1,2-.15V96.76Z" transform="translate(-0.2)"/><path d="M295.87,91.08a11.77,11.77,0,0,0,1.79-.3h0.53c-0.06.64-.06,1.48-0.06,2.49v0.86a15.89,15.89,0,0,0,.11,2.49l0.65,0.12v0.42c-0.48,0-1,0-1.46,0s-1,0-1.46,0V96.76l0.65-.12a16,16,0,0,0,.11-2.49V93.41a14.09,14.09,0,0,0-.11-1.76l-0.75-.15V91.08Zm1.56-2.89a0.82,0.82,0,1,1-.82.82A0.82,0.82,0,0,1,297.42,88.19Z" transform="translate(-0.2)"/><path d="M304.05,93.87c0,1-.14,2.42-1.36,2.42s-1.58-1.11-1.58-2.39,0.43-2.31,1.8-2.31a2.75,2.75,0,0,1,1.14.26v2Zm-0.87-5,0.75,0.15a12.16,12.16,0,0,1,.11,1.85,5.32,5.32,0,0,0-1-.13,3.33,3.33,0,0,0-3.41,3.52c0,2,1.19,3,2.59,3a2.21,2.21,0,0,0,1.91-1.12h0v1c0.31,0,.58,0,1,0s0.73,0,1,0V96.76l-0.65-.12a16,16,0,0,1-.11-2.5V90.69a16.07,16.07,0,0,1,.11-2.5H305a12.25,12.25,0,0,1-1.79.3v0.42Z" transform="translate(-0.2)"/><path d="M308.42,93.14a1.44,1.44,0,1,1,2.85,0A1.44,1.44,0,1,1,308.42,93.14Zm4.83-2.05h-0.67a8.5,8.5,0,0,1-1.4-.16,10.92,10.92,0,0,0-1.42-.14A2.57,2.57,0,0,0,307,93.26a2.08,2.08,0,0,0,1.14,1.85,5.45,5.45,0,0,1-.74,1.82,3.74,3.74,0,0,1,.75.84,3.9,3.9,0,0,1,1.43-.23c1.82,0,2,.7,2,1s-0.39,1-1.65,1-2-.65-2-1.17a0.42,0.42,0,0,1,.07-0.21l-0.69-.42a1.37,1.37,0,0,0-.5,1c0,0.64.81,1.63,2.74,1.63,2.12,0,3.49-1.09,3.49-2.27,0-.46-0.27-1.77-3.06-1.77a5.94,5.94,0,0,0-1.55.22,9.3,9.3,0,0,0,.41-1.19,2.26,2.26,0,0,0,.85.14c2.13,0,3-1.3,3-2.37a1.64,1.64,0,0,0-.66-1.41v0a3.3,3.3,0,0,0,1.2-.19V91.08Z" transform="translate(-0.2)"/><path d="M315.62,93a1.62,1.62,0,0,1,1.69-1.52,1.1,1.1,0,0,1,1.11,1.38Zm4,2.27a3,3,0,0,1-2,1c-1.33,0-2-.93-2-2.7h4.38V93.24a2.41,2.41,0,0,0-2.58-2.45A3.33,3.33,0,0,0,314,94.31a2.92,2.92,0,0,0,3.17,3,3.86,3.86,0,0,0,2.9-1.63Z" transform="translate(-0.2)"/><path d="M320.86,99a7.15,7.15,0,0,0,.5-3.12,8.32,8.32,0,0,0,1.51-.18,6.13,6.13,0,0,1-1.44,3.63Z" transform="translate(-0.2)"/><path d="M328.15,96.76l0.74-.12a19.87,19.87,0,0,0,.09-2.5V92.2a20,20,0,0,0-.09-2.5l-0.74-.11V89.17c0.39,0,1.06,0,1.63,0s1.2,0,1.68,0v0.42l-0.88.11a19.94,19.94,0,0,0-.09,2.51v2.37c0,0.72,0,1.31.07,1.76l0.88,0a14,14,0,0,0,2.69-.25l0.44-.81L335,95.48c-0.13.43-.3,1.19-0.39,1.66h-3.22c-1,0-2.1,0-3.22,0V96.76Z" transform="translate(-0.2)"/><path d="M335.24,96.76l0.74-.12a20.12,20.12,0,0,0,.09-2.5V92.2a20.21,20.21,0,0,0-.09-2.5l-0.74-.11V89.17c0.39,0,1.06,0,1.63,0s1.2,0,1.67,0v0.42l-0.88.11a20.17,20.17,0,0,0-.09,2.51v2.37c0,0.72,0,1.31.07,1.76l0.88,0a13.94,13.94,0,0,0,2.69-.25l0.44-.81,0.42,0.16c-0.13.43-.3,1.19-0.39,1.66h-3.22c-1,0-2.1,0-3.22,0V96.76Z" transform="translate(-0.2)"/><path d="M350,95.71a4.68,4.68,0,0,1-3.59,1.62,3.9,3.9,0,0,1-4.07-4.1c0-2.2,1.72-4.21,4.72-4.21a7.06,7.06,0,0,1,2.61.48,8.11,8.11,0,0,0-.38,1.76l-0.42,0-0.14-.75a3.65,3.65,0,0,0-2-.52,2.72,2.72,0,0,0-2.8,3A3,3,0,0,0,347,96.25a3.67,3.67,0,0,0,2.51-1.06Z" transform="translate(-0.2)"/></svg>