<svg id="Layer_1" data-name="Layer 1" xmlns="http://www.w3.org/2000/svg" viewBox="0 0 360 180.39"><defs><style>.cls-1{fill:#0e553f;}</style></defs><title>peninsula</title><path class="cls-1" d="M4.4,65.55c0-2-.37-4.46-2.38-5.38a0.83,0.83,0,0,1-.55-0.49c0-.24.24-0.37,0.86-0.37H20.17c13.45,0,20.05,4.4,20.05,10.15,0,10-16.93,10.88-23.6,10.88-2.32,0-4.65-.12-7-0.12v7.52c0,6,.67,9.41,3.12,10.09,1.22,0.37,1.53.37,1.53,0.79,0,0.12-.12.24-0.67,0.24s-4.83-.18-6.54-0.18c-3.85,0-6,.18-6.48.18S0,98.75,0,98.56c0-.37.92-0.43,1.77-0.92,1.59-1,2.63-3.91,2.63-10.88V65.55ZM9.66,78.39a34.35,34.35,0,0,0,5.62.43c6.54,0,18.4-.25,18.4-9.35,0-6.36-5.2-7.95-11.25-8.38-2.14-.12-4.28-0.24-6.6-0.24-2,0-4.22.06-6.17,0.12V78.39Z"/><path class="cls-1" d="M44.44,78.51a16.05,16.05,0,0,0-.37,3c0,9,3.36,16.32,13,16.32,9.23,0,13.63-8.87,14-10.88a0.91,0.91,0,0,1,.79-0.86,0.47,0.47,0,0,1,.49.55,4.53,4.53,0,0,1-.31,1.53C69.81,95.38,62.9,99.6,54.71,99.6c-9.48,0-16.51-7.95-16.51-17.24,0-8,6.54-16.39,17.24-16.39C63.39,66,71,70.25,71.77,78.51H44.44ZM65.9,77c0-5.93-4.34-9.48-10.09-9.48-6.48,0-9.9,3.55-11.25,9.48H65.9Z"/><path class="cls-1" d="M78.45,66.89v7h0.18C80.34,68.73,85.72,66,91.22,66c6.42,0,13.33,3,13.33,11.8v12c0,6.73.43,7.4,2,8.07a2.32,2.32,0,0,1,1.1.73,0.59,0.59,0,0,1-.61.24c-0.67,0-2.94-.12-4.89-0.12s-4.22.12-5.07,0.12a1,1,0,0,1-.86-0.18c0-.37.92-0.61,1.22-0.79,2-1.1,2.26-4.4,2.26-8.93V80.59C99.66,70.19,95.2,67.5,90,67.5c-6.54,0-11.07,6-11.07,13.21v9.41c0,4.46.31,6.54,2.2,7.76a3.78,3.78,0,0,1,1.1.73c0,0.18-.18.18-0.49,0.18-1,0-3.3-.12-5.07-0.12s-4,.12-5.07.12c-0.3,0-.55-0.06-0.55-0.3a3.28,3.28,0,0,1,1.16-.73c1.9-1.1,2.2-5.32,2.2-8.74V75.33c0-4.65-1-5.5-2.08-5.87a1,1,0,0,1-.79-0.61,0.86,0.86,0,0,1,.73-0.37Z"/><path class="cls-1" d="M114.83,87.8c0,6.79,1.1,9.84,2.57,10.27,0.55,0.12,1,.18,1,0.49a0.75,0.75,0,0,1-.73.24c-1,0-3.3-.12-5.07-0.12-3.12,0-4.4.12-5.07,0.12-0.31,0-.49,0-0.49-0.24a1.33,1.33,0,0,1,1-.73c2.08-1,2.26-3.24,2.26-8.68V71.29c0-1.22-1-1.41-2-2a0.67,0.67,0,0,1-.55-0.37c0-.18.18-0.24,0.43-0.31l6.66-1.77V87.8Zm0.61-28.37a2.87,2.87,0,1,1-2.87-2.93A2.92,2.92,0,0,1,115.45,59.43Z"/><path class="cls-1" d="M125.37,66.89v7h0.18c1.71-5.2,7.09-7.95,12.59-7.95,6.42,0,13.33,3,13.33,11.8v12c0,6.73.43,7.4,2,8.07a2.32,2.32,0,0,1,1.1.73,0.58,0.58,0,0,1-.61.24c-0.67,0-2.94-.12-4.89-0.12s-4.22.12-5.08,0.12a1,1,0,0,1-.86-0.18c0-.37.92-0.61,1.22-0.79,2-1.1,2.26-4.4,2.26-8.93V80.59c0-10.39-4.46-13.08-9.66-13.08-6.54,0-11.07,6-11.07,13.21v9.41c0,4.46.31,6.54,2.2,7.76a3.78,3.78,0,0,1,1.1.73c0,0.18-.18.18-0.49,0.18-1,0-3.3-.12-5.07-0.12s-4,.12-5.07.12c-0.31,0-.55-0.06-0.55-0.3a3.28,3.28,0,0,1,1.16-.73c1.9-1.1,2.2-5.32,2.2-8.74V75.33c0-4.65-1-5.5-2.08-5.87a1,1,0,0,1-.79-0.61,0.86,0.86,0,0,1,.73-0.37Z"/><path class="cls-1" d="M181.76,73.43a0.94,0.94,0,0,1-.55.8c-0.31,0-.43-0.43-0.73-1.41-1.1-3.73-6.36-5.32-10.33-5.32-4.22,0-8.8,1.89-8.8,6.36,0,6.05,7,6.24,11.49,6.6,5.14,0.49,12,1.16,12,7.95,0,7.89-8.74,11.19-15.35,11.19-5.38,0-10.94-.55-15.71-3.24l1.29-4c0.49-1.59.73-2.08,1.1-2.08s0.43,0.49.73,1.28c1.71,5.07,7.77,6.48,12.47,6.48,4.52,0,10.58-1.41,10.58-7,0-6-6.85-6.05-11.74-6.36-5-.49-11.8-2.75-11.8-8.87,0-7.46,8.56-9.84,14.61-9.84a31.41,31.41,0,0,1,12.29,2.57Z"/><path class="cls-1" d="M192.85,66.89V87.37c0,5.62,2.57,10.7,9.6,10.7,7.58,0,10.95-7.4,10.95-16v-6c0-4.52-.49-5.56-2-6.3a1.24,1.24,0,0,1-1-.67c0-.12.12-0.18,0.55-0.31l6.91-1.89V87.37c0,2.93.18,8.62,2.14,10.33a2,2,0,0,1,.67.73c0,0.18-.3.24-1,0.24h-4.46l-1.83-6.36c-3.24,5.14-6.54,7.28-13.08,7.28-7.82,0-12.41-4.71-12.41-11.43V74.35c0-3.55-.55-4.28-1.77-4.52-0.73-.18-1.1-0.31-1.1-0.67a0.71,0.71,0,0,1,.67-0.37Z"/><path class="cls-1" d="M228.32,89.82c0,3.55.31,7.15,2.26,7.95,0.61,0.24,1.29.49,1.29,0.8a1.53,1.53,0,0,1-1,.24c-0.73,0-3-.12-4.77-0.12s-4,.12-5.08.12-1.34-.06-1.34-0.24,0.79-.55,1.65-0.92c2.2-1,2.51-6.3,2.51-12.66V63.29c0-4.59-.49-5.93-2.14-6.54a0.71,0.71,0,0,1-.61-0.37A0.65,0.65,0,0,1,221.6,56l6.72-1.65V89.82Z"/><path class="cls-1" d="M261.16,89.51c0,3.85.49,7.82,2.14,8.38a0.64,0.64,0,0,1,.49.49,0.49,0.49,0,0,1-.55.43c-0.24,0-1.71-.12-2.38-0.12s-1.59.12-2.26,0.12a0.66,0.66,0,0,1-.73-0.49c0-1.53-.85-4-1-5.75h-0.12c-2.63,5.26-7.28,7-12.9,7-5.93,0-13-3.12-13-9.78,0-9.35,13.94-10.76,20.85-10.76h4.65c0-7.15-2-11.55-9.78-11.55-4.28,0-11.19,2.32-11.74,7.15a0.25,0.25,0,0,1-.3.24,0.2,0.2,0,0,1-.25-0.18l-1.65-5.81A35.5,35.5,0,0,1,246.3,66c11.13,0,14.86,4.83,14.86,11.92V89.51Zm-9.41-8.93c-6.48,0-15.1,1.22-15.1,9.35,0,5.38,4.16,8.13,9.11,8.13,9.17,0,10.52-7.34,10.52-14.8V80.59h-4.52Z"/><path class="cls-1" d="M176.17,162.52c-4.12,3.34-9.57,4.47-14.82,4.47-9.62,0-18.55-5.4-18.55-16.69,0-10.11,8.93-16.68,18.55-16.68a27.78,27.78,0,0,1,14.09,3.73L173.91,142a5.75,5.75,0,0,1-.69,1.67,2.86,2.86,0,0,1-.54-1.28c-1-4.27-4.07-7.69-11.34-7.84-8.93,0-13,8.48-13,15.79s4.42,15.79,14.93,15.79c4.81,0,8.44-2.93,10.6-7.89,0.25-.59.29-1,0.54-1s0.25,0.15.44,0.89Z"/><path class="cls-1" d="M212.21,161l5.19-10.1a11.71,11.71,0,0,0,1.38-4.26,2.2,2.2,0,0,0-1.87-2.19,0.38,0.38,0,0,1-.36-0.25c0-.12.16-0.16,0.41-0.16,1.05,0,1.42.16,3.08,0.16s1.95-.16,3-0.16c0.28,0,.53,0,0.53.12a0.65,0.65,0,0,1-.37.49c-1.34.93-2.76,3.08-4.14,5.56l-7.91,15.13a1.17,1.17,0,0,1-.49.57h-0.08a1.26,1.26,0,0,1-.4-0.61l-7.1-13.83c-1.54-3.08-2.84-5.72-4.54-6.86a0.84,0.84,0,0,1-.49-0.41c0-.16.24-0.16,0.53-0.16,0.65,0,1.66.16,3.61,0.16s3.33-.16,3.65-0.16a0.59,0.59,0,0,1,.53.16,0.5,0.5,0,0,1-.37.33,1.45,1.45,0,0,0-1.14,1.54,8.14,8.14,0,0,0,1,2.76Z"/><path class="cls-1" d="M225.23,151.93c-0.08.93-.12,1.78-0.12,2.64,0,7.54,3.9,10.34,7.83,10.34,4.66,0,8.11-3.2,9.49-7.95h0.85c-1.3,5.6-5.35,9-10.87,9-6.9,0-12-4.67-12-11.16s5.11-11.15,12-11.15c4.42,0,9.78,2.68,10.34,8.31H225.23Zm12.41-.77c0-4-1.91-6.77-6.13-6.77-3.69,0-5.68,3.29-6.13,6.77h12.25Z"/><path class="cls-1" d="M248.46,149.9h0.08c0.93-3.45,2.92-6.29,8.28-6.29,4.46,0,8.64,2.31,8.64,8.76v7.83c-0.08,3.85.45,4.42,1.62,4.83a0.85,0.85,0,0,1,.53.28c0,0.12-.2.12-0.61,0.12s-1.42-.12-3.65-0.12-3.65.12-4.18,0.12c-0.24,0-.45,0-0.45-0.12s0.08-.2.37-0.24c1.46-.16,2.19-1.26,2.19-4.87v-7.87c0-3.73-1.66-7.71-6-7.71-4.83,0-6.41,5-6.41,10.63v5c0,2.56.12,4.46,1.95,4.78,0.28,0,.45.12,0.45,0.24s-0.12.2-.36,0.2-1.95-.12-4.14-0.12-4.06.12-4.34,0.12-0.36,0-.36-0.2,0.16-.2.45-0.24c2-.32,2.19-2.23,2.19-4.78V150.14c0-2.43-.28-3.81-1.42-4.3a1.76,1.76,0,0,1-.73-0.4,1.08,1.08,0,0,1,.77-0.2,35.37,35.37,0,0,0,5.11-1.18v5.84Z"/><path class="cls-1" d="M287.32,161.79c0,1.34.2,2.55,1.46,3.12a0.56,0.56,0,0,1,.41.24,0.5,0.5,0,0,1-.53.16h-4.38a12.1,12.1,0,0,1-1-4.14h-0.08a7.57,7.57,0,0,1-7.51,4.75c-4.22,0-8.56-2-8.56-6.78,0-6.17,9.41-6.77,13.67-6.77h2.31V151c0-3.9-1.83-6.65-5.92-6.65-3.73,0-5.92,1.1-7.38,4.67a2.07,2.07,0,0,1-.32.69,0.73,0.73,0,0,1-.2-0.45l-1.06-3.65c3.33-1.74,6-2,9.58-2,4.62,0,9.49,1.66,9.49,6.77v11.4Zm-4.18-8.64h-2.39c-4.38,0-8.88,1.3-8.88,6.65a4.92,4.92,0,0,0,5,5.11c4.79,0,6.25-5,6.25-8.92v-2.84Z"/><path class="cls-1" d="M295.06,149.9h0.08c0.93-3.45,2.92-6.29,8.28-6.29,4.46,0,8.64,2.31,8.64,8.76v7.83c-0.08,3.85.45,4.42,1.62,4.83a0.85,0.85,0,0,1,.53.28c0,0.12-.2.12-0.61,0.12s-1.42-.12-3.65-0.12-3.65.12-4.18,0.12c-0.25,0-.45,0-0.45-0.12s0.08-.2.37-0.24c1.46-.16,2.19-1.26,2.19-4.87v-7.87c0-3.73-1.66-7.71-6-7.71-4.83,0-6.41,5-6.41,10.63v5c0,2.56.12,4.46,1.95,4.78,0.28,0,.45.12,0.45,0.24s-0.12.2-.37,0.2-1.95-.12-4.14-0.12-4.06.12-4.34,0.12-0.37,0-.37-0.2,0.16-.2.45-0.24c2-.32,2.19-2.23,2.19-4.78V150.14c0-2.43-.28-3.81-1.42-4.3a1.78,1.78,0,0,1-.73-0.4,1.09,1.09,0,0,1,.77-0.2,35.41,35.41,0,0,0,5.11-1.18v5.84Z"/><path class="cls-1" d="M313,146.53a0.37,0.37,0,0,1-.41-0.37,1.13,1.13,0,0,1,.81-0.57c2.31-.81,4.26-2.68,5.76-5.76a0.54,0.54,0,0,1,.45-0.41c0.2,0,.2.29,0.2,0.57v5.23h4.5l-0.28,1.3h-4.22v11.52c0,5.4,1.3,6.37,2.59,6.82a0.6,0.6,0,0,1,.49.28,0.68,0.68,0,0,1-.65.16h-4.91a2.88,2.88,0,0,1-1.7-3V146.53H313Z"/><path class="cls-1" d="M249.52,173.35v-4a1.44,1.44,0,0,0-.85-1.62,0.48,0.48,0,0,1-.2-0.12c0-.06.12-0.08,0.3-0.08s1.26,0.08,1.89.08,1.58-.08,1.89-0.08,0.3,0,.3.08a0.48,0.48,0,0,1-.2.12,1.44,1.44,0,0,0-.85,1.62v8.74a1.81,1.81,0,0,0,1.06,2,0.24,0.24,0,0,1,.18.16c0,0.06-.12.06-0.31,0.06-0.71,0-.94-0.06-2.07-0.06s-1.36.06-2.07,0.06c-0.2,0-.31,0-0.31-0.06a0.24,0.24,0,0,1,.18-0.16,1.81,1.81,0,0,0,1.06-2v-4.27H242v4.27a1.81,1.81,0,0,0,1.06,2,0.25,0.25,0,0,1,.18.16c0,0.06-.12.06-0.32,0.06-0.71,0-.95-0.06-2.07-0.06s-1.36.06-2.07,0.06c-0.2,0-.32,0-0.32-0.06a0.24,0.24,0,0,1,.18-0.16,1.81,1.81,0,0,0,1.06-2v-8.74a1.44,1.44,0,0,0-.85-1.62,0.48,0.48,0,0,1-.2-0.12c0-.06.12-0.08,0.3-0.08s1.26,0.08,1.89.08,1.57-.08,1.89-0.08,0.3,0,.3.08a0.48,0.48,0,0,1-.2.12,1.44,1.44,0,0,0-.85,1.62v4h7.5Z"/><path class="cls-1" d="M257.74,173.35h3.64c1.44,0,2.7-.67,3-1.48a0.21,0.21,0,0,1,.16-0.18c0.06,0,.08.1,0.08,0.3v3.25c0,0.34,0,.41-0.08.41a0.39,0.39,0,0,1-.16-0.27c-0.57-1.46-2.19-1.54-3.56-1.54h-3.05V178c0,1.44.49,1.75,1.83,1.75h2.23a8.38,8.38,0,0,0,5.14-2.15,2.7,2.7,0,0,1,.53-0.41,0.05,0.05,0,0,1,.06.06,0.86,0.86,0,0,1,0,.16l-0.87,2.84h-12a0.73,0.73,0,0,1-.59-0.08c0-.06.41-0.18,0.55-0.29,0.73-.57.87-1.12,0.87-2.92v-6.7c0-1.28-.08-2.13-0.87-2.33a0.71,0.71,0,0,1-.33-0.18c0-.08.08-0.12,0.37-0.12h11.13l0.53,1.85a2.8,2.8,0,0,1,.18.73,0.14,0.14,0,0,1-.1.16,0.33,0.33,0,0,1-.24-0.18c-0.83-1.36-2.91-2.07-4.76-2.07h-3.62v5.22Z"/><path class="cls-1" d="M272.58,174.49l-1.06,2.07a5,5,0,0,0-.69,2.24,1.25,1.25,0,0,0,1.06,1.26c0.16,0,.22.08,0.22,0.14s-0.1.1-.24,0.1-0.85-.06-1.93-0.06c-0.79,0-1.3.06-1.54,0.06s-0.26,0-.26-0.1a0.69,0.69,0,0,1,.37-0.32,12,12,0,0,0,2.29-3.11l4.82-9.37a0.26,0.26,0,0,1,.14-0.16h0a0.24,0.24,0,0,1,.16.16l5.79,10.83a5,5,0,0,0,1.32,1.64,1.21,1.21,0,0,1,.45.33c0,0.06-.1.1-0.27,0.1s-1.06-.06-2.21-0.06c-1.61,0-2.26.06-2.38,0.06a0.2,0.2,0,0,1-.2-0.06c0-.08.1-0.12,0.25-0.16a0.91,0.91,0,0,0,.55-1,8.08,8.08,0,0,0-.89-2.25l-1.12-2.32h-4.69Zm2.33-4.59L272.83,174H277Z"/><path class="cls-1" d="M287.79,177.62c0,2,.75,2.13,2.42,2.13h1a7.59,7.59,0,0,0,5.18-2.28,1.49,1.49,0,0,1,.41-0.47,0.12,0.12,0,0,1,.12.14,2,2,0,0,1-.08.27l-0.81,2.84H284.5c-0.34,0-.44,0-0.44-0.1a1.38,1.38,0,0,1,.47-0.18c0.77-.33,1-1.06,1-2.82v-7.78a1.52,1.52,0,0,0-.85-1.58,0.24,0.24,0,0,1-.2-0.16c0-.06.12-0.08,0.3-0.08s1.26,0.08,1.89.08,1.58-.08,1.89-0.08,0.24,0,.24.1a0.25,0.25,0,0,1-.18.12,1.51,1.51,0,0,0-.81,1.6v8.25Z"/><path class="cls-1" d="M299.9,169c0-.77-0.34-0.91-1.22-0.91a5.94,5.94,0,0,0-4.16,1.95,2.32,2.32,0,0,1-.35.34,0.11,0.11,0,0,1-.1-0.12,3.26,3.26,0,0,1,.14-0.46l0.63-2.21h12.41l0.63,2.21a3.26,3.26,0,0,1,.14.46,0.11,0.11,0,0,1-.1.12,2.42,2.42,0,0,1-.35-0.34,5.94,5.94,0,0,0-4.15-1.95c-0.89,0-1.22.14-1.22,0.91v9.08c0,1,.25,1.73,1.18,1.91a0.31,0.31,0,0,1,.3.16,0.18,0.18,0,0,1-.16.12c-0.14,0-1.34-.06-2.46-0.06s-2.28.06-2.42,0.06-0.18,0-.18-0.1a0.66,0.66,0,0,1,.37-0.16c0.91-.39,1.08-1,1.08-2.79V169Z"/><path class="cls-1" d="M319.89,173.35v-4a1.44,1.44,0,0,0-.85-1.62,0.48,0.48,0,0,1-.2-0.12c0-.06.12-0.08,0.3-0.08s1.26,0.08,1.89.08,1.57-.08,1.89-0.08,0.3,0,.3.08a0.5,0.5,0,0,1-.2.12,1.44,1.44,0,0,0-.85,1.62v8.74a1.81,1.81,0,0,0,1.06,2,0.24,0.24,0,0,1,.18.16c0,0.06-.12.06-0.32,0.06-0.71,0-.95-0.06-2.07-0.06s-1.36.06-2.07,0.06c-0.2,0-.32,0-0.32-0.06a0.25,0.25,0,0,1,.18-0.16,1.81,1.81,0,0,0,1.06-2v-4.27h-7.5v4.27a1.81,1.81,0,0,0,1.06,2,0.24,0.24,0,0,1,.18.16c0,0.06-.12.06-0.31,0.06-0.71,0-.95-0.06-2.07-0.06s-1.36.06-2.07,0.06c-0.2,0-.31,0-0.31-0.06a0.24,0.24,0,0,1,.18-0.16,1.81,1.81,0,0,0,1.06-2v-8.74a1.44,1.44,0,0,0-.84-1.62,0.47,0.47,0,0,1-.2-0.12c0-.06.12-0.08,0.3-0.08s1.26,0.08,1.89.08,1.57-.08,1.89-0.08,0.29,0,.29.08a0.48,0.48,0,0,1-.2.12,1.44,1.44,0,0,0-.85,1.62v4h7.5Z"/><path class="cls-1" d="M201.41,153.06a13.67,13.67,0,0,1-2.36,7.85,10.42,10.42,0,0,1-11.45,4c-4.45-1.25-9.48-7.15-6.56-13.81A8.7,8.7,0,0,1,187.5,146a9.32,9.32,0,0,0-7.56,3.56,11.05,11.05,0,0,0,3.62,16.71A12.67,12.67,0,0,0,200,161.16,13.65,13.65,0,0,0,201.41,153.06Z"/><path class="cls-1" d="M176.48,157a13.66,13.66,0,0,1,2.36-7.85,10.42,10.42,0,0,1,11.44-4c4.46,1.25,9.48,7.15,6.57,13.81a8.7,8.7,0,0,1-6.46,5.07,9.31,9.31,0,0,0,7.56-3.56,11.05,11.05,0,0,0-3.62-16.71,12.67,12.67,0,0,0-16.46,5.15A13.64,13.64,0,0,0,176.48,157Z"/><path class="cls-1" d="M326.14,178.11a1.17,1.17,0,0,1,.35.86,1.19,1.19,0,0,1-.35.87,1.21,1.21,0,0,1-1.73,0,1.2,1.2,0,0,1-.35-0.87,1.17,1.17,0,0,1,.36-0.86A1.21,1.21,0,0,1,326.14,178.11Zm0.14-.14a1.42,1.42,0,0,0-2.42,1,1.38,1.38,0,0,0,.41,1A1.42,1.42,0,1,0,326.28,178Zm-0.79.94a0.77,0.77,0,0,1-.26,0H325v-0.56h0.23a0.72,0.72,0,0,1,.33.06,0.24,0.24,0,0,1,.1.23A0.24,0.24,0,0,1,325.48,178.9Zm-0.78.84H325v-0.61h0.22a0.69,0.69,0,0,1,.31,0,0.39,0.39,0,0,1,.15.36v0.19h0.26v0a0.27,0.27,0,0,1,0-.08s0-.08,0-0.11v-0.11a0.43,0.43,0,0,0-.09-0.24,0.37,0.37,0,0,0-.27-0.15,0.59,0.59,0,0,0,.23-0.08,0.34,0.34,0,0,0,.15-0.31,0.38,0.38,0,0,0-.24-0.39,1.21,1.21,0,0,0-.43-0.06H324.7v1.56Z"/><polygon class="cls-1" points="325.97 127.88 70.98 127.88 70.98 127.13 325.97 127.13 325.97 127.88 325.97 127.88"/><path class="cls-1" d="M81.66,119.24a2.77,2.77,0,0,0,0-.38A28.56,28.56,0,0,0,80,114.68H75A36.66,36.66,0,0,0,73.22,119a0.41,0.41,0,0,0,.09.24H71.7a1.76,1.76,0,0,0,.74-0.95l4.25-9.84a2,2,0,0,0,.14-0.77,2.7,2.7,0,0,0-.07-0.5H78.2l4.67,10.75a4,4,0,0,0,.83,1.31h-2Zm-4.2-10.37-2,4.94h4.19Z"/><path class="cls-1" d="M88.51,107.19l2.82,0c0.69,0,1.38,0,2.07.05,3.57,0.22,5.75,2.38,5.75,6,0,4.84-3.88,6-8,6-0.91,0-1.81,0-2.7,0a1.05,1.05,0,0,0,.28-0.86V108A1.54,1.54,0,0,0,88.51,107.19ZM90,108.13v10.23h1.31c3.45,0,6.46-1,6.46-5.1,0-3.38-2.22-5.27-5.49-5.27C91.56,108,90.8,108.06,90,108.13Z"/><path class="cls-1" d="M100.81,119.24a0.94,0.94,0,0,0,.26-0.76c0-1.36,0-2.72,0-4.08a6.27,6.27,0,0,0-.28-2.79l1.46-.12c0,1.62,0,3.22,0,4.84,0,0.59-.14,2.57.29,2.91h-1.72Zm0.07-9.15v-1.46h1.4v1.46h-1.4Z"/><path class="cls-1" d="M109.49,113.34a3.24,3.24,0,0,0,.33-1.26,2.48,2.48,0,0,0-.07-0.5h1.69a2.63,2.63,0,0,0-.53.83l-3.36,7.15-3.41-7.13a3.28,3.28,0,0,0-.52-0.84h1.89a0.93,0.93,0,0,0-.17.52c0,0.6,2,4.65,2.29,5.36Z"/><path class="cls-1" d="M112.73,119.24a0.94,0.94,0,0,0,.26-0.76c0-1.36,0-2.72,0-4.08a6.27,6.27,0,0,0-.28-2.79l1.46-.12c0,1.62,0,3.22,0,4.84,0,0.59-.14,2.57.29,2.91h-1.72Zm0.07-9.15v-1.46h1.4v1.46h-1.4Z"/><path class="cls-1" d="M118.69,112.18a1.32,1.32,0,0,0-1.48,1.22c0,1.67,3.67,1.12,3.67,3.65,0,1.83-1.46,2.31-3,2.31a8.86,8.86,0,0,1-1.91-.19L115.76,118a4.27,4.27,0,0,0,2.14.62,1.5,1.5,0,0,0,1.76-1.41c0-1.9-3.67-1.29-3.67-3.72,0-1.53,1.29-2,2.64-2a6.24,6.24,0,0,1,1.77.26v1A3.49,3.49,0,0,0,118.69,112.18Z"/><path class="cls-1" d="M122.43,119.24a0.94,0.94,0,0,0,.26-0.76c0-1.36,0-2.72,0-4.08a6.27,6.27,0,0,0-.28-2.79l1.46-.12c0,1.62,0,3.22,0,4.84,0,0.59-.14,2.57.29,2.91h-1.72Zm0.07-9.15v-1.46h1.4v1.46h-1.4Z"/><path class="cls-1" d="M129.51,119.36a4,4,0,1,1,4-3.82A3.85,3.85,0,0,1,129.51,119.36Zm2.77-4a2.79,2.79,0,0,0-2.86-3,2.72,2.72,0,0,0-2.69,3A2.79,2.79,0,1,0,132.28,115.4Z"/><path class="cls-1" d="M140.15,119.24a0.94,0.94,0,0,0,.26-0.76c0-1,0-2,0-3,0-1.48.14-3.34-1.89-3.34a2.24,2.24,0,0,0-1.15.33c-1.09.67-1.05,1.46-1.05,2.62,0,0.81,0,1.6,0,2.41a2.56,2.56,0,0,0,.28,1.71h-1.72a0.89,0.89,0,0,0,.28-0.76v-6.27a0.8,0.8,0,0,0-.28-0.6l1.46-.12v0.81a4.09,4.09,0,0,1,2.62-.86c3.46,0,2.65,3.91,2.65,6.25a2.15,2.15,0,0,0,.28,1.55h-1.72Z"/><path class="cls-1" d="M150.83,119.36a4,4,0,1,1,4-3.82A3.85,3.85,0,0,1,150.83,119.36Zm2.77-4a2.79,2.79,0,0,0-2.86-3,2.72,2.72,0,0,0-2.69,3A2.79,2.79,0,1,0,153.6,115.4Z"/><path class="cls-1" d="M155.55,111.58h1.08l0-1.21c0-1.55.43-3.12,2.29-3.12a4.7,4.7,0,0,1,.86.09V108a3.38,3.38,0,0,0-.59-0.07c-1.26,0-1.39,1.19-1.39,2.17,0,0.48.05,1,.05,1.45h1.95v0.67h-1.95c0,1.45,0,2.89,0,4.32,0,0.59-.14,2.33.29,2.67h-1.72a0.94,0.94,0,0,0,.26-0.76v-6.23h-1.08v-0.67Z"/><path class="cls-1" d="M163.25,119.24a1.13,1.13,0,0,0,.28-0.9V107.84a1,1,0,0,0-.28-0.65l2.39,0c2.31,0,4.46.34,4.46,3.22a3,3,0,0,1-3.13,3.15,5,5,0,0,1-2.17-.5c0,1.27,0,2.53,0,3.81,0,0.53-.12,2.07.29,2.39h-1.81ZM164.8,108v4.56a5,5,0,0,0,1.52.24,2.36,2.36,0,0,0,2.62-2.48c0-1.79-1.15-2.39-2.79-2.39C165.7,108,165.25,108,164.8,108Z"/><path class="cls-1" d="M173,119.38a2.43,2.43,0,0,1-2.62-2.31c0-3.32,4.93-1.53,4.93-3.44,0-1.07-1.22-1.43-2.08-1.43a3.87,3.87,0,0,0-2.14.62v-1a5.61,5.61,0,0,1,2.19-.41c2.6,0,3.22,1,3.22,3.45,0,0.93,0,1.88,0,2.81a2.14,2.14,0,0,0,.28,1.55h-1.46V118.5A3.39,3.39,0,0,1,173,119.38Zm0.22-.84a1.91,1.91,0,0,0,2.08-2.17c0-.4,0-0.77,0-1.17-1.05.31-3.79,0.22-3.79,1.79A1.63,1.63,0,0,0,173.2,118.54Z"/><path class="cls-1" d="M178.25,119.24a0.94,0.94,0,0,0,.26-0.76c0-1.36,0-2.72,0-4.08a6.27,6.27,0,0,0-.28-2.79l1.46-.12v1a2.09,2.09,0,0,1,1.81-1.07,4.23,4.23,0,0,1,.48,0v1a2.17,2.17,0,0,0-.57-0.07c-2.19,0-1.74,3.72-1.74,5.2a2.32,2.32,0,0,0,.28,1.62h-1.72Z"/><path class="cls-1" d="M187.07,111.58h1.72l-3,3.48,3.62,3.6a2.64,2.64,0,0,0,.79.59H188.5l-3.63-3.65,0,2.1a2.15,2.15,0,0,0,.28,1.55H183.4a1,1,0,0,0,.26-0.71v-10a1.66,1.66,0,0,0-.26-1l1.46-.1v7.32c0.26-.31,2.27-2.39,2.27-2.86A0.82,0.82,0,0,0,187.07,111.58Z"/><path class="cls-1" d="M194.42,112.66a1.9,1.9,0,0,0-.4-1.09h1.38l1.91,5.46c0.26-.76,1.55-4,1.55-4.89a1.62,1.62,0,0,0-.14-0.57h1.57a2.83,2.83,0,0,0-.59,1.07l-2.48,6.89L195,113.9l-2.21,5.63-2.65-7.17a2.06,2.06,0,0,0-.47-0.79h1.41L193,117A22.25,22.25,0,0,0,194.42,112.66Z"/><path class="cls-1" d="M202,115.37c0,2,1,3.22,3.07,3.22a4.8,4.8,0,0,0,2.45-.59l-0.24,1a5.53,5.53,0,0,1-2.31.4c-2.57,0-4.2-1.43-4.2-4.06a3.63,3.63,0,0,1,3.56-3.88,3.29,3.29,0,0,1,3.34,3.31H202A3.81,3.81,0,0,0,202,115.37Zm4.53-1.38a2.1,2.1,0,0,0-2.19-1.79,2.24,2.24,0,0,0-2.15,1.79h4.34Z"/><path class="cls-1" d="M211.88,112.18a1.32,1.32,0,0,0-1.48,1.22c0,1.67,3.67,1.12,3.67,3.65,0,1.83-1.46,2.31-3,2.31a8.87,8.87,0,0,1-1.91-.19L209,118a4.27,4.27,0,0,0,2.14.62,1.5,1.5,0,0,0,1.76-1.41c0-1.9-3.67-1.29-3.67-3.72,0-1.53,1.29-2,2.64-2a6.24,6.24,0,0,1,1.77.26v1A3.49,3.49,0,0,0,211.88,112.18Z"/><path class="cls-1" d="M218.94,111.58v0.81h-1.7c0,1.07,0,2.12,0,3.19,0,1.26-.28,3.46,1.74,3v0.79a3.75,3.75,0,0,1-.62.05c-1.52,0-2.22-.52-2.29-2.08s0-3.27,0-4.91h-1.09v-0.81H216V111a0.93,0.93,0,0,0-.26-0.88l1.46-.74v2.15h1.7Z"/><path class="cls-1" d="M230.23,117l4.17-9.77h1.81a1.64,1.64,0,0,0-.19.74,5.1,5.1,0,0,0,.05.53l1.07,9.75a2.48,2.48,0,0,0,.36,1h-1.77a1.62,1.62,0,0,0,.14-0.62l0-.19-1.05-9.75-4.67,10.92L225.37,109l-0.62,9.39,0,0.26a0.9,0.9,0,0,0,.21.59h-1.45a1.77,1.77,0,0,0,.22-0.84l0.79-10.25a2.43,2.43,0,0,0,0-.36,1.47,1.47,0,0,0-.14-0.6h1.43Z"/><path class="cls-1" d="M240.18,115.37c0,2,1,3.22,3.07,3.22a4.8,4.8,0,0,0,2.45-.59l-0.24,1a5.53,5.53,0,0,1-2.31.4c-2.57,0-4.2-1.43-4.2-4.06a3.63,3.63,0,0,1,3.57-3.88,3.29,3.29,0,0,1,3.34,3.31h-5.62A3.89,3.89,0,0,0,240.18,115.37Zm4.53-1.38a2.1,2.1,0,0,0-2.19-1.79,2.24,2.24,0,0,0-2.15,1.79h4.34Z"/><path class="cls-1" d="M253.26,119.24v-0.72a3.41,3.41,0,0,1-2.29.86c-2.31,0-3.58-1.88-3.58-4s1.07-3.91,3.32-3.91a3.8,3.8,0,0,1,2.55.88c0-.91,0-1.83,0-2.74a4.29,4.29,0,0,0-.27-2.19l1.45-.1v11.33a0.86,0.86,0,0,0,.28.62h-1.46Zm0.05-3.79c0-1.65-.29-3.15-2.29-3.15-1.72,0-2.43,1.64-2.43,3.14s0.76,3,2.45,3C252.88,118.45,253.31,117,253.31,115.45Z"/><path class="cls-1" d="M256.13,119.24a0.94,0.94,0,0,0,.26-0.76c0-1.36,0-2.72,0-4.08a6.27,6.27,0,0,0-.28-2.79l1.46-.12c0,1.62,0,3.22,0,4.84,0,0.59-.14,2.57.29,2.91h-1.72Zm0.07-9.15v-1.46h1.4v1.46h-1.4Z"/><path class="cls-1" d="M263.54,112.22a3,3,0,0,0-3,3.15,2.94,2.94,0,0,0,3.14,3.14,5.34,5.34,0,0,0,2.41-.57l-0.22,1a3.59,3.59,0,0,1-2,.43c-2.41,0-4.53-1.34-4.53-4s1.93-3.94,4.36-3.94a6.85,6.85,0,0,1,2,.28l0.07,1.09A4.23,4.23,0,0,0,263.54,112.22Z"/><path class="cls-1" d="M269.86,119.38a2.43,2.43,0,0,1-2.62-2.31c0-3.32,4.93-1.53,4.93-3.44,0-1.07-1.22-1.43-2.08-1.43a3.87,3.87,0,0,0-2.14.62v-1a5.62,5.62,0,0,1,2.19-.41c2.6,0,3.22,1,3.22,3.45,0,0.93,0,1.88,0,2.81a2.14,2.14,0,0,0,.28,1.55h-1.46V118.5A3.39,3.39,0,0,1,269.86,119.38Zm0.22-.84a1.91,1.91,0,0,0,2.08-2.17c0-.4,0-0.77,0-1.17-1.05.31-3.79,0.22-3.79,1.79A1.63,1.63,0,0,0,270.08,118.54Z"/><path class="cls-1" d="M275.08,119.24a1,1,0,0,0,.28-0.77v-10a1.61,1.61,0,0,0-.28-1l1.46-.1,0,11.2a0.78,0.78,0,0,0,.28.64h-1.72Z"/><path class="cls-1" d="M288.39,107.93a4.94,4.94,0,0,0-5.27,5.2c0,3.5,2.46,5.32,5.77,5.32a6.61,6.61,0,0,0,3.27-.93l-0.6,1.52a6.93,6.93,0,0,1-2.46.33c-3.91,0-7.32-1.95-7.32-6.27,0-3.77,3.19-6,6.72-6a11.13,11.13,0,0,1,2.93.41v1.26A5.21,5.21,0,0,0,288.39,107.93Z"/><path class="cls-1" d="M294.41,115.37c0,2,1,3.22,3.07,3.22a4.8,4.8,0,0,0,2.45-.59l-0.24,1a5.53,5.53,0,0,1-2.31.4c-2.57,0-4.2-1.43-4.2-4.06a3.63,3.63,0,0,1,3.56-3.88,3.29,3.29,0,0,1,3.34,3.31h-5.62A3.81,3.81,0,0,0,294.41,115.37Zm4.53-1.38a2.1,2.1,0,0,0-2.19-1.79,2.24,2.24,0,0,0-2.15,1.79h4.34Z"/><path class="cls-1" d="M306.7,119.24a0.94,0.94,0,0,0,.26-0.76c0-1,0-2,0-3,0-1.48.14-3.34-1.89-3.34a2.24,2.24,0,0,0-1.15.33c-1.08.67-1.05,1.46-1.05,2.62,0,0.81,0,1.6,0,2.41a2.56,2.56,0,0,0,.28,1.71h-1.72a0.89,0.89,0,0,0,.28-0.76v-6.27a0.8,0.8,0,0,0-.28-0.6l1.46-.12v0.81a4.09,4.09,0,0,1,2.62-.86c3.46,0,2.65,3.91,2.65,6.25a2.16,2.16,0,0,0,.28,1.55H306.7Z"/><path class="cls-1" d="M313.27,111.58v0.81h-1.71c0,1.07,0,2.12,0,3.19,0,1.26-.28,3.46,1.74,3v0.79a3.75,3.75,0,0,1-.62.05c-1.52,0-2.22-.52-2.29-2.08s0-3.27,0-4.91h-1.09v-0.81h1.09V111a0.93,0.93,0,0,0-.26-0.88l1.46-.74v2.15h1.71Z"/><path class="cls-1" d="M315,115.37c0,2,1,3.22,3.07,3.22a4.8,4.8,0,0,0,2.45-.59l-0.24,1a5.53,5.53,0,0,1-2.31.4c-2.57,0-4.2-1.43-4.2-4.06a3.63,3.63,0,0,1,3.56-3.88,3.29,3.29,0,0,1,3.34,3.31h-5.62A3.81,3.81,0,0,0,315,115.37Zm4.53-1.38a2.1,2.1,0,0,0-2.19-1.79,2.24,2.24,0,0,0-2.15,1.79h4.34Z"/><path class="cls-1" d="M322.12,119.24a0.94,0.94,0,0,0,.26-0.76c0-1.36,0-2.72,0-4.08a6.27,6.27,0,0,0-.28-2.79l1.46-.12v1a2.09,2.09,0,0,1,1.81-1.07,4.22,4.22,0,0,1,.48,0v1a2.16,2.16,0,0,0-.57-0.07c-2.19,0-1.74,3.72-1.74,5.2a2.32,2.32,0,0,0,.28,1.62h-1.72Z"/><path class="cls-1" d="M259,64.93a2.35,2.35,0,0,0,.83,0c0.35-.15.54-0.51,0.89-0.65a5.66,5.66,0,0,0,.78-0.08c1.07-.93.84-0.31,1.82-1.23a1,1,0,0,0,0-1.27c-1.69-1.18-2.74-2.76-4.59-3.69-0.73.56-1.86,0.22-2.5,0.77-1.12,1-1.3,2.3-1.88,3.51-0.48,1-1.82.07-2.93,0.54-1.84.78-2.63,0.57-3.87-.39-0.39-.31-1.31-1.73-2-1.6s-0.31,1.1-1.29,1.09a0.62,0.62,0,0,0-.48.65A0.77,0.77,0,0,1,243,63a1.13,1.13,0,0,0-.52.59c-1.68,1.33-3.06-.58-3.54-1.78-0.35-.86,1.64.24,1.73-0.58,0.25-2.19.15-4.79-2.79-5.74-0.28-1.13-1-2.37.46-3.2a1.13,1.13,0,0,1,.81,0c0.73,0.24.7,1,1.32,1.38a0.49,0.49,0,0,0,.74-0.32c-0.36-2.26,1.92-3.43,3.91-4.32,0.3-1.33.66-2.59,2.18-3.15a14.72,14.72,0,0,1,2.5-.13c0.34-.05.65-0.4,0.39-0.64-0.88-.77-1.49-1.48-1.23-2.56a1.3,1.3,0,0,0,1.23-.75c0.14-.14,0-0.48.1-0.66a6.88,6.88,0,0,1,3-2.42c1.09-.36,2.38.29,3.43,0.84a3.55,3.55,0,0,0,2.44,0c0.7-.22,1-1.21,1.75-1.25,1.5-.09,2.95-0.18,3.68-1.25,0.28-.41.57-1.49-0.31-1.6-2.14-.25-4.3,1.64-6.28.49a1.06,1.06,0,0,0-.5-0.56c-0.95.06-1.66-.53-2.56-0.42,0.06-.53-0.21-0.79-0.85-0.72,0.27-.89-0.87-1.71-0.33-2.46,0.68-1,2.06-.69,3.29-0.84a2.14,2.14,0,0,0,.86-0.65c-1.35-.67-2.87,0-3.7-1.14-0.39-.54.15-1.49-0.27-2a11.71,11.71,0,0,1-2.43-4.75c-0.14-.59-1.36-0.26-1.13-0.66a13,13,0,0,1,1.1-1.52c0.24-.3-0.06-0.57-0.4-0.67s-0.58,0-.83-0.05a0.52,0.52,0,0,1-.43-0.69c0.83-2.15,3.69-1.7,6-1.44,1.85-1.44,2.73-3.73,5.15-4.58a2.41,2.41,0,0,1,2.57.59,3.36,3.36,0,0,0,.71.06c0.31,0.94,1.36,1,2.2,1.15a4,4,0,0,1,2.51,1.73c0.83,1.11.27,2.35,0.58,3.54a3,3,0,0,0,2.08,2,2.48,2.48,0,0,0,2.38-1c0.66-1.07-.53-2.08-0.56-3.18,0-.35.89-0.57,1.52-0.74a0.53,0.53,0,0,0,.44-0.69,3.06,3.06,0,0,0,.84,0c0.33-.1.66-0.43,0.38-0.65a0.82,0.82,0,0,1-.3-1.1,3.48,3.48,0,0,1,2-1.15,6.57,6.57,0,0,1,.87-0.6c0.55,0,.72-0.49,1.27-0.51a1,1,0,0,0,.78-0.65c0.24-1.2-.13-2.38.18-3.56,0.23-.89,2-0.71,2-1.82,1.6-.2,3.22.57,4.62,0.2,1.57-.42,3-1.46,4.75-1.63-0.22.81,1,.55,1.25,1.09a2.48,2.48,0,0,0,.08.68c0.84,0.9,2.19.57,3.31,0.87a4.44,4.44,0,0,1,2,1.06c0.39,0.48.27,1.59,1,1.53s1.75-.09,2.11-0.93a3.49,3.49,0,0,1,.08-0.68c0.4-.52.75-1,1.11-1.52,1.23-1.71.06-3.59,1.37-5.34,0.38-.51,1.52-0.24,1.3-1.07,1.83-.48,3.91-0.82,5.38.16a15,15,0,0,1,5.26,5.23c1.33-.07,2.4-1,3.46-1.26,2.62-.54,5.34-0.18,8-0.18a41.48,41.48,0,0,0,5.84,4.46,3.09,3.09,0,0,1,1.34,1.66,0.88,0.88,0,0,1-.37.35,8.77,8.77,0,0,1,2.14,1.43c1.32,1.22.7,2.73,1.46,4.06,1.21,2.09-.58,4.27-2.76,5.66,0.7,0.54,1.67.28,2.13,1.08,1-.77,2.45-1.11,3.24-0.56a5,5,0,0,1,1.8,1.65c0.43,0.94-.66,2.08-0.15,2.74,0.86,1.11,2.9,1.3,4.43,1.67a6.12,6.12,0,0,1,3.72,2.82c0.39,0.66,0,1.68,1,2.06a1,1,0,0,0,.77,0c1.33-1.57,3.13-2.34,4.62-.94,1.17,1.11.22,2.84,1,4.21a1.92,1.92,0,0,0-.25,2.45c0.58,1.08.34,2.27,0.84,3.24a10.19,10.19,0,0,1,.49,1.19c0.93,2.82-2.61,4.7-5.75,5.06a5.07,5.07,0,0,0-.88.62c-0.23.1-.59,0-0.8,0.07a17.29,17.29,0,0,1-4.7,1.79c-0.34.08-.61,0.36-0.41,0.67,0.56,0.88,1.32,2.22-.05,2.4s-2.8.42-2.35,1.52a2.74,2.74,0,0,0,1.55,1.66,11.09,11.09,0,0,1,5.85,2.41c0.34,0.28-.25,1.11.53,1.31,1.43,0.38,3.16.29,3.69,1.53,0.34,0.81,1.12,1.69.82,2.43a2.38,2.38,0,0,1-.34,1c-1.14.64-1.28,1.87-2.5,2.2-1,.25-1.53.95-2.5,1.22s-1.2,1.52-2.19,2c-0.21.11-.65,0-0.76,0.08-0.73.77-1.38,1.92-2.55,1.31-1.91-1-3.4-2-5.6-1.35-1.63-.92-3-2.25-2.55-4-1.42-1.1-3.38-2.14-3-4-1-.66-1.62-1.39-2.62-2.09a1.38,1.38,0,0,0-1.17,0c-0.86.45-1.49,1.56-2.15,1.53-2-.1-2.43-2.23-3.49-3.71a1.65,1.65,0,0,0-.78,0,0.53,0.53,0,0,0-.44-0.69c-1.54-.45-2.18.42-2.93,1.43-0.23.31,0.07,0.58,0.4,0.67,0.82,0.23,2-.42,2.43.42a19.77,19.77,0,0,1,.71,2.44c0.31,1,2.14,1.22,2.73,2.23a1.25,1.25,0,0,1,0,1.34c-1.19,1.28-2.42,2.53-4.19,2.75-0.93.12-1.63-1.17-2.58-1.49s-2.35.68-3.25,1.4c-0.29.23,0.06,1.12-.17,1.22-1.57.68-4.12,1.85-5.45,0.49a3.44,3.44,0,0,1-5.62-.31,3,3,0,0,0-2.09.32c-0.09.22-1.33,0.48-1.42,0.69-2.43,5-.9,5.13-1.32,9.7a1.09,1.09,0,0,0-.22.58c0.61,2.86-.08,5.63.69,8.32,0.22,0.76.45,2.78,1,3.48,0.08,0.09.36-.05,0.5,0a9.52,9.52,0,0,1,1.21.71,9.33,9.33,0,0,0,.77,1,5.67,5.67,0,0,0,2.56.73c0.19,0,.37.39,0.59,0.43a20.29,20.29,0,0,0,3.36.56c2.54,0,4.42.87,6.95,0.52,0.85,0.77.53-.24,2.83,0.67H275.4c2.22-.86,2.24-0.24,3.31-0.43,2.78-.5,3.7-1.05,6.51-1.23,0.21,0,.41-0.43.59-0.41,2.45,0.25,4.45-1.26,6.27-2.83,0.1-.09,0-0.42.1-0.5,1-.75.29-3.23,1-4.12,0.12-3.67-.37-7.21-0.48-11.2,0-.38.43-0.54-0.13-1-0.14-.12-0.54-2.29-0.68-2.45a6.92,6.92,0,0,1-1.35-1.68c-1-1.66-5.28-.19-7.05-0.86-1.08.64-2.15,1.62-3.3,0.95-1.34-.78-3-0.91-3.94-2-1.53.34-4.32,0.26-3.83,2.15-1-.18-0.65,1-1.29,1a14.86,14.86,0,0,1-2.24.42c-1-.07-1.08-0.82-1.27-1.6a3,3,0,0,1-.17-1.49,2.5,2.5,0,0,1,.91-1c0.18-.18.31,0,0.27-0.46a0.51,0.51,0,0,0-.46-0.54c-0.66-.16-1.47.13-2.16,0a2.24,2.24,0,0,1-1.66-1.92c-0.56-.05-1.66-0.43-1.64-1.21a4.83,4.83,0,0,0-1.6-.3c-0.67.12,0.35-.49-0.35-0.46a1.58,1.58,0,0,1-1.47-.42c-0.35-.33-1-0.23-1.11-0.8m14.62-36.18a1.21,1.21,0,0,0-.79-0.64c-0.77.09-.46,0.86-0.39,1.34a0.56,0.56,0,0,0,.79.35A0.67,0.67,0,0,0,272.75,28.52Zm7.28,4c0.42-.07.86,0,1.26-0.06s0.65-.41.39-0.65c-0.78-.71-2.41-1.4-3.26-0.34C277.76,32.27,279.14,32.64,280,32.49Zm-5.12-.77a0.49,0.49,0,0,0,.42-0.69,0.61,0.61,0,0,0-.81-0.34,1.28,1.28,0,0,0-.77.69C273.74,31.83,274.43,31.87,274.91,31.72Zm20-7.89a1.11,1.11,0,0,0-2,0,1.59,1.59,0,0,0,.28,2.11c0.43-.6,1.16-0.2,1.68-0.4C295.66,25.3,295.45,24.61,294.93,23.83Zm2.58,0.35a6,6,0,0,0-.07-0.7,2,2,0,0,0-.83-0.71c-0.37-.18-0.81.12-0.74,0.31,0.37,1,.32,2,1.63,2.49a0.6,0.6,0,0,0,.37-0.32A1.45,1.45,0,0,0,297.5,24.19Zm15.72,1.09c0.82-.61,1.66-1.23,1.22-2.14a2.8,2.8,0,0,0-2.52-1.31,2.69,2.69,0,0,0-2.07,1.31,0.57,0.57,0,0,0,0,.65c0.87,0.55.44,1.43,1.28,1.77A2.21,2.21,0,0,0,313.23,25.28Zm7.21-2.53c0.39-.5,1.38-0.23,1.37-1.06a0.73,0.73,0,0,1,.77-0.41A0.47,0.47,0,0,0,323,20.6a1,1,0,0,0-1.25-.33,0.51,0.51,0,0,0-.44.68,1.59,1.59,0,0,0-.78,0c-0.51.63-1.23,0.89-1.69,1.45a0.6,0.6,0,0,0,.35,1A1.14,1.14,0,0,0,320.43,22.74Zm2.16,0.39c-1.21.15-1.66,1.33-3,1.46-0.32,0-.64.36-0.39,0.64a6.81,6.81,0,0,0,6.28,2A2.43,2.43,0,0,0,327,25.64C326.92,24.15,324.5,22.9,322.59,23.14Zm-8.51,4.67c-1.33.34-1.71,1.31-2.51,2.17-0.25.27,0.22,0.67,0.31,0.61,1.63-1.09,3.3-.95,5.18-1.05,0.31,0,.65-0.39.38-0.62-0.57-.49-0.15-1-0.44-1.45C316.22,26.42,315,27.57,314.08,27.8Zm0,5a2.69,2.69,0,0,0-.39,3.63c2.18,0.18,5.6-1,4.59-3.2a1.81,1.81,0,0,0-1.2-1.39A3.93,3.93,0,0,0,314,32.79ZM321.3,41c-1.08.07-.93,1.32-2.13,1.23-0.28,0-.64.39-0.37,0.6,1.67,1.29,3.6-.35,5.48,0,1-1.11.08-2.53-.43-3.6C323,39.91,322.45,40.93,321.3,41Zm-14,10.54a22.26,22.26,0,0,0-3.87,4.28,43.75,43.75,0,0,0,4.68,1.08c0.68-1,2.06-1.51,2.43-2.55,0.29-.82-0.55-1.56.59-2.06,0.45-.2,1.21.09,1.59-0.15,1-.61,2.3-0.91,2.62-2.08-1.83-1.21-3.59.77-5.53,0.36C309.26,51.31,308.08,50.91,307.3,51.55ZM303.86,45a2.12,2.12,0,0,0-.82,0c-1.43.89-1.21,2.9-.46,4.27a4.13,4.13,0,0,0,3.69-1.5C307,46.63,305.77,44.92,303.86,45ZM293.1,46.86a2.25,2.25,0,0,0-1.62-1.71,0.93,0.93,0,0,0-.7.6,9.33,9.33,0,0,0,2,4C293.72,48.84,293.24,47.78,293.1,46.86Zm-5.44,1.47a1.75,1.75,0,0,0-2.32,1.05c-0.05.43,0.84,1,1.52,1.38a1,1,0,0,0,.8,0,1.36,1.36,0,0,0,.8-0.7A1.14,1.14,0,0,0,287.66,48.32Zm-1.25-2.2c-0.45-.21-0.63-1-1.23-0.66-0.39.21-1.14,0.44-.85,1a1.17,1.17,0,0,0,.78.64A3.32,3.32,0,0,0,286.41,46.12Zm-2.55,6.16a0.88,0.88,0,0,0,.81-0.42,0.94,0.94,0,0,0,0-.7,0.56,0.56,0,0,0-.79-0.34c-0.61.35-1.39,0.45-1.71,1.05a0.49,0.49,0,0,0,.42.69A2.82,2.82,0,0,0,283.86,52.28Zm-1.72-2.23c0.33-.11.65-0.42,0.39-0.66a28.82,28.82,0,0,0-3-1.8c-0.31-.22-0.8.14-0.72,0.29,0.38,0.72.26,1.51,0.76,2.19,0.2,0.27.53,0.55,0.79,0.32C281,49.89,281.6,50.24,282.14,50.06Zm-4.23-2.49a0.51,0.51,0,0,0-.44-0.66,6.19,6.19,0,0,0-3,.66c0.77,0.93,1.12,2.38,2.2,2.67C278.32,50.66,277.75,48.59,277.92,47.56Zm-3.41,4.73a0.92,0.92,0,0,0,.8-0.43,1.17,1.17,0,0,0,0-1A9.69,9.69,0,0,1,274,49a1.21,1.21,0,0,0-.81-0.66,2,2,0,0,0-2,1,4.35,4.35,0,0,0,.32,3.56,0.57,0.57,0,0,0,.78.32A4.57,4.57,0,0,1,274.51,52.29Z"/></svg>