<svg id="Layer_1" data-name="Layer 1" xmlns="http://www.w3.org/2000/svg" viewBox="0 0 359.63 194.54"><defs><style>.cls-1{fill:#a90533;}.cls-2{fill:#005a9c;}.cls-3{fill:#fff;}</style></defs><title>methodist</title><rect class="cls-1" x="0.05" y="56.11" width="67.39" height="63.77"/><path class="cls-2" d="M46.95,1.29a21.62,21.62,0,0,0,3,.36,22.64,22.64,0,0,0,3.09-.36c2.23,19.33,3.88,35,6.33,49.31-2-.14-4-0.36-6-0.36s-3.81.22-5.82,0.36c-0.58-11.43-2-22.43-3.09-33.49-5.46,11-10.85,22-16,33.13a7,7,0,0,0-2.73,0c-4.6-9.92-10.28-21.06-15.74-32.34-1.65,12.65-2.8,22.64-3,32.7a27,27,0,0,0-3.38-.36,25.84,25.84,0,0,0-3.31.36C3,36.15,5.26,19.48,7.7,1.29a20.63,20.63,0,0,0,2.95.36,21.62,21.62,0,0,0,3-.36c5.18,11.28,10.85,22.5,16.53,33.78C35.37,24.87,41.48,13.58,46.95,1.29Z" transform="translate(-0.37)"/><path class="cls-2" d="M87.22,1.29a22.58,22.58,0,0,0-.36,3.09,22.59,22.59,0,0,0,.36,3.09,101.38,101.38,0,0,0-16.6-1V21.92h7.48a65.35,65.35,0,0,0,8.84-.65,22.64,22.64,0,0,0-.36,3.09,22.63,22.63,0,0,0,.36,3.09,65.35,65.35,0,0,0-8.84-.65H70.62V45.07a133.27,133.27,0,0,0,16.6-1,22.58,22.58,0,0,0-.36,3.09,22.57,22.57,0,0,0,.36,3.09H59.84V1.29H87.22Z" transform="translate(-0.37)"/><path class="cls-2" d="M112.66,50.6c-1.8-.14-3.59-0.36-5.39-0.36s-3.59.22-5.39,0.36V6.4a98.74,98.74,0,0,0-13.37,1,21.39,21.39,0,0,0,.36-3.09,21.61,21.61,0,0,0-.36-3h37a21.56,21.56,0,0,0-.36,3,21.34,21.34,0,0,0,.36,3.09,108.35,108.35,0,0,0-12.87-1V50.6Z" transform="translate(-0.37)"/><path class="cls-2" d="M126.74,1.29c1.8,0.14,3.59.36,5.39,0.36s3.59-.22,5.39-0.36V20.77c3.67,0.14,7.33.36,11,.36s7.33-.22,11-0.36V1.29c1.8,0.14,3.59.36,5.39,0.36s3.59-.22,5.39-0.36V50.6c-1.8-.14-3.59-0.36-5.39-0.36s-3.59.22-5.39,0.36V26.52c-3.67-.14-7.33-0.36-11-0.36s-7.33.22-11,.36V50.6c-1.8-.14-3.59-0.36-5.39-0.36s-3.59.22-5.39,0.36V1.29Z" transform="translate(-0.37)"/><path class="cls-2" d="M199.11,51.53c-15.88,0-26.59-9.34-26.59-25.66C172.52,11.57,182.94,0,200.84,0c20.48,0,26.52,14.45,26.59,25.59C227.5,39.6,216.72,51.53,199.11,51.53ZM184.45,28c0,9.34,4.24,19.26,15,19.26,11.07,0,16-11.07,16-23,0-9.27-4.31-19.91-15.09-19.91C190.42,4.31,184.45,11.86,184.45,28Z" transform="translate(-0.37)"/><path class="cls-2" d="M254.09,1.29c15.38,0.57,21.71,11.28,21.71,23.07,0,16.24-11.43,25.88-26.16,25.88H229.5V1.29h24.58Zm-13.8,44.78h6.11c9.92,0,17.47-5,17.47-21.78,0-13.51-6.4-18.83-16.53-18.83h-7V46.07Z" transform="translate(-0.37)"/><path class="cls-2" d="M277.88,1.29c1.8,0.14,3.59.36,5.39,0.36s3.59-.22,5.39-0.36V50.6c-1.8-.14-3.59-0.36-5.39-0.36s-3.59.22-5.39,0.36V1.29Z" transform="translate(-0.37)"/><path class="cls-2" d="M315.11,10.57c-1.44-3.81-4.17-6.25-8.27-6.25-5.68,0-7.91,2.95-7.91,7,0,9.7,21.85,7.91,21.85,24.37,0,9.2-7.91,15.81-19,15.81a21.84,21.84,0,0,1-11.57-3.09,67.13,67.13,0,0,0,2.08-9.13h1.37a9.7,9.7,0,0,0,9.92,7.91c4.46,0,8.41-2.52,8.41-7.48,0-11.5-21.42-7.33-21.42-24.65,0-8.27,5.68-15.09,16.6-15.09,5.17,0,9.77,1.94,11.36,3.45-0.86,2.3-1.58,4.67-2.3,7.12h-1.08Z" transform="translate(-0.37)"/><path class="cls-2" d="M343.1,50.6c-1.8-.14-3.59-0.36-5.39-0.36s-3.59.22-5.39,0.36V6.4A98.73,98.73,0,0,0,319,7.4a21.45,21.45,0,0,0,.36-3.09,21.67,21.67,0,0,0-.36-3h37a21.56,21.56,0,0,0-.36,3A21.34,21.34,0,0,0,356,7.4a108.35,108.35,0,0,0-12.87-1V50.6Z" transform="translate(-0.37)"/><path class="cls-2" d="M104,56.64c1.07,10.17,2.22,20.3,3.34,28.16-0.74,0-1.32-.12-1.94-0.12s-1.32.08-1.94,0.12c-0.7-8.28-1.52-17.17-2.1-21.25-4.78,8.52-8.32,15.11-10.79,20.79H90.14L87.87,79.7c-2.64-5.44-5.52-10.79-8.32-16.14-0.91,8-2,16.18-2,21.25-0.54,0-1-.12-1.44-0.12s-1,.08-1.48.12c1.07-6.63,3.54-23.84,4-28.16h1.07c3.29,6.55,7.25,14.29,11.65,21.58,3.91-7,7.7-14.21,11.86-21.58H104Z" transform="translate(-0.37)"/><path class="cls-2" d="M113,68.91h6.38c1.24,0,2.43-.16,3.66-0.21a8.55,8.55,0,0,0-.12,1.07c0,0.33.08,0.7,0.12,1.15-1.24,0-2.43-.21-3.66-0.21H113v12c2.51,0.08,5-.08,7.45-0.16a29.4,29.4,0,0,0,3.79-.37c0,0.45-.12.82-0.12,1.24s0.08,0.82.12,1.24H109.37v-28H124c0,0.45-.12.82-0.12,1.24s0.08,0.82.12,1.24a28.43,28.43,0,0,0-3.71-.45l-4.12-.08H113V68.91Z" transform="translate(-0.37)"/><path class="cls-2" d="M126.71,56.64h9.35c4.28,0,8.44-.41,11.9,2.47a13,13,0,0,1,4.41,10.29c0,5.72-2.1,9.43-5.19,12.15-3.5,3-8.07,3.13-12.44,3.13h-8v-28Zm3.62,26.19c3.62,0.21,8.73.7,12.06-1,4.45-2.22,5.93-6.79,5.93-11.82,0-8.73-3.58-11.9-12.81-11.9-1.69,0-3.42.12-5.19,0.16V82.83Z" transform="translate(-0.37)"/><path class="cls-2" d="M154.83,56.64c0.58,0,1.19.12,1.81,0.12s1.15-.08,1.81-0.12V84.81c-0.66,0-1.24-.12-1.81-0.12s-1.24.08-1.81,0.12V56.64Z" transform="translate(-0.37)"/><path class="cls-2" d="M183.81,83a16.62,16.62,0,0,1-9.1,2.35c-9.06,0-14.49-5.72-14.49-14.74,0-9.26,6.84-14.54,15.52-14.54a22.63,22.63,0,0,1,8.85,1.89,17.2,17.2,0,0,0-.86,3.17l-0.29,0a11,11,0,0,0-7.86-3.54c-7.58,0-11.32,6.14-11.32,13.14,0,7.91,4.53,13,11,13A14.42,14.42,0,0,0,184,80.36Z" transform="translate(-0.37)"/><path class="cls-2" d="M209.22,84.81c-0.78,0-1.44-.12-2.14-0.12s-1.48.08-2.18,0.12c-1.19-3.42-2.68-7.37-4.32-11.12H190.11c-1.44,3.62-2.92,7.25-4.08,11.12-0.58,0-1-.12-1.52-0.12s-1,.08-1.44.12L195.92,56h0.95ZM195.38,61.42L190.89,72H200Z" transform="translate(-0.37)"/><path class="cls-2" d="M213.46,82.75c2.51,0.08,5-.08,7.45-0.16,1.32,0,2.59-.21,3.91-0.37,0,0.45-.12.82-0.12,1.24s0.08,0.82.12,1.24h-15v-28c0.58,0,1.19.12,1.81,0.12s1.15-.08,1.81-0.12V82.75Z" transform="translate(-0.37)"/><path class="cls-2" d="M255.22,83a16.62,16.62,0,0,1-9.1,2.35c-9.06,0-14.49-5.72-14.49-14.74,0-9.26,6.84-14.54,15.52-14.54A22.64,22.64,0,0,1,256,57.92a17.26,17.26,0,0,0-.87,3.17l-0.29,0A11,11,0,0,0,247,57.59c-7.58,0-11.32,6.14-11.32,13.14,0,7.91,4.53,13,11,13a14.42,14.42,0,0,0,8.73-3.34Z" transform="translate(-0.37)"/><path class="cls-2" d="M261.11,68.91h6.38c1.24,0,2.43-.16,3.66-0.21a8.54,8.54,0,0,0-.12,1.07c0,0.33.08,0.7,0.12,1.15-1.24,0-2.43-.21-3.66-0.21h-6.38v12c2.51,0.08,5-.08,7.45-0.16a29.4,29.4,0,0,0,3.79-.37c0,0.45-.12.82-0.12,1.24a12.38,12.38,0,0,0,.12,1.24H257.49v-28H272.1c0,0.45-.12.82-0.12,1.24a12.41,12.41,0,0,0,.12,1.24,28.42,28.42,0,0,0-3.71-.45l-4.12-.08h-3.17V68.91Z" transform="translate(-0.37)"/><path class="cls-2" d="M298.71,84.81h-1.24c-0.45-.58-1.28-1.56-2.14-2.51L277.54,62.61h-0.41V84.81c-0.41,0-.78-0.12-1.15-0.12a10,10,0,0,0-1.15.12V56.64h1.61L296,77.85h0.41V56.64a9.88,9.88,0,0,0,1.15.12c0.37,0,.74-0.08,1.15-0.12V84.81Z" transform="translate(-0.37)"/><path class="cls-2" d="M312.5,84.89c-0.66,0-1.23-.12-1.81-0.12s-1.24.08-1.81,0.12V58.62a76.9,76.9,0,0,0-9,.49c0-.41.12-0.82,0.12-1.24s-0.08-.78-0.12-1.24H321.1c0,0.45-.12.82-0.12,1.24s0.08,0.82.12,1.24a71.78,71.78,0,0,0-8.61-.49V84.89Z" transform="translate(-0.37)"/><path class="cls-2" d="M325.51,68.91h6.38c1.24,0,2.43-.16,3.66-0.21a8.56,8.56,0,0,0-.12,1.07c0,0.33.08,0.7,0.12,1.15-1.24,0-2.43-.21-3.66-0.21h-6.38v12c2.51,0.08,5-.08,7.45-0.16a29.39,29.39,0,0,0,3.79-.37c0,0.45-.12.82-0.12,1.24s0.08,0.82.12,1.24H321.88v-28H336.5c0,0.45-.12.82-0.12,1.24a12.39,12.39,0,0,0,.12,1.24,28.45,28.45,0,0,0-3.71-.45l-4.12-.08h-3.17V68.91Z" transform="translate(-0.37)"/><path class="cls-2" d="M338.81,56.64h8.73c6.34,0,9.14,2.1,9.14,6.26,0,4.78-4.28,7.08-8.44,7.82l8.48,10.75,2,2.31,0.78,1c-0.86,0-1.61-.12-2.39-0.12s-1.61.08-2.35,0.12c-0.91-1.28-1.73-2.43-2.59-3.58l-4.86-6.3L344,71.05h-1.56V84.81c-0.66,0-1.24-.12-1.81-0.12s-1.24.08-1.81,0.12V56.64Zm3.62,12.85a22.85,22.85,0,0,0,5.31-.21c3-.62,5.27-2.68,5.27-5.89,0-2.84-1.44-4.69-4.53-5.19a36.92,36.92,0,0,0-6.05,0V69.49Z" transform="translate(-0.37)"/><path class="cls-2" d="M74.53,105.92c0-9,6.71-14.7,15.24-14.7,7.74,0,15.61,4.2,15.61,14.08,0,9.18-6.51,15.19-15.69,15.19S74.53,114.73,74.53,105.92Zm24.21-9.35a10.9,10.9,0,0,0-8.56-4c-7.25,0-11.61,5.48-11.61,13.84s5.11,12.72,11.24,12.72c8.69,0,11.82-9,11.53-13.51C101.34,102.21,100.89,99.33,98.74,96.57Z" transform="translate(-0.37)"/><path class="cls-2" d="M107.06,91.83h14.62c0,0.45-.12.82-0.12,1.24s0.08,0.82.12,1.24a28.49,28.49,0,0,0-3.71-.45l-4.12-.08h-3.17V104.1h6.38c1.24,0,2.43-.16,3.66-0.21a8.55,8.55,0,0,0-.12,1.07c0,0.33.08,0.7,0.12,1.15-1.24,0-2.43-.21-3.66-0.21h-6.38V120c-0.66,0-1.24-.12-1.81-0.12s-1.24.08-1.81,0.12V91.83Z" transform="translate(-0.37)"/><path class="cls-2" d="M129.74,105.92c0-9,6.71-14.7,15.24-14.7,7.74,0,15.61,4.2,15.61,14.08,0,9.18-6.51,15.19-15.69,15.19S129.74,114.73,129.74,105.92ZM154,96.57a10.9,10.9,0,0,0-8.56-4c-7.25,0-11.61,5.48-11.61,13.84s5.11,12.72,11.24,12.72c8.69,0,11.82-9,11.53-13.51C156.55,102.21,156.09,99.33,154,96.57Z" transform="translate(-0.37)"/><path class="cls-2" d="M185.41,120c-0.78,0-1.44-.12-2.14-0.12s-1.48.08-2.18,0.12c-1.19-3.42-2.68-7.37-4.32-11.12H166.3c-1.44,3.62-2.92,7.25-4.08,11.12-0.58,0-1-.12-1.52-0.12s-1,.08-1.44.12l12.85-28.78h0.95ZM171.57,96.61l-4.49,10.54h9.06Z" transform="translate(-0.37)"/><path class="cls-2" d="M197,100.81l-3.5,3.54c3.29,3.79,6.71,7.49,10,11.32l3.34,4.12V120c-0.82,0-1.56-.12-2.26-0.12S203,120,202.25,120a42.88,42.88,0,0,0-2.84-3.75l-9-10.5c-0.21-.16-0.7-0.29-0.7-0.12V120c-0.66,0-1.24-.12-1.81-0.12s-1.24.08-1.81,0.12V91.83c0.58,0,1.19.12,1.81,0.12s1.15-.08,1.81-0.12v12.72c0,0.25.62,0.08,1-.25a26.37,26.37,0,0,0,2.18-2l10.13-10.46c0.54,0,1.07.12,1.65,0.12s1-.08,1.61-0.12Z" transform="translate(-0.37)"/><path class="cls-2" d="M216,91.83h8.73c6.34,0,9.14,2.1,9.14,6.26,0,4.78-4.28,7.08-8.44,7.82l8.48,10.75,2,2.31,0.78,1c-0.86,0-1.61-.12-2.39-0.12s-1.61.08-2.35,0.12c-0.91-1.28-1.73-2.43-2.59-3.58l-4.86-6.3-3.29-3.87h-1.57V120c-0.66,0-1.24-.12-1.81-0.12S216.58,120,216,120V91.83Zm3.62,12.85a22.85,22.85,0,0,0,5.31-.21c3-.62,5.27-2.68,5.27-5.89,0-2.84-1.44-4.69-4.53-5.19a36.92,36.92,0,0,0-6.05,0v11.32Z" transform="translate(-0.37)"/><path class="cls-2" d="M237.66,91.83c0.58,0,1.19.12,1.81,0.12s1.15-.08,1.81-0.12V120c-0.66,0-1.24-.12-1.81-0.12s-1.24.08-1.81,0.12V91.83Z" transform="translate(-0.37)"/><path class="cls-2" d="M245.6,91.83h9.35c4.28,0,8.44-.41,11.9,2.47a13,13,0,0,1,4.41,10.29c0,5.72-2.1,9.43-5.19,12.15-3.5,3-8.07,3.13-12.43,3.13h-8v-28ZM249.22,118c3.62,0.21,8.73.7,12.06-1,4.45-2.22,5.93-6.79,5.93-11.82,0-8.73-3.58-11.9-12.81-11.9-1.69,0-3.42.12-5.19,0.16V118Z" transform="translate(-0.37)"/><path class="cls-2" d="M297.6,96.78a12.27,12.27,0,0,0-9.27-4c-7,0-11.86,4.61-11.86,12.93,0,8.15,4.2,13.22,12.31,13.22a14.1,14.1,0,0,0,6.42-1.4V106.95c0.58,0,1.19.12,1.81,0.12s1.15-.08,1.81-0.12V118.6a34.4,34.4,0,0,1-11.2,1.89c-10.42,0-15.19-6.22-15.19-14.58,0-9.64,6.92-14.7,16.06-14.7,6.13,0,9.59,1.81,10.5,2.39-0.37,1-.66,2.1-0.95,3.17H297.6Z" transform="translate(-0.37)"/><path class="cls-2" d="M305.42,104.1h6.38c1.24,0,2.43-.16,3.66-0.21a8.41,8.41,0,0,0-.12,1.07c0,0.33.08,0.7,0.12,1.15-1.24,0-2.43-.21-3.66-0.21h-6.38v12c2.51,0.08,5-.08,7.45-0.16a29.38,29.38,0,0,0,3.79-.37c0,0.45-.12.82-0.12,1.24s0.08,0.82.12,1.24H301.8v-28h14.62c0,0.45-.12.82-0.12,1.24s0.08,0.82.12,1.24a28.47,28.47,0,0,0-3.71-.45l-4.12-.08h-3.17V104.1Z" transform="translate(-0.37)"/><path class="cls-3" d="M22.83,70a1.16,1.16,0,0,1,.24.22l-1.81,1.35L34.6,77.51,32.52,63.07,30,65C24.16,58.1,4,59.8,4,78.07c0,16.47,18.86,29.45,30.71,36.69,11.86-7.24,30.71-20.22,30.71-36.69,0-18.3-20.15-20-26-13.1L37,63.07,34.92,77.51l13.34-5.89-1.79-1.39c1.48-1.53,10.27-1.88,10.27,8.34,0,9.23-14,20.48-22,25.33-7.95-4.85-22-16.1-22-25.33,0-9.83,8.12-9.89,10.06-8.53" transform="translate(-0.37)"/><path class="cls-2" d="M172,172.22c-5.15,4.17-12,5.58-18.51,5.58-12,0-23.17-6.74-23.17-20.84,0-12.63,11.16-20.84,23.17-20.84,5.64,0,12.57,1.47,17.59,4.66l-1.9,5.76a7.21,7.21,0,0,1-.86,2.08,3.58,3.58,0,0,1-.67-1.59c-1.29-5.33-5.09-9.61-14.16-9.79-11.16,0-16.19,10.59-16.19,19.72s5.53,19.72,18.64,19.72c6,0,10.54-3.66,13.24-9.85,0.31-.73.37-1.29,0.67-1.29s0.31,0.18.55,1.1Z" transform="translate(-0.37)"/><path class="cls-2" d="M217,170.34l6.49-12.62c0.91-2,1.72-3.85,1.72-5.32,0-1.72-1.12-2.33-2.33-2.74a0.47,0.47,0,0,1-.46-0.3c0-.15.2-0.2,0.51-0.2,1.32,0,1.77.2,3.85,0.2s2.43-.2,3.75-0.2c0.36,0,.66,0,0.66.15a0.81,0.81,0,0,1-.46.61c-1.67,1.17-3.45,3.85-5.17,6.94l-9.88,18.9a1.46,1.46,0,0,1-.61.71H215a1.53,1.53,0,0,1-.51-0.76l-8.87-17.28c-1.93-3.85-3.55-7.14-5.68-8.56a1,1,0,0,1-.61-0.51c0-.2.3-0.2,0.66-0.2,0.81,0,2.08.2,4.51,0.2s4.16-.2,4.56-0.2a0.73,0.73,0,0,1,.66.2,0.62,0.62,0,0,1-.46.41,1.82,1.82,0,0,0-1.42,1.93,10.17,10.17,0,0,0,1.27,3.45Z" transform="translate(-0.37)"/><path class="cls-2" d="M233.26,159c-0.1,1.17-.15,2.23-0.15,3.29,0,9.43,4.86,12.92,9.78,12.92,5.83,0,10.13-4,11.86-9.93h1.06c-1.62,7-6.69,11.2-13.58,11.2-8.61,0-15-5.83-15-13.93s6.38-13.93,15-13.93c5.52,0,12.21,3.34,12.92,10.39H233.26Zm15.51-1c0-5-2.38-8.46-7.65-8.46-4.61,0-7.09,4.1-7.65,8.46h15.3Z" transform="translate(-0.37)"/><path class="cls-2" d="M262.28,156.45h0.1c1.17-4.31,3.65-7.85,10.34-7.85,5.57,0,10.79,2.89,10.79,10.94v9.78c-0.1,4.81.56,5.52,2,6a1,1,0,0,1,.66.35c0,0.15-.25.15-0.76,0.15s-1.77-.15-4.56-0.15-4.56.15-5.22,0.15c-0.3,0-.56,0-0.56-0.15s0.1-.25.46-0.3c1.82-.2,2.74-1.57,2.74-6.08V159.5c0-4.66-2.08-9.63-7.45-9.63-6,0-8,6.18-8,13.28v6.18c0,3.19.15,5.57,2.43,6,0.35,0.05.56,0.15,0.56,0.3s-0.15.25-.46,0.25-2.43-.15-5.17-0.15-5.07.15-5.42,0.15-0.46-.05-0.46-0.25,0.2-.25.56-0.3c2.53-.41,2.74-2.79,2.74-6V156.76c0-3-.35-4.76-1.77-5.37a2.24,2.24,0,0,1-.91-0.51,1.37,1.37,0,0,1,1-.25,44.19,44.19,0,0,0,6.38-1.47v7.3Z" transform="translate(-0.37)"/><path class="cls-2" d="M310.82,171.3c0,1.67.25,3.19,1.82,3.9a0.7,0.7,0,0,1,.51.3,0.63,0.63,0,0,1-.66.2H307a15.1,15.1,0,0,1-1.22-5.17h-0.1c-2,4.1-4.92,5.93-9.37,5.93-5.27,0-10.69-2.43-10.69-8.46,0-7.7,11.76-8.46,17.08-8.46h2.89v-1.67c0-4.86-2.28-8.31-7.4-8.31-4.66,0-7.4,1.37-9.22,5.83a2.61,2.61,0,0,1-.41.86,0.91,0.91,0,0,1-.25-0.56L287,151.13c4.15-2.18,7.45-2.53,12-2.53,5.78,0,11.86,2.08,11.86,8.46V171.3Zm-5.22-10.79h-3c-5.47,0-11.1,1.62-11.1,8.31a6.15,6.15,0,0,0,6.28,6.38c6,0,7.8-6.28,7.8-11.15v-3.55Z" transform="translate(-0.37)"/><path class="cls-2" d="M320.49,156.45h0.1c1.17-4.31,3.65-7.85,10.34-7.85,5.57,0,10.79,2.89,10.79,10.94v9.78c-0.1,4.81.56,5.52,2,6a1,1,0,0,1,.66.35c0,0.15-.25.15-0.76,0.15s-1.77-.15-4.56-0.15-4.56.15-5.22,0.15c-0.3,0-.56,0-0.56-0.15s0.1-.25.46-0.3c1.82-.2,2.74-1.57,2.74-6.08V159.5c0-4.66-2.08-9.63-7.45-9.63-6,0-8,6.18-8,13.28v6.18c0,3.19.15,5.57,2.43,6,0.35,0.05.56,0.15,0.56,0.3s-0.15.25-.46,0.25-2.43-.15-5.17-0.15-5.07.15-5.42,0.15-0.46-.05-0.46-0.25,0.2-.25.56-0.3c2.53-.41,2.74-2.79,2.74-6V156.76c0-3-.35-4.76-1.77-5.37a2.23,2.23,0,0,1-.91-0.51,1.37,1.37,0,0,1,1-.25,44.2,44.2,0,0,0,6.38-1.47v7.3Z" transform="translate(-0.37)"/><path class="cls-2" d="M342.91,152.25a0.47,0.47,0,0,1-.51-0.46,1.41,1.41,0,0,1,1-.71c2.89-1,5.32-3.34,7.2-7.2a0.67,0.67,0,0,1,.56-0.51c0.25,0,.25.35,0.25,0.71v6.54h5.62l-0.35,1.62h-5.27v14.39c0,6.74,1.62,8,3.24,8.51a0.75,0.75,0,0,1,.61.35,0.84,0.84,0,0,1-.81.2h-6.13a3.6,3.6,0,0,1-2.13-3.7V152.25h-3.29Z" transform="translate(-0.37)"/><path class="cls-2" d="M263.61,185.74v-5c0-1-.27-1.82-1.06-2a0.61,0.61,0,0,1-.25-0.15c0-.07.15-0.1,0.37-0.1,0.39,0,1.57.1,2.36,0.1s2-.1,2.36-0.1c0.22,0,.37,0,0.37.1a0.61,0.61,0,0,1-.25.15c-0.79.2-1.06,1-1.06,2v10.92a2.26,2.26,0,0,0,1.33,2.46,0.3,0.3,0,0,1,.22.2c0,0.07-.15.07-0.39,0.07-0.89,0-1.18-.07-2.58-0.07s-1.7.07-2.58,0.07c-0.25,0-.39,0-0.39-0.07a0.3,0.3,0,0,1,.22-0.2,2.26,2.26,0,0,0,1.33-2.46v-5.34h-9.37v5.34a2.26,2.26,0,0,0,1.33,2.46,0.3,0.3,0,0,1,.22.2c0,0.07-.15.07-0.39,0.07-0.89,0-1.18-.07-2.58-0.07s-1.7.07-2.58,0.07c-0.25,0-.39,0-0.39-0.07a0.3,0.3,0,0,1,.22-0.2,2.26,2.26,0,0,0,1.33-2.46V180.77c0-1-.27-1.82-1.06-2a0.61,0.61,0,0,1-.25-0.15c0-.07.15-0.1,0.37-0.1,0.39,0,1.57.1,2.36,0.1s2-.1,2.36-0.1c0.22,0,.37,0,0.37.1a0.61,0.61,0,0,1-.25.15c-0.79.2-1.06,1-1.06,2v5h9.37Z" transform="translate(-0.37)"/><path class="cls-2" d="M273.87,185.74h4.55c1.8,0,3.37-.84,3.71-1.84a0.26,0.26,0,0,1,.2-0.22c0.07,0,.1.12,0.1,0.37v4.06c0,0.42,0,.52-0.1.52a0.48,0.48,0,0,1-.2-0.34c-0.71-1.82-2.73-1.92-4.45-1.92h-3.81v5.19c0,1.8.61,2.19,2.29,2.19h2.78a10.46,10.46,0,0,0,6.42-2.68,3.39,3.39,0,0,1,.66-0.52,0.06,0.06,0,0,1,.07.07,1.07,1.07,0,0,1,0,.2L285,194.35H270a0.92,0.92,0,0,1-.74-0.1c0-.07.52-0.22,0.69-0.37,0.91-.71,1.08-1.4,1.08-3.64v-8.36c0-1.6-.1-2.66-1.08-2.9a0.89,0.89,0,0,1-.42-0.22c0-.1.1-0.15,0.47-0.15h13.9l0.66,2.31a3.52,3.52,0,0,1,.22.91,0.18,0.18,0,0,1-.12.2,0.42,0.42,0,0,1-.3-0.22c-1-1.7-3.64-2.58-6-2.58h-4.53v6.52Z" transform="translate(-0.37)"/><path class="cls-2" d="M292.4,187.17l-1.33,2.58a6.23,6.23,0,0,0-.86,2.8,1.56,1.56,0,0,0,1.33,1.57c0.2,0,.27.1,0.27,0.17s-0.12.12-.29,0.12-1.06-.07-2.41-0.07c-1,0-1.62.07-1.92,0.07s-0.32,0-.32-0.12a0.85,0.85,0,0,1,.47-0.39,15.11,15.11,0,0,0,2.85-3.89l6-11.71a0.34,0.34,0,0,1,.17-0.2h0a0.31,0.31,0,0,1,.2.2l7.23,13.53a6.24,6.24,0,0,0,1.65,2,1.52,1.52,0,0,1,.57.42c0,0.07-.12.12-0.35,0.12s-1.33-.07-2.75-0.07c-2,0-2.83.07-3,.07a0.26,0.26,0,0,1-.25-0.07c0-.1.12-0.15,0.32-0.2a1.14,1.14,0,0,0,.69-1.28,10.12,10.12,0,0,0-1.11-2.8l-1.4-2.9H292.4Zm2.9-5.73-2.58,5.12h5.21Z" transform="translate(-0.37)"/><path class="cls-2" d="M311.4,191.08c0,2.46.93,2.66,3,2.66h1.3a9.46,9.46,0,0,0,6.47-2.85,1.87,1.87,0,0,1,.52-0.59,0.15,0.15,0,0,1,.15.17,2.61,2.61,0,0,1-.1.34l-1,3.54H307.29c-0.42,0-.54,0-0.54-0.12a1.8,1.8,0,0,1,.59-0.22c1-.42,1.2-1.33,1.2-3.52v-9.72a1.89,1.89,0,0,0-1.06-2,0.3,0.3,0,0,1-.25-0.2c0-.07.15-0.1,0.37-0.1,0.39,0,1.57.1,2.36,0.1s2-.1,2.36-0.1c0.22,0,.3,0,0.3.12a0.32,0.32,0,0,1-.22.15,1.88,1.88,0,0,0-1,2v10.31Z" transform="translate(-0.37)"/><path class="cls-2" d="M326.53,180.36c0-1-.42-1.13-1.53-1.13a7.42,7.42,0,0,0-5.19,2.43,2.87,2.87,0,0,1-.44.42,0.14,0.14,0,0,1-.12-0.15,4.06,4.06,0,0,1,.17-0.57l0.79-2.76h15.5l0.79,2.76a3.9,3.9,0,0,1,.17.57,0.14,0.14,0,0,1-.12.15,2.81,2.81,0,0,1-.44-0.42,7.42,7.42,0,0,0-5.19-2.43c-1.11,0-1.52.17-1.52,1.13v11.34c0,1.2.32,2.16,1.48,2.39a0.39,0.39,0,0,1,.37.2,0.22,0.22,0,0,1-.2.15c-0.17,0-1.67-.07-3.07-0.07s-2.85.07-3,.07-0.22,0-.22-0.12a0.82,0.82,0,0,1,.47-0.2c1.13-.49,1.35-1.21,1.35-3.49V180.36Z" transform="translate(-0.37)"/><path class="cls-2" d="M351.51,185.74v-5c0-1-.27-1.82-1.06-2a0.61,0.61,0,0,1-.25-0.15c0-.07.15-0.1,0.37-0.1,0.39,0,1.57.1,2.36,0.1s2-.1,2.36-0.1c0.22,0,.37,0,0.37.1a0.61,0.61,0,0,1-.25.15c-0.79.2-1.06,1-1.06,2v10.92a2.26,2.26,0,0,0,1.33,2.46,0.3,0.3,0,0,1,.22.2c0,0.07-.15.07-0.39,0.07-0.89,0-1.18-.07-2.58-0.07s-1.7.07-2.58,0.07c-0.25,0-.39,0-0.39-0.07a0.3,0.3,0,0,1,.22-0.2,2.26,2.26,0,0,0,1.33-2.46v-5.34h-9.37v5.34a2.26,2.26,0,0,0,1.33,2.46,0.3,0.3,0,0,1,.22.2c0,0.07-.15.07-0.39,0.07-0.89,0-1.18-.07-2.58-0.07s-1.7.07-2.58,0.07c-0.25,0-.39,0-0.39-0.07a0.3,0.3,0,0,1,.22-0.2,2.26,2.26,0,0,0,1.33-2.46V180.77c0-1-.27-1.82-1.06-2a0.61,0.61,0,0,1-.25-0.15c0-.07.15-0.1,0.37-0.1,0.39,0,1.57.1,2.36,0.1s2-.1,2.36-0.1c0.22,0,.37,0,0.37.1a0.61,0.61,0,0,1-.25.15c-0.79.2-1.06,1-1.06,2v5h9.37Z" transform="translate(-0.37)"/><path class="cls-2" d="M203.51,160.41c-0.2,3.87-.83,6.79-3,9.8a13,13,0,0,1-14.3,5c-5.57-1.57-11.84-8.93-8.2-17.26,0.95-2.17,3.67-5.75,8.07-6.33a11.63,11.63,0,0,0-9.44,4.45A13.8,13.8,0,0,0,181.21,177a15.82,15.82,0,0,0,20.56-6.43A17,17,0,0,0,203.51,160.41Z" transform="translate(-0.37)"/><path class="cls-2" d="M172.37,165.27c0.2-3.87.83-6.79,3-9.8a13,13,0,0,1,14.29-5c5.57,1.57,11.84,8.93,8.2,17.25-0.95,2.17-3.66,5.75-8.07,6.34a11.63,11.63,0,0,0,9.44-4.45,13.8,13.8,0,0,0-4.52-20.88,15.82,15.82,0,0,0-20.56,6.43A17,17,0,0,0,172.37,165.27Z" transform="translate(-0.37)"/><path class="cls-2" d="M359.31,191.69a1.53,1.53,0,1,1-2.16,2.17,1.49,1.49,0,0,1-.44-1.09A1.52,1.52,0,0,1,359.31,191.69Zm0.18-.17A1.77,1.77,0,0,0,357,194a1.77,1.77,0,0,0,2.51,0,1.72,1.72,0,0,0,.52-1.26A1.7,1.7,0,0,0,359.48,191.51Zm-1,1.17a0.94,0.94,0,0,1-.33,0h-0.31V192h0.29a0.89,0.89,0,0,1,.41.07,0.3,0.3,0,0,1,.13.28A0.3,0.3,0,0,1,358.49,192.68Zm-1,1h0.34V193h0.27a0.83,0.83,0,0,1,.38.06,0.48,0.48,0,0,1,.18.45v0.26H359v0a0.33,0.33,0,0,1,0-.1c0-.05,0-0.1,0-0.14v-0.14a0.53,0.53,0,0,0-.11-0.3,0.47,0.47,0,0,0-.34-0.19,0.76,0.76,0,0,0,.28-0.09,0.43,0.43,0,0,0,.19-0.38,0.48,0.48,0,0,0-.3-0.49,1.48,1.48,0,0,0-.53-0.07h-0.68v1.95Z" transform="translate(-0.37)"/><polygon class="cls-2" points="356.02 127.36 0.05 127.36 0.05 125.87 356.02 125.87 356.02 127.36 356.02 127.36"/></svg>