<svg id="Layer_1" data-name="Layer 1" xmlns="http://www.w3.org/2000/svg" viewBox="0 0 359.52 230.2"><defs><style>.cls-1{fill:#005a9c;}.cls-2{fill:#a90533;}</style></defs><title>morristown-hamblen</title><path class="cls-1" d="M79.25,110.55H76.08V90l-6.21,14H68L61.79,90v20.53h-3V86.72h4.32l6,13.27,5.75-13.27h4.4v23.83Z" transform="translate(-0.48)"/><path class="cls-1" d="M98.55,101.62q0,4.51-2.18,7A7.36,7.36,0,0,1,90.58,111a7.26,7.26,0,0,1-5.86-2.54,10.36,10.36,0,0,1-2.14-6.89,10.14,10.14,0,0,1,2.2-7,8,8,0,0,1,11.59,0Q98.55,97.13,98.55,101.62Zm-3.11,0a8.6,8.6,0,0,0-1.26-5.16,4.71,4.71,0,0,0-7.23,0,8.56,8.56,0,0,0-1.27,5.16,8.56,8.56,0,0,0,1.27,5.1,4.65,4.65,0,0,0,7.22,0A8.54,8.54,0,0,0,95.45,101.62Z" transform="translate(-0.48)"/><path class="cls-1" d="M111.11,95.91H111a3.35,3.35,0,0,0-.71-0.12l-0.9,0a6,6,0,0,0-2.42.53,7.77,7.77,0,0,0-2.27,1.57v12.69h-3V92.68h3v2.66a13.75,13.75,0,0,1,2.87-2.06,5.39,5.39,0,0,1,2.38-.6q0.46,0,.7,0l0.52,0.07v3.14Z" transform="translate(-0.48)"/><path class="cls-1" d="M122.92,95.91h-0.16a3.35,3.35,0,0,0-.71-0.12l-0.9,0a6,6,0,0,0-2.42.53,7.77,7.77,0,0,0-2.27,1.57v12.69h-3V92.68h3v2.66a13.75,13.75,0,0,1,2.87-2.06,5.39,5.39,0,0,1,2.38-.6q0.46,0,.7,0l0.52,0.07v3.14Z" transform="translate(-0.48)"/><path class="cls-1" d="M128.54,89.68h-3.42V86.56h3.42v3.12Zm-0.21,20.87h-3V92.68h3v17.88Z" transform="translate(-0.48)"/><path class="cls-1" d="M137.58,111a11.35,11.35,0,0,1-3.35-.48,14.94,14.94,0,0,1-2.58-1V106.1h0.16q0.38,0.3.9,0.67a8.93,8.93,0,0,0,1.38.77,12.67,12.67,0,0,0,1.69.62,6.7,6.7,0,0,0,1.91.27,7.65,7.65,0,0,0,1.54-.17,3.72,3.72,0,0,0,1.22-.42,2.54,2.54,0,0,0,.81-0.78,2.49,2.49,0,0,0,.25-1.25,2.1,2.1,0,0,0-.58-1.62,4.81,4.81,0,0,0-2.07-.91q-0.58-.14-1.5-0.34t-1.71-.42a5.46,5.46,0,0,1-3-1.83,5.22,5.22,0,0,1,.9-6.94,7.33,7.33,0,0,1,4.85-1.52,12.55,12.55,0,0,1,3,.37,10.48,10.48,0,0,1,2.53.93v3.22h-0.16a9.4,9.4,0,0,0-2.57-1.44,8.13,8.13,0,0,0-2.86-.53,4.74,4.74,0,0,0-2.51.62,2.06,2.06,0,0,0-1,1.89A2.15,2.15,0,0,0,135.4,99a4.69,4.69,0,0,0,2,.9q0.67,0.18,1.5.34t1.74,0.39a5.63,5.63,0,0,1,3,1.65,4.62,4.62,0,0,1,1,3.14,5.34,5.34,0,0,1-.46,2.18,4.82,4.82,0,0,1-1.34,1.77,6.83,6.83,0,0,1-2.17,1.22A9.43,9.43,0,0,1,137.58,111Z" transform="translate(-0.48)"/><path class="cls-1" d="M152.78,110.9a5.14,5.14,0,0,1-3.84-1.4,6.12,6.12,0,0,1-1.38-4.42V95.17h-2v-2.5h2V87.54h3v5.14h5.54v2.5h-5.54v8.5q0,1.36,0,2.1a3.55,3.55,0,0,0,.37,1.38,1.76,1.76,0,0,0,.88.84,4,4,0,0,0,1.65.28,4.74,4.74,0,0,0,1.42-.22,8.65,8.65,0,0,0,1-.36h0.18v2.7a14.6,14.6,0,0,1-1.72.38A10.53,10.53,0,0,1,152.78,110.9Z" transform="translate(-0.48)"/><path class="cls-1" d="M173,101.62q0,4.51-2.18,7a7.36,7.36,0,0,1-5.79,2.46,7.26,7.26,0,0,1-5.86-2.54,10.36,10.36,0,0,1-2.14-6.89,10.14,10.14,0,0,1,2.2-7,8,8,0,0,1,11.59,0Q173,97.13,173,101.62Zm-3.11,0a8.6,8.6,0,0,0-1.26-5.16,4.71,4.71,0,0,0-7.23,0,8.56,8.56,0,0,0-1.27,5.16,8.56,8.56,0,0,0,1.27,5.1,4.65,4.65,0,0,0,7.22,0A8.54,8.54,0,0,0,169.94,101.62Z" transform="translate(-0.48)"/><path class="cls-1" d="M197.8,92.68l-4.53,17.88h-2.79l-4.37-13.78-4.34,13.78H179l-4.58-17.88h3.14l3.15,13.84L185,92.68h2.48l4.35,13.84,3-13.84h3Z" transform="translate(-0.48)"/><path class="cls-1" d="M214.51,110.55h-3V100.37a20.47,20.47,0,0,0-.12-2.3,4.87,4.87,0,0,0-.46-1.7,2.35,2.35,0,0,0-1-1A4.06,4.06,0,0,0,208.1,95a5.13,5.13,0,0,0-2.31.6,11.93,11.93,0,0,0-2.33,1.56v13.35h-3V92.68h3v2a11.83,11.83,0,0,1,2.66-1.84,6.23,6.23,0,0,1,2.77-.64A5.15,5.15,0,0,1,213,93.92a7.53,7.53,0,0,1,1.49,5v11.6Z" transform="translate(-0.48)"/><path class="cls-1" d="M227,101.57h-9v-2.9h9v2.9Z" transform="translate(-0.48)"/><path class="cls-1" d="M248.17,110.55H245V98.89H234v11.67h-3.17V86.72H234v9.35h11V86.72h3.17v23.83Z" transform="translate(-0.48)"/><path class="cls-1" d="M262.75,108.65l-1,.76a6.91,6.91,0,0,1-1.19.78,9,9,0,0,1-1.54.64,7.59,7.59,0,0,1-2.09.22,5.41,5.41,0,0,1-3.84-1.58,5.48,5.48,0,0,1-1.15-1.82,6.09,6.09,0,0,1-.43-2.28,6,6,0,0,1,.78-3.16,5.35,5.35,0,0,1,2.48-2.07,12.31,12.31,0,0,1,3.55-1q2-.26,4.42-0.39V98.21a3.87,3.87,0,0,0-.32-1.7,2.37,2.37,0,0,0-.9-1,3.51,3.51,0,0,0-1.41-.49,11.94,11.94,0,0,0-1.71-.12,11.51,11.51,0,0,0-2.45.31,16.41,16.41,0,0,0-2.82.9H253V93.06q0.83-.24,2.38-0.53a16.81,16.81,0,0,1,3.07-.29,14.23,14.23,0,0,1,3.1.29,6,6,0,0,1,2.27,1,4.46,4.46,0,0,1,1.46,1.9,7.5,7.5,0,0,1,.48,2.85v12.23h-3v-1.9Zm0-2.5v-5l-2.71.26a14.62,14.62,0,0,0-2.65.47,4.83,4.83,0,0,0-2,1.13,2.82,2.82,0,0,0-.78,2.12,3,3,0,0,0,.86,2.32,3.64,3.64,0,0,0,2.53.78,5.38,5.38,0,0,0,2.58-.62A11.19,11.19,0,0,0,262.75,106.15Z" transform="translate(-0.48)"/><path class="cls-1" d="M290.26,110.55V100.21q0-1.23-.1-2.28a4.57,4.57,0,0,0-.4-1.64,2.06,2.06,0,0,0-.91-0.94,3.53,3.53,0,0,0-1.6-.3,4.26,4.26,0,0,0-2,.57,10.44,10.44,0,0,0-2.2,1.64l0,0.65q0,0.38,0,.89v11.76h-3V100.21q0-1.23-.1-2.28a4.59,4.59,0,0,0-.4-1.64,2.07,2.07,0,0,0-.91-0.94,3.53,3.53,0,0,0-1.6-.3,4.16,4.16,0,0,0-2,.61A11,11,0,0,0,273,97.21v13.35h-3V92.68h3v2a10.89,10.89,0,0,1,2.34-1.83,5.15,5.15,0,0,1,2.55-.65,5.44,5.44,0,0,1,2.81.72,4.51,4.51,0,0,1,1.86,2.37,12,12,0,0,1,2.66-2.3,5.34,5.34,0,0,1,2.82-.78,5.85,5.85,0,0,1,2.1.36,4.15,4.15,0,0,1,1.65,1.16,5.65,5.65,0,0,1,1.11,2,10.12,10.12,0,0,1,.39,3.06v11.76h-3Z" transform="translate(-0.48)"/><path class="cls-1" d="M312.49,101.32a11,11,0,0,1-2.13,7.06A6.55,6.55,0,0,1,305,111a7.58,7.58,0,0,1-2.49-.36,10.87,10.87,0,0,1-2-1l-0.19.83H297.5V85.65h3v8.9a11.27,11.27,0,0,1,2.46-1.7,6.57,6.57,0,0,1,3-.67,5.56,5.56,0,0,1,4.77,2.42A11.32,11.32,0,0,1,312.49,101.32Zm-3.1.24a9.72,9.72,0,0,0-1-4.86A3.37,3.37,0,0,0,305.27,95a5.94,5.94,0,0,0-2.49.58,9.66,9.66,0,0,0-2.28,1.46v10.24a11,11,0,0,0,2,.79,7.59,7.59,0,0,0,1.94.23,4.38,4.38,0,0,0,3.62-1.63Q309.38,105.08,309.39,101.56Z" transform="translate(-0.48)"/><path class="cls-1" d="M318.68,110.55h-3V85.65h3v24.9Z" transform="translate(-0.48)"/><path class="cls-1" d="M330.86,111a8.87,8.87,0,0,1-6.63-2.41,9.37,9.37,0,0,1-2.36-6.84,10.11,10.11,0,0,1,2.29-7,7.61,7.61,0,0,1,6-2.58,8.35,8.35,0,0,1,2.94.48,5.86,5.86,0,0,1,2.24,1.5,6.91,6.91,0,0,1,1.47,2.5,11.17,11.17,0,0,1,.51,3.62v1.63H324.92a6.66,6.66,0,0,0,1.57,4.77,5.7,5.7,0,0,0,4.34,1.65,8.46,8.46,0,0,0,1.94-.22,9.15,9.15,0,0,0,1.72-.58,12.4,12.4,0,0,0,1.38-.71,8.26,8.26,0,0,0,.93-0.65H337v3.28l-1.31.52a14.38,14.38,0,0,1-1.41.49q-0.88.24-1.59,0.37A10.47,10.47,0,0,1,330.86,111Zm3.52-11.35a8.39,8.39,0,0,0-.29-2.1,4.33,4.33,0,0,0-.74-1.49A3.36,3.36,0,0,0,332,95a6,6,0,0,0-4.08,0,4.85,4.85,0,0,0-1.53,1,5,5,0,0,0-1,1.56,6.72,6.72,0,0,0-.45,2h9.46Z" transform="translate(-0.48)"/><path class="cls-1" d="M354.4,110.55h-3V100.37a20.47,20.47,0,0,0-.12-2.3,4.87,4.87,0,0,0-.46-1.7,2.35,2.35,0,0,0-1-1A4.06,4.06,0,0,0,348,95a5.13,5.13,0,0,0-2.31.6,11.93,11.93,0,0,0-2.33,1.56v13.35h-3V92.68h3v2A11.83,11.83,0,0,1,346,92.82a6.23,6.23,0,0,1,2.77-.64,5.15,5.15,0,0,1,4.13,1.74,7.53,7.53,0,0,1,1.49,5v11.6Z" transform="translate(-0.48)"/><path class="cls-1" d="M106.84,142.6h-3.17V130.93h-11V142.6H89.54V118.77h3.17v9.35h11v-9.35h3.17V142.6Z" transform="translate(-0.48)"/><path class="cls-1" d="M119.19,143a8.87,8.87,0,0,1-6.63-2.41,9.37,9.37,0,0,1-2.36-6.84,10.11,10.11,0,0,1,2.29-7,7.61,7.61,0,0,1,6-2.58,8.35,8.35,0,0,1,2.94.48,5.86,5.86,0,0,1,2.24,1.5,6.91,6.91,0,0,1,1.47,2.5,11.17,11.17,0,0,1,.51,3.62V134H113.26a6.66,6.66,0,0,0,1.57,4.77,5.7,5.7,0,0,0,4.34,1.65,8.46,8.46,0,0,0,1.94-.22,9.15,9.15,0,0,0,1.72-.58,12.4,12.4,0,0,0,1.38-.71,8.26,8.26,0,0,0,.93-0.65h0.18v3.28L124,142a14.38,14.38,0,0,1-1.41.49q-0.88.24-1.59,0.37A10.47,10.47,0,0,1,119.19,143Zm3.52-11.35a8.39,8.39,0,0,0-.29-2.1,4.33,4.33,0,0,0-.74-1.49,3.36,3.36,0,0,0-1.35-1,6,6,0,0,0-4.08,0,4.85,4.85,0,0,0-1.53,1,5,5,0,0,0-1,1.56,6.72,6.72,0,0,0-.45,2h9.46Z" transform="translate(-0.48)"/><path class="cls-1" d="M138.67,140.69l-1,.76a6.91,6.91,0,0,1-1.19.78,9,9,0,0,1-1.54.64,7.59,7.59,0,0,1-2.09.22,5.41,5.41,0,0,1-3.84-1.58,5.48,5.48,0,0,1-1.15-1.82,6.09,6.09,0,0,1-.43-2.28,6,6,0,0,1,.78-3.16,5.35,5.35,0,0,1,2.48-2.07,12.31,12.31,0,0,1,3.55-1q2-.26,4.42-0.39v-0.58a3.87,3.87,0,0,0-.32-1.7,2.37,2.37,0,0,0-.9-1,3.51,3.51,0,0,0-1.41-.49,11.94,11.94,0,0,0-1.71-.12,11.51,11.51,0,0,0-2.45.31,16.41,16.41,0,0,0-2.82.9h-0.18v-3.06q0.83-.24,2.38-0.53a16.81,16.81,0,0,1,3.07-.29,14.23,14.23,0,0,1,3.1.29,6,6,0,0,1,2.27,1,4.46,4.46,0,0,1,1.46,1.9,7.5,7.5,0,0,1,.48,2.85V142.6h-3v-1.9Zm0-2.5v-5l-2.71.26a14.62,14.62,0,0,0-2.65.47,4.83,4.83,0,0,0-2,1.13,2.82,2.82,0,0,0-.78,2.12,3,3,0,0,0,.86,2.32,3.64,3.64,0,0,0,2.53.78,5.38,5.38,0,0,0,2.58-.62A11.19,11.19,0,0,0,138.67,138.2Z" transform="translate(-0.48)"/><path class="cls-1" d="M149,142.6h-3V117.7h3v24.9Z" transform="translate(-0.48)"/><path class="cls-1" d="M158.85,142.95a5.14,5.14,0,0,1-3.84-1.4,6.12,6.12,0,0,1-1.38-4.42v-9.91h-2v-2.5h2v-5.14h3v5.14h5.54v2.5h-5.54v8.5q0,1.36,0,2.1a3.55,3.55,0,0,0,.37,1.38,1.76,1.76,0,0,0,.88.84,4,4,0,0,0,1.65.28,4.74,4.74,0,0,0,1.42-.22,8.65,8.65,0,0,0,1-.36h0.18v2.7a14.6,14.6,0,0,1-1.72.38A10.53,10.53,0,0,1,158.85,142.95Z" transform="translate(-0.48)"/><path class="cls-1" d="M178.45,142.6h-3V132.42a20.47,20.47,0,0,0-.12-2.3,4.87,4.87,0,0,0-.46-1.7,2.35,2.35,0,0,0-1-1,4.06,4.06,0,0,0-1.79-.33,5.13,5.13,0,0,0-2.31.6,11.93,11.93,0,0,0-2.33,1.56V142.6h-3V117.7h3v9a11.83,11.83,0,0,1,2.66-1.84,6.23,6.23,0,0,1,2.77-.64A5.15,5.15,0,0,1,177,126a7.53,7.53,0,0,1,1.49,5v11.6Z" transform="translate(-0.48)"/><path class="cls-1" d="M189.78,143a9.68,9.68,0,0,1-3.38-.57,6.94,6.94,0,0,1-2.64-1.72,7.84,7.84,0,0,1-1.71-2.9,12.58,12.58,0,0,1-.61-4.12,11.75,11.75,0,0,1,.63-4.06,8.77,8.77,0,0,1,1.69-2.88,7,7,0,0,1,2.63-1.8,9,9,0,0,1,3.38-.63,9.71,9.71,0,0,1,2.84.42,15.12,15.12,0,0,1,2.44,1v3.38h-0.18q-0.32-.27-0.82-0.62a10.58,10.58,0,0,0-1.22-.72,8.07,8.07,0,0,0-1.47-.56,6,6,0,0,0-1.63-.24,4.57,4.57,0,0,0-3.75,1.77,9.56,9.56,0,0,0,0,9.94,4.53,4.53,0,0,0,3.8,1.77,6.65,6.65,0,0,0,2.8-.61,8.73,8.73,0,0,0,2.35-1.57h0.18v3.38l-1.12.5a8.35,8.35,0,0,1-1.22.44q-0.77.22-1.38,0.34A8.39,8.39,0,0,1,189.78,143Z" transform="translate(-0.48)"/><path class="cls-1" d="M207.78,140.69l-1,.76a6.91,6.91,0,0,1-1.19.78,9,9,0,0,1-1.54.64,7.59,7.59,0,0,1-2.09.22,5.41,5.41,0,0,1-3.84-1.58,5.48,5.48,0,0,1-1.15-1.82,6.09,6.09,0,0,1-.43-2.28,6,6,0,0,1,.78-3.16,5.35,5.35,0,0,1,2.48-2.07,12.31,12.31,0,0,1,3.55-1q2-.26,4.42-0.39v-0.58a3.87,3.87,0,0,0-.32-1.7,2.37,2.37,0,0,0-.9-1,3.51,3.51,0,0,0-1.41-.49,11.94,11.94,0,0,0-1.71-.12,11.51,11.51,0,0,0-2.45.31,16.41,16.41,0,0,0-2.82.9H198v-3.06q0.83-.24,2.38-0.53a16.81,16.81,0,0,1,3.07-.29,14.23,14.23,0,0,1,3.1.29,6,6,0,0,1,2.27,1,4.46,4.46,0,0,1,1.46,1.9,7.5,7.5,0,0,1,.48,2.85V142.6h-3v-1.9Zm0-2.5v-5l-2.71.26a14.62,14.62,0,0,0-2.65.47,4.83,4.83,0,0,0-2,1.13,2.82,2.82,0,0,0-.78,2.12,3,3,0,0,0,.86,2.32,3.64,3.64,0,0,0,2.53.78,5.38,5.38,0,0,0,2.58-.62A11.19,11.19,0,0,0,207.78,138.2Z" transform="translate(-0.48)"/><path class="cls-1" d="M224.48,128h-0.16a3.35,3.35,0,0,0-.71-0.12l-0.9,0a6,6,0,0,0-2.42.53,7.77,7.77,0,0,0-2.27,1.57V142.6h-3V124.72h3v2.66a13.75,13.75,0,0,1,2.87-2.06,5.39,5.39,0,0,1,2.38-.6q0.46,0,.7,0l0.52,0.07V128Z" transform="translate(-0.48)"/><path class="cls-1" d="M234.41,143a8.87,8.87,0,0,1-6.63-2.41,9.37,9.37,0,0,1-2.36-6.84,10.11,10.11,0,0,1,2.29-7,7.61,7.61,0,0,1,6-2.58,8.35,8.35,0,0,1,2.94.48,5.86,5.86,0,0,1,2.24,1.5,6.91,6.91,0,0,1,1.47,2.5,11.17,11.17,0,0,1,.51,3.62V134H228.48a6.66,6.66,0,0,0,1.57,4.77,5.7,5.7,0,0,0,4.34,1.65,8.46,8.46,0,0,0,1.94-.22,9.15,9.15,0,0,0,1.72-.58,12.4,12.4,0,0,0,1.38-.71,8.26,8.26,0,0,0,.93-0.65h0.18v3.28l-1.31.52a14.38,14.38,0,0,1-1.41.49q-0.88.24-1.59,0.37A10.47,10.47,0,0,1,234.41,143Zm3.52-11.35a8.39,8.39,0,0,0-.29-2.1,4.33,4.33,0,0,0-.74-1.49,3.36,3.36,0,0,0-1.35-1,6,6,0,0,0-4.08,0,4.85,4.85,0,0,0-1.53,1,5,5,0,0,0-1,1.56,6.72,6.72,0,0,0-.45,2h9.46Z" transform="translate(-0.48)"/><path class="cls-1" d="M261,143a15.75,15.75,0,0,1-4.41-.54,21.74,21.74,0,0,1-3.42-1.32v-4h0.22a11.46,11.46,0,0,0,3.55,2.28,10.12,10.12,0,0,0,3.83.81,6.17,6.17,0,0,0,4-1.1,3.54,3.54,0,0,0,1.34-2.89,3.64,3.64,0,0,0-.7-2.32,4.19,4.19,0,0,0-2.24-1.33q-1.1-.32-2-0.53t-2.29-.56a10.92,10.92,0,0,1-2.21-.82,6.23,6.23,0,0,1-1.73-1.3,5.59,5.59,0,0,1-1.14-1.85,6.83,6.83,0,0,1-.41-2.46,6.18,6.18,0,0,1,2.26-4.86,8.47,8.47,0,0,1,5.76-2,17.27,17.27,0,0,1,3.79.4,15.18,15.18,0,0,1,3.3,1.14v3.79h-0.24a10.51,10.51,0,0,0-2.91-1.82,9.22,9.22,0,0,0-3.73-.78,5.74,5.74,0,0,0-3.57,1,3.24,3.24,0,0,0-1.36,2.71,3.49,3.49,0,0,0,.8,2.42,4.67,4.67,0,0,0,2.32,1.31q1,0.27,2.47.62t2.42,0.63a6.8,6.8,0,0,1,3.6,2.27,6.08,6.08,0,0,1,1.14,3.74,7.08,7.08,0,0,1-.57,2.75,6.49,6.49,0,0,1-1.59,2.3,8.33,8.33,0,0,1-2.6,1.6A10.12,10.12,0,0,1,261,143Z" transform="translate(-0.48)"/><path class="cls-1" d="M286,124.72l-9.62,24.47h-3.22l3.2-7.46-6.5-17h3.25L278,138l4.86-13.23H286Z" transform="translate(-0.48)"/><path class="cls-1" d="M293.09,143a11.35,11.35,0,0,1-3.35-.48,14.94,14.94,0,0,1-2.58-1v-3.38h0.16q0.38,0.3.9,0.67a8.93,8.93,0,0,0,1.38.77,12.67,12.67,0,0,0,1.69.62,6.7,6.7,0,0,0,1.91.27,7.65,7.65,0,0,0,1.54-.17,3.72,3.72,0,0,0,1.22-.42,2.54,2.54,0,0,0,.81-0.78,2.49,2.49,0,0,0,.25-1.25,2.1,2.1,0,0,0-.58-1.62,4.81,4.81,0,0,0-2.07-.91q-0.58-.14-1.5-0.34t-1.71-.42a5.46,5.46,0,0,1-3-1.83,5.22,5.22,0,0,1,.9-6.94,7.33,7.33,0,0,1,4.85-1.52,12.55,12.55,0,0,1,3,.37,10.48,10.48,0,0,1,2.53.93v3.22h-0.16a9.4,9.4,0,0,0-2.57-1.44,8.13,8.13,0,0,0-2.86-.53,4.74,4.74,0,0,0-2.51.62,2.06,2.06,0,0,0-1,1.89,2.15,2.15,0,0,0,.61,1.67,4.69,4.69,0,0,0,2,.9q0.67,0.18,1.5.34t1.74,0.39a5.63,5.63,0,0,1,3,1.65,4.62,4.62,0,0,1,1,3.14,5.34,5.34,0,0,1-.46,2.18,4.82,4.82,0,0,1-1.34,1.77,6.83,6.83,0,0,1-2.17,1.22A9.43,9.43,0,0,1,293.09,143Z" transform="translate(-0.48)"/><path class="cls-1" d="M308.3,142.95a5.14,5.14,0,0,1-3.84-1.4,6.12,6.12,0,0,1-1.38-4.42v-9.91h-2v-2.5h2v-5.14h3v5.14h5.54v2.5h-5.54v8.5q0,1.36,0,2.1a3.55,3.55,0,0,0,.37,1.38,1.76,1.76,0,0,0,.88.84,4,4,0,0,0,1.65.28,4.74,4.74,0,0,0,1.42-.22,8.65,8.65,0,0,0,1-.36h0.18v2.7a14.6,14.6,0,0,1-1.72.38A10.53,10.53,0,0,1,308.3,142.95Z" transform="translate(-0.48)"/><path class="cls-1" d="M321.61,143A8.87,8.87,0,0,1,315,140.6a9.37,9.37,0,0,1-2.36-6.84,10.11,10.11,0,0,1,2.29-7,7.61,7.61,0,0,1,6-2.58,8.35,8.35,0,0,1,2.94.48,5.86,5.86,0,0,1,2.24,1.5,6.91,6.91,0,0,1,1.47,2.5,11.17,11.17,0,0,1,.51,3.62V134H315.67a6.66,6.66,0,0,0,1.57,4.77,5.7,5.7,0,0,0,4.34,1.65,8.46,8.46,0,0,0,1.94-.22,9.15,9.15,0,0,0,1.72-.58,12.4,12.4,0,0,0,1.38-.71,8.26,8.26,0,0,0,.93-0.65h0.18v3.28l-1.31.52a14.38,14.38,0,0,1-1.41.49q-0.88.24-1.59,0.37A10.47,10.47,0,0,1,321.61,143Zm3.52-11.35a8.39,8.39,0,0,0-.29-2.1,4.33,4.33,0,0,0-.74-1.49,3.36,3.36,0,0,0-1.35-1,6,6,0,0,0-4.08,0,4.85,4.85,0,0,0-1.53,1,5,5,0,0,0-1,1.56,6.72,6.72,0,0,0-.45,2h9.46Z" transform="translate(-0.48)"/><path class="cls-1" d="M351.39,142.6V132.26q0-1.23-.1-2.28a4.57,4.57,0,0,0-.4-1.64,2.06,2.06,0,0,0-.91-0.94,3.53,3.53,0,0,0-1.6-.3,4.26,4.26,0,0,0-2,.57,10.44,10.44,0,0,0-2.2,1.64l0,0.65q0,0.38,0,.89V142.6h-3V132.26q0-1.23-.1-2.28a4.59,4.59,0,0,0-.4-1.64,2.07,2.07,0,0,0-.91-0.94,3.53,3.53,0,0,0-1.6-.3,4.16,4.16,0,0,0-2,.61,11,11,0,0,0-2.08,1.55V142.6h-3V124.72h3v2a10.89,10.89,0,0,1,2.34-1.83,5.15,5.15,0,0,1,2.55-.65,5.44,5.44,0,0,1,2.81.72,4.51,4.51,0,0,1,1.86,2.37,12,12,0,0,1,2.66-2.3,5.34,5.34,0,0,1,2.82-.78,5.85,5.85,0,0,1,2.1.36,4.15,4.15,0,0,1,1.65,1.16,5.65,5.65,0,0,1,1.11,2,10.12,10.12,0,0,1,.39,3.06V142.6h-3Z" transform="translate(-0.48)"/><path class="cls-1" d="M355.72,150.78H12.81l0.12,1.46H355.72A0.73,0.73,0,0,0,355.72,150.78Z" transform="translate(-0.48)"/><path class="cls-2" d="M39.95,143.3c-4.36-18.24-3.36-38.59,5.9-59.75C53.22,66.7,74.29,39,108.48,34.39,83.15,33.55,55.86,43.8,35.25,68.9c-17.54,21.35-24.93,48.22-23,74.4H39.95Z" transform="translate(-0.48)"/><path class="cls-1" d="M230,81.83c-7-29-25.79-55.38-55.26-70C125.38-12.52,50.4-1,15.14,61.79,3.19,83.06-2.06,113.67,1.65,140.24c1.54-30,6.43-52.7,22.92-76C54,22.52,101.25,15.69,135.51,25.33c24.29,6.83,50.32,27.89,63.43,56.5h31Z" transform="translate(-0.48)"/><path class="cls-1" d="M139.16,204c-6,4.9-14,6.55-21.74,6.55-14.11,0-27.21-7.92-27.21-24.48,0-14.83,13.1-24.48,27.21-24.48,6.62,0,14.76,1.73,20.66,5.47l-2.23,6.77c-0.29.86-.79,2.45-1,2.45a4.21,4.21,0,0,1-.79-1.87c-1.51-6.26-6-11.28-16.63-11.5-13.1,0-19,12.44-19,23.16s6.49,23.16,21.9,23.16c7.06,0,12.38-4.3,15.55-11.57,0.36-.86.43-1.51,0.79-1.51s0.36,0.22.65,1.3Z" transform="translate(-0.48)"/><path class="cls-1" d="M192,201.77L199.66,187c1.07-2.32,2-4.52,2-6.25,0-2-1.31-2.74-2.74-3.21a0.55,0.55,0,0,1-.54-0.36c0-.18.24-0.24,0.6-0.24,1.55,0,2.08.24,4.52,0.24s2.86-.24,4.4-0.24c0.42,0,.77,0,0.77.18a1,1,0,0,1-.54.71c-2,1.37-4,4.52-6.07,8.15l-11.61,22.2a1.72,1.72,0,0,1-.71.83h-0.12a1.8,1.8,0,0,1-.6-0.89l-10.42-20.3c-2.26-4.52-4.17-8.39-6.67-10.06a1.23,1.23,0,0,1-.71-0.6c0-.24.36-0.24,0.77-0.24,1,0,2.44.24,5.3,0.24s4.88-.24,5.36-0.24a0.86,0.86,0,0,1,.77.24,0.73,0.73,0,0,1-.54.48,2.13,2.13,0,0,0-1.67,2.26c0,1.19,1,2.92,1.49,4Z" transform="translate(-0.48)"/><path class="cls-1" d="M211.14,188.44c-0.12,1.37-.18,2.62-0.18,3.87,0,11.07,5.71,15.18,11.49,15.18,6.84,0,11.9-4.7,13.93-11.67h1.25c-1.9,8.21-7.86,13.15-16,13.15-10.12,0-17.62-6.84-17.62-16.37s7.5-16.37,17.62-16.37c6.49,0,14.34,3.93,15.18,12.2H211.14Zm18.21-1.13c0-5.83-2.8-9.94-9-9.94-5.42,0-8.33,4.82-9,9.94h18Z" transform="translate(-0.48)"/><path class="cls-1" d="M245.22,185.47h0.12c1.37-5.06,4.29-9.23,12.14-9.23,6.55,0,12.68,3.39,12.68,12.86v11.49c-0.12,5.65.65,6.49,2.38,7.08a1.22,1.22,0,0,1,.77.42c0,0.18-.3.18-0.89,0.18s-2.08-.18-5.36-0.18-5.36.18-6.13,0.18c-0.36,0-.65,0-0.65-0.18s0.12-.3.54-0.36c2.14-.24,3.21-1.85,3.21-7.14V189c0-5.48-2.44-11.31-8.75-11.31-7.08,0-9.4,7.26-9.4,15.59v7.26c0,3.75.18,6.55,2.86,7,0.42,0.06.65,0.18,0.65,0.36s-0.18.3-.54,0.3-2.86-.18-6.07-0.18-6,.18-6.37.18-0.54-.06-0.54-0.3,0.24-.3.65-0.36c3-.48,3.21-3.27,3.21-7V185.82c0-3.57-.42-5.59-2.08-6.31a2.63,2.63,0,0,1-1.07-.6c0-.18.42-0.18,1.13-0.3a52,52,0,0,0,7.5-1.73v8.57Z" transform="translate(-0.48)"/><path class="cls-1" d="M302.23,202.91c0,2,.3,3.75,2.14,4.58a0.82,0.82,0,0,1,.6.36,0.73,0.73,0,0,1-.77.24h-6.43a17.76,17.76,0,0,1-1.43-6.07h-0.12c-2.32,4.82-5.77,7-11,7-6.19,0-12.56-2.86-12.56-9.94,0-9,13.81-9.94,20.06-9.94h3.39v-2c0-5.71-2.68-9.76-8.69-9.76-5.48,0-8.69,1.61-10.83,6.84a3.05,3.05,0,0,1-.48,1,1.07,1.07,0,0,1-.3-0.65l-1.55-5.36c4.88-2.56,8.75-3,14-3,6.79,0,13.93,2.44,13.93,9.94v16.72Zm-6.13-12.68h-3.51c-6.43,0-13,1.9-13,9.76a7.23,7.23,0,0,0,7.38,7.5c7,0,9.17-7.38,9.17-13.09v-4.17Z" transform="translate(-0.48)"/><path class="cls-1" d="M313.59,185.47h0.12c1.37-5.06,4.29-9.23,12.14-9.23,6.55,0,12.68,3.39,12.68,12.86v11.49c-0.12,5.65.65,6.49,2.38,7.08a1.22,1.22,0,0,1,.77.42c0,0.18-.3.18-0.89,0.18s-2.08-.18-5.36-0.18-5.36.18-6.13,0.18c-0.36,0-.65,0-0.65-0.18s0.12-.3.54-0.36c2.14-.24,3.21-1.85,3.21-7.14V189c0-5.48-2.44-11.31-8.75-11.31-7.08,0-9.4,7.26-9.4,15.59v7.26c0,3.75.18,6.55,2.86,7,0.42,0.06.65,0.18,0.65,0.36s-0.18.3-.54,0.3-2.86-.18-6.07-0.18-6,.18-6.37.18-0.54-.06-0.54-0.3,0.24-.3.65-0.36c3-.48,3.21-3.27,3.21-7V185.82c0-3.57-.42-5.59-2.08-6.31a2.63,2.63,0,0,1-1.07-.6c0-.18.42-0.18,1.13-0.3a52,52,0,0,0,7.5-1.73v8.57Z" transform="translate(-0.48)"/><path class="cls-1" d="M339.93,180.53a0.55,0.55,0,0,1-.6-0.54c0-.3.48-0.54,1.19-0.83,3.39-1.19,6.25-3.93,8.45-8.45a0.79,0.79,0,0,1,.65-0.6c0.3,0,.3.42,0.3,0.83v7.68h6.61l-0.42,1.9h-6.19v16.9c0,7.92,1.9,9.34,3.81,10a0.88,0.88,0,0,1,.71.42,1,1,0,0,1-1,.24h-7.2c-1.67-.77-2.5-2.08-2.5-4.34V180.53h-3.87Z" transform="translate(-0.48)"/><path class="cls-1" d="M246.78,219.87V214c0-1.18-.32-2.14-1.24-2.37a0.7,0.7,0,0,1-.29-0.17c0-.09.17-0.12,0.43-0.12,0.46,0,1.85.12,2.77,0.12s2.31-.12,2.77-0.12c0.26,0,.43,0,0.43.12a0.7,0.7,0,0,1-.29.17c-0.92.23-1.24,1.18-1.24,2.37v12.83c0,1.42.26,2.25,1.56,2.89a0.35,0.35,0,0,1,.26.23c0,0.09-.17.09-0.46,0.09-1,0-1.39-.09-3-0.09s-2,.09-3,0.09c-0.29,0-.46,0-0.46-0.09a0.35,0.35,0,0,1,.26-0.23c1.3-.64,1.56-1.47,1.56-2.89v-6.27h-11v6.27c0,1.42.26,2.25,1.56,2.89a0.35,0.35,0,0,1,.26.23c0,0.09-.17.09-0.46,0.09-1,0-1.39-.09-3-0.09s-2,.09-3,0.09c-0.29,0-.46,0-0.46-0.09a0.35,0.35,0,0,1,.26-0.23c1.3-.64,1.56-1.47,1.56-2.89V214c0-1.18-.32-2.14-1.24-2.37a0.7,0.7,0,0,1-.29-0.17c0-.09.17-0.12,0.43-0.12,0.46,0,1.85.12,2.77,0.12s2.31-.12,2.77-0.12c0.26,0,.43,0,0.43.12a0.7,0.7,0,0,1-.29.17c-0.92.23-1.24,1.18-1.24,2.37v5.84h11Z" transform="translate(-0.48)"/><path class="cls-1" d="M258.84,219.87h5.34c2.11,0,4-1,4.36-2.17a0.31,0.31,0,0,1,.23-0.26c0.09,0,.12.14,0.12,0.43v4.77c0,0.49,0,.61-0.12.61a0.56,0.56,0,0,1-.23-0.4c-0.84-2.14-3.21-2.25-5.23-2.25h-4.48v6.1c0,2.11.72,2.57,2.69,2.57h3.26a12.28,12.28,0,0,0,7.54-3.15,4,4,0,0,1,.78-0.61,0.08,0.08,0,0,1,.09.09,1.3,1.3,0,0,1-.06.23L271.87,230H254.28a1.08,1.08,0,0,1-.87-0.12c0-.09.61-0.26,0.81-0.43,1.07-.84,1.27-1.65,1.27-4.28v-9.82c0-1.88-.12-3.12-1.27-3.41a1,1,0,0,1-.49-0.26c0-.12.12-0.17,0.55-0.17H270.6l0.78,2.72a4.14,4.14,0,0,1,.26,1.07,0.21,0.21,0,0,1-.14.23,0.49,0.49,0,0,1-.35-0.26c-1.21-2-4.28-3-7-3h-5.32v7.66Z" transform="translate(-0.48)"/><path class="cls-1" d="M280.61,221.54l-1.56,3a7.32,7.32,0,0,0-1,3.29,1.83,1.83,0,0,0,1.56,1.85c0.23,0.06.32,0.12,0.32,0.2s-0.14.14-.35,0.14-1.24-.09-2.83-0.09c-1.16,0-1.91.09-2.25,0.09s-0.38-.06-0.38-0.14a1,1,0,0,1,.55-0.46,17.71,17.71,0,0,0,3.35-4.56l7.08-13.75a0.4,0.4,0,0,1,.2-0.23h0.06a0.36,0.36,0,0,1,.23.23L294.07,227a7.32,7.32,0,0,0,1.94,2.4,1.79,1.79,0,0,1,.66.49c0,0.09-.14.14-0.4,0.14S294.7,230,293,230c-2.37,0-3.32.09-3.5,0.09a0.31,0.31,0,0,1-.29-0.09c0-.12.14-0.17,0.38-0.23a1.34,1.34,0,0,0,.81-1.5,11.87,11.87,0,0,0-1.3-3.29l-1.65-3.41h-6.88Zm3.41-6.73-3,6h6.12Z" transform="translate(-0.48)"/><path class="cls-1" d="M302.92,226.14c0,2.89,1.1,3.12,3.55,3.12H308a11.12,11.12,0,0,0,7.6-3.35,2.19,2.19,0,0,1,.61-0.69,0.18,0.18,0,0,1,.17.2,2.94,2.94,0,0,1-.12.4L315.08,230h-17c-0.49,0-.64-0.06-0.64-0.14a2.15,2.15,0,0,1,.69-0.26c1.13-.49,1.42-1.56,1.42-4.13V214a2.22,2.22,0,0,0-1.24-2.31,0.35,0.35,0,0,1-.29-0.23c0-.09.17-0.12,0.43-0.12,0.46,0,1.85.12,2.77,0.12s2.31-.12,2.77-0.12c0.26,0,.35,0,0.35.14a0.37,0.37,0,0,1-.26.17,2.21,2.21,0,0,0-1.18,2.34v12.1Z" transform="translate(-0.48)"/><path class="cls-1" d="M320.69,213.54c0-1.13-.49-1.33-1.79-1.33a8.71,8.71,0,0,0-6.1,2.86,3.34,3.34,0,0,1-.52.49,0.16,0.16,0,0,1-.14-0.17,4.74,4.74,0,0,1,.2-0.66l0.92-3.24h18.2l0.92,3.24a4.74,4.74,0,0,1,.2.66,0.16,0.16,0,0,1-.14.17,3.34,3.34,0,0,1-.52-0.49,8.71,8.71,0,0,0-6.1-2.86c-1.3,0-1.79.2-1.79,1.33v13.32c0,1.42.38,2.54,1.73,2.8a0.46,0.46,0,0,1,.43.23,0.26,0.26,0,0,1-.23.17c-0.2,0-2-.09-3.61-0.09s-3.35.09-3.55,0.09-0.26-.06-0.26-0.14a1,1,0,0,1,.55-0.23c1.33-.58,1.59-1.42,1.59-4.1v-12Z" transform="translate(-0.48)"/><path class="cls-1" d="M350,219.87V214c0-1.18-.32-2.14-1.24-2.37a0.7,0.7,0,0,1-.29-0.17c0-.09.17-0.12,0.43-0.12,0.46,0,1.85.12,2.77,0.12s2.31-.12,2.77-0.12c0.26,0,.43,0,0.43.12a0.7,0.7,0,0,1-.29.17c-0.92.23-1.24,1.18-1.24,2.37v12.83c0,1.42.26,2.25,1.56,2.89a0.35,0.35,0,0,1,.26.23c0,0.09-.17.09-0.46,0.09-1,0-1.39-.09-3-0.09s-2,.09-3,0.09c-0.29,0-.46,0-0.46-0.09a0.35,0.35,0,0,1,.26-0.23c1.3-.64,1.56-1.47,1.56-2.89v-6.27H339v6.27c0,1.42.26,2.25,1.56,2.89a0.35,0.35,0,0,1,.26.23c0,0.09-.17.09-0.46,0.09-1,0-1.39-.09-3-0.09s-2,.09-3,0.09c-0.29,0-.46,0-0.46-0.09a0.35,0.35,0,0,1,.26-0.23c1.3-.64,1.56-1.47,1.56-2.89V214c0-1.18-.32-2.14-1.24-2.37a0.7,0.7,0,0,1-.29-0.17c0-.09.17-0.12,0.43-0.12,0.46,0,1.85.12,2.77,0.12s2.31-.12,2.77-0.12c0.26,0,.43,0,0.43.12a0.7,0.7,0,0,1-.29.17c-0.92.23-1.24,1.18-1.24,2.37v5.84h11Z" transform="translate(-0.48)"/><path class="cls-2" d="M176.19,190.11c-0.23,4.54-1,8-3.47,11.51a15.29,15.29,0,0,1-16.79,5.88C149.4,205.66,142,197,146.3,187.24c1.12-2.55,4.31-6.75,9.48-7.44A13.66,13.66,0,0,0,144.7,185,16.21,16.21,0,0,0,150,209.54,18.58,18.58,0,0,0,174.15,202,20,20,0,0,0,176.19,190.11Z" transform="translate(-0.48)"/><path class="cls-1" d="M139.61,195.82c0.23-4.54,1-8,3.47-11.51a15.28,15.28,0,0,1,16.79-5.88c6.54,1.84,13.91,10.49,9.63,20.27-1.12,2.55-4.31,6.75-9.48,7.44a13.66,13.66,0,0,0,11.08-5.22,16.21,16.21,0,0,0-5.31-24.52,18.58,18.58,0,0,0-24.15,7.56A20,20,0,0,0,139.61,195.82Z" transform="translate(-0.48)"/><path class="cls-1" d="M359.18,226.85a1.8,1.8,0,1,1-2.53,2.54,1.75,1.75,0,0,1-.52-1.28A1.79,1.79,0,0,1,359.18,226.85Zm0.21-.2a2.08,2.08,0,1,0,.61,1.47A2,2,0,0,0,359.39,226.65ZM358.23,228a1.09,1.09,0,0,1-.38.05h-0.36v-0.83h0.34a1,1,0,0,1,.49.09A0.41,0.41,0,0,1,358.23,228Zm-1.15,1.23h0.4v-0.9h0.32a1,1,0,0,1,.45.07,0.56,0.56,0,0,1,.22.52v0.3h0.38v0a0.37,0.37,0,0,1,0-.12q0-.09,0-0.17v-0.17a0.63,0.63,0,0,0-.12-0.35,0.56,0.56,0,0,0-.39-0.22,0.87,0.87,0,0,0,.33-0.11,0.5,0.5,0,0,0,.22-0.45,0.57,0.57,0,0,0-.35-0.58,1.74,1.74,0,0,0-.62-0.08h-0.8v2.29Z" transform="translate(-0.48)"/></svg>